%TF.GenerationSoftware,KiCad,Pcbnew,10.0.1*%
%TF.CreationDate,2026-07-11T20:49:09-07:00*%
%TF.ProjectId,row-controller,726f772d-636f-46e7-9472-6f6c6c65722e,rev?*%
%TF.SameCoordinates,Original*%
%TF.FileFunction,Legend,Bot*%
%TF.FilePolarity,Positive*%
%FSLAX46Y46*%
G04 Gerber Fmt 4.6, Leading zero omitted, Abs format (unit mm)*
G04 Created by KiCad (PCBNEW 10.0.1) date 2026-07-11 20:49:09*
%MOMM*%
%LPD*%
G01*
G04 APERTURE LIST*
%ADD10C,0.100000*%
%ADD11C,0.150000*%
%ADD12C,0.120000*%
%ADD13C,0.200000*%
G04 APERTURE END LIST*
D10*
X88243734Y-117026204D02*
X87767544Y-117026204D01*
X88338972Y-117311919D02*
X88005639Y-116311919D01*
X88005639Y-116311919D02*
X87672306Y-117311919D01*
X88338972Y-107264300D02*
X88196115Y-107311919D01*
X88196115Y-107311919D02*
X87958020Y-107311919D01*
X87958020Y-107311919D02*
X87862782Y-107264300D01*
X87862782Y-107264300D02*
X87815163Y-107216680D01*
X87815163Y-107216680D02*
X87767544Y-107121442D01*
X87767544Y-107121442D02*
X87767544Y-107026204D01*
X87767544Y-107026204D02*
X87815163Y-106930966D01*
X87815163Y-106930966D02*
X87862782Y-106883347D01*
X87862782Y-106883347D02*
X87958020Y-106835728D01*
X87958020Y-106835728D02*
X88148496Y-106788109D01*
X88148496Y-106788109D02*
X88243734Y-106740490D01*
X88243734Y-106740490D02*
X88291353Y-106692871D01*
X88291353Y-106692871D02*
X88338972Y-106597633D01*
X88338972Y-106597633D02*
X88338972Y-106502395D01*
X88338972Y-106502395D02*
X88291353Y-106407157D01*
X88291353Y-106407157D02*
X88243734Y-106359538D01*
X88243734Y-106359538D02*
X88148496Y-106311919D01*
X88148496Y-106311919D02*
X87910401Y-106311919D01*
X87910401Y-106311919D02*
X87767544Y-106359538D01*
X88005639Y-111788109D02*
X87862782Y-111835728D01*
X87862782Y-111835728D02*
X87815163Y-111883347D01*
X87815163Y-111883347D02*
X87767544Y-111978585D01*
X87767544Y-111978585D02*
X87767544Y-112121442D01*
X87767544Y-112121442D02*
X87815163Y-112216680D01*
X87815163Y-112216680D02*
X87862782Y-112264300D01*
X87862782Y-112264300D02*
X87958020Y-112311919D01*
X87958020Y-112311919D02*
X88338972Y-112311919D01*
X88338972Y-112311919D02*
X88338972Y-111311919D01*
X88338972Y-111311919D02*
X88005639Y-111311919D01*
X88005639Y-111311919D02*
X87910401Y-111359538D01*
X87910401Y-111359538D02*
X87862782Y-111407157D01*
X87862782Y-111407157D02*
X87815163Y-111502395D01*
X87815163Y-111502395D02*
X87815163Y-111597633D01*
X87815163Y-111597633D02*
X87862782Y-111692871D01*
X87862782Y-111692871D02*
X87910401Y-111740490D01*
X87910401Y-111740490D02*
X88005639Y-111788109D01*
X88005639Y-111788109D02*
X88338972Y-111788109D01*
X89862782Y-101359538D02*
X89958020Y-101311919D01*
X89958020Y-101311919D02*
X90100877Y-101311919D01*
X90100877Y-101311919D02*
X90243734Y-101359538D01*
X90243734Y-101359538D02*
X90338972Y-101454776D01*
X90338972Y-101454776D02*
X90386591Y-101550014D01*
X90386591Y-101550014D02*
X90434210Y-101740490D01*
X90434210Y-101740490D02*
X90434210Y-101883347D01*
X90434210Y-101883347D02*
X90386591Y-102073823D01*
X90386591Y-102073823D02*
X90338972Y-102169061D01*
X90338972Y-102169061D02*
X90243734Y-102264300D01*
X90243734Y-102264300D02*
X90100877Y-102311919D01*
X90100877Y-102311919D02*
X90005639Y-102311919D01*
X90005639Y-102311919D02*
X89862782Y-102264300D01*
X89862782Y-102264300D02*
X89815163Y-102216680D01*
X89815163Y-102216680D02*
X89815163Y-101883347D01*
X89815163Y-101883347D02*
X90005639Y-101883347D01*
X89386591Y-102311919D02*
X89386591Y-101311919D01*
X89386591Y-101311919D02*
X88815163Y-102311919D01*
X88815163Y-102311919D02*
X88815163Y-101311919D01*
X88338972Y-102311919D02*
X88338972Y-101311919D01*
X88338972Y-101311919D02*
X88100877Y-101311919D01*
X88100877Y-101311919D02*
X87958020Y-101359538D01*
X87958020Y-101359538D02*
X87862782Y-101454776D01*
X87862782Y-101454776D02*
X87815163Y-101550014D01*
X87815163Y-101550014D02*
X87767544Y-101740490D01*
X87767544Y-101740490D02*
X87767544Y-101883347D01*
X87767544Y-101883347D02*
X87815163Y-102073823D01*
X87815163Y-102073823D02*
X87862782Y-102169061D01*
X87862782Y-102169061D02*
X87958020Y-102264300D01*
X87958020Y-102264300D02*
X88100877Y-102311919D01*
X88100877Y-102311919D02*
X88338972Y-102311919D01*
X102372306Y-119620038D02*
X102467544Y-119572419D01*
X102467544Y-119572419D02*
X102610401Y-119572419D01*
X102610401Y-119572419D02*
X102753258Y-119620038D01*
X102753258Y-119620038D02*
X102848496Y-119715276D01*
X102848496Y-119715276D02*
X102896115Y-119810514D01*
X102896115Y-119810514D02*
X102943734Y-120000990D01*
X102943734Y-120000990D02*
X102943734Y-120143847D01*
X102943734Y-120143847D02*
X102896115Y-120334323D01*
X102896115Y-120334323D02*
X102848496Y-120429561D01*
X102848496Y-120429561D02*
X102753258Y-120524800D01*
X102753258Y-120524800D02*
X102610401Y-120572419D01*
X102610401Y-120572419D02*
X102515163Y-120572419D01*
X102515163Y-120572419D02*
X102372306Y-120524800D01*
X102372306Y-120524800D02*
X102324687Y-120477180D01*
X102324687Y-120477180D02*
X102324687Y-120143847D01*
X102324687Y-120143847D02*
X102515163Y-120143847D01*
X101896115Y-120572419D02*
X101896115Y-119572419D01*
X101896115Y-119572419D02*
X101324687Y-120572419D01*
X101324687Y-120572419D02*
X101324687Y-119572419D01*
X100848496Y-120572419D02*
X100848496Y-119572419D01*
X100848496Y-119572419D02*
X100610401Y-119572419D01*
X100610401Y-119572419D02*
X100467544Y-119620038D01*
X100467544Y-119620038D02*
X100372306Y-119715276D01*
X100372306Y-119715276D02*
X100324687Y-119810514D01*
X100324687Y-119810514D02*
X100277068Y-120000990D01*
X100277068Y-120000990D02*
X100277068Y-120143847D01*
X100277068Y-120143847D02*
X100324687Y-120334323D01*
X100324687Y-120334323D02*
X100372306Y-120429561D01*
X100372306Y-120429561D02*
X100467544Y-120524800D01*
X100467544Y-120524800D02*
X100610401Y-120572419D01*
X100610401Y-120572419D02*
X100848496Y-120572419D01*
X104019925Y-104872419D02*
X104496115Y-104872419D01*
X104496115Y-104872419D02*
X104543734Y-105348609D01*
X104543734Y-105348609D02*
X104496115Y-105300990D01*
X104496115Y-105300990D02*
X104400877Y-105253371D01*
X104400877Y-105253371D02*
X104162782Y-105253371D01*
X104162782Y-105253371D02*
X104067544Y-105300990D01*
X104067544Y-105300990D02*
X104019925Y-105348609D01*
X104019925Y-105348609D02*
X103972306Y-105443847D01*
X103972306Y-105443847D02*
X103972306Y-105681942D01*
X103972306Y-105681942D02*
X104019925Y-105777180D01*
X104019925Y-105777180D02*
X104067544Y-105824800D01*
X104067544Y-105824800D02*
X104162782Y-105872419D01*
X104162782Y-105872419D02*
X104400877Y-105872419D01*
X104400877Y-105872419D02*
X104496115Y-105824800D01*
X104496115Y-105824800D02*
X104543734Y-105777180D01*
X103686591Y-104872419D02*
X103353258Y-105872419D01*
X103353258Y-105872419D02*
X103019925Y-104872419D01*
X103972306Y-107520038D02*
X104067544Y-107472419D01*
X104067544Y-107472419D02*
X104210401Y-107472419D01*
X104210401Y-107472419D02*
X104353258Y-107520038D01*
X104353258Y-107520038D02*
X104448496Y-107615276D01*
X104448496Y-107615276D02*
X104496115Y-107710514D01*
X104496115Y-107710514D02*
X104543734Y-107900990D01*
X104543734Y-107900990D02*
X104543734Y-108043847D01*
X104543734Y-108043847D02*
X104496115Y-108234323D01*
X104496115Y-108234323D02*
X104448496Y-108329561D01*
X104448496Y-108329561D02*
X104353258Y-108424800D01*
X104353258Y-108424800D02*
X104210401Y-108472419D01*
X104210401Y-108472419D02*
X104115163Y-108472419D01*
X104115163Y-108472419D02*
X103972306Y-108424800D01*
X103972306Y-108424800D02*
X103924687Y-108377180D01*
X103924687Y-108377180D02*
X103924687Y-108043847D01*
X103924687Y-108043847D02*
X104115163Y-108043847D01*
X103496115Y-108472419D02*
X103496115Y-107472419D01*
X103496115Y-107472419D02*
X102924687Y-108472419D01*
X102924687Y-108472419D02*
X102924687Y-107472419D01*
X102448496Y-108472419D02*
X102448496Y-107472419D01*
X102448496Y-107472419D02*
X102210401Y-107472419D01*
X102210401Y-107472419D02*
X102067544Y-107520038D01*
X102067544Y-107520038D02*
X101972306Y-107615276D01*
X101972306Y-107615276D02*
X101924687Y-107710514D01*
X101924687Y-107710514D02*
X101877068Y-107900990D01*
X101877068Y-107900990D02*
X101877068Y-108043847D01*
X101877068Y-108043847D02*
X101924687Y-108234323D01*
X101924687Y-108234323D02*
X101972306Y-108329561D01*
X101972306Y-108329561D02*
X102067544Y-108424800D01*
X102067544Y-108424800D02*
X102210401Y-108472419D01*
X102210401Y-108472419D02*
X102448496Y-108472419D01*
X103972306Y-110972419D02*
X104543734Y-110972419D01*
X104258020Y-110972419D02*
X104258020Y-109972419D01*
X104258020Y-109972419D02*
X104353258Y-110115276D01*
X104353258Y-110115276D02*
X104448496Y-110210514D01*
X104448496Y-110210514D02*
X104543734Y-110258133D01*
X103591353Y-110067657D02*
X103543734Y-110020038D01*
X103543734Y-110020038D02*
X103448496Y-109972419D01*
X103448496Y-109972419D02*
X103210401Y-109972419D01*
X103210401Y-109972419D02*
X103115163Y-110020038D01*
X103115163Y-110020038D02*
X103067544Y-110067657D01*
X103067544Y-110067657D02*
X103019925Y-110162895D01*
X103019925Y-110162895D02*
X103019925Y-110258133D01*
X103019925Y-110258133D02*
X103067544Y-110400990D01*
X103067544Y-110400990D02*
X103638972Y-110972419D01*
X103638972Y-110972419D02*
X103019925Y-110972419D01*
X102734210Y-109972419D02*
X102400877Y-110972419D01*
X102400877Y-110972419D02*
X102067544Y-109972419D01*
X104124687Y-125972419D02*
X104458020Y-125496228D01*
X104696115Y-125972419D02*
X104696115Y-124972419D01*
X104696115Y-124972419D02*
X104315163Y-124972419D01*
X104315163Y-124972419D02*
X104219925Y-125020038D01*
X104219925Y-125020038D02*
X104172306Y-125067657D01*
X104172306Y-125067657D02*
X104124687Y-125162895D01*
X104124687Y-125162895D02*
X104124687Y-125305752D01*
X104124687Y-125305752D02*
X104172306Y-125400990D01*
X104172306Y-125400990D02*
X104219925Y-125448609D01*
X104219925Y-125448609D02*
X104315163Y-125496228D01*
X104315163Y-125496228D02*
X104696115Y-125496228D01*
X103696115Y-125972419D02*
X103696115Y-124972419D01*
X103696115Y-124972419D02*
X103315163Y-124972419D01*
X103315163Y-124972419D02*
X103219925Y-125020038D01*
X103219925Y-125020038D02*
X103172306Y-125067657D01*
X103172306Y-125067657D02*
X103124687Y-125162895D01*
X103124687Y-125162895D02*
X103124687Y-125305752D01*
X103124687Y-125305752D02*
X103172306Y-125400990D01*
X103172306Y-125400990D02*
X103219925Y-125448609D01*
X103219925Y-125448609D02*
X103315163Y-125496228D01*
X103315163Y-125496228D02*
X103696115Y-125496228D01*
X102696115Y-125972419D02*
X102696115Y-125305752D01*
X102696115Y-124972419D02*
X102743734Y-125020038D01*
X102743734Y-125020038D02*
X102696115Y-125067657D01*
X102696115Y-125067657D02*
X102648496Y-125020038D01*
X102648496Y-125020038D02*
X102696115Y-124972419D01*
X102696115Y-124972419D02*
X102696115Y-125067657D01*
X101458020Y-125972419D02*
X101458020Y-124972419D01*
X100981830Y-125972419D02*
X100981830Y-124972419D01*
X100981830Y-124972419D02*
X100410402Y-125972419D01*
X100410402Y-125972419D02*
X100410402Y-124972419D01*
X106662782Y-124148609D02*
X106519925Y-124196228D01*
X106519925Y-124196228D02*
X106472306Y-124243847D01*
X106472306Y-124243847D02*
X106424687Y-124339085D01*
X106424687Y-124339085D02*
X106424687Y-124481942D01*
X106424687Y-124481942D02*
X106472306Y-124577180D01*
X106472306Y-124577180D02*
X106519925Y-124624800D01*
X106519925Y-124624800D02*
X106615163Y-124672419D01*
X106615163Y-124672419D02*
X106996115Y-124672419D01*
X106996115Y-124672419D02*
X106996115Y-123672419D01*
X106996115Y-123672419D02*
X106662782Y-123672419D01*
X106662782Y-123672419D02*
X106567544Y-123720038D01*
X106567544Y-123720038D02*
X106519925Y-123767657D01*
X106519925Y-123767657D02*
X106472306Y-123862895D01*
X106472306Y-123862895D02*
X106472306Y-123958133D01*
X106472306Y-123958133D02*
X106519925Y-124053371D01*
X106519925Y-124053371D02*
X106567544Y-124100990D01*
X106567544Y-124100990D02*
X106662782Y-124148609D01*
X106662782Y-124148609D02*
X106996115Y-124148609D01*
X112143734Y-124286704D02*
X111667544Y-124286704D01*
X112238972Y-124572419D02*
X111905639Y-123572419D01*
X111905639Y-123572419D02*
X111572306Y-124572419D01*
X113938972Y-118605752D02*
X113558020Y-118605752D01*
X113796115Y-118272419D02*
X113796115Y-119129561D01*
X113796115Y-119129561D02*
X113748496Y-119224800D01*
X113748496Y-119224800D02*
X113653258Y-119272419D01*
X113653258Y-119272419D02*
X113558020Y-119272419D01*
X112843734Y-119224800D02*
X112938972Y-119272419D01*
X112938972Y-119272419D02*
X113129448Y-119272419D01*
X113129448Y-119272419D02*
X113224686Y-119224800D01*
X113224686Y-119224800D02*
X113272305Y-119129561D01*
X113272305Y-119129561D02*
X113272305Y-118748609D01*
X113272305Y-118748609D02*
X113224686Y-118653371D01*
X113224686Y-118653371D02*
X113129448Y-118605752D01*
X113129448Y-118605752D02*
X112938972Y-118605752D01*
X112938972Y-118605752D02*
X112843734Y-118653371D01*
X112843734Y-118653371D02*
X112796115Y-118748609D01*
X112796115Y-118748609D02*
X112796115Y-118843847D01*
X112796115Y-118843847D02*
X113272305Y-118939085D01*
X112367543Y-119272419D02*
X112367543Y-118605752D01*
X112367543Y-118796228D02*
X112319924Y-118700990D01*
X112319924Y-118700990D02*
X112272305Y-118653371D01*
X112272305Y-118653371D02*
X112177067Y-118605752D01*
X112177067Y-118605752D02*
X112081829Y-118605752D01*
X111748495Y-119272419D02*
X111748495Y-118605752D01*
X111748495Y-118700990D02*
X111700876Y-118653371D01*
X111700876Y-118653371D02*
X111605638Y-118605752D01*
X111605638Y-118605752D02*
X111462781Y-118605752D01*
X111462781Y-118605752D02*
X111367543Y-118653371D01*
X111367543Y-118653371D02*
X111319924Y-118748609D01*
X111319924Y-118748609D02*
X111319924Y-119272419D01*
X111319924Y-118748609D02*
X111272305Y-118653371D01*
X111272305Y-118653371D02*
X111177067Y-118605752D01*
X111177067Y-118605752D02*
X111034210Y-118605752D01*
X111034210Y-118605752D02*
X110938971Y-118653371D01*
X110938971Y-118653371D02*
X110891352Y-118748609D01*
X110891352Y-118748609D02*
X110891352Y-119272419D01*
X110415162Y-119272419D02*
X110415162Y-118605752D01*
X110415162Y-118272419D02*
X110462781Y-118320038D01*
X110462781Y-118320038D02*
X110415162Y-118367657D01*
X110415162Y-118367657D02*
X110367543Y-118320038D01*
X110367543Y-118320038D02*
X110415162Y-118272419D01*
X110415162Y-118272419D02*
X110415162Y-118367657D01*
X109938972Y-118605752D02*
X109938972Y-119272419D01*
X109938972Y-118700990D02*
X109891353Y-118653371D01*
X109891353Y-118653371D02*
X109796115Y-118605752D01*
X109796115Y-118605752D02*
X109653258Y-118605752D01*
X109653258Y-118605752D02*
X109558020Y-118653371D01*
X109558020Y-118653371D02*
X109510401Y-118748609D01*
X109510401Y-118748609D02*
X109510401Y-119272419D01*
X108605639Y-119272419D02*
X108605639Y-118748609D01*
X108605639Y-118748609D02*
X108653258Y-118653371D01*
X108653258Y-118653371D02*
X108748496Y-118605752D01*
X108748496Y-118605752D02*
X108938972Y-118605752D01*
X108938972Y-118605752D02*
X109034210Y-118653371D01*
X108605639Y-119224800D02*
X108700877Y-119272419D01*
X108700877Y-119272419D02*
X108938972Y-119272419D01*
X108938972Y-119272419D02*
X109034210Y-119224800D01*
X109034210Y-119224800D02*
X109081829Y-119129561D01*
X109081829Y-119129561D02*
X109081829Y-119034323D01*
X109081829Y-119034323D02*
X109034210Y-118939085D01*
X109034210Y-118939085D02*
X108938972Y-118891466D01*
X108938972Y-118891466D02*
X108700877Y-118891466D01*
X108700877Y-118891466D02*
X108605639Y-118843847D01*
X108272305Y-118605752D02*
X107891353Y-118605752D01*
X108129448Y-118272419D02*
X108129448Y-119129561D01*
X108129448Y-119129561D02*
X108081829Y-119224800D01*
X108081829Y-119224800D02*
X107986591Y-119272419D01*
X107986591Y-119272419D02*
X107891353Y-119272419D01*
X107558019Y-119272419D02*
X107558019Y-118605752D01*
X107558019Y-118272419D02*
X107605638Y-118320038D01*
X107605638Y-118320038D02*
X107558019Y-118367657D01*
X107558019Y-118367657D02*
X107510400Y-118320038D01*
X107510400Y-118320038D02*
X107558019Y-118272419D01*
X107558019Y-118272419D02*
X107558019Y-118367657D01*
X106938972Y-119272419D02*
X107034210Y-119224800D01*
X107034210Y-119224800D02*
X107081829Y-119177180D01*
X107081829Y-119177180D02*
X107129448Y-119081942D01*
X107129448Y-119081942D02*
X107129448Y-118796228D01*
X107129448Y-118796228D02*
X107081829Y-118700990D01*
X107081829Y-118700990D02*
X107034210Y-118653371D01*
X107034210Y-118653371D02*
X106938972Y-118605752D01*
X106938972Y-118605752D02*
X106796115Y-118605752D01*
X106796115Y-118605752D02*
X106700877Y-118653371D01*
X106700877Y-118653371D02*
X106653258Y-118700990D01*
X106653258Y-118700990D02*
X106605639Y-118796228D01*
X106605639Y-118796228D02*
X106605639Y-119081942D01*
X106605639Y-119081942D02*
X106653258Y-119177180D01*
X106653258Y-119177180D02*
X106700877Y-119224800D01*
X106700877Y-119224800D02*
X106796115Y-119272419D01*
X106796115Y-119272419D02*
X106938972Y-119272419D01*
X106177067Y-118605752D02*
X106177067Y-119272419D01*
X106177067Y-118700990D02*
X106129448Y-118653371D01*
X106129448Y-118653371D02*
X106034210Y-118605752D01*
X106034210Y-118605752D02*
X105891353Y-118605752D01*
X105891353Y-118605752D02*
X105796115Y-118653371D01*
X105796115Y-118653371D02*
X105748496Y-118748609D01*
X105748496Y-118748609D02*
X105748496Y-119272419D01*
X127672306Y-102220038D02*
X127767544Y-102172419D01*
X127767544Y-102172419D02*
X127910401Y-102172419D01*
X127910401Y-102172419D02*
X128053258Y-102220038D01*
X128053258Y-102220038D02*
X128148496Y-102315276D01*
X128148496Y-102315276D02*
X128196115Y-102410514D01*
X128196115Y-102410514D02*
X128243734Y-102600990D01*
X128243734Y-102600990D02*
X128243734Y-102743847D01*
X128243734Y-102743847D02*
X128196115Y-102934323D01*
X128196115Y-102934323D02*
X128148496Y-103029561D01*
X128148496Y-103029561D02*
X128053258Y-103124800D01*
X128053258Y-103124800D02*
X127910401Y-103172419D01*
X127910401Y-103172419D02*
X127815163Y-103172419D01*
X127815163Y-103172419D02*
X127672306Y-103124800D01*
X127672306Y-103124800D02*
X127624687Y-103077180D01*
X127624687Y-103077180D02*
X127624687Y-102743847D01*
X127624687Y-102743847D02*
X127815163Y-102743847D01*
X127196115Y-103172419D02*
X127196115Y-102172419D01*
X127196115Y-102172419D02*
X126624687Y-103172419D01*
X126624687Y-103172419D02*
X126624687Y-102172419D01*
X126148496Y-103172419D02*
X126148496Y-102172419D01*
X126148496Y-102172419D02*
X125910401Y-102172419D01*
X125910401Y-102172419D02*
X125767544Y-102220038D01*
X125767544Y-102220038D02*
X125672306Y-102315276D01*
X125672306Y-102315276D02*
X125624687Y-102410514D01*
X125624687Y-102410514D02*
X125577068Y-102600990D01*
X125577068Y-102600990D02*
X125577068Y-102743847D01*
X125577068Y-102743847D02*
X125624687Y-102934323D01*
X125624687Y-102934323D02*
X125672306Y-103029561D01*
X125672306Y-103029561D02*
X125767544Y-103124800D01*
X125767544Y-103124800D02*
X125910401Y-103172419D01*
X125910401Y-103172419D02*
X126148496Y-103172419D01*
X127672306Y-105772419D02*
X128243734Y-105772419D01*
X127958020Y-105772419D02*
X127958020Y-104772419D01*
X127958020Y-104772419D02*
X128053258Y-104915276D01*
X128053258Y-104915276D02*
X128148496Y-105010514D01*
X128148496Y-105010514D02*
X128243734Y-105058133D01*
X127291353Y-104867657D02*
X127243734Y-104820038D01*
X127243734Y-104820038D02*
X127148496Y-104772419D01*
X127148496Y-104772419D02*
X126910401Y-104772419D01*
X126910401Y-104772419D02*
X126815163Y-104820038D01*
X126815163Y-104820038D02*
X126767544Y-104867657D01*
X126767544Y-104867657D02*
X126719925Y-104962895D01*
X126719925Y-104962895D02*
X126719925Y-105058133D01*
X126719925Y-105058133D02*
X126767544Y-105200990D01*
X126767544Y-105200990D02*
X127338972Y-105772419D01*
X127338972Y-105772419D02*
X126719925Y-105772419D01*
X126434210Y-104772419D02*
X126100877Y-105772419D01*
X126100877Y-105772419D02*
X125767544Y-104772419D01*
X127672306Y-111120038D02*
X127767544Y-111072419D01*
X127767544Y-111072419D02*
X127910401Y-111072419D01*
X127910401Y-111072419D02*
X128053258Y-111120038D01*
X128053258Y-111120038D02*
X128148496Y-111215276D01*
X128148496Y-111215276D02*
X128196115Y-111310514D01*
X128196115Y-111310514D02*
X128243734Y-111500990D01*
X128243734Y-111500990D02*
X128243734Y-111643847D01*
X128243734Y-111643847D02*
X128196115Y-111834323D01*
X128196115Y-111834323D02*
X128148496Y-111929561D01*
X128148496Y-111929561D02*
X128053258Y-112024800D01*
X128053258Y-112024800D02*
X127910401Y-112072419D01*
X127910401Y-112072419D02*
X127815163Y-112072419D01*
X127815163Y-112072419D02*
X127672306Y-112024800D01*
X127672306Y-112024800D02*
X127624687Y-111977180D01*
X127624687Y-111977180D02*
X127624687Y-111643847D01*
X127624687Y-111643847D02*
X127815163Y-111643847D01*
X127196115Y-112072419D02*
X127196115Y-111072419D01*
X127196115Y-111072419D02*
X126624687Y-112072419D01*
X126624687Y-112072419D02*
X126624687Y-111072419D01*
X126148496Y-112072419D02*
X126148496Y-111072419D01*
X126148496Y-111072419D02*
X125910401Y-111072419D01*
X125910401Y-111072419D02*
X125767544Y-111120038D01*
X125767544Y-111120038D02*
X125672306Y-111215276D01*
X125672306Y-111215276D02*
X125624687Y-111310514D01*
X125624687Y-111310514D02*
X125577068Y-111500990D01*
X125577068Y-111500990D02*
X125577068Y-111643847D01*
X125577068Y-111643847D02*
X125624687Y-111834323D01*
X125624687Y-111834323D02*
X125672306Y-111929561D01*
X125672306Y-111929561D02*
X125767544Y-112024800D01*
X125767544Y-112024800D02*
X125910401Y-112072419D01*
X125910401Y-112072419D02*
X126148496Y-112072419D01*
X127672306Y-114672419D02*
X128243734Y-114672419D01*
X127958020Y-114672419D02*
X127958020Y-113672419D01*
X127958020Y-113672419D02*
X128053258Y-113815276D01*
X128053258Y-113815276D02*
X128148496Y-113910514D01*
X128148496Y-113910514D02*
X128243734Y-113958133D01*
X127291353Y-113767657D02*
X127243734Y-113720038D01*
X127243734Y-113720038D02*
X127148496Y-113672419D01*
X127148496Y-113672419D02*
X126910401Y-113672419D01*
X126910401Y-113672419D02*
X126815163Y-113720038D01*
X126815163Y-113720038D02*
X126767544Y-113767657D01*
X126767544Y-113767657D02*
X126719925Y-113862895D01*
X126719925Y-113862895D02*
X126719925Y-113958133D01*
X126719925Y-113958133D02*
X126767544Y-114100990D01*
X126767544Y-114100990D02*
X127338972Y-114672419D01*
X127338972Y-114672419D02*
X126719925Y-114672419D01*
X126434210Y-113672419D02*
X126100877Y-114672419D01*
X126100877Y-114672419D02*
X125767544Y-113672419D01*
X131324687Y-125272419D02*
X131658020Y-124796228D01*
X131896115Y-125272419D02*
X131896115Y-124272419D01*
X131896115Y-124272419D02*
X131515163Y-124272419D01*
X131515163Y-124272419D02*
X131419925Y-124320038D01*
X131419925Y-124320038D02*
X131372306Y-124367657D01*
X131372306Y-124367657D02*
X131324687Y-124462895D01*
X131324687Y-124462895D02*
X131324687Y-124605752D01*
X131324687Y-124605752D02*
X131372306Y-124700990D01*
X131372306Y-124700990D02*
X131419925Y-124748609D01*
X131419925Y-124748609D02*
X131515163Y-124796228D01*
X131515163Y-124796228D02*
X131896115Y-124796228D01*
X130753258Y-125272419D02*
X130848496Y-125224800D01*
X130848496Y-125224800D02*
X130896115Y-125177180D01*
X130896115Y-125177180D02*
X130943734Y-125081942D01*
X130943734Y-125081942D02*
X130943734Y-124796228D01*
X130943734Y-124796228D02*
X130896115Y-124700990D01*
X130896115Y-124700990D02*
X130848496Y-124653371D01*
X130848496Y-124653371D02*
X130753258Y-124605752D01*
X130753258Y-124605752D02*
X130610401Y-124605752D01*
X130610401Y-124605752D02*
X130515163Y-124653371D01*
X130515163Y-124653371D02*
X130467544Y-124700990D01*
X130467544Y-124700990D02*
X130419925Y-124796228D01*
X130419925Y-124796228D02*
X130419925Y-125081942D01*
X130419925Y-125081942D02*
X130467544Y-125177180D01*
X130467544Y-125177180D02*
X130515163Y-125224800D01*
X130515163Y-125224800D02*
X130610401Y-125272419D01*
X130610401Y-125272419D02*
X130753258Y-125272419D01*
X130086591Y-124605752D02*
X129896115Y-125272419D01*
X129896115Y-125272419D02*
X129705639Y-124796228D01*
X129705639Y-124796228D02*
X129515163Y-125272419D01*
X129515163Y-125272419D02*
X129324687Y-124605752D01*
X127610401Y-125177180D02*
X127658020Y-125224800D01*
X127658020Y-125224800D02*
X127800877Y-125272419D01*
X127800877Y-125272419D02*
X127896115Y-125272419D01*
X127896115Y-125272419D02*
X128038972Y-125224800D01*
X128038972Y-125224800D02*
X128134210Y-125129561D01*
X128134210Y-125129561D02*
X128181829Y-125034323D01*
X128181829Y-125034323D02*
X128229448Y-124843847D01*
X128229448Y-124843847D02*
X128229448Y-124700990D01*
X128229448Y-124700990D02*
X128181829Y-124510514D01*
X128181829Y-124510514D02*
X128134210Y-124415276D01*
X128134210Y-124415276D02*
X128038972Y-124320038D01*
X128038972Y-124320038D02*
X127896115Y-124272419D01*
X127896115Y-124272419D02*
X127800877Y-124272419D01*
X127800877Y-124272419D02*
X127658020Y-124320038D01*
X127658020Y-124320038D02*
X127610401Y-124367657D01*
X127038972Y-125272419D02*
X127134210Y-125224800D01*
X127134210Y-125224800D02*
X127181829Y-125177180D01*
X127181829Y-125177180D02*
X127229448Y-125081942D01*
X127229448Y-125081942D02*
X127229448Y-124796228D01*
X127229448Y-124796228D02*
X127181829Y-124700990D01*
X127181829Y-124700990D02*
X127134210Y-124653371D01*
X127134210Y-124653371D02*
X127038972Y-124605752D01*
X127038972Y-124605752D02*
X126896115Y-124605752D01*
X126896115Y-124605752D02*
X126800877Y-124653371D01*
X126800877Y-124653371D02*
X126753258Y-124700990D01*
X126753258Y-124700990D02*
X126705639Y-124796228D01*
X126705639Y-124796228D02*
X126705639Y-125081942D01*
X126705639Y-125081942D02*
X126753258Y-125177180D01*
X126753258Y-125177180D02*
X126800877Y-125224800D01*
X126800877Y-125224800D02*
X126896115Y-125272419D01*
X126896115Y-125272419D02*
X127038972Y-125272419D01*
X126277067Y-124605752D02*
X126277067Y-125272419D01*
X126277067Y-124700990D02*
X126229448Y-124653371D01*
X126229448Y-124653371D02*
X126134210Y-124605752D01*
X126134210Y-124605752D02*
X125991353Y-124605752D01*
X125991353Y-124605752D02*
X125896115Y-124653371D01*
X125896115Y-124653371D02*
X125848496Y-124748609D01*
X125848496Y-124748609D02*
X125848496Y-125272419D01*
X125515162Y-124605752D02*
X125134210Y-124605752D01*
X125372305Y-124272419D02*
X125372305Y-125129561D01*
X125372305Y-125129561D02*
X125324686Y-125224800D01*
X125324686Y-125224800D02*
X125229448Y-125272419D01*
X125229448Y-125272419D02*
X125134210Y-125272419D01*
X124800876Y-125272419D02*
X124800876Y-124605752D01*
X124800876Y-124796228D02*
X124753257Y-124700990D01*
X124753257Y-124700990D02*
X124705638Y-124653371D01*
X124705638Y-124653371D02*
X124610400Y-124605752D01*
X124610400Y-124605752D02*
X124515162Y-124605752D01*
X124038971Y-125272419D02*
X124134209Y-125224800D01*
X124134209Y-125224800D02*
X124181828Y-125177180D01*
X124181828Y-125177180D02*
X124229447Y-125081942D01*
X124229447Y-125081942D02*
X124229447Y-124796228D01*
X124229447Y-124796228D02*
X124181828Y-124700990D01*
X124181828Y-124700990D02*
X124134209Y-124653371D01*
X124134209Y-124653371D02*
X124038971Y-124605752D01*
X124038971Y-124605752D02*
X123896114Y-124605752D01*
X123896114Y-124605752D02*
X123800876Y-124653371D01*
X123800876Y-124653371D02*
X123753257Y-124700990D01*
X123753257Y-124700990D02*
X123705638Y-124796228D01*
X123705638Y-124796228D02*
X123705638Y-125081942D01*
X123705638Y-125081942D02*
X123753257Y-125177180D01*
X123753257Y-125177180D02*
X123800876Y-125224800D01*
X123800876Y-125224800D02*
X123896114Y-125272419D01*
X123896114Y-125272419D02*
X124038971Y-125272419D01*
X123134209Y-125272419D02*
X123229447Y-125224800D01*
X123229447Y-125224800D02*
X123277066Y-125129561D01*
X123277066Y-125129561D02*
X123277066Y-124272419D01*
X122610399Y-125272419D02*
X122705637Y-125224800D01*
X122705637Y-125224800D02*
X122753256Y-125129561D01*
X122753256Y-125129561D02*
X122753256Y-124272419D01*
X121848494Y-125224800D02*
X121943732Y-125272419D01*
X121943732Y-125272419D02*
X122134208Y-125272419D01*
X122134208Y-125272419D02*
X122229446Y-125224800D01*
X122229446Y-125224800D02*
X122277065Y-125129561D01*
X122277065Y-125129561D02*
X122277065Y-124748609D01*
X122277065Y-124748609D02*
X122229446Y-124653371D01*
X122229446Y-124653371D02*
X122134208Y-124605752D01*
X122134208Y-124605752D02*
X121943732Y-124605752D01*
X121943732Y-124605752D02*
X121848494Y-124653371D01*
X121848494Y-124653371D02*
X121800875Y-124748609D01*
X121800875Y-124748609D02*
X121800875Y-124843847D01*
X121800875Y-124843847D02*
X122277065Y-124939085D01*
X121372303Y-125272419D02*
X121372303Y-124605752D01*
X121372303Y-124796228D02*
X121324684Y-124700990D01*
X121324684Y-124700990D02*
X121277065Y-124653371D01*
X121277065Y-124653371D02*
X121181827Y-124605752D01*
X121181827Y-124605752D02*
X121086589Y-124605752D01*
X131943734Y-125867657D02*
X131896115Y-125820038D01*
X131896115Y-125820038D02*
X131800877Y-125772419D01*
X131800877Y-125772419D02*
X131562782Y-125772419D01*
X131562782Y-125772419D02*
X131467544Y-125820038D01*
X131467544Y-125820038D02*
X131419925Y-125867657D01*
X131419925Y-125867657D02*
X131372306Y-125962895D01*
X131372306Y-125962895D02*
X131372306Y-126058133D01*
X131372306Y-126058133D02*
X131419925Y-126200990D01*
X131419925Y-126200990D02*
X131991353Y-126772419D01*
X131991353Y-126772419D02*
X131372306Y-126772419D01*
X130753258Y-125772419D02*
X130658020Y-125772419D01*
X130658020Y-125772419D02*
X130562782Y-125820038D01*
X130562782Y-125820038D02*
X130515163Y-125867657D01*
X130515163Y-125867657D02*
X130467544Y-125962895D01*
X130467544Y-125962895D02*
X130419925Y-126153371D01*
X130419925Y-126153371D02*
X130419925Y-126391466D01*
X130419925Y-126391466D02*
X130467544Y-126581942D01*
X130467544Y-126581942D02*
X130515163Y-126677180D01*
X130515163Y-126677180D02*
X130562782Y-126724800D01*
X130562782Y-126724800D02*
X130658020Y-126772419D01*
X130658020Y-126772419D02*
X130753258Y-126772419D01*
X130753258Y-126772419D02*
X130848496Y-126724800D01*
X130848496Y-126724800D02*
X130896115Y-126677180D01*
X130896115Y-126677180D02*
X130943734Y-126581942D01*
X130943734Y-126581942D02*
X130991353Y-126391466D01*
X130991353Y-126391466D02*
X130991353Y-126153371D01*
X130991353Y-126153371D02*
X130943734Y-125962895D01*
X130943734Y-125962895D02*
X130896115Y-125867657D01*
X130896115Y-125867657D02*
X130848496Y-125820038D01*
X130848496Y-125820038D02*
X130753258Y-125772419D01*
X130038972Y-125867657D02*
X129991353Y-125820038D01*
X129991353Y-125820038D02*
X129896115Y-125772419D01*
X129896115Y-125772419D02*
X129658020Y-125772419D01*
X129658020Y-125772419D02*
X129562782Y-125820038D01*
X129562782Y-125820038D02*
X129515163Y-125867657D01*
X129515163Y-125867657D02*
X129467544Y-125962895D01*
X129467544Y-125962895D02*
X129467544Y-126058133D01*
X129467544Y-126058133D02*
X129515163Y-126200990D01*
X129515163Y-126200990D02*
X130086591Y-126772419D01*
X130086591Y-126772419D02*
X129467544Y-126772419D01*
X128562782Y-125772419D02*
X129038972Y-125772419D01*
X129038972Y-125772419D02*
X129086591Y-126248609D01*
X129086591Y-126248609D02*
X129038972Y-126200990D01*
X129038972Y-126200990D02*
X128943734Y-126153371D01*
X128943734Y-126153371D02*
X128705639Y-126153371D01*
X128705639Y-126153371D02*
X128610401Y-126200990D01*
X128610401Y-126200990D02*
X128562782Y-126248609D01*
X128562782Y-126248609D02*
X128515163Y-126343847D01*
X128515163Y-126343847D02*
X128515163Y-126581942D01*
X128515163Y-126581942D02*
X128562782Y-126677180D01*
X128562782Y-126677180D02*
X128610401Y-126724800D01*
X128610401Y-126724800D02*
X128705639Y-126772419D01*
X128705639Y-126772419D02*
X128943734Y-126772419D01*
X128943734Y-126772419D02*
X129038972Y-126724800D01*
X129038972Y-126724800D02*
X129086591Y-126677180D01*
X128086591Y-126391466D02*
X127324687Y-126391466D01*
X126324687Y-126772419D02*
X126896115Y-126772419D01*
X126610401Y-126772419D02*
X126610401Y-125772419D01*
X126610401Y-125772419D02*
X126705639Y-125915276D01*
X126705639Y-125915276D02*
X126800877Y-126010514D01*
X126800877Y-126010514D02*
X126896115Y-126058133D01*
X125705639Y-125772419D02*
X125610401Y-125772419D01*
X125610401Y-125772419D02*
X125515163Y-125820038D01*
X125515163Y-125820038D02*
X125467544Y-125867657D01*
X125467544Y-125867657D02*
X125419925Y-125962895D01*
X125419925Y-125962895D02*
X125372306Y-126153371D01*
X125372306Y-126153371D02*
X125372306Y-126391466D01*
X125372306Y-126391466D02*
X125419925Y-126581942D01*
X125419925Y-126581942D02*
X125467544Y-126677180D01*
X125467544Y-126677180D02*
X125515163Y-126724800D01*
X125515163Y-126724800D02*
X125610401Y-126772419D01*
X125610401Y-126772419D02*
X125705639Y-126772419D01*
X125705639Y-126772419D02*
X125800877Y-126724800D01*
X125800877Y-126724800D02*
X125848496Y-126677180D01*
X125848496Y-126677180D02*
X125896115Y-126581942D01*
X125896115Y-126581942D02*
X125943734Y-126391466D01*
X125943734Y-126391466D02*
X125943734Y-126153371D01*
X125943734Y-126153371D02*
X125896115Y-125962895D01*
X125896115Y-125962895D02*
X125848496Y-125867657D01*
X125848496Y-125867657D02*
X125800877Y-125820038D01*
X125800877Y-125820038D02*
X125705639Y-125772419D01*
X124943734Y-126391466D02*
X124181830Y-126391466D01*
X123753258Y-125867657D02*
X123705639Y-125820038D01*
X123705639Y-125820038D02*
X123610401Y-125772419D01*
X123610401Y-125772419D02*
X123372306Y-125772419D01*
X123372306Y-125772419D02*
X123277068Y-125820038D01*
X123277068Y-125820038D02*
X123229449Y-125867657D01*
X123229449Y-125867657D02*
X123181830Y-125962895D01*
X123181830Y-125962895D02*
X123181830Y-126058133D01*
X123181830Y-126058133D02*
X123229449Y-126200990D01*
X123229449Y-126200990D02*
X123800877Y-126772419D01*
X123800877Y-126772419D02*
X123181830Y-126772419D01*
X122705639Y-126772419D02*
X122515163Y-126772419D01*
X122515163Y-126772419D02*
X122419925Y-126724800D01*
X122419925Y-126724800D02*
X122372306Y-126677180D01*
X122372306Y-126677180D02*
X122277068Y-126534323D01*
X122277068Y-126534323D02*
X122229449Y-126343847D01*
X122229449Y-126343847D02*
X122229449Y-125962895D01*
X122229449Y-125962895D02*
X122277068Y-125867657D01*
X122277068Y-125867657D02*
X122324687Y-125820038D01*
X122324687Y-125820038D02*
X122419925Y-125772419D01*
X122419925Y-125772419D02*
X122610401Y-125772419D01*
X122610401Y-125772419D02*
X122705639Y-125820038D01*
X122705639Y-125820038D02*
X122753258Y-125867657D01*
X122753258Y-125867657D02*
X122800877Y-125962895D01*
X122800877Y-125962895D02*
X122800877Y-126200990D01*
X122800877Y-126200990D02*
X122753258Y-126296228D01*
X122753258Y-126296228D02*
X122705639Y-126343847D01*
X122705639Y-126343847D02*
X122610401Y-126391466D01*
X122610401Y-126391466D02*
X122419925Y-126391466D01*
X122419925Y-126391466D02*
X122324687Y-126343847D01*
X122324687Y-126343847D02*
X122277068Y-126296228D01*
X122277068Y-126296228D02*
X122229449Y-126200990D01*
X121134210Y-126105752D02*
X120896115Y-126772419D01*
X120896115Y-126772419D02*
X120658020Y-126105752D01*
X119753258Y-126772419D02*
X120324686Y-126772419D01*
X120038972Y-126772419D02*
X120038972Y-125772419D01*
X120038972Y-125772419D02*
X120134210Y-125915276D01*
X120134210Y-125915276D02*
X120229448Y-126010514D01*
X120229448Y-126010514D02*
X120324686Y-126058133D01*
X119324686Y-126677180D02*
X119277067Y-126724800D01*
X119277067Y-126724800D02*
X119324686Y-126772419D01*
X119324686Y-126772419D02*
X119372305Y-126724800D01*
X119372305Y-126724800D02*
X119324686Y-126677180D01*
X119324686Y-126677180D02*
X119324686Y-126772419D01*
X118896115Y-125867657D02*
X118848496Y-125820038D01*
X118848496Y-125820038D02*
X118753258Y-125772419D01*
X118753258Y-125772419D02*
X118515163Y-125772419D01*
X118515163Y-125772419D02*
X118419925Y-125820038D01*
X118419925Y-125820038D02*
X118372306Y-125867657D01*
X118372306Y-125867657D02*
X118324687Y-125962895D01*
X118324687Y-125962895D02*
X118324687Y-126058133D01*
X118324687Y-126058133D02*
X118372306Y-126200990D01*
X118372306Y-126200990D02*
X118943734Y-126772419D01*
X118943734Y-126772419D02*
X118324687Y-126772419D01*
X82872419Y-106675312D02*
X82396228Y-106341979D01*
X82872419Y-106103884D02*
X81872419Y-106103884D01*
X81872419Y-106103884D02*
X81872419Y-106484836D01*
X81872419Y-106484836D02*
X81920038Y-106580074D01*
X81920038Y-106580074D02*
X81967657Y-106627693D01*
X81967657Y-106627693D02*
X82062895Y-106675312D01*
X82062895Y-106675312D02*
X82205752Y-106675312D01*
X82205752Y-106675312D02*
X82300990Y-106627693D01*
X82300990Y-106627693D02*
X82348609Y-106580074D01*
X82348609Y-106580074D02*
X82396228Y-106484836D01*
X82396228Y-106484836D02*
X82396228Y-106103884D01*
X81872419Y-107294360D02*
X81872419Y-107484836D01*
X81872419Y-107484836D02*
X81920038Y-107580074D01*
X81920038Y-107580074D02*
X82015276Y-107675312D01*
X82015276Y-107675312D02*
X82205752Y-107722931D01*
X82205752Y-107722931D02*
X82539085Y-107722931D01*
X82539085Y-107722931D02*
X82729561Y-107675312D01*
X82729561Y-107675312D02*
X82824800Y-107580074D01*
X82824800Y-107580074D02*
X82872419Y-107484836D01*
X82872419Y-107484836D02*
X82872419Y-107294360D01*
X82872419Y-107294360D02*
X82824800Y-107199122D01*
X82824800Y-107199122D02*
X82729561Y-107103884D01*
X82729561Y-107103884D02*
X82539085Y-107056265D01*
X82539085Y-107056265D02*
X82205752Y-107056265D01*
X82205752Y-107056265D02*
X82015276Y-107103884D01*
X82015276Y-107103884D02*
X81920038Y-107199122D01*
X81920038Y-107199122D02*
X81872419Y-107294360D01*
X81872419Y-108056265D02*
X82872419Y-108294360D01*
X82872419Y-108294360D02*
X82158133Y-108484836D01*
X82158133Y-108484836D02*
X82872419Y-108675312D01*
X82872419Y-108675312D02*
X81872419Y-108913408D01*
X81872419Y-110246741D02*
X81872419Y-110437217D01*
X81872419Y-110437217D02*
X81920038Y-110532455D01*
X81920038Y-110532455D02*
X82015276Y-110627693D01*
X82015276Y-110627693D02*
X82205752Y-110675312D01*
X82205752Y-110675312D02*
X82539085Y-110675312D01*
X82539085Y-110675312D02*
X82729561Y-110627693D01*
X82729561Y-110627693D02*
X82824800Y-110532455D01*
X82824800Y-110532455D02*
X82872419Y-110437217D01*
X82872419Y-110437217D02*
X82872419Y-110246741D01*
X82872419Y-110246741D02*
X82824800Y-110151503D01*
X82824800Y-110151503D02*
X82729561Y-110056265D01*
X82729561Y-110056265D02*
X82539085Y-110008646D01*
X82539085Y-110008646D02*
X82205752Y-110008646D01*
X82205752Y-110008646D02*
X82015276Y-110056265D01*
X82015276Y-110056265D02*
X81920038Y-110151503D01*
X81920038Y-110151503D02*
X81872419Y-110246741D01*
X81872419Y-111103884D02*
X82681942Y-111103884D01*
X82681942Y-111103884D02*
X82777180Y-111151503D01*
X82777180Y-111151503D02*
X82824800Y-111199122D01*
X82824800Y-111199122D02*
X82872419Y-111294360D01*
X82872419Y-111294360D02*
X82872419Y-111484836D01*
X82872419Y-111484836D02*
X82824800Y-111580074D01*
X82824800Y-111580074D02*
X82777180Y-111627693D01*
X82777180Y-111627693D02*
X82681942Y-111675312D01*
X82681942Y-111675312D02*
X81872419Y-111675312D01*
X81872419Y-112008646D02*
X81872419Y-112580074D01*
X82872419Y-112294360D02*
X81872419Y-112294360D01*
X132372419Y-100003884D02*
X131372419Y-100003884D01*
X131372419Y-100003884D02*
X131372419Y-100384836D01*
X131372419Y-100384836D02*
X131420038Y-100480074D01*
X131420038Y-100480074D02*
X131467657Y-100527693D01*
X131467657Y-100527693D02*
X131562895Y-100575312D01*
X131562895Y-100575312D02*
X131705752Y-100575312D01*
X131705752Y-100575312D02*
X131800990Y-100527693D01*
X131800990Y-100527693D02*
X131848609Y-100480074D01*
X131848609Y-100480074D02*
X131896228Y-100384836D01*
X131896228Y-100384836D02*
X131896228Y-100003884D01*
X132372419Y-101146741D02*
X132324800Y-101051503D01*
X132324800Y-101051503D02*
X132277180Y-101003884D01*
X132277180Y-101003884D02*
X132181942Y-100956265D01*
X132181942Y-100956265D02*
X131896228Y-100956265D01*
X131896228Y-100956265D02*
X131800990Y-101003884D01*
X131800990Y-101003884D02*
X131753371Y-101051503D01*
X131753371Y-101051503D02*
X131705752Y-101146741D01*
X131705752Y-101146741D02*
X131705752Y-101289598D01*
X131705752Y-101289598D02*
X131753371Y-101384836D01*
X131753371Y-101384836D02*
X131800990Y-101432455D01*
X131800990Y-101432455D02*
X131896228Y-101480074D01*
X131896228Y-101480074D02*
X132181942Y-101480074D01*
X132181942Y-101480074D02*
X132277180Y-101432455D01*
X132277180Y-101432455D02*
X132324800Y-101384836D01*
X132324800Y-101384836D02*
X132372419Y-101289598D01*
X132372419Y-101289598D02*
X132372419Y-101146741D01*
X131705752Y-101813408D02*
X132372419Y-102003884D01*
X132372419Y-102003884D02*
X131896228Y-102194360D01*
X131896228Y-102194360D02*
X132372419Y-102384836D01*
X132372419Y-102384836D02*
X131705752Y-102575312D01*
X132324800Y-103337217D02*
X132372419Y-103241979D01*
X132372419Y-103241979D02*
X132372419Y-103051503D01*
X132372419Y-103051503D02*
X132324800Y-102956265D01*
X132324800Y-102956265D02*
X132229561Y-102908646D01*
X132229561Y-102908646D02*
X131848609Y-102908646D01*
X131848609Y-102908646D02*
X131753371Y-102956265D01*
X131753371Y-102956265D02*
X131705752Y-103051503D01*
X131705752Y-103051503D02*
X131705752Y-103241979D01*
X131705752Y-103241979D02*
X131753371Y-103337217D01*
X131753371Y-103337217D02*
X131848609Y-103384836D01*
X131848609Y-103384836D02*
X131943847Y-103384836D01*
X131943847Y-103384836D02*
X132039085Y-102908646D01*
X132372419Y-103813408D02*
X131705752Y-103813408D01*
X131896228Y-103813408D02*
X131800990Y-103861027D01*
X131800990Y-103861027D02*
X131753371Y-103908646D01*
X131753371Y-103908646D02*
X131705752Y-104003884D01*
X131705752Y-104003884D02*
X131705752Y-104099122D01*
X132372419Y-105765789D02*
X131896228Y-105432456D01*
X132372419Y-105194361D02*
X131372419Y-105194361D01*
X131372419Y-105194361D02*
X131372419Y-105575313D01*
X131372419Y-105575313D02*
X131420038Y-105670551D01*
X131420038Y-105670551D02*
X131467657Y-105718170D01*
X131467657Y-105718170D02*
X131562895Y-105765789D01*
X131562895Y-105765789D02*
X131705752Y-105765789D01*
X131705752Y-105765789D02*
X131800990Y-105718170D01*
X131800990Y-105718170D02*
X131848609Y-105670551D01*
X131848609Y-105670551D02*
X131896228Y-105575313D01*
X131896228Y-105575313D02*
X131896228Y-105194361D01*
X131372419Y-106384837D02*
X131372419Y-106575313D01*
X131372419Y-106575313D02*
X131420038Y-106670551D01*
X131420038Y-106670551D02*
X131515276Y-106765789D01*
X131515276Y-106765789D02*
X131705752Y-106813408D01*
X131705752Y-106813408D02*
X132039085Y-106813408D01*
X132039085Y-106813408D02*
X132229561Y-106765789D01*
X132229561Y-106765789D02*
X132324800Y-106670551D01*
X132324800Y-106670551D02*
X132372419Y-106575313D01*
X132372419Y-106575313D02*
X132372419Y-106384837D01*
X132372419Y-106384837D02*
X132324800Y-106289599D01*
X132324800Y-106289599D02*
X132229561Y-106194361D01*
X132229561Y-106194361D02*
X132039085Y-106146742D01*
X132039085Y-106146742D02*
X131705752Y-106146742D01*
X131705752Y-106146742D02*
X131515276Y-106194361D01*
X131515276Y-106194361D02*
X131420038Y-106289599D01*
X131420038Y-106289599D02*
X131372419Y-106384837D01*
X131372419Y-107146742D02*
X132372419Y-107384837D01*
X132372419Y-107384837D02*
X131658133Y-107575313D01*
X131658133Y-107575313D02*
X132372419Y-107765789D01*
X132372419Y-107765789D02*
X131372419Y-108003885D01*
X132372419Y-109803884D02*
X131372419Y-109803884D01*
X131372419Y-109803884D02*
X131372419Y-110184836D01*
X131372419Y-110184836D02*
X131420038Y-110280074D01*
X131420038Y-110280074D02*
X131467657Y-110327693D01*
X131467657Y-110327693D02*
X131562895Y-110375312D01*
X131562895Y-110375312D02*
X131705752Y-110375312D01*
X131705752Y-110375312D02*
X131800990Y-110327693D01*
X131800990Y-110327693D02*
X131848609Y-110280074D01*
X131848609Y-110280074D02*
X131896228Y-110184836D01*
X131896228Y-110184836D02*
X131896228Y-109803884D01*
X132372419Y-110946741D02*
X132324800Y-110851503D01*
X132324800Y-110851503D02*
X132277180Y-110803884D01*
X132277180Y-110803884D02*
X132181942Y-110756265D01*
X132181942Y-110756265D02*
X131896228Y-110756265D01*
X131896228Y-110756265D02*
X131800990Y-110803884D01*
X131800990Y-110803884D02*
X131753371Y-110851503D01*
X131753371Y-110851503D02*
X131705752Y-110946741D01*
X131705752Y-110946741D02*
X131705752Y-111089598D01*
X131705752Y-111089598D02*
X131753371Y-111184836D01*
X131753371Y-111184836D02*
X131800990Y-111232455D01*
X131800990Y-111232455D02*
X131896228Y-111280074D01*
X131896228Y-111280074D02*
X132181942Y-111280074D01*
X132181942Y-111280074D02*
X132277180Y-111232455D01*
X132277180Y-111232455D02*
X132324800Y-111184836D01*
X132324800Y-111184836D02*
X132372419Y-111089598D01*
X132372419Y-111089598D02*
X132372419Y-110946741D01*
X131705752Y-111613408D02*
X132372419Y-111803884D01*
X132372419Y-111803884D02*
X131896228Y-111994360D01*
X131896228Y-111994360D02*
X132372419Y-112184836D01*
X132372419Y-112184836D02*
X131705752Y-112375312D01*
X132324800Y-113137217D02*
X132372419Y-113041979D01*
X132372419Y-113041979D02*
X132372419Y-112851503D01*
X132372419Y-112851503D02*
X132324800Y-112756265D01*
X132324800Y-112756265D02*
X132229561Y-112708646D01*
X132229561Y-112708646D02*
X131848609Y-112708646D01*
X131848609Y-112708646D02*
X131753371Y-112756265D01*
X131753371Y-112756265D02*
X131705752Y-112851503D01*
X131705752Y-112851503D02*
X131705752Y-113041979D01*
X131705752Y-113041979D02*
X131753371Y-113137217D01*
X131753371Y-113137217D02*
X131848609Y-113184836D01*
X131848609Y-113184836D02*
X131943847Y-113184836D01*
X131943847Y-113184836D02*
X132039085Y-112708646D01*
X132372419Y-113613408D02*
X131705752Y-113613408D01*
X131896228Y-113613408D02*
X131800990Y-113661027D01*
X131800990Y-113661027D02*
X131753371Y-113708646D01*
X131753371Y-113708646D02*
X131705752Y-113803884D01*
X131705752Y-113803884D02*
X131705752Y-113899122D01*
X132372419Y-114994361D02*
X131372419Y-114994361D01*
X132372419Y-115470551D02*
X131372419Y-115470551D01*
X131372419Y-115470551D02*
X132372419Y-116041979D01*
X132372419Y-116041979D02*
X131372419Y-116041979D01*
D11*
X113382857Y-120854819D02*
X113716190Y-120378628D01*
X113954285Y-120854819D02*
X113954285Y-119854819D01*
X113954285Y-119854819D02*
X113573333Y-119854819D01*
X113573333Y-119854819D02*
X113478095Y-119902438D01*
X113478095Y-119902438D02*
X113430476Y-119950057D01*
X113430476Y-119950057D02*
X113382857Y-120045295D01*
X113382857Y-120045295D02*
X113382857Y-120188152D01*
X113382857Y-120188152D02*
X113430476Y-120283390D01*
X113430476Y-120283390D02*
X113478095Y-120331009D01*
X113478095Y-120331009D02*
X113573333Y-120378628D01*
X113573333Y-120378628D02*
X113954285Y-120378628D01*
X112430476Y-120854819D02*
X113001904Y-120854819D01*
X112716190Y-120854819D02*
X112716190Y-119854819D01*
X112716190Y-119854819D02*
X112811428Y-119997676D01*
X112811428Y-119997676D02*
X112906666Y-120092914D01*
X112906666Y-120092914D02*
X113001904Y-120140533D01*
X112097142Y-119854819D02*
X111478095Y-119854819D01*
X111478095Y-119854819D02*
X111811428Y-120235771D01*
X111811428Y-120235771D02*
X111668571Y-120235771D01*
X111668571Y-120235771D02*
X111573333Y-120283390D01*
X111573333Y-120283390D02*
X111525714Y-120331009D01*
X111525714Y-120331009D02*
X111478095Y-120426247D01*
X111478095Y-120426247D02*
X111478095Y-120664342D01*
X111478095Y-120664342D02*
X111525714Y-120759580D01*
X111525714Y-120759580D02*
X111573333Y-120807200D01*
X111573333Y-120807200D02*
X111668571Y-120854819D01*
X111668571Y-120854819D02*
X111954285Y-120854819D01*
X111954285Y-120854819D02*
X112049523Y-120807200D01*
X112049523Y-120807200D02*
X112097142Y-120759580D01*
X82454819Y-113757142D02*
X81978628Y-113423809D01*
X82454819Y-113185714D02*
X81454819Y-113185714D01*
X81454819Y-113185714D02*
X81454819Y-113566666D01*
X81454819Y-113566666D02*
X81502438Y-113661904D01*
X81502438Y-113661904D02*
X81550057Y-113709523D01*
X81550057Y-113709523D02*
X81645295Y-113757142D01*
X81645295Y-113757142D02*
X81788152Y-113757142D01*
X81788152Y-113757142D02*
X81883390Y-113709523D01*
X81883390Y-113709523D02*
X81931009Y-113661904D01*
X81931009Y-113661904D02*
X81978628Y-113566666D01*
X81978628Y-113566666D02*
X81978628Y-113185714D01*
X82454819Y-114709523D02*
X82454819Y-114138095D01*
X82454819Y-114423809D02*
X81454819Y-114423809D01*
X81454819Y-114423809D02*
X81597676Y-114328571D01*
X81597676Y-114328571D02*
X81692914Y-114233333D01*
X81692914Y-114233333D02*
X81740533Y-114138095D01*
X81788152Y-115566666D02*
X82454819Y-115566666D01*
X81407200Y-115328571D02*
X82121485Y-115090476D01*
X82121485Y-115090476D02*
X82121485Y-115709523D01*
X98766666Y-99159580D02*
X98814285Y-99207200D01*
X98814285Y-99207200D02*
X98957142Y-99254819D01*
X98957142Y-99254819D02*
X99052380Y-99254819D01*
X99052380Y-99254819D02*
X99195237Y-99207200D01*
X99195237Y-99207200D02*
X99290475Y-99111961D01*
X99290475Y-99111961D02*
X99338094Y-99016723D01*
X99338094Y-99016723D02*
X99385713Y-98826247D01*
X99385713Y-98826247D02*
X99385713Y-98683390D01*
X99385713Y-98683390D02*
X99338094Y-98492914D01*
X99338094Y-98492914D02*
X99290475Y-98397676D01*
X99290475Y-98397676D02*
X99195237Y-98302438D01*
X99195237Y-98302438D02*
X99052380Y-98254819D01*
X99052380Y-98254819D02*
X98957142Y-98254819D01*
X98957142Y-98254819D02*
X98814285Y-98302438D01*
X98814285Y-98302438D02*
X98766666Y-98350057D01*
X98195237Y-98683390D02*
X98290475Y-98635771D01*
X98290475Y-98635771D02*
X98338094Y-98588152D01*
X98338094Y-98588152D02*
X98385713Y-98492914D01*
X98385713Y-98492914D02*
X98385713Y-98445295D01*
X98385713Y-98445295D02*
X98338094Y-98350057D01*
X98338094Y-98350057D02*
X98290475Y-98302438D01*
X98290475Y-98302438D02*
X98195237Y-98254819D01*
X98195237Y-98254819D02*
X98004761Y-98254819D01*
X98004761Y-98254819D02*
X97909523Y-98302438D01*
X97909523Y-98302438D02*
X97861904Y-98350057D01*
X97861904Y-98350057D02*
X97814285Y-98445295D01*
X97814285Y-98445295D02*
X97814285Y-98492914D01*
X97814285Y-98492914D02*
X97861904Y-98588152D01*
X97861904Y-98588152D02*
X97909523Y-98635771D01*
X97909523Y-98635771D02*
X98004761Y-98683390D01*
X98004761Y-98683390D02*
X98195237Y-98683390D01*
X98195237Y-98683390D02*
X98290475Y-98731009D01*
X98290475Y-98731009D02*
X98338094Y-98778628D01*
X98338094Y-98778628D02*
X98385713Y-98873866D01*
X98385713Y-98873866D02*
X98385713Y-99064342D01*
X98385713Y-99064342D02*
X98338094Y-99159580D01*
X98338094Y-99159580D02*
X98290475Y-99207200D01*
X98290475Y-99207200D02*
X98195237Y-99254819D01*
X98195237Y-99254819D02*
X98004761Y-99254819D01*
X98004761Y-99254819D02*
X97909523Y-99207200D01*
X97909523Y-99207200D02*
X97861904Y-99159580D01*
X97861904Y-99159580D02*
X97814285Y-99064342D01*
X97814285Y-99064342D02*
X97814285Y-98873866D01*
X97814285Y-98873866D02*
X97861904Y-98778628D01*
X97861904Y-98778628D02*
X97909523Y-98731009D01*
X97909523Y-98731009D02*
X98004761Y-98683390D01*
X113238094Y-126354819D02*
X113238094Y-125354819D01*
X113238094Y-125354819D02*
X112999999Y-125354819D01*
X112999999Y-125354819D02*
X112857142Y-125402438D01*
X112857142Y-125402438D02*
X112761904Y-125497676D01*
X112761904Y-125497676D02*
X112714285Y-125592914D01*
X112714285Y-125592914D02*
X112666666Y-125783390D01*
X112666666Y-125783390D02*
X112666666Y-125926247D01*
X112666666Y-125926247D02*
X112714285Y-126116723D01*
X112714285Y-126116723D02*
X112761904Y-126211961D01*
X112761904Y-126211961D02*
X112857142Y-126307200D01*
X112857142Y-126307200D02*
X112999999Y-126354819D01*
X112999999Y-126354819D02*
X113238094Y-126354819D01*
X111809523Y-125688152D02*
X111809523Y-126354819D01*
X112047618Y-125307200D02*
X112285713Y-126021485D01*
X112285713Y-126021485D02*
X111666666Y-126021485D01*
X108466666Y-103659580D02*
X108514285Y-103707200D01*
X108514285Y-103707200D02*
X108657142Y-103754819D01*
X108657142Y-103754819D02*
X108752380Y-103754819D01*
X108752380Y-103754819D02*
X108895237Y-103707200D01*
X108895237Y-103707200D02*
X108990475Y-103611961D01*
X108990475Y-103611961D02*
X109038094Y-103516723D01*
X109038094Y-103516723D02*
X109085713Y-103326247D01*
X109085713Y-103326247D02*
X109085713Y-103183390D01*
X109085713Y-103183390D02*
X109038094Y-102992914D01*
X109038094Y-102992914D02*
X108990475Y-102897676D01*
X108990475Y-102897676D02*
X108895237Y-102802438D01*
X108895237Y-102802438D02*
X108752380Y-102754819D01*
X108752380Y-102754819D02*
X108657142Y-102754819D01*
X108657142Y-102754819D02*
X108514285Y-102802438D01*
X108514285Y-102802438D02*
X108466666Y-102850057D01*
X108085713Y-102850057D02*
X108038094Y-102802438D01*
X108038094Y-102802438D02*
X107942856Y-102754819D01*
X107942856Y-102754819D02*
X107704761Y-102754819D01*
X107704761Y-102754819D02*
X107609523Y-102802438D01*
X107609523Y-102802438D02*
X107561904Y-102850057D01*
X107561904Y-102850057D02*
X107514285Y-102945295D01*
X107514285Y-102945295D02*
X107514285Y-103040533D01*
X107514285Y-103040533D02*
X107561904Y-103183390D01*
X107561904Y-103183390D02*
X108133332Y-103754819D01*
X108133332Y-103754819D02*
X107514285Y-103754819D01*
X108466666Y-112959580D02*
X108514285Y-113007200D01*
X108514285Y-113007200D02*
X108657142Y-113054819D01*
X108657142Y-113054819D02*
X108752380Y-113054819D01*
X108752380Y-113054819D02*
X108895237Y-113007200D01*
X108895237Y-113007200D02*
X108990475Y-112911961D01*
X108990475Y-112911961D02*
X109038094Y-112816723D01*
X109038094Y-112816723D02*
X109085713Y-112626247D01*
X109085713Y-112626247D02*
X109085713Y-112483390D01*
X109085713Y-112483390D02*
X109038094Y-112292914D01*
X109038094Y-112292914D02*
X108990475Y-112197676D01*
X108990475Y-112197676D02*
X108895237Y-112102438D01*
X108895237Y-112102438D02*
X108752380Y-112054819D01*
X108752380Y-112054819D02*
X108657142Y-112054819D01*
X108657142Y-112054819D02*
X108514285Y-112102438D01*
X108514285Y-112102438D02*
X108466666Y-112150057D01*
X107514285Y-113054819D02*
X108085713Y-113054819D01*
X107799999Y-113054819D02*
X107799999Y-112054819D01*
X107799999Y-112054819D02*
X107895237Y-112197676D01*
X107895237Y-112197676D02*
X107990475Y-112292914D01*
X107990475Y-112292914D02*
X108085713Y-112340533D01*
X102866666Y-102759580D02*
X102914285Y-102807200D01*
X102914285Y-102807200D02*
X103057142Y-102854819D01*
X103057142Y-102854819D02*
X103152380Y-102854819D01*
X103152380Y-102854819D02*
X103295237Y-102807200D01*
X103295237Y-102807200D02*
X103390475Y-102711961D01*
X103390475Y-102711961D02*
X103438094Y-102616723D01*
X103438094Y-102616723D02*
X103485713Y-102426247D01*
X103485713Y-102426247D02*
X103485713Y-102283390D01*
X103485713Y-102283390D02*
X103438094Y-102092914D01*
X103438094Y-102092914D02*
X103390475Y-101997676D01*
X103390475Y-101997676D02*
X103295237Y-101902438D01*
X103295237Y-101902438D02*
X103152380Y-101854819D01*
X103152380Y-101854819D02*
X103057142Y-101854819D01*
X103057142Y-101854819D02*
X102914285Y-101902438D01*
X102914285Y-101902438D02*
X102866666Y-101950057D01*
X102390475Y-102854819D02*
X102199999Y-102854819D01*
X102199999Y-102854819D02*
X102104761Y-102807200D01*
X102104761Y-102807200D02*
X102057142Y-102759580D01*
X102057142Y-102759580D02*
X101961904Y-102616723D01*
X101961904Y-102616723D02*
X101914285Y-102426247D01*
X101914285Y-102426247D02*
X101914285Y-102045295D01*
X101914285Y-102045295D02*
X101961904Y-101950057D01*
X101961904Y-101950057D02*
X102009523Y-101902438D01*
X102009523Y-101902438D02*
X102104761Y-101854819D01*
X102104761Y-101854819D02*
X102295237Y-101854819D01*
X102295237Y-101854819D02*
X102390475Y-101902438D01*
X102390475Y-101902438D02*
X102438094Y-101950057D01*
X102438094Y-101950057D02*
X102485713Y-102045295D01*
X102485713Y-102045295D02*
X102485713Y-102283390D01*
X102485713Y-102283390D02*
X102438094Y-102378628D01*
X102438094Y-102378628D02*
X102390475Y-102426247D01*
X102390475Y-102426247D02*
X102295237Y-102473866D01*
X102295237Y-102473866D02*
X102104761Y-102473866D01*
X102104761Y-102473866D02*
X102009523Y-102426247D01*
X102009523Y-102426247D02*
X101961904Y-102378628D01*
X101961904Y-102378628D02*
X101914285Y-102283390D01*
%TO.C,R13*%
D12*
X109567064Y-119565000D02*
X109112936Y-119565000D01*
X109567064Y-121035000D02*
X109112936Y-121035000D01*
%TO.C,R14*%
X82765000Y-114627064D02*
X82765000Y-114172936D01*
X84235000Y-114627064D02*
X84235000Y-114172936D01*
%TO.C,C8*%
X99061252Y-99565000D02*
X98538748Y-99565000D01*
X99061252Y-101035000D02*
X98538748Y-101035000D01*
%TO.C,D4*%
D13*
X107840000Y-123075000D02*
X107840000Y-124325000D01*
X107890000Y-124675000D02*
X107890000Y-124725000D01*
X107890000Y-124725000D02*
X110790000Y-124725000D01*
X110790000Y-124675000D02*
X107890000Y-124675000D01*
X110790000Y-124725000D02*
X110790000Y-124675000D01*
%TO.C,C2*%
D12*
X105561252Y-102565000D02*
X105038748Y-102565000D01*
X105561252Y-104035000D02*
X105038748Y-104035000D01*
%TO.C,C1*%
X105561252Y-111865000D02*
X105038748Y-111865000D01*
X105561252Y-113335000D02*
X105038748Y-113335000D01*
%TO.C,C9*%
X100361252Y-101665000D02*
X99838748Y-101665000D01*
X100361252Y-103135000D02*
X99838748Y-103135000D01*
%TD*%
M02*
