%TF.GenerationSoftware,KiCad,Pcbnew,10.0.1*%
%TF.CreationDate,2026-07-11T20:49:09-07:00*%
%TF.ProjectId,row-controller,726f772d-636f-46e7-9472-6f6c6c65722e,rev?*%
%TF.SameCoordinates,Original*%
%TF.FileFunction,Copper,L1,Top*%
%TF.FilePolarity,Positive*%
%FSLAX46Y46*%
G04 Gerber Fmt 4.6, Leading zero omitted, Abs format (unit mm)*
G04 Created by KiCad (PCBNEW 10.0.1) date 2026-07-11 20:49:09*
%MOMM*%
%LPD*%
G01*
G04 APERTURE LIST*
G04 Aperture macros list*
%AMRoundRect*
0 Rectangle with rounded corners*
0 $1 Rounding radius*
0 $2 $3 $4 $5 $6 $7 $8 $9 X,Y pos of 4 corners*
0 Add a 4 corners polygon primitive as box body*
4,1,4,$2,$3,$4,$5,$6,$7,$8,$9,$2,$3,0*
0 Add four circle primitives for the rounded corners*
1,1,$1+$1,$2,$3*
1,1,$1+$1,$4,$5*
1,1,$1+$1,$6,$7*
1,1,$1+$1,$8,$9*
0 Add four rect primitives between the rounded corners*
20,1,$1+$1,$2,$3,$4,$5,0*
20,1,$1+$1,$4,$5,$6,$7,0*
20,1,$1+$1,$6,$7,$8,$9,0*
20,1,$1+$1,$8,$9,$2,$3,0*%
G04 Aperture macros list end*
%TA.AperFunction,ComponentPad*%
%ADD10R,2.100000X2.100000*%
%TD*%
%TA.AperFunction,ComponentPad*%
%ADD11C,2.100000*%
%TD*%
%TA.AperFunction,SMDPad,CuDef*%
%ADD12RoundRect,0.250000X-0.325000X-0.450000X0.325000X-0.450000X0.325000X0.450000X-0.325000X0.450000X0*%
%TD*%
%TA.AperFunction,SMDPad,CuDef*%
%ADD13RoundRect,0.250000X0.450000X-0.350000X0.450000X0.350000X-0.450000X0.350000X-0.450000X-0.350000X0*%
%TD*%
%TA.AperFunction,ComponentPad*%
%ADD14R,2.300000X1.500000*%
%TD*%
%TA.AperFunction,ComponentPad*%
%ADD15O,2.300000X1.500000*%
%TD*%
%TA.AperFunction,ComponentPad*%
%ADD16R,1.358000X1.358000*%
%TD*%
%TA.AperFunction,ComponentPad*%
%ADD17C,1.358000*%
%TD*%
%TA.AperFunction,ComponentPad*%
%ADD18RoundRect,0.250000X0.550000X-0.550000X0.550000X0.550000X-0.550000X0.550000X-0.550000X-0.550000X0*%
%TD*%
%TA.AperFunction,ComponentPad*%
%ADD19C,1.600000*%
%TD*%
%TA.AperFunction,SMDPad,CuDef*%
%ADD20RoundRect,0.250000X0.350000X0.450000X-0.350000X0.450000X-0.350000X-0.450000X0.350000X-0.450000X0*%
%TD*%
%TA.AperFunction,SMDPad,CuDef*%
%ADD21RoundRect,0.249999X1.075001X-0.450001X1.075001X0.450001X-1.075001X0.450001X-1.075001X-0.450001X0*%
%TD*%
%TA.AperFunction,SMDPad,CuDef*%
%ADD22RoundRect,0.250000X-0.350000X-0.450000X0.350000X-0.450000X0.350000X0.450000X-0.350000X0.450000X0*%
%TD*%
%TA.AperFunction,SMDPad,CuDef*%
%ADD23R,1.528000X0.650000*%
%TD*%
%TA.AperFunction,SMDPad,CuDef*%
%ADD24RoundRect,0.250000X0.475000X-0.337500X0.475000X0.337500X-0.475000X0.337500X-0.475000X-0.337500X0*%
%TD*%
%TA.AperFunction,SMDPad,CuDef*%
%ADD25R,0.650000X1.528000*%
%TD*%
%TA.AperFunction,ComponentPad*%
%ADD26RoundRect,0.250000X0.750000X-0.600000X0.750000X0.600000X-0.750000X0.600000X-0.750000X-0.600000X0*%
%TD*%
%TA.AperFunction,ComponentPad*%
%ADD27O,2.000000X1.700000*%
%TD*%
%TA.AperFunction,SMDPad,CuDef*%
%ADD28RoundRect,0.250000X0.400000X0.625000X-0.400000X0.625000X-0.400000X-0.625000X0.400000X-0.625000X0*%
%TD*%
%TA.AperFunction,SMDPad,CuDef*%
%ADD29RoundRect,0.250000X-0.450000X0.350000X-0.450000X-0.350000X0.450000X-0.350000X0.450000X0.350000X0*%
%TD*%
%TA.AperFunction,SMDPad,CuDef*%
%ADD30RoundRect,0.250000X-0.337500X-0.475000X0.337500X-0.475000X0.337500X0.475000X-0.337500X0.475000X0*%
%TD*%
%TA.AperFunction,ComponentPad*%
%ADD31R,1.950000X1.950000*%
%TD*%
%TA.AperFunction,ComponentPad*%
%ADD32C,1.950000*%
%TD*%
%TA.AperFunction,SMDPad,CuDef*%
%ADD33RoundRect,0.250000X0.337500X0.475000X-0.337500X0.475000X-0.337500X-0.475000X0.337500X-0.475000X0*%
%TD*%
%TA.AperFunction,SMDPad,CuDef*%
%ADD34R,1.400000X0.300000*%
%TD*%
%TA.AperFunction,ViaPad*%
%ADD35C,0.600000*%
%TD*%
%TA.AperFunction,Conductor*%
%ADD36C,0.200000*%
%TD*%
%TA.AperFunction,Conductor*%
%ADD37C,0.500000*%
%TD*%
%TA.AperFunction,Conductor*%
%ADD38C,0.800000*%
%TD*%
G04 APERTURE END LIST*
D10*
%TO.P,J6,1,1_1*%
%TO.N,GND*%
X86000000Y-101900000D03*
D11*
%TO.P,J6,2,2_2*%
%TO.N,/ROW-SENSE*%
X86000000Y-106900000D03*
%TO.P,J6,3,3_3*%
%TO.N,/ROW-TRCV_N*%
X86000000Y-111900000D03*
%TO.P,J6,4,4_4*%
%TO.N,/ROW-TRCV_P*%
X86000000Y-116900000D03*
%TD*%
D12*
%TO.P,D1,1,K_1*%
%TO.N,GND*%
X92975000Y-100300000D03*
%TO.P,D1,2,A_2*%
%TO.N,Net-(D1-A)*%
X95025000Y-100300000D03*
%TD*%
D13*
%TO.P,R7,1*%
%TO.N,+5V*%
X92600000Y-120800000D03*
%TO.P,R7,2*%
%TO.N,/ROW-RxD*%
X92600000Y-118800000D03*
%TD*%
D14*
%TO.P,U2,1,IN_1*%
%TO.N,Vrow*%
X106307500Y-110447500D03*
D15*
%TO.P,U2,2,GND_2*%
%TO.N,GND*%
X106307500Y-107907500D03*
%TO.P,U2,3,OUT_3*%
%TO.N,+5V*%
X106307500Y-105367500D03*
%TD*%
D12*
%TO.P,D2,1,K_1*%
%TO.N,/LED-DATA*%
X84375000Y-124600000D03*
%TO.P,D2,2,A_2*%
%TO.N,Net-(D2-A)*%
X86425000Y-124600000D03*
%TD*%
D16*
%TO.P,U1,1,D0_1*%
%TO.N,/LED-RDY*%
X102401000Y-115582500D03*
D17*
%TO.P,U1,2,D1_2*%
%TO.N,/LED-DATA*%
X104941000Y-115582500D03*
%TO.P,U1,3,D2_3*%
%TO.N,/PI-XDIR*%
X107481000Y-115582500D03*
%TO.P,U1,4,D3_4*%
%TO.N,/PI-RxD*%
X110021000Y-115582500D03*
%TO.P,U1,5,D4_5*%
%TO.N,/SDA*%
X112561000Y-115582500D03*
%TO.P,U1,6,D5_6*%
%TO.N,/SCL*%
X115101000Y-115582500D03*
%TO.P,U1,7,TX_D6_7*%
%TO.N,/ROW-TxD*%
X117641000Y-115582500D03*
%TO.P,U1,8,RX_D7_8*%
%TO.N,/ROW-RxD*%
X117641000Y-100342500D03*
%TO.P,U1,9,D8_9*%
%TO.N,/ROW-SENSE*%
X115101000Y-100342500D03*
%TO.P,U1,10,D9_10*%
%TO.N,/PI-TxD*%
X112561000Y-100342500D03*
%TO.P,U1,11,D10_11*%
%TO.N,/ROW-XDIR*%
X110021000Y-100342500D03*
%TO.P,U1,12,VCC_3V3_12*%
%TO.N,+3V3*%
X107481000Y-100342500D03*
%TO.P,U1,13,GND_13*%
%TO.N,GND*%
X104941000Y-100342500D03*
%TO.P,U1,14,VUSB_14*%
%TO.N,+5V*%
X102401000Y-100342500D03*
%TD*%
D18*
%TO.P,C10,1*%
%TO.N,+5V*%
X96400000Y-105644888D03*
D19*
%TO.P,C10,2*%
%TO.N,GND*%
X96400000Y-103644888D03*
%TD*%
D20*
%TO.P,R9,1*%
%TO.N,+3V3*%
X90217500Y-124600000D03*
%TO.P,R9,2*%
%TO.N,Net-(D2-A)*%
X88217500Y-124600000D03*
%TD*%
D21*
%TO.P,R1,1*%
%TO.N,+12V*%
X117552000Y-110700000D03*
%TO.P,R1,2*%
%TO.N,Vrow*%
X117552000Y-105900000D03*
%TD*%
D22*
%TO.P,R3,1*%
%TO.N,/PI-XDIR*%
X129411000Y-119405000D03*
%TO.P,R3,2*%
%TO.N,GND*%
X131411000Y-119405000D03*
%TD*%
D23*
%TO.P,IC3,1,R_1*%
%TO.N,/PI-RxD*%
X127411000Y-121505000D03*
%TO.P,IC3,2,~{RE}_2*%
%TO.N,/PI-XDIR*%
X127411000Y-120235000D03*
%TO.P,IC3,3,DE_3*%
X127411000Y-118965000D03*
%TO.P,IC3,4,D_4*%
%TO.N,/PI-TxD*%
X127411000Y-117695000D03*
%TO.P,IC3,5,GND_5*%
%TO.N,GND*%
X121989000Y-117695000D03*
%TO.P,IC3,6,A_6*%
%TO.N,Net-(IC3-A)*%
X121989000Y-118965000D03*
%TO.P,IC3,7,B_7*%
%TO.N,Net-(IC3-B)*%
X121989000Y-120235000D03*
%TO.P,IC3,8,VCC_8*%
%TO.N,+5V*%
X121989000Y-121505000D03*
%TD*%
D24*
%TO.P,C4,1*%
%TO.N,+5V*%
X92700000Y-109337500D03*
%TO.P,C4,2*%
%TO.N,GND*%
X92700000Y-107262500D03*
%TD*%
D25*
%TO.P,IC2,1,R_1*%
%TO.N,/ROW-RxD*%
X92395000Y-116811000D03*
%TO.P,IC2,2,~{RE}_2*%
%TO.N,/ROW-XDIR*%
X93665000Y-116811000D03*
%TO.P,IC2,3,DE_3*%
X94935000Y-116811000D03*
%TO.P,IC2,4,D_4*%
%TO.N,/ROW-TxD*%
X96205000Y-116811000D03*
%TO.P,IC2,5,GND_5*%
%TO.N,GND*%
X96205000Y-111389000D03*
%TO.P,IC2,6,A_6*%
%TO.N,/ROW-TRCV_P*%
X94935000Y-111389000D03*
%TO.P,IC2,7,B_7*%
%TO.N,/ROW-TRCV_N*%
X93665000Y-111389000D03*
%TO.P,IC2,8,VCC_8*%
%TO.N,+5V*%
X92395000Y-111389000D03*
%TD*%
D26*
%TO.P,J1,1,Pin_1_1*%
%TO.N,+12V*%
X123655000Y-111850000D03*
D27*
%TO.P,J1,2,Pin_2_2*%
%TO.N,GND*%
X123655000Y-109350000D03*
%TD*%
D28*
%TO.P,R12,1*%
%TO.N,Net-(IC3-A)*%
X119850000Y-118400000D03*
%TO.P,R12,2*%
%TO.N,/PI-TRCV_P*%
X116750000Y-118400000D03*
%TD*%
D29*
%TO.P,R6,1*%
%TO.N,/ROW-XDIR*%
X94700000Y-118800000D03*
%TO.P,R6,2*%
%TO.N,GND*%
X94700000Y-120800000D03*
%TD*%
D30*
%TO.P,C3,1*%
%TO.N,GND*%
X112914500Y-111500000D03*
%TO.P,C3,2*%
%TO.N,+5V*%
X114989500Y-111500000D03*
%TD*%
D31*
%TO.P,J5,1,1_1*%
%TO.N,GND*%
X101720000Y-122300000D03*
D32*
%TO.P,J5,2,2_2*%
%TO.N,/PI-TRCV_N*%
X106800000Y-122300000D03*
%TO.P,J5,3,3_3*%
%TO.N,/PI-TRCV_P*%
X111880000Y-122300000D03*
%TD*%
D20*
%TO.P,R10,1*%
%TO.N,+3V3*%
X90200000Y-121500000D03*
%TO.P,R10,2*%
%TO.N,Net-(D3-A)*%
X88200000Y-121500000D03*
%TD*%
D33*
%TO.P,C5,1*%
%TO.N,+5V*%
X121937500Y-123400000D03*
%TO.P,C5,2*%
%TO.N,GND*%
X119862500Y-123400000D03*
%TD*%
D28*
%TO.P,R11,1*%
%TO.N,Net-(IC3-B)*%
X119850000Y-120800000D03*
%TO.P,R11,2*%
%TO.N,/PI-TRCV_N*%
X116750000Y-120800000D03*
%TD*%
D34*
%TO.P,IC1,1,A1_1*%
%TO.N,+5V*%
X110552000Y-107600000D03*
%TO.P,IC1,2,A0_2*%
X110552000Y-108100000D03*
%TO.P,IC1,3,NC_3*%
%TO.N,unconnected-(IC1-NC-Pad3)*%
X110552000Y-108600000D03*
%TO.P,IC1,4,SDA_4*%
%TO.N,/SDA*%
X110552000Y-109100000D03*
%TO.P,IC1,5,SCL_5*%
%TO.N,/SCL*%
X110552000Y-109600000D03*
%TO.P,IC1,6,VS_6*%
%TO.N,+5V*%
X114952000Y-109600000D03*
%TO.P,IC1,7,GND_7*%
%TO.N,GND*%
X114952000Y-109100000D03*
%TO.P,IC1,8,VBUS_8*%
%TO.N,+12V*%
X114952000Y-108600000D03*
%TO.P,IC1,9,IN-_9*%
%TO.N,Vrow*%
X114952000Y-108100000D03*
%TO.P,IC1,10,IN+_10*%
%TO.N,+12V*%
X114952000Y-107600000D03*
%TD*%
D20*
%TO.P,R8,1*%
%TO.N,+3V3*%
X98800000Y-100300000D03*
%TO.P,R8,2*%
%TO.N,Net-(D1-A)*%
X96800000Y-100300000D03*
%TD*%
D26*
%TO.P,J3,1,Pin_1_1*%
%TO.N,Vrow*%
X123600000Y-103200000D03*
D27*
%TO.P,J3,2,Pin_2_2*%
%TO.N,GND*%
X123600000Y-100700000D03*
%TD*%
D22*
%TO.P,R2,1*%
%TO.N,+5V*%
X109900000Y-105400000D03*
%TO.P,R2,2*%
%TO.N,/SDA*%
X111900000Y-105400000D03*
%TD*%
D20*
%TO.P,R4,1*%
%TO.N,+5V*%
X131411000Y-121405000D03*
%TO.P,R4,2*%
%TO.N,/PI-RxD*%
X129411000Y-121405000D03*
%TD*%
D12*
%TO.P,D3,1,K_1*%
%TO.N,/LED-RDY*%
X84357500Y-121500000D03*
%TO.P,D3,2,A_2*%
%TO.N,Net-(D3-A)*%
X86407500Y-121500000D03*
%TD*%
D22*
%TO.P,R5,1*%
%TO.N,+5V*%
X109900000Y-103400000D03*
%TO.P,R5,2*%
%TO.N,/SCL*%
X111900000Y-103400000D03*
%TD*%
D35*
%TO.N,GND*%
X122038923Y-117135000D03*
X92700000Y-106400000D03*
X94700000Y-121700000D03*
X112000000Y-111500000D03*
X113691302Y-109114496D03*
X118800000Y-123400000D03*
X92200000Y-100300000D03*
X96200000Y-110200000D03*
X131400000Y-118300000D03*
%TO.N,+5V*%
X109100000Y-103400000D03*
X120500000Y-112550000D03*
X99700000Y-106000000D03*
X94600000Y-105800000D03*
X121200000Y-114850000D03*
X99700000Y-107300000D03*
%TO.N,/ROW-RxD*%
X117600000Y-102450000D03*
%TO.N,+3V3*%
X100500000Y-104894888D03*
X100500000Y-107300000D03*
X100500000Y-113700000D03*
X100500000Y-114900000D03*
%TO.N,/ROW-XDIR*%
X95100000Y-115000000D03*
X95500000Y-112700000D03*
%TO.N,/SDA*%
X111900000Y-108300000D03*
%TO.N,/SCL*%
X112750000Y-108450000D03*
%TD*%
%TO.N,GND*%
D36*
X92975000Y-100300000D02*
X92200000Y-100300000D01*
X114937504Y-109114496D02*
X114952000Y-109100000D01*
X131411000Y-119405000D02*
X131411000Y-118311000D01*
X119862500Y-123400000D02*
X118800000Y-123400000D01*
X96205000Y-110205000D02*
X96200000Y-110200000D01*
X113691302Y-109114496D02*
X114937504Y-109114496D01*
X94700000Y-120800000D02*
X94700000Y-121700000D01*
X131411000Y-118311000D02*
X131400000Y-118300000D01*
X121989000Y-117695000D02*
X121989000Y-117184923D01*
X112914500Y-111500000D02*
X112000000Y-111500000D01*
X121989000Y-117184923D02*
X122038923Y-117135000D01*
X96205000Y-111389000D02*
X96205000Y-110205000D01*
X92700000Y-107262500D02*
X92700000Y-106400000D01*
%TO.N,Net-(D1-A)*%
X96800000Y-100300000D02*
X95025000Y-100300000D01*
%TO.N,+5V*%
X92395000Y-109642500D02*
X92395000Y-111389000D01*
X109200000Y-109700000D02*
X109200000Y-108100000D01*
X121937500Y-123400000D02*
X121937500Y-121556500D01*
X92600000Y-120800000D02*
X93700000Y-119700000D01*
X95700000Y-119384744D02*
X95700000Y-117995000D01*
D37*
X96400000Y-105644888D02*
X99700000Y-105644888D01*
D36*
X114989500Y-111500000D02*
X116039500Y-112550000D01*
X95580000Y-117875000D02*
X95580000Y-115485686D01*
X123053000Y-120880000D02*
X122428000Y-121505000D01*
X94600000Y-107437500D02*
X94600000Y-105800000D01*
X114952000Y-111462500D02*
X114989500Y-111500000D01*
X99700000Y-111365686D02*
X99700000Y-107300000D01*
X92700000Y-109337500D02*
X94600000Y-107437500D01*
D37*
X102400000Y-100343500D02*
X102401000Y-100342500D01*
D36*
X122428000Y-121505000D02*
X121989000Y-121505000D01*
X109900000Y-103400000D02*
X109100000Y-103400000D01*
D37*
X102400000Y-105644888D02*
X102400000Y-100343500D01*
D36*
X95384744Y-119700000D02*
X95700000Y-119384744D01*
X109900000Y-103400000D02*
X109900000Y-105400000D01*
D37*
X106030112Y-105644888D02*
X106307500Y-105367500D01*
D36*
X121937500Y-121556500D02*
X121989000Y-121505000D01*
X114952000Y-109600000D02*
X114501000Y-110051000D01*
X110552000Y-106052000D02*
X109900000Y-105400000D01*
X93700000Y-119700000D02*
X95384744Y-119700000D01*
X110552000Y-108100000D02*
X110552000Y-107600000D01*
X131411000Y-121405000D02*
X129416000Y-123400000D01*
X114501000Y-110051000D02*
X109551000Y-110051000D01*
X95580000Y-115485686D02*
X99700000Y-111365686D01*
D37*
X101600000Y-105644888D02*
X102400000Y-105644888D01*
D36*
X121200000Y-114850000D02*
X123053000Y-116703000D01*
X102401000Y-100342500D02*
X102297500Y-100239000D01*
X109551000Y-110051000D02*
X109200000Y-109700000D01*
X109200000Y-108100000D02*
X109700000Y-107600000D01*
X99700000Y-106000000D02*
X99700000Y-105644888D01*
X95700000Y-117995000D02*
X95580000Y-117875000D01*
X110552000Y-107600000D02*
X110552000Y-106052000D01*
X129416000Y-123400000D02*
X121937500Y-123400000D01*
D37*
X99700000Y-105644888D02*
X101600000Y-105644888D01*
X101600000Y-105644888D02*
X106030112Y-105644888D01*
D36*
X123053000Y-116703000D02*
X123053000Y-120880000D01*
X114952000Y-109600000D02*
X114952000Y-111462500D01*
X109700000Y-107600000D02*
X110552000Y-107600000D01*
X116039500Y-112550000D02*
X120500000Y-112550000D01*
X106340000Y-105400000D02*
X106307500Y-105367500D01*
X92700000Y-109337500D02*
X92395000Y-109642500D01*
%TO.N,/ROW-RxD*%
X108500000Y-105059924D02*
X108500000Y-103151471D01*
X112184744Y-102100000D02*
X112584744Y-102500000D01*
X117550000Y-102500000D02*
X117600000Y-102450000D01*
X92395000Y-118595000D02*
X92600000Y-118800000D01*
X92395000Y-116505000D02*
X95600000Y-113300000D01*
X98400000Y-110883000D02*
X98400000Y-107400000D01*
X112584744Y-102500000D02*
X117550000Y-102500000D01*
X98400000Y-107400000D02*
X99100000Y-106700000D01*
X92395000Y-116811000D02*
X92395000Y-116505000D01*
X99100000Y-106700000D02*
X106859924Y-106700000D01*
X106859924Y-106700000D02*
X108500000Y-105059924D01*
X95983000Y-113300000D02*
X98400000Y-110883000D01*
X92395000Y-116811000D02*
X92395000Y-118595000D01*
X109551471Y-102100000D02*
X112184744Y-102100000D01*
X95600000Y-113300000D02*
X95983000Y-113300000D01*
X108500000Y-103151471D02*
X109551471Y-102100000D01*
%TO.N,Vrow*%
D37*
X125105000Y-104705000D02*
X123600000Y-103200000D01*
D38*
X117552000Y-105900000D02*
X120900000Y-105900000D01*
D36*
X117552000Y-106599999D02*
X117552000Y-105900000D01*
D37*
X124551878Y-113300000D02*
X125105000Y-112746878D01*
X109160000Y-113300000D02*
X124551878Y-113300000D01*
D36*
X116051999Y-108100000D02*
X117552000Y-106599999D01*
X114952000Y-108100000D02*
X116051999Y-108100000D01*
D37*
X125105000Y-112746878D02*
X125105000Y-104705000D01*
D38*
X120900000Y-105900000D02*
X123600000Y-103200000D01*
D37*
X106307500Y-110447500D02*
X109160000Y-113300000D01*
%TO.N,/LED-DATA*%
D36*
X94023500Y-126500000D02*
X85500000Y-126500000D01*
X84375000Y-125375000D02*
X84375000Y-124600000D01*
X85500000Y-126500000D02*
X84375000Y-125375000D01*
X104941000Y-115582500D02*
X94023500Y-126500000D01*
%TO.N,Net-(D2-A)*%
X88217500Y-124600000D02*
X86425000Y-124600000D01*
X86182500Y-124600000D02*
X86142500Y-124560000D01*
%TO.N,+3V3*%
X98800000Y-103194888D02*
X100500000Y-104894888D01*
X98800000Y-100300000D02*
X98800000Y-103194888D01*
X107481000Y-100342500D02*
X106438500Y-99300000D01*
X92648529Y-124600000D02*
X90217500Y-124600000D01*
X100500000Y-116748529D02*
X92648529Y-124600000D01*
X100500000Y-107300000D02*
X100500000Y-113700000D01*
X90192500Y-121075000D02*
X90217500Y-121100000D01*
X100500000Y-114900000D02*
X100500000Y-116748529D01*
X99800000Y-99300000D02*
X98800000Y-100300000D01*
X106438500Y-99300000D02*
X99800000Y-99300000D01*
X90217500Y-124600000D02*
X90217500Y-121100000D01*
%TO.N,/ROW-SENSE*%
X88900000Y-102600000D02*
X86000000Y-105500000D01*
X115101000Y-100342500D02*
X113258500Y-98500000D01*
X88900000Y-101500000D02*
X88900000Y-102600000D01*
X91900000Y-98500000D02*
X88900000Y-101500000D01*
X86000000Y-105500000D02*
X86000000Y-106900000D01*
X113258500Y-98500000D02*
X91900000Y-98500000D01*
%TO.N,+12V*%
X114952000Y-108600000D02*
X114000000Y-108600000D01*
X116151999Y-108600000D02*
X117552000Y-110000001D01*
X114000000Y-108600000D02*
X113951000Y-108551000D01*
D38*
X121550000Y-111850000D02*
X123655000Y-111850000D01*
X120400000Y-110700000D02*
X117552000Y-110700000D01*
D36*
X114000000Y-107600000D02*
X114952000Y-107600000D01*
X113951000Y-108551000D02*
X113951000Y-107649000D01*
X113951000Y-107649000D02*
X114000000Y-107600000D01*
X117552000Y-110000001D02*
X117552000Y-110700000D01*
X114952000Y-108600000D02*
X116151999Y-108600000D01*
D38*
X120400000Y-110700000D02*
X121550000Y-111850000D01*
%TO.N,/PI-XDIR*%
D36*
X129411000Y-119405000D02*
X128971000Y-118965000D01*
X107481000Y-115582500D02*
X109213500Y-113850000D01*
X126972000Y-118965000D02*
X127411000Y-118965000D01*
X127411000Y-118965000D02*
X127411000Y-120235000D01*
X121857000Y-113850000D02*
X126972000Y-118965000D01*
X128971000Y-118965000D02*
X127411000Y-118965000D01*
X109213500Y-113850000D02*
X121857000Y-113850000D01*
%TO.N,/PI-RxD*%
X110021000Y-115582500D02*
X111353500Y-114250000D01*
X126347000Y-118905686D02*
X126347000Y-120880000D01*
X111353500Y-114250000D02*
X121691314Y-114250000D01*
X129311000Y-121505000D02*
X127411000Y-121505000D01*
X129411000Y-121405000D02*
X129311000Y-121505000D01*
X126347000Y-120880000D02*
X126972000Y-121505000D01*
X121691314Y-114250000D02*
X126347000Y-118905686D01*
X126972000Y-121505000D02*
X127411000Y-121505000D01*
%TO.N,/PI-TxD*%
X127411000Y-117695000D02*
X127411000Y-104876256D01*
X124384744Y-101850000D02*
X114068500Y-101850000D01*
X127411000Y-104876256D02*
X124384744Y-101850000D01*
X114068500Y-101850000D02*
X112561000Y-100342500D01*
X126972000Y-117695000D02*
X127411000Y-117695000D01*
%TO.N,Net-(IC3-A)*%
X121989000Y-118965000D02*
X120415000Y-118965000D01*
X120415000Y-118965000D02*
X119850000Y-118400000D01*
%TO.N,Net-(IC3-B)*%
X121989000Y-120235000D02*
X120415000Y-120235000D01*
X120415000Y-120235000D02*
X119850000Y-120800000D01*
%TO.N,/ROW-XDIR*%
X110021000Y-100342500D02*
X108578500Y-98900000D01*
X94935000Y-116811000D02*
X94935000Y-118565000D01*
X93665000Y-116811000D02*
X94935000Y-116811000D01*
X97350000Y-101334744D02*
X97154509Y-101334744D01*
X110021000Y-100342500D02*
X109446162Y-100342500D01*
X95100000Y-116646000D02*
X94935000Y-116811000D01*
X97700000Y-100984744D02*
X97350000Y-101334744D01*
X98415256Y-98900000D02*
X97700000Y-99615256D01*
X95200000Y-103289253D02*
X95200000Y-109965000D01*
X94935000Y-118565000D02*
X94700000Y-118800000D01*
X95200000Y-109965000D02*
X95560000Y-110325000D01*
X97700000Y-99615256D02*
X97700000Y-100984744D01*
X95560000Y-110325000D02*
X95560000Y-112640000D01*
X95560000Y-112640000D02*
X95500000Y-112700000D01*
X108578500Y-98900000D02*
X98415256Y-98900000D01*
X97154509Y-101334744D02*
X95200000Y-103289253D01*
X95100000Y-115000000D02*
X95100000Y-116646000D01*
%TO.N,/ROW-TxD*%
X117641000Y-115582500D02*
X116423500Y-116800000D01*
X106200000Y-116100000D02*
X106200000Y-115000000D01*
X106900000Y-116800000D02*
X106200000Y-116100000D01*
X116423500Y-116800000D02*
X106900000Y-116800000D01*
X105500000Y-114300000D02*
X98716000Y-114300000D01*
X98716000Y-114300000D02*
X96205000Y-116811000D01*
X106200000Y-115000000D02*
X105500000Y-114300000D01*
%TO.N,Net-(D3-A)*%
X88200000Y-121500000D02*
X86407500Y-121500000D01*
%TO.N,/SDA*%
X111900000Y-105400000D02*
X111900000Y-108300000D01*
X111502000Y-109100000D02*
X110552000Y-109100000D01*
X111900000Y-108702000D02*
X111502000Y-109100000D01*
X111900000Y-108300000D02*
X111900000Y-108702000D01*
%TO.N,/SCL*%
X112750000Y-108450000D02*
X112800000Y-108400000D01*
X112800000Y-104300000D02*
X111900000Y-103400000D01*
X112800000Y-108400000D02*
X112800000Y-104300000D01*
X111600000Y-109600000D02*
X112750000Y-108450000D01*
X110552000Y-109600000D02*
X111600000Y-109600000D01*
%TO.N,/LED-RDY*%
X93857814Y-126100000D02*
X86365256Y-126100000D01*
X85250000Y-121975000D02*
X84375000Y-121100000D01*
X86365256Y-126100000D02*
X85250000Y-124984744D01*
X85250000Y-124984744D02*
X85250000Y-121975000D01*
X102401000Y-115582500D02*
X102401000Y-117556814D01*
X102401000Y-117556814D02*
X93857814Y-126100000D01*
%TO.N,/PI-TRCV_P*%
X110600000Y-124000000D02*
X110100000Y-123500000D01*
X116381000Y-118031000D02*
X116750000Y-118400000D01*
X115800000Y-119900000D02*
X115800000Y-121184314D01*
X110100000Y-123500000D02*
X110100000Y-122900000D01*
X116750000Y-118400000D02*
X116750000Y-118950000D01*
X112984314Y-124000000D02*
X110600000Y-124000000D01*
X115800000Y-121184314D02*
X112984314Y-124000000D01*
X110700000Y-122300000D02*
X111880000Y-122300000D01*
X116750000Y-118950000D02*
X115800000Y-119900000D01*
X110100000Y-122900000D02*
X110700000Y-122300000D01*
%TO.N,/PI-TRCV_N*%
X113150000Y-124400000D02*
X108900000Y-124400000D01*
X116750000Y-120800000D02*
X113150000Y-124400000D01*
X108900000Y-124400000D02*
X106800000Y-122300000D01*
%TO.N,/ROW-TRCV_N*%
X90593000Y-114900000D02*
X93665000Y-111828000D01*
X93665000Y-111828000D02*
X93665000Y-111389000D01*
X86000000Y-113400000D02*
X87500000Y-114900000D01*
X87500000Y-114900000D02*
X90593000Y-114900000D01*
X86000000Y-111900000D02*
X86000000Y-113400000D01*
%TO.N,/ROW-TRCV_P*%
X89863000Y-116900000D02*
X94935000Y-111828000D01*
X94935000Y-111828000D02*
X94935000Y-111389000D01*
X86000000Y-116900000D02*
X89863000Y-116900000D01*
%TD*%
%TA.AperFunction,Conductor*%
%TO.N,Vrow*%
G36*
X118793106Y-105205023D02*
G01*
X118808104Y-105209427D01*
X118823094Y-105219057D01*
X118840175Y-105224067D01*
X118866855Y-105247172D01*
X118868042Y-105248541D01*
X118895518Y-105303402D01*
X118897163Y-105310960D01*
X118900000Y-105337331D01*
X118900000Y-107870500D01*
X118880315Y-107937539D01*
X118827511Y-107983294D01*
X118776000Y-107994500D01*
X116552596Y-107994500D01*
X116498546Y-107997397D01*
X116472223Y-108000228D01*
X116472177Y-108000234D01*
X116418781Y-108008887D01*
X116418778Y-108008887D01*
X116392087Y-108018843D01*
X116371436Y-108020319D01*
X116351714Y-108026626D01*
X116326084Y-108023563D01*
X116322395Y-108023827D01*
X116316669Y-108022438D01*
X116309132Y-108020419D01*
X116276683Y-108006524D01*
X116263331Y-107998386D01*
X116251345Y-107985201D01*
X116249470Y-107984058D01*
X116248509Y-107982081D01*
X116216337Y-107946689D01*
X116212458Y-107938703D01*
X116200000Y-107884534D01*
X116200000Y-105341829D01*
X116205023Y-105306893D01*
X116209427Y-105291895D01*
X116247172Y-105233144D01*
X116247200Y-105233119D01*
X116247199Y-105233119D01*
X116248541Y-105231956D01*
X116303420Y-105204477D01*
X116310979Y-105202833D01*
X116337332Y-105200000D01*
X118758170Y-105200000D01*
X118793106Y-105205023D01*
G37*
%TD.AperFunction*%
%TD*%
%TA.AperFunction,Conductor*%
%TO.N,+12V*%
G36*
X118843551Y-108519685D02*
G01*
X118889306Y-108572489D01*
X118900511Y-108623487D01*
X118911485Y-111275487D01*
X118892078Y-111342607D01*
X118839464Y-111388580D01*
X118787486Y-111400000D01*
X116324000Y-111400000D01*
X116256961Y-111380315D01*
X116211206Y-111327511D01*
X116200000Y-111276000D01*
X116200000Y-108777135D01*
X116203822Y-108764115D01*
X116202877Y-108750578D01*
X116213474Y-108731245D01*
X116219685Y-108710096D01*
X116230661Y-108699893D01*
X116236463Y-108689310D01*
X116256233Y-108676124D01*
X116264752Y-108668206D01*
X116277540Y-108661249D01*
X116283784Y-108659577D01*
X116333903Y-108630639D01*
X116420715Y-108580520D01*
X116464915Y-108536320D01*
X116526238Y-108502834D01*
X116552597Y-108500000D01*
X118776512Y-108500000D01*
X118843551Y-108519685D01*
G37*
%TD.AperFunction*%
%TD*%
M02*
