%TF.GenerationSoftware,KiCad,Pcbnew,10.0.1*%
%TF.CreationDate,2026-07-11T20:49:10-07:00*%
%TF.ProjectId,row-controller,726f772d-636f-46e7-9472-6f6c6c65722e,rev?*%
%TF.SameCoordinates,Original*%
%TF.FileFunction,Soldermask,Bot*%
%TF.FilePolarity,Negative*%
%FSLAX46Y46*%
G04 Gerber Fmt 4.6, Leading zero omitted, Abs format (unit mm)*
G04 Created by KiCad (PCBNEW 10.0.1) date 2026-07-11 20:49:10*
%MOMM*%
%LPD*%
G01*
G04 APERTURE LIST*
G04 Aperture macros list*
%AMRoundRect*
0 Rectangle with rounded corners*
0 $1 Rounding radius*
0 $2 $3 $4 $5 $6 $7 $8 $9 X,Y pos of 4 corners*
0 Add a 4 corners polygon primitive as box body*
4,1,4,$2,$3,$4,$5,$6,$7,$8,$9,$2,$3,0*
0 Add four circle primitives for the rounded corners*
1,1,$1+$1,$2,$3*
1,1,$1+$1,$4,$5*
1,1,$1+$1,$6,$7*
1,1,$1+$1,$8,$9*
0 Add four rect primitives between the rounded corners*
20,1,$1+$1,$2,$3,$4,$5,0*
20,1,$1+$1,$4,$5,$6,$7,0*
20,1,$1+$1,$6,$7,$8,$9,0*
20,1,$1+$1,$8,$9,$2,$3,0*%
G04 Aperture macros list end*
%ADD10R,2.100000X2.100000*%
%ADD11C,2.100000*%
%ADD12R,2.300000X1.500000*%
%ADD13O,2.300000X1.500000*%
%ADD14RoundRect,0.102000X0.679000X-0.679000X0.679000X0.679000X-0.679000X0.679000X-0.679000X-0.679000X0*%
%ADD15C,1.562000*%
%ADD16RoundRect,0.250000X0.550000X-0.550000X0.550000X0.550000X-0.550000X0.550000X-0.550000X-0.550000X0*%
%ADD17C,1.600000*%
%ADD18RoundRect,0.250000X0.750000X-0.600000X0.750000X0.600000X-0.750000X0.600000X-0.750000X-0.600000X0*%
%ADD19O,2.000000X1.700000*%
%ADD20R,1.950000X1.950000*%
%ADD21C,1.950000*%
%ADD22RoundRect,0.250000X0.350000X0.450000X-0.350000X0.450000X-0.350000X-0.450000X0.350000X-0.450000X0*%
%ADD23RoundRect,0.250000X0.450000X-0.350000X0.450000X0.350000X-0.450000X0.350000X-0.450000X-0.350000X0*%
%ADD24RoundRect,0.250000X0.337500X0.475000X-0.337500X0.475000X-0.337500X-0.475000X0.337500X-0.475000X0*%
%ADD25R,0.600000X1.250000*%
G04 APERTURE END LIST*
D10*
%TO.C,J6*%
X86000000Y-101900000D03*
D11*
X86000000Y-106900000D03*
X86000000Y-111900000D03*
X86000000Y-116900000D03*
%TD*%
D12*
%TO.C,U2*%
X106307500Y-110447500D03*
D13*
X106307500Y-107907500D03*
X106307500Y-105367500D03*
%TD*%
D14*
%TO.C,U1*%
X102401000Y-115582500D03*
D15*
X104941000Y-115582500D03*
X107481000Y-115582500D03*
X110021000Y-115582500D03*
X112561000Y-115582500D03*
X115101000Y-115582500D03*
X117641000Y-115582500D03*
X117641000Y-100342500D03*
X115101000Y-100342500D03*
X112561000Y-100342500D03*
X110021000Y-100342500D03*
X107481000Y-100342500D03*
X104941000Y-100342500D03*
X102401000Y-100342500D03*
%TD*%
D16*
%TO.C,C10*%
X96400000Y-105644888D03*
D17*
X96400000Y-103644888D03*
%TD*%
D18*
%TO.C,J1*%
X123655000Y-111850000D03*
D19*
X123655000Y-109350000D03*
%TD*%
D20*
%TO.C,J5*%
X101720000Y-122300000D03*
D21*
X106800000Y-122300000D03*
X111880000Y-122300000D03*
%TD*%
D18*
%TO.C,J3*%
X123600000Y-103200000D03*
D19*
X123600000Y-100700000D03*
%TD*%
D22*
%TO.C,R13*%
X110340000Y-120300000D03*
X108340000Y-120300000D03*
%TD*%
D23*
%TO.C,R14*%
X83500000Y-115400000D03*
X83500000Y-113400000D03*
%TD*%
D24*
%TO.C,C8*%
X99837500Y-100300000D03*
X97762500Y-100300000D03*
%TD*%
D25*
%TO.C,D4*%
X108390000Y-123700000D03*
X110290000Y-123700000D03*
X109340000Y-125700000D03*
%TD*%
D24*
%TO.C,C2*%
X106337500Y-103300000D03*
X104262500Y-103300000D03*
%TD*%
%TO.C,C1*%
X106337500Y-112600000D03*
X104262500Y-112600000D03*
%TD*%
%TO.C,C9*%
X101137500Y-102400000D03*
X99062500Y-102400000D03*
%TD*%
M02*
