%TF.GenerationSoftware,KiCad,Pcbnew,10.0.1*%
%TF.CreationDate,2026-07-11T20:49:09-07:00*%
%TF.ProjectId,row-controller,726f772d-636f-46e7-9472-6f6c6c65722e,rev?*%
%TF.SameCoordinates,Original*%
%TF.FileFunction,Copper,L2,Bot*%
%TF.FilePolarity,Positive*%
%FSLAX46Y46*%
G04 Gerber Fmt 4.6, Leading zero omitted, Abs format (unit mm)*
G04 Created by KiCad (PCBNEW 10.0.1) date 2026-07-11 20:49:09*
%MOMM*%
%LPD*%
G01*
G04 APERTURE LIST*
G04 Aperture macros list*
%AMRoundRect*
0 Rectangle with rounded corners*
0 $1 Rounding radius*
0 $2 $3 $4 $5 $6 $7 $8 $9 X,Y pos of 4 corners*
0 Add a 4 corners polygon primitive as box body*
4,1,4,$2,$3,$4,$5,$6,$7,$8,$9,$2,$3,0*
0 Add four circle primitives for the rounded corners*
1,1,$1+$1,$2,$3*
1,1,$1+$1,$4,$5*
1,1,$1+$1,$6,$7*
1,1,$1+$1,$8,$9*
0 Add four rect primitives between the rounded corners*
20,1,$1+$1,$2,$3,$4,$5,0*
20,1,$1+$1,$4,$5,$6,$7,0*
20,1,$1+$1,$6,$7,$8,$9,0*
20,1,$1+$1,$8,$9,$2,$3,0*%
G04 Aperture macros list end*
%TA.AperFunction,ComponentPad*%
%ADD10R,2.100000X2.100000*%
%TD*%
%TA.AperFunction,ComponentPad*%
%ADD11C,2.100000*%
%TD*%
%TA.AperFunction,ComponentPad*%
%ADD12R,2.300000X1.500000*%
%TD*%
%TA.AperFunction,ComponentPad*%
%ADD13O,2.300000X1.500000*%
%TD*%
%TA.AperFunction,ComponentPad*%
%ADD14R,1.358000X1.358000*%
%TD*%
%TA.AperFunction,ComponentPad*%
%ADD15C,1.358000*%
%TD*%
%TA.AperFunction,ComponentPad*%
%ADD16RoundRect,0.250000X0.550000X-0.550000X0.550000X0.550000X-0.550000X0.550000X-0.550000X-0.550000X0*%
%TD*%
%TA.AperFunction,ComponentPad*%
%ADD17C,1.600000*%
%TD*%
%TA.AperFunction,ComponentPad*%
%ADD18RoundRect,0.250000X0.750000X-0.600000X0.750000X0.600000X-0.750000X0.600000X-0.750000X-0.600000X0*%
%TD*%
%TA.AperFunction,ComponentPad*%
%ADD19O,2.000000X1.700000*%
%TD*%
%TA.AperFunction,ComponentPad*%
%ADD20R,1.950000X1.950000*%
%TD*%
%TA.AperFunction,ComponentPad*%
%ADD21C,1.950000*%
%TD*%
%TA.AperFunction,SMDPad,CuDef*%
%ADD22RoundRect,0.250000X0.350000X0.450000X-0.350000X0.450000X-0.350000X-0.450000X0.350000X-0.450000X0*%
%TD*%
%TA.AperFunction,SMDPad,CuDef*%
%ADD23RoundRect,0.250000X0.450000X-0.350000X0.450000X0.350000X-0.450000X0.350000X-0.450000X-0.350000X0*%
%TD*%
%TA.AperFunction,SMDPad,CuDef*%
%ADD24RoundRect,0.250000X0.337500X0.475000X-0.337500X0.475000X-0.337500X-0.475000X0.337500X-0.475000X0*%
%TD*%
%TA.AperFunction,SMDPad,CuDef*%
%ADD25R,0.600000X1.250000*%
%TD*%
%TA.AperFunction,ViaPad*%
%ADD26C,0.600000*%
%TD*%
%TA.AperFunction,Conductor*%
%ADD27C,0.200000*%
%TD*%
%TA.AperFunction,Conductor*%
%ADD28C,0.500000*%
%TD*%
G04 APERTURE END LIST*
D10*
%TO.P,J6,1,1_1*%
%TO.N,GND*%
X86000000Y-101900000D03*
D11*
%TO.P,J6,2,2_2*%
%TO.N,/ROW-SENSE*%
X86000000Y-106900000D03*
%TO.P,J6,3,3_3*%
%TO.N,/ROW-TRCV_N*%
X86000000Y-111900000D03*
%TO.P,J6,4,4_4*%
%TO.N,/ROW-TRCV_P*%
X86000000Y-116900000D03*
%TD*%
D12*
%TO.P,U2,1,IN_1*%
%TO.N,Vrow*%
X106307500Y-110447500D03*
D13*
%TO.P,U2,2,GND_2*%
%TO.N,GND*%
X106307500Y-107907500D03*
%TO.P,U2,3,OUT_3*%
%TO.N,+5V*%
X106307500Y-105367500D03*
%TD*%
D14*
%TO.P,U1,1,D0_1*%
%TO.N,/LED-RDY*%
X102401000Y-115582500D03*
D15*
%TO.P,U1,2,D1_2*%
%TO.N,/LED-DATA*%
X104941000Y-115582500D03*
%TO.P,U1,3,D2_3*%
%TO.N,/PI-XDIR*%
X107481000Y-115582500D03*
%TO.P,U1,4,D3_4*%
%TO.N,/PI-RxD*%
X110021000Y-115582500D03*
%TO.P,U1,5,D4_5*%
%TO.N,/SDA*%
X112561000Y-115582500D03*
%TO.P,U1,6,D5_6*%
%TO.N,/SCL*%
X115101000Y-115582500D03*
%TO.P,U1,7,TX_D6_7*%
%TO.N,/ROW-TxD*%
X117641000Y-115582500D03*
%TO.P,U1,8,RX_D7_8*%
%TO.N,/ROW-RxD*%
X117641000Y-100342500D03*
%TO.P,U1,9,D8_9*%
%TO.N,/ROW-SENSE*%
X115101000Y-100342500D03*
%TO.P,U1,10,D9_10*%
%TO.N,/PI-TxD*%
X112561000Y-100342500D03*
%TO.P,U1,11,D10_11*%
%TO.N,/ROW-XDIR*%
X110021000Y-100342500D03*
%TO.P,U1,12,VCC_3V3_12*%
%TO.N,+3V3*%
X107481000Y-100342500D03*
%TO.P,U1,13,GND_13*%
%TO.N,GND*%
X104941000Y-100342500D03*
%TO.P,U1,14,VUSB_14*%
%TO.N,+5V*%
X102401000Y-100342500D03*
%TD*%
D16*
%TO.P,C10,1*%
%TO.N,+5V*%
X96400000Y-105644888D03*
D17*
%TO.P,C10,2*%
%TO.N,GND*%
X96400000Y-103644888D03*
%TD*%
D18*
%TO.P,J1,1,Pin_1_1*%
%TO.N,+12V*%
X123655000Y-111850000D03*
D19*
%TO.P,J1,2,Pin_2_2*%
%TO.N,GND*%
X123655000Y-109350000D03*
%TD*%
D20*
%TO.P,J5,1,1_1*%
%TO.N,GND*%
X101720000Y-122300000D03*
D21*
%TO.P,J5,2,2_2*%
%TO.N,/PI-TRCV_N*%
X106800000Y-122300000D03*
%TO.P,J5,3,3_3*%
%TO.N,/PI-TRCV_P*%
X111880000Y-122300000D03*
%TD*%
D18*
%TO.P,J3,1,Pin_1_1*%
%TO.N,Vrow*%
X123600000Y-103200000D03*
D19*
%TO.P,J3,2,Pin_2_2*%
%TO.N,GND*%
X123600000Y-100700000D03*
%TD*%
D22*
%TO.P,R13,1*%
%TO.N,/PI-TRCV_P*%
X110340000Y-120300000D03*
%TO.P,R13,2*%
%TO.N,/PI-TRCV_N*%
X108340000Y-120300000D03*
%TD*%
D23*
%TO.P,R14,1*%
%TO.N,/ROW-TRCV_P*%
X83500000Y-115400000D03*
%TO.P,R14,2*%
%TO.N,/ROW-TRCV_N*%
X83500000Y-113400000D03*
%TD*%
D24*
%TO.P,C8,1*%
%TO.N,+5V*%
X99837500Y-100300000D03*
%TO.P,C8,2*%
%TO.N,GND*%
X97762500Y-100300000D03*
%TD*%
D25*
%TO.P,D4,1,1_1*%
%TO.N,/PI-TRCV_N*%
X108390000Y-123700000D03*
%TO.P,D4,2,2_2*%
%TO.N,/PI-TRCV_P*%
X110290000Y-123700000D03*
%TO.P,D4,3,3_3*%
%TO.N,GND*%
X109340000Y-125700000D03*
%TD*%
D24*
%TO.P,C2,1*%
%TO.N,+5V*%
X106337500Y-103300000D03*
%TO.P,C2,2*%
%TO.N,GND*%
X104262500Y-103300000D03*
%TD*%
%TO.P,C1,1*%
%TO.N,Vrow*%
X106337500Y-112600000D03*
%TO.P,C1,2*%
%TO.N,GND*%
X104262500Y-112600000D03*
%TD*%
%TO.P,C9,1*%
%TO.N,+5V*%
X101137500Y-102400000D03*
%TO.P,C9,2*%
%TO.N,GND*%
X99062500Y-102400000D03*
%TD*%
D26*
%TO.N,GND*%
X122038923Y-117135000D03*
X92700000Y-106400000D03*
X94700000Y-121700000D03*
X112000000Y-111500000D03*
X113691302Y-109114496D03*
X118800000Y-123400000D03*
X92200000Y-100300000D03*
X96200000Y-110200000D03*
X131400000Y-118300000D03*
%TO.N,+5V*%
X109100000Y-103400000D03*
X120500000Y-112550000D03*
X99700000Y-106000000D03*
X94600000Y-105800000D03*
X121200000Y-114850000D03*
X99700000Y-107300000D03*
%TO.N,/ROW-RxD*%
X117600000Y-102450000D03*
%TO.N,+3V3*%
X100500000Y-104894888D03*
X100500000Y-107300000D03*
X100500000Y-113700000D03*
X100500000Y-114900000D03*
%TO.N,/ROW-XDIR*%
X95100000Y-115000000D03*
X95500000Y-112700000D03*
%TO.N,/SDA*%
X111900000Y-108300000D03*
%TO.N,/SCL*%
X112750000Y-108450000D03*
%TD*%
%TO.N,+5V*%
D27*
X99837500Y-100300000D02*
X102358500Y-100300000D01*
X96244888Y-105800000D02*
X96400000Y-105644888D01*
X99700000Y-107300000D02*
X99700000Y-106000000D01*
X106307500Y-103330000D02*
X106337500Y-103300000D01*
X108600000Y-103300000D02*
X106337500Y-103300000D01*
X94600000Y-105800000D02*
X96244888Y-105800000D01*
X101137500Y-102400000D02*
X101137500Y-101606000D01*
D28*
X106307500Y-105367500D02*
X106307500Y-103330000D01*
D27*
X101137500Y-101606000D02*
X102401000Y-100342500D01*
X109100000Y-103400000D02*
X108700000Y-103400000D01*
X120500000Y-112550000D02*
X120500000Y-114150000D01*
X108700000Y-103400000D02*
X108600000Y-103300000D01*
X120500000Y-114150000D02*
X121200000Y-114850000D01*
X102358500Y-100300000D02*
X102401000Y-100342500D01*
%TO.N,/ROW-RxD*%
X117641000Y-102409000D02*
X117641000Y-100342500D01*
X117600000Y-102450000D02*
X117641000Y-102409000D01*
%TO.N,Vrow*%
D28*
X106307500Y-112570000D02*
X106337500Y-112600000D01*
X106307500Y-110447500D02*
X106307500Y-112570000D01*
%TO.N,+3V3*%
D27*
X100500000Y-113700000D02*
X100500000Y-114900000D01*
X100500000Y-104894888D02*
X100500000Y-107300000D01*
%TO.N,/ROW-XDIR*%
X95500000Y-114600000D02*
X95100000Y-115000000D01*
X95500000Y-112700000D02*
X95500000Y-114600000D01*
%TO.N,/SDA*%
X112561000Y-115582500D02*
X113100000Y-115043500D01*
X111900000Y-108737409D02*
X111900000Y-108300000D01*
X113100000Y-109937409D02*
X111900000Y-108737409D01*
X113100000Y-115043500D02*
X113100000Y-109937409D01*
%TO.N,/SCL*%
X113500000Y-113981500D02*
X113500000Y-109771723D01*
X115101000Y-115582500D02*
X113500000Y-113981500D01*
X112750000Y-109021723D02*
X112750000Y-108450000D01*
X113500000Y-109771723D02*
X112750000Y-109021723D01*
%TO.N,/PI-TRCV_P*%
X110340000Y-120760000D02*
X111880000Y-122300000D01*
X110480000Y-123700000D02*
X111880000Y-122300000D01*
X110290000Y-123700000D02*
X110480000Y-123700000D01*
X110340000Y-120300000D02*
X110340000Y-120760000D01*
%TO.N,/PI-TRCV_N*%
X108390000Y-123700000D02*
X108200000Y-123700000D01*
X108200000Y-123700000D02*
X106800000Y-122300000D01*
X108340000Y-120300000D02*
X108340000Y-120760000D01*
X108340000Y-120760000D02*
X106800000Y-122300000D01*
%TO.N,/ROW-TRCV_N*%
X84500000Y-113400000D02*
X86000000Y-111900000D01*
X83500000Y-113400000D02*
X84500000Y-113400000D01*
%TO.N,/ROW-TRCV_P*%
X84500000Y-115400000D02*
X86000000Y-116900000D01*
X83500000Y-115400000D02*
X84500000Y-115400000D01*
%TD*%
%TA.AperFunction,Conductor*%
%TO.N,GND*%
G36*
X132642539Y-98320185D02*
G01*
X132688294Y-98372989D01*
X132699500Y-98424500D01*
X132699500Y-126725500D01*
X132679815Y-126792539D01*
X132627011Y-126838294D01*
X132575500Y-126849500D01*
X110119662Y-126849500D01*
X110052623Y-126829815D01*
X110006868Y-126777011D01*
X109996924Y-126707853D01*
X110020396Y-126651188D01*
X110083352Y-126567089D01*
X110083354Y-126567086D01*
X110133596Y-126432379D01*
X110133598Y-126432372D01*
X110139999Y-126372844D01*
X110140000Y-126372827D01*
X110140000Y-125950000D01*
X108540000Y-125950000D01*
X108540000Y-126372844D01*
X108546401Y-126432372D01*
X108546403Y-126432379D01*
X108596645Y-126567086D01*
X108596647Y-126567089D01*
X108659604Y-126651188D01*
X108684022Y-126716653D01*
X108669171Y-126784926D01*
X108619766Y-126834332D01*
X108560338Y-126849500D01*
X81724500Y-126849500D01*
X81657461Y-126829815D01*
X81611706Y-126777011D01*
X81600500Y-126725500D01*
X81600500Y-121277155D01*
X100245000Y-121277155D01*
X100245000Y-122050000D01*
X101119999Y-122050000D01*
X101094979Y-122110402D01*
X101070000Y-122235981D01*
X101070000Y-122364019D01*
X101094979Y-122489598D01*
X101119999Y-122550000D01*
X100245000Y-122550000D01*
X100245000Y-123322844D01*
X100251401Y-123382372D01*
X100251403Y-123382379D01*
X100301645Y-123517086D01*
X100301649Y-123517093D01*
X100387809Y-123632187D01*
X100387812Y-123632190D01*
X100502906Y-123718350D01*
X100502913Y-123718354D01*
X100637620Y-123768596D01*
X100637627Y-123768598D01*
X100697155Y-123774999D01*
X100697172Y-123775000D01*
X101470000Y-123775000D01*
X101470000Y-122900001D01*
X101530402Y-122925021D01*
X101655981Y-122950000D01*
X101784019Y-122950000D01*
X101909598Y-122925021D01*
X101970000Y-122900001D01*
X101970000Y-123775000D01*
X102742828Y-123775000D01*
X102742844Y-123774999D01*
X102802372Y-123768598D01*
X102802379Y-123768596D01*
X102937086Y-123718354D01*
X102937093Y-123718350D01*
X103052187Y-123632190D01*
X103052190Y-123632187D01*
X103138350Y-123517093D01*
X103138354Y-123517086D01*
X103188596Y-123382379D01*
X103188598Y-123382372D01*
X103194999Y-123322844D01*
X103195000Y-123322827D01*
X103195000Y-122550000D01*
X102320001Y-122550000D01*
X102345021Y-122489598D01*
X102370000Y-122364019D01*
X102370000Y-122235981D01*
X102359635Y-122183870D01*
X105324500Y-122183870D01*
X105324500Y-122416129D01*
X105360831Y-122645514D01*
X105432601Y-122866400D01*
X105514491Y-123027116D01*
X105538039Y-123073331D01*
X105674551Y-123261224D01*
X105838776Y-123425449D01*
X106026669Y-123561961D01*
X106124436Y-123611776D01*
X106233599Y-123667398D01*
X106233601Y-123667398D01*
X106233604Y-123667400D01*
X106454486Y-123739169D01*
X106572668Y-123757886D01*
X106683871Y-123775500D01*
X106683876Y-123775500D01*
X106916129Y-123775500D01*
X107145514Y-123739169D01*
X107164626Y-123732959D01*
X107257726Y-123702708D01*
X107272937Y-123702274D01*
X107287197Y-123696956D01*
X107307152Y-123701297D01*
X107327565Y-123700714D01*
X107341651Y-123708801D01*
X107355470Y-123711808D01*
X107383724Y-123732959D01*
X107553181Y-123902416D01*
X107586666Y-123963739D01*
X107589500Y-123990097D01*
X107589500Y-124372869D01*
X107589501Y-124372876D01*
X107595908Y-124432483D01*
X107646202Y-124567328D01*
X107646206Y-124567335D01*
X107732452Y-124682544D01*
X107732455Y-124682547D01*
X107847664Y-124768793D01*
X107847671Y-124768797D01*
X107892618Y-124785561D01*
X107982517Y-124819091D01*
X108042127Y-124825500D01*
X108423637Y-124825499D01*
X108490675Y-124845183D01*
X108536430Y-124897987D01*
X108546925Y-124962755D01*
X108540000Y-125027155D01*
X108540000Y-125450000D01*
X109090000Y-125450000D01*
X109090000Y-124667106D01*
X109109685Y-124600067D01*
X109114734Y-124592794D01*
X109133796Y-124567331D01*
X109184091Y-124432483D01*
X109190500Y-124372873D01*
X109190499Y-123027128D01*
X109184091Y-122967517D01*
X109146375Y-122866396D01*
X109133797Y-122832671D01*
X109133793Y-122832664D01*
X109047547Y-122717455D01*
X109047544Y-122717452D01*
X108932335Y-122631206D01*
X108932328Y-122631202D01*
X108797482Y-122580908D01*
X108797483Y-122580908D01*
X108737883Y-122574501D01*
X108737881Y-122574500D01*
X108737873Y-122574500D01*
X108737865Y-122574500D01*
X108395602Y-122574500D01*
X108328563Y-122554815D01*
X108282808Y-122502011D01*
X108272864Y-122432853D01*
X108273128Y-122431105D01*
X108275500Y-122416126D01*
X108275500Y-122183870D01*
X108245128Y-121992110D01*
X108239169Y-121954486D01*
X108202709Y-121842273D01*
X108200714Y-121772432D01*
X108232957Y-121716276D01*
X108412416Y-121536818D01*
X108473739Y-121503333D01*
X108500097Y-121500499D01*
X108740002Y-121500499D01*
X108740008Y-121500499D01*
X108842797Y-121489999D01*
X109009334Y-121434814D01*
X109158656Y-121342712D01*
X109252319Y-121249049D01*
X109313642Y-121215564D01*
X109383334Y-121220548D01*
X109427681Y-121249049D01*
X109521344Y-121342712D01*
X109670666Y-121434814D01*
X109837203Y-121489999D01*
X109939991Y-121500500D01*
X110179901Y-121500499D01*
X110246941Y-121520183D01*
X110267583Y-121536818D01*
X110447040Y-121716275D01*
X110480525Y-121777598D01*
X110477290Y-121842274D01*
X110440831Y-121954482D01*
X110440831Y-121954485D01*
X110404500Y-122183870D01*
X110404500Y-122416126D01*
X110406872Y-122431106D01*
X110397915Y-122500399D01*
X110352917Y-122553849D01*
X110286165Y-122574487D01*
X110284398Y-122574500D01*
X109942130Y-122574500D01*
X109942123Y-122574501D01*
X109882516Y-122580908D01*
X109747671Y-122631202D01*
X109747664Y-122631206D01*
X109632455Y-122717452D01*
X109632452Y-122717455D01*
X109546206Y-122832664D01*
X109546202Y-122832671D01*
X109495908Y-122967517D01*
X109489501Y-123027116D01*
X109489501Y-123027123D01*
X109489500Y-123027135D01*
X109489500Y-124372870D01*
X109489501Y-124372876D01*
X109495908Y-124432483D01*
X109546203Y-124567329D01*
X109565266Y-124592794D01*
X109589684Y-124658258D01*
X109590000Y-124667106D01*
X109590000Y-125450000D01*
X110140000Y-125450000D01*
X110140000Y-125027172D01*
X110139999Y-125027155D01*
X110133075Y-124962755D01*
X110145480Y-124893995D01*
X110193090Y-124842858D01*
X110256362Y-124825499D01*
X110637872Y-124825499D01*
X110697483Y-124819091D01*
X110832331Y-124768796D01*
X110947546Y-124682546D01*
X111033796Y-124567331D01*
X111084091Y-124432483D01*
X111090500Y-124372873D01*
X111090499Y-123990095D01*
X111099145Y-123960649D01*
X111105667Y-123930669D01*
X111109419Y-123925655D01*
X111110183Y-123923057D01*
X111126813Y-123902420D01*
X111296276Y-123732957D01*
X111357597Y-123699474D01*
X111422273Y-123702709D01*
X111534486Y-123739169D01*
X111640728Y-123755995D01*
X111763871Y-123775500D01*
X111763876Y-123775500D01*
X111996129Y-123775500D01*
X112097502Y-123759443D01*
X112225514Y-123739169D01*
X112446396Y-123667400D01*
X112653331Y-123561961D01*
X112841224Y-123425449D01*
X113005449Y-123261224D01*
X113141961Y-123073331D01*
X113247400Y-122866396D01*
X113319169Y-122645514D01*
X113341897Y-122502011D01*
X113355500Y-122416129D01*
X113355500Y-122183870D01*
X113334297Y-122050000D01*
X113319169Y-121954486D01*
X113247400Y-121733604D01*
X113247398Y-121733601D01*
X113247398Y-121733599D01*
X113141960Y-121526668D01*
X113005449Y-121338776D01*
X112841224Y-121174551D01*
X112653331Y-121038039D01*
X112446400Y-120932601D01*
X112225514Y-120860831D01*
X111996129Y-120824500D01*
X111996124Y-120824500D01*
X111763876Y-120824500D01*
X111763869Y-120824500D01*
X111583896Y-120853004D01*
X111514603Y-120844049D01*
X111461151Y-120799053D01*
X111440512Y-120732301D01*
X111440499Y-120730657D01*
X111440499Y-119799992D01*
X111429999Y-119697203D01*
X111374814Y-119530666D01*
X111282712Y-119381344D01*
X111158656Y-119257288D01*
X111009334Y-119165186D01*
X110842797Y-119110001D01*
X110842795Y-119110000D01*
X110740010Y-119099500D01*
X109939998Y-119099500D01*
X109939980Y-119099501D01*
X109837203Y-119110000D01*
X109837200Y-119110001D01*
X109670668Y-119165185D01*
X109670663Y-119165187D01*
X109521342Y-119257289D01*
X109427681Y-119350951D01*
X109366358Y-119384436D01*
X109296666Y-119379452D01*
X109252319Y-119350951D01*
X109158657Y-119257289D01*
X109158656Y-119257288D01*
X109009334Y-119165186D01*
X108842797Y-119110001D01*
X108842795Y-119110000D01*
X108740010Y-119099500D01*
X107939998Y-119099500D01*
X107939980Y-119099501D01*
X107837203Y-119110000D01*
X107837200Y-119110001D01*
X107670668Y-119165185D01*
X107670663Y-119165187D01*
X107521342Y-119257289D01*
X107397289Y-119381342D01*
X107305187Y-119530663D01*
X107305186Y-119530666D01*
X107250001Y-119697203D01*
X107250001Y-119697204D01*
X107250000Y-119697204D01*
X107239500Y-119799983D01*
X107239500Y-120730532D01*
X107219815Y-120797571D01*
X107167011Y-120843326D01*
X107097853Y-120853270D01*
X107096102Y-120853005D01*
X106916129Y-120824500D01*
X106916124Y-120824500D01*
X106683876Y-120824500D01*
X106683871Y-120824500D01*
X106454485Y-120860831D01*
X106233599Y-120932601D01*
X106026668Y-121038039D01*
X105838773Y-121174553D01*
X105674553Y-121338773D01*
X105538039Y-121526668D01*
X105432601Y-121733599D01*
X105360831Y-121954485D01*
X105324500Y-122183870D01*
X102359635Y-122183870D01*
X102345021Y-122110402D01*
X102320001Y-122050000D01*
X103195000Y-122050000D01*
X103195000Y-121277172D01*
X103194999Y-121277155D01*
X103188598Y-121217627D01*
X103188596Y-121217620D01*
X103138354Y-121082913D01*
X103138350Y-121082906D01*
X103052190Y-120967812D01*
X103052187Y-120967809D01*
X102937093Y-120881649D01*
X102937086Y-120881645D01*
X102802379Y-120831403D01*
X102802372Y-120831401D01*
X102742844Y-120825000D01*
X101970000Y-120825000D01*
X101970000Y-121699998D01*
X101909598Y-121674979D01*
X101784019Y-121650000D01*
X101655981Y-121650000D01*
X101530402Y-121674979D01*
X101470000Y-121699998D01*
X101470000Y-120825000D01*
X100697155Y-120825000D01*
X100637627Y-120831401D01*
X100637620Y-120831403D01*
X100502913Y-120881645D01*
X100502906Y-120881649D01*
X100387812Y-120967809D01*
X100387809Y-120967812D01*
X100301649Y-121082906D01*
X100301645Y-121082913D01*
X100251403Y-121217620D01*
X100251401Y-121217627D01*
X100245000Y-121277155D01*
X81600500Y-121277155D01*
X81600500Y-112999983D01*
X82299500Y-112999983D01*
X82299500Y-113800001D01*
X82299501Y-113800019D01*
X82310000Y-113902796D01*
X82310001Y-113902799D01*
X82365185Y-114069331D01*
X82365187Y-114069336D01*
X82400069Y-114125888D01*
X82453630Y-114212726D01*
X82457289Y-114218657D01*
X82550951Y-114312319D01*
X82584436Y-114373642D01*
X82579452Y-114443334D01*
X82550951Y-114487681D01*
X82457289Y-114581342D01*
X82365187Y-114730663D01*
X82365185Y-114730668D01*
X82345615Y-114789728D01*
X82310001Y-114897203D01*
X82310001Y-114897204D01*
X82310000Y-114897204D01*
X82299500Y-114999983D01*
X82299500Y-115800001D01*
X82299501Y-115800019D01*
X82310000Y-115902796D01*
X82310001Y-115902799D01*
X82365185Y-116069331D01*
X82365187Y-116069336D01*
X82376305Y-116087361D01*
X82457288Y-116218656D01*
X82581344Y-116342712D01*
X82730666Y-116434814D01*
X82897203Y-116489999D01*
X82999991Y-116500500D01*
X84000008Y-116500499D01*
X84000016Y-116500498D01*
X84000019Y-116500498D01*
X84056302Y-116494748D01*
X84102797Y-116489999D01*
X84269334Y-116434814D01*
X84299434Y-116416248D01*
X84366822Y-116397807D01*
X84433487Y-116418728D01*
X84478257Y-116472369D01*
X84487003Y-116541183D01*
X84449500Y-116777972D01*
X84449500Y-117022026D01*
X84487678Y-117263072D01*
X84563097Y-117495187D01*
X84673896Y-117712642D01*
X84817339Y-117910076D01*
X84817343Y-117910081D01*
X84989918Y-118082656D01*
X84989923Y-118082660D01*
X85162136Y-118207779D01*
X85187361Y-118226106D01*
X85404815Y-118336904D01*
X85636924Y-118412321D01*
X85877973Y-118450500D01*
X85877974Y-118450500D01*
X86122026Y-118450500D01*
X86122027Y-118450500D01*
X86363076Y-118412321D01*
X86595185Y-118336904D01*
X86812639Y-118226106D01*
X87010083Y-118082655D01*
X87182655Y-117910083D01*
X87326106Y-117712639D01*
X87436904Y-117495185D01*
X87512321Y-117263076D01*
X87550500Y-117022027D01*
X87550500Y-116777973D01*
X87512321Y-116536924D01*
X87436904Y-116304815D01*
X87326106Y-116087361D01*
X87307779Y-116062136D01*
X87182660Y-115889923D01*
X87182656Y-115889918D01*
X87010081Y-115717343D01*
X87010076Y-115717339D01*
X86812642Y-115573896D01*
X86812641Y-115573895D01*
X86812639Y-115573894D01*
X86595185Y-115463096D01*
X86363076Y-115387679D01*
X86363074Y-115387678D01*
X86363072Y-115387678D01*
X86190139Y-115360288D01*
X86122027Y-115349500D01*
X85877973Y-115349500D01*
X85829763Y-115357135D01*
X85636920Y-115387679D01*
X85482753Y-115437770D01*
X85412912Y-115439765D01*
X85356755Y-115407520D01*
X84987589Y-115038354D01*
X84980520Y-115031285D01*
X84980520Y-115031284D01*
X84870389Y-114921153D01*
X94299500Y-114921153D01*
X94299500Y-115078846D01*
X94330261Y-115233489D01*
X94330264Y-115233501D01*
X94390602Y-115379172D01*
X94390609Y-115379185D01*
X94478210Y-115510288D01*
X94478213Y-115510292D01*
X94589707Y-115621786D01*
X94589711Y-115621789D01*
X94720814Y-115709390D01*
X94720827Y-115709397D01*
X94866498Y-115769735D01*
X94866503Y-115769737D01*
X95018649Y-115800001D01*
X95021153Y-115800499D01*
X95021156Y-115800500D01*
X95021158Y-115800500D01*
X95178844Y-115800500D01*
X95178845Y-115800499D01*
X95333497Y-115769737D01*
X95446166Y-115723067D01*
X95479172Y-115709397D01*
X95479172Y-115709396D01*
X95479179Y-115709394D01*
X95610289Y-115621789D01*
X95721789Y-115510289D01*
X95809394Y-115379179D01*
X95869737Y-115233497D01*
X95900500Y-115078842D01*
X95900500Y-115078840D01*
X95900637Y-115078152D01*
X95933021Y-115016241D01*
X95934516Y-115014719D01*
X95980520Y-114968716D01*
X96059577Y-114831784D01*
X96100500Y-114679057D01*
X96100500Y-113621153D01*
X99699500Y-113621153D01*
X99699500Y-113778846D01*
X99730261Y-113933489D01*
X99730264Y-113933501D01*
X99790602Y-114079172D01*
X99790609Y-114079185D01*
X99878602Y-114210874D01*
X99884252Y-114228920D01*
X99894477Y-114244830D01*
X99898928Y-114275789D01*
X99899480Y-114277551D01*
X99899500Y-114279764D01*
X99899500Y-114320234D01*
X99879815Y-114387273D01*
X99878602Y-114389125D01*
X99790609Y-114520814D01*
X99790602Y-114520827D01*
X99730264Y-114666498D01*
X99730261Y-114666510D01*
X99699500Y-114821153D01*
X99699500Y-114978846D01*
X99730261Y-115133489D01*
X99730264Y-115133501D01*
X99790602Y-115279172D01*
X99790609Y-115279185D01*
X99878210Y-115410288D01*
X99878213Y-115410292D01*
X99989707Y-115521786D01*
X99989711Y-115521789D01*
X100120814Y-115609390D01*
X100120827Y-115609397D01*
X100220060Y-115650500D01*
X100266503Y-115669737D01*
X100421153Y-115700499D01*
X100421156Y-115700500D01*
X100421158Y-115700500D01*
X100578844Y-115700500D01*
X100578845Y-115700499D01*
X100733497Y-115669737D01*
X100879179Y-115609394D01*
X101010289Y-115521789D01*
X101010293Y-115521784D01*
X101014999Y-115517924D01*
X101015854Y-115518966D01*
X101071126Y-115488777D01*
X101140818Y-115493753D01*
X101196757Y-115535617D01*
X101221183Y-115601078D01*
X101221500Y-115609940D01*
X101221500Y-116309370D01*
X101221501Y-116309376D01*
X101227908Y-116368983D01*
X101278202Y-116503828D01*
X101278206Y-116503835D01*
X101364452Y-116619044D01*
X101364455Y-116619047D01*
X101479664Y-116705293D01*
X101479671Y-116705297D01*
X101614517Y-116755591D01*
X101614516Y-116755591D01*
X101621444Y-116756335D01*
X101674127Y-116762000D01*
X103127872Y-116761999D01*
X103187483Y-116755591D01*
X103322331Y-116705296D01*
X103437546Y-116619046D01*
X103523796Y-116503831D01*
X103574091Y-116368983D01*
X103580500Y-116309373D01*
X103580499Y-115995153D01*
X103600183Y-115928117D01*
X103652987Y-115882362D01*
X103722146Y-115872418D01*
X103785701Y-115901443D01*
X103822430Y-115956837D01*
X103847916Y-116035275D01*
X103932201Y-116200693D01*
X104041328Y-116350893D01*
X104172607Y-116482172D01*
X104322807Y-116591299D01*
X104488229Y-116675585D01*
X104664800Y-116732957D01*
X104733564Y-116743848D01*
X104848166Y-116762000D01*
X104848171Y-116762000D01*
X105033834Y-116762000D01*
X105135701Y-116745865D01*
X105217200Y-116732957D01*
X105393771Y-116675585D01*
X105559193Y-116591299D01*
X105709393Y-116482172D01*
X105840672Y-116350893D01*
X105949799Y-116200693D01*
X106034085Y-116035271D01*
X106091457Y-115858700D01*
X106091458Y-115858696D01*
X106092962Y-115854067D01*
X106095147Y-115854777D01*
X106125203Y-115802414D01*
X106187224Y-115770240D01*
X106256794Y-115776705D01*
X106311824Y-115819756D01*
X106327692Y-115854504D01*
X106329038Y-115854067D01*
X106330542Y-115858696D01*
X106330543Y-115858700D01*
X106387915Y-116035271D01*
X106472201Y-116200693D01*
X106581328Y-116350893D01*
X106712607Y-116482172D01*
X106862807Y-116591299D01*
X107028229Y-116675585D01*
X107204800Y-116732957D01*
X107273564Y-116743848D01*
X107388166Y-116762000D01*
X107388171Y-116762000D01*
X107573834Y-116762000D01*
X107675701Y-116745865D01*
X107757200Y-116732957D01*
X107933771Y-116675585D01*
X108099193Y-116591299D01*
X108249393Y-116482172D01*
X108380672Y-116350893D01*
X108489799Y-116200693D01*
X108574085Y-116035271D01*
X108631457Y-115858700D01*
X108631458Y-115858696D01*
X108632962Y-115854067D01*
X108635147Y-115854777D01*
X108665203Y-115802414D01*
X108727224Y-115770240D01*
X108796794Y-115776705D01*
X108851824Y-115819756D01*
X108867692Y-115854504D01*
X108869038Y-115854067D01*
X108870542Y-115858696D01*
X108870543Y-115858700D01*
X108927915Y-116035271D01*
X109012201Y-116200693D01*
X109121328Y-116350893D01*
X109252607Y-116482172D01*
X109402807Y-116591299D01*
X109568229Y-116675585D01*
X109744800Y-116732957D01*
X109813564Y-116743848D01*
X109928166Y-116762000D01*
X109928171Y-116762000D01*
X110113834Y-116762000D01*
X110215701Y-116745865D01*
X110297200Y-116732957D01*
X110473771Y-116675585D01*
X110639193Y-116591299D01*
X110789393Y-116482172D01*
X110920672Y-116350893D01*
X111029799Y-116200693D01*
X111114085Y-116035271D01*
X111171457Y-115858700D01*
X111171458Y-115858696D01*
X111172962Y-115854067D01*
X111175147Y-115854777D01*
X111205203Y-115802414D01*
X111267224Y-115770240D01*
X111336794Y-115776705D01*
X111391824Y-115819756D01*
X111407692Y-115854504D01*
X111409038Y-115854067D01*
X111410542Y-115858696D01*
X111410543Y-115858700D01*
X111467915Y-116035271D01*
X111552201Y-116200693D01*
X111661328Y-116350893D01*
X111792607Y-116482172D01*
X111942807Y-116591299D01*
X112108229Y-116675585D01*
X112284800Y-116732957D01*
X112353564Y-116743848D01*
X112468166Y-116762000D01*
X112468171Y-116762000D01*
X112653834Y-116762000D01*
X112755701Y-116745865D01*
X112837200Y-116732957D01*
X113013771Y-116675585D01*
X113179193Y-116591299D01*
X113329393Y-116482172D01*
X113460672Y-116350893D01*
X113569799Y-116200693D01*
X113654085Y-116035271D01*
X113711457Y-115858700D01*
X113711458Y-115858696D01*
X113712962Y-115854067D01*
X113715147Y-115854777D01*
X113745203Y-115802414D01*
X113807224Y-115770240D01*
X113876794Y-115776705D01*
X113931824Y-115819756D01*
X113947692Y-115854504D01*
X113949038Y-115854067D01*
X113950542Y-115858696D01*
X113950543Y-115858700D01*
X114007915Y-116035271D01*
X114092201Y-116200693D01*
X114201328Y-116350893D01*
X114332607Y-116482172D01*
X114482807Y-116591299D01*
X114648229Y-116675585D01*
X114824800Y-116732957D01*
X114893564Y-116743848D01*
X115008166Y-116762000D01*
X115008171Y-116762000D01*
X115193834Y-116762000D01*
X115295701Y-116745865D01*
X115377200Y-116732957D01*
X115553771Y-116675585D01*
X115719193Y-116591299D01*
X115869393Y-116482172D01*
X116000672Y-116350893D01*
X116109799Y-116200693D01*
X116194085Y-116035271D01*
X116251457Y-115858700D01*
X116251458Y-115858696D01*
X116252962Y-115854067D01*
X116255147Y-115854777D01*
X116285203Y-115802414D01*
X116347224Y-115770240D01*
X116416794Y-115776705D01*
X116471824Y-115819756D01*
X116487692Y-115854504D01*
X116489038Y-115854067D01*
X116490542Y-115858696D01*
X116490543Y-115858700D01*
X116547915Y-116035271D01*
X116632201Y-116200693D01*
X116741328Y-116350893D01*
X116872607Y-116482172D01*
X117022807Y-116591299D01*
X117188229Y-116675585D01*
X117364800Y-116732957D01*
X117433564Y-116743848D01*
X117548166Y-116762000D01*
X117548171Y-116762000D01*
X117733834Y-116762000D01*
X117835701Y-116745865D01*
X117917200Y-116732957D01*
X118093771Y-116675585D01*
X118259193Y-116591299D01*
X118409393Y-116482172D01*
X118540672Y-116350893D01*
X118649799Y-116200693D01*
X118734085Y-116035271D01*
X118791457Y-115858700D01*
X118805548Y-115769735D01*
X118820500Y-115675334D01*
X118820500Y-115489665D01*
X118797617Y-115345192D01*
X118791457Y-115306300D01*
X118734085Y-115129729D01*
X118649799Y-114964307D01*
X118540672Y-114814107D01*
X118409393Y-114682828D01*
X118259193Y-114573701D01*
X118186276Y-114536548D01*
X118093773Y-114489416D01*
X118093772Y-114489415D01*
X118093771Y-114489415D01*
X117917200Y-114432043D01*
X117917198Y-114432042D01*
X117917196Y-114432042D01*
X117733834Y-114403000D01*
X117733829Y-114403000D01*
X117548171Y-114403000D01*
X117548166Y-114403000D01*
X117364803Y-114432042D01*
X117188226Y-114489416D01*
X117022806Y-114573701D01*
X116944601Y-114630521D01*
X116872607Y-114682828D01*
X116872605Y-114682830D01*
X116872604Y-114682830D01*
X116741330Y-114814104D01*
X116741330Y-114814105D01*
X116741328Y-114814107D01*
X116705357Y-114863617D01*
X116632201Y-114964306D01*
X116547916Y-115129726D01*
X116547915Y-115129728D01*
X116547915Y-115129729D01*
X116494853Y-115293037D01*
X116489038Y-115310933D01*
X116486864Y-115310226D01*
X116456752Y-115362629D01*
X116394714Y-115394771D01*
X116325148Y-115388271D01*
X116270139Y-115345192D01*
X116254295Y-115310499D01*
X116252962Y-115310933D01*
X116251457Y-115306300D01*
X116194085Y-115129729D01*
X116109799Y-114964307D01*
X116000672Y-114814107D01*
X115869393Y-114682828D01*
X115719193Y-114573701D01*
X115646276Y-114536548D01*
X115553773Y-114489416D01*
X115553772Y-114489415D01*
X115553771Y-114489415D01*
X115377200Y-114432043D01*
X115377198Y-114432042D01*
X115377196Y-114432042D01*
X115193834Y-114403000D01*
X115193829Y-114403000D01*
X115008171Y-114403000D01*
X115008166Y-114403000D01*
X114865602Y-114425580D01*
X114796309Y-114416625D01*
X114758523Y-114390788D01*
X114136819Y-113769084D01*
X114103334Y-113707761D01*
X114100500Y-113681403D01*
X114100500Y-112471153D01*
X119699500Y-112471153D01*
X119699500Y-112628846D01*
X119730261Y-112783489D01*
X119730264Y-112783501D01*
X119790602Y-112929172D01*
X119790609Y-112929185D01*
X119878602Y-113060874D01*
X119899480Y-113127551D01*
X119899500Y-113129765D01*
X119899500Y-114063330D01*
X119899499Y-114063348D01*
X119899499Y-114229054D01*
X119899498Y-114229054D01*
X119940423Y-114381786D01*
X119940424Y-114381787D01*
X119956363Y-114409394D01*
X119991831Y-114470827D01*
X120019481Y-114518717D01*
X120138349Y-114637585D01*
X120138355Y-114637590D01*
X120365425Y-114864660D01*
X120398910Y-114925983D01*
X120399361Y-114928149D01*
X120430261Y-115083491D01*
X120430264Y-115083501D01*
X120490602Y-115229172D01*
X120490609Y-115229185D01*
X120578210Y-115360288D01*
X120578213Y-115360292D01*
X120689707Y-115471786D01*
X120689711Y-115471789D01*
X120820814Y-115559390D01*
X120820827Y-115559397D01*
X120966498Y-115619735D01*
X120966503Y-115619737D01*
X121121153Y-115650499D01*
X121121156Y-115650500D01*
X121121158Y-115650500D01*
X121278844Y-115650500D01*
X121278845Y-115650499D01*
X121433497Y-115619737D01*
X121579179Y-115559394D01*
X121710289Y-115471789D01*
X121821789Y-115360289D01*
X121909394Y-115229179D01*
X121969737Y-115083497D01*
X122000500Y-114928842D01*
X122000500Y-114771158D01*
X122000500Y-114771155D01*
X122000499Y-114771153D01*
X121992446Y-114730667D01*
X121969737Y-114616503D01*
X121943372Y-114552851D01*
X121909397Y-114470827D01*
X121909390Y-114470814D01*
X121821789Y-114339711D01*
X121821786Y-114339707D01*
X121710292Y-114228213D01*
X121710288Y-114228210D01*
X121579185Y-114140609D01*
X121579172Y-114140602D01*
X121433501Y-114080264D01*
X121433491Y-114080261D01*
X121278149Y-114049361D01*
X121261392Y-114040595D01*
X121242914Y-114036576D01*
X121217877Y-114017833D01*
X121216238Y-114016976D01*
X121214660Y-114015425D01*
X121136819Y-113937584D01*
X121103334Y-113876261D01*
X121100500Y-113849903D01*
X121100500Y-113129765D01*
X121120185Y-113062726D01*
X121121398Y-113060874D01*
X121133534Y-113042712D01*
X121209394Y-112929179D01*
X121269737Y-112783497D01*
X121300500Y-112628842D01*
X121300500Y-112471158D01*
X121300500Y-112471155D01*
X121300499Y-112471153D01*
X121286783Y-112402200D01*
X121269737Y-112316503D01*
X121247607Y-112263076D01*
X121209397Y-112170827D01*
X121209390Y-112170814D01*
X121121789Y-112039711D01*
X121121786Y-112039707D01*
X121010292Y-111928213D01*
X121010288Y-111928210D01*
X120879185Y-111840609D01*
X120879172Y-111840602D01*
X120733501Y-111780264D01*
X120733489Y-111780261D01*
X120578845Y-111749500D01*
X120578842Y-111749500D01*
X120421158Y-111749500D01*
X120421155Y-111749500D01*
X120266510Y-111780261D01*
X120266498Y-111780264D01*
X120120827Y-111840602D01*
X120120814Y-111840609D01*
X119989711Y-111928210D01*
X119989707Y-111928213D01*
X119878213Y-112039707D01*
X119878210Y-112039711D01*
X119790609Y-112170814D01*
X119790602Y-112170827D01*
X119730264Y-112316498D01*
X119730261Y-112316510D01*
X119699500Y-112471153D01*
X114100500Y-112471153D01*
X114100500Y-111199983D01*
X122154500Y-111199983D01*
X122154500Y-112500001D01*
X122154501Y-112500018D01*
X122165000Y-112602796D01*
X122165001Y-112602799D01*
X122220185Y-112769331D01*
X122220187Y-112769336D01*
X122226052Y-112778844D01*
X122312288Y-112918656D01*
X122436344Y-113042712D01*
X122585666Y-113134814D01*
X122752203Y-113189999D01*
X122854991Y-113200500D01*
X124455008Y-113200499D01*
X124557797Y-113189999D01*
X124724334Y-113134814D01*
X124873656Y-113042712D01*
X124997712Y-112918656D01*
X125089814Y-112769334D01*
X125144999Y-112602797D01*
X125155500Y-112500009D01*
X125155499Y-111199992D01*
X125144999Y-111097203D01*
X125089814Y-110930666D01*
X124997712Y-110781344D01*
X124873656Y-110657288D01*
X124724334Y-110565186D01*
X124724332Y-110565185D01*
X124718440Y-110561551D01*
X124671716Y-110509603D01*
X124660493Y-110440641D01*
X124688337Y-110376558D01*
X124695856Y-110368330D01*
X124834728Y-110229458D01*
X124959620Y-110057557D01*
X125056095Y-109868217D01*
X125121757Y-109666129D01*
X125121757Y-109666126D01*
X125132231Y-109600000D01*
X124088012Y-109600000D01*
X124120925Y-109542993D01*
X124155000Y-109415826D01*
X124155000Y-109284174D01*
X124120925Y-109157007D01*
X124088012Y-109100000D01*
X125132231Y-109100000D01*
X125121757Y-109033873D01*
X125121757Y-109033870D01*
X125056095Y-108831782D01*
X124959620Y-108642442D01*
X124834727Y-108470540D01*
X124834723Y-108470535D01*
X124684464Y-108320276D01*
X124684459Y-108320272D01*
X124512557Y-108195379D01*
X124323217Y-108098904D01*
X124121129Y-108033242D01*
X123911246Y-108000000D01*
X123905000Y-108000000D01*
X123905000Y-108916988D01*
X123847993Y-108884075D01*
X123720826Y-108850000D01*
X123589174Y-108850000D01*
X123462007Y-108884075D01*
X123405000Y-108916988D01*
X123405000Y-108000000D01*
X123398754Y-108000000D01*
X123188872Y-108033242D01*
X123188869Y-108033242D01*
X122986782Y-108098904D01*
X122797442Y-108195379D01*
X122625540Y-108320272D01*
X122625535Y-108320276D01*
X122475276Y-108470535D01*
X122475272Y-108470540D01*
X122350379Y-108642442D01*
X122253904Y-108831782D01*
X122188242Y-109033870D01*
X122188242Y-109033873D01*
X122177769Y-109100000D01*
X123221988Y-109100000D01*
X123189075Y-109157007D01*
X123155000Y-109284174D01*
X123155000Y-109415826D01*
X123189075Y-109542993D01*
X123221988Y-109600000D01*
X122177769Y-109600000D01*
X122188242Y-109666126D01*
X122188242Y-109666129D01*
X122253904Y-109868217D01*
X122350379Y-110057557D01*
X122475272Y-110229459D01*
X122475276Y-110229464D01*
X122614143Y-110368331D01*
X122647628Y-110429654D01*
X122642644Y-110499346D01*
X122600772Y-110555279D01*
X122591559Y-110561551D01*
X122436342Y-110657289D01*
X122312289Y-110781342D01*
X122220187Y-110930663D01*
X122220186Y-110930666D01*
X122165001Y-111097203D01*
X122165001Y-111097204D01*
X122165000Y-111097204D01*
X122154500Y-111199983D01*
X114100500Y-111199983D01*
X114100500Y-109692668D01*
X114100500Y-109692666D01*
X114081625Y-109622223D01*
X114059577Y-109539938D01*
X114046280Y-109516908D01*
X114028117Y-109485448D01*
X114028116Y-109485447D01*
X113980521Y-109403009D01*
X113980520Y-109403007D01*
X113868716Y-109291203D01*
X113868715Y-109291202D01*
X113864385Y-109286872D01*
X113864374Y-109286862D01*
X113502544Y-108925032D01*
X113469059Y-108863709D01*
X113474043Y-108794017D01*
X113475652Y-108789926D01*
X113519737Y-108683497D01*
X113550500Y-108528842D01*
X113550500Y-108371158D01*
X113550500Y-108371155D01*
X113550499Y-108371153D01*
X113521647Y-108226106D01*
X113519737Y-108216503D01*
X113510987Y-108195379D01*
X113459397Y-108070827D01*
X113459390Y-108070814D01*
X113371789Y-107939711D01*
X113371786Y-107939707D01*
X113260292Y-107828213D01*
X113260288Y-107828210D01*
X113129185Y-107740609D01*
X113129172Y-107740602D01*
X112983501Y-107680264D01*
X112983489Y-107680261D01*
X112828845Y-107649500D01*
X112828842Y-107649500D01*
X112671158Y-107649500D01*
X112671155Y-107649500D01*
X112516511Y-107680260D01*
X112516495Y-107680265D01*
X112514053Y-107681277D01*
X112512673Y-107681425D01*
X112510680Y-107682030D01*
X112510565Y-107681651D01*
X112444583Y-107688738D01*
X112397722Y-107669813D01*
X112279185Y-107590609D01*
X112279172Y-107590602D01*
X112133501Y-107530264D01*
X112133489Y-107530261D01*
X111978845Y-107499500D01*
X111978842Y-107499500D01*
X111821158Y-107499500D01*
X111821155Y-107499500D01*
X111666510Y-107530261D01*
X111666498Y-107530264D01*
X111520827Y-107590602D01*
X111520814Y-107590609D01*
X111389711Y-107678210D01*
X111389707Y-107678213D01*
X111278213Y-107789707D01*
X111278210Y-107789711D01*
X111190609Y-107920814D01*
X111190602Y-107920827D01*
X111130264Y-108066498D01*
X111130261Y-108066510D01*
X111099500Y-108221153D01*
X111099500Y-108378846D01*
X111130261Y-108533489D01*
X111130264Y-108533501D01*
X111190602Y-108679172D01*
X111190609Y-108679185D01*
X111278210Y-108810288D01*
X111278213Y-108810292D01*
X111281535Y-108813614D01*
X111287517Y-108822978D01*
X111293524Y-108827526D01*
X111303088Y-108847352D01*
X111310270Y-108858594D01*
X111312189Y-108863827D01*
X111340423Y-108969194D01*
X111363633Y-109009394D01*
X111368978Y-109018653D01*
X111368979Y-109018654D01*
X111419479Y-109106123D01*
X111419481Y-109106126D01*
X111538349Y-109224994D01*
X111538355Y-109224999D01*
X112463181Y-110149825D01*
X112496666Y-110211148D01*
X112499500Y-110237506D01*
X112499500Y-114292131D01*
X112479815Y-114359170D01*
X112427011Y-114404925D01*
X112394899Y-114414604D01*
X112284802Y-114432042D01*
X112108226Y-114489416D01*
X111942806Y-114573701D01*
X111864601Y-114630521D01*
X111792607Y-114682828D01*
X111792605Y-114682830D01*
X111792604Y-114682830D01*
X111661330Y-114814104D01*
X111661330Y-114814105D01*
X111661328Y-114814107D01*
X111625357Y-114863617D01*
X111552201Y-114964306D01*
X111467916Y-115129726D01*
X111467915Y-115129728D01*
X111467915Y-115129729D01*
X111414853Y-115293037D01*
X111409038Y-115310933D01*
X111406864Y-115310226D01*
X111376752Y-115362629D01*
X111314714Y-115394771D01*
X111245148Y-115388271D01*
X111190139Y-115345192D01*
X111174295Y-115310499D01*
X111172962Y-115310933D01*
X111171457Y-115306300D01*
X111114085Y-115129729D01*
X111029799Y-114964307D01*
X110920672Y-114814107D01*
X110789393Y-114682828D01*
X110639193Y-114573701D01*
X110566276Y-114536548D01*
X110473773Y-114489416D01*
X110473772Y-114489415D01*
X110473771Y-114489415D01*
X110297200Y-114432043D01*
X110297198Y-114432042D01*
X110297196Y-114432042D01*
X110113834Y-114403000D01*
X110113829Y-114403000D01*
X109928171Y-114403000D01*
X109928166Y-114403000D01*
X109744803Y-114432042D01*
X109568226Y-114489416D01*
X109402806Y-114573701D01*
X109324601Y-114630521D01*
X109252607Y-114682828D01*
X109252605Y-114682830D01*
X109252604Y-114682830D01*
X109121330Y-114814104D01*
X109121330Y-114814105D01*
X109121328Y-114814107D01*
X109085357Y-114863617D01*
X109012201Y-114964306D01*
X108927916Y-115129726D01*
X108927915Y-115129728D01*
X108927915Y-115129729D01*
X108874853Y-115293037D01*
X108869038Y-115310933D01*
X108866864Y-115310226D01*
X108836752Y-115362629D01*
X108774714Y-115394771D01*
X108705148Y-115388271D01*
X108650139Y-115345192D01*
X108634295Y-115310499D01*
X108632962Y-115310933D01*
X108631457Y-115306300D01*
X108574085Y-115129729D01*
X108489799Y-114964307D01*
X108380672Y-114814107D01*
X108249393Y-114682828D01*
X108099193Y-114573701D01*
X108026276Y-114536548D01*
X107933773Y-114489416D01*
X107933772Y-114489415D01*
X107933771Y-114489415D01*
X107757200Y-114432043D01*
X107757198Y-114432042D01*
X107757196Y-114432042D01*
X107573834Y-114403000D01*
X107573829Y-114403000D01*
X107388171Y-114403000D01*
X107388166Y-114403000D01*
X107204803Y-114432042D01*
X107028226Y-114489416D01*
X106862806Y-114573701D01*
X106784601Y-114630521D01*
X106712607Y-114682828D01*
X106712605Y-114682830D01*
X106712604Y-114682830D01*
X106581330Y-114814104D01*
X106581330Y-114814105D01*
X106581328Y-114814107D01*
X106545357Y-114863617D01*
X106472201Y-114964306D01*
X106387916Y-115129726D01*
X106387915Y-115129728D01*
X106387915Y-115129729D01*
X106334853Y-115293037D01*
X106329038Y-115310933D01*
X106326864Y-115310226D01*
X106296752Y-115362629D01*
X106234714Y-115394771D01*
X106165148Y-115388271D01*
X106110139Y-115345192D01*
X106094295Y-115310499D01*
X106092962Y-115310933D01*
X106091457Y-115306300D01*
X106034085Y-115129729D01*
X105949799Y-114964307D01*
X105840672Y-114814107D01*
X105709393Y-114682828D01*
X105559193Y-114573701D01*
X105486276Y-114536548D01*
X105393773Y-114489416D01*
X105393772Y-114489415D01*
X105393771Y-114489415D01*
X105217200Y-114432043D01*
X105217198Y-114432042D01*
X105217196Y-114432042D01*
X105033834Y-114403000D01*
X105033829Y-114403000D01*
X104848171Y-114403000D01*
X104848166Y-114403000D01*
X104664803Y-114432042D01*
X104488226Y-114489416D01*
X104322806Y-114573701D01*
X104244601Y-114630521D01*
X104172607Y-114682828D01*
X104172605Y-114682830D01*
X104172604Y-114682830D01*
X104041330Y-114814104D01*
X104041330Y-114814105D01*
X104041328Y-114814107D01*
X104005357Y-114863617D01*
X103932201Y-114964306D01*
X103847916Y-115129724D01*
X103846689Y-115133501D01*
X103823531Y-115204776D01*
X103822430Y-115208164D01*
X103782992Y-115265839D01*
X103718633Y-115293037D01*
X103649787Y-115281122D01*
X103598311Y-115233878D01*
X103580499Y-115169845D01*
X103580499Y-114855629D01*
X103580498Y-114855623D01*
X103578864Y-114840423D01*
X103574091Y-114796017D01*
X103571745Y-114789728D01*
X103523797Y-114661171D01*
X103523793Y-114661164D01*
X103437547Y-114545955D01*
X103437544Y-114545952D01*
X103322335Y-114459706D01*
X103322328Y-114459702D01*
X103187482Y-114409408D01*
X103187483Y-114409408D01*
X103127883Y-114403001D01*
X103127881Y-114403000D01*
X103127873Y-114403000D01*
X103127864Y-114403000D01*
X101674129Y-114403000D01*
X101674123Y-114403001D01*
X101614516Y-114409408D01*
X101479671Y-114459702D01*
X101479669Y-114459703D01*
X101400839Y-114518716D01*
X101382523Y-114532428D01*
X101377019Y-114536548D01*
X101365426Y-114540871D01*
X101356224Y-114549138D01*
X101333308Y-114552851D01*
X101311555Y-114560965D01*
X101299465Y-114558335D01*
X101287254Y-114560314D01*
X101265969Y-114551049D01*
X101243282Y-114546114D01*
X101232972Y-114536685D01*
X101223191Y-114532428D01*
X101199606Y-114506172D01*
X101121398Y-114389125D01*
X101100520Y-114322447D01*
X101100500Y-114320234D01*
X101100500Y-114279765D01*
X101120185Y-114212726D01*
X101121398Y-114210874D01*
X101209390Y-114079185D01*
X101209390Y-114079184D01*
X101209394Y-114079179D01*
X101212806Y-114070943D01*
X101235159Y-114016976D01*
X101269737Y-113933497D01*
X101300500Y-113778842D01*
X101300500Y-113621158D01*
X101300500Y-113621155D01*
X101300499Y-113621153D01*
X101284103Y-113538724D01*
X101269737Y-113466503D01*
X101269735Y-113466498D01*
X101209397Y-113320827D01*
X101209390Y-113320814D01*
X101121789Y-113189711D01*
X101121786Y-113189707D01*
X101057065Y-113124986D01*
X103175001Y-113124986D01*
X103185494Y-113227697D01*
X103240641Y-113394119D01*
X103240643Y-113394124D01*
X103332684Y-113543345D01*
X103456654Y-113667315D01*
X103605875Y-113759356D01*
X103605880Y-113759358D01*
X103772302Y-113814505D01*
X103772309Y-113814506D01*
X103875019Y-113824999D01*
X104012499Y-113824999D01*
X104012500Y-113824998D01*
X104012500Y-112850000D01*
X103175001Y-112850000D01*
X103175001Y-113124986D01*
X101057065Y-113124986D01*
X101010292Y-113078213D01*
X101010288Y-113078210D01*
X100879185Y-112990609D01*
X100879172Y-112990602D01*
X100733501Y-112930264D01*
X100733491Y-112930261D01*
X100683186Y-112920255D01*
X100683185Y-112920254D01*
X100578845Y-112899500D01*
X100578842Y-112899500D01*
X100421158Y-112899500D01*
X100421155Y-112899500D01*
X100266510Y-112930261D01*
X100266498Y-112930264D01*
X100120827Y-112990602D01*
X100120814Y-112990609D01*
X99989711Y-113078210D01*
X99989707Y-113078213D01*
X99878213Y-113189707D01*
X99878210Y-113189711D01*
X99790609Y-113320814D01*
X99790602Y-113320827D01*
X99730264Y-113466498D01*
X99730261Y-113466510D01*
X99699500Y-113621153D01*
X96100500Y-113621153D01*
X96100500Y-113279765D01*
X96120185Y-113212726D01*
X96121398Y-113210874D01*
X96209390Y-113079185D01*
X96209390Y-113079184D01*
X96209394Y-113079179D01*
X96269737Y-112933497D01*
X96300500Y-112778842D01*
X96300500Y-112621158D01*
X96300500Y-112621155D01*
X96300499Y-112621153D01*
X96296848Y-112602797D01*
X96269737Y-112466503D01*
X96269735Y-112466498D01*
X96209397Y-112320827D01*
X96209390Y-112320814D01*
X96121789Y-112189711D01*
X96121786Y-112189707D01*
X96010292Y-112078213D01*
X96010288Y-112078210D01*
X96005503Y-112075013D01*
X103175000Y-112075013D01*
X103175000Y-112350000D01*
X104012500Y-112350000D01*
X104012500Y-111375000D01*
X103875027Y-111375000D01*
X103875012Y-111375001D01*
X103772302Y-111385494D01*
X103605880Y-111440641D01*
X103605875Y-111440643D01*
X103456654Y-111532684D01*
X103332684Y-111656654D01*
X103240643Y-111805875D01*
X103240641Y-111805880D01*
X103185494Y-111972302D01*
X103185493Y-111972309D01*
X103175000Y-112075013D01*
X96005503Y-112075013D01*
X95879185Y-111990609D01*
X95879172Y-111990602D01*
X95733501Y-111930264D01*
X95733489Y-111930261D01*
X95578845Y-111899500D01*
X95578842Y-111899500D01*
X95421158Y-111899500D01*
X95421155Y-111899500D01*
X95266510Y-111930261D01*
X95266498Y-111930264D01*
X95120827Y-111990602D01*
X95120814Y-111990609D01*
X94989711Y-112078210D01*
X94989707Y-112078213D01*
X94878213Y-112189707D01*
X94878210Y-112189711D01*
X94790609Y-112320814D01*
X94790602Y-112320827D01*
X94730264Y-112466498D01*
X94730261Y-112466510D01*
X94699500Y-112621153D01*
X94699500Y-112778846D01*
X94730261Y-112933489D01*
X94730264Y-112933501D01*
X94790602Y-113079172D01*
X94790609Y-113079185D01*
X94878602Y-113210874D01*
X94899480Y-113277551D01*
X94899500Y-113279765D01*
X94899500Y-114133740D01*
X94879815Y-114200779D01*
X94827011Y-114246534D01*
X94822953Y-114248301D01*
X94720824Y-114290604D01*
X94720814Y-114290609D01*
X94589711Y-114378210D01*
X94589707Y-114378213D01*
X94478213Y-114489707D01*
X94478210Y-114489711D01*
X94390609Y-114620814D01*
X94390602Y-114620827D01*
X94330264Y-114766498D01*
X94330261Y-114766510D01*
X94299500Y-114921153D01*
X84870389Y-114921153D01*
X84868716Y-114919480D01*
X84868714Y-114919479D01*
X84868709Y-114919475D01*
X84775135Y-114865450D01*
X84775118Y-114865441D01*
X84771958Y-114863617D01*
X84731785Y-114840423D01*
X84717667Y-114836640D01*
X84706381Y-114830982D01*
X84689683Y-114815416D01*
X84670196Y-114803537D01*
X84662126Y-114789728D01*
X84655273Y-114783340D01*
X84652864Y-114773880D01*
X84644247Y-114759134D01*
X84634814Y-114730666D01*
X84542712Y-114581344D01*
X84449049Y-114487681D01*
X84415564Y-114426358D01*
X84420548Y-114356666D01*
X84449049Y-114312319D01*
X84485579Y-114275789D01*
X84542712Y-114218656D01*
X84634814Y-114069334D01*
X84644247Y-114040864D01*
X84684016Y-113983421D01*
X84705567Y-113969429D01*
X84717218Y-113963479D01*
X84731785Y-113959577D01*
X84781904Y-113930639D01*
X84868716Y-113880520D01*
X84980520Y-113768716D01*
X84980520Y-113768714D01*
X84990728Y-113758507D01*
X84990730Y-113758504D01*
X85356757Y-113392476D01*
X85418078Y-113358993D01*
X85482753Y-113362227D01*
X85636924Y-113412321D01*
X85877973Y-113450500D01*
X85877974Y-113450500D01*
X86122026Y-113450500D01*
X86122027Y-113450500D01*
X86363076Y-113412321D01*
X86595185Y-113336904D01*
X86812639Y-113226106D01*
X87010083Y-113082655D01*
X87182655Y-112910083D01*
X87326106Y-112712639D01*
X87436904Y-112495185D01*
X87512321Y-112263076D01*
X87550500Y-112022027D01*
X87550500Y-111777973D01*
X87512321Y-111536924D01*
X87436904Y-111304815D01*
X87326106Y-111087361D01*
X87307779Y-111062136D01*
X87182660Y-110889923D01*
X87182656Y-110889918D01*
X87010081Y-110717343D01*
X87010076Y-110717339D01*
X86812642Y-110573896D01*
X86812641Y-110573895D01*
X86812639Y-110573894D01*
X86595185Y-110463096D01*
X86363076Y-110387679D01*
X86363074Y-110387678D01*
X86363072Y-110387678D01*
X86194769Y-110361021D01*
X86122027Y-110349500D01*
X85877973Y-110349500D01*
X85822093Y-110358350D01*
X85636927Y-110387678D01*
X85404812Y-110463097D01*
X85187357Y-110573896D01*
X84989923Y-110717339D01*
X84989918Y-110717343D01*
X84817343Y-110889918D01*
X84817339Y-110889923D01*
X84673896Y-111087357D01*
X84563097Y-111304812D01*
X84487678Y-111536927D01*
X84449500Y-111777973D01*
X84449500Y-112022026D01*
X84487003Y-112258815D01*
X84478048Y-112328109D01*
X84433052Y-112381561D01*
X84366300Y-112402200D01*
X84299433Y-112383751D01*
X84269342Y-112365190D01*
X84269336Y-112365187D01*
X84269334Y-112365186D01*
X84102797Y-112310001D01*
X84102795Y-112310000D01*
X84000010Y-112299500D01*
X82999998Y-112299500D01*
X82999980Y-112299501D01*
X82897203Y-112310000D01*
X82897200Y-112310001D01*
X82730668Y-112365185D01*
X82730663Y-112365187D01*
X82581342Y-112457289D01*
X82457289Y-112581342D01*
X82365187Y-112730663D01*
X82365185Y-112730668D01*
X82347678Y-112783501D01*
X82310001Y-112897203D01*
X82310001Y-112897204D01*
X82310000Y-112897204D01*
X82299500Y-112999983D01*
X81600500Y-112999983D01*
X81600500Y-106777973D01*
X84449500Y-106777973D01*
X84449500Y-107022026D01*
X84481039Y-107221158D01*
X84487679Y-107263076D01*
X84563096Y-107495185D01*
X84672942Y-107710771D01*
X84673896Y-107712642D01*
X84817339Y-107910076D01*
X84817343Y-107910081D01*
X84989918Y-108082656D01*
X84989923Y-108082660D01*
X85145069Y-108195379D01*
X85187361Y-108226106D01*
X85404815Y-108336904D01*
X85636924Y-108412321D01*
X85877973Y-108450500D01*
X85877974Y-108450500D01*
X86122026Y-108450500D01*
X86122027Y-108450500D01*
X86363076Y-108412321D01*
X86595185Y-108336904D01*
X86812639Y-108226106D01*
X87010083Y-108082655D01*
X87182655Y-107910083D01*
X87326106Y-107712639D01*
X87436904Y-107495185D01*
X87512321Y-107263076D01*
X87550500Y-107022027D01*
X87550500Y-106777973D01*
X87512321Y-106536924D01*
X87436904Y-106304815D01*
X87326106Y-106087361D01*
X87205353Y-105921158D01*
X87182660Y-105889923D01*
X87182656Y-105889918D01*
X87013891Y-105721153D01*
X93799500Y-105721153D01*
X93799500Y-105878846D01*
X93830261Y-106033489D01*
X93830264Y-106033501D01*
X93890602Y-106179172D01*
X93890609Y-106179185D01*
X93978210Y-106310288D01*
X93978213Y-106310292D01*
X94089707Y-106421786D01*
X94089711Y-106421789D01*
X94220814Y-106509390D01*
X94220827Y-106509397D01*
X94358290Y-106566335D01*
X94366503Y-106569737D01*
X94521153Y-106600499D01*
X94521156Y-106600500D01*
X94521158Y-106600500D01*
X94678844Y-106600500D01*
X94678845Y-106600499D01*
X94833497Y-106569737D01*
X94979179Y-106509394D01*
X95001867Y-106494233D01*
X95068545Y-106473355D01*
X95135925Y-106491838D01*
X95176298Y-106532238D01*
X95257288Y-106663544D01*
X95381344Y-106787600D01*
X95530666Y-106879702D01*
X95697203Y-106934887D01*
X95799991Y-106945388D01*
X97000008Y-106945387D01*
X97102797Y-106934887D01*
X97269334Y-106879702D01*
X97418656Y-106787600D01*
X97542712Y-106663544D01*
X97634814Y-106514222D01*
X97689999Y-106347685D01*
X97700500Y-106244897D01*
X97700499Y-105921153D01*
X98899500Y-105921153D01*
X98899500Y-106078846D01*
X98930261Y-106233489D01*
X98930264Y-106233501D01*
X98990602Y-106379172D01*
X98990609Y-106379185D01*
X99078602Y-106510874D01*
X99084252Y-106528920D01*
X99094477Y-106544830D01*
X99098928Y-106575789D01*
X99099480Y-106577551D01*
X99099500Y-106579765D01*
X99099500Y-106720234D01*
X99079815Y-106787273D01*
X99078602Y-106789125D01*
X98990609Y-106920814D01*
X98990602Y-106920827D01*
X98930264Y-107066498D01*
X98930261Y-107066510D01*
X98899500Y-107221153D01*
X98899500Y-107378846D01*
X98930261Y-107533489D01*
X98930264Y-107533501D01*
X98990602Y-107679172D01*
X98990609Y-107679185D01*
X99078210Y-107810288D01*
X99078213Y-107810292D01*
X99189707Y-107921786D01*
X99189711Y-107921789D01*
X99320814Y-108009390D01*
X99320827Y-108009397D01*
X99458683Y-108066498D01*
X99466503Y-108069737D01*
X99621123Y-108100493D01*
X99621153Y-108100499D01*
X99621156Y-108100500D01*
X99621158Y-108100500D01*
X99778844Y-108100500D01*
X99778845Y-108100499D01*
X99933497Y-108069737D01*
X100052548Y-108020425D01*
X100122017Y-108012956D01*
X100147452Y-108020425D01*
X100258683Y-108066498D01*
X100266503Y-108069737D01*
X100421123Y-108100493D01*
X100421153Y-108100499D01*
X100421156Y-108100500D01*
X100421158Y-108100500D01*
X100578844Y-108100500D01*
X100578845Y-108100499D01*
X100733497Y-108069737D01*
X100879179Y-108009394D01*
X101010289Y-107921789D01*
X101121789Y-107810289D01*
X101209394Y-107679179D01*
X101213274Y-107669813D01*
X101236067Y-107614783D01*
X101269737Y-107533497D01*
X101300500Y-107378842D01*
X101300500Y-107221158D01*
X101300500Y-107221155D01*
X101300499Y-107221153D01*
X101269738Y-107066510D01*
X101269737Y-107066503D01*
X101219570Y-106945388D01*
X101209397Y-106920827D01*
X101209390Y-106920814D01*
X101121398Y-106789125D01*
X101100520Y-106722447D01*
X101100500Y-106720234D01*
X101100500Y-105474653D01*
X101120185Y-105407614D01*
X101121398Y-105405762D01*
X101209390Y-105274073D01*
X101209390Y-105274072D01*
X101209394Y-105274067D01*
X101211459Y-105269083D01*
X101240280Y-105199500D01*
X101269737Y-105128385D01*
X101300500Y-104973730D01*
X101300500Y-104816046D01*
X101300500Y-104816043D01*
X101300499Y-104816041D01*
X101292446Y-104775556D01*
X101269737Y-104661391D01*
X101269735Y-104661386D01*
X101209397Y-104515715D01*
X101209390Y-104515702D01*
X101121789Y-104384599D01*
X101121786Y-104384595D01*
X101010292Y-104273101D01*
X101010288Y-104273098D01*
X100879185Y-104185497D01*
X100879172Y-104185490D01*
X100733501Y-104125152D01*
X100733489Y-104125149D01*
X100578845Y-104094388D01*
X100578842Y-104094388D01*
X100421158Y-104094388D01*
X100421155Y-104094388D01*
X100266510Y-104125149D01*
X100266498Y-104125152D01*
X100120827Y-104185490D01*
X100120814Y-104185497D01*
X99989711Y-104273098D01*
X99989707Y-104273101D01*
X99878213Y-104384595D01*
X99878210Y-104384599D01*
X99790609Y-104515702D01*
X99790602Y-104515715D01*
X99730264Y-104661386D01*
X99730261Y-104661398D01*
X99699500Y-104816041D01*
X99699500Y-104816046D01*
X99699500Y-104973730D01*
X99699501Y-104973734D01*
X99715526Y-105054299D01*
X99709298Y-105123891D01*
X99666434Y-105179068D01*
X99618100Y-105200107D01*
X99466508Y-105230261D01*
X99466498Y-105230264D01*
X99320827Y-105290602D01*
X99320814Y-105290609D01*
X99189711Y-105378210D01*
X99189707Y-105378213D01*
X99078213Y-105489707D01*
X99078210Y-105489711D01*
X98990609Y-105620814D01*
X98990602Y-105620827D01*
X98930264Y-105766498D01*
X98930261Y-105766510D01*
X98899500Y-105921153D01*
X97700499Y-105921153D01*
X97700499Y-105620827D01*
X97700499Y-105044886D01*
X97700498Y-105044869D01*
X97689999Y-104942091D01*
X97689998Y-104942088D01*
X97671899Y-104887470D01*
X97634814Y-104775554D01*
X97542712Y-104626232D01*
X97473488Y-104557008D01*
X97440003Y-104495685D01*
X97444987Y-104425993D01*
X97460852Y-104396440D01*
X97511858Y-104326237D01*
X97511863Y-104326229D01*
X97604755Y-104143919D01*
X97667990Y-103949305D01*
X97687681Y-103824986D01*
X103175001Y-103824986D01*
X103185494Y-103927697D01*
X103240641Y-104094119D01*
X103240643Y-104094124D01*
X103332684Y-104243345D01*
X103456654Y-104367315D01*
X103605875Y-104459356D01*
X103605880Y-104459358D01*
X103772302Y-104514505D01*
X103772309Y-104514506D01*
X103875019Y-104524999D01*
X104012499Y-104524999D01*
X104012500Y-104524998D01*
X104012500Y-103550000D01*
X103175001Y-103550000D01*
X103175001Y-103824986D01*
X97687681Y-103824986D01*
X97700000Y-103747205D01*
X97700000Y-103542570D01*
X97667990Y-103340470D01*
X97604755Y-103145856D01*
X97511859Y-102963538D01*
X97483849Y-102924986D01*
X97975001Y-102924986D01*
X97985494Y-103027697D01*
X98040641Y-103194119D01*
X98040643Y-103194124D01*
X98132684Y-103343345D01*
X98256654Y-103467315D01*
X98405875Y-103559356D01*
X98405880Y-103559358D01*
X98572302Y-103614505D01*
X98572309Y-103614506D01*
X98675019Y-103624999D01*
X98812499Y-103624999D01*
X98812500Y-103624998D01*
X98812500Y-102650000D01*
X97975001Y-102650000D01*
X97975001Y-102924986D01*
X97483849Y-102924986D01*
X97479474Y-102918965D01*
X97479474Y-102918964D01*
X96800000Y-103598439D01*
X96800000Y-103592227D01*
X96772741Y-103490494D01*
X96720080Y-103399282D01*
X96645606Y-103324808D01*
X96554394Y-103272147D01*
X96452661Y-103244888D01*
X96446446Y-103244888D01*
X97125922Y-102565412D01*
X97125922Y-102565411D01*
X97081359Y-102533035D01*
X97081350Y-102533029D01*
X96899031Y-102440132D01*
X96704417Y-102376897D01*
X96502317Y-102344888D01*
X96297683Y-102344888D01*
X96095582Y-102376897D01*
X95900968Y-102440132D01*
X95718644Y-102533031D01*
X95674077Y-102565411D01*
X95674077Y-102565412D01*
X96353554Y-103244888D01*
X96347339Y-103244888D01*
X96245606Y-103272147D01*
X96154394Y-103324808D01*
X96079920Y-103399282D01*
X96027259Y-103490494D01*
X96000000Y-103592227D01*
X96000000Y-103598441D01*
X95320524Y-102918965D01*
X95320523Y-102918965D01*
X95288143Y-102963532D01*
X95195244Y-103145856D01*
X95132009Y-103340470D01*
X95100000Y-103542570D01*
X95100000Y-103747205D01*
X95132009Y-103949305D01*
X95195244Y-104143919D01*
X95288142Y-104326240D01*
X95339147Y-104396443D01*
X95362627Y-104462249D01*
X95346802Y-104530303D01*
X95326511Y-104557009D01*
X95257287Y-104626233D01*
X95165187Y-104775551D01*
X95165186Y-104775554D01*
X95110001Y-104942091D01*
X95110001Y-104942092D01*
X95110000Y-104942092D01*
X95107061Y-104970867D01*
X95080664Y-105035558D01*
X95023483Y-105075709D01*
X94953672Y-105078572D01*
X94936251Y-105072824D01*
X94833501Y-105030264D01*
X94833489Y-105030261D01*
X94678845Y-104999500D01*
X94678842Y-104999500D01*
X94521158Y-104999500D01*
X94521155Y-104999500D01*
X94366510Y-105030261D01*
X94366498Y-105030264D01*
X94220827Y-105090602D01*
X94220814Y-105090609D01*
X94089711Y-105178210D01*
X94089707Y-105178213D01*
X93978213Y-105289707D01*
X93978210Y-105289711D01*
X93890609Y-105420814D01*
X93890602Y-105420827D01*
X93830264Y-105566498D01*
X93830261Y-105566510D01*
X93799500Y-105721153D01*
X87013891Y-105721153D01*
X87010081Y-105717343D01*
X87010076Y-105717339D01*
X86812642Y-105573896D01*
X86812641Y-105573895D01*
X86812639Y-105573894D01*
X86595185Y-105463096D01*
X86363076Y-105387679D01*
X86363074Y-105387678D01*
X86363072Y-105387678D01*
X86194769Y-105361021D01*
X86122027Y-105349500D01*
X85877973Y-105349500D01*
X85822093Y-105358350D01*
X85636927Y-105387678D01*
X85404812Y-105463097D01*
X85187357Y-105573896D01*
X84989923Y-105717339D01*
X84989918Y-105717343D01*
X84817343Y-105889918D01*
X84817339Y-105889923D01*
X84673896Y-106087357D01*
X84563097Y-106304812D01*
X84487678Y-106536927D01*
X84449500Y-106777973D01*
X81600500Y-106777973D01*
X81600500Y-100802155D01*
X84450000Y-100802155D01*
X84450000Y-101650000D01*
X85345879Y-101650000D01*
X85326901Y-101695818D01*
X85300000Y-101831056D01*
X85300000Y-101968944D01*
X85326901Y-102104182D01*
X85345879Y-102150000D01*
X84450000Y-102150000D01*
X84450000Y-102997844D01*
X84456401Y-103057372D01*
X84456403Y-103057379D01*
X84506645Y-103192086D01*
X84506649Y-103192093D01*
X84592809Y-103307187D01*
X84592812Y-103307190D01*
X84707906Y-103393350D01*
X84707913Y-103393354D01*
X84842620Y-103443596D01*
X84842627Y-103443598D01*
X84902155Y-103449999D01*
X84902172Y-103450000D01*
X85750000Y-103450000D01*
X85750000Y-102554120D01*
X85795818Y-102573099D01*
X85931056Y-102600000D01*
X86068944Y-102600000D01*
X86204182Y-102573099D01*
X86250000Y-102554120D01*
X86250000Y-103450000D01*
X87097828Y-103450000D01*
X87097844Y-103449999D01*
X87157372Y-103443598D01*
X87157379Y-103443596D01*
X87292086Y-103393354D01*
X87292093Y-103393350D01*
X87407187Y-103307190D01*
X87407190Y-103307187D01*
X87493350Y-103192093D01*
X87493354Y-103192086D01*
X87543596Y-103057379D01*
X87543598Y-103057372D01*
X87549999Y-102997844D01*
X87550000Y-102997827D01*
X87550000Y-102150000D01*
X86654121Y-102150000D01*
X86673099Y-102104182D01*
X86700000Y-101968944D01*
X86700000Y-101875013D01*
X97975000Y-101875013D01*
X97975000Y-102150000D01*
X98938500Y-102150000D01*
X99005539Y-102169685D01*
X99051294Y-102222489D01*
X99062500Y-102274000D01*
X99062500Y-102400000D01*
X99188500Y-102400000D01*
X99255539Y-102419685D01*
X99301294Y-102472489D01*
X99312500Y-102524000D01*
X99312500Y-103624999D01*
X99449972Y-103624999D01*
X99449986Y-103624998D01*
X99552697Y-103614505D01*
X99719119Y-103559358D01*
X99719124Y-103559356D01*
X99868345Y-103467315D01*
X99992318Y-103343342D01*
X99994165Y-103340348D01*
X99995969Y-103338724D01*
X99996798Y-103337677D01*
X99996976Y-103337818D01*
X100046110Y-103293621D01*
X100115073Y-103282396D01*
X100179156Y-103310236D01*
X100205243Y-103340341D01*
X100207288Y-103343656D01*
X100331344Y-103467712D01*
X100480666Y-103559814D01*
X100647203Y-103614999D01*
X100749991Y-103625500D01*
X101525008Y-103625499D01*
X101525016Y-103625498D01*
X101525019Y-103625498D01*
X101581302Y-103619748D01*
X101627797Y-103614999D01*
X101794334Y-103559814D01*
X101943656Y-103467712D01*
X102067712Y-103343656D01*
X102159814Y-103194334D01*
X102214999Y-103027797D01*
X102225500Y-102925009D01*
X102225500Y-102775013D01*
X103175000Y-102775013D01*
X103175000Y-103050000D01*
X104012500Y-103050000D01*
X104012500Y-102075000D01*
X104512500Y-102075000D01*
X104512500Y-104524999D01*
X104649972Y-104524999D01*
X104649986Y-104524998D01*
X104723895Y-104517448D01*
X104792588Y-104530218D01*
X104843472Y-104578098D01*
X104860393Y-104645888D01*
X104839571Y-104707356D01*
X104840522Y-104707939D01*
X104837980Y-104712086D01*
X104748617Y-104887470D01*
X104687790Y-105074673D01*
X104657000Y-105269077D01*
X104657000Y-105465922D01*
X104687790Y-105660326D01*
X104748617Y-105847529D01*
X104837976Y-106022905D01*
X104953672Y-106182146D01*
X105092854Y-106321328D01*
X105172469Y-106379172D01*
X105252096Y-106437025D01*
X105429263Y-106527295D01*
X105480060Y-106575269D01*
X105496855Y-106643090D01*
X105474318Y-106709225D01*
X105429264Y-106748265D01*
X105252356Y-106838404D01*
X105093178Y-106954055D01*
X104954055Y-107093178D01*
X104838404Y-107252356D01*
X104749081Y-107427662D01*
X104688281Y-107614783D01*
X104681516Y-107657500D01*
X105874488Y-107657500D01*
X105841575Y-107714507D01*
X105807500Y-107841674D01*
X105807500Y-107973326D01*
X105841575Y-108100493D01*
X105874488Y-108157500D01*
X104681516Y-108157500D01*
X104688281Y-108200216D01*
X104749081Y-108387337D01*
X104838404Y-108562643D01*
X104954055Y-108721821D01*
X105093177Y-108860943D01*
X105246971Y-108972682D01*
X105289636Y-109028012D01*
X105295615Y-109097626D01*
X105263009Y-109159421D01*
X105202170Y-109193778D01*
X105174087Y-109197000D01*
X105109630Y-109197000D01*
X105109623Y-109197001D01*
X105050016Y-109203408D01*
X104915171Y-109253702D01*
X104915164Y-109253706D01*
X104799955Y-109339952D01*
X104799952Y-109339955D01*
X104713706Y-109455164D01*
X104713702Y-109455171D01*
X104663408Y-109590017D01*
X104659946Y-109622223D01*
X104657001Y-109649623D01*
X104657000Y-109649635D01*
X104657001Y-111248693D01*
X104655919Y-111248693D01*
X104652616Y-111262678D01*
X104653314Y-111281504D01*
X104644752Y-111295977D01*
X104640888Y-111312344D01*
X104627333Y-111325426D01*
X104617743Y-111341641D01*
X104591869Y-111359656D01*
X104590616Y-111360867D01*
X104589867Y-111361050D01*
X104588779Y-111361809D01*
X104512500Y-111400120D01*
X104512500Y-113824999D01*
X104649972Y-113824999D01*
X104649986Y-113824998D01*
X104752697Y-113814505D01*
X104919119Y-113759358D01*
X104919124Y-113759356D01*
X105068345Y-113667315D01*
X105192318Y-113543342D01*
X105194165Y-113540348D01*
X105195969Y-113538724D01*
X105196798Y-113537677D01*
X105196976Y-113537818D01*
X105246110Y-113493621D01*
X105315073Y-113482396D01*
X105379156Y-113510236D01*
X105405243Y-113540341D01*
X105407288Y-113543656D01*
X105531344Y-113667712D01*
X105680666Y-113759814D01*
X105847203Y-113814999D01*
X105949991Y-113825500D01*
X106725008Y-113825499D01*
X106725016Y-113825498D01*
X106725019Y-113825498D01*
X106781302Y-113819748D01*
X106827797Y-113814999D01*
X106994334Y-113759814D01*
X107143656Y-113667712D01*
X107267712Y-113543656D01*
X107359814Y-113394334D01*
X107414999Y-113227797D01*
X107425500Y-113125009D01*
X107425499Y-112074992D01*
X107420088Y-112022026D01*
X107414999Y-111972203D01*
X107414998Y-111972200D01*
X107378151Y-111861003D01*
X107375749Y-111791175D01*
X107411481Y-111731133D01*
X107474001Y-111699940D01*
X107495857Y-111697999D01*
X107505371Y-111697999D01*
X107505372Y-111697999D01*
X107564983Y-111691591D01*
X107699831Y-111641296D01*
X107815046Y-111555046D01*
X107901296Y-111439831D01*
X107951591Y-111304983D01*
X107958000Y-111245373D01*
X107957999Y-109649628D01*
X107951591Y-109590017D01*
X107934052Y-109542993D01*
X107901297Y-109455171D01*
X107901293Y-109455164D01*
X107815047Y-109339955D01*
X107815044Y-109339952D01*
X107699835Y-109253706D01*
X107699828Y-109253702D01*
X107564982Y-109203408D01*
X107564983Y-109203408D01*
X107505383Y-109197001D01*
X107505381Y-109197000D01*
X107505373Y-109197000D01*
X107505365Y-109197000D01*
X107440915Y-109197000D01*
X107373876Y-109177315D01*
X107328121Y-109124511D01*
X107318177Y-109055353D01*
X107347202Y-108991797D01*
X107368029Y-108972682D01*
X107521821Y-108860943D01*
X107521822Y-108860943D01*
X107660944Y-108721821D01*
X107776595Y-108562643D01*
X107865918Y-108387337D01*
X107926718Y-108200216D01*
X107933484Y-108157500D01*
X106740512Y-108157500D01*
X106773425Y-108100493D01*
X106807500Y-107973326D01*
X106807500Y-107841674D01*
X106773425Y-107714507D01*
X106740512Y-107657500D01*
X107933484Y-107657500D01*
X107926718Y-107614783D01*
X107865918Y-107427662D01*
X107776595Y-107252356D01*
X107660944Y-107093178D01*
X107521821Y-106954055D01*
X107362643Y-106838404D01*
X107185735Y-106748265D01*
X107134939Y-106700290D01*
X107118144Y-106632469D01*
X107140681Y-106566335D01*
X107185736Y-106527295D01*
X107187522Y-106526384D01*
X107187525Y-106526384D01*
X107362905Y-106437024D01*
X107522146Y-106321328D01*
X107661328Y-106182146D01*
X107777024Y-106022905D01*
X107866384Y-105847525D01*
X107927209Y-105660326D01*
X107940898Y-105573896D01*
X107958000Y-105465922D01*
X107958000Y-105269077D01*
X107927209Y-105074673D01*
X107866382Y-104887470D01*
X107777023Y-104712094D01*
X107740185Y-104661391D01*
X107661328Y-104552854D01*
X107522146Y-104413672D01*
X107401792Y-104326229D01*
X107367036Y-104300977D01*
X107324371Y-104245646D01*
X107318392Y-104176033D01*
X107325521Y-104152821D01*
X107329272Y-104143850D01*
X107359814Y-104094334D01*
X107397366Y-103981008D01*
X107399184Y-103976662D01*
X107418346Y-103953046D01*
X107435652Y-103928051D01*
X107440142Y-103926184D01*
X107443208Y-103922406D01*
X107472091Y-103912900D01*
X107500167Y-103901228D01*
X107509021Y-103900747D01*
X107509576Y-103900565D01*
X107510063Y-103900691D01*
X107513585Y-103900500D01*
X108332666Y-103900500D01*
X108394665Y-103917112D01*
X108468216Y-103959577D01*
X108517105Y-103972676D01*
X108572691Y-104004770D01*
X108589707Y-104021786D01*
X108589711Y-104021789D01*
X108720814Y-104109390D01*
X108720827Y-104109397D01*
X108866498Y-104169735D01*
X108866503Y-104169737D01*
X109021153Y-104200499D01*
X109021156Y-104200500D01*
X109021158Y-104200500D01*
X109178844Y-104200500D01*
X109178845Y-104200499D01*
X109333497Y-104169737D01*
X109479179Y-104109394D01*
X109610289Y-104021789D01*
X109721789Y-103910289D01*
X109809394Y-103779179D01*
X109869737Y-103633497D01*
X109900500Y-103478842D01*
X109900500Y-103321158D01*
X109900500Y-103321155D01*
X109900499Y-103321153D01*
X109897721Y-103307187D01*
X109869737Y-103166503D01*
X109861185Y-103145856D01*
X109809397Y-103020827D01*
X109809390Y-103020814D01*
X109721789Y-102889711D01*
X109721786Y-102889707D01*
X109610292Y-102778213D01*
X109610288Y-102778210D01*
X109479185Y-102690609D01*
X109479172Y-102690602D01*
X109333501Y-102630264D01*
X109333489Y-102630261D01*
X109178845Y-102599500D01*
X109178842Y-102599500D01*
X109021158Y-102599500D01*
X109021155Y-102599500D01*
X108866510Y-102630261D01*
X108866502Y-102630263D01*
X108818853Y-102650000D01*
X108722138Y-102690060D01*
X108713963Y-102691686D01*
X108709623Y-102694476D01*
X108674690Y-102699498D01*
X108674688Y-102699499D01*
X108520943Y-102699499D01*
X108520939Y-102699499D01*
X108513332Y-102699500D01*
X108513331Y-102699499D01*
X108513331Y-102699500D01*
X107513585Y-102699500D01*
X107446546Y-102679815D01*
X107400791Y-102627011D01*
X107395879Y-102614504D01*
X107391073Y-102600000D01*
X107359814Y-102505666D01*
X107267712Y-102356344D01*
X107143656Y-102232288D01*
X106994334Y-102140186D01*
X106827797Y-102085001D01*
X106827795Y-102085000D01*
X106725010Y-102074500D01*
X105949998Y-102074500D01*
X105949980Y-102074501D01*
X105847203Y-102085000D01*
X105847200Y-102085001D01*
X105680668Y-102140185D01*
X105680663Y-102140187D01*
X105531342Y-102232289D01*
X105407288Y-102356343D01*
X105407283Y-102356349D01*
X105405241Y-102359661D01*
X105403247Y-102361453D01*
X105402807Y-102362011D01*
X105402711Y-102361935D01*
X105353291Y-102406383D01*
X105284328Y-102417602D01*
X105220247Y-102389755D01*
X105194168Y-102359656D01*
X105192319Y-102356659D01*
X105192316Y-102356655D01*
X105068345Y-102232684D01*
X104919124Y-102140643D01*
X104919119Y-102140641D01*
X104752697Y-102085494D01*
X104752690Y-102085493D01*
X104649986Y-102075000D01*
X104512500Y-102075000D01*
X104012500Y-102075000D01*
X103875027Y-102075000D01*
X103875012Y-102075001D01*
X103772302Y-102085494D01*
X103605880Y-102140641D01*
X103605875Y-102140643D01*
X103456654Y-102232684D01*
X103332684Y-102356654D01*
X103240643Y-102505875D01*
X103240641Y-102505880D01*
X103185494Y-102672302D01*
X103185493Y-102672309D01*
X103175000Y-102775013D01*
X102225500Y-102775013D01*
X102225499Y-102400000D01*
X102225499Y-101874998D01*
X102225498Y-101874980D01*
X102214999Y-101772203D01*
X102214998Y-101772200D01*
X102186104Y-101685004D01*
X102183702Y-101615176D01*
X102219434Y-101555134D01*
X102281954Y-101523941D01*
X102303810Y-101522000D01*
X102493834Y-101522000D01*
X102595701Y-101505865D01*
X102677200Y-101492957D01*
X102853771Y-101435585D01*
X103019193Y-101351299D01*
X103169393Y-101242172D01*
X103300672Y-101110893D01*
X103409799Y-100960693D01*
X103494085Y-100795271D01*
X103551457Y-100618700D01*
X103551458Y-100618696D01*
X103552962Y-100614067D01*
X103554852Y-100614681D01*
X103585436Y-100561363D01*
X103647449Y-100529173D01*
X103717020Y-100535620D01*
X103772062Y-100578656D01*
X103788367Y-100614325D01*
X103789525Y-100613949D01*
X103848379Y-100795083D01*
X103932629Y-100960431D01*
X103948151Y-100981794D01*
X103948151Y-100981795D01*
X104519274Y-100410671D01*
X104544963Y-100506544D01*
X104600916Y-100603456D01*
X104680044Y-100682584D01*
X104776956Y-100738537D01*
X104872827Y-100764225D01*
X104301704Y-101335347D01*
X104301704Y-101335348D01*
X104323068Y-101350870D01*
X104488416Y-101435120D01*
X104664916Y-101492468D01*
X104848212Y-101521500D01*
X105033788Y-101521500D01*
X105217083Y-101492468D01*
X105393583Y-101435120D01*
X105558933Y-101350868D01*
X105558940Y-101350864D01*
X105580294Y-101335348D01*
X105580295Y-101335347D01*
X105009173Y-100764225D01*
X105105044Y-100738537D01*
X105201956Y-100682584D01*
X105281084Y-100603456D01*
X105337037Y-100506544D01*
X105362725Y-100410672D01*
X105933847Y-100981795D01*
X105933848Y-100981794D01*
X105949364Y-100960440D01*
X105949368Y-100960433D01*
X106033620Y-100795083D01*
X106092475Y-100613949D01*
X106094398Y-100614573D01*
X106124923Y-100561361D01*
X106186937Y-100529173D01*
X106256508Y-100535621D01*
X106311549Y-100578659D01*
X106327901Y-100614436D01*
X106329038Y-100614067D01*
X106330542Y-100618696D01*
X106330543Y-100618700D01*
X106387915Y-100795271D01*
X106472201Y-100960693D01*
X106581328Y-101110893D01*
X106712607Y-101242172D01*
X106862807Y-101351299D01*
X107028229Y-101435585D01*
X107204800Y-101492957D01*
X107273564Y-101503848D01*
X107388166Y-101522000D01*
X107388171Y-101522000D01*
X107573834Y-101522000D01*
X107675701Y-101505865D01*
X107757200Y-101492957D01*
X107933771Y-101435585D01*
X108099193Y-101351299D01*
X108249393Y-101242172D01*
X108380672Y-101110893D01*
X108489799Y-100960693D01*
X108574085Y-100795271D01*
X108631457Y-100618700D01*
X108631458Y-100618696D01*
X108632962Y-100614067D01*
X108635147Y-100614777D01*
X108665203Y-100562414D01*
X108727224Y-100530240D01*
X108796794Y-100536705D01*
X108851824Y-100579756D01*
X108867692Y-100614504D01*
X108869038Y-100614067D01*
X108870542Y-100618696D01*
X108870543Y-100618700D01*
X108927915Y-100795271D01*
X109012201Y-100960693D01*
X109121328Y-101110893D01*
X109252607Y-101242172D01*
X109402807Y-101351299D01*
X109568229Y-101435585D01*
X109744800Y-101492957D01*
X109813564Y-101503848D01*
X109928166Y-101522000D01*
X109928171Y-101522000D01*
X110113834Y-101522000D01*
X110215701Y-101505865D01*
X110297200Y-101492957D01*
X110473771Y-101435585D01*
X110639193Y-101351299D01*
X110789393Y-101242172D01*
X110920672Y-101110893D01*
X111029799Y-100960693D01*
X111114085Y-100795271D01*
X111171457Y-100618700D01*
X111171458Y-100618696D01*
X111172962Y-100614067D01*
X111175147Y-100614777D01*
X111205203Y-100562414D01*
X111267224Y-100530240D01*
X111336794Y-100536705D01*
X111391824Y-100579756D01*
X111407692Y-100614504D01*
X111409038Y-100614067D01*
X111410542Y-100618696D01*
X111410543Y-100618700D01*
X111467915Y-100795271D01*
X111552201Y-100960693D01*
X111661328Y-101110893D01*
X111792607Y-101242172D01*
X111942807Y-101351299D01*
X112108229Y-101435585D01*
X112284800Y-101492957D01*
X112353564Y-101503848D01*
X112468166Y-101522000D01*
X112468171Y-101522000D01*
X112653834Y-101522000D01*
X112755701Y-101505865D01*
X112837200Y-101492957D01*
X113013771Y-101435585D01*
X113179193Y-101351299D01*
X113329393Y-101242172D01*
X113460672Y-101110893D01*
X113569799Y-100960693D01*
X113654085Y-100795271D01*
X113711457Y-100618700D01*
X113711458Y-100618696D01*
X113712962Y-100614067D01*
X113715147Y-100614777D01*
X113745203Y-100562414D01*
X113807224Y-100530240D01*
X113876794Y-100536705D01*
X113931824Y-100579756D01*
X113947692Y-100614504D01*
X113949038Y-100614067D01*
X113950542Y-100618696D01*
X113950543Y-100618700D01*
X114007915Y-100795271D01*
X114092201Y-100960693D01*
X114201328Y-101110893D01*
X114332607Y-101242172D01*
X114482807Y-101351299D01*
X114648229Y-101435585D01*
X114824800Y-101492957D01*
X114893564Y-101503848D01*
X115008166Y-101522000D01*
X115008171Y-101522000D01*
X115193834Y-101522000D01*
X115295701Y-101505865D01*
X115377200Y-101492957D01*
X115553771Y-101435585D01*
X115719193Y-101351299D01*
X115869393Y-101242172D01*
X116000672Y-101110893D01*
X116109799Y-100960693D01*
X116194085Y-100795271D01*
X116251457Y-100618700D01*
X116251458Y-100618696D01*
X116252962Y-100614067D01*
X116255147Y-100614777D01*
X116285203Y-100562414D01*
X116347224Y-100530240D01*
X116416794Y-100536705D01*
X116471824Y-100579756D01*
X116487692Y-100614504D01*
X116489038Y-100614067D01*
X116490542Y-100618696D01*
X116490543Y-100618700D01*
X116547915Y-100795271D01*
X116632201Y-100960693D01*
X116741328Y-101110893D01*
X116872607Y-101242172D01*
X116924216Y-101279668D01*
X116989386Y-101327017D01*
X117032051Y-101382347D01*
X117040500Y-101427335D01*
X117040500Y-101826059D01*
X117020815Y-101893098D01*
X117004181Y-101913740D01*
X116978213Y-101939707D01*
X116978210Y-101939711D01*
X116890609Y-102070814D01*
X116890602Y-102070827D01*
X116830264Y-102216498D01*
X116830261Y-102216510D01*
X116799500Y-102371153D01*
X116799500Y-102528846D01*
X116830261Y-102683489D01*
X116830264Y-102683501D01*
X116890602Y-102829172D01*
X116890609Y-102829185D01*
X116978210Y-102960288D01*
X116978213Y-102960292D01*
X117089707Y-103071786D01*
X117089711Y-103071789D01*
X117220814Y-103159390D01*
X117220827Y-103159397D01*
X117366498Y-103219735D01*
X117366503Y-103219737D01*
X117492945Y-103244888D01*
X117521153Y-103250499D01*
X117521156Y-103250500D01*
X117521158Y-103250500D01*
X117678844Y-103250500D01*
X117678845Y-103250499D01*
X117833497Y-103219737D01*
X117979179Y-103159394D01*
X118110289Y-103071789D01*
X118221789Y-102960289D01*
X118309394Y-102829179D01*
X118369737Y-102683497D01*
X118396295Y-102549983D01*
X122099500Y-102549983D01*
X122099500Y-103850001D01*
X122099501Y-103850018D01*
X122110000Y-103952796D01*
X122110001Y-103952799D01*
X122165185Y-104119331D01*
X122165187Y-104119336D01*
X122180350Y-104143919D01*
X122257288Y-104268656D01*
X122381344Y-104392712D01*
X122530666Y-104484814D01*
X122697203Y-104539999D01*
X122799991Y-104550500D01*
X124400008Y-104550499D01*
X124502797Y-104539999D01*
X124669334Y-104484814D01*
X124818656Y-104392712D01*
X124942712Y-104268656D01*
X125034814Y-104119334D01*
X125089999Y-103952797D01*
X125100500Y-103850009D01*
X125100499Y-102549992D01*
X125098766Y-102533031D01*
X125089999Y-102447203D01*
X125089998Y-102447200D01*
X125080190Y-102417602D01*
X125034814Y-102280666D01*
X124942712Y-102131344D01*
X124818656Y-102007288D01*
X124669334Y-101915186D01*
X124669332Y-101915185D01*
X124663440Y-101911551D01*
X124616716Y-101859603D01*
X124605493Y-101790641D01*
X124633337Y-101726558D01*
X124640856Y-101718330D01*
X124779728Y-101579458D01*
X124904620Y-101407557D01*
X125001095Y-101218217D01*
X125066757Y-101016129D01*
X125066757Y-101016126D01*
X125077231Y-100950000D01*
X124033012Y-100950000D01*
X124065925Y-100892993D01*
X124100000Y-100765826D01*
X124100000Y-100634174D01*
X124065925Y-100507007D01*
X124033012Y-100450000D01*
X125077231Y-100450000D01*
X125066757Y-100383873D01*
X125066757Y-100383870D01*
X125001095Y-100181782D01*
X124904620Y-99992442D01*
X124779727Y-99820540D01*
X124779723Y-99820535D01*
X124629464Y-99670276D01*
X124629459Y-99670272D01*
X124457557Y-99545379D01*
X124268217Y-99448904D01*
X124066129Y-99383242D01*
X123856246Y-99350000D01*
X123850000Y-99350000D01*
X123850000Y-100266988D01*
X123792993Y-100234075D01*
X123665826Y-100200000D01*
X123534174Y-100200000D01*
X123407007Y-100234075D01*
X123350000Y-100266988D01*
X123350000Y-99350000D01*
X123343754Y-99350000D01*
X123133872Y-99383242D01*
X123133869Y-99383242D01*
X122931782Y-99448904D01*
X122742442Y-99545379D01*
X122570540Y-99670272D01*
X122570535Y-99670276D01*
X122420276Y-99820535D01*
X122420272Y-99820540D01*
X122295379Y-99992442D01*
X122198904Y-100181782D01*
X122133242Y-100383870D01*
X122133242Y-100383873D01*
X122122769Y-100450000D01*
X123166988Y-100450000D01*
X123134075Y-100507007D01*
X123100000Y-100634174D01*
X123100000Y-100765826D01*
X123134075Y-100892993D01*
X123166988Y-100950000D01*
X122122769Y-100950000D01*
X122133242Y-101016126D01*
X122133242Y-101016129D01*
X122198904Y-101218217D01*
X122295379Y-101407557D01*
X122420272Y-101579459D01*
X122420276Y-101579464D01*
X122559143Y-101718331D01*
X122592628Y-101779654D01*
X122587644Y-101849346D01*
X122545772Y-101905279D01*
X122536559Y-101911551D01*
X122381342Y-102007289D01*
X122257289Y-102131342D01*
X122165187Y-102280663D01*
X122165186Y-102280666D01*
X122110001Y-102447203D01*
X122110001Y-102447204D01*
X122110000Y-102447204D01*
X122099500Y-102549983D01*
X118396295Y-102549983D01*
X118399667Y-102533031D01*
X118400499Y-102528849D01*
X118400500Y-102528841D01*
X118400500Y-102371155D01*
X118400499Y-102371153D01*
X118395540Y-102346224D01*
X118369737Y-102216503D01*
X118369735Y-102216498D01*
X118309397Y-102070828D01*
X118309396Y-102070827D01*
X118309394Y-102070821D01*
X118309387Y-102070810D01*
X118262398Y-102000485D01*
X118241520Y-101933808D01*
X118241500Y-101931595D01*
X118241500Y-101427335D01*
X118261185Y-101360296D01*
X118292614Y-101327017D01*
X118409393Y-101242172D01*
X118540672Y-101110893D01*
X118649799Y-100960693D01*
X118734085Y-100795271D01*
X118791457Y-100618700D01*
X118805637Y-100529173D01*
X118815379Y-100467666D01*
X118820500Y-100435334D01*
X118820500Y-100249665D01*
X118792209Y-100071051D01*
X118791457Y-100066300D01*
X118734085Y-99889729D01*
X118649799Y-99724307D01*
X118540672Y-99574107D01*
X118409393Y-99442828D01*
X118259193Y-99333701D01*
X118093771Y-99249415D01*
X117917200Y-99192043D01*
X117917198Y-99192042D01*
X117917196Y-99192042D01*
X117733834Y-99163000D01*
X117733829Y-99163000D01*
X117548171Y-99163000D01*
X117548166Y-99163000D01*
X117364803Y-99192042D01*
X117188226Y-99249416D01*
X117022806Y-99333701D01*
X116937111Y-99395962D01*
X116872607Y-99442828D01*
X116872605Y-99442830D01*
X116872604Y-99442830D01*
X116741330Y-99574104D01*
X116741330Y-99574105D01*
X116741328Y-99574107D01*
X116711978Y-99614504D01*
X116632201Y-99724306D01*
X116547916Y-99889726D01*
X116547915Y-99889728D01*
X116547915Y-99889729D01*
X116495840Y-100050000D01*
X116489038Y-100070933D01*
X116486864Y-100070226D01*
X116456752Y-100122629D01*
X116394714Y-100154771D01*
X116325148Y-100148271D01*
X116270139Y-100105192D01*
X116254295Y-100070499D01*
X116252962Y-100070933D01*
X116251457Y-100066300D01*
X116194085Y-99889729D01*
X116109799Y-99724307D01*
X116000672Y-99574107D01*
X115869393Y-99442828D01*
X115719193Y-99333701D01*
X115553771Y-99249415D01*
X115377200Y-99192043D01*
X115377198Y-99192042D01*
X115377196Y-99192042D01*
X115193834Y-99163000D01*
X115193829Y-99163000D01*
X115008171Y-99163000D01*
X115008166Y-99163000D01*
X114824803Y-99192042D01*
X114648226Y-99249416D01*
X114482806Y-99333701D01*
X114397111Y-99395962D01*
X114332607Y-99442828D01*
X114332605Y-99442830D01*
X114332604Y-99442830D01*
X114201330Y-99574104D01*
X114201330Y-99574105D01*
X114201328Y-99574107D01*
X114171978Y-99614504D01*
X114092201Y-99724306D01*
X114007916Y-99889726D01*
X114007915Y-99889728D01*
X114007915Y-99889729D01*
X113955840Y-100050000D01*
X113949038Y-100070933D01*
X113946864Y-100070226D01*
X113916752Y-100122629D01*
X113854714Y-100154771D01*
X113785148Y-100148271D01*
X113730139Y-100105192D01*
X113714295Y-100070499D01*
X113712962Y-100070933D01*
X113711457Y-100066300D01*
X113654085Y-99889729D01*
X113569799Y-99724307D01*
X113460672Y-99574107D01*
X113329393Y-99442828D01*
X113179193Y-99333701D01*
X113013771Y-99249415D01*
X112837200Y-99192043D01*
X112837198Y-99192042D01*
X112837196Y-99192042D01*
X112653834Y-99163000D01*
X112653829Y-99163000D01*
X112468171Y-99163000D01*
X112468166Y-99163000D01*
X112284803Y-99192042D01*
X112108226Y-99249416D01*
X111942806Y-99333701D01*
X111857111Y-99395962D01*
X111792607Y-99442828D01*
X111792605Y-99442830D01*
X111792604Y-99442830D01*
X111661330Y-99574104D01*
X111661330Y-99574105D01*
X111661328Y-99574107D01*
X111631978Y-99614504D01*
X111552201Y-99724306D01*
X111467916Y-99889726D01*
X111467915Y-99889728D01*
X111467915Y-99889729D01*
X111415840Y-100050000D01*
X111409038Y-100070933D01*
X111406864Y-100070226D01*
X111376752Y-100122629D01*
X111314714Y-100154771D01*
X111245148Y-100148271D01*
X111190139Y-100105192D01*
X111174295Y-100070499D01*
X111172962Y-100070933D01*
X111171457Y-100066300D01*
X111114085Y-99889729D01*
X111029799Y-99724307D01*
X110920672Y-99574107D01*
X110789393Y-99442828D01*
X110639193Y-99333701D01*
X110473771Y-99249415D01*
X110297200Y-99192043D01*
X110297198Y-99192042D01*
X110297196Y-99192042D01*
X110113834Y-99163000D01*
X110113829Y-99163000D01*
X109928171Y-99163000D01*
X109928166Y-99163000D01*
X109744803Y-99192042D01*
X109568226Y-99249416D01*
X109402806Y-99333701D01*
X109317111Y-99395962D01*
X109252607Y-99442828D01*
X109252605Y-99442830D01*
X109252604Y-99442830D01*
X109121330Y-99574104D01*
X109121330Y-99574105D01*
X109121328Y-99574107D01*
X109091978Y-99614504D01*
X109012201Y-99724306D01*
X108927916Y-99889726D01*
X108927915Y-99889728D01*
X108927915Y-99889729D01*
X108875840Y-100050000D01*
X108869038Y-100070933D01*
X108866864Y-100070226D01*
X108836752Y-100122629D01*
X108774714Y-100154771D01*
X108705148Y-100148271D01*
X108650139Y-100105192D01*
X108634295Y-100070499D01*
X108632962Y-100070933D01*
X108631457Y-100066300D01*
X108574085Y-99889729D01*
X108489799Y-99724307D01*
X108380672Y-99574107D01*
X108249393Y-99442828D01*
X108099193Y-99333701D01*
X107933771Y-99249415D01*
X107757200Y-99192043D01*
X107757198Y-99192042D01*
X107757196Y-99192042D01*
X107573834Y-99163000D01*
X107573829Y-99163000D01*
X107388171Y-99163000D01*
X107388166Y-99163000D01*
X107204803Y-99192042D01*
X107028226Y-99249416D01*
X106862806Y-99333701D01*
X106777111Y-99395962D01*
X106712607Y-99442828D01*
X106712605Y-99442830D01*
X106712604Y-99442830D01*
X106581330Y-99574104D01*
X106581330Y-99574105D01*
X106581328Y-99574107D01*
X106551978Y-99614504D01*
X106472201Y-99724306D01*
X106387916Y-99889726D01*
X106387915Y-99889728D01*
X106387915Y-99889729D01*
X106335840Y-100050000D01*
X106329038Y-100070933D01*
X106327166Y-100070325D01*
X106296494Y-100123702D01*
X106234456Y-100155844D01*
X106164890Y-100149344D01*
X106109881Y-100106265D01*
X106093638Y-100070672D01*
X106092475Y-100071051D01*
X106033620Y-99889916D01*
X105949370Y-99724568D01*
X105933847Y-99703204D01*
X105362725Y-100274326D01*
X105337037Y-100178456D01*
X105281084Y-100081544D01*
X105201956Y-100002416D01*
X105105044Y-99946463D01*
X105009172Y-99920774D01*
X105580295Y-99349651D01*
X105558931Y-99334129D01*
X105393583Y-99249879D01*
X105217083Y-99192531D01*
X105033788Y-99163500D01*
X104848212Y-99163500D01*
X104664916Y-99192531D01*
X104488416Y-99249879D01*
X104323065Y-99334131D01*
X104301704Y-99349650D01*
X104301704Y-99349651D01*
X104872828Y-99920774D01*
X104776956Y-99946463D01*
X104680044Y-100002416D01*
X104600916Y-100081544D01*
X104544963Y-100178456D01*
X104519274Y-100274327D01*
X103948151Y-99703204D01*
X103948150Y-99703204D01*
X103932631Y-99724565D01*
X103848379Y-99889916D01*
X103789525Y-100071051D01*
X103787622Y-100070432D01*
X103757001Y-100123710D01*
X103694961Y-100155846D01*
X103625394Y-100149340D01*
X103570389Y-100106256D01*
X103554103Y-100070562D01*
X103552962Y-100070933D01*
X103551457Y-100066300D01*
X103494085Y-99889729D01*
X103409799Y-99724307D01*
X103300672Y-99574107D01*
X103169393Y-99442828D01*
X103019193Y-99333701D01*
X102853771Y-99249415D01*
X102677200Y-99192043D01*
X102677198Y-99192042D01*
X102677196Y-99192042D01*
X102493834Y-99163000D01*
X102493829Y-99163000D01*
X102308171Y-99163000D01*
X102308166Y-99163000D01*
X102124803Y-99192042D01*
X101948226Y-99249416D01*
X101782806Y-99333701D01*
X101697111Y-99395962D01*
X101632607Y-99442828D01*
X101632605Y-99442830D01*
X101632604Y-99442830D01*
X101501329Y-99574105D01*
X101447361Y-99648386D01*
X101392030Y-99691051D01*
X101347043Y-99699500D01*
X101013585Y-99699500D01*
X100946546Y-99679815D01*
X100900791Y-99627011D01*
X100895879Y-99614504D01*
X100882492Y-99574104D01*
X100859814Y-99505666D01*
X100767712Y-99356344D01*
X100643656Y-99232288D01*
X100494334Y-99140186D01*
X100327797Y-99085001D01*
X100327795Y-99085000D01*
X100225010Y-99074500D01*
X99449998Y-99074500D01*
X99449980Y-99074501D01*
X99347203Y-99085000D01*
X99347200Y-99085001D01*
X99180668Y-99140185D01*
X99180663Y-99140187D01*
X99031342Y-99232289D01*
X98907288Y-99356343D01*
X98907283Y-99356349D01*
X98905241Y-99359661D01*
X98903247Y-99361453D01*
X98902807Y-99362011D01*
X98902711Y-99361935D01*
X98853291Y-99406383D01*
X98784328Y-99417602D01*
X98720247Y-99389755D01*
X98694168Y-99359656D01*
X98692319Y-99356659D01*
X98692316Y-99356655D01*
X98568345Y-99232684D01*
X98419124Y-99140643D01*
X98419119Y-99140641D01*
X98252697Y-99085494D01*
X98252690Y-99085493D01*
X98149986Y-99075000D01*
X98012500Y-99075000D01*
X98012500Y-101535652D01*
X98033170Y-101573507D01*
X98029710Y-101638869D01*
X97985494Y-101772302D01*
X97985493Y-101772309D01*
X97975000Y-101875013D01*
X86700000Y-101875013D01*
X86700000Y-101831056D01*
X86673099Y-101695818D01*
X86654121Y-101650000D01*
X87550000Y-101650000D01*
X87550000Y-100824986D01*
X96675001Y-100824986D01*
X96685494Y-100927697D01*
X96740641Y-101094119D01*
X96740643Y-101094124D01*
X96832684Y-101243345D01*
X96956654Y-101367315D01*
X97105875Y-101459356D01*
X97105880Y-101459358D01*
X97272302Y-101514505D01*
X97272309Y-101514506D01*
X97375019Y-101524999D01*
X97512499Y-101524999D01*
X97512500Y-101524998D01*
X97512500Y-100550000D01*
X96675001Y-100550000D01*
X96675001Y-100824986D01*
X87550000Y-100824986D01*
X87550000Y-100802172D01*
X87549999Y-100802155D01*
X87543598Y-100742627D01*
X87543596Y-100742620D01*
X87493354Y-100607913D01*
X87493352Y-100607910D01*
X87467181Y-100572950D01*
X87467180Y-100572948D01*
X87407190Y-100492812D01*
X87407187Y-100492809D01*
X87292093Y-100406649D01*
X87292086Y-100406645D01*
X87157379Y-100356403D01*
X87157372Y-100356401D01*
X87097844Y-100350000D01*
X86250000Y-100350000D01*
X86250000Y-101245879D01*
X86204182Y-101226901D01*
X86068944Y-101200000D01*
X85931056Y-101200000D01*
X85795818Y-101226901D01*
X85750000Y-101245879D01*
X85750000Y-100350000D01*
X84902155Y-100350000D01*
X84842627Y-100356401D01*
X84842620Y-100356403D01*
X84707913Y-100406645D01*
X84707906Y-100406649D01*
X84592812Y-100492809D01*
X84592809Y-100492812D01*
X84506649Y-100607906D01*
X84506645Y-100607913D01*
X84456403Y-100742620D01*
X84456401Y-100742627D01*
X84450000Y-100802155D01*
X81600500Y-100802155D01*
X81600500Y-99775013D01*
X96675000Y-99775013D01*
X96675000Y-100050000D01*
X97512500Y-100050000D01*
X97512500Y-99075000D01*
X97375027Y-99075000D01*
X97375012Y-99075001D01*
X97272302Y-99085494D01*
X97105880Y-99140641D01*
X97105875Y-99140643D01*
X96956654Y-99232684D01*
X96832684Y-99356654D01*
X96740643Y-99505875D01*
X96740641Y-99505880D01*
X96685494Y-99672302D01*
X96685493Y-99672309D01*
X96675000Y-99775013D01*
X81600500Y-99775013D01*
X81600500Y-98424500D01*
X81620185Y-98357461D01*
X81672989Y-98311706D01*
X81724500Y-98300500D01*
X132575500Y-98300500D01*
X132642539Y-98320185D01*
G37*
%TD.AperFunction*%
%TD*%
M02*
