%TF.GenerationSoftware,KiCad,Pcbnew,10.0.1*%
%TF.CreationDate,2026-07-11T20:49:09-07:00*%
%TF.ProjectId,row-controller,726f772d-636f-46e7-9472-6f6c6c65722e,rev?*%
%TF.SameCoordinates,Original*%
%TF.FileFunction,Soldermask,Top*%
%TF.FilePolarity,Negative*%
%FSLAX46Y46*%
G04 Gerber Fmt 4.6, Leading zero omitted, Abs format (unit mm)*
G04 Created by KiCad (PCBNEW 10.0.1) date 2026-07-11 20:49:09*
%MOMM*%
%LPD*%
G01*
G04 APERTURE LIST*
G04 Aperture macros list*
%AMRoundRect*
0 Rectangle with rounded corners*
0 $1 Rounding radius*
0 $2 $3 $4 $5 $6 $7 $8 $9 X,Y pos of 4 corners*
0 Add a 4 corners polygon primitive as box body*
4,1,4,$2,$3,$4,$5,$6,$7,$8,$9,$2,$3,0*
0 Add four circle primitives for the rounded corners*
1,1,$1+$1,$2,$3*
1,1,$1+$1,$4,$5*
1,1,$1+$1,$6,$7*
1,1,$1+$1,$8,$9*
0 Add four rect primitives between the rounded corners*
20,1,$1+$1,$2,$3,$4,$5,0*
20,1,$1+$1,$4,$5,$6,$7,0*
20,1,$1+$1,$6,$7,$8,$9,0*
20,1,$1+$1,$8,$9,$2,$3,0*%
G04 Aperture macros list end*
%ADD10R,2.100000X2.100000*%
%ADD11C,2.100000*%
%ADD12RoundRect,0.250000X-0.325000X-0.450000X0.325000X-0.450000X0.325000X0.450000X-0.325000X0.450000X0*%
%ADD13RoundRect,0.250000X0.450000X-0.350000X0.450000X0.350000X-0.450000X0.350000X-0.450000X-0.350000X0*%
%ADD14R,2.300000X1.500000*%
%ADD15O,2.300000X1.500000*%
%ADD16RoundRect,0.102000X0.679000X-0.679000X0.679000X0.679000X-0.679000X0.679000X-0.679000X-0.679000X0*%
%ADD17C,1.562000*%
%ADD18RoundRect,0.250000X0.550000X-0.550000X0.550000X0.550000X-0.550000X0.550000X-0.550000X-0.550000X0*%
%ADD19C,1.600000*%
%ADD20RoundRect,0.250000X0.350000X0.450000X-0.350000X0.450000X-0.350000X-0.450000X0.350000X-0.450000X0*%
%ADD21RoundRect,0.249999X1.075001X-0.450001X1.075001X0.450001X-1.075001X0.450001X-1.075001X-0.450001X0*%
%ADD22RoundRect,0.250000X-0.350000X-0.450000X0.350000X-0.450000X0.350000X0.450000X-0.350000X0.450000X0*%
%ADD23R,1.528000X0.650000*%
%ADD24RoundRect,0.250000X0.475000X-0.337500X0.475000X0.337500X-0.475000X0.337500X-0.475000X-0.337500X0*%
%ADD25R,0.650000X1.528000*%
%ADD26RoundRect,0.250000X0.750000X-0.600000X0.750000X0.600000X-0.750000X0.600000X-0.750000X-0.600000X0*%
%ADD27O,2.000000X1.700000*%
%ADD28RoundRect,0.250000X0.400000X0.625000X-0.400000X0.625000X-0.400000X-0.625000X0.400000X-0.625000X0*%
%ADD29RoundRect,0.250000X-0.450000X0.350000X-0.450000X-0.350000X0.450000X-0.350000X0.450000X0.350000X0*%
%ADD30RoundRect,0.250000X-0.337500X-0.475000X0.337500X-0.475000X0.337500X0.475000X-0.337500X0.475000X0*%
%ADD31R,1.950000X1.950000*%
%ADD32C,1.950000*%
%ADD33RoundRect,0.250000X0.337500X0.475000X-0.337500X0.475000X-0.337500X-0.475000X0.337500X-0.475000X0*%
%ADD34R,1.400000X0.300000*%
G04 APERTURE END LIST*
D10*
%TO.C,J6*%
X86000000Y-101900000D03*
D11*
X86000000Y-106900000D03*
X86000000Y-111900000D03*
X86000000Y-116900000D03*
%TD*%
D12*
%TO.C,D1*%
X92975000Y-100300000D03*
X95025000Y-100300000D03*
%TD*%
D13*
%TO.C,R7*%
X92600000Y-120800000D03*
X92600000Y-118800000D03*
%TD*%
D14*
%TO.C,U2*%
X106307500Y-110447500D03*
D15*
X106307500Y-107907500D03*
X106307500Y-105367500D03*
%TD*%
D12*
%TO.C,D2*%
X84375000Y-124600000D03*
X86425000Y-124600000D03*
%TD*%
D16*
%TO.C,U1*%
X102401000Y-115582500D03*
D17*
X104941000Y-115582500D03*
X107481000Y-115582500D03*
X110021000Y-115582500D03*
X112561000Y-115582500D03*
X115101000Y-115582500D03*
X117641000Y-115582500D03*
X117641000Y-100342500D03*
X115101000Y-100342500D03*
X112561000Y-100342500D03*
X110021000Y-100342500D03*
X107481000Y-100342500D03*
X104941000Y-100342500D03*
X102401000Y-100342500D03*
%TD*%
D18*
%TO.C,C10*%
X96400000Y-105644888D03*
D19*
X96400000Y-103644888D03*
%TD*%
D20*
%TO.C,R9*%
X90217500Y-124600000D03*
X88217500Y-124600000D03*
%TD*%
D21*
%TO.C,R1*%
X117552000Y-110700000D03*
X117552000Y-105900000D03*
%TD*%
D22*
%TO.C,R3*%
X129411000Y-119405000D03*
X131411000Y-119405000D03*
%TD*%
D23*
%TO.C,IC3*%
X127411000Y-121505000D03*
X127411000Y-120235000D03*
X127411000Y-118965000D03*
X127411000Y-117695000D03*
X121989000Y-117695000D03*
X121989000Y-118965000D03*
X121989000Y-120235000D03*
X121989000Y-121505000D03*
%TD*%
D24*
%TO.C,C4*%
X92700000Y-109337500D03*
X92700000Y-107262500D03*
%TD*%
D25*
%TO.C,IC2*%
X92395000Y-116811000D03*
X93665000Y-116811000D03*
X94935000Y-116811000D03*
X96205000Y-116811000D03*
X96205000Y-111389000D03*
X94935000Y-111389000D03*
X93665000Y-111389000D03*
X92395000Y-111389000D03*
%TD*%
D26*
%TO.C,J1*%
X123655000Y-111850000D03*
D27*
X123655000Y-109350000D03*
%TD*%
D28*
%TO.C,R12*%
X119850000Y-118400000D03*
X116750000Y-118400000D03*
%TD*%
D29*
%TO.C,R6*%
X94700000Y-118800000D03*
X94700000Y-120800000D03*
%TD*%
D30*
%TO.C,C3*%
X112914500Y-111500000D03*
X114989500Y-111500000D03*
%TD*%
D31*
%TO.C,J5*%
X101720000Y-122300000D03*
D32*
X106800000Y-122300000D03*
X111880000Y-122300000D03*
%TD*%
D20*
%TO.C,R10*%
X90200000Y-121500000D03*
X88200000Y-121500000D03*
%TD*%
D33*
%TO.C,C5*%
X121937500Y-123400000D03*
X119862500Y-123400000D03*
%TD*%
D28*
%TO.C,R11*%
X119850000Y-120800000D03*
X116750000Y-120800000D03*
%TD*%
D34*
%TO.C,IC1*%
X110552000Y-107600000D03*
X110552000Y-108100000D03*
X110552000Y-108600000D03*
X110552000Y-109100000D03*
X110552000Y-109600000D03*
X114952000Y-109600000D03*
X114952000Y-109100000D03*
X114952000Y-108600000D03*
X114952000Y-108100000D03*
X114952000Y-107600000D03*
%TD*%
D20*
%TO.C,R8*%
X98800000Y-100300000D03*
X96800000Y-100300000D03*
%TD*%
D26*
%TO.C,J3*%
X123600000Y-103200000D03*
D27*
X123600000Y-100700000D03*
%TD*%
D22*
%TO.C,R2*%
X109900000Y-105400000D03*
X111900000Y-105400000D03*
%TD*%
D20*
%TO.C,R4*%
X131411000Y-121405000D03*
X129411000Y-121405000D03*
%TD*%
D12*
%TO.C,D3*%
X84357500Y-121500000D03*
X86407500Y-121500000D03*
%TD*%
D22*
%TO.C,R5*%
X109900000Y-103400000D03*
X111900000Y-103400000D03*
%TD*%
M02*
