M48
; DRILL file KiCad 10.0.1 date 2026-07-11T20:49:13
; FORMAT={-:-/ absolute / metric / decimal}
; #@! TF.CreationDate,2026-07-11T20:49:13-07:00
; #@! TF.GenerationSoftware,Kicad,Pcbnew,10.0.1
; #@! TF.FileFunction,Plated,1,2,PTH
FMAT,2
METRIC
; #@! TA.AperFunction,Plated,PTH,ViaDrill
T1C0.300
; #@! TA.AperFunction,Plated,PTH,ComponentDrill
T2C0.800
; #@! TA.AperFunction,Plated,PTH,ComponentDrill
T3C0.850
; #@! TA.AperFunction,Plated,PTH,ComponentDrill
T4C1.000
; #@! TA.AperFunction,Plated,PTH,ComponentDrill
T5C1.300
; #@! TA.AperFunction,Plated,PTH,ComponentDrill
T6C1.400
%
G90
G05
T1
X92.2Y-100.3
X92.7Y-106.4
X94.6Y-105.8
X94.7Y-121.7
X95.1Y-115.0
X95.5Y-112.7
X96.2Y-110.2
X99.7Y-106.0
X99.7Y-107.3
X100.5Y-104.895
X100.5Y-107.3
X100.5Y-113.7
X100.5Y-114.9
X109.1Y-103.4
X111.9Y-108.3
X112.0Y-111.5
X112.75Y-108.45
X113.691Y-109.114
X117.6Y-102.45
X118.8Y-123.4
X120.5Y-112.55
X121.2Y-114.85
X122.039Y-117.135
X131.4Y-118.3
T2
X96.4Y-103.645
X96.4Y-105.645
T3
X102.401Y-100.343
X102.401Y-115.582
X104.941Y-100.343
X104.941Y-115.582
X107.481Y-100.343
X107.481Y-115.582
X110.021Y-100.343
X110.021Y-115.582
X112.561Y-100.343
X112.561Y-115.582
X115.101Y-100.343
X115.101Y-115.582
X117.641Y-100.343
X117.641Y-115.582
T4
X106.307Y-105.367
X106.307Y-107.907
X106.307Y-110.447
X123.6Y-100.7
X123.6Y-103.2
X123.655Y-109.35
X123.655Y-111.85
T5
X101.72Y-122.3
X106.8Y-122.3
X111.88Y-122.3
T6
X86.0Y-101.9
X86.0Y-106.9
X86.0Y-111.9
X86.0Y-116.9
M30
