M48
; DRILL file KiCad 10.0.1 date 2026-07-11T14:26:53
; FORMAT={-:-/ absolute / metric / decimal}
; #@! TF.CreationDate,2026-07-11T14:26:53-07:00
; #@! TF.GenerationSoftware,Kicad,Pcbnew,10.0.1
; #@! TF.FileFunction,Plated,1,2,PTH
FMAT,2
METRIC
; #@! TA.AperFunction,Plated,PTH,ViaDrill
T1C0.600
; #@! TA.AperFunction,Plated,PTH,ComponentDrill
T2C1.000
; #@! TA.AperFunction,Plated,PTH,ComponentDrill
T3C1.200
; #@! TA.AperFunction,Plated,PTH,ComponentDrill
T4C1.600
%
G90
G05
T1
X129.2Y-57.2
X131.4Y-57.2
X132.0Y-59.6
X136.0Y-62.5
X136.9Y-60.7
X139.8Y-62.0
X141.3Y-63.5
T2
X108.37Y-46.23
X108.37Y-48.77
X110.91Y-46.23
X110.91Y-48.77
X113.45Y-46.23
X113.45Y-48.77
X115.99Y-46.23
X115.99Y-48.77
X118.53Y-46.23
X118.53Y-48.77
X121.07Y-46.23
X121.07Y-48.77
X123.61Y-46.23
X123.61Y-48.77
X126.15Y-46.23
X126.15Y-48.77
X128.69Y-46.23
X128.69Y-48.77
X131.23Y-46.23
X131.23Y-48.77
X133.77Y-46.23
X133.77Y-48.77
X136.31Y-46.23
X136.31Y-48.77
X138.85Y-46.23
X138.85Y-48.77
X141.39Y-46.23
X141.39Y-48.77
X143.93Y-46.23
X143.93Y-48.77
X146.47Y-46.23
X146.47Y-48.77
X149.01Y-46.23
X149.01Y-48.77
X151.55Y-46.23
X151.55Y-48.77
X154.09Y-46.23
X154.09Y-48.77
X156.63Y-46.23
X156.63Y-48.77
T3
X106.93Y-75.6
X117.1Y-67.35
T4
X103.76Y-71.16
X108.84Y-63.54
X112.65Y-71.16
X113.285Y-63.54
M30
