%TF.GenerationSoftware,KiCad,Pcbnew,10.0.1*%
%TF.CreationDate,2026-07-11T14:26:20-07:00*%
%TF.ProjectId,pi-hat,70692d68-6174-42e6-9b69-6361645f7063,rev?*%
%TF.SameCoordinates,Original*%
%TF.FileFunction,Legend,Top*%
%TF.FilePolarity,Positive*%
%FSLAX46Y46*%
G04 Gerber Fmt 4.6, Leading zero omitted, Abs format (unit mm)*
G04 Created by KiCad (PCBNEW 10.0.1) date 2026-07-11 14:26:20*
%MOMM*%
%LPD*%
G01*
G04 APERTURE LIST*
%ADD10C,0.150000*%
%ADD11C,0.254000*%
%ADD12C,0.120000*%
%ADD13C,0.200000*%
%ADD14C,0.100000*%
%ADD15C,0.000000*%
G04 APERTURE END LIST*
D10*
X121136779Y-77449931D02*
X121136779Y-76449931D01*
X121136779Y-76449931D02*
X121374874Y-76449931D01*
X121374874Y-76449931D02*
X121517731Y-76497550D01*
X121517731Y-76497550D02*
X121612969Y-76592788D01*
X121612969Y-76592788D02*
X121660588Y-76688026D01*
X121660588Y-76688026D02*
X121708207Y-76878502D01*
X121708207Y-76878502D02*
X121708207Y-77021359D01*
X121708207Y-77021359D02*
X121660588Y-77211835D01*
X121660588Y-77211835D02*
X121612969Y-77307073D01*
X121612969Y-77307073D02*
X121517731Y-77402312D01*
X121517731Y-77402312D02*
X121374874Y-77449931D01*
X121374874Y-77449931D02*
X121136779Y-77449931D01*
X122565350Y-77449931D02*
X122565350Y-76926121D01*
X122565350Y-76926121D02*
X122517731Y-76830883D01*
X122517731Y-76830883D02*
X122422493Y-76783264D01*
X122422493Y-76783264D02*
X122232017Y-76783264D01*
X122232017Y-76783264D02*
X122136779Y-76830883D01*
X122565350Y-77402312D02*
X122470112Y-77449931D01*
X122470112Y-77449931D02*
X122232017Y-77449931D01*
X122232017Y-77449931D02*
X122136779Y-77402312D01*
X122136779Y-77402312D02*
X122089160Y-77307073D01*
X122089160Y-77307073D02*
X122089160Y-77211835D01*
X122089160Y-77211835D02*
X122136779Y-77116597D01*
X122136779Y-77116597D02*
X122232017Y-77068978D01*
X122232017Y-77068978D02*
X122470112Y-77068978D01*
X122470112Y-77068978D02*
X122565350Y-77021359D01*
X123041541Y-76783264D02*
X123041541Y-77449931D01*
X123041541Y-76878502D02*
X123089160Y-76830883D01*
X123089160Y-76830883D02*
X123184398Y-76783264D01*
X123184398Y-76783264D02*
X123327255Y-76783264D01*
X123327255Y-76783264D02*
X123422493Y-76830883D01*
X123422493Y-76830883D02*
X123470112Y-76926121D01*
X123470112Y-76926121D02*
X123470112Y-77449931D01*
X124374874Y-77402312D02*
X124279636Y-77449931D01*
X124279636Y-77449931D02*
X124089160Y-77449931D01*
X124089160Y-77449931D02*
X123993922Y-77402312D01*
X123993922Y-77402312D02*
X123946303Y-77354692D01*
X123946303Y-77354692D02*
X123898684Y-77259454D01*
X123898684Y-77259454D02*
X123898684Y-76973740D01*
X123898684Y-76973740D02*
X123946303Y-76878502D01*
X123946303Y-76878502D02*
X123993922Y-76830883D01*
X123993922Y-76830883D02*
X124089160Y-76783264D01*
X124089160Y-76783264D02*
X124279636Y-76783264D01*
X124279636Y-76783264D02*
X124374874Y-76830883D01*
X125184398Y-77402312D02*
X125089160Y-77449931D01*
X125089160Y-77449931D02*
X124898684Y-77449931D01*
X124898684Y-77449931D02*
X124803446Y-77402312D01*
X124803446Y-77402312D02*
X124755827Y-77307073D01*
X124755827Y-77307073D02*
X124755827Y-76926121D01*
X124755827Y-76926121D02*
X124803446Y-76830883D01*
X124803446Y-76830883D02*
X124898684Y-76783264D01*
X124898684Y-76783264D02*
X125089160Y-76783264D01*
X125089160Y-76783264D02*
X125184398Y-76830883D01*
X125184398Y-76830883D02*
X125232017Y-76926121D01*
X125232017Y-76926121D02*
X125232017Y-77021359D01*
X125232017Y-77021359D02*
X124755827Y-77116597D01*
X125517732Y-76783264D02*
X125898684Y-76783264D01*
X125660589Y-77449931D02*
X125660589Y-76592788D01*
X125660589Y-76592788D02*
X125708208Y-76497550D01*
X125708208Y-76497550D02*
X125803446Y-76449931D01*
X125803446Y-76449931D02*
X125898684Y-76449931D01*
X126374875Y-77449931D02*
X126279637Y-77402312D01*
X126279637Y-77402312D02*
X126232018Y-77307073D01*
X126232018Y-77307073D02*
X126232018Y-76449931D01*
X126898685Y-77449931D02*
X126803447Y-77402312D01*
X126803447Y-77402312D02*
X126755828Y-77354692D01*
X126755828Y-77354692D02*
X126708209Y-77259454D01*
X126708209Y-77259454D02*
X126708209Y-76973740D01*
X126708209Y-76973740D02*
X126755828Y-76878502D01*
X126755828Y-76878502D02*
X126803447Y-76830883D01*
X126803447Y-76830883D02*
X126898685Y-76783264D01*
X126898685Y-76783264D02*
X127041542Y-76783264D01*
X127041542Y-76783264D02*
X127136780Y-76830883D01*
X127136780Y-76830883D02*
X127184399Y-76878502D01*
X127184399Y-76878502D02*
X127232018Y-76973740D01*
X127232018Y-76973740D02*
X127232018Y-77259454D01*
X127232018Y-77259454D02*
X127184399Y-77354692D01*
X127184399Y-77354692D02*
X127136780Y-77402312D01*
X127136780Y-77402312D02*
X127041542Y-77449931D01*
X127041542Y-77449931D02*
X126898685Y-77449931D01*
X127803447Y-77449931D02*
X127708209Y-77402312D01*
X127708209Y-77402312D02*
X127660590Y-77354692D01*
X127660590Y-77354692D02*
X127612971Y-77259454D01*
X127612971Y-77259454D02*
X127612971Y-76973740D01*
X127612971Y-76973740D02*
X127660590Y-76878502D01*
X127660590Y-76878502D02*
X127708209Y-76830883D01*
X127708209Y-76830883D02*
X127803447Y-76783264D01*
X127803447Y-76783264D02*
X127946304Y-76783264D01*
X127946304Y-76783264D02*
X128041542Y-76830883D01*
X128041542Y-76830883D02*
X128089161Y-76878502D01*
X128089161Y-76878502D02*
X128136780Y-76973740D01*
X128136780Y-76973740D02*
X128136780Y-77259454D01*
X128136780Y-77259454D02*
X128089161Y-77354692D01*
X128089161Y-77354692D02*
X128041542Y-77402312D01*
X128041542Y-77402312D02*
X127946304Y-77449931D01*
X127946304Y-77449931D02*
X127803447Y-77449931D01*
X128565352Y-77449931D02*
X128565352Y-76783264D01*
X128565352Y-76973740D02*
X128612971Y-76878502D01*
X128612971Y-76878502D02*
X128660590Y-76830883D01*
X128660590Y-76830883D02*
X128755828Y-76783264D01*
X128755828Y-76783264D02*
X128851066Y-76783264D01*
X130517733Y-77354692D02*
X130470114Y-77402312D01*
X130470114Y-77402312D02*
X130327257Y-77449931D01*
X130327257Y-77449931D02*
X130232019Y-77449931D01*
X130232019Y-77449931D02*
X130089162Y-77402312D01*
X130089162Y-77402312D02*
X129993924Y-77307073D01*
X129993924Y-77307073D02*
X129946305Y-77211835D01*
X129946305Y-77211835D02*
X129898686Y-77021359D01*
X129898686Y-77021359D02*
X129898686Y-76878502D01*
X129898686Y-76878502D02*
X129946305Y-76688026D01*
X129946305Y-76688026D02*
X129993924Y-76592788D01*
X129993924Y-76592788D02*
X130089162Y-76497550D01*
X130089162Y-76497550D02*
X130232019Y-76449931D01*
X130232019Y-76449931D02*
X130327257Y-76449931D01*
X130327257Y-76449931D02*
X130470114Y-76497550D01*
X130470114Y-76497550D02*
X130517733Y-76545169D01*
X131089162Y-77449931D02*
X130993924Y-77402312D01*
X130993924Y-77402312D02*
X130946305Y-77354692D01*
X130946305Y-77354692D02*
X130898686Y-77259454D01*
X130898686Y-77259454D02*
X130898686Y-76973740D01*
X130898686Y-76973740D02*
X130946305Y-76878502D01*
X130946305Y-76878502D02*
X130993924Y-76830883D01*
X130993924Y-76830883D02*
X131089162Y-76783264D01*
X131089162Y-76783264D02*
X131232019Y-76783264D01*
X131232019Y-76783264D02*
X131327257Y-76830883D01*
X131327257Y-76830883D02*
X131374876Y-76878502D01*
X131374876Y-76878502D02*
X131422495Y-76973740D01*
X131422495Y-76973740D02*
X131422495Y-77259454D01*
X131422495Y-77259454D02*
X131374876Y-77354692D01*
X131374876Y-77354692D02*
X131327257Y-77402312D01*
X131327257Y-77402312D02*
X131232019Y-77449931D01*
X131232019Y-77449931D02*
X131089162Y-77449931D01*
X131851067Y-77449931D02*
X131851067Y-76783264D01*
X131851067Y-76878502D02*
X131898686Y-76830883D01*
X131898686Y-76830883D02*
X131993924Y-76783264D01*
X131993924Y-76783264D02*
X132136781Y-76783264D01*
X132136781Y-76783264D02*
X132232019Y-76830883D01*
X132232019Y-76830883D02*
X132279638Y-76926121D01*
X132279638Y-76926121D02*
X132279638Y-77449931D01*
X132279638Y-76926121D02*
X132327257Y-76830883D01*
X132327257Y-76830883D02*
X132422495Y-76783264D01*
X132422495Y-76783264D02*
X132565352Y-76783264D01*
X132565352Y-76783264D02*
X132660591Y-76830883D01*
X132660591Y-76830883D02*
X132708210Y-76926121D01*
X132708210Y-76926121D02*
X132708210Y-77449931D01*
X133184400Y-77449931D02*
X133184400Y-76783264D01*
X133184400Y-76878502D02*
X133232019Y-76830883D01*
X133232019Y-76830883D02*
X133327257Y-76783264D01*
X133327257Y-76783264D02*
X133470114Y-76783264D01*
X133470114Y-76783264D02*
X133565352Y-76830883D01*
X133565352Y-76830883D02*
X133612971Y-76926121D01*
X133612971Y-76926121D02*
X133612971Y-77449931D01*
X133612971Y-76926121D02*
X133660590Y-76830883D01*
X133660590Y-76830883D02*
X133755828Y-76783264D01*
X133755828Y-76783264D02*
X133898685Y-76783264D01*
X133898685Y-76783264D02*
X133993924Y-76830883D01*
X133993924Y-76830883D02*
X134041543Y-76926121D01*
X134041543Y-76926121D02*
X134041543Y-77449931D01*
X134946304Y-76783264D02*
X134946304Y-77449931D01*
X134517733Y-76783264D02*
X134517733Y-77307073D01*
X134517733Y-77307073D02*
X134565352Y-77402312D01*
X134565352Y-77402312D02*
X134660590Y-77449931D01*
X134660590Y-77449931D02*
X134803447Y-77449931D01*
X134803447Y-77449931D02*
X134898685Y-77402312D01*
X134898685Y-77402312D02*
X134946304Y-77354692D01*
X135422495Y-76783264D02*
X135422495Y-77449931D01*
X135422495Y-76878502D02*
X135470114Y-76830883D01*
X135470114Y-76830883D02*
X135565352Y-76783264D01*
X135565352Y-76783264D02*
X135708209Y-76783264D01*
X135708209Y-76783264D02*
X135803447Y-76830883D01*
X135803447Y-76830883D02*
X135851066Y-76926121D01*
X135851066Y-76926121D02*
X135851066Y-77449931D01*
X136327257Y-77449931D02*
X136327257Y-76783264D01*
X136327257Y-76449931D02*
X136279638Y-76497550D01*
X136279638Y-76497550D02*
X136327257Y-76545169D01*
X136327257Y-76545169D02*
X136374876Y-76497550D01*
X136374876Y-76497550D02*
X136327257Y-76449931D01*
X136327257Y-76449931D02*
X136327257Y-76545169D01*
X137232018Y-77402312D02*
X137136780Y-77449931D01*
X137136780Y-77449931D02*
X136946304Y-77449931D01*
X136946304Y-77449931D02*
X136851066Y-77402312D01*
X136851066Y-77402312D02*
X136803447Y-77354692D01*
X136803447Y-77354692D02*
X136755828Y-77259454D01*
X136755828Y-77259454D02*
X136755828Y-76973740D01*
X136755828Y-76973740D02*
X136803447Y-76878502D01*
X136803447Y-76878502D02*
X136851066Y-76830883D01*
X136851066Y-76830883D02*
X136946304Y-76783264D01*
X136946304Y-76783264D02*
X137136780Y-76783264D01*
X137136780Y-76783264D02*
X137232018Y-76830883D01*
X138089161Y-77449931D02*
X138089161Y-76926121D01*
X138089161Y-76926121D02*
X138041542Y-76830883D01*
X138041542Y-76830883D02*
X137946304Y-76783264D01*
X137946304Y-76783264D02*
X137755828Y-76783264D01*
X137755828Y-76783264D02*
X137660590Y-76830883D01*
X138089161Y-77402312D02*
X137993923Y-77449931D01*
X137993923Y-77449931D02*
X137755828Y-77449931D01*
X137755828Y-77449931D02*
X137660590Y-77402312D01*
X137660590Y-77402312D02*
X137612971Y-77307073D01*
X137612971Y-77307073D02*
X137612971Y-77211835D01*
X137612971Y-77211835D02*
X137660590Y-77116597D01*
X137660590Y-77116597D02*
X137755828Y-77068978D01*
X137755828Y-77068978D02*
X137993923Y-77068978D01*
X137993923Y-77068978D02*
X138089161Y-77021359D01*
X138422495Y-76783264D02*
X138803447Y-76783264D01*
X138565352Y-76449931D02*
X138565352Y-77307073D01*
X138565352Y-77307073D02*
X138612971Y-77402312D01*
X138612971Y-77402312D02*
X138708209Y-77449931D01*
X138708209Y-77449931D02*
X138803447Y-77449931D01*
X139136781Y-77449931D02*
X139136781Y-76783264D01*
X139136781Y-76449931D02*
X139089162Y-76497550D01*
X139089162Y-76497550D02*
X139136781Y-76545169D01*
X139136781Y-76545169D02*
X139184400Y-76497550D01*
X139184400Y-76497550D02*
X139136781Y-76449931D01*
X139136781Y-76449931D02*
X139136781Y-76545169D01*
X139755828Y-77449931D02*
X139660590Y-77402312D01*
X139660590Y-77402312D02*
X139612971Y-77354692D01*
X139612971Y-77354692D02*
X139565352Y-77259454D01*
X139565352Y-77259454D02*
X139565352Y-76973740D01*
X139565352Y-76973740D02*
X139612971Y-76878502D01*
X139612971Y-76878502D02*
X139660590Y-76830883D01*
X139660590Y-76830883D02*
X139755828Y-76783264D01*
X139755828Y-76783264D02*
X139898685Y-76783264D01*
X139898685Y-76783264D02*
X139993923Y-76830883D01*
X139993923Y-76830883D02*
X140041542Y-76878502D01*
X140041542Y-76878502D02*
X140089161Y-76973740D01*
X140089161Y-76973740D02*
X140089161Y-77259454D01*
X140089161Y-77259454D02*
X140041542Y-77354692D01*
X140041542Y-77354692D02*
X139993923Y-77402312D01*
X139993923Y-77402312D02*
X139898685Y-77449931D01*
X139898685Y-77449931D02*
X139755828Y-77449931D01*
X140517733Y-76783264D02*
X140517733Y-77449931D01*
X140517733Y-76878502D02*
X140565352Y-76830883D01*
X140565352Y-76830883D02*
X140660590Y-76783264D01*
X140660590Y-76783264D02*
X140803447Y-76783264D01*
X140803447Y-76783264D02*
X140898685Y-76830883D01*
X140898685Y-76830883D02*
X140946304Y-76926121D01*
X140946304Y-76926121D02*
X140946304Y-77449931D01*
X141374876Y-77402312D02*
X141470114Y-77449931D01*
X141470114Y-77449931D02*
X141660590Y-77449931D01*
X141660590Y-77449931D02*
X141755828Y-77402312D01*
X141755828Y-77402312D02*
X141803447Y-77307073D01*
X141803447Y-77307073D02*
X141803447Y-77259454D01*
X141803447Y-77259454D02*
X141755828Y-77164216D01*
X141755828Y-77164216D02*
X141660590Y-77116597D01*
X141660590Y-77116597D02*
X141517733Y-77116597D01*
X141517733Y-77116597D02*
X141422495Y-77068978D01*
X141422495Y-77068978D02*
X141374876Y-76973740D01*
X141374876Y-76973740D02*
X141374876Y-76926121D01*
X141374876Y-76926121D02*
X141422495Y-76830883D01*
X141422495Y-76830883D02*
X141517733Y-76783264D01*
X141517733Y-76783264D02*
X141660590Y-76783264D01*
X141660590Y-76783264D02*
X141755828Y-76830883D01*
X121708207Y-79059875D02*
X121374874Y-78583684D01*
X121136779Y-79059875D02*
X121136779Y-78059875D01*
X121136779Y-78059875D02*
X121517731Y-78059875D01*
X121517731Y-78059875D02*
X121612969Y-78107494D01*
X121612969Y-78107494D02*
X121660588Y-78155113D01*
X121660588Y-78155113D02*
X121708207Y-78250351D01*
X121708207Y-78250351D02*
X121708207Y-78393208D01*
X121708207Y-78393208D02*
X121660588Y-78488446D01*
X121660588Y-78488446D02*
X121612969Y-78536065D01*
X121612969Y-78536065D02*
X121517731Y-78583684D01*
X121517731Y-78583684D02*
X121136779Y-78583684D01*
X122089160Y-79012256D02*
X122232017Y-79059875D01*
X122232017Y-79059875D02*
X122470112Y-79059875D01*
X122470112Y-79059875D02*
X122565350Y-79012256D01*
X122565350Y-79012256D02*
X122612969Y-78964636D01*
X122612969Y-78964636D02*
X122660588Y-78869398D01*
X122660588Y-78869398D02*
X122660588Y-78774160D01*
X122660588Y-78774160D02*
X122612969Y-78678922D01*
X122612969Y-78678922D02*
X122565350Y-78631303D01*
X122565350Y-78631303D02*
X122470112Y-78583684D01*
X122470112Y-78583684D02*
X122279636Y-78536065D01*
X122279636Y-78536065D02*
X122184398Y-78488446D01*
X122184398Y-78488446D02*
X122136779Y-78440827D01*
X122136779Y-78440827D02*
X122089160Y-78345589D01*
X122089160Y-78345589D02*
X122089160Y-78250351D01*
X122089160Y-78250351D02*
X122136779Y-78155113D01*
X122136779Y-78155113D02*
X122184398Y-78107494D01*
X122184398Y-78107494D02*
X122279636Y-78059875D01*
X122279636Y-78059875D02*
X122517731Y-78059875D01*
X122517731Y-78059875D02*
X122660588Y-78107494D01*
X123089160Y-78678922D02*
X123851065Y-78678922D01*
X124755826Y-78393208D02*
X124755826Y-79059875D01*
X124517731Y-78012256D02*
X124279636Y-78726541D01*
X124279636Y-78726541D02*
X124898683Y-78726541D01*
X125422493Y-78488446D02*
X125327255Y-78440827D01*
X125327255Y-78440827D02*
X125279636Y-78393208D01*
X125279636Y-78393208D02*
X125232017Y-78297970D01*
X125232017Y-78297970D02*
X125232017Y-78250351D01*
X125232017Y-78250351D02*
X125279636Y-78155113D01*
X125279636Y-78155113D02*
X125327255Y-78107494D01*
X125327255Y-78107494D02*
X125422493Y-78059875D01*
X125422493Y-78059875D02*
X125612969Y-78059875D01*
X125612969Y-78059875D02*
X125708207Y-78107494D01*
X125708207Y-78107494D02*
X125755826Y-78155113D01*
X125755826Y-78155113D02*
X125803445Y-78250351D01*
X125803445Y-78250351D02*
X125803445Y-78297970D01*
X125803445Y-78297970D02*
X125755826Y-78393208D01*
X125755826Y-78393208D02*
X125708207Y-78440827D01*
X125708207Y-78440827D02*
X125612969Y-78488446D01*
X125612969Y-78488446D02*
X125422493Y-78488446D01*
X125422493Y-78488446D02*
X125327255Y-78536065D01*
X125327255Y-78536065D02*
X125279636Y-78583684D01*
X125279636Y-78583684D02*
X125232017Y-78678922D01*
X125232017Y-78678922D02*
X125232017Y-78869398D01*
X125232017Y-78869398D02*
X125279636Y-78964636D01*
X125279636Y-78964636D02*
X125327255Y-79012256D01*
X125327255Y-79012256D02*
X125422493Y-79059875D01*
X125422493Y-79059875D02*
X125612969Y-79059875D01*
X125612969Y-79059875D02*
X125708207Y-79012256D01*
X125708207Y-79012256D02*
X125755826Y-78964636D01*
X125755826Y-78964636D02*
X125803445Y-78869398D01*
X125803445Y-78869398D02*
X125803445Y-78678922D01*
X125803445Y-78678922D02*
X125755826Y-78583684D01*
X125755826Y-78583684D02*
X125708207Y-78536065D01*
X125708207Y-78536065D02*
X125612969Y-78488446D01*
X126708207Y-78059875D02*
X126232017Y-78059875D01*
X126232017Y-78059875D02*
X126184398Y-78536065D01*
X126184398Y-78536065D02*
X126232017Y-78488446D01*
X126232017Y-78488446D02*
X126327255Y-78440827D01*
X126327255Y-78440827D02*
X126565350Y-78440827D01*
X126565350Y-78440827D02*
X126660588Y-78488446D01*
X126660588Y-78488446D02*
X126708207Y-78536065D01*
X126708207Y-78536065D02*
X126755826Y-78631303D01*
X126755826Y-78631303D02*
X126755826Y-78869398D01*
X126755826Y-78869398D02*
X126708207Y-78964636D01*
X126708207Y-78964636D02*
X126660588Y-79012256D01*
X126660588Y-79012256D02*
X126565350Y-79059875D01*
X126565350Y-79059875D02*
X126327255Y-79059875D01*
X126327255Y-79059875D02*
X126232017Y-79012256D01*
X126232017Y-79012256D02*
X126184398Y-78964636D01*
X121089160Y-79765057D02*
X121136779Y-79717438D01*
X121136779Y-79717438D02*
X121232017Y-79669819D01*
X121232017Y-79669819D02*
X121470112Y-79669819D01*
X121470112Y-79669819D02*
X121565350Y-79717438D01*
X121565350Y-79717438D02*
X121612969Y-79765057D01*
X121612969Y-79765057D02*
X121660588Y-79860295D01*
X121660588Y-79860295D02*
X121660588Y-79955533D01*
X121660588Y-79955533D02*
X121612969Y-80098390D01*
X121612969Y-80098390D02*
X121041541Y-80669819D01*
X121041541Y-80669819D02*
X121660588Y-80669819D01*
X122279636Y-79669819D02*
X122374874Y-79669819D01*
X122374874Y-79669819D02*
X122470112Y-79717438D01*
X122470112Y-79717438D02*
X122517731Y-79765057D01*
X122517731Y-79765057D02*
X122565350Y-79860295D01*
X122565350Y-79860295D02*
X122612969Y-80050771D01*
X122612969Y-80050771D02*
X122612969Y-80288866D01*
X122612969Y-80288866D02*
X122565350Y-80479342D01*
X122565350Y-80479342D02*
X122517731Y-80574580D01*
X122517731Y-80574580D02*
X122470112Y-80622200D01*
X122470112Y-80622200D02*
X122374874Y-80669819D01*
X122374874Y-80669819D02*
X122279636Y-80669819D01*
X122279636Y-80669819D02*
X122184398Y-80622200D01*
X122184398Y-80622200D02*
X122136779Y-80574580D01*
X122136779Y-80574580D02*
X122089160Y-80479342D01*
X122089160Y-80479342D02*
X122041541Y-80288866D01*
X122041541Y-80288866D02*
X122041541Y-80050771D01*
X122041541Y-80050771D02*
X122089160Y-79860295D01*
X122089160Y-79860295D02*
X122136779Y-79765057D01*
X122136779Y-79765057D02*
X122184398Y-79717438D01*
X122184398Y-79717438D02*
X122279636Y-79669819D01*
X122993922Y-79765057D02*
X123041541Y-79717438D01*
X123041541Y-79717438D02*
X123136779Y-79669819D01*
X123136779Y-79669819D02*
X123374874Y-79669819D01*
X123374874Y-79669819D02*
X123470112Y-79717438D01*
X123470112Y-79717438D02*
X123517731Y-79765057D01*
X123517731Y-79765057D02*
X123565350Y-79860295D01*
X123565350Y-79860295D02*
X123565350Y-79955533D01*
X123565350Y-79955533D02*
X123517731Y-80098390D01*
X123517731Y-80098390D02*
X122946303Y-80669819D01*
X122946303Y-80669819D02*
X123565350Y-80669819D01*
X124422493Y-79669819D02*
X124232017Y-79669819D01*
X124232017Y-79669819D02*
X124136779Y-79717438D01*
X124136779Y-79717438D02*
X124089160Y-79765057D01*
X124089160Y-79765057D02*
X123993922Y-79907914D01*
X123993922Y-79907914D02*
X123946303Y-80098390D01*
X123946303Y-80098390D02*
X123946303Y-80479342D01*
X123946303Y-80479342D02*
X123993922Y-80574580D01*
X123993922Y-80574580D02*
X124041541Y-80622200D01*
X124041541Y-80622200D02*
X124136779Y-80669819D01*
X124136779Y-80669819D02*
X124327255Y-80669819D01*
X124327255Y-80669819D02*
X124422493Y-80622200D01*
X124422493Y-80622200D02*
X124470112Y-80574580D01*
X124470112Y-80574580D02*
X124517731Y-80479342D01*
X124517731Y-80479342D02*
X124517731Y-80241247D01*
X124517731Y-80241247D02*
X124470112Y-80146009D01*
X124470112Y-80146009D02*
X124422493Y-80098390D01*
X124422493Y-80098390D02*
X124327255Y-80050771D01*
X124327255Y-80050771D02*
X124136779Y-80050771D01*
X124136779Y-80050771D02*
X124041541Y-80098390D01*
X124041541Y-80098390D02*
X123993922Y-80146009D01*
X123993922Y-80146009D02*
X123946303Y-80241247D01*
X124946303Y-80288866D02*
X125708208Y-80288866D01*
X126374874Y-79669819D02*
X126470112Y-79669819D01*
X126470112Y-79669819D02*
X126565350Y-79717438D01*
X126565350Y-79717438D02*
X126612969Y-79765057D01*
X126612969Y-79765057D02*
X126660588Y-79860295D01*
X126660588Y-79860295D02*
X126708207Y-80050771D01*
X126708207Y-80050771D02*
X126708207Y-80288866D01*
X126708207Y-80288866D02*
X126660588Y-80479342D01*
X126660588Y-80479342D02*
X126612969Y-80574580D01*
X126612969Y-80574580D02*
X126565350Y-80622200D01*
X126565350Y-80622200D02*
X126470112Y-80669819D01*
X126470112Y-80669819D02*
X126374874Y-80669819D01*
X126374874Y-80669819D02*
X126279636Y-80622200D01*
X126279636Y-80622200D02*
X126232017Y-80574580D01*
X126232017Y-80574580D02*
X126184398Y-80479342D01*
X126184398Y-80479342D02*
X126136779Y-80288866D01*
X126136779Y-80288866D02*
X126136779Y-80050771D01*
X126136779Y-80050771D02*
X126184398Y-79860295D01*
X126184398Y-79860295D02*
X126232017Y-79765057D01*
X126232017Y-79765057D02*
X126279636Y-79717438D01*
X126279636Y-79717438D02*
X126374874Y-79669819D01*
X127041541Y-79669819D02*
X127708207Y-79669819D01*
X127708207Y-79669819D02*
X127279636Y-80669819D01*
X128089160Y-80288866D02*
X128851065Y-80288866D01*
X129851064Y-80669819D02*
X129279636Y-80669819D01*
X129565350Y-80669819D02*
X129565350Y-79669819D01*
X129565350Y-79669819D02*
X129470112Y-79812676D01*
X129470112Y-79812676D02*
X129374874Y-79907914D01*
X129374874Y-79907914D02*
X129279636Y-79955533D01*
X130803445Y-80669819D02*
X130232017Y-80669819D01*
X130517731Y-80669819D02*
X130517731Y-79669819D01*
X130517731Y-79669819D02*
X130422493Y-79812676D01*
X130422493Y-79812676D02*
X130327255Y-79907914D01*
X130327255Y-79907914D02*
X130232017Y-79955533D01*
X131898684Y-80003152D02*
X132136779Y-80669819D01*
X132136779Y-80669819D02*
X132374874Y-80003152D01*
X133279636Y-80669819D02*
X132708208Y-80669819D01*
X132993922Y-80669819D02*
X132993922Y-79669819D01*
X132993922Y-79669819D02*
X132898684Y-79812676D01*
X132898684Y-79812676D02*
X132803446Y-79907914D01*
X132803446Y-79907914D02*
X132708208Y-79955533D01*
X133708208Y-80574580D02*
X133755827Y-80622200D01*
X133755827Y-80622200D02*
X133708208Y-80669819D01*
X133708208Y-80669819D02*
X133660589Y-80622200D01*
X133660589Y-80622200D02*
X133708208Y-80574580D01*
X133708208Y-80574580D02*
X133708208Y-80669819D01*
X134374874Y-79669819D02*
X134470112Y-79669819D01*
X134470112Y-79669819D02*
X134565350Y-79717438D01*
X134565350Y-79717438D02*
X134612969Y-79765057D01*
X134612969Y-79765057D02*
X134660588Y-79860295D01*
X134660588Y-79860295D02*
X134708207Y-80050771D01*
X134708207Y-80050771D02*
X134708207Y-80288866D01*
X134708207Y-80288866D02*
X134660588Y-80479342D01*
X134660588Y-80479342D02*
X134612969Y-80574580D01*
X134612969Y-80574580D02*
X134565350Y-80622200D01*
X134565350Y-80622200D02*
X134470112Y-80669819D01*
X134470112Y-80669819D02*
X134374874Y-80669819D01*
X134374874Y-80669819D02*
X134279636Y-80622200D01*
X134279636Y-80622200D02*
X134232017Y-80574580D01*
X134232017Y-80574580D02*
X134184398Y-80479342D01*
X134184398Y-80479342D02*
X134136779Y-80288866D01*
X134136779Y-80288866D02*
X134136779Y-80050771D01*
X134136779Y-80050771D02*
X134184398Y-79860295D01*
X134184398Y-79860295D02*
X134232017Y-79765057D01*
X134232017Y-79765057D02*
X134279636Y-79717438D01*
X134279636Y-79717438D02*
X134374874Y-79669819D01*
X129559580Y-54466666D02*
X129607200Y-54514285D01*
X129607200Y-54514285D02*
X129654819Y-54657142D01*
X129654819Y-54657142D02*
X129654819Y-54752380D01*
X129654819Y-54752380D02*
X129607200Y-54895237D01*
X129607200Y-54895237D02*
X129511961Y-54990475D01*
X129511961Y-54990475D02*
X129416723Y-55038094D01*
X129416723Y-55038094D02*
X129226247Y-55085713D01*
X129226247Y-55085713D02*
X129083390Y-55085713D01*
X129083390Y-55085713D02*
X128892914Y-55038094D01*
X128892914Y-55038094D02*
X128797676Y-54990475D01*
X128797676Y-54990475D02*
X128702438Y-54895237D01*
X128702438Y-54895237D02*
X128654819Y-54752380D01*
X128654819Y-54752380D02*
X128654819Y-54657142D01*
X128654819Y-54657142D02*
X128702438Y-54514285D01*
X128702438Y-54514285D02*
X128750057Y-54466666D01*
X128654819Y-53561904D02*
X128654819Y-54038094D01*
X128654819Y-54038094D02*
X129131009Y-54085713D01*
X129131009Y-54085713D02*
X129083390Y-54038094D01*
X129083390Y-54038094D02*
X129035771Y-53942856D01*
X129035771Y-53942856D02*
X129035771Y-53704761D01*
X129035771Y-53704761D02*
X129083390Y-53609523D01*
X129083390Y-53609523D02*
X129131009Y-53561904D01*
X129131009Y-53561904D02*
X129226247Y-53514285D01*
X129226247Y-53514285D02*
X129464342Y-53514285D01*
X129464342Y-53514285D02*
X129559580Y-53561904D01*
X129559580Y-53561904D02*
X129607200Y-53609523D01*
X129607200Y-53609523D02*
X129654819Y-53704761D01*
X129654819Y-53704761D02*
X129654819Y-53942856D01*
X129654819Y-53942856D02*
X129607200Y-54038094D01*
X129607200Y-54038094D02*
X129559580Y-54085713D01*
X138454819Y-66266666D02*
X137978628Y-66599999D01*
X138454819Y-66838094D02*
X137454819Y-66838094D01*
X137454819Y-66838094D02*
X137454819Y-66457142D01*
X137454819Y-66457142D02*
X137502438Y-66361904D01*
X137502438Y-66361904D02*
X137550057Y-66314285D01*
X137550057Y-66314285D02*
X137645295Y-66266666D01*
X137645295Y-66266666D02*
X137788152Y-66266666D01*
X137788152Y-66266666D02*
X137883390Y-66314285D01*
X137883390Y-66314285D02*
X137931009Y-66361904D01*
X137931009Y-66361904D02*
X137978628Y-66457142D01*
X137978628Y-66457142D02*
X137978628Y-66838094D01*
X137788152Y-65409523D02*
X138454819Y-65409523D01*
X137407200Y-65647618D02*
X138121485Y-65885713D01*
X138121485Y-65885713D02*
X138121485Y-65266666D01*
X141754819Y-66266666D02*
X141278628Y-66599999D01*
X141754819Y-66838094D02*
X140754819Y-66838094D01*
X140754819Y-66838094D02*
X140754819Y-66457142D01*
X140754819Y-66457142D02*
X140802438Y-66361904D01*
X140802438Y-66361904D02*
X140850057Y-66314285D01*
X140850057Y-66314285D02*
X140945295Y-66266666D01*
X140945295Y-66266666D02*
X141088152Y-66266666D01*
X141088152Y-66266666D02*
X141183390Y-66314285D01*
X141183390Y-66314285D02*
X141231009Y-66361904D01*
X141231009Y-66361904D02*
X141278628Y-66457142D01*
X141278628Y-66457142D02*
X141278628Y-66838094D01*
X140754819Y-65933332D02*
X140754819Y-65314285D01*
X140754819Y-65314285D02*
X141135771Y-65647618D01*
X141135771Y-65647618D02*
X141135771Y-65504761D01*
X141135771Y-65504761D02*
X141183390Y-65409523D01*
X141183390Y-65409523D02*
X141231009Y-65361904D01*
X141231009Y-65361904D02*
X141326247Y-65314285D01*
X141326247Y-65314285D02*
X141564342Y-65314285D01*
X141564342Y-65314285D02*
X141659580Y-65361904D01*
X141659580Y-65361904D02*
X141707200Y-65409523D01*
X141707200Y-65409523D02*
X141754819Y-65504761D01*
X141754819Y-65504761D02*
X141754819Y-65790475D01*
X141754819Y-65790475D02*
X141707200Y-65885713D01*
X141707200Y-65885713D02*
X141659580Y-65933332D01*
D11*
X104804318Y-67623332D02*
X105711461Y-67623332D01*
X105711461Y-67623332D02*
X105892889Y-67683809D01*
X105892889Y-67683809D02*
X106013842Y-67804761D01*
X106013842Y-67804761D02*
X106074318Y-67986190D01*
X106074318Y-67986190D02*
X106074318Y-68107142D01*
X104804318Y-67139523D02*
X104804318Y-66353332D01*
X104804318Y-66353332D02*
X105288127Y-66776666D01*
X105288127Y-66776666D02*
X105288127Y-66595237D01*
X105288127Y-66595237D02*
X105348603Y-66474285D01*
X105348603Y-66474285D02*
X105409080Y-66413809D01*
X105409080Y-66413809D02*
X105530032Y-66353332D01*
X105530032Y-66353332D02*
X105832413Y-66353332D01*
X105832413Y-66353332D02*
X105953365Y-66413809D01*
X105953365Y-66413809D02*
X106013842Y-66474285D01*
X106013842Y-66474285D02*
X106074318Y-66595237D01*
X106074318Y-66595237D02*
X106074318Y-66958094D01*
X106074318Y-66958094D02*
X106013842Y-67079047D01*
X106013842Y-67079047D02*
X105953365Y-67139523D01*
D10*
X131759580Y-54466666D02*
X131807200Y-54514285D01*
X131807200Y-54514285D02*
X131854819Y-54657142D01*
X131854819Y-54657142D02*
X131854819Y-54752380D01*
X131854819Y-54752380D02*
X131807200Y-54895237D01*
X131807200Y-54895237D02*
X131711961Y-54990475D01*
X131711961Y-54990475D02*
X131616723Y-55038094D01*
X131616723Y-55038094D02*
X131426247Y-55085713D01*
X131426247Y-55085713D02*
X131283390Y-55085713D01*
X131283390Y-55085713D02*
X131092914Y-55038094D01*
X131092914Y-55038094D02*
X130997676Y-54990475D01*
X130997676Y-54990475D02*
X130902438Y-54895237D01*
X130902438Y-54895237D02*
X130854819Y-54752380D01*
X130854819Y-54752380D02*
X130854819Y-54657142D01*
X130854819Y-54657142D02*
X130902438Y-54514285D01*
X130902438Y-54514285D02*
X130950057Y-54466666D01*
X130854819Y-53609523D02*
X130854819Y-53799999D01*
X130854819Y-53799999D02*
X130902438Y-53895237D01*
X130902438Y-53895237D02*
X130950057Y-53942856D01*
X130950057Y-53942856D02*
X131092914Y-54038094D01*
X131092914Y-54038094D02*
X131283390Y-54085713D01*
X131283390Y-54085713D02*
X131664342Y-54085713D01*
X131664342Y-54085713D02*
X131759580Y-54038094D01*
X131759580Y-54038094D02*
X131807200Y-53990475D01*
X131807200Y-53990475D02*
X131854819Y-53895237D01*
X131854819Y-53895237D02*
X131854819Y-53704761D01*
X131854819Y-53704761D02*
X131807200Y-53609523D01*
X131807200Y-53609523D02*
X131759580Y-53561904D01*
X131759580Y-53561904D02*
X131664342Y-53514285D01*
X131664342Y-53514285D02*
X131426247Y-53514285D01*
X131426247Y-53514285D02*
X131331009Y-53561904D01*
X131331009Y-53561904D02*
X131283390Y-53609523D01*
X131283390Y-53609523D02*
X131235771Y-53704761D01*
X131235771Y-53704761D02*
X131235771Y-53895237D01*
X131235771Y-53895237D02*
X131283390Y-53990475D01*
X131283390Y-53990475D02*
X131331009Y-54038094D01*
X131331009Y-54038094D02*
X131426247Y-54085713D01*
D12*
X128465000Y-57661252D02*
X128465000Y-57138748D01*
X129935000Y-57661252D02*
X129935000Y-57138748D01*
X137265000Y-63427064D02*
X137265000Y-62972936D01*
X138735000Y-63427064D02*
X138735000Y-62972936D01*
X140565000Y-62972936D02*
X140565000Y-63427064D01*
X142035000Y-62972936D02*
X142035000Y-63427064D01*
D13*
X99950000Y-54550000D02*
X99950000Y-79850000D01*
X99950000Y-79850000D02*
X118100000Y-79850000D01*
D14*
D15*
X112650000Y-80360000D02*
X112649999Y-80360000D01*
X112649999Y-80360000D01*
X112649999Y-80360000D01*
X112649999Y-80360000D01*
X112649999Y-80360000D01*
X112649999Y-80360000D01*
X112649999Y-80360000D01*
X112649999Y-80359999D01*
X112649999Y-80359999D01*
X112649999Y-80359999D01*
X112649999Y-80359999D01*
X112649999Y-80359999D01*
X112650000Y-80359999D01*
X112650000Y-80359999D01*
X112650000Y-80359999D01*
X112650000Y-80359999D01*
X112650000Y-80359999D01*
X112650000Y-80359999D01*
X112650000Y-80359999D01*
X112650000Y-80359999D01*
X112650000Y-80359999D01*
X112650000Y-80359999D01*
X112650000Y-80359999D01*
X112650000Y-80359999D01*
X112650001Y-80359999D01*
X112650001Y-80359999D01*
X112650001Y-80359999D01*
X112650001Y-80359999D01*
X112650001Y-80359999D01*
X112650001Y-80359999D01*
X112650001Y-80360000D01*
X112650001Y-80360000D01*
X112650001Y-80360000D01*
X112650001Y-80360000D01*
X112650001Y-80360000D01*
X112650001Y-80360000D01*
X112650001Y-80360000D01*
X112650000Y-80360000D01*
X112650000Y-80360000D02*
X112650001Y-80360000D01*
X112650001Y-80360000D01*
X112650001Y-80360000D01*
X112650001Y-80360000D01*
X112650001Y-80360000D01*
X112650001Y-80360000D01*
X112650001Y-80360001D01*
X112650001Y-80360001D01*
X112650001Y-80360001D01*
X112650001Y-80360001D01*
X112650001Y-80360001D01*
X112650001Y-80360001D01*
X112650001Y-80360001D01*
X112650000Y-80360001D01*
X112650000Y-80360001D01*
X112650000Y-80360001D01*
X112650000Y-80360001D01*
X112650000Y-80360001D01*
X112650000Y-80360001D01*
X112650000Y-80360001D01*
X112650000Y-80360001D01*
X112650000Y-80360001D01*
X112650000Y-80360001D01*
X112650000Y-80360001D01*
X112650000Y-80360001D01*
X112649999Y-80360001D01*
X112649999Y-80360001D01*
X112649999Y-80360001D01*
X112649999Y-80360001D01*
X112649999Y-80360001D01*
X112649999Y-80360001D01*
X112649999Y-80360000D01*
X112649999Y-80360000D01*
X112649999Y-80360000D01*
X112649999Y-80360000D01*
X112649999Y-80360000D01*
X112649999Y-80360000D01*
X112650000Y-80360000D01*
D14*
D15*
X112650000Y-80460000D02*
X112649999Y-80460000D01*
X112649999Y-80460000D01*
X112649999Y-80460000D01*
X112649999Y-80460000D01*
X112649999Y-80460000D01*
X112649999Y-80460000D01*
X112649999Y-80460000D01*
X112649999Y-80459999D01*
X112649999Y-80459999D01*
X112649999Y-80459999D01*
X112649999Y-80459999D01*
X112649999Y-80459999D01*
X112650000Y-80459999D01*
X112650000Y-80459999D01*
X112650000Y-80459999D01*
X112650000Y-80459999D01*
X112650000Y-80459999D01*
X112650000Y-80459999D01*
X112650000Y-80459999D01*
X112650000Y-80459999D01*
X112650000Y-80459999D01*
X112650000Y-80459999D01*
X112650000Y-80459999D01*
X112650000Y-80459999D01*
X112650001Y-80459999D01*
X112650001Y-80459999D01*
X112650001Y-80459999D01*
X112650001Y-80459999D01*
X112650001Y-80459999D01*
X112650001Y-80459999D01*
X112650001Y-80460000D01*
X112650001Y-80460000D01*
X112650001Y-80460000D01*
X112650001Y-80460000D01*
X112650001Y-80460000D01*
X112650001Y-80460000D01*
X112650001Y-80460000D01*
X112650000Y-80460000D01*
X112650000Y-80460000D02*
X112650001Y-80460000D01*
X112650001Y-80460000D01*
X112650001Y-80460000D01*
X112650001Y-80460000D01*
X112650001Y-80460000D01*
X112650001Y-80460000D01*
X112650001Y-80460001D01*
X112650001Y-80460001D01*
X112650001Y-80460001D01*
X112650001Y-80460001D01*
X112650001Y-80460001D01*
X112650001Y-80460001D01*
X112650001Y-80460001D01*
X112650000Y-80460001D01*
X112650000Y-80460001D01*
X112650000Y-80460001D01*
X112650000Y-80460001D01*
X112650000Y-80460001D01*
X112650000Y-80460001D01*
X112650000Y-80460001D01*
X112650000Y-80460001D01*
X112650000Y-80460001D01*
X112650000Y-80460001D01*
X112650000Y-80460001D01*
X112650000Y-80460001D01*
X112649999Y-80460001D01*
X112649999Y-80460001D01*
X112649999Y-80460001D01*
X112649999Y-80460001D01*
X112649999Y-80460001D01*
X112649999Y-80460001D01*
X112649999Y-80460000D01*
X112649999Y-80460000D01*
X112649999Y-80460000D01*
X112649999Y-80460000D01*
X112649999Y-80460000D01*
X112649999Y-80460000D01*
X112650000Y-80460000D01*
D13*
X118100000Y-54560000D02*
X99950000Y-54550000D01*
X118100000Y-65960000D02*
X118100000Y-54560000D01*
X118100000Y-79850000D02*
X118100000Y-68560000D01*
D14*
X112650000Y-80360000D02*
G75*
G02*
X112650000Y-80460000I0J-50000D01*
G01*
X112650000Y-80460000D02*
G75*
G02*
X112650000Y-80360000I0J50000D01*
G01*
D12*
X130665000Y-57661252D02*
X130665000Y-57138748D01*
X132135000Y-57661252D02*
X132135000Y-57138748D01*
M02*
