%TF.GenerationSoftware,KiCad,Pcbnew,10.0.1*%
%TF.CreationDate,2026-07-11T14:26:20-07:00*%
%TF.ProjectId,pi-hat,70692d68-6174-42e6-9b69-6361645f7063,rev?*%
%TF.SameCoordinates,Original*%
%TF.FileFunction,Legend,Bot*%
%TF.FilePolarity,Positive*%
%FSLAX46Y46*%
G04 Gerber Fmt 4.6, Leading zero omitted, Abs format (unit mm)*
G04 Created by KiCad (PCBNEW 10.0.1) date 2026-07-11 14:26:20*
%MOMM*%
%LPD*%
G01*
G04 APERTURE LIST*
%ADD10C,0.150000*%
%ADD11C,0.254000*%
%ADD12C,0.120000*%
%ADD13C,0.200000*%
G04 APERTURE END LIST*
D10*
X108703333Y-50724819D02*
X108703333Y-51439104D01*
X108703333Y-51439104D02*
X108750952Y-51581961D01*
X108750952Y-51581961D02*
X108846190Y-51677200D01*
X108846190Y-51677200D02*
X108989047Y-51724819D01*
X108989047Y-51724819D02*
X109084285Y-51724819D01*
X107703333Y-51724819D02*
X108274761Y-51724819D01*
X107989047Y-51724819D02*
X107989047Y-50724819D01*
X107989047Y-50724819D02*
X108084285Y-50867676D01*
X108084285Y-50867676D02*
X108179523Y-50962914D01*
X108179523Y-50962914D02*
X108274761Y-51010533D01*
D11*
X136989762Y-63224318D02*
X136989762Y-61954318D01*
X135659285Y-63103365D02*
X135719761Y-63163842D01*
X135719761Y-63163842D02*
X135901190Y-63224318D01*
X135901190Y-63224318D02*
X136022142Y-63224318D01*
X136022142Y-63224318D02*
X136203571Y-63163842D01*
X136203571Y-63163842D02*
X136324523Y-63042889D01*
X136324523Y-63042889D02*
X136385000Y-62921937D01*
X136385000Y-62921937D02*
X136445476Y-62680032D01*
X136445476Y-62680032D02*
X136445476Y-62498603D01*
X136445476Y-62498603D02*
X136385000Y-62256699D01*
X136385000Y-62256699D02*
X136324523Y-62135746D01*
X136324523Y-62135746D02*
X136203571Y-62014794D01*
X136203571Y-62014794D02*
X136022142Y-61954318D01*
X136022142Y-61954318D02*
X135901190Y-61954318D01*
X135901190Y-61954318D02*
X135719761Y-62014794D01*
X135719761Y-62014794D02*
X135659285Y-62075270D01*
X135235952Y-61954318D02*
X134449761Y-61954318D01*
X134449761Y-61954318D02*
X134873095Y-62438127D01*
X134873095Y-62438127D02*
X134691666Y-62438127D01*
X134691666Y-62438127D02*
X134570714Y-62498603D01*
X134570714Y-62498603D02*
X134510238Y-62559080D01*
X134510238Y-62559080D02*
X134449761Y-62680032D01*
X134449761Y-62680032D02*
X134449761Y-62982413D01*
X134449761Y-62982413D02*
X134510238Y-63103365D01*
X134510238Y-63103365D02*
X134570714Y-63163842D01*
X134570714Y-63163842D02*
X134691666Y-63224318D01*
X134691666Y-63224318D02*
X135054523Y-63224318D01*
X135054523Y-63224318D02*
X135175476Y-63163842D01*
X135175476Y-63163842D02*
X135235952Y-63103365D01*
D10*
X125854819Y-65957142D02*
X125378628Y-65623809D01*
X125854819Y-65385714D02*
X124854819Y-65385714D01*
X124854819Y-65385714D02*
X124854819Y-65766666D01*
X124854819Y-65766666D02*
X124902438Y-65861904D01*
X124902438Y-65861904D02*
X124950057Y-65909523D01*
X124950057Y-65909523D02*
X125045295Y-65957142D01*
X125045295Y-65957142D02*
X125188152Y-65957142D01*
X125188152Y-65957142D02*
X125283390Y-65909523D01*
X125283390Y-65909523D02*
X125331009Y-65861904D01*
X125331009Y-65861904D02*
X125378628Y-65766666D01*
X125378628Y-65766666D02*
X125378628Y-65385714D01*
X125854819Y-66909523D02*
X125854819Y-66338095D01*
X125854819Y-66623809D02*
X124854819Y-66623809D01*
X124854819Y-66623809D02*
X124997676Y-66528571D01*
X124997676Y-66528571D02*
X125092914Y-66433333D01*
X125092914Y-66433333D02*
X125140533Y-66338095D01*
X124854819Y-67242857D02*
X124854819Y-67861904D01*
X124854819Y-67861904D02*
X125235771Y-67528571D01*
X125235771Y-67528571D02*
X125235771Y-67671428D01*
X125235771Y-67671428D02*
X125283390Y-67766666D01*
X125283390Y-67766666D02*
X125331009Y-67814285D01*
X125331009Y-67814285D02*
X125426247Y-67861904D01*
X125426247Y-67861904D02*
X125664342Y-67861904D01*
X125664342Y-67861904D02*
X125759580Y-67814285D01*
X125759580Y-67814285D02*
X125807200Y-67766666D01*
X125807200Y-67766666D02*
X125854819Y-67671428D01*
X125854819Y-67671428D02*
X125854819Y-67385714D01*
X125854819Y-67385714D02*
X125807200Y-67290476D01*
X125807200Y-67290476D02*
X125759580Y-67242857D01*
X129792857Y-59724819D02*
X130126190Y-59248628D01*
X130364285Y-59724819D02*
X130364285Y-58724819D01*
X130364285Y-58724819D02*
X129983333Y-58724819D01*
X129983333Y-58724819D02*
X129888095Y-58772438D01*
X129888095Y-58772438D02*
X129840476Y-58820057D01*
X129840476Y-58820057D02*
X129792857Y-58915295D01*
X129792857Y-58915295D02*
X129792857Y-59058152D01*
X129792857Y-59058152D02*
X129840476Y-59153390D01*
X129840476Y-59153390D02*
X129888095Y-59201009D01*
X129888095Y-59201009D02*
X129983333Y-59248628D01*
X129983333Y-59248628D02*
X130364285Y-59248628D01*
X128840476Y-59724819D02*
X129411904Y-59724819D01*
X129126190Y-59724819D02*
X129126190Y-58724819D01*
X129126190Y-58724819D02*
X129221428Y-58867676D01*
X129221428Y-58867676D02*
X129316666Y-58962914D01*
X129316666Y-58962914D02*
X129411904Y-59010533D01*
X127888095Y-59724819D02*
X128459523Y-59724819D01*
X128173809Y-59724819D02*
X128173809Y-58724819D01*
X128173809Y-58724819D02*
X128269047Y-58867676D01*
X128269047Y-58867676D02*
X128364285Y-58962914D01*
X128364285Y-58962914D02*
X128459523Y-59010533D01*
X129842857Y-66554819D02*
X130176190Y-66078628D01*
X130414285Y-66554819D02*
X130414285Y-65554819D01*
X130414285Y-65554819D02*
X130033333Y-65554819D01*
X130033333Y-65554819D02*
X129938095Y-65602438D01*
X129938095Y-65602438D02*
X129890476Y-65650057D01*
X129890476Y-65650057D02*
X129842857Y-65745295D01*
X129842857Y-65745295D02*
X129842857Y-65888152D01*
X129842857Y-65888152D02*
X129890476Y-65983390D01*
X129890476Y-65983390D02*
X129938095Y-66031009D01*
X129938095Y-66031009D02*
X130033333Y-66078628D01*
X130033333Y-66078628D02*
X130414285Y-66078628D01*
X128890476Y-66554819D02*
X129461904Y-66554819D01*
X129176190Y-66554819D02*
X129176190Y-65554819D01*
X129176190Y-65554819D02*
X129271428Y-65697676D01*
X129271428Y-65697676D02*
X129366666Y-65792914D01*
X129366666Y-65792914D02*
X129461904Y-65840533D01*
X128509523Y-65650057D02*
X128461904Y-65602438D01*
X128461904Y-65602438D02*
X128366666Y-65554819D01*
X128366666Y-65554819D02*
X128128571Y-65554819D01*
X128128571Y-65554819D02*
X128033333Y-65602438D01*
X128033333Y-65602438D02*
X127985714Y-65650057D01*
X127985714Y-65650057D02*
X127938095Y-65745295D01*
X127938095Y-65745295D02*
X127938095Y-65840533D01*
X127938095Y-65840533D02*
X127985714Y-65983390D01*
X127985714Y-65983390D02*
X128557142Y-66554819D01*
X128557142Y-66554819D02*
X127938095Y-66554819D01*
D11*
X123037381Y-60574318D02*
X123037381Y-59304318D01*
X123037381Y-59304318D02*
X122735000Y-59304318D01*
X122735000Y-59304318D02*
X122553571Y-59364794D01*
X122553571Y-59364794D02*
X122432619Y-59485746D01*
X122432619Y-59485746D02*
X122372142Y-59606699D01*
X122372142Y-59606699D02*
X122311666Y-59848603D01*
X122311666Y-59848603D02*
X122311666Y-60030032D01*
X122311666Y-60030032D02*
X122372142Y-60271937D01*
X122372142Y-60271937D02*
X122432619Y-60392889D01*
X122432619Y-60392889D02*
X122553571Y-60513842D01*
X122553571Y-60513842D02*
X122735000Y-60574318D01*
X122735000Y-60574318D02*
X123037381Y-60574318D01*
X121223095Y-59727651D02*
X121223095Y-60574318D01*
X121525476Y-59243842D02*
X121827857Y-60150984D01*
X121827857Y-60150984D02*
X121041666Y-60150984D01*
D12*
X107040000Y-44900000D02*
X107040000Y-47500000D01*
X107040000Y-44900000D02*
X157960000Y-44900000D01*
X107040000Y-47500000D02*
X109640000Y-47500000D01*
X107040000Y-48770000D02*
X107040000Y-50100000D01*
X107040000Y-50100000D02*
X108370000Y-50100000D01*
X109640000Y-47500000D02*
X109640000Y-50100000D01*
X109640000Y-50100000D02*
X157960000Y-50100000D01*
X157960000Y-44900000D02*
X157960000Y-50100000D01*
D13*
X134152000Y-60198000D02*
X134152000Y-65102000D01*
X134152000Y-65102000D02*
X137348000Y-65102000D01*
X137348000Y-60198000D02*
X134152000Y-60198000D01*
X137348000Y-65102000D02*
X137348000Y-60198000D01*
X139225000Y-60070000D02*
X137698000Y-60070000D01*
D12*
X124440000Y-63377064D02*
X124440000Y-61922936D01*
X126260000Y-63377064D02*
X126260000Y-61922936D01*
X129877064Y-60190000D02*
X128422936Y-60190000D01*
X129877064Y-62010000D02*
X128422936Y-62010000D01*
X129877064Y-63290000D02*
X128422936Y-63290000D01*
X129877064Y-65110000D02*
X128422936Y-65110000D01*
D13*
X120425000Y-64150000D02*
X121675000Y-64150000D01*
X122025000Y-61200000D02*
X122025000Y-64100000D01*
X122025000Y-64100000D02*
X122075000Y-64100000D01*
X122075000Y-61200000D02*
X122025000Y-61200000D01*
X122075000Y-64100000D02*
X122075000Y-61200000D01*
M02*
