%TF.GenerationSoftware,KiCad,Pcbnew,10.0.1*%
%TF.CreationDate,2026-07-11T14:26:20-07:00*%
%TF.ProjectId,pi-hat,70692d68-6174-42e6-9b69-6361645f7063,rev?*%
%TF.SameCoordinates,Original*%
%TF.FileFunction,Copper,L2,Bot*%
%TF.FilePolarity,Positive*%
%FSLAX46Y46*%
G04 Gerber Fmt 4.6, Leading zero omitted, Abs format (unit mm)*
G04 Created by KiCad (PCBNEW 10.0.1) date 2026-07-11 14:26:20*
%MOMM*%
%LPD*%
G01*
G04 APERTURE LIST*
G04 Aperture macros list*
%AMRoundRect*
0 Rectangle with rounded corners*
0 $1 Rounding radius*
0 $2 $3 $4 $5 $6 $7 $8 $9 X,Y pos of 4 corners*
0 Add a 4 corners polygon primitive as box body*
4,1,4,$2,$3,$4,$5,$6,$7,$8,$9,$2,$3,0*
0 Add four circle primitives for the rounded corners*
1,1,$1+$1,$2,$3*
1,1,$1+$1,$4,$5*
1,1,$1+$1,$6,$7*
1,1,$1+$1,$8,$9*
0 Add four rect primitives between the rounded corners*
20,1,$1+$1,$2,$3,$4,$5,0*
20,1,$1+$1,$4,$5,$6,$7,0*
20,1,$1+$1,$6,$7,$8,$9,0*
20,1,$1+$1,$8,$9,$2,$3,0*%
G04 Aperture macros list end*
%TA.AperFunction,ComponentPad*%
%ADD10R,2.400000X2.400000*%
%TD*%
%TA.AperFunction,ComponentPad*%
%ADD11C,2.400000*%
%TD*%
%TA.AperFunction,ComponentPad*%
%ADD12C,1.800000*%
%TD*%
%TA.AperFunction,ComponentPad*%
%ADD13R,1.700000X1.700000*%
%TD*%
%TA.AperFunction,ComponentPad*%
%ADD14C,1.700000*%
%TD*%
%TA.AperFunction,SMDPad,CuDef*%
%ADD15R,1.528000X0.650000*%
%TD*%
%TA.AperFunction,SMDPad,CuDef*%
%ADD16RoundRect,0.250000X0.625000X-0.400000X0.625000X0.400000X-0.625000X0.400000X-0.625000X-0.400000X0*%
%TD*%
%TA.AperFunction,SMDPad,CuDef*%
%ADD17RoundRect,0.250000X0.400000X0.625000X-0.400000X0.625000X-0.400000X-0.625000X0.400000X-0.625000X0*%
%TD*%
%TA.AperFunction,SMDPad,CuDef*%
%ADD18R,1.250000X0.600000*%
%TD*%
%TA.AperFunction,ViaPad*%
%ADD19C,0.900000*%
%TD*%
%TA.AperFunction,Conductor*%
%ADD20C,0.200000*%
%TD*%
G04 APERTURE END LIST*
D10*
X112650000Y-71160000D03*
D11*
X113285000Y-63540000D03*
D12*
X117100000Y-67350000D03*
X106930000Y-75600000D03*
D11*
X108840000Y-63540000D03*
X103760000Y-71160000D03*
D13*
X108370000Y-48770000D03*
D14*
X108370000Y-46230000D03*
X110910000Y-48770000D03*
X110910000Y-46230000D03*
X113450000Y-48770000D03*
X113450000Y-46230000D03*
X115990000Y-48770000D03*
X115990000Y-46230000D03*
X118530000Y-48770000D03*
X118530000Y-46230000D03*
X121070000Y-48770000D03*
X121070000Y-46230000D03*
X123610000Y-48770000D03*
X123610000Y-46230000D03*
X126150000Y-48770000D03*
X126150000Y-46230000D03*
X128690000Y-48770000D03*
X128690000Y-46230000D03*
X131230000Y-48770000D03*
X131230000Y-46230000D03*
X133770000Y-48770000D03*
X133770000Y-46230000D03*
X136310000Y-48770000D03*
X136310000Y-46230000D03*
X138850000Y-48770000D03*
X138850000Y-46230000D03*
X141390000Y-48770000D03*
X141390000Y-46230000D03*
X143930000Y-48770000D03*
X143930000Y-46230000D03*
X146470000Y-48770000D03*
X146470000Y-46230000D03*
X149010000Y-48770000D03*
X149010000Y-46230000D03*
X151550000Y-48770000D03*
X151550000Y-46230000D03*
X154090000Y-48770000D03*
X154090000Y-46230000D03*
X156630000Y-48770000D03*
X156630000Y-46230000D03*
D15*
X138461000Y-60745000D03*
X138461000Y-62015000D03*
X138461000Y-63285000D03*
X138461000Y-64555000D03*
X133039000Y-64555000D03*
X133039000Y-63285000D03*
X133039000Y-62015000D03*
X133039000Y-60745000D03*
D16*
X125350000Y-64200000D03*
X125350000Y-61100000D03*
D17*
X130700000Y-61100000D03*
X127600000Y-61100000D03*
X130700000Y-64200000D03*
X127600000Y-64200000D03*
D18*
X121050000Y-63600000D03*
X121050000Y-61700000D03*
X123050000Y-62650000D03*
D19*
X131400000Y-57200000D03*
X141300000Y-63500000D03*
X129200000Y-57200000D03*
X136000000Y-62500000D03*
X136900000Y-60700000D03*
X132000000Y-59600000D03*
X139800000Y-62000000D03*
D20*
X138416000Y-64600000D02*
X138461000Y-64555000D01*
X138100000Y-64600000D02*
X138416000Y-64600000D01*
X136000000Y-62500000D02*
X138100000Y-64600000D01*
X136900000Y-60700000D02*
X138416000Y-60700000D01*
X138416000Y-60700000D02*
X138461000Y-60745000D01*
X132000000Y-59706000D02*
X133039000Y-60745000D01*
X132000000Y-59600000D02*
X132000000Y-59706000D01*
X130700000Y-61100000D02*
X131615000Y-62015000D01*
X131615000Y-62015000D02*
X133039000Y-62015000D01*
X138476000Y-62000000D02*
X138461000Y-62015000D01*
X138461000Y-62015000D02*
X138461000Y-63285000D01*
X138446000Y-62000000D02*
X138461000Y-62015000D01*
X139800000Y-62000000D02*
X138476000Y-62000000D01*
X130700000Y-64200000D02*
X131615000Y-63285000D01*
X131615000Y-63285000D02*
X133039000Y-63285000D01*
X121200000Y-63600000D02*
X121800000Y-64200000D01*
X119387499Y-62875000D02*
X120112499Y-63600000D01*
X121050000Y-63600000D02*
X121200000Y-63600000D01*
X118083199Y-62875000D02*
X119387499Y-62875000D01*
X125350000Y-64200000D02*
X127600000Y-64200000D01*
X120112499Y-63600000D02*
X121050000Y-63600000D01*
X117100000Y-63858199D02*
X118083199Y-62875000D01*
X117100000Y-67350000D02*
X117100000Y-63858199D01*
X121800000Y-64200000D02*
X125350000Y-64200000D01*
X125350000Y-61100000D02*
X127600000Y-61100000D01*
X121650000Y-61100000D02*
X125350000Y-61100000D01*
X117896801Y-62425000D02*
X119387499Y-62425000D01*
X119387499Y-62425000D02*
X120112499Y-61700000D01*
X113285000Y-63540000D02*
X116781801Y-63540000D01*
X120112499Y-61700000D02*
X121050000Y-61700000D01*
X121050000Y-61700000D02*
X121650000Y-61100000D01*
X116781801Y-63540000D02*
X117896801Y-62425000D01*
%TA.AperFunction,Conductor*%
G36*
X164892539Y-44070185D02*
G01*
X164938294Y-44122989D01*
X164949500Y-44174500D01*
X164949500Y-81650500D01*
X164929815Y-81717539D01*
X164877011Y-81763294D01*
X164825500Y-81774500D01*
X100174500Y-81774500D01*
X100107461Y-81754815D01*
X100061706Y-81702011D01*
X100050500Y-81650500D01*
X100050500Y-75489818D01*
X105530000Y-75489818D01*
X105530000Y-75710181D01*
X105564473Y-75927835D01*
X105632567Y-76137410D01*
X105732611Y-76333756D01*
X105778932Y-76397513D01*
X106365387Y-75811058D01*
X106370889Y-75831591D01*
X106449881Y-75968408D01*
X106561592Y-76080119D01*
X106698409Y-76159111D01*
X106718939Y-76164612D01*
X106132485Y-76751065D01*
X106132485Y-76751066D01*
X106196243Y-76797388D01*
X106392589Y-76897432D01*
X106602164Y-76965526D01*
X106819819Y-77000000D01*
X107040181Y-77000000D01*
X107257835Y-76965526D01*
X107467410Y-76897432D01*
X107663760Y-76797386D01*
X107727513Y-76751066D01*
X107727514Y-76751066D01*
X107141059Y-76164612D01*
X107161591Y-76159111D01*
X107298408Y-76080119D01*
X107410119Y-75968408D01*
X107489111Y-75831591D01*
X107494612Y-75811060D01*
X108081066Y-76397514D01*
X108081066Y-76397513D01*
X108127386Y-76333760D01*
X108227432Y-76137410D01*
X108295526Y-75927835D01*
X108330000Y-75710181D01*
X108330000Y-75489818D01*
X108295526Y-75272164D01*
X108227432Y-75062589D01*
X108127388Y-74866243D01*
X108081066Y-74802485D01*
X108081065Y-74802485D01*
X107494612Y-75388939D01*
X107489111Y-75368409D01*
X107410119Y-75231592D01*
X107298408Y-75119881D01*
X107161591Y-75040889D01*
X107141057Y-75035387D01*
X107727513Y-74448932D01*
X107663756Y-74402611D01*
X107467410Y-74302567D01*
X107257835Y-74234473D01*
X107040181Y-74200000D01*
X106819819Y-74200000D01*
X106602164Y-74234473D01*
X106392589Y-74302567D01*
X106196233Y-74402616D01*
X106132485Y-74448931D01*
X106132485Y-74448932D01*
X106718940Y-75035387D01*
X106698409Y-75040889D01*
X106561592Y-75119881D01*
X106449881Y-75231592D01*
X106370889Y-75368409D01*
X106365387Y-75388940D01*
X105778932Y-74802485D01*
X105778931Y-74802485D01*
X105732616Y-74866233D01*
X105632567Y-75062589D01*
X105564473Y-75272164D01*
X105530000Y-75489818D01*
X100050500Y-75489818D01*
X100050500Y-71048575D01*
X102060000Y-71048575D01*
X102060000Y-71271424D01*
X102089085Y-71492354D01*
X102089088Y-71492367D01*
X102146763Y-71707618D01*
X102232045Y-71913502D01*
X102232054Y-71913520D01*
X102343464Y-72106491D01*
X102343473Y-72106504D01*
X102394040Y-72172403D01*
X102394043Y-72172403D01*
X103044152Y-71522293D01*
X103051049Y-71538942D01*
X103138599Y-71669970D01*
X103250030Y-71781401D01*
X103381058Y-71868951D01*
X103397705Y-71875846D01*
X102747595Y-72525955D01*
X102747595Y-72525956D01*
X102813507Y-72576533D01*
X103006485Y-72687949D01*
X103006497Y-72687954D01*
X103212381Y-72773236D01*
X103427632Y-72830911D01*
X103427645Y-72830914D01*
X103648575Y-72860000D01*
X103871425Y-72860000D01*
X104092354Y-72830914D01*
X104092367Y-72830911D01*
X104307618Y-72773236D01*
X104513502Y-72687954D01*
X104513514Y-72687949D01*
X104706498Y-72576530D01*
X104772403Y-72525957D01*
X104772404Y-72525956D01*
X104122294Y-71875846D01*
X104138942Y-71868951D01*
X104269970Y-71781401D01*
X104381401Y-71669970D01*
X104468951Y-71538942D01*
X104475846Y-71522294D01*
X105125956Y-72172404D01*
X105125957Y-72172403D01*
X105176530Y-72106498D01*
X105287949Y-71913514D01*
X105287954Y-71913502D01*
X105373236Y-71707618D01*
X105430911Y-71492367D01*
X105430914Y-71492354D01*
X105450649Y-71342453D01*
X105460000Y-71271424D01*
X105460000Y-71048575D01*
X105430914Y-70827645D01*
X105430911Y-70827632D01*
X105373236Y-70612381D01*
X105287954Y-70406497D01*
X105287949Y-70406485D01*
X105176533Y-70213507D01*
X105125956Y-70147595D01*
X105125955Y-70147595D01*
X104475846Y-70797704D01*
X104468951Y-70781058D01*
X104381401Y-70650030D01*
X104269970Y-70538599D01*
X104138942Y-70451049D01*
X104122293Y-70444152D01*
X104654292Y-69912155D01*
X110950000Y-69912155D01*
X110950000Y-70910000D01*
X111887639Y-70910000D01*
X111880743Y-70926649D01*
X111850000Y-71081207D01*
X111850000Y-71238793D01*
X111880743Y-71393351D01*
X111887639Y-71410000D01*
X110950000Y-71410000D01*
X110950000Y-72407844D01*
X110956401Y-72467372D01*
X110956403Y-72467379D01*
X111006645Y-72602086D01*
X111006649Y-72602093D01*
X111092809Y-72717187D01*
X111092812Y-72717190D01*
X111207906Y-72803350D01*
X111207913Y-72803354D01*
X111342620Y-72853596D01*
X111342627Y-72853598D01*
X111402155Y-72859999D01*
X111402172Y-72860000D01*
X112400000Y-72860000D01*
X112400000Y-71922360D01*
X112416649Y-71929257D01*
X112571207Y-71960000D01*
X112728793Y-71960000D01*
X112883351Y-71929257D01*
X112900000Y-71922360D01*
X112900000Y-72860000D01*
X113897828Y-72860000D01*
X113897844Y-72859999D01*
X113957372Y-72853598D01*
X113957379Y-72853596D01*
X114092086Y-72803354D01*
X114092093Y-72803350D01*
X114207187Y-72717190D01*
X114207190Y-72717187D01*
X114293350Y-72602093D01*
X114293354Y-72602086D01*
X114343596Y-72467379D01*
X114343598Y-72467372D01*
X114349999Y-72407844D01*
X114350000Y-72407827D01*
X114350000Y-71410000D01*
X113412361Y-71410000D01*
X113419257Y-71393351D01*
X113450000Y-71238793D01*
X113450000Y-71081207D01*
X113419257Y-70926649D01*
X113412361Y-70910000D01*
X114350000Y-70910000D01*
X114350000Y-69912172D01*
X114349999Y-69912155D01*
X114343598Y-69852627D01*
X114343596Y-69852620D01*
X114293354Y-69717913D01*
X114293350Y-69717906D01*
X114207190Y-69602812D01*
X114207187Y-69602809D01*
X114092093Y-69516649D01*
X114092086Y-69516645D01*
X113957379Y-69466403D01*
X113957372Y-69466401D01*
X113897844Y-69460000D01*
X112900000Y-69460000D01*
X112900000Y-70397639D01*
X112883351Y-70390743D01*
X112728793Y-70360000D01*
X112571207Y-70360000D01*
X112416649Y-70390743D01*
X112400000Y-70397639D01*
X112400000Y-69460000D01*
X111402155Y-69460000D01*
X111342627Y-69466401D01*
X111342620Y-69466403D01*
X111207913Y-69516645D01*
X111207906Y-69516649D01*
X111092812Y-69602809D01*
X111092809Y-69602812D01*
X111006649Y-69717906D01*
X111006645Y-69717913D01*
X110956403Y-69852620D01*
X110956401Y-69852627D01*
X110950000Y-69912155D01*
X104654292Y-69912155D01*
X104745277Y-69821170D01*
X104772403Y-69794043D01*
X104772403Y-69794040D01*
X104706504Y-69743473D01*
X104706491Y-69743464D01*
X104513520Y-69632054D01*
X104513502Y-69632045D01*
X104307618Y-69546763D01*
X104092367Y-69489088D01*
X104092354Y-69489085D01*
X103871425Y-69460000D01*
X103648575Y-69460000D01*
X103427645Y-69489085D01*
X103427632Y-69489088D01*
X103212381Y-69546763D01*
X103006497Y-69632045D01*
X103006479Y-69632054D01*
X102813511Y-69743462D01*
X102747595Y-69794042D01*
X103397706Y-70444152D01*
X103381058Y-70451049D01*
X103250030Y-70538599D01*
X103138599Y-70650030D01*
X103051049Y-70781058D01*
X103044153Y-70797706D01*
X102394042Y-70147595D01*
X102343462Y-70213511D01*
X102232054Y-70406479D01*
X102232045Y-70406497D01*
X102146763Y-70612381D01*
X102089088Y-70827632D01*
X102089085Y-70827645D01*
X102060000Y-71048575D01*
X100050500Y-71048575D01*
X100050500Y-63428575D01*
X107140000Y-63428575D01*
X107140000Y-63651424D01*
X107169085Y-63872354D01*
X107169088Y-63872367D01*
X107226763Y-64087618D01*
X107312045Y-64293502D01*
X107312054Y-64293520D01*
X107423464Y-64486491D01*
X107423473Y-64486504D01*
X107474040Y-64552403D01*
X107474043Y-64552403D01*
X108124152Y-63902293D01*
X108131049Y-63918942D01*
X108218599Y-64049970D01*
X108330030Y-64161401D01*
X108461058Y-64248951D01*
X108477705Y-64255846D01*
X107827595Y-64905955D01*
X107827595Y-64905956D01*
X107893507Y-64956533D01*
X108086485Y-65067949D01*
X108086497Y-65067954D01*
X108292381Y-65153236D01*
X108507632Y-65210911D01*
X108507645Y-65210914D01*
X108728575Y-65240000D01*
X108951425Y-65240000D01*
X109172354Y-65210914D01*
X109172367Y-65210911D01*
X109387618Y-65153236D01*
X109593502Y-65067954D01*
X109593514Y-65067949D01*
X109786498Y-64956530D01*
X109852403Y-64905957D01*
X109852404Y-64905956D01*
X109202294Y-64255846D01*
X109218942Y-64248951D01*
X109349970Y-64161401D01*
X109461401Y-64049970D01*
X109548951Y-63918942D01*
X109555846Y-63902294D01*
X110205956Y-64552404D01*
X110205957Y-64552403D01*
X110256530Y-64486498D01*
X110367949Y-64293514D01*
X110367954Y-64293502D01*
X110453236Y-64087618D01*
X110510911Y-63872367D01*
X110510914Y-63872354D01*
X110540000Y-63651424D01*
X110540000Y-63429778D01*
X111884500Y-63429778D01*
X111884500Y-63650222D01*
X111885730Y-63657989D01*
X111918985Y-63867952D01*
X111987103Y-64077603D01*
X111987104Y-64077606D01*
X112087187Y-64274025D01*
X112216752Y-64452358D01*
X112216756Y-64452363D01*
X112372636Y-64608243D01*
X112372641Y-64608247D01*
X112477872Y-64684701D01*
X112550978Y-64737815D01*
X112679375Y-64803237D01*
X112747393Y-64837895D01*
X112747396Y-64837896D01*
X112794794Y-64853296D01*
X112957049Y-64906015D01*
X113174778Y-64940500D01*
X113174779Y-64940500D01*
X113395221Y-64940500D01*
X113395222Y-64940500D01*
X113612951Y-64906015D01*
X113822606Y-64837895D01*
X114019022Y-64737815D01*
X114197365Y-64608242D01*
X114353242Y-64452365D01*
X114482815Y-64274022D01*
X114582895Y-64077606D01*
X114597053Y-64034032D01*
X114632095Y-63926183D01*
X114671532Y-63868507D01*
X114735890Y-63841308D01*
X114750026Y-63840500D01*
X116675500Y-63840500D01*
X116742539Y-63860185D01*
X116788294Y-63912989D01*
X116799500Y-63964500D01*
X116799500Y-66200413D01*
X116779815Y-66267452D01*
X116727011Y-66313207D01*
X116713820Y-66318343D01*
X116677554Y-66330126D01*
X116523211Y-66408768D01*
X116443256Y-66466859D01*
X116383072Y-66510586D01*
X116383070Y-66510588D01*
X116383069Y-66510588D01*
X116260588Y-66633069D01*
X116260588Y-66633070D01*
X116260586Y-66633072D01*
X116216859Y-66693256D01*
X116158768Y-66773211D01*
X116080128Y-66927552D01*
X116026597Y-67092302D01*
X115999500Y-67263389D01*
X115999500Y-67436611D01*
X116026598Y-67607701D01*
X116080127Y-67772445D01*
X116158768Y-67926788D01*
X116260586Y-68066928D01*
X116383072Y-68189414D01*
X116523212Y-68291232D01*
X116677555Y-68369873D01*
X116842299Y-68423402D01*
X117013389Y-68450500D01*
X117013390Y-68450500D01*
X117186610Y-68450500D01*
X117186611Y-68450500D01*
X117357701Y-68423402D01*
X117522445Y-68369873D01*
X117676788Y-68291232D01*
X117816928Y-68189414D01*
X117939414Y-68066928D01*
X118041232Y-67926788D01*
X118119873Y-67772445D01*
X118173402Y-67607701D01*
X118200500Y-67436611D01*
X118200500Y-67263389D01*
X118173402Y-67092299D01*
X118119873Y-66927555D01*
X118041232Y-66773212D01*
X117939414Y-66633072D01*
X117816928Y-66510586D01*
X117676788Y-66408768D01*
X117522445Y-66330126D01*
X117486180Y-66318343D01*
X117428505Y-66278905D01*
X117401308Y-66214546D01*
X117400500Y-66200413D01*
X117400500Y-64034032D01*
X117420185Y-63966993D01*
X117436819Y-63946351D01*
X118171351Y-63211819D01*
X118232674Y-63178334D01*
X118259032Y-63175500D01*
X119211666Y-63175500D01*
X119278705Y-63195185D01*
X119299347Y-63211819D01*
X119872039Y-63784511D01*
X119927988Y-63840460D01*
X119927990Y-63840461D01*
X119927994Y-63840464D01*
X119984025Y-63872813D01*
X119996510Y-63880021D01*
X120072937Y-63900500D01*
X120121081Y-63900500D01*
X120188120Y-63920185D01*
X120233875Y-63972989D01*
X120235640Y-63977043D01*
X120236131Y-63978228D01*
X120280447Y-64044552D01*
X120346769Y-64088867D01*
X120346770Y-64088868D01*
X120405247Y-64100499D01*
X120405250Y-64100500D01*
X120405252Y-64100500D01*
X121224167Y-64100500D01*
X121291206Y-64120185D01*
X121311848Y-64136819D01*
X121559540Y-64384511D01*
X121615489Y-64440460D01*
X121615491Y-64440461D01*
X121615495Y-64440464D01*
X121671561Y-64472833D01*
X121684011Y-64480021D01*
X121760438Y-64500500D01*
X124150500Y-64500500D01*
X124217539Y-64520185D01*
X124263294Y-64572989D01*
X124274500Y-64624500D01*
X124274500Y-64654269D01*
X124277353Y-64684699D01*
X124277353Y-64684701D01*
X124319449Y-64805000D01*
X124322207Y-64812882D01*
X124402850Y-64922150D01*
X124512118Y-65002793D01*
X124554845Y-65017744D01*
X124640299Y-65047646D01*
X124670730Y-65050500D01*
X124670734Y-65050500D01*
X126029270Y-65050500D01*
X126059699Y-65047646D01*
X126059701Y-65047646D01*
X126125698Y-65024552D01*
X126187882Y-65002793D01*
X126297150Y-64922150D01*
X126377793Y-64812882D01*
X126404061Y-64737812D01*
X126422646Y-64684701D01*
X126422646Y-64684699D01*
X126425500Y-64654269D01*
X126425500Y-64624500D01*
X126428050Y-64615814D01*
X126426762Y-64606853D01*
X126437740Y-64582812D01*
X126445185Y-64557461D01*
X126452025Y-64551533D01*
X126455787Y-64543297D01*
X126478021Y-64529007D01*
X126497989Y-64511706D01*
X126508503Y-64509418D01*
X126514565Y-64505523D01*
X126549500Y-64500500D01*
X126625500Y-64500500D01*
X126692539Y-64520185D01*
X126738294Y-64572989D01*
X126749500Y-64624500D01*
X126749500Y-64879269D01*
X126752353Y-64909699D01*
X126752353Y-64909701D01*
X126797206Y-65037880D01*
X126797207Y-65037882D01*
X126877850Y-65147150D01*
X126987118Y-65227793D01*
X127022004Y-65240000D01*
X127115299Y-65272646D01*
X127145730Y-65275500D01*
X127145734Y-65275500D01*
X128054270Y-65275500D01*
X128084699Y-65272646D01*
X128084701Y-65272646D01*
X128148790Y-65250219D01*
X128212882Y-65227793D01*
X128322150Y-65147150D01*
X128402793Y-65037882D01*
X128430664Y-64958231D01*
X128447646Y-64909701D01*
X128447646Y-64909699D01*
X128450500Y-64879269D01*
X128450500Y-63520730D01*
X128447646Y-63490300D01*
X128447646Y-63490298D01*
X128413722Y-63393352D01*
X128402793Y-63362118D01*
X128322150Y-63252850D01*
X128212882Y-63172207D01*
X128212880Y-63172206D01*
X128084700Y-63127353D01*
X128054270Y-63124500D01*
X128054266Y-63124500D01*
X127145734Y-63124500D01*
X127145730Y-63124500D01*
X127115300Y-63127353D01*
X127115298Y-63127353D01*
X126987119Y-63172206D01*
X126987117Y-63172207D01*
X126877850Y-63252850D01*
X126797207Y-63362117D01*
X126797206Y-63362119D01*
X126752353Y-63490298D01*
X126752353Y-63490300D01*
X126749500Y-63520730D01*
X126749500Y-63775500D01*
X126746949Y-63784185D01*
X126748238Y-63793147D01*
X126737259Y-63817187D01*
X126729815Y-63842539D01*
X126722974Y-63848466D01*
X126719213Y-63856703D01*
X126696978Y-63870992D01*
X126677011Y-63888294D01*
X126666496Y-63890581D01*
X126660435Y-63894477D01*
X126625500Y-63899500D01*
X126549500Y-63899500D01*
X126482461Y-63879815D01*
X126436706Y-63827011D01*
X126425500Y-63775500D01*
X126425500Y-63745730D01*
X126422646Y-63715300D01*
X126422646Y-63715298D01*
X126377793Y-63587119D01*
X126377792Y-63587117D01*
X126376599Y-63585500D01*
X126297150Y-63477850D01*
X126187882Y-63397207D01*
X126187880Y-63397206D01*
X126059700Y-63352353D01*
X126029270Y-63349500D01*
X126029266Y-63349500D01*
X124670734Y-63349500D01*
X124670730Y-63349500D01*
X124640300Y-63352353D01*
X124640298Y-63352353D01*
X124512119Y-63397206D01*
X124512117Y-63397207D01*
X124402850Y-63477850D01*
X124322207Y-63587117D01*
X124322206Y-63587119D01*
X124277353Y-63715298D01*
X124277353Y-63715300D01*
X124274500Y-63745730D01*
X124274500Y-63775500D01*
X124254815Y-63842539D01*
X124202011Y-63888294D01*
X124150500Y-63899500D01*
X121999500Y-63899500D01*
X121932461Y-63879815D01*
X121886706Y-63827011D01*
X121875500Y-63775500D01*
X121875500Y-63410946D01*
X121895185Y-63343907D01*
X121947989Y-63298152D01*
X122017147Y-63288208D01*
X122073812Y-63311680D01*
X122182910Y-63393352D01*
X122182913Y-63393354D01*
X122317620Y-63443596D01*
X122317627Y-63443598D01*
X122377155Y-63449999D01*
X122377172Y-63450000D01*
X122800000Y-63450000D01*
X123300000Y-63450000D01*
X123722828Y-63450000D01*
X123722844Y-63449999D01*
X123782372Y-63443598D01*
X123782379Y-63443596D01*
X123917086Y-63393354D01*
X123917093Y-63393350D01*
X124032187Y-63307190D01*
X124032190Y-63307187D01*
X124118350Y-63192093D01*
X124118354Y-63192086D01*
X124168596Y-63057379D01*
X124168598Y-63057372D01*
X124174999Y-62997844D01*
X124175000Y-62997827D01*
X124175000Y-62900000D01*
X123300000Y-62900000D01*
X123300000Y-63450000D01*
X122800000Y-63450000D01*
X122800000Y-62900000D01*
X121925000Y-62900000D01*
X121925000Y-62996702D01*
X121905315Y-63063741D01*
X121852511Y-63109496D01*
X121783353Y-63119440D01*
X121753551Y-63111265D01*
X121753229Y-63111132D01*
X121694752Y-63099500D01*
X121694748Y-63099500D01*
X120405252Y-63099500D01*
X120405247Y-63099500D01*
X120346770Y-63111131D01*
X120346769Y-63111132D01*
X120280444Y-63155449D01*
X120274360Y-63161534D01*
X120213036Y-63195017D01*
X120143344Y-63190030D01*
X120099001Y-63161531D01*
X119675151Y-62737681D01*
X119641666Y-62676358D01*
X119646650Y-62606666D01*
X119675151Y-62562319D01*
X119877723Y-62359747D01*
X120099003Y-62138466D01*
X120160324Y-62104983D01*
X120230015Y-62109967D01*
X120274363Y-62138468D01*
X120280446Y-62144551D01*
X120346769Y-62188867D01*
X120346770Y-62188868D01*
X120405247Y-62200499D01*
X120405250Y-62200500D01*
X120405252Y-62200500D01*
X121694750Y-62200500D01*
X121694751Y-62200499D01*
X121714418Y-62196587D01*
X121753228Y-62188868D01*
X121753229Y-62188867D01*
X121753231Y-62188867D01*
X121753231Y-62188866D01*
X121753543Y-62188738D01*
X121754284Y-62188658D01*
X121765210Y-62186485D01*
X121765404Y-62187462D01*
X121823012Y-62181266D01*
X121885492Y-62212539D01*
X121921147Y-62272626D01*
X121925000Y-62303297D01*
X121925000Y-62400000D01*
X122800000Y-62400000D01*
X123300000Y-62400000D01*
X124175000Y-62400000D01*
X124175000Y-62302172D01*
X124174999Y-62302155D01*
X124168598Y-62242627D01*
X124168596Y-62242620D01*
X124118354Y-62107913D01*
X124118350Y-62107906D01*
X124032190Y-61992812D01*
X124032187Y-61992809D01*
X123917093Y-61906649D01*
X123917086Y-61906645D01*
X123782379Y-61856403D01*
X123782372Y-61856401D01*
X123722844Y-61850000D01*
X123300000Y-61850000D01*
X123300000Y-62400000D01*
X122800000Y-62400000D01*
X122800000Y-61850000D01*
X122377155Y-61850000D01*
X122317627Y-61856401D01*
X122317620Y-61856403D01*
X122182913Y-61906645D01*
X122182906Y-61906649D01*
X122073811Y-61988319D01*
X122008347Y-62012737D01*
X121940074Y-61997886D01*
X121890668Y-61948481D01*
X121875500Y-61889053D01*
X121875500Y-61524500D01*
X121895185Y-61457461D01*
X121947989Y-61411706D01*
X121999500Y-61400500D01*
X124150500Y-61400500D01*
X124217539Y-61420185D01*
X124263294Y-61472989D01*
X124274500Y-61524500D01*
X124274500Y-61554269D01*
X124277353Y-61584699D01*
X124277353Y-61584701D01*
X124321246Y-61710137D01*
X124322207Y-61712882D01*
X124402850Y-61822150D01*
X124512118Y-61902793D01*
X124554845Y-61917744D01*
X124640299Y-61947646D01*
X124670730Y-61950500D01*
X124670734Y-61950500D01*
X126029270Y-61950500D01*
X126059699Y-61947646D01*
X126059701Y-61947646D01*
X126128596Y-61923538D01*
X126187882Y-61902793D01*
X126297150Y-61822150D01*
X126377793Y-61712882D01*
X126409259Y-61622958D01*
X126422646Y-61584701D01*
X126422646Y-61584699D01*
X126425500Y-61554269D01*
X126425500Y-61524500D01*
X126428050Y-61515814D01*
X126426762Y-61506853D01*
X126437740Y-61482812D01*
X126445185Y-61457461D01*
X126452025Y-61451533D01*
X126455787Y-61443297D01*
X126478021Y-61429007D01*
X126497989Y-61411706D01*
X126508503Y-61409418D01*
X126514565Y-61405523D01*
X126549500Y-61400500D01*
X126625500Y-61400500D01*
X126692539Y-61420185D01*
X126738294Y-61472989D01*
X126749500Y-61524500D01*
X126749500Y-61779269D01*
X126752353Y-61809699D01*
X126752353Y-61809701D01*
X126793316Y-61926763D01*
X126797207Y-61937882D01*
X126877850Y-62047150D01*
X126987118Y-62127793D01*
X127017626Y-62138468D01*
X127115299Y-62172646D01*
X127145730Y-62175500D01*
X127145734Y-62175500D01*
X128054270Y-62175500D01*
X128084699Y-62172646D01*
X128084701Y-62172646D01*
X128164990Y-62144551D01*
X128212882Y-62127793D01*
X128322150Y-62047150D01*
X128402793Y-61937882D01*
X128431304Y-61856403D01*
X128447646Y-61809701D01*
X128447646Y-61809699D01*
X128450500Y-61779269D01*
X128450500Y-60420730D01*
X129849500Y-60420730D01*
X129849500Y-61779269D01*
X129852353Y-61809699D01*
X129852353Y-61809701D01*
X129893316Y-61926763D01*
X129897207Y-61937882D01*
X129977850Y-62047150D01*
X130087118Y-62127793D01*
X130117626Y-62138468D01*
X130215299Y-62172646D01*
X130245730Y-62175500D01*
X130245734Y-62175500D01*
X131154270Y-62175500D01*
X131184689Y-62172647D01*
X131184689Y-62172646D01*
X131184699Y-62172646D01*
X131231890Y-62156132D01*
X131301662Y-62152570D01*
X131360522Y-62185493D01*
X131374540Y-62199511D01*
X131430489Y-62255460D01*
X131430491Y-62255461D01*
X131430495Y-62255464D01*
X131499004Y-62295017D01*
X131499011Y-62295021D01*
X131575438Y-62315500D01*
X131963934Y-62315500D01*
X132030973Y-62335185D01*
X132076728Y-62387989D01*
X132085551Y-62415309D01*
X132086131Y-62418229D01*
X132086132Y-62418230D01*
X132130447Y-62484552D01*
X132196769Y-62528867D01*
X132208054Y-62533542D01*
X132207366Y-62535201D01*
X132256244Y-62560769D01*
X132290817Y-62621486D01*
X132287076Y-62691255D01*
X132246209Y-62747926D01*
X132207668Y-62765526D01*
X132208054Y-62766458D01*
X132196769Y-62771132D01*
X132130447Y-62815447D01*
X132086132Y-62881769D01*
X132086131Y-62881770D01*
X132085551Y-62884691D01*
X132082529Y-62890467D01*
X132081458Y-62893054D01*
X132081226Y-62892958D01*
X132053166Y-62946602D01*
X131992451Y-62981176D01*
X131963934Y-62984500D01*
X131575438Y-62984500D01*
X131537224Y-62994739D01*
X131499009Y-63004979D01*
X131499004Y-63004982D01*
X131430495Y-63044535D01*
X131430491Y-63044538D01*
X131360521Y-63114506D01*
X131299197Y-63147990D01*
X131231887Y-63143865D01*
X131184697Y-63127353D01*
X131184699Y-63127353D01*
X131154270Y-63124500D01*
X131154266Y-63124500D01*
X130245734Y-63124500D01*
X130245730Y-63124500D01*
X130215300Y-63127353D01*
X130215298Y-63127353D01*
X130087119Y-63172206D01*
X130087117Y-63172207D01*
X129977850Y-63252850D01*
X129897207Y-63362117D01*
X129897206Y-63362119D01*
X129852353Y-63490298D01*
X129852353Y-63490300D01*
X129849500Y-63520730D01*
X129849500Y-64879269D01*
X129852353Y-64909699D01*
X129852353Y-64909701D01*
X129897206Y-65037880D01*
X129897207Y-65037882D01*
X129977850Y-65147150D01*
X130087118Y-65227793D01*
X130122004Y-65240000D01*
X130215299Y-65272646D01*
X130245730Y-65275500D01*
X130245734Y-65275500D01*
X131154270Y-65275500D01*
X131184699Y-65272646D01*
X131184701Y-65272646D01*
X131248790Y-65250219D01*
X131312882Y-65227793D01*
X131422150Y-65147150D01*
X131502793Y-65037882D01*
X131538506Y-64935817D01*
X131579227Y-64879043D01*
X131644180Y-64853296D01*
X131712741Y-64866752D01*
X131763144Y-64915139D01*
X131778836Y-64963515D01*
X131781401Y-64987374D01*
X131781403Y-64987379D01*
X131831645Y-65122086D01*
X131831649Y-65122093D01*
X131917809Y-65237187D01*
X131917812Y-65237190D01*
X132032906Y-65323350D01*
X132032913Y-65323354D01*
X132167620Y-65373596D01*
X132167627Y-65373598D01*
X132227155Y-65379999D01*
X132227172Y-65380000D01*
X132789000Y-65380000D01*
X133289000Y-65380000D01*
X133850828Y-65380000D01*
X133850844Y-65379999D01*
X133910372Y-65373598D01*
X133910379Y-65373596D01*
X134045086Y-65323354D01*
X134045093Y-65323350D01*
X134160187Y-65237190D01*
X134160190Y-65237187D01*
X134246350Y-65122093D01*
X134246354Y-65122086D01*
X134296596Y-64987379D01*
X134296598Y-64987372D01*
X134302999Y-64927844D01*
X134303000Y-64927827D01*
X134303000Y-64805000D01*
X133289000Y-64805000D01*
X133289000Y-65380000D01*
X132789000Y-65380000D01*
X132789000Y-64679000D01*
X132808685Y-64611961D01*
X132861489Y-64566206D01*
X132913000Y-64555000D01*
X133039000Y-64555000D01*
X133039000Y-64429000D01*
X133058685Y-64361961D01*
X133111489Y-64316206D01*
X133163000Y-64305000D01*
X134303000Y-64305000D01*
X134303000Y-64182172D01*
X134302999Y-64182155D01*
X134296598Y-64122627D01*
X134296596Y-64122620D01*
X134246354Y-63987913D01*
X134246350Y-63987906D01*
X134160190Y-63872812D01*
X134160187Y-63872809D01*
X134044275Y-63786037D01*
X134002404Y-63730104D01*
X133996969Y-63662580D01*
X134003500Y-63629748D01*
X134003500Y-62940252D01*
X134003500Y-62940249D01*
X134003499Y-62940247D01*
X133991868Y-62881770D01*
X133991867Y-62881769D01*
X133947552Y-62815447D01*
X133881230Y-62771132D01*
X133869946Y-62766458D01*
X133870633Y-62764798D01*
X133821757Y-62739232D01*
X133787183Y-62678517D01*
X133790922Y-62608747D01*
X133823138Y-62564071D01*
X135349499Y-62564071D01*
X135374497Y-62689738D01*
X135374499Y-62689744D01*
X135423533Y-62808124D01*
X135423538Y-62808133D01*
X135494723Y-62914668D01*
X135494726Y-62914672D01*
X135585327Y-63005273D01*
X135585331Y-63005276D01*
X135691866Y-63076461D01*
X135691872Y-63076464D01*
X135691873Y-63076465D01*
X135810256Y-63125501D01*
X135810260Y-63125501D01*
X135810261Y-63125502D01*
X135935928Y-63150500D01*
X135935931Y-63150500D01*
X136064070Y-63150500D01*
X136097424Y-63143865D01*
X136133735Y-63136642D01*
X136203325Y-63142868D01*
X136245607Y-63170578D01*
X137460181Y-64385152D01*
X137493666Y-64446475D01*
X137496500Y-64472833D01*
X137496500Y-64899752D01*
X137508131Y-64958229D01*
X137508132Y-64958230D01*
X137552447Y-65024552D01*
X137618769Y-65068867D01*
X137618770Y-65068868D01*
X137677247Y-65080499D01*
X137677250Y-65080500D01*
X137677252Y-65080500D01*
X139244750Y-65080500D01*
X139244751Y-65080499D01*
X139259568Y-65077552D01*
X139303229Y-65068868D01*
X139303229Y-65068867D01*
X139303231Y-65068867D01*
X139369552Y-65024552D01*
X139413867Y-64958231D01*
X139413867Y-64958229D01*
X139413868Y-64958229D01*
X139424253Y-64906015D01*
X139425500Y-64899748D01*
X139425500Y-64210252D01*
X139425500Y-64210249D01*
X139425499Y-64210247D01*
X139413868Y-64151770D01*
X139413867Y-64151769D01*
X139369552Y-64085447D01*
X139303230Y-64041132D01*
X139291946Y-64036458D01*
X139292633Y-64034798D01*
X139243757Y-64009232D01*
X139209183Y-63948517D01*
X139212922Y-63878747D01*
X139253788Y-63822075D01*
X139292331Y-63804473D01*
X139291946Y-63803542D01*
X139303229Y-63798867D01*
X139303231Y-63798867D01*
X139369552Y-63754552D01*
X139413867Y-63688231D01*
X139413867Y-63688229D01*
X139413868Y-63688229D01*
X139425499Y-63629752D01*
X139425500Y-63629750D01*
X139425500Y-62940249D01*
X139425499Y-62940247D01*
X139413868Y-62881770D01*
X139413867Y-62881769D01*
X139369552Y-62815447D01*
X139303230Y-62771132D01*
X139301869Y-62770568D01*
X139301062Y-62770610D01*
X139298687Y-62769250D01*
X139291946Y-62766458D01*
X139292303Y-62765595D01*
X139272694Y-62754368D01*
X139243757Y-62739232D01*
X139242548Y-62737109D01*
X139240427Y-62735895D01*
X139225346Y-62706902D01*
X139209183Y-62678517D01*
X139209313Y-62676077D01*
X139208186Y-62673909D01*
X139211173Y-62641375D01*
X139212922Y-62608747D01*
X139214351Y-62606764D01*
X139214575Y-62604332D01*
X139234671Y-62578585D01*
X139253788Y-62552075D01*
X139256529Y-62550582D01*
X139257566Y-62549254D01*
X139264470Y-62546258D01*
X139288878Y-62532968D01*
X139297115Y-62530083D01*
X139303231Y-62528867D01*
X139306139Y-62526923D01*
X139320945Y-62521739D01*
X139352512Y-62520120D01*
X139383939Y-62516741D01*
X139387823Y-62518309D01*
X139390723Y-62518161D01*
X139398540Y-62522636D01*
X139430817Y-62535669D01*
X139491866Y-62576461D01*
X139491872Y-62576464D01*
X139491873Y-62576465D01*
X139610256Y-62625501D01*
X139610260Y-62625501D01*
X139610261Y-62625502D01*
X139735928Y-62650500D01*
X139735931Y-62650500D01*
X139864071Y-62650500D01*
X139948615Y-62633682D01*
X139989744Y-62625501D01*
X140108127Y-62576465D01*
X140214669Y-62505276D01*
X140305276Y-62414669D01*
X140376465Y-62308127D01*
X140425501Y-62189744D01*
X140434406Y-62144979D01*
X140450500Y-62064071D01*
X140450500Y-61935928D01*
X140425502Y-61810261D01*
X140425501Y-61810260D01*
X140425501Y-61810256D01*
X140376465Y-61691873D01*
X140376464Y-61691872D01*
X140376461Y-61691866D01*
X140305276Y-61585331D01*
X140305273Y-61585327D01*
X140214672Y-61494726D01*
X140214668Y-61494723D01*
X140108133Y-61423538D01*
X140108124Y-61423533D01*
X139989744Y-61374499D01*
X139989738Y-61374497D01*
X139864071Y-61349500D01*
X139864069Y-61349500D01*
X139735931Y-61349500D01*
X139735929Y-61349500D01*
X139610261Y-61374497D01*
X139610251Y-61374500D01*
X139502239Y-61419240D01*
X139432770Y-61426709D01*
X139370291Y-61395433D01*
X139334639Y-61335344D01*
X139337133Y-61265519D01*
X139367110Y-61216994D01*
X139369548Y-61214554D01*
X139369552Y-61214552D01*
X139413867Y-61148231D01*
X139413867Y-61148229D01*
X139413868Y-61148229D01*
X139425499Y-61089752D01*
X139425500Y-61089750D01*
X139425500Y-60400249D01*
X139425499Y-60400247D01*
X139413868Y-60341770D01*
X139413867Y-60341769D01*
X139369552Y-60275447D01*
X139303230Y-60231132D01*
X139303229Y-60231131D01*
X139244752Y-60219500D01*
X139244748Y-60219500D01*
X137677252Y-60219500D01*
X137677247Y-60219500D01*
X137618770Y-60231131D01*
X137618766Y-60231133D01*
X137542913Y-60281817D01*
X137476236Y-60302695D01*
X137408856Y-60284210D01*
X137386342Y-60266396D01*
X137314672Y-60194726D01*
X137314668Y-60194723D01*
X137208133Y-60123538D01*
X137208124Y-60123533D01*
X137089744Y-60074499D01*
X137089738Y-60074497D01*
X136964071Y-60049500D01*
X136964069Y-60049500D01*
X136835931Y-60049500D01*
X136835929Y-60049500D01*
X136710261Y-60074497D01*
X136710255Y-60074499D01*
X136591875Y-60123533D01*
X136591866Y-60123538D01*
X136485331Y-60194723D01*
X136485327Y-60194726D01*
X136394726Y-60285327D01*
X136394723Y-60285331D01*
X136323538Y-60391866D01*
X136323533Y-60391875D01*
X136274499Y-60510255D01*
X136274497Y-60510261D01*
X136249500Y-60635928D01*
X136249500Y-60635931D01*
X136249500Y-60764069D01*
X136249500Y-60764071D01*
X136249499Y-60764071D01*
X136274497Y-60889738D01*
X136274499Y-60889744D01*
X136323533Y-61008124D01*
X136323538Y-61008133D01*
X136394723Y-61114668D01*
X136394726Y-61114672D01*
X136485327Y-61205273D01*
X136485331Y-61205276D01*
X136591866Y-61276461D01*
X136591875Y-61276466D01*
X136617770Y-61287192D01*
X136710256Y-61325501D01*
X136710260Y-61325501D01*
X136710261Y-61325502D01*
X136835928Y-61350500D01*
X136835931Y-61350500D01*
X136964071Y-61350500D01*
X137059500Y-61331517D01*
X137089744Y-61325501D01*
X137208127Y-61276465D01*
X137314669Y-61205276D01*
X137346650Y-61173295D01*
X137407972Y-61139809D01*
X137477664Y-61144793D01*
X137509000Y-61161977D01*
X137525769Y-61174624D01*
X137552448Y-61214552D01*
X137618769Y-61258867D01*
X137644155Y-61263916D01*
X137666808Y-61281002D01*
X137671407Y-61287192D01*
X137678244Y-61290769D01*
X137691955Y-61314848D01*
X137708477Y-61337086D01*
X137708999Y-61344781D01*
X137712817Y-61351486D01*
X137711333Y-61379155D01*
X137713210Y-61406795D01*
X137709489Y-61413551D01*
X137709076Y-61421255D01*
X137692868Y-61443730D01*
X137679504Y-61467997D01*
X137672721Y-61471669D01*
X137668209Y-61477926D01*
X137629668Y-61495526D01*
X137630054Y-61496458D01*
X137618769Y-61501132D01*
X137552447Y-61545447D01*
X137508132Y-61611769D01*
X137508131Y-61611770D01*
X137496500Y-61670247D01*
X137496500Y-62359752D01*
X137508131Y-62418229D01*
X137508132Y-62418230D01*
X137552447Y-62484552D01*
X137618769Y-62528867D01*
X137630054Y-62533542D01*
X137629366Y-62535201D01*
X137678244Y-62560769D01*
X137712817Y-62621486D01*
X137709076Y-62691255D01*
X137668209Y-62747926D01*
X137629668Y-62765526D01*
X137630054Y-62766458D01*
X137618769Y-62771132D01*
X137552447Y-62815447D01*
X137508132Y-62881769D01*
X137508131Y-62881770D01*
X137496500Y-62940247D01*
X137496500Y-63272167D01*
X137476815Y-63339206D01*
X137424011Y-63384961D01*
X137354853Y-63394905D01*
X137291297Y-63365880D01*
X137284819Y-63359848D01*
X136670578Y-62745607D01*
X136637093Y-62684284D01*
X136636642Y-62633735D01*
X136650500Y-62564069D01*
X136650500Y-62435931D01*
X136650500Y-62435928D01*
X136625502Y-62310261D01*
X136625501Y-62310260D01*
X136625501Y-62310256D01*
X136585025Y-62212539D01*
X136576466Y-62191875D01*
X136576461Y-62191866D01*
X136505276Y-62085331D01*
X136505273Y-62085327D01*
X136414672Y-61994726D01*
X136414668Y-61994723D01*
X136308133Y-61923538D01*
X136308124Y-61923533D01*
X136189744Y-61874499D01*
X136189738Y-61874497D01*
X136064071Y-61849500D01*
X136064069Y-61849500D01*
X135935931Y-61849500D01*
X135935929Y-61849500D01*
X135810261Y-61874497D01*
X135810255Y-61874499D01*
X135691875Y-61923533D01*
X135691866Y-61923538D01*
X135585331Y-61994723D01*
X135585327Y-61994726D01*
X135494726Y-62085327D01*
X135494723Y-62085331D01*
X135423538Y-62191866D01*
X135423533Y-62191875D01*
X135374499Y-62310255D01*
X135374497Y-62310261D01*
X135349500Y-62435928D01*
X135349500Y-62435931D01*
X135349500Y-62564069D01*
X135349500Y-62564071D01*
X135349499Y-62564071D01*
X133823138Y-62564071D01*
X133831788Y-62552075D01*
X133870331Y-62534473D01*
X133869946Y-62533542D01*
X133881229Y-62528867D01*
X133881231Y-62528867D01*
X133947552Y-62484552D01*
X133991867Y-62418231D01*
X133992576Y-62414668D01*
X133994371Y-62405646D01*
X134003500Y-62359747D01*
X134003500Y-61670249D01*
X134003499Y-61670247D01*
X133991868Y-61611770D01*
X133991867Y-61611769D01*
X133947552Y-61545447D01*
X133881230Y-61501132D01*
X133869946Y-61496458D01*
X133870633Y-61494798D01*
X133821757Y-61469232D01*
X133787183Y-61408517D01*
X133790922Y-61338747D01*
X133831788Y-61282075D01*
X133870331Y-61264473D01*
X133869946Y-61263542D01*
X133881229Y-61258867D01*
X133881231Y-61258867D01*
X133947552Y-61214552D01*
X133991867Y-61148231D01*
X133991867Y-61148229D01*
X133991868Y-61148229D01*
X134003499Y-61089752D01*
X134003500Y-61089750D01*
X134003500Y-60400249D01*
X134003499Y-60400247D01*
X133991868Y-60341770D01*
X133991867Y-60341769D01*
X133947552Y-60275447D01*
X133881230Y-60231132D01*
X133881229Y-60231131D01*
X133822752Y-60219500D01*
X133822748Y-60219500D01*
X132989833Y-60219500D01*
X132922794Y-60199815D01*
X132902152Y-60183181D01*
X132649881Y-59930910D01*
X132616396Y-59869587D01*
X132621380Y-59799895D01*
X132622974Y-59795842D01*
X132625501Y-59789744D01*
X132650500Y-59664069D01*
X132650500Y-59535931D01*
X132650500Y-59535928D01*
X132625502Y-59410261D01*
X132625501Y-59410260D01*
X132625501Y-59410256D01*
X132576465Y-59291873D01*
X132576464Y-59291872D01*
X132576461Y-59291866D01*
X132505276Y-59185331D01*
X132505273Y-59185327D01*
X132414672Y-59094726D01*
X132414668Y-59094723D01*
X132308133Y-59023538D01*
X132308124Y-59023533D01*
X132189744Y-58974499D01*
X132189738Y-58974497D01*
X132064071Y-58949500D01*
X132064069Y-58949500D01*
X131935931Y-58949500D01*
X131935929Y-58949500D01*
X131810261Y-58974497D01*
X131810255Y-58974499D01*
X131691875Y-59023533D01*
X131691866Y-59023538D01*
X131585331Y-59094723D01*
X131585327Y-59094726D01*
X131494726Y-59185327D01*
X131494723Y-59185331D01*
X131423538Y-59291866D01*
X131423533Y-59291875D01*
X131374499Y-59410255D01*
X131374497Y-59410261D01*
X131349500Y-59535928D01*
X131349500Y-59535931D01*
X131349500Y-59664069D01*
X131349500Y-59664071D01*
X131349499Y-59664071D01*
X131374497Y-59789738D01*
X131374500Y-59789748D01*
X131415729Y-59889284D01*
X131423198Y-59958753D01*
X131391923Y-60021232D01*
X131331833Y-60056884D01*
X131262008Y-60054390D01*
X131260213Y-60053777D01*
X131184700Y-60027353D01*
X131154270Y-60024500D01*
X131154266Y-60024500D01*
X130245734Y-60024500D01*
X130245730Y-60024500D01*
X130215300Y-60027353D01*
X130215298Y-60027353D01*
X130087119Y-60072206D01*
X130087117Y-60072207D01*
X129977850Y-60152850D01*
X129897207Y-60262117D01*
X129897206Y-60262119D01*
X129852353Y-60390298D01*
X129852353Y-60390300D01*
X129849500Y-60420730D01*
X128450500Y-60420730D01*
X128447646Y-60390300D01*
X128447646Y-60390298D01*
X128414006Y-60294163D01*
X128402793Y-60262118D01*
X128322150Y-60152850D01*
X128212882Y-60072207D01*
X128212880Y-60072206D01*
X128084700Y-60027353D01*
X128054270Y-60024500D01*
X128054266Y-60024500D01*
X127145734Y-60024500D01*
X127145730Y-60024500D01*
X127115300Y-60027353D01*
X127115298Y-60027353D01*
X126987119Y-60072206D01*
X126987117Y-60072207D01*
X126877850Y-60152850D01*
X126797207Y-60262117D01*
X126797206Y-60262119D01*
X126752353Y-60390298D01*
X126752353Y-60390300D01*
X126749500Y-60420730D01*
X126749500Y-60675500D01*
X126746949Y-60684185D01*
X126748238Y-60693147D01*
X126737259Y-60717187D01*
X126729815Y-60742539D01*
X126722974Y-60748466D01*
X126719213Y-60756703D01*
X126696978Y-60770992D01*
X126677011Y-60788294D01*
X126666496Y-60790581D01*
X126660435Y-60794477D01*
X126625500Y-60799500D01*
X126549500Y-60799500D01*
X126482461Y-60779815D01*
X126436706Y-60727011D01*
X126425500Y-60675500D01*
X126425500Y-60645730D01*
X126422646Y-60615300D01*
X126422646Y-60615298D01*
X126377793Y-60487119D01*
X126377792Y-60487117D01*
X126297150Y-60377850D01*
X126187882Y-60297207D01*
X126187880Y-60297206D01*
X126059700Y-60252353D01*
X126029270Y-60249500D01*
X126029266Y-60249500D01*
X124670734Y-60249500D01*
X124670730Y-60249500D01*
X124640300Y-60252353D01*
X124640298Y-60252353D01*
X124512119Y-60297206D01*
X124512117Y-60297207D01*
X124402850Y-60377850D01*
X124322207Y-60487117D01*
X124322206Y-60487119D01*
X124277353Y-60615298D01*
X124277353Y-60615300D01*
X124274500Y-60645730D01*
X124274500Y-60675500D01*
X124254815Y-60742539D01*
X124202011Y-60788294D01*
X124150500Y-60799500D01*
X121610438Y-60799500D01*
X121572224Y-60809739D01*
X121534009Y-60819979D01*
X121534004Y-60819982D01*
X121465495Y-60859535D01*
X121465487Y-60859541D01*
X121161848Y-61163181D01*
X121100525Y-61196666D01*
X121074167Y-61199500D01*
X120405247Y-61199500D01*
X120346770Y-61211131D01*
X120346769Y-61211132D01*
X120280447Y-61255447D01*
X120236131Y-61321771D01*
X120235640Y-61322957D01*
X120233878Y-61325142D01*
X120229348Y-61331923D01*
X120228741Y-61331517D01*
X120191797Y-61377359D01*
X120125502Y-61399421D01*
X120121081Y-61399500D01*
X120072937Y-61399500D01*
X120039286Y-61408517D01*
X119996508Y-61419979D01*
X119996503Y-61419982D01*
X119927994Y-61459535D01*
X119927986Y-61459541D01*
X119299347Y-62088181D01*
X119238024Y-62121666D01*
X119211666Y-62124500D01*
X117857239Y-62124500D01*
X117819025Y-62134739D01*
X117780810Y-62144979D01*
X117780809Y-62144980D01*
X117732891Y-62172646D01*
X117712293Y-62184538D01*
X117712287Y-62184542D01*
X116693649Y-63203181D01*
X116632326Y-63236666D01*
X116605968Y-63239500D01*
X114750026Y-63239500D01*
X114682987Y-63219815D01*
X114637232Y-63167011D01*
X114632095Y-63153817D01*
X114582897Y-63002399D01*
X114582895Y-63002393D01*
X114527134Y-62892958D01*
X114482815Y-62805978D01*
X114438953Y-62745607D01*
X114353247Y-62627641D01*
X114353243Y-62627636D01*
X114197363Y-62471756D01*
X114197358Y-62471752D01*
X114019025Y-62342187D01*
X114019024Y-62342186D01*
X114019022Y-62342185D01*
X113940460Y-62302155D01*
X113822606Y-62242104D01*
X113822603Y-62242103D01*
X113612952Y-62173985D01*
X113429821Y-62144980D01*
X113395222Y-62139500D01*
X113174778Y-62139500D01*
X113140179Y-62144980D01*
X112957047Y-62173985D01*
X112747396Y-62242103D01*
X112747393Y-62242104D01*
X112550974Y-62342187D01*
X112372641Y-62471752D01*
X112372636Y-62471756D01*
X112216756Y-62627636D01*
X112216752Y-62627641D01*
X112087187Y-62805974D01*
X111987104Y-63002393D01*
X111987103Y-63002396D01*
X111918985Y-63212047D01*
X111903916Y-63307190D01*
X111884500Y-63429778D01*
X110540000Y-63429778D01*
X110540000Y-63428575D01*
X110510914Y-63207645D01*
X110510911Y-63207632D01*
X110453236Y-62992381D01*
X110367954Y-62786497D01*
X110367949Y-62786485D01*
X110256533Y-62593507D01*
X110205956Y-62527595D01*
X110205955Y-62527595D01*
X109555846Y-63177704D01*
X109548951Y-63161058D01*
X109461401Y-63030030D01*
X109349970Y-62918599D01*
X109218942Y-62831049D01*
X109202293Y-62824152D01*
X109852403Y-62174043D01*
X109852403Y-62174040D01*
X109786504Y-62123473D01*
X109786491Y-62123464D01*
X109593520Y-62012054D01*
X109593502Y-62012045D01*
X109387618Y-61926763D01*
X109172367Y-61869088D01*
X109172354Y-61869085D01*
X108951425Y-61840000D01*
X108728575Y-61840000D01*
X108507645Y-61869085D01*
X108507632Y-61869088D01*
X108292381Y-61926763D01*
X108086497Y-62012045D01*
X108086479Y-62012054D01*
X107893511Y-62123462D01*
X107827595Y-62174042D01*
X108477706Y-62824152D01*
X108461058Y-62831049D01*
X108330030Y-62918599D01*
X108218599Y-63030030D01*
X108131049Y-63161058D01*
X108124153Y-63177706D01*
X107474042Y-62527595D01*
X107423462Y-62593511D01*
X107312054Y-62786479D01*
X107312045Y-62786497D01*
X107226763Y-62992381D01*
X107169088Y-63207632D01*
X107169085Y-63207645D01*
X107140000Y-63428575D01*
X100050500Y-63428575D01*
X100050500Y-47393713D01*
X102149500Y-47393713D01*
X102149500Y-47606287D01*
X102157172Y-47654727D01*
X102176292Y-47775448D01*
X102182754Y-47816243D01*
X102210050Y-47900252D01*
X102248444Y-48018414D01*
X102344951Y-48207820D01*
X102469890Y-48379786D01*
X102620213Y-48530109D01*
X102792179Y-48655048D01*
X102792181Y-48655049D01*
X102792184Y-48655051D01*
X102981588Y-48751557D01*
X103183757Y-48817246D01*
X103393713Y-48850500D01*
X103393714Y-48850500D01*
X103606286Y-48850500D01*
X103606287Y-48850500D01*
X103816243Y-48817246D01*
X104018412Y-48751557D01*
X104207816Y-48655051D01*
X104229789Y-48639086D01*
X104379786Y-48530109D01*
X104379788Y-48530106D01*
X104379792Y-48530104D01*
X104530104Y-48379792D01*
X104530106Y-48379788D01*
X104530109Y-48379786D01*
X104655048Y-48207820D01*
X104655047Y-48207820D01*
X104655051Y-48207816D01*
X104751557Y-48018412D01*
X104789951Y-47900247D01*
X107319500Y-47900247D01*
X107319500Y-49639752D01*
X107331131Y-49698229D01*
X107331132Y-49698230D01*
X107375447Y-49764552D01*
X107441769Y-49808867D01*
X107441770Y-49808868D01*
X107500247Y-49820499D01*
X107500250Y-49820500D01*
X107500252Y-49820500D01*
X109239750Y-49820500D01*
X109239751Y-49820499D01*
X109254568Y-49817552D01*
X109298229Y-49808868D01*
X109298229Y-49808867D01*
X109298231Y-49808867D01*
X109364552Y-49764552D01*
X109408867Y-49698231D01*
X109408867Y-49698229D01*
X109408868Y-49698229D01*
X109420499Y-49639752D01*
X109420500Y-49639750D01*
X109420500Y-48666530D01*
X109859500Y-48666530D01*
X109859500Y-48873469D01*
X109899868Y-49076412D01*
X109899870Y-49076420D01*
X109965939Y-49235925D01*
X109979059Y-49267598D01*
X109992836Y-49288217D01*
X110094024Y-49439657D01*
X110240342Y-49585975D01*
X110240345Y-49585977D01*
X110412402Y-49700941D01*
X110603580Y-49780130D01*
X110748052Y-49808867D01*
X110806530Y-49820499D01*
X110806534Y-49820500D01*
X110806535Y-49820500D01*
X111013466Y-49820500D01*
X111013467Y-49820499D01*
X111216420Y-49780130D01*
X111407598Y-49700941D01*
X111579655Y-49585977D01*
X111725977Y-49439655D01*
X111840941Y-49267598D01*
X111920130Y-49076420D01*
X111960500Y-48873465D01*
X111960500Y-48666535D01*
X111920130Y-48463580D01*
X111840941Y-48272402D01*
X111725977Y-48100345D01*
X111725975Y-48100342D01*
X111579657Y-47954024D01*
X111493626Y-47896541D01*
X111407598Y-47839059D01*
X111407593Y-47839057D01*
X111216420Y-47759870D01*
X111216412Y-47759868D01*
X111013469Y-47719500D01*
X111013465Y-47719500D01*
X110806535Y-47719500D01*
X110806530Y-47719500D01*
X110603587Y-47759868D01*
X110603579Y-47759870D01*
X110412403Y-47839058D01*
X110240342Y-47954024D01*
X110094024Y-48100342D01*
X109979058Y-48272403D01*
X109899870Y-48463579D01*
X109899868Y-48463587D01*
X109859500Y-48666530D01*
X109420500Y-48666530D01*
X109420500Y-47900249D01*
X109420499Y-47900247D01*
X109408868Y-47841770D01*
X109408867Y-47841769D01*
X109364552Y-47775447D01*
X109298230Y-47731132D01*
X109298229Y-47731131D01*
X109239752Y-47719500D01*
X109239748Y-47719500D01*
X107500252Y-47719500D01*
X107500247Y-47719500D01*
X107441770Y-47731131D01*
X107441769Y-47731132D01*
X107375447Y-47775447D01*
X107331132Y-47841769D01*
X107331131Y-47841770D01*
X107319500Y-47900247D01*
X104789951Y-47900247D01*
X104817246Y-47816243D01*
X104850500Y-47606287D01*
X104850500Y-47393713D01*
X104817246Y-47183757D01*
X104751557Y-46981588D01*
X104655051Y-46792184D01*
X104655049Y-46792181D01*
X104655048Y-46792179D01*
X104530109Y-46620213D01*
X104379786Y-46469890D01*
X104207820Y-46344951D01*
X104018414Y-46248444D01*
X104018413Y-46248443D01*
X104018412Y-46248443D01*
X103816243Y-46182754D01*
X103816241Y-46182753D01*
X103816240Y-46182753D01*
X103654957Y-46157208D01*
X103606287Y-46149500D01*
X103393713Y-46149500D01*
X103345042Y-46157208D01*
X103183760Y-46182753D01*
X102981585Y-46248444D01*
X102792179Y-46344951D01*
X102620213Y-46469890D01*
X102469890Y-46620213D01*
X102344951Y-46792179D01*
X102248444Y-46981585D01*
X102182753Y-47183760D01*
X102173825Y-47240129D01*
X102149500Y-47393713D01*
X100050500Y-47393713D01*
X100050500Y-46126530D01*
X107319500Y-46126530D01*
X107319500Y-46333469D01*
X107359868Y-46536412D01*
X107359870Y-46536420D01*
X107425939Y-46695925D01*
X107439059Y-46727598D01*
X107452836Y-46748217D01*
X107554024Y-46899657D01*
X107700342Y-47045975D01*
X107700345Y-47045977D01*
X107872402Y-47160941D01*
X108063580Y-47240130D01*
X108228855Y-47273005D01*
X108266530Y-47280499D01*
X108266534Y-47280500D01*
X108266535Y-47280500D01*
X108473466Y-47280500D01*
X108473467Y-47280499D01*
X108676420Y-47240130D01*
X108867598Y-47160941D01*
X109039655Y-47045977D01*
X109185977Y-46899655D01*
X109300941Y-46727598D01*
X109380130Y-46536420D01*
X109420500Y-46333465D01*
X109420500Y-46126535D01*
X109420499Y-46126530D01*
X109859500Y-46126530D01*
X109859500Y-46333469D01*
X109899868Y-46536412D01*
X109899870Y-46536420D01*
X109965939Y-46695925D01*
X109979059Y-46727598D01*
X109992836Y-46748217D01*
X110094024Y-46899657D01*
X110240342Y-47045975D01*
X110240345Y-47045977D01*
X110412402Y-47160941D01*
X110603580Y-47240130D01*
X110768855Y-47273005D01*
X110806530Y-47280499D01*
X110806534Y-47280500D01*
X110806535Y-47280500D01*
X111013466Y-47280500D01*
X111013467Y-47280499D01*
X111216420Y-47240130D01*
X111407598Y-47160941D01*
X111579655Y-47045977D01*
X111725977Y-46899655D01*
X111840941Y-46727598D01*
X111909165Y-46562889D01*
X111953004Y-46508488D01*
X112019298Y-46486423D01*
X112086998Y-46503702D01*
X112134609Y-46554839D01*
X112141656Y-46572026D01*
X112198904Y-46748216D01*
X112295375Y-46937550D01*
X112334728Y-46991716D01*
X112967037Y-46359408D01*
X112984075Y-46422993D01*
X113049901Y-46537007D01*
X113142993Y-46630099D01*
X113257007Y-46695925D01*
X113320590Y-46712962D01*
X112688282Y-47345269D01*
X112688282Y-47345270D01*
X112742449Y-47384624D01*
X112931782Y-47481095D01*
X113107973Y-47538343D01*
X113165648Y-47577780D01*
X113192847Y-47642139D01*
X113180932Y-47710985D01*
X113133688Y-47762461D01*
X113117108Y-47770835D01*
X112952403Y-47839057D01*
X112780342Y-47954024D01*
X112634024Y-48100342D01*
X112519058Y-48272403D01*
X112439870Y-48463579D01*
X112439868Y-48463587D01*
X112399500Y-48666530D01*
X112399500Y-48873469D01*
X112439868Y-49076412D01*
X112439870Y-49076420D01*
X112505939Y-49235925D01*
X112519059Y-49267598D01*
X112532836Y-49288217D01*
X112634024Y-49439657D01*
X112780342Y-49585975D01*
X112780345Y-49585977D01*
X112952402Y-49700941D01*
X113143580Y-49780130D01*
X113288052Y-49808867D01*
X113346530Y-49820499D01*
X113346534Y-49820500D01*
X113346535Y-49820500D01*
X113553466Y-49820500D01*
X113553467Y-49820499D01*
X113756420Y-49780130D01*
X113947598Y-49700941D01*
X114119655Y-49585977D01*
X114265977Y-49439655D01*
X114380941Y-49267598D01*
X114460130Y-49076420D01*
X114500500Y-48873465D01*
X114500500Y-48666535D01*
X114500499Y-48666530D01*
X114939500Y-48666530D01*
X114939500Y-48873469D01*
X114979868Y-49076412D01*
X114979870Y-49076420D01*
X115045939Y-49235925D01*
X115059059Y-49267598D01*
X115072836Y-49288217D01*
X115174024Y-49439657D01*
X115320342Y-49585975D01*
X115320345Y-49585977D01*
X115492402Y-49700941D01*
X115683580Y-49780130D01*
X115828052Y-49808867D01*
X115886530Y-49820499D01*
X115886534Y-49820500D01*
X115886535Y-49820500D01*
X116093466Y-49820500D01*
X116093467Y-49820499D01*
X116296420Y-49780130D01*
X116487598Y-49700941D01*
X116659655Y-49585977D01*
X116805977Y-49439655D01*
X116920941Y-49267598D01*
X116989165Y-49102889D01*
X117033004Y-49048488D01*
X117099298Y-49026423D01*
X117166998Y-49043702D01*
X117214609Y-49094839D01*
X117221656Y-49112026D01*
X117278904Y-49288216D01*
X117375375Y-49477550D01*
X117414728Y-49531716D01*
X118047037Y-48899408D01*
X118064075Y-48962993D01*
X118129901Y-49077007D01*
X118222993Y-49170099D01*
X118337007Y-49235925D01*
X118400590Y-49252962D01*
X117768282Y-49885269D01*
X117768282Y-49885270D01*
X117822449Y-49924624D01*
X118011782Y-50021095D01*
X118213870Y-50086757D01*
X118423754Y-50120000D01*
X118636246Y-50120000D01*
X118846127Y-50086757D01*
X118846130Y-50086757D01*
X119048217Y-50021095D01*
X119237554Y-49924622D01*
X119291716Y-49885270D01*
X119291717Y-49885270D01*
X118659408Y-49252962D01*
X118722993Y-49235925D01*
X118837007Y-49170099D01*
X118930099Y-49077007D01*
X118995925Y-48962993D01*
X119012962Y-48899408D01*
X119645270Y-49531717D01*
X119645270Y-49531716D01*
X119684622Y-49477554D01*
X119781095Y-49288217D01*
X119838343Y-49112026D01*
X119877780Y-49054351D01*
X119942139Y-49027152D01*
X120010985Y-49039066D01*
X120062461Y-49086310D01*
X120070835Y-49102891D01*
X120125939Y-49235925D01*
X120139059Y-49267598D01*
X120152836Y-49288217D01*
X120254024Y-49439657D01*
X120400342Y-49585975D01*
X120400345Y-49585977D01*
X120572402Y-49700941D01*
X120763580Y-49780130D01*
X120908052Y-49808867D01*
X120966530Y-49820499D01*
X120966534Y-49820500D01*
X120966535Y-49820500D01*
X121173466Y-49820500D01*
X121173467Y-49820499D01*
X121376420Y-49780130D01*
X121567598Y-49700941D01*
X121739655Y-49585977D01*
X121885977Y-49439655D01*
X122000941Y-49267598D01*
X122080130Y-49076420D01*
X122120500Y-48873465D01*
X122120500Y-48666535D01*
X122080130Y-48463580D01*
X122000941Y-48272402D01*
X121885977Y-48100345D01*
X121885975Y-48100342D01*
X121739657Y-47954024D01*
X121653626Y-47896541D01*
X121567598Y-47839059D01*
X121567593Y-47839057D01*
X121376420Y-47759870D01*
X121376412Y-47759868D01*
X121173469Y-47719500D01*
X121173465Y-47719500D01*
X120966535Y-47719500D01*
X120966530Y-47719500D01*
X120763587Y-47759868D01*
X120763579Y-47759870D01*
X120572403Y-47839058D01*
X120400342Y-47954024D01*
X120254024Y-48100342D01*
X120139057Y-48272403D01*
X120070835Y-48437108D01*
X120026994Y-48491511D01*
X119960700Y-48513576D01*
X119893000Y-48496297D01*
X119845390Y-48445159D01*
X119838343Y-48427973D01*
X119781095Y-48251782D01*
X119684624Y-48062449D01*
X119645270Y-48008282D01*
X119645269Y-48008282D01*
X119012962Y-48640590D01*
X118995925Y-48577007D01*
X118930099Y-48462993D01*
X118837007Y-48369901D01*
X118722993Y-48304075D01*
X118659409Y-48287037D01*
X119291716Y-47654728D01*
X119237550Y-47615375D01*
X119048216Y-47518904D01*
X118872026Y-47461656D01*
X118814350Y-47422218D01*
X118787152Y-47357860D01*
X118799067Y-47289013D01*
X118846311Y-47237538D01*
X118862882Y-47229168D01*
X119027598Y-47160941D01*
X119199655Y-47045977D01*
X119345977Y-46899655D01*
X119460941Y-46727598D01*
X119540130Y-46536420D01*
X119580500Y-46333465D01*
X119580500Y-46126535D01*
X119580499Y-46126530D01*
X120019500Y-46126530D01*
X120019500Y-46333469D01*
X120059868Y-46536412D01*
X120059870Y-46536420D01*
X120125939Y-46695925D01*
X120139059Y-46727598D01*
X120152836Y-46748217D01*
X120254024Y-46899657D01*
X120400342Y-47045975D01*
X120400345Y-47045977D01*
X120572402Y-47160941D01*
X120763580Y-47240130D01*
X120928855Y-47273005D01*
X120966530Y-47280499D01*
X120966534Y-47280500D01*
X120966535Y-47280500D01*
X121173466Y-47280500D01*
X121173467Y-47280499D01*
X121376420Y-47240130D01*
X121567598Y-47160941D01*
X121739655Y-47045977D01*
X121885977Y-46899655D01*
X122000941Y-46727598D01*
X122069165Y-46562889D01*
X122113004Y-46508488D01*
X122179298Y-46486423D01*
X122246998Y-46503702D01*
X122294609Y-46554839D01*
X122301656Y-46572026D01*
X122358904Y-46748216D01*
X122455375Y-46937550D01*
X122494728Y-46991716D01*
X123127037Y-46359408D01*
X123144075Y-46422993D01*
X123209901Y-46537007D01*
X123302993Y-46630099D01*
X123417007Y-46695925D01*
X123480590Y-46712962D01*
X122848282Y-47345269D01*
X122848282Y-47345270D01*
X122902449Y-47384624D01*
X123091782Y-47481095D01*
X123267973Y-47538343D01*
X123325648Y-47577780D01*
X123352847Y-47642139D01*
X123340932Y-47710985D01*
X123293688Y-47762461D01*
X123277108Y-47770835D01*
X123112403Y-47839057D01*
X122940342Y-47954024D01*
X122794024Y-48100342D01*
X122679058Y-48272403D01*
X122599870Y-48463579D01*
X122599868Y-48463587D01*
X122559500Y-48666530D01*
X122559500Y-48873469D01*
X122599868Y-49076412D01*
X122599870Y-49076420D01*
X122665939Y-49235925D01*
X122679059Y-49267598D01*
X122692836Y-49288217D01*
X122794024Y-49439657D01*
X122940342Y-49585975D01*
X122940345Y-49585977D01*
X123112402Y-49700941D01*
X123303580Y-49780130D01*
X123448052Y-49808867D01*
X123506530Y-49820499D01*
X123506534Y-49820500D01*
X123506535Y-49820500D01*
X123713466Y-49820500D01*
X123713467Y-49820499D01*
X123916420Y-49780130D01*
X124107598Y-49700941D01*
X124279655Y-49585977D01*
X124425977Y-49439655D01*
X124540941Y-49267598D01*
X124620130Y-49076420D01*
X124660500Y-48873465D01*
X124660500Y-48666535D01*
X124660499Y-48666530D01*
X125099500Y-48666530D01*
X125099500Y-48873469D01*
X125139868Y-49076412D01*
X125139870Y-49076420D01*
X125205939Y-49235925D01*
X125219059Y-49267598D01*
X125232836Y-49288217D01*
X125334024Y-49439657D01*
X125480342Y-49585975D01*
X125480345Y-49585977D01*
X125652402Y-49700941D01*
X125843580Y-49780130D01*
X125988052Y-49808867D01*
X126046530Y-49820499D01*
X126046534Y-49820500D01*
X126046535Y-49820500D01*
X126253466Y-49820500D01*
X126253467Y-49820499D01*
X126456420Y-49780130D01*
X126647598Y-49700941D01*
X126819655Y-49585977D01*
X126965977Y-49439655D01*
X127080941Y-49267598D01*
X127160130Y-49076420D01*
X127200500Y-48873465D01*
X127200500Y-48666535D01*
X127200499Y-48666530D01*
X127639500Y-48666530D01*
X127639500Y-48873469D01*
X127679868Y-49076412D01*
X127679870Y-49076420D01*
X127745939Y-49235925D01*
X127759059Y-49267598D01*
X127772836Y-49288217D01*
X127874024Y-49439657D01*
X128020342Y-49585975D01*
X128020345Y-49585977D01*
X128192402Y-49700941D01*
X128383580Y-49780130D01*
X128528052Y-49808867D01*
X128586530Y-49820499D01*
X128586534Y-49820500D01*
X128586535Y-49820500D01*
X128793466Y-49820500D01*
X128793467Y-49820499D01*
X128996420Y-49780130D01*
X129187598Y-49700941D01*
X129359655Y-49585977D01*
X129505977Y-49439655D01*
X129620941Y-49267598D01*
X129700130Y-49076420D01*
X129740500Y-48873465D01*
X129740500Y-48666535D01*
X129700130Y-48463580D01*
X129620941Y-48272402D01*
X129505977Y-48100345D01*
X129505975Y-48100342D01*
X129359657Y-47954024D01*
X129273626Y-47896541D01*
X129187598Y-47839059D01*
X129187593Y-47839057D01*
X128996420Y-47759870D01*
X128996412Y-47759868D01*
X128793469Y-47719500D01*
X128793465Y-47719500D01*
X128586535Y-47719500D01*
X128586530Y-47719500D01*
X128383587Y-47759868D01*
X128383579Y-47759870D01*
X128192403Y-47839058D01*
X128020342Y-47954024D01*
X127874024Y-48100342D01*
X127759058Y-48272403D01*
X127679870Y-48463579D01*
X127679868Y-48463587D01*
X127639500Y-48666530D01*
X127200499Y-48666530D01*
X127160130Y-48463580D01*
X127080941Y-48272402D01*
X126965977Y-48100345D01*
X126965975Y-48100342D01*
X126819657Y-47954024D01*
X126733626Y-47896541D01*
X126647598Y-47839059D01*
X126647593Y-47839057D01*
X126456420Y-47759870D01*
X126456412Y-47759868D01*
X126253469Y-47719500D01*
X126253465Y-47719500D01*
X126046535Y-47719500D01*
X126046530Y-47719500D01*
X125843587Y-47759868D01*
X125843579Y-47759870D01*
X125652403Y-47839058D01*
X125480342Y-47954024D01*
X125334024Y-48100342D01*
X125219058Y-48272403D01*
X125139870Y-48463579D01*
X125139868Y-48463587D01*
X125099500Y-48666530D01*
X124660499Y-48666530D01*
X124620130Y-48463580D01*
X124540941Y-48272402D01*
X124425977Y-48100345D01*
X124425975Y-48100342D01*
X124279657Y-47954024D01*
X124193626Y-47896541D01*
X124107598Y-47839059D01*
X124107593Y-47839057D01*
X123954028Y-47775448D01*
X123942890Y-47770834D01*
X123888488Y-47726994D01*
X123866423Y-47660700D01*
X123883702Y-47593001D01*
X123934839Y-47545390D01*
X123952026Y-47538343D01*
X124128217Y-47481095D01*
X124317554Y-47384622D01*
X124371716Y-47345270D01*
X124371717Y-47345270D01*
X123739408Y-46712962D01*
X123802993Y-46695925D01*
X123917007Y-46630099D01*
X124010099Y-46537007D01*
X124075925Y-46422993D01*
X124092962Y-46359409D01*
X124725270Y-46991717D01*
X124725270Y-46991716D01*
X124764622Y-46937554D01*
X124861095Y-46748217D01*
X124918343Y-46572026D01*
X124957780Y-46514351D01*
X125022139Y-46487152D01*
X125090985Y-46499066D01*
X125142461Y-46546310D01*
X125150833Y-46562887D01*
X125178673Y-46630099D01*
X125205939Y-46695925D01*
X125219059Y-46727598D01*
X125232836Y-46748217D01*
X125334024Y-46899657D01*
X125480342Y-47045975D01*
X125480345Y-47045977D01*
X125652402Y-47160941D01*
X125843580Y-47240130D01*
X126008855Y-47273005D01*
X126046530Y-47280499D01*
X126046534Y-47280500D01*
X126046535Y-47280500D01*
X126253466Y-47280500D01*
X126253467Y-47280499D01*
X126456420Y-47240130D01*
X126647598Y-47160941D01*
X126819655Y-47045977D01*
X126965977Y-46899655D01*
X127080941Y-46727598D01*
X127160130Y-46536420D01*
X127200500Y-46333465D01*
X127200500Y-46126535D01*
X127200499Y-46126530D01*
X127639500Y-46126530D01*
X127639500Y-46333469D01*
X127679868Y-46536412D01*
X127679870Y-46536420D01*
X127745939Y-46695925D01*
X127759059Y-46727598D01*
X127772836Y-46748217D01*
X127874024Y-46899657D01*
X128020342Y-47045975D01*
X128020345Y-47045977D01*
X128192402Y-47160941D01*
X128383580Y-47240130D01*
X128548855Y-47273005D01*
X128586530Y-47280499D01*
X128586534Y-47280500D01*
X128586535Y-47280500D01*
X128793466Y-47280500D01*
X128793467Y-47280499D01*
X128996420Y-47240130D01*
X129187598Y-47160941D01*
X129359655Y-47045977D01*
X129505977Y-46899655D01*
X129620941Y-46727598D01*
X129689165Y-46562889D01*
X129733004Y-46508488D01*
X129799298Y-46486423D01*
X129866998Y-46503702D01*
X129914609Y-46554839D01*
X129921656Y-46572026D01*
X129978904Y-46748216D01*
X130075375Y-46937550D01*
X130114728Y-46991716D01*
X130747037Y-46359408D01*
X130764075Y-46422993D01*
X130829901Y-46537007D01*
X130922993Y-46630099D01*
X131037007Y-46695925D01*
X131100590Y-46712962D01*
X130468282Y-47345269D01*
X130468282Y-47345270D01*
X130522449Y-47384624D01*
X130711782Y-47481095D01*
X130887973Y-47538343D01*
X130945648Y-47577780D01*
X130972847Y-47642139D01*
X130960932Y-47710985D01*
X130913688Y-47762461D01*
X130897108Y-47770835D01*
X130732403Y-47839057D01*
X130560342Y-47954024D01*
X130414024Y-48100342D01*
X130299058Y-48272403D01*
X130219870Y-48463579D01*
X130219868Y-48463587D01*
X130179500Y-48666530D01*
X130179500Y-48873469D01*
X130219868Y-49076412D01*
X130219870Y-49076420D01*
X130285939Y-49235925D01*
X130299059Y-49267598D01*
X130312836Y-49288217D01*
X130414024Y-49439657D01*
X130560342Y-49585975D01*
X130560345Y-49585977D01*
X130732402Y-49700941D01*
X130923580Y-49780130D01*
X131068052Y-49808867D01*
X131126530Y-49820499D01*
X131126534Y-49820500D01*
X131126535Y-49820500D01*
X131333466Y-49820500D01*
X131333467Y-49820499D01*
X131536420Y-49780130D01*
X131727598Y-49700941D01*
X131899655Y-49585977D01*
X132045977Y-49439655D01*
X132160941Y-49267598D01*
X132240130Y-49076420D01*
X132280500Y-48873465D01*
X132280500Y-48666535D01*
X132280499Y-48666530D01*
X132719500Y-48666530D01*
X132719500Y-48873469D01*
X132759868Y-49076412D01*
X132759870Y-49076420D01*
X132825939Y-49235925D01*
X132839059Y-49267598D01*
X132852836Y-49288217D01*
X132954024Y-49439657D01*
X133100342Y-49585975D01*
X133100345Y-49585977D01*
X133272402Y-49700941D01*
X133463580Y-49780130D01*
X133608052Y-49808867D01*
X133666530Y-49820499D01*
X133666534Y-49820500D01*
X133666535Y-49820500D01*
X133873466Y-49820500D01*
X133873467Y-49820499D01*
X134076420Y-49780130D01*
X134267598Y-49700941D01*
X134439655Y-49585977D01*
X134585977Y-49439655D01*
X134700941Y-49267598D01*
X134780130Y-49076420D01*
X134820500Y-48873465D01*
X134820500Y-48666535D01*
X134820499Y-48666530D01*
X135259500Y-48666530D01*
X135259500Y-48873469D01*
X135299868Y-49076412D01*
X135299870Y-49076420D01*
X135365939Y-49235925D01*
X135379059Y-49267598D01*
X135392836Y-49288217D01*
X135494024Y-49439657D01*
X135640342Y-49585975D01*
X135640345Y-49585977D01*
X135812402Y-49700941D01*
X136003580Y-49780130D01*
X136148052Y-49808867D01*
X136206530Y-49820499D01*
X136206534Y-49820500D01*
X136206535Y-49820500D01*
X136413466Y-49820500D01*
X136413467Y-49820499D01*
X136616420Y-49780130D01*
X136807598Y-49700941D01*
X136979655Y-49585977D01*
X137125977Y-49439655D01*
X137240941Y-49267598D01*
X137309165Y-49102889D01*
X137353004Y-49048488D01*
X137419298Y-49026423D01*
X137486998Y-49043702D01*
X137534609Y-49094839D01*
X137541656Y-49112026D01*
X137598904Y-49288216D01*
X137695375Y-49477550D01*
X137734728Y-49531716D01*
X138367037Y-48899408D01*
X138384075Y-48962993D01*
X138449901Y-49077007D01*
X138542993Y-49170099D01*
X138657007Y-49235925D01*
X138720590Y-49252962D01*
X138088282Y-49885269D01*
X138088282Y-49885270D01*
X138142449Y-49924624D01*
X138331782Y-50021095D01*
X138533870Y-50086757D01*
X138743754Y-50120000D01*
X138956246Y-50120000D01*
X139166127Y-50086757D01*
X139166130Y-50086757D01*
X139368217Y-50021095D01*
X139557554Y-49924622D01*
X139611716Y-49885270D01*
X139611717Y-49885270D01*
X138979408Y-49252962D01*
X139042993Y-49235925D01*
X139157007Y-49170099D01*
X139250099Y-49077007D01*
X139315925Y-48962993D01*
X139332962Y-48899408D01*
X139965270Y-49531717D01*
X139965270Y-49531716D01*
X140004622Y-49477554D01*
X140101095Y-49288217D01*
X140158343Y-49112026D01*
X140197780Y-49054351D01*
X140262139Y-49027152D01*
X140330985Y-49039066D01*
X140382461Y-49086310D01*
X140390835Y-49102891D01*
X140445939Y-49235925D01*
X140459059Y-49267598D01*
X140472836Y-49288217D01*
X140574024Y-49439657D01*
X140720342Y-49585975D01*
X140720345Y-49585977D01*
X140892402Y-49700941D01*
X141083580Y-49780130D01*
X141228052Y-49808867D01*
X141286530Y-49820499D01*
X141286534Y-49820500D01*
X141286535Y-49820500D01*
X141493466Y-49820500D01*
X141493467Y-49820499D01*
X141696420Y-49780130D01*
X141887598Y-49700941D01*
X142059655Y-49585977D01*
X142205977Y-49439655D01*
X142320941Y-49267598D01*
X142400130Y-49076420D01*
X142440500Y-48873465D01*
X142440500Y-48666535D01*
X142400130Y-48463580D01*
X142320941Y-48272402D01*
X142205977Y-48100345D01*
X142205975Y-48100342D01*
X142059657Y-47954024D01*
X141973626Y-47896541D01*
X141887598Y-47839059D01*
X141887593Y-47839057D01*
X141696420Y-47759870D01*
X141696412Y-47759868D01*
X141493469Y-47719500D01*
X141493465Y-47719500D01*
X141286535Y-47719500D01*
X141286530Y-47719500D01*
X141083587Y-47759868D01*
X141083579Y-47759870D01*
X140892403Y-47839058D01*
X140720342Y-47954024D01*
X140574024Y-48100342D01*
X140459057Y-48272403D01*
X140390835Y-48437108D01*
X140346994Y-48491511D01*
X140280700Y-48513576D01*
X140213000Y-48496297D01*
X140165390Y-48445159D01*
X140158343Y-48427973D01*
X140101095Y-48251782D01*
X140004624Y-48062449D01*
X139965270Y-48008282D01*
X139965269Y-48008282D01*
X139332962Y-48640590D01*
X139315925Y-48577007D01*
X139250099Y-48462993D01*
X139157007Y-48369901D01*
X139042993Y-48304075D01*
X138979409Y-48287037D01*
X139611716Y-47654728D01*
X139557550Y-47615375D01*
X139368216Y-47518904D01*
X139192026Y-47461656D01*
X139134350Y-47422218D01*
X139107152Y-47357860D01*
X139119067Y-47289013D01*
X139166311Y-47237538D01*
X139182882Y-47229168D01*
X139347598Y-47160941D01*
X139519655Y-47045977D01*
X139665977Y-46899655D01*
X139780941Y-46727598D01*
X139860130Y-46536420D01*
X139900500Y-46333465D01*
X139900500Y-46126535D01*
X139900499Y-46126530D01*
X140339500Y-46126530D01*
X140339500Y-46333469D01*
X140379868Y-46536412D01*
X140379870Y-46536420D01*
X140445939Y-46695925D01*
X140459059Y-46727598D01*
X140472836Y-46748217D01*
X140574024Y-46899657D01*
X140720342Y-47045975D01*
X140720345Y-47045977D01*
X140892402Y-47160941D01*
X141083580Y-47240130D01*
X141248855Y-47273005D01*
X141286530Y-47280499D01*
X141286534Y-47280500D01*
X141286535Y-47280500D01*
X141493466Y-47280500D01*
X141493467Y-47280499D01*
X141696420Y-47240130D01*
X141887598Y-47160941D01*
X142059655Y-47045977D01*
X142205977Y-46899655D01*
X142320941Y-46727598D01*
X142389165Y-46562889D01*
X142433004Y-46508488D01*
X142499298Y-46486423D01*
X142566998Y-46503702D01*
X142614609Y-46554839D01*
X142621656Y-46572026D01*
X142678904Y-46748216D01*
X142775375Y-46937550D01*
X142814728Y-46991716D01*
X143447036Y-46359407D01*
X143464075Y-46422993D01*
X143529901Y-46537007D01*
X143622993Y-46630099D01*
X143737007Y-46695925D01*
X143800590Y-46712962D01*
X143168282Y-47345269D01*
X143168282Y-47345270D01*
X143222449Y-47384624D01*
X143411782Y-47481095D01*
X143587973Y-47538343D01*
X143645648Y-47577780D01*
X143672847Y-47642139D01*
X143660932Y-47710985D01*
X143613688Y-47762461D01*
X143597108Y-47770835D01*
X143432403Y-47839057D01*
X143260342Y-47954024D01*
X143114024Y-48100342D01*
X142999058Y-48272403D01*
X142919870Y-48463579D01*
X142919868Y-48463587D01*
X142879500Y-48666530D01*
X142879500Y-48873469D01*
X142919868Y-49076412D01*
X142919870Y-49076420D01*
X142985939Y-49235925D01*
X142999059Y-49267598D01*
X143012836Y-49288217D01*
X143114024Y-49439657D01*
X143260342Y-49585975D01*
X143260345Y-49585977D01*
X143432402Y-49700941D01*
X143623580Y-49780130D01*
X143768052Y-49808867D01*
X143826530Y-49820499D01*
X143826534Y-49820500D01*
X143826535Y-49820500D01*
X144033466Y-49820500D01*
X144033467Y-49820499D01*
X144236420Y-49780130D01*
X144427598Y-49700941D01*
X144599655Y-49585977D01*
X144745977Y-49439655D01*
X144860941Y-49267598D01*
X144940130Y-49076420D01*
X144980500Y-48873465D01*
X144980500Y-48666535D01*
X144980499Y-48666530D01*
X145419500Y-48666530D01*
X145419500Y-48873469D01*
X145459868Y-49076412D01*
X145459870Y-49076420D01*
X145525939Y-49235925D01*
X145539059Y-49267598D01*
X145552836Y-49288217D01*
X145654024Y-49439657D01*
X145800342Y-49585975D01*
X145800345Y-49585977D01*
X145972402Y-49700941D01*
X146163580Y-49780130D01*
X146308052Y-49808867D01*
X146366530Y-49820499D01*
X146366534Y-49820500D01*
X146366535Y-49820500D01*
X146573466Y-49820500D01*
X146573467Y-49820499D01*
X146776420Y-49780130D01*
X146967598Y-49700941D01*
X147139655Y-49585977D01*
X147285977Y-49439655D01*
X147400941Y-49267598D01*
X147480130Y-49076420D01*
X147520500Y-48873465D01*
X147520500Y-48666535D01*
X147480130Y-48463580D01*
X147400941Y-48272402D01*
X147285977Y-48100345D01*
X147285975Y-48100342D01*
X147139657Y-47954024D01*
X147053626Y-47896541D01*
X146967598Y-47839059D01*
X146967593Y-47839057D01*
X146776420Y-47759870D01*
X146776412Y-47759868D01*
X146573469Y-47719500D01*
X146573465Y-47719500D01*
X146366535Y-47719500D01*
X146366530Y-47719500D01*
X146163587Y-47759868D01*
X146163579Y-47759870D01*
X145972403Y-47839058D01*
X145800342Y-47954024D01*
X145654024Y-48100342D01*
X145539058Y-48272403D01*
X145459870Y-48463579D01*
X145459868Y-48463587D01*
X145419500Y-48666530D01*
X144980499Y-48666530D01*
X144940130Y-48463580D01*
X144860941Y-48272402D01*
X144745977Y-48100345D01*
X144745975Y-48100342D01*
X144599657Y-47954024D01*
X144513626Y-47896541D01*
X144427598Y-47839059D01*
X144427593Y-47839057D01*
X144274028Y-47775448D01*
X144262890Y-47770834D01*
X144208488Y-47726994D01*
X144186423Y-47660700D01*
X144203702Y-47593001D01*
X144254839Y-47545390D01*
X144272026Y-47538343D01*
X144448217Y-47481095D01*
X144637554Y-47384622D01*
X144691716Y-47345270D01*
X144691717Y-47345270D01*
X144059408Y-46712962D01*
X144122993Y-46695925D01*
X144237007Y-46630099D01*
X144330099Y-46537007D01*
X144395925Y-46422993D01*
X144412962Y-46359408D01*
X145045270Y-46991717D01*
X145045270Y-46991716D01*
X145084622Y-46937554D01*
X145181095Y-46748217D01*
X145238343Y-46572026D01*
X145277780Y-46514351D01*
X145342139Y-46487152D01*
X145410985Y-46499066D01*
X145462461Y-46546310D01*
X145470833Y-46562887D01*
X145498673Y-46630099D01*
X145525939Y-46695925D01*
X145539059Y-46727598D01*
X145552836Y-46748217D01*
X145654024Y-46899657D01*
X145800342Y-47045975D01*
X145800345Y-47045977D01*
X145972402Y-47160941D01*
X146163580Y-47240130D01*
X146328855Y-47273005D01*
X146366530Y-47280499D01*
X146366534Y-47280500D01*
X146366535Y-47280500D01*
X146573466Y-47280500D01*
X146573467Y-47280499D01*
X146776420Y-47240130D01*
X146967598Y-47160941D01*
X147139655Y-47045977D01*
X147285977Y-46899655D01*
X147400941Y-46727598D01*
X147469165Y-46562889D01*
X147513004Y-46508488D01*
X147579298Y-46486423D01*
X147646998Y-46503702D01*
X147694609Y-46554839D01*
X147701656Y-46572026D01*
X147758904Y-46748216D01*
X147855375Y-46937550D01*
X147894728Y-46991716D01*
X148527036Y-46359407D01*
X148544075Y-46422993D01*
X148609901Y-46537007D01*
X148702993Y-46630099D01*
X148817007Y-46695925D01*
X148880590Y-46712962D01*
X148248282Y-47345269D01*
X148248282Y-47345270D01*
X148302449Y-47384624D01*
X148491782Y-47481095D01*
X148667973Y-47538343D01*
X148725648Y-47577780D01*
X148752847Y-47642139D01*
X148740932Y-47710985D01*
X148693688Y-47762461D01*
X148677108Y-47770835D01*
X148512403Y-47839057D01*
X148340342Y-47954024D01*
X148194024Y-48100342D01*
X148079058Y-48272403D01*
X147999870Y-48463579D01*
X147999868Y-48463587D01*
X147959500Y-48666530D01*
X147959500Y-48873469D01*
X147999868Y-49076412D01*
X147999870Y-49076420D01*
X148065939Y-49235925D01*
X148079059Y-49267598D01*
X148092836Y-49288217D01*
X148194024Y-49439657D01*
X148340342Y-49585975D01*
X148340345Y-49585977D01*
X148512402Y-49700941D01*
X148703580Y-49780130D01*
X148848052Y-49808867D01*
X148906530Y-49820499D01*
X148906534Y-49820500D01*
X148906535Y-49820500D01*
X149113466Y-49820500D01*
X149113467Y-49820499D01*
X149316420Y-49780130D01*
X149507598Y-49700941D01*
X149679655Y-49585977D01*
X149825977Y-49439655D01*
X149940941Y-49267598D01*
X150020130Y-49076420D01*
X150060500Y-48873465D01*
X150060500Y-48666535D01*
X150060499Y-48666530D01*
X150499500Y-48666530D01*
X150499500Y-48873469D01*
X150539868Y-49076412D01*
X150539870Y-49076420D01*
X150605939Y-49235925D01*
X150619059Y-49267598D01*
X150632836Y-49288217D01*
X150734024Y-49439657D01*
X150880342Y-49585975D01*
X150880345Y-49585977D01*
X151052402Y-49700941D01*
X151243580Y-49780130D01*
X151388052Y-49808867D01*
X151446530Y-49820499D01*
X151446534Y-49820500D01*
X151446535Y-49820500D01*
X151653466Y-49820500D01*
X151653467Y-49820499D01*
X151856420Y-49780130D01*
X152047598Y-49700941D01*
X152219655Y-49585977D01*
X152365977Y-49439655D01*
X152480941Y-49267598D01*
X152560130Y-49076420D01*
X152600500Y-48873465D01*
X152600500Y-48666535D01*
X152600499Y-48666530D01*
X153039500Y-48666530D01*
X153039500Y-48873469D01*
X153079868Y-49076412D01*
X153079870Y-49076420D01*
X153145939Y-49235925D01*
X153159059Y-49267598D01*
X153172836Y-49288217D01*
X153274024Y-49439657D01*
X153420342Y-49585975D01*
X153420345Y-49585977D01*
X153592402Y-49700941D01*
X153783580Y-49780130D01*
X153928052Y-49808867D01*
X153986530Y-49820499D01*
X153986534Y-49820500D01*
X153986535Y-49820500D01*
X154193466Y-49820500D01*
X154193467Y-49820499D01*
X154396420Y-49780130D01*
X154587598Y-49700941D01*
X154759655Y-49585977D01*
X154905977Y-49439655D01*
X155020941Y-49267598D01*
X155089165Y-49102889D01*
X155133004Y-49048488D01*
X155199298Y-49026423D01*
X155266998Y-49043702D01*
X155314609Y-49094839D01*
X155321656Y-49112026D01*
X155378904Y-49288216D01*
X155475375Y-49477550D01*
X155514728Y-49531716D01*
X156147036Y-48899407D01*
X156164075Y-48962993D01*
X156229901Y-49077007D01*
X156322993Y-49170099D01*
X156437007Y-49235925D01*
X156500590Y-49252962D01*
X155868282Y-49885269D01*
X155868282Y-49885270D01*
X155922449Y-49924624D01*
X156111782Y-50021095D01*
X156313870Y-50086757D01*
X156523754Y-50120000D01*
X156736246Y-50120000D01*
X156946127Y-50086757D01*
X156946130Y-50086757D01*
X157148217Y-50021095D01*
X157337554Y-49924622D01*
X157391716Y-49885270D01*
X157391717Y-49885270D01*
X156759408Y-49252962D01*
X156822993Y-49235925D01*
X156937007Y-49170099D01*
X157030099Y-49077007D01*
X157095925Y-48962993D01*
X157112962Y-48899408D01*
X157745270Y-49531717D01*
X157745270Y-49531716D01*
X157784622Y-49477554D01*
X157881095Y-49288217D01*
X157946757Y-49086130D01*
X157946757Y-49086127D01*
X157980000Y-48876246D01*
X157980000Y-48663753D01*
X157946757Y-48453872D01*
X157946757Y-48453869D01*
X157881095Y-48251782D01*
X157784624Y-48062449D01*
X157745270Y-48008282D01*
X157745269Y-48008282D01*
X157112962Y-48640590D01*
X157095925Y-48577007D01*
X157030099Y-48462993D01*
X156937007Y-48369901D01*
X156822993Y-48304075D01*
X156759409Y-48287037D01*
X157391716Y-47654728D01*
X157337550Y-47615375D01*
X157148218Y-47518905D01*
X157110877Y-47506772D01*
X157110877Y-47506771D01*
X156972026Y-47461656D01*
X156914350Y-47422218D01*
X156902304Y-47393713D01*
X160149500Y-47393713D01*
X160149500Y-47606287D01*
X160157172Y-47654727D01*
X160176292Y-47775448D01*
X160182754Y-47816243D01*
X160210050Y-47900252D01*
X160248444Y-48018414D01*
X160344951Y-48207820D01*
X160469890Y-48379786D01*
X160620213Y-48530109D01*
X160792179Y-48655048D01*
X160792181Y-48655049D01*
X160792184Y-48655051D01*
X160981588Y-48751557D01*
X161183757Y-48817246D01*
X161393713Y-48850500D01*
X161393714Y-48850500D01*
X161606286Y-48850500D01*
X161606287Y-48850500D01*
X161816243Y-48817246D01*
X162018412Y-48751557D01*
X162207816Y-48655051D01*
X162229789Y-48639086D01*
X162379786Y-48530109D01*
X162379788Y-48530106D01*
X162379792Y-48530104D01*
X162530104Y-48379792D01*
X162530106Y-48379788D01*
X162530109Y-48379786D01*
X162655048Y-48207820D01*
X162655047Y-48207820D01*
X162655051Y-48207816D01*
X162751557Y-48018412D01*
X162817246Y-47816243D01*
X162850500Y-47606287D01*
X162850500Y-47393713D01*
X162817246Y-47183757D01*
X162751557Y-46981588D01*
X162655051Y-46792184D01*
X162655049Y-46792181D01*
X162655048Y-46792179D01*
X162530109Y-46620213D01*
X162379786Y-46469890D01*
X162207820Y-46344951D01*
X162018414Y-46248444D01*
X162018413Y-46248443D01*
X162018412Y-46248443D01*
X161816243Y-46182754D01*
X161816241Y-46182753D01*
X161816240Y-46182753D01*
X161654957Y-46157208D01*
X161606287Y-46149500D01*
X161393713Y-46149500D01*
X161345042Y-46157208D01*
X161183760Y-46182753D01*
X160981585Y-46248444D01*
X160792179Y-46344951D01*
X160620213Y-46469890D01*
X160469890Y-46620213D01*
X160344951Y-46792179D01*
X160248444Y-46981585D01*
X160182753Y-47183760D01*
X160173825Y-47240129D01*
X160149500Y-47393713D01*
X156902304Y-47393713D01*
X156887152Y-47357860D01*
X156899067Y-47289013D01*
X156946311Y-47237538D01*
X156962882Y-47229168D01*
X157127598Y-47160941D01*
X157299655Y-47045977D01*
X157445977Y-46899655D01*
X157560941Y-46727598D01*
X157640130Y-46536420D01*
X157680500Y-46333465D01*
X157680500Y-46126535D01*
X157640130Y-45923580D01*
X157560941Y-45732402D01*
X157445977Y-45560345D01*
X157445975Y-45560342D01*
X157299657Y-45414024D01*
X157213626Y-45356541D01*
X157127598Y-45299059D01*
X156936420Y-45219870D01*
X156936412Y-45219868D01*
X156733469Y-45179500D01*
X156733465Y-45179500D01*
X156526535Y-45179500D01*
X156526530Y-45179500D01*
X156323587Y-45219868D01*
X156323579Y-45219870D01*
X156132403Y-45299058D01*
X155960342Y-45414024D01*
X155814024Y-45560342D01*
X155699058Y-45732403D01*
X155619870Y-45923579D01*
X155619868Y-45923587D01*
X155579500Y-46126530D01*
X155579500Y-46333469D01*
X155619868Y-46536412D01*
X155619870Y-46536420D01*
X155685939Y-46695925D01*
X155699059Y-46727598D01*
X155712836Y-46748217D01*
X155814024Y-46899657D01*
X155960342Y-47045975D01*
X156132405Y-47160943D01*
X156235043Y-47203456D01*
X156297108Y-47229164D01*
X156351511Y-47273005D01*
X156373576Y-47339299D01*
X156356297Y-47406998D01*
X156305160Y-47454609D01*
X156287974Y-47461656D01*
X156111781Y-47518905D01*
X155922439Y-47615380D01*
X155868282Y-47654727D01*
X155868282Y-47654728D01*
X156500591Y-48287037D01*
X156437007Y-48304075D01*
X156322993Y-48369901D01*
X156229901Y-48462993D01*
X156164075Y-48577007D01*
X156147037Y-48640591D01*
X155514728Y-48008282D01*
X155514727Y-48008282D01*
X155475380Y-48062439D01*
X155378905Y-48251781D01*
X155321656Y-48427974D01*
X155282218Y-48485649D01*
X155217859Y-48512847D01*
X155149013Y-48500932D01*
X155097537Y-48453688D01*
X155089164Y-48437107D01*
X155020943Y-48272405D01*
X154905975Y-48100342D01*
X154759657Y-47954024D01*
X154673626Y-47896541D01*
X154587598Y-47839059D01*
X154587593Y-47839057D01*
X154396420Y-47759870D01*
X154396412Y-47759868D01*
X154193469Y-47719500D01*
X154193465Y-47719500D01*
X153986535Y-47719500D01*
X153986530Y-47719500D01*
X153783587Y-47759868D01*
X153783579Y-47759870D01*
X153592403Y-47839058D01*
X153420342Y-47954024D01*
X153274024Y-48100342D01*
X153159058Y-48272403D01*
X153079870Y-48463579D01*
X153079868Y-48463587D01*
X153039500Y-48666530D01*
X152600499Y-48666530D01*
X152560130Y-48463580D01*
X152480941Y-48272402D01*
X152365977Y-48100345D01*
X152365975Y-48100342D01*
X152219657Y-47954024D01*
X152133626Y-47896541D01*
X152047598Y-47839059D01*
X152047593Y-47839057D01*
X151856420Y-47759870D01*
X151856412Y-47759868D01*
X151653469Y-47719500D01*
X151653465Y-47719500D01*
X151446535Y-47719500D01*
X151446530Y-47719500D01*
X151243587Y-47759868D01*
X151243579Y-47759870D01*
X151052403Y-47839058D01*
X150880342Y-47954024D01*
X150734024Y-48100342D01*
X150619058Y-48272403D01*
X150539870Y-48463579D01*
X150539868Y-48463587D01*
X150499500Y-48666530D01*
X150060499Y-48666530D01*
X150020130Y-48463580D01*
X149940941Y-48272402D01*
X149825977Y-48100345D01*
X149825975Y-48100342D01*
X149679657Y-47954024D01*
X149593626Y-47896541D01*
X149507598Y-47839059D01*
X149507593Y-47839057D01*
X149354028Y-47775448D01*
X149342890Y-47770834D01*
X149288488Y-47726994D01*
X149266423Y-47660700D01*
X149283702Y-47593001D01*
X149334839Y-47545390D01*
X149352026Y-47538343D01*
X149528217Y-47481095D01*
X149717554Y-47384622D01*
X149771716Y-47345270D01*
X149771717Y-47345270D01*
X149139408Y-46712962D01*
X149202993Y-46695925D01*
X149317007Y-46630099D01*
X149410099Y-46537007D01*
X149475925Y-46422993D01*
X149492962Y-46359408D01*
X150125270Y-46991717D01*
X150125270Y-46991716D01*
X150164622Y-46937554D01*
X150261095Y-46748217D01*
X150318343Y-46572026D01*
X150357780Y-46514351D01*
X150422139Y-46487152D01*
X150490985Y-46499066D01*
X150542461Y-46546310D01*
X150550833Y-46562887D01*
X150578673Y-46630099D01*
X150605939Y-46695925D01*
X150619059Y-46727598D01*
X150632836Y-46748217D01*
X150734024Y-46899657D01*
X150880342Y-47045975D01*
X150880345Y-47045977D01*
X151052402Y-47160941D01*
X151243580Y-47240130D01*
X151408855Y-47273005D01*
X151446530Y-47280499D01*
X151446534Y-47280500D01*
X151446535Y-47280500D01*
X151653466Y-47280500D01*
X151653467Y-47280499D01*
X151856420Y-47240130D01*
X152047598Y-47160941D01*
X152219655Y-47045977D01*
X152365977Y-46899655D01*
X152480941Y-46727598D01*
X152560130Y-46536420D01*
X152600500Y-46333465D01*
X152600500Y-46126535D01*
X152600499Y-46126530D01*
X153039500Y-46126530D01*
X153039500Y-46333469D01*
X153079868Y-46536412D01*
X153079870Y-46536420D01*
X153145939Y-46695925D01*
X153159059Y-46727598D01*
X153172836Y-46748217D01*
X153274024Y-46899657D01*
X153420342Y-47045975D01*
X153420345Y-47045977D01*
X153592402Y-47160941D01*
X153783580Y-47240130D01*
X153948855Y-47273005D01*
X153986530Y-47280499D01*
X153986534Y-47280500D01*
X153986535Y-47280500D01*
X154193466Y-47280500D01*
X154193467Y-47280499D01*
X154396420Y-47240130D01*
X154587598Y-47160941D01*
X154759655Y-47045977D01*
X154905977Y-46899655D01*
X155020941Y-46727598D01*
X155100130Y-46536420D01*
X155140500Y-46333465D01*
X155140500Y-46126535D01*
X155100130Y-45923580D01*
X155020941Y-45732402D01*
X154905977Y-45560345D01*
X154905975Y-45560342D01*
X154759657Y-45414024D01*
X154673626Y-45356541D01*
X154587598Y-45299059D01*
X154396420Y-45219870D01*
X154396412Y-45219868D01*
X154193469Y-45179500D01*
X154193465Y-45179500D01*
X153986535Y-45179500D01*
X153986530Y-45179500D01*
X153783587Y-45219868D01*
X153783579Y-45219870D01*
X153592403Y-45299058D01*
X153420342Y-45414024D01*
X153274024Y-45560342D01*
X153159058Y-45732403D01*
X153079870Y-45923579D01*
X153079868Y-45923587D01*
X153039500Y-46126530D01*
X152600499Y-46126530D01*
X152560130Y-45923580D01*
X152480941Y-45732402D01*
X152365977Y-45560345D01*
X152365975Y-45560342D01*
X152219657Y-45414024D01*
X152133626Y-45356541D01*
X152047598Y-45299059D01*
X151856420Y-45219870D01*
X151856412Y-45219868D01*
X151653469Y-45179500D01*
X151653465Y-45179500D01*
X151446535Y-45179500D01*
X151446530Y-45179500D01*
X151243587Y-45219868D01*
X151243579Y-45219870D01*
X151052403Y-45299058D01*
X150880342Y-45414024D01*
X150734024Y-45560342D01*
X150619057Y-45732403D01*
X150550835Y-45897108D01*
X150506994Y-45951511D01*
X150440700Y-45973576D01*
X150373000Y-45956297D01*
X150325390Y-45905159D01*
X150318343Y-45887973D01*
X150261095Y-45711782D01*
X150164624Y-45522449D01*
X150125270Y-45468282D01*
X150125269Y-45468282D01*
X149492962Y-46100590D01*
X149475925Y-46037007D01*
X149410099Y-45922993D01*
X149317007Y-45829901D01*
X149202993Y-45764075D01*
X149139409Y-45747037D01*
X149771716Y-45114728D01*
X149717550Y-45075375D01*
X149528217Y-44978904D01*
X149326129Y-44913242D01*
X149116246Y-44880000D01*
X148903754Y-44880000D01*
X148693872Y-44913242D01*
X148693869Y-44913242D01*
X148491782Y-44978904D01*
X148302439Y-45075380D01*
X148248282Y-45114727D01*
X148248282Y-45114728D01*
X148880591Y-45747037D01*
X148817007Y-45764075D01*
X148702993Y-45829901D01*
X148609901Y-45922993D01*
X148544075Y-46037007D01*
X148527037Y-46100591D01*
X147894728Y-45468282D01*
X147894727Y-45468282D01*
X147855380Y-45522439D01*
X147758905Y-45711781D01*
X147701656Y-45887974D01*
X147662218Y-45945649D01*
X147597859Y-45972847D01*
X147529013Y-45960932D01*
X147477537Y-45913688D01*
X147469164Y-45897107D01*
X147400943Y-45732405D01*
X147285975Y-45560342D01*
X147139657Y-45414024D01*
X147053626Y-45356541D01*
X146967598Y-45299059D01*
X146776420Y-45219870D01*
X146776412Y-45219868D01*
X146573469Y-45179500D01*
X146573465Y-45179500D01*
X146366535Y-45179500D01*
X146366530Y-45179500D01*
X146163587Y-45219868D01*
X146163579Y-45219870D01*
X145972403Y-45299058D01*
X145800342Y-45414024D01*
X145654024Y-45560342D01*
X145539057Y-45732403D01*
X145470835Y-45897108D01*
X145426994Y-45951511D01*
X145360700Y-45973576D01*
X145293000Y-45956297D01*
X145245390Y-45905159D01*
X145238343Y-45887973D01*
X145181095Y-45711782D01*
X145084624Y-45522449D01*
X145045270Y-45468282D01*
X144412962Y-46100590D01*
X144395925Y-46037007D01*
X144330099Y-45922993D01*
X144237007Y-45829901D01*
X144122993Y-45764075D01*
X144059409Y-45747037D01*
X144691716Y-45114728D01*
X144637550Y-45075375D01*
X144448217Y-44978904D01*
X144246129Y-44913242D01*
X144036246Y-44880000D01*
X143823754Y-44880000D01*
X143613872Y-44913242D01*
X143613869Y-44913242D01*
X143411782Y-44978904D01*
X143222439Y-45075380D01*
X143168282Y-45114727D01*
X143168282Y-45114728D01*
X143800591Y-45747037D01*
X143737007Y-45764075D01*
X143622993Y-45829901D01*
X143529901Y-45922993D01*
X143464075Y-46037007D01*
X143447037Y-46100591D01*
X142814728Y-45468282D01*
X142814727Y-45468282D01*
X142775380Y-45522439D01*
X142678905Y-45711781D01*
X142621656Y-45887974D01*
X142582218Y-45945649D01*
X142517859Y-45972847D01*
X142449013Y-45960932D01*
X142397537Y-45913688D01*
X142389164Y-45897107D01*
X142320943Y-45732405D01*
X142205975Y-45560342D01*
X142059657Y-45414024D01*
X141973626Y-45356541D01*
X141887598Y-45299059D01*
X141696420Y-45219870D01*
X141696412Y-45219868D01*
X141493469Y-45179500D01*
X141493465Y-45179500D01*
X141286535Y-45179500D01*
X141286530Y-45179500D01*
X141083587Y-45219868D01*
X141083579Y-45219870D01*
X140892403Y-45299058D01*
X140720342Y-45414024D01*
X140574024Y-45560342D01*
X140459058Y-45732403D01*
X140379870Y-45923579D01*
X140379868Y-45923587D01*
X140339500Y-46126530D01*
X139900499Y-46126530D01*
X139860130Y-45923580D01*
X139780941Y-45732402D01*
X139665977Y-45560345D01*
X139665975Y-45560342D01*
X139519657Y-45414024D01*
X139433626Y-45356541D01*
X139347598Y-45299059D01*
X139156420Y-45219870D01*
X139156412Y-45219868D01*
X138953469Y-45179500D01*
X138953465Y-45179500D01*
X138746535Y-45179500D01*
X138746530Y-45179500D01*
X138543587Y-45219868D01*
X138543579Y-45219870D01*
X138352403Y-45299058D01*
X138180342Y-45414024D01*
X138034024Y-45560342D01*
X137919058Y-45732403D01*
X137839870Y-45923579D01*
X137839868Y-45923587D01*
X137799500Y-46126530D01*
X137799500Y-46333469D01*
X137839868Y-46536412D01*
X137839870Y-46536420D01*
X137905939Y-46695925D01*
X137919059Y-46727598D01*
X137932836Y-46748217D01*
X138034024Y-46899657D01*
X138180342Y-47045975D01*
X138352405Y-47160943D01*
X138455043Y-47203456D01*
X138517108Y-47229164D01*
X138571511Y-47273005D01*
X138593576Y-47339299D01*
X138576297Y-47406998D01*
X138525160Y-47454609D01*
X138507974Y-47461656D01*
X138331781Y-47518905D01*
X138142439Y-47615380D01*
X138088282Y-47654727D01*
X138088282Y-47654728D01*
X138720591Y-48287037D01*
X138657007Y-48304075D01*
X138542993Y-48369901D01*
X138449901Y-48462993D01*
X138384075Y-48577007D01*
X138367037Y-48640591D01*
X137734728Y-48008282D01*
X137734727Y-48008282D01*
X137695380Y-48062439D01*
X137598905Y-48251781D01*
X137541656Y-48427974D01*
X137502218Y-48485649D01*
X137437859Y-48512847D01*
X137369013Y-48500932D01*
X137317537Y-48453688D01*
X137309164Y-48437107D01*
X137240943Y-48272405D01*
X137125975Y-48100342D01*
X136979657Y-47954024D01*
X136893626Y-47896541D01*
X136807598Y-47839059D01*
X136807593Y-47839057D01*
X136616420Y-47759870D01*
X136616412Y-47759868D01*
X136413469Y-47719500D01*
X136413465Y-47719500D01*
X136206535Y-47719500D01*
X136206530Y-47719500D01*
X136003587Y-47759868D01*
X136003579Y-47759870D01*
X135812403Y-47839058D01*
X135640342Y-47954024D01*
X135494024Y-48100342D01*
X135379058Y-48272403D01*
X135299870Y-48463579D01*
X135299868Y-48463587D01*
X135259500Y-48666530D01*
X134820499Y-48666530D01*
X134780130Y-48463580D01*
X134700941Y-48272402D01*
X134585977Y-48100345D01*
X134585975Y-48100342D01*
X134439657Y-47954024D01*
X134353626Y-47896541D01*
X134267598Y-47839059D01*
X134267593Y-47839057D01*
X134076420Y-47759870D01*
X134076412Y-47759868D01*
X133873469Y-47719500D01*
X133873465Y-47719500D01*
X133666535Y-47719500D01*
X133666530Y-47719500D01*
X133463587Y-47759868D01*
X133463579Y-47759870D01*
X133272403Y-47839058D01*
X133100342Y-47954024D01*
X132954024Y-48100342D01*
X132839058Y-48272403D01*
X132759870Y-48463579D01*
X132759868Y-48463587D01*
X132719500Y-48666530D01*
X132280499Y-48666530D01*
X132240130Y-48463580D01*
X132160941Y-48272402D01*
X132045977Y-48100345D01*
X132045975Y-48100342D01*
X131899657Y-47954024D01*
X131813626Y-47896541D01*
X131727598Y-47839059D01*
X131727593Y-47839057D01*
X131574028Y-47775448D01*
X131562890Y-47770834D01*
X131508488Y-47726994D01*
X131486423Y-47660700D01*
X131503702Y-47593001D01*
X131554839Y-47545390D01*
X131572026Y-47538343D01*
X131748217Y-47481095D01*
X131937554Y-47384622D01*
X131991716Y-47345270D01*
X131991717Y-47345270D01*
X131359408Y-46712962D01*
X131422993Y-46695925D01*
X131537007Y-46630099D01*
X131630099Y-46537007D01*
X131695925Y-46422993D01*
X131712962Y-46359409D01*
X132345270Y-46991717D01*
X132345270Y-46991716D01*
X132384622Y-46937554D01*
X132481095Y-46748217D01*
X132538343Y-46572026D01*
X132577780Y-46514351D01*
X132642139Y-46487152D01*
X132710985Y-46499066D01*
X132762461Y-46546310D01*
X132770833Y-46562887D01*
X132798673Y-46630099D01*
X132825939Y-46695925D01*
X132839059Y-46727598D01*
X132852836Y-46748217D01*
X132954024Y-46899657D01*
X133100342Y-47045975D01*
X133100345Y-47045977D01*
X133272402Y-47160941D01*
X133463580Y-47240130D01*
X133628855Y-47273005D01*
X133666530Y-47280499D01*
X133666534Y-47280500D01*
X133666535Y-47280500D01*
X133873466Y-47280500D01*
X133873467Y-47280499D01*
X134076420Y-47240130D01*
X134267598Y-47160941D01*
X134439655Y-47045977D01*
X134585977Y-46899655D01*
X134700941Y-46727598D01*
X134780130Y-46536420D01*
X134820500Y-46333465D01*
X134820500Y-46126535D01*
X134820499Y-46126530D01*
X135259500Y-46126530D01*
X135259500Y-46333469D01*
X135299868Y-46536412D01*
X135299870Y-46536420D01*
X135365939Y-46695925D01*
X135379059Y-46727598D01*
X135392836Y-46748217D01*
X135494024Y-46899657D01*
X135640342Y-47045975D01*
X135640345Y-47045977D01*
X135812402Y-47160941D01*
X136003580Y-47240130D01*
X136168855Y-47273005D01*
X136206530Y-47280499D01*
X136206534Y-47280500D01*
X136206535Y-47280500D01*
X136413466Y-47280500D01*
X136413467Y-47280499D01*
X136616420Y-47240130D01*
X136807598Y-47160941D01*
X136979655Y-47045977D01*
X137125977Y-46899655D01*
X137240941Y-46727598D01*
X137320130Y-46536420D01*
X137360500Y-46333465D01*
X137360500Y-46126535D01*
X137320130Y-45923580D01*
X137240941Y-45732402D01*
X137125977Y-45560345D01*
X137125975Y-45560342D01*
X136979657Y-45414024D01*
X136893626Y-45356541D01*
X136807598Y-45299059D01*
X136616420Y-45219870D01*
X136616412Y-45219868D01*
X136413469Y-45179500D01*
X136413465Y-45179500D01*
X136206535Y-45179500D01*
X136206530Y-45179500D01*
X136003587Y-45219868D01*
X136003579Y-45219870D01*
X135812403Y-45299058D01*
X135640342Y-45414024D01*
X135494024Y-45560342D01*
X135379058Y-45732403D01*
X135299870Y-45923579D01*
X135299868Y-45923587D01*
X135259500Y-46126530D01*
X134820499Y-46126530D01*
X134780130Y-45923580D01*
X134700941Y-45732402D01*
X134585977Y-45560345D01*
X134585975Y-45560342D01*
X134439657Y-45414024D01*
X134353626Y-45356541D01*
X134267598Y-45299059D01*
X134076420Y-45219870D01*
X134076412Y-45219868D01*
X133873469Y-45179500D01*
X133873465Y-45179500D01*
X133666535Y-45179500D01*
X133666530Y-45179500D01*
X133463587Y-45219868D01*
X133463579Y-45219870D01*
X133272403Y-45299058D01*
X133100342Y-45414024D01*
X132954024Y-45560342D01*
X132839057Y-45732403D01*
X132770835Y-45897108D01*
X132726994Y-45951511D01*
X132660700Y-45973576D01*
X132593000Y-45956297D01*
X132545390Y-45905159D01*
X132538343Y-45887973D01*
X132481095Y-45711782D01*
X132384624Y-45522449D01*
X132345270Y-45468282D01*
X132345269Y-45468282D01*
X131712962Y-46100590D01*
X131695925Y-46037007D01*
X131630099Y-45922993D01*
X131537007Y-45829901D01*
X131422993Y-45764075D01*
X131359409Y-45747037D01*
X131991716Y-45114728D01*
X131937550Y-45075375D01*
X131748217Y-44978904D01*
X131546129Y-44913242D01*
X131336246Y-44880000D01*
X131123754Y-44880000D01*
X130913872Y-44913242D01*
X130913869Y-44913242D01*
X130711782Y-44978904D01*
X130522439Y-45075380D01*
X130468282Y-45114727D01*
X130468282Y-45114728D01*
X131100591Y-45747037D01*
X131037007Y-45764075D01*
X130922993Y-45829901D01*
X130829901Y-45922993D01*
X130764075Y-46037007D01*
X130747037Y-46100591D01*
X130114728Y-45468282D01*
X130114727Y-45468282D01*
X130075380Y-45522439D01*
X129978905Y-45711781D01*
X129921656Y-45887974D01*
X129882218Y-45945649D01*
X129817859Y-45972847D01*
X129749013Y-45960932D01*
X129697537Y-45913688D01*
X129689164Y-45897107D01*
X129620943Y-45732405D01*
X129505975Y-45560342D01*
X129359657Y-45414024D01*
X129273626Y-45356541D01*
X129187598Y-45299059D01*
X128996420Y-45219870D01*
X128996412Y-45219868D01*
X128793469Y-45179500D01*
X128793465Y-45179500D01*
X128586535Y-45179500D01*
X128586530Y-45179500D01*
X128383587Y-45219868D01*
X128383579Y-45219870D01*
X128192403Y-45299058D01*
X128020342Y-45414024D01*
X127874024Y-45560342D01*
X127759058Y-45732403D01*
X127679870Y-45923579D01*
X127679868Y-45923587D01*
X127639500Y-46126530D01*
X127200499Y-46126530D01*
X127160130Y-45923580D01*
X127080941Y-45732402D01*
X126965977Y-45560345D01*
X126965975Y-45560342D01*
X126819657Y-45414024D01*
X126733626Y-45356541D01*
X126647598Y-45299059D01*
X126456420Y-45219870D01*
X126456412Y-45219868D01*
X126253469Y-45179500D01*
X126253465Y-45179500D01*
X126046535Y-45179500D01*
X126046530Y-45179500D01*
X125843587Y-45219868D01*
X125843579Y-45219870D01*
X125652403Y-45299058D01*
X125480342Y-45414024D01*
X125334024Y-45560342D01*
X125219057Y-45732403D01*
X125150835Y-45897108D01*
X125106994Y-45951511D01*
X125040700Y-45973576D01*
X124973000Y-45956297D01*
X124925390Y-45905159D01*
X124918343Y-45887973D01*
X124861095Y-45711782D01*
X124764624Y-45522449D01*
X124725270Y-45468282D01*
X124725269Y-45468282D01*
X124092962Y-46100590D01*
X124075925Y-46037007D01*
X124010099Y-45922993D01*
X123917007Y-45829901D01*
X123802993Y-45764075D01*
X123739409Y-45747037D01*
X124371716Y-45114728D01*
X124317550Y-45075375D01*
X124128217Y-44978904D01*
X123926129Y-44913242D01*
X123716246Y-44880000D01*
X123503754Y-44880000D01*
X123293872Y-44913242D01*
X123293869Y-44913242D01*
X123091782Y-44978904D01*
X122902439Y-45075380D01*
X122848282Y-45114727D01*
X122848282Y-45114728D01*
X123480591Y-45747037D01*
X123417007Y-45764075D01*
X123302993Y-45829901D01*
X123209901Y-45922993D01*
X123144075Y-46037007D01*
X123127037Y-46100591D01*
X122494728Y-45468282D01*
X122494727Y-45468282D01*
X122455380Y-45522439D01*
X122358905Y-45711781D01*
X122301656Y-45887974D01*
X122262218Y-45945649D01*
X122197859Y-45972847D01*
X122129013Y-45960932D01*
X122077537Y-45913688D01*
X122069164Y-45897107D01*
X122000943Y-45732405D01*
X121885975Y-45560342D01*
X121739657Y-45414024D01*
X121653626Y-45356541D01*
X121567598Y-45299059D01*
X121376420Y-45219870D01*
X121376412Y-45219868D01*
X121173469Y-45179500D01*
X121173465Y-45179500D01*
X120966535Y-45179500D01*
X120966530Y-45179500D01*
X120763587Y-45219868D01*
X120763579Y-45219870D01*
X120572403Y-45299058D01*
X120400342Y-45414024D01*
X120254024Y-45560342D01*
X120139058Y-45732403D01*
X120059870Y-45923579D01*
X120059868Y-45923587D01*
X120019500Y-46126530D01*
X119580499Y-46126530D01*
X119540130Y-45923580D01*
X119460941Y-45732402D01*
X119345977Y-45560345D01*
X119345975Y-45560342D01*
X119199657Y-45414024D01*
X119113626Y-45356541D01*
X119027598Y-45299059D01*
X118836420Y-45219870D01*
X118836412Y-45219868D01*
X118633469Y-45179500D01*
X118633465Y-45179500D01*
X118426535Y-45179500D01*
X118426530Y-45179500D01*
X118223587Y-45219868D01*
X118223579Y-45219870D01*
X118032403Y-45299058D01*
X117860342Y-45414024D01*
X117714024Y-45560342D01*
X117599058Y-45732403D01*
X117519870Y-45923579D01*
X117519868Y-45923587D01*
X117479500Y-46126530D01*
X117479500Y-46333469D01*
X117519868Y-46536412D01*
X117519870Y-46536420D01*
X117585939Y-46695925D01*
X117599059Y-46727598D01*
X117612836Y-46748217D01*
X117714024Y-46899657D01*
X117860342Y-47045975D01*
X118032405Y-47160943D01*
X118135043Y-47203456D01*
X118197108Y-47229164D01*
X118251511Y-47273005D01*
X118273576Y-47339299D01*
X118256297Y-47406998D01*
X118205160Y-47454609D01*
X118187974Y-47461656D01*
X118011781Y-47518905D01*
X117822439Y-47615380D01*
X117768282Y-47654727D01*
X117768282Y-47654728D01*
X118400591Y-48287037D01*
X118337007Y-48304075D01*
X118222993Y-48369901D01*
X118129901Y-48462993D01*
X118064075Y-48577007D01*
X118047037Y-48640591D01*
X117414728Y-48008282D01*
X117414727Y-48008282D01*
X117375380Y-48062439D01*
X117278905Y-48251781D01*
X117221656Y-48427974D01*
X117182218Y-48485649D01*
X117117859Y-48512847D01*
X117049013Y-48500932D01*
X116997537Y-48453688D01*
X116989164Y-48437107D01*
X116920943Y-48272405D01*
X116805975Y-48100342D01*
X116659657Y-47954024D01*
X116573626Y-47896541D01*
X116487598Y-47839059D01*
X116487593Y-47839057D01*
X116296420Y-47759870D01*
X116296412Y-47759868D01*
X116093469Y-47719500D01*
X116093465Y-47719500D01*
X115886535Y-47719500D01*
X115886530Y-47719500D01*
X115683587Y-47759868D01*
X115683579Y-47759870D01*
X115492403Y-47839058D01*
X115320342Y-47954024D01*
X115174024Y-48100342D01*
X115059058Y-48272403D01*
X114979870Y-48463579D01*
X114979868Y-48463587D01*
X114939500Y-48666530D01*
X114500499Y-48666530D01*
X114460130Y-48463580D01*
X114380941Y-48272402D01*
X114265977Y-48100345D01*
X114265975Y-48100342D01*
X114119657Y-47954024D01*
X114033626Y-47896541D01*
X113947598Y-47839059D01*
X113947593Y-47839057D01*
X113794028Y-47775448D01*
X113782890Y-47770834D01*
X113728488Y-47726994D01*
X113706423Y-47660700D01*
X113723702Y-47593001D01*
X113774839Y-47545390D01*
X113792026Y-47538343D01*
X113968217Y-47481095D01*
X114157554Y-47384622D01*
X114211716Y-47345270D01*
X114211717Y-47345270D01*
X113579408Y-46712962D01*
X113642993Y-46695925D01*
X113757007Y-46630099D01*
X113850099Y-46537007D01*
X113915925Y-46422993D01*
X113932962Y-46359408D01*
X114565270Y-46991717D01*
X114565270Y-46991716D01*
X114604622Y-46937554D01*
X114701095Y-46748217D01*
X114758343Y-46572026D01*
X114797780Y-46514351D01*
X114862139Y-46487152D01*
X114930985Y-46499066D01*
X114982461Y-46546310D01*
X114990833Y-46562887D01*
X115018673Y-46630099D01*
X115045939Y-46695925D01*
X115059059Y-46727598D01*
X115072836Y-46748217D01*
X115174024Y-46899657D01*
X115320342Y-47045975D01*
X115320345Y-47045977D01*
X115492402Y-47160941D01*
X115683580Y-47240130D01*
X115848855Y-47273005D01*
X115886530Y-47280499D01*
X115886534Y-47280500D01*
X115886535Y-47280500D01*
X116093466Y-47280500D01*
X116093467Y-47280499D01*
X116296420Y-47240130D01*
X116487598Y-47160941D01*
X116659655Y-47045977D01*
X116805977Y-46899655D01*
X116920941Y-46727598D01*
X117000130Y-46536420D01*
X117040500Y-46333465D01*
X117040500Y-46126535D01*
X117000130Y-45923580D01*
X116920941Y-45732402D01*
X116805977Y-45560345D01*
X116805975Y-45560342D01*
X116659657Y-45414024D01*
X116573626Y-45356541D01*
X116487598Y-45299059D01*
X116296420Y-45219870D01*
X116296412Y-45219868D01*
X116093469Y-45179500D01*
X116093465Y-45179500D01*
X115886535Y-45179500D01*
X115886530Y-45179500D01*
X115683587Y-45219868D01*
X115683579Y-45219870D01*
X115492403Y-45299058D01*
X115320342Y-45414024D01*
X115174024Y-45560342D01*
X115059057Y-45732403D01*
X114990835Y-45897108D01*
X114946994Y-45951511D01*
X114880700Y-45973576D01*
X114813000Y-45956297D01*
X114765390Y-45905159D01*
X114758343Y-45887973D01*
X114701095Y-45711782D01*
X114604624Y-45522449D01*
X114565270Y-45468282D01*
X113932962Y-46100590D01*
X113915925Y-46037007D01*
X113850099Y-45922993D01*
X113757007Y-45829901D01*
X113642993Y-45764075D01*
X113579409Y-45747037D01*
X114211716Y-45114728D01*
X114157550Y-45075375D01*
X113968217Y-44978904D01*
X113766129Y-44913242D01*
X113556246Y-44880000D01*
X113343754Y-44880000D01*
X113133872Y-44913242D01*
X113133869Y-44913242D01*
X112931782Y-44978904D01*
X112742439Y-45075380D01*
X112688282Y-45114727D01*
X112688282Y-45114728D01*
X113320591Y-45747037D01*
X113257007Y-45764075D01*
X113142993Y-45829901D01*
X113049901Y-45922993D01*
X112984075Y-46037007D01*
X112967037Y-46100591D01*
X112334728Y-45468282D01*
X112334727Y-45468282D01*
X112295380Y-45522439D01*
X112198905Y-45711781D01*
X112141656Y-45887974D01*
X112102218Y-45945649D01*
X112037859Y-45972847D01*
X111969013Y-45960932D01*
X111917537Y-45913688D01*
X111909164Y-45897107D01*
X111840943Y-45732405D01*
X111725975Y-45560342D01*
X111579657Y-45414024D01*
X111493626Y-45356541D01*
X111407598Y-45299059D01*
X111216420Y-45219870D01*
X111216412Y-45219868D01*
X111013469Y-45179500D01*
X111013465Y-45179500D01*
X110806535Y-45179500D01*
X110806530Y-45179500D01*
X110603587Y-45219868D01*
X110603579Y-45219870D01*
X110412403Y-45299058D01*
X110240342Y-45414024D01*
X110094024Y-45560342D01*
X109979058Y-45732403D01*
X109899870Y-45923579D01*
X109899868Y-45923587D01*
X109859500Y-46126530D01*
X109420499Y-46126530D01*
X109380130Y-45923580D01*
X109300941Y-45732402D01*
X109185977Y-45560345D01*
X109185975Y-45560342D01*
X109039657Y-45414024D01*
X108953626Y-45356541D01*
X108867598Y-45299059D01*
X108676420Y-45219870D01*
X108676412Y-45219868D01*
X108473469Y-45179500D01*
X108473465Y-45179500D01*
X108266535Y-45179500D01*
X108266530Y-45179500D01*
X108063587Y-45219868D01*
X108063579Y-45219870D01*
X107872403Y-45299058D01*
X107700342Y-45414024D01*
X107554024Y-45560342D01*
X107439058Y-45732403D01*
X107359870Y-45923579D01*
X107359868Y-45923587D01*
X107319500Y-46126530D01*
X100050500Y-46126530D01*
X100050500Y-44174500D01*
X100070185Y-44107461D01*
X100122989Y-44061706D01*
X100174500Y-44050500D01*
X164825500Y-44050500D01*
X164892539Y-44070185D01*
G37*
%TD.AperFunction*%
M02*
