%TF.GenerationSoftware,KiCad,Pcbnew,10.0.1*%
%TF.CreationDate,2026-06-17T19:12:49-07:00*%
%TF.ProjectId,row-controller,726f772d-636f-46e7-9472-6f6c6c65722e,rev?*%
%TF.SameCoordinates,Original*%
%TF.FileFunction,Soldermask,Bot*%
%TF.FilePolarity,Negative*%
%FSLAX46Y46*%
G04 Gerber Fmt 4.6, Leading zero omitted, Abs format (unit mm)*
G04 Created by KiCad (PCBNEW 10.0.1) date 2026-06-17 19:12:49*
%MOMM*%
%LPD*%
G01*
G04 APERTURE LIST*
G04 Aperture macros list*
%AMRoundRect*
0 Rectangle with rounded corners*
0 $1 Rounding radius*
0 $2 $3 $4 $5 $6 $7 $8 $9 X,Y pos of 4 corners*
0 Add a 4 corners polygon primitive as box body*
4,1,4,$2,$3,$4,$5,$6,$7,$8,$9,$2,$3,0*
0 Add four circle primitives for the rounded corners*
1,1,$1+$1,$2,$3*
1,1,$1+$1,$4,$5*
1,1,$1+$1,$6,$7*
1,1,$1+$1,$8,$9*
0 Add four rect primitives between the rounded corners*
20,1,$1+$1,$2,$3,$4,$5,0*
20,1,$1+$1,$4,$5,$6,$7,0*
20,1,$1+$1,$6,$7,$8,$9,0*
20,1,$1+$1,$8,$9,$2,$3,0*%
G04 Aperture macros list end*
%ADD10RoundRect,0.250000X0.750000X-0.600000X0.750000X0.600000X-0.750000X0.600000X-0.750000X-0.600000X0*%
%ADD11O,2.000000X1.700000*%
%ADD12R,2.300000X1.500000*%
%ADD13O,2.300000X1.500000*%
%ADD14RoundRect,0.250000X-0.550000X0.550000X-0.550000X-0.550000X0.550000X-0.550000X0.550000X0.550000X0*%
%ADD15C,1.600000*%
%ADD16R,1.446000X1.446000*%
%ADD17C,1.446000*%
%ADD18C,3.250000*%
%ADD19C,2.355000*%
%ADD20RoundRect,0.250000X-0.350000X-0.450000X0.350000X-0.450000X0.350000X0.450000X-0.350000X0.450000X0*%
%ADD21RoundRect,0.102000X-0.679000X0.679000X-0.679000X-0.679000X0.679000X-0.679000X0.679000X0.679000X0*%
%ADD22C,1.562000*%
%ADD23RoundRect,0.250000X0.337500X0.475000X-0.337500X0.475000X-0.337500X-0.475000X0.337500X-0.475000X0*%
G04 APERTURE END LIST*
D10*
%TO.C,J3*%
X123800000Y-105200000D03*
D11*
X123800000Y-102700000D03*
%TD*%
D12*
%TO.C,U2*%
X106307500Y-110447500D03*
D13*
X106307500Y-107907500D03*
X106307500Y-105367500D03*
%TD*%
D14*
%TO.C,C10*%
X96400000Y-105644888D03*
D15*
X96400000Y-107644888D03*
%TD*%
D16*
%TO.C,J4*%
X95100000Y-125076077D03*
D17*
X97640000Y-126346077D03*
X95100000Y-127616077D03*
X97640000Y-128886077D03*
D18*
X88750000Y-121896077D03*
X88750000Y-132056077D03*
D19*
X85700000Y-120116077D03*
X85700000Y-133836077D03*
%TD*%
D10*
%TO.C,J1*%
X123800000Y-114100000D03*
D11*
X123800000Y-111600000D03*
%TD*%
D16*
%TO.C,J2*%
X118590000Y-128876077D03*
D17*
X116050000Y-127606077D03*
X118590000Y-126336077D03*
X116050000Y-125066077D03*
D18*
X124940000Y-132056077D03*
X124940000Y-121896077D03*
D19*
X127990000Y-133836077D03*
X127990000Y-120116077D03*
%TD*%
D20*
%TO.C,R14*%
X95300000Y-122500000D03*
X97300000Y-122500000D03*
%TD*%
D21*
%TO.C,U1*%
X102401000Y-100342500D03*
D22*
X104941000Y-100342500D03*
X107481000Y-100342500D03*
X110021000Y-100342500D03*
X112561000Y-100342500D03*
X115101000Y-100342500D03*
X117641000Y-100342500D03*
X117641000Y-115582500D03*
X115101000Y-115582500D03*
X112561000Y-115582500D03*
X110021000Y-115582500D03*
X107481000Y-115582500D03*
X104941000Y-115582500D03*
X102401000Y-115582500D03*
%TD*%
D23*
%TO.C,C2*%
X106337500Y-103300000D03*
X104262500Y-103300000D03*
%TD*%
%TO.C,C1*%
X106337500Y-112600000D03*
X104262500Y-112600000D03*
%TD*%
M02*
