%TF.GenerationSoftware,KiCad,Pcbnew,10.0.1*%
%TF.CreationDate,2026-06-17T19:12:48-07:00*%
%TF.ProjectId,row-controller,726f772d-636f-46e7-9472-6f6c6c65722e,rev?*%
%TF.SameCoordinates,Original*%
%TF.FileFunction,Copper,L1,Top*%
%TF.FilePolarity,Positive*%
%FSLAX46Y46*%
G04 Gerber Fmt 4.6, Leading zero omitted, Abs format (unit mm)*
G04 Created by KiCad (PCBNEW 10.0.1) date 2026-06-17 19:12:48*
%MOMM*%
%LPD*%
G01*
G04 APERTURE LIST*
G04 Aperture macros list*
%AMRoundRect*
0 Rectangle with rounded corners*
0 $1 Rounding radius*
0 $2 $3 $4 $5 $6 $7 $8 $9 X,Y pos of 4 corners*
0 Add a 4 corners polygon primitive as box body*
4,1,4,$2,$3,$4,$5,$6,$7,$8,$9,$2,$3,0*
0 Add four circle primitives for the rounded corners*
1,1,$1+$1,$2,$3*
1,1,$1+$1,$4,$5*
1,1,$1+$1,$6,$7*
1,1,$1+$1,$8,$9*
0 Add four rect primitives between the rounded corners*
20,1,$1+$1,$2,$3,$4,$5,0*
20,1,$1+$1,$4,$5,$6,$7,0*
20,1,$1+$1,$6,$7,$8,$9,0*
20,1,$1+$1,$8,$9,$2,$3,0*%
G04 Aperture macros list end*
%TA.AperFunction,ComponentPad*%
%ADD10RoundRect,0.250000X0.750000X-0.600000X0.750000X0.600000X-0.750000X0.600000X-0.750000X-0.600000X0*%
%TD*%
%TA.AperFunction,ComponentPad*%
%ADD11O,2.000000X1.700000*%
%TD*%
%TA.AperFunction,SMDPad,CuDef*%
%ADD12RoundRect,0.250000X-0.325000X-0.450000X0.325000X-0.450000X0.325000X0.450000X-0.325000X0.450000X0*%
%TD*%
%TA.AperFunction,SMDPad,CuDef*%
%ADD13RoundRect,0.250000X0.475000X-0.337500X0.475000X0.337500X-0.475000X0.337500X-0.475000X-0.337500X0*%
%TD*%
%TA.AperFunction,SMDPad,CuDef*%
%ADD14RoundRect,0.250000X0.350000X0.450000X-0.350000X0.450000X-0.350000X-0.450000X0.350000X-0.450000X0*%
%TD*%
%TA.AperFunction,ComponentPad*%
%ADD15R,2.300000X1.500000*%
%TD*%
%TA.AperFunction,ComponentPad*%
%ADD16O,2.300000X1.500000*%
%TD*%
%TA.AperFunction,SMDPad,CuDef*%
%ADD17RoundRect,0.250000X-0.337500X-0.475000X0.337500X-0.475000X0.337500X0.475000X-0.337500X0.475000X0*%
%TD*%
%TA.AperFunction,ComponentPad*%
%ADD18RoundRect,0.250000X-0.550000X0.550000X-0.550000X-0.550000X0.550000X-0.550000X0.550000X0.550000X0*%
%TD*%
%TA.AperFunction,ComponentPad*%
%ADD19C,1.600000*%
%TD*%
%TA.AperFunction,ComponentPad*%
%ADD20R,1.446000X1.446000*%
%TD*%
%TA.AperFunction,ComponentPad*%
%ADD21C,1.446000*%
%TD*%
%TA.AperFunction,ComponentPad*%
%ADD22C,2.355000*%
%TD*%
%TA.AperFunction,SMDPad,CuDef*%
%ADD23RoundRect,0.249999X1.075001X-0.450001X1.075001X0.450001X-1.075001X0.450001X-1.075001X-0.450001X0*%
%TD*%
%TA.AperFunction,SMDPad,CuDef*%
%ADD24R,0.650000X1.528000*%
%TD*%
%TA.AperFunction,SMDPad,CuDef*%
%ADD25RoundRect,0.250000X-0.475000X0.337500X-0.475000X-0.337500X0.475000X-0.337500X0.475000X0.337500X0*%
%TD*%
%TA.AperFunction,SMDPad,CuDef*%
%ADD26R,0.600000X1.250000*%
%TD*%
%TA.AperFunction,SMDPad,CuDef*%
%ADD27RoundRect,0.250000X0.625000X-0.400000X0.625000X0.400000X-0.625000X0.400000X-0.625000X-0.400000X0*%
%TD*%
%TA.AperFunction,SMDPad,CuDef*%
%ADD28RoundRect,0.250000X-0.350000X-0.450000X0.350000X-0.450000X0.350000X0.450000X-0.350000X0.450000X0*%
%TD*%
%TA.AperFunction,SMDPad,CuDef*%
%ADD29R,1.400000X0.300000*%
%TD*%
%TA.AperFunction,ComponentPad*%
%ADD30R,1.358000X1.358000*%
%TD*%
%TA.AperFunction,ComponentPad*%
%ADD31C,1.358000*%
%TD*%
%TA.AperFunction,ViaPad*%
%ADD32C,0.600000*%
%TD*%
%TA.AperFunction,Conductor*%
%ADD33C,0.200000*%
%TD*%
%TA.AperFunction,Conductor*%
%ADD34C,0.800000*%
%TD*%
%TA.AperFunction,Conductor*%
%ADD35C,0.500000*%
%TD*%
G04 APERTURE END LIST*
D10*
%TO.P,J3,1,Pin_1_1*%
%TO.N,Vrow*%
X123800000Y-105200000D03*
D11*
%TO.P,J3,2,Pin_2_2*%
%TO.N,GND*%
X123800000Y-102700000D03*
%TD*%
D12*
%TO.P,D1,1,K_1*%
%TO.N,GND*%
X85850000Y-101240000D03*
%TO.P,D1,2,A_2*%
%TO.N,Net-(D1-A)*%
X87900000Y-101240000D03*
%TD*%
D13*
%TO.P,C7,1*%
%TO.N,+5V*%
X96900000Y-116837500D03*
%TO.P,C7,2*%
%TO.N,GND*%
X96900000Y-114762500D03*
%TD*%
D14*
%TO.P,R13,1*%
%TO.N,/PI-TRCV-A*%
X111535000Y-122361077D03*
%TO.P,R13,2*%
%TO.N,/PI-TRCV-B*%
X109535000Y-122361077D03*
%TD*%
%TO.P,R7,1*%
%TO.N,+5V*%
X96600000Y-110700000D03*
%TO.P,R7,2*%
%TO.N,/ROW-RxD*%
X94600000Y-110700000D03*
%TD*%
D15*
%TO.P,U2,1,IN_1*%
%TO.N,Vrow*%
X106307500Y-110447500D03*
D16*
%TO.P,U2,2,GND_2*%
%TO.N,GND*%
X106307500Y-107907500D03*
%TO.P,U2,3,OUT_3*%
%TO.N,+5V*%
X106307500Y-105367500D03*
%TD*%
D17*
%TO.P,C8,1*%
%TO.N,+5V*%
X102362500Y-118100000D03*
%TO.P,C8,2*%
%TO.N,GND*%
X104437500Y-118100000D03*
%TD*%
D12*
%TO.P,D2,1,K_1*%
%TO.N,/LED-DATA*%
X85875000Y-108160000D03*
%TO.P,D2,2,A_2*%
%TO.N,Net-(D2-A)*%
X87925000Y-108160000D03*
%TD*%
D18*
%TO.P,C10,1*%
%TO.N,+5V*%
X96400000Y-105644888D03*
D19*
%TO.P,C10,2*%
%TO.N,GND*%
X96400000Y-107644888D03*
%TD*%
D14*
%TO.P,R9,1*%
%TO.N,+3V3*%
X92000000Y-108200000D03*
%TO.P,R9,2*%
%TO.N,Net-(D2-A)*%
X90000000Y-108200000D03*
%TD*%
D20*
%TO.P,J4,1,1_1*%
%TO.N,/ROW-TRCV-A*%
X95100000Y-125076077D03*
D21*
%TO.P,J4,2,2_2*%
%TO.N,/ROW-TRCV-B*%
X97640000Y-126346077D03*
%TO.P,J4,3,3_3*%
%TO.N,/ROW-SENSE*%
X95100000Y-127616077D03*
%TO.P,J4,4,4_4*%
%TO.N,GND*%
X97640000Y-128886077D03*
D22*
%TO.P,J4,7,MH1_7*%
X85700000Y-120116077D03*
%TO.P,J4,8,MH2_8*%
X85700000Y-133836077D03*
%TD*%
D23*
%TO.P,R1,1*%
%TO.N,+12V*%
X117552000Y-110700000D03*
%TO.P,R1,2*%
%TO.N,Vrow*%
X117552000Y-105900000D03*
%TD*%
D14*
%TO.P,R3,1*%
%TO.N,/PI-XDIR*%
X106700000Y-133000000D03*
%TO.P,R3,2*%
%TO.N,GND*%
X104700000Y-133000000D03*
%TD*%
D24*
%TO.P,IC3,1,R_1*%
%TO.N,/PI-RxD*%
X108630000Y-135072077D03*
%TO.P,IC3,2,~{RE}_2*%
%TO.N,/PI-XDIR*%
X109900000Y-135072077D03*
%TO.P,IC3,3,DE_3*%
X111170000Y-135072077D03*
%TO.P,IC3,4,D_4*%
%TO.N,/PI-TxD*%
X112440000Y-135072077D03*
%TO.P,IC3,5,GND_5*%
%TO.N,GND*%
X112440000Y-129650077D03*
%TO.P,IC3,6,A_6*%
%TO.N,Net-(IC3-A)*%
X111170000Y-129650077D03*
%TO.P,IC3,7,B_7*%
%TO.N,Net-(IC3-B)*%
X109900000Y-129650077D03*
%TO.P,IC3,8,VCC_8*%
%TO.N,+5V*%
X108630000Y-129650077D03*
%TD*%
D13*
%TO.P,C4,1*%
%TO.N,+5V*%
X94800000Y-116837500D03*
%TO.P,C4,2*%
%TO.N,GND*%
X94800000Y-114762500D03*
%TD*%
D25*
%TO.P,C6,1*%
%TO.N,+5V*%
X106435000Y-128362500D03*
%TO.P,C6,2*%
%TO.N,GND*%
X106435000Y-130437500D03*
%TD*%
D24*
%TO.P,IC2,1,R_1*%
%TO.N,/ROW-RxD*%
X92705000Y-111244000D03*
%TO.P,IC2,2,~{RE}_2*%
%TO.N,/ROW-XDIR*%
X91435000Y-111244000D03*
%TO.P,IC2,3,DE_3*%
X90165000Y-111244000D03*
%TO.P,IC2,4,D_4*%
%TO.N,/ROW-TxD*%
X88895000Y-111244000D03*
%TO.P,IC2,5,GND_5*%
%TO.N,GND*%
X88895000Y-116666000D03*
%TO.P,IC2,6,A_6*%
%TO.N,/ROW-TRCV-A*%
X90165000Y-116666000D03*
%TO.P,IC2,7,B_7*%
%TO.N,/ROW-TRCV-B*%
X91435000Y-116666000D03*
%TO.P,IC2,8,VCC_8*%
%TO.N,+5V*%
X92705000Y-116666000D03*
%TD*%
D10*
%TO.P,J1,1,Pin_1_1*%
%TO.N,+12V*%
X123800000Y-114100000D03*
D11*
%TO.P,J1,2,Pin_2_2*%
%TO.N,GND*%
X123800000Y-111600000D03*
%TD*%
D26*
%TO.P,D4,1,1_1*%
%TO.N,/PI-TRCV-B*%
X109585000Y-120361077D03*
%TO.P,D4,2,2_2*%
%TO.N,/PI-TRCV-A*%
X111485000Y-120361077D03*
%TO.P,D4,3,3_3*%
%TO.N,GND*%
X110535000Y-118361077D03*
%TD*%
D27*
%TO.P,R12,1*%
%TO.N,Net-(IC3-A)*%
X111735000Y-127511077D03*
%TO.P,R12,2*%
%TO.N,/PI-TRCV-A*%
X111735000Y-124411077D03*
%TD*%
D28*
%TO.P,R6,1*%
%TO.N,/ROW-XDIR*%
X94600000Y-112800000D03*
%TO.P,R6,2*%
%TO.N,GND*%
X96600000Y-112800000D03*
%TD*%
D17*
%TO.P,C3,1*%
%TO.N,GND*%
X112914500Y-111500000D03*
%TO.P,C3,2*%
%TO.N,+5V*%
X114989500Y-111500000D03*
%TD*%
D14*
%TO.P,R10,1*%
%TO.N,+3V3*%
X92000000Y-104700000D03*
%TO.P,R10,2*%
%TO.N,Net-(D3-A)*%
X90000000Y-104700000D03*
%TD*%
D25*
%TO.P,C5,1*%
%TO.N,+5V*%
X104335000Y-128362500D03*
%TO.P,C5,2*%
%TO.N,GND*%
X104335000Y-130437500D03*
%TD*%
D27*
%TO.P,R11,1*%
%TO.N,Net-(IC3-B)*%
X109335000Y-127511077D03*
%TO.P,R11,2*%
%TO.N,/PI-TRCV-B*%
X109335000Y-124411077D03*
%TD*%
D17*
%TO.P,C9,1*%
%TO.N,+5V*%
X102362500Y-120200000D03*
%TO.P,C9,2*%
%TO.N,GND*%
X104437500Y-120200000D03*
%TD*%
D20*
%TO.P,J2,1,1_1*%
%TO.N,/PI-TRCV-A*%
X118590000Y-128876077D03*
D21*
%TO.P,J2,2,2_2*%
%TO.N,/PI-TRCV-B*%
X116050000Y-127606077D03*
%TO.P,J2,3,3_3*%
%TO.N,/PI-TRCV-A*%
X118590000Y-126336077D03*
%TO.P,J2,4,4_4*%
%TO.N,/PI-TRCV-B*%
X116050000Y-125066077D03*
D22*
%TO.P,J2,7,MH1_7*%
%TO.N,GND*%
X127990000Y-133836077D03*
%TO.P,J2,8,MH2_8*%
X127990000Y-120116077D03*
%TD*%
D29*
%TO.P,IC1,1,A1_1*%
%TO.N,+5V*%
X110552000Y-107600000D03*
%TO.P,IC1,2,A0_2*%
X110552000Y-108100000D03*
%TO.P,IC1,3,NC_3*%
%TO.N,unconnected-(IC1-NC-Pad3)*%
X110552000Y-108600000D03*
%TO.P,IC1,4,SDA_4*%
%TO.N,/SDA*%
X110552000Y-109100000D03*
%TO.P,IC1,5,SCL_5*%
%TO.N,/SCL*%
X110552000Y-109600000D03*
%TO.P,IC1,6,VS_6*%
%TO.N,+5V*%
X114952000Y-109600000D03*
%TO.P,IC1,7,GND_7*%
%TO.N,GND*%
X114952000Y-109100000D03*
%TO.P,IC1,8,VBUS_8*%
%TO.N,+12V*%
X114952000Y-108600000D03*
%TO.P,IC1,9,IN-_9*%
%TO.N,Vrow*%
X114952000Y-108100000D03*
%TO.P,IC1,10,IN+_10*%
%TO.N,+12V*%
X114952000Y-107600000D03*
%TD*%
D14*
%TO.P,R8,1*%
%TO.N,+3V3*%
X91975000Y-101240000D03*
%TO.P,R8,2*%
%TO.N,Net-(D1-A)*%
X89975000Y-101240000D03*
%TD*%
D28*
%TO.P,R2,1*%
%TO.N,+5V*%
X111600000Y-104500000D03*
%TO.P,R2,2*%
%TO.N,/SDA*%
X113600000Y-104500000D03*
%TD*%
%TO.P,R4,1*%
%TO.N,+5V*%
X104700000Y-135100000D03*
%TO.P,R4,2*%
%TO.N,/PI-RxD*%
X106700000Y-135100000D03*
%TD*%
D12*
%TO.P,D3,1,K_1*%
%TO.N,/LED-RDY*%
X85875000Y-104700000D03*
%TO.P,D3,2,A_2*%
%TO.N,Net-(D3-A)*%
X87925000Y-104700000D03*
%TD*%
D28*
%TO.P,R5,1*%
%TO.N,+5V*%
X111600000Y-102400000D03*
%TO.P,R5,2*%
%TO.N,/SCL*%
X113600000Y-102400000D03*
%TD*%
D30*
%TO.P,U1,1,D0_1*%
%TO.N,/LED-RDY*%
X102401000Y-100342500D03*
D31*
%TO.P,U1,2,D1_2*%
%TO.N,/LED-DATA*%
X104941000Y-100342500D03*
%TO.P,U1,3,D2_3*%
%TO.N,/PI-XDIR*%
X107481000Y-100342500D03*
%TO.P,U1,4,D3_4*%
%TO.N,/ROW-XDIR*%
X110021000Y-100342500D03*
%TO.P,U1,5,D4_5*%
%TO.N,/SDA*%
X112561000Y-100342500D03*
%TO.P,U1,6,D5_6*%
%TO.N,/SCL*%
X115101000Y-100342500D03*
%TO.P,U1,7,TX_D6_7*%
%TO.N,/ROW-TxD*%
X117641000Y-100342500D03*
%TO.P,U1,8,RX_D7_8*%
%TO.N,/ROW-RxD*%
X117641000Y-115582500D03*
%TO.P,U1,9,D8_9*%
%TO.N,/ROW-SENSE*%
X115101000Y-115582500D03*
%TO.P,U1,10,D9_10*%
%TO.N,/PI-RxD*%
X112561000Y-115582500D03*
%TO.P,U1,11,D10_11*%
%TO.N,/PI-TxD*%
X110021000Y-115582500D03*
%TO.P,U1,12,VCC_3V3_12*%
%TO.N,+3V3*%
X107481000Y-115582500D03*
%TO.P,U1,13,GND_13*%
%TO.N,GND*%
X104941000Y-115582500D03*
%TO.P,U1,14,VUSB_14*%
%TO.N,+5V*%
X102401000Y-115582500D03*
%TD*%
D32*
%TO.N,Vrow*%
X120100000Y-112300000D03*
X120100000Y-109400000D03*
%TO.N,/PI-XDIR*%
X119400000Y-98900000D03*
%TO.N,GND*%
X113000000Y-129700000D03*
X85000000Y-101300000D03*
X97400000Y-112800000D03*
X103800000Y-132800000D03*
X104500000Y-131300000D03*
X112000000Y-111500000D03*
X113691302Y-109114496D03*
X96900000Y-113900000D03*
X111100000Y-118300000D03*
X106500000Y-131300000D03*
X94813524Y-114000000D03*
X88200000Y-116700000D03*
%TO.N,/ROW-RxD*%
X99400000Y-109900000D03*
X102100000Y-109100000D03*
%TO.N,/PI-XDIR*%
X112100000Y-133100000D03*
X109900000Y-134000000D03*
%TO.N,/PI-RxD*%
X111144000Y-132300000D03*
X109175735Y-133624265D03*
%TO.N,+3V3*%
X101000000Y-103900000D03*
X101000000Y-106600000D03*
%TO.N,/ROW-SENSE*%
X103200000Y-122700000D03*
X101400000Y-122900000D03*
%TD*%
%TO.N,/PI-TxD*%
D33*
X110021000Y-115582500D02*
X108159000Y-117444500D01*
X108159000Y-117444500D02*
X108159000Y-125559000D01*
X108159000Y-125559000D02*
X108800000Y-126200000D01*
X108800000Y-126200000D02*
X109835083Y-126200000D01*
X109835083Y-126200000D02*
X110544000Y-126908917D01*
X110544000Y-126908917D02*
X110544000Y-132737077D01*
X110544000Y-132737077D02*
X112440000Y-134633077D01*
X112440000Y-134633077D02*
X112440000Y-135072077D01*
%TO.N,Vrow*%
D34*
X123100000Y-105900000D02*
X120100000Y-105900000D01*
D35*
X119300000Y-113100000D02*
X120100000Y-112300000D01*
X106307500Y-110447500D02*
X108960000Y-113100000D01*
X108960000Y-113100000D02*
X119300000Y-113100000D01*
X120100000Y-109400000D02*
X120100000Y-105900000D01*
D34*
X123800000Y-105200000D02*
X123100000Y-105900000D01*
X120100000Y-105900000D02*
X117552000Y-105900000D01*
%TO.N,+12V*%
X123800000Y-114100000D02*
X120400000Y-110700000D01*
X120400000Y-110700000D02*
X117552000Y-110700000D01*
%TO.N,/PI-XDIR*%
D33*
X127100000Y-116500000D02*
X120500000Y-123100000D01*
X120500000Y-123100000D02*
X120500000Y-129581177D01*
X127100000Y-99800000D02*
X127100000Y-116500000D01*
X119400000Y-98900000D02*
X126200000Y-98900000D01*
X126200000Y-98900000D02*
X127100000Y-99800000D01*
X120500000Y-129581177D02*
X116981177Y-133100000D01*
X116981177Y-133100000D02*
X112100000Y-133100000D01*
%TO.N,GND*%
X113691302Y-109114496D02*
X114937504Y-109114496D01*
X114937504Y-109114496D02*
X114952000Y-109100000D01*
%TO.N,+5V*%
X110552000Y-107600000D02*
X108540000Y-107600000D01*
X110552000Y-107600000D02*
X111600000Y-106552000D01*
X111600000Y-106552000D02*
X111600000Y-104500000D01*
%TO.N,/SDA*%
X113600000Y-104500000D02*
X112561000Y-103461000D01*
X112561000Y-103461000D02*
X112561000Y-100342500D01*
%TO.N,/SCL*%
X113600000Y-102400000D02*
X113600000Y-101843500D01*
X113600000Y-101843500D02*
X115101000Y-100342500D01*
%TO.N,+5V*%
X111600000Y-102400000D02*
X111600000Y-104500000D01*
%TO.N,/SDA*%
X113600000Y-104500000D02*
X113600000Y-106868628D01*
X113600000Y-106868628D02*
X111368628Y-109100000D01*
X111368628Y-109100000D02*
X110552000Y-109100000D01*
%TO.N,/SCL*%
X110552000Y-109600000D02*
X111434314Y-109600000D01*
X111434314Y-109600000D02*
X114500000Y-106534314D01*
X114500000Y-103300000D02*
X113600000Y-102400000D01*
X114500000Y-106534314D02*
X114500000Y-103300000D01*
%TO.N,+5V*%
X111900000Y-110051000D02*
X109551000Y-110051000D01*
%TO.N,Vrow*%
X117552000Y-106599999D02*
X117552000Y-105900000D01*
X116051999Y-108100000D02*
X117552000Y-106599999D01*
X114952000Y-108100000D02*
X116051999Y-108100000D01*
%TO.N,GND*%
X104335000Y-131135000D02*
X104500000Y-131300000D01*
X94800000Y-114762500D02*
X94800000Y-114013524D01*
X106435000Y-130437500D02*
X106435000Y-131235000D01*
X88234000Y-116666000D02*
X88200000Y-116700000D01*
X96900000Y-113100000D02*
X96600000Y-112800000D01*
X104000000Y-133000000D02*
X103800000Y-132800000D01*
X85850000Y-101240000D02*
X85060000Y-101240000D01*
X88895000Y-116666000D02*
X88234000Y-116666000D01*
X110535000Y-118361077D02*
X111038923Y-118361077D01*
X112440000Y-129650077D02*
X112950077Y-129650077D01*
X111038923Y-118361077D02*
X111100000Y-118300000D01*
X112914500Y-111500000D02*
X112000000Y-111500000D01*
X112950077Y-129650077D02*
X113000000Y-129700000D01*
X104700000Y-133000000D02*
X104000000Y-133000000D01*
X106435000Y-131235000D02*
X106500000Y-131300000D01*
X104335000Y-130437500D02*
X104335000Y-131135000D01*
D35*
X104941000Y-117596500D02*
X104437500Y-118100000D01*
D33*
X85060000Y-101240000D02*
X85000000Y-101300000D01*
D35*
X104437500Y-118100000D02*
X104437500Y-120200000D01*
D33*
X96600000Y-112800000D02*
X97400000Y-112800000D01*
X94800000Y-114013524D02*
X94813524Y-114000000D01*
D35*
X104941000Y-115582500D02*
X104941000Y-117596500D01*
D33*
X96900000Y-114762500D02*
X96900000Y-113900000D01*
%TO.N,+5V*%
X108630000Y-129650077D02*
X107342423Y-128362500D01*
D35*
X102362500Y-126390000D02*
X104335000Y-128362500D01*
D33*
X109551000Y-110051000D02*
X108540000Y-109040000D01*
X110552000Y-107600000D02*
X110552000Y-107548000D01*
D35*
X102362500Y-132762500D02*
X102362500Y-126390000D01*
X102401000Y-115582500D02*
X102401000Y-118061500D01*
D33*
X114501000Y-110051000D02*
X111900000Y-110051000D01*
D35*
X102362500Y-120200000D02*
X102362500Y-126390000D01*
X96400000Y-105644888D02*
X102401000Y-111645888D01*
X97518500Y-110700000D02*
X102401000Y-115582500D01*
X101146000Y-116837500D02*
X96900000Y-116837500D01*
D33*
X114952000Y-111462500D02*
X114989500Y-111500000D01*
X107342423Y-128362500D02*
X106435000Y-128362500D01*
D35*
X102362500Y-118100000D02*
X102362500Y-120200000D01*
X102401000Y-111645888D02*
X102401000Y-115582500D01*
D33*
X108540000Y-109040000D02*
X108540000Y-107600000D01*
D35*
X102401000Y-115582500D02*
X101146000Y-116837500D01*
X106030112Y-105644888D02*
X106307500Y-105367500D01*
X102401000Y-118061500D02*
X102362500Y-118100000D01*
X104700000Y-135100000D02*
X102362500Y-132762500D01*
D33*
X92705000Y-116666000D02*
X94628500Y-116666000D01*
X110552000Y-108100000D02*
X110552000Y-107600000D01*
X106435000Y-128362500D02*
X104335000Y-128362500D01*
X114952000Y-109600000D02*
X114501000Y-110051000D01*
X94628500Y-116666000D02*
X94800000Y-116837500D01*
D35*
X96600000Y-110700000D02*
X97518500Y-110700000D01*
X96400000Y-105644888D02*
X106030112Y-105644888D01*
D33*
X108540000Y-107600000D02*
X106307500Y-105367500D01*
X94800000Y-116837500D02*
X96900000Y-116837500D01*
X114952000Y-109600000D02*
X114952000Y-111462500D01*
%TO.N,/PI-TRCV-A*%
X111535000Y-122361077D02*
X111535000Y-122161077D01*
X112104000Y-124042077D02*
X111735000Y-124411077D01*
X111535000Y-122161077D02*
X111485000Y-122111077D01*
X116474155Y-124042077D02*
X112104000Y-124042077D01*
X111485000Y-122111077D02*
X111485000Y-120361077D01*
X111735000Y-124411077D02*
X111735000Y-122561077D01*
X118590000Y-128876077D02*
X118590000Y-126336077D01*
X118590000Y-126157922D02*
X116474155Y-124042077D01*
X118590000Y-126336077D02*
X118590000Y-126157922D01*
X111735000Y-122561077D02*
X111535000Y-122361077D01*
%TO.N,/PI-TRCV-B*%
X109535000Y-122361077D02*
X109535000Y-120411077D01*
X109335000Y-124411077D02*
X109335000Y-122561077D01*
X109335000Y-122561077D02*
X109535000Y-122361077D01*
X114840000Y-126276077D02*
X116050000Y-125066077D01*
X109335000Y-124411077D02*
X111200000Y-126276077D01*
X116050000Y-127606077D02*
X116050000Y-125066077D01*
X111200000Y-126276077D02*
X114840000Y-126276077D01*
X109535000Y-120411077D02*
X109585000Y-120361077D01*
%TO.N,+12V*%
X114952000Y-108600000D02*
X114000000Y-108600000D01*
X116151999Y-108600000D02*
X117552000Y-110000001D01*
X114000000Y-108600000D02*
X113951000Y-108551000D01*
X114000000Y-107600000D02*
X114952000Y-107600000D01*
X113951000Y-108551000D02*
X113951000Y-107649000D01*
X113951000Y-107649000D02*
X114000000Y-107600000D01*
X117552000Y-110000001D02*
X117552000Y-110700000D01*
X114952000Y-108600000D02*
X116151999Y-108600000D01*
%TO.N,/ROW-XDIR*%
X91435000Y-110805000D02*
X91435000Y-111244000D01*
X110021000Y-100342500D02*
X109446162Y-100342500D01*
X95614840Y-104543888D02*
X92901000Y-107257728D01*
X92901000Y-107257728D02*
X92901000Y-109339000D01*
X92901000Y-109339000D02*
X91435000Y-110805000D01*
X94600000Y-112800000D02*
X92656000Y-112800000D01*
X109446162Y-100342500D02*
X105244774Y-104543888D01*
X92656000Y-112800000D02*
X91435000Y-111579000D01*
X105244774Y-104543888D02*
X95614840Y-104543888D01*
X91435000Y-111579000D02*
X91435000Y-111244000D01*
X90165000Y-111244000D02*
X91435000Y-111244000D01*
%TO.N,/ROW-TxD*%
X85983957Y-98899000D02*
X83998000Y-100884957D01*
X117641000Y-100342500D02*
X116197500Y-98899000D01*
X83998000Y-100884957D02*
X83998000Y-107844160D01*
X87397840Y-111244000D02*
X88895000Y-111244000D01*
X83998000Y-107844160D02*
X87397840Y-111244000D01*
X116197500Y-98899000D02*
X85983957Y-98899000D01*
%TO.N,/ROW-RxD*%
X106651000Y-113651000D02*
X102100000Y-109100000D01*
X117641000Y-115582500D02*
X115709500Y-113651000D01*
X95601000Y-109699000D02*
X94600000Y-110700000D01*
X92700000Y-111239000D02*
X92705000Y-111244000D01*
X99400000Y-109900000D02*
X99199000Y-109699000D01*
X94600000Y-110700000D02*
X94500000Y-110700000D01*
X115709500Y-113651000D02*
X106651000Y-113651000D01*
X99199000Y-109699000D02*
X95601000Y-109699000D01*
X93956000Y-111244000D02*
X92705000Y-111244000D01*
X94500000Y-110700000D02*
X93956000Y-111244000D01*
%TO.N,/ROW-TRCV-B*%
X91435000Y-117087000D02*
X91435000Y-116666000D01*
X97640000Y-126346077D02*
X97640000Y-123292000D01*
X97640000Y-123292000D02*
X91435000Y-117087000D01*
%TO.N,/ROW-TRCV-A*%
X95100000Y-125076077D02*
X92276077Y-125076077D01*
X91900000Y-124700000D02*
X91900000Y-120000000D01*
X92276077Y-125076077D02*
X91900000Y-124700000D01*
X90165000Y-118265000D02*
X90165000Y-116666000D01*
X91900000Y-120000000D02*
X90165000Y-118265000D01*
%TO.N,/PI-XDIR*%
X111170000Y-135072077D02*
X109900000Y-135072077D01*
X109900000Y-133500000D02*
X109400000Y-133000000D01*
X109900000Y-135072077D02*
X109900000Y-134000000D01*
X109400000Y-133000000D02*
X106700000Y-133000000D01*
X109900000Y-134000000D02*
X109900000Y-133500000D01*
%TO.N,Net-(IC3-A)*%
X111170000Y-129650077D02*
X111170000Y-128076077D01*
X111170000Y-128076077D02*
X111735000Y-127511077D01*
%TO.N,/PI-RxD*%
X112561000Y-115582500D02*
X119614000Y-122635500D01*
X109175735Y-133624265D02*
X108630000Y-134170000D01*
X119614000Y-122635500D02*
X119614000Y-129900077D01*
X108630000Y-135072077D02*
X106727923Y-135072077D01*
X119614000Y-129900077D02*
X117214077Y-132300000D01*
X106727923Y-135072077D02*
X106700000Y-135100000D01*
X111200000Y-132300000D02*
X111144000Y-132300000D01*
X117214077Y-132300000D02*
X111200000Y-132300000D01*
X108630000Y-134170000D02*
X108630000Y-135072077D01*
%TO.N,Net-(IC3-B)*%
X109900000Y-129650077D02*
X109900000Y-128076077D01*
X109900000Y-128076077D02*
X109335000Y-127511077D01*
%TO.N,+3V3*%
X101000000Y-109101500D02*
X101000000Y-106600000D01*
X101000000Y-103900000D02*
X92800000Y-103900000D01*
X91975000Y-104675000D02*
X92000000Y-104700000D01*
X107481000Y-115582500D02*
X101000000Y-109101500D01*
X92800000Y-103900000D02*
X92000000Y-104700000D01*
X91975000Y-101240000D02*
X91975000Y-104675000D01*
X92000000Y-108200000D02*
X92000000Y-104700000D01*
%TO.N,Net-(D1-A)*%
X89975000Y-101240000D02*
X87900000Y-101240000D01*
%TO.N,Net-(D2-A)*%
X90000000Y-108200000D02*
X87965000Y-108200000D01*
X87965000Y-108200000D02*
X87925000Y-108160000D01*
%TO.N,Net-(D3-A)*%
X90000000Y-104700000D02*
X87925000Y-104700000D01*
%TO.N,/LED-DATA*%
X86150057Y-99300000D02*
X84399000Y-101051057D01*
X84399000Y-101051057D02*
X84399000Y-106684000D01*
X103898500Y-99300000D02*
X86150057Y-99300000D01*
X84399000Y-106684000D02*
X85875000Y-108160000D01*
X104941000Y-100342500D02*
X103898500Y-99300000D01*
%TO.N,/ROW-SENSE*%
X103200000Y-122700000D02*
X103536160Y-122700000D01*
X95100000Y-127616077D02*
X97818155Y-127616077D01*
X109041000Y-115800000D02*
X109041000Y-115176570D01*
X107758000Y-118478160D02*
X107758000Y-117083000D01*
X101400000Y-124034232D02*
X101400000Y-122900000D01*
X109615070Y-114602500D02*
X114121000Y-114602500D01*
X114121000Y-114602500D02*
X115101000Y-115582500D01*
X107758000Y-117083000D02*
X109041000Y-115800000D01*
X103536160Y-122700000D02*
X107758000Y-118478160D01*
X97818155Y-127616077D02*
X101400000Y-124034232D01*
X109041000Y-115176570D02*
X109615070Y-114602500D01*
%TO.N,/LED-RDY*%
X102297500Y-100239000D02*
X87041840Y-100239000D01*
X86726000Y-103849000D02*
X85875000Y-104700000D01*
X86726000Y-100554840D02*
X86726000Y-103849000D01*
X102401000Y-100342500D02*
X102297500Y-100239000D01*
X87041840Y-100239000D02*
X86726000Y-100554840D01*
%TD*%
%TA.AperFunction,Conductor*%
%TO.N,Vrow*%
G36*
X118793106Y-105205023D02*
G01*
X118808104Y-105209427D01*
X118823094Y-105219057D01*
X118840175Y-105224067D01*
X118866855Y-105247172D01*
X118868042Y-105248541D01*
X118895518Y-105303402D01*
X118897163Y-105310960D01*
X118900000Y-105337331D01*
X118900000Y-107870500D01*
X118880315Y-107937539D01*
X118827511Y-107983294D01*
X118776000Y-107994500D01*
X116552595Y-107994500D01*
X116498546Y-107997397D01*
X116498545Y-107997397D01*
X116472212Y-108000229D01*
X116472185Y-108000232D01*
X116418789Y-108008885D01*
X116418784Y-108008886D01*
X116392085Y-108018844D01*
X116371435Y-108020320D01*
X116351714Y-108026626D01*
X116326078Y-108023562D01*
X116322393Y-108023826D01*
X116316669Y-108022438D01*
X116309132Y-108020419D01*
X116276683Y-108006524D01*
X116263331Y-107998386D01*
X116251345Y-107985201D01*
X116249470Y-107984058D01*
X116248509Y-107982081D01*
X116216337Y-107946689D01*
X116212458Y-107938703D01*
X116200000Y-107884534D01*
X116200000Y-105341829D01*
X116205023Y-105306893D01*
X116209427Y-105291895D01*
X116247172Y-105233144D01*
X116247200Y-105233119D01*
X116247199Y-105233119D01*
X116248541Y-105231956D01*
X116303420Y-105204477D01*
X116310979Y-105202833D01*
X116337332Y-105200000D01*
X118758170Y-105200000D01*
X118793106Y-105205023D01*
G37*
%TD.AperFunction*%
%TD*%
%TA.AperFunction,Conductor*%
%TO.N,+12V*%
G36*
X118843551Y-108519685D02*
G01*
X118889306Y-108572489D01*
X118900511Y-108623487D01*
X118911485Y-111275487D01*
X118892078Y-111342607D01*
X118839464Y-111388580D01*
X118787486Y-111400000D01*
X116324000Y-111400000D01*
X116256961Y-111380315D01*
X116211206Y-111327511D01*
X116200000Y-111276000D01*
X116200000Y-108777135D01*
X116203819Y-108764128D01*
X116202871Y-108750604D01*
X116213471Y-108731256D01*
X116219685Y-108710096D01*
X116230652Y-108699899D01*
X116236444Y-108689329D01*
X116256189Y-108676156D01*
X116264728Y-108668218D01*
X116277524Y-108661254D01*
X116283784Y-108659577D01*
X116334557Y-108630263D01*
X116420715Y-108580520D01*
X116464916Y-108536319D01*
X116526239Y-108502834D01*
X116552597Y-108500000D01*
X118776512Y-108500000D01*
X118843551Y-108519685D01*
G37*
%TD.AperFunction*%
%TD*%
M02*
