%TF.GenerationSoftware,KiCad,Pcbnew,10.0.1*%
%TF.CreationDate,2026-06-17T19:12:49-07:00*%
%TF.ProjectId,row-controller,726f772d-636f-46e7-9472-6f6c6c65722e,rev?*%
%TF.SameCoordinates,Original*%
%TF.FileFunction,Soldermask,Top*%
%TF.FilePolarity,Negative*%
%FSLAX46Y46*%
G04 Gerber Fmt 4.6, Leading zero omitted, Abs format (unit mm)*
G04 Created by KiCad (PCBNEW 10.0.1) date 2026-06-17 19:12:49*
%MOMM*%
%LPD*%
G01*
G04 APERTURE LIST*
G04 Aperture macros list*
%AMRoundRect*
0 Rectangle with rounded corners*
0 $1 Rounding radius*
0 $2 $3 $4 $5 $6 $7 $8 $9 X,Y pos of 4 corners*
0 Add a 4 corners polygon primitive as box body*
4,1,4,$2,$3,$4,$5,$6,$7,$8,$9,$2,$3,0*
0 Add four circle primitives for the rounded corners*
1,1,$1+$1,$2,$3*
1,1,$1+$1,$4,$5*
1,1,$1+$1,$6,$7*
1,1,$1+$1,$8,$9*
0 Add four rect primitives between the rounded corners*
20,1,$1+$1,$2,$3,$4,$5,0*
20,1,$1+$1,$4,$5,$6,$7,0*
20,1,$1+$1,$6,$7,$8,$9,0*
20,1,$1+$1,$8,$9,$2,$3,0*%
G04 Aperture macros list end*
%ADD10RoundRect,0.250000X0.750000X-0.600000X0.750000X0.600000X-0.750000X0.600000X-0.750000X-0.600000X0*%
%ADD11O,2.000000X1.700000*%
%ADD12RoundRect,0.250000X-0.325000X-0.450000X0.325000X-0.450000X0.325000X0.450000X-0.325000X0.450000X0*%
%ADD13RoundRect,0.250000X0.475000X-0.337500X0.475000X0.337500X-0.475000X0.337500X-0.475000X-0.337500X0*%
%ADD14RoundRect,0.250000X0.350000X0.450000X-0.350000X0.450000X-0.350000X-0.450000X0.350000X-0.450000X0*%
%ADD15R,2.300000X1.500000*%
%ADD16O,2.300000X1.500000*%
%ADD17RoundRect,0.250000X-0.337500X-0.475000X0.337500X-0.475000X0.337500X0.475000X-0.337500X0.475000X0*%
%ADD18RoundRect,0.250000X-0.550000X0.550000X-0.550000X-0.550000X0.550000X-0.550000X0.550000X0.550000X0*%
%ADD19C,1.600000*%
%ADD20R,1.446000X1.446000*%
%ADD21C,1.446000*%
%ADD22C,3.250000*%
%ADD23C,2.355000*%
%ADD24RoundRect,0.249999X1.075001X-0.450001X1.075001X0.450001X-1.075001X0.450001X-1.075001X-0.450001X0*%
%ADD25R,0.650000X1.528000*%
%ADD26RoundRect,0.250000X-0.475000X0.337500X-0.475000X-0.337500X0.475000X-0.337500X0.475000X0.337500X0*%
%ADD27R,0.600000X1.250000*%
%ADD28RoundRect,0.250000X0.625000X-0.400000X0.625000X0.400000X-0.625000X0.400000X-0.625000X-0.400000X0*%
%ADD29RoundRect,0.250000X-0.350000X-0.450000X0.350000X-0.450000X0.350000X0.450000X-0.350000X0.450000X0*%
%ADD30R,1.400000X0.300000*%
%ADD31RoundRect,0.102000X-0.679000X0.679000X-0.679000X-0.679000X0.679000X-0.679000X0.679000X0.679000X0*%
%ADD32C,1.562000*%
G04 APERTURE END LIST*
D10*
%TO.C,J3*%
X123800000Y-105200000D03*
D11*
X123800000Y-102700000D03*
%TD*%
D12*
%TO.C,D1*%
X85850000Y-101240000D03*
X87900000Y-101240000D03*
%TD*%
D13*
%TO.C,C7*%
X96900000Y-116837500D03*
X96900000Y-114762500D03*
%TD*%
D14*
%TO.C,R13*%
X111535000Y-122361077D03*
X109535000Y-122361077D03*
%TD*%
%TO.C,R7*%
X96600000Y-110700000D03*
X94600000Y-110700000D03*
%TD*%
D15*
%TO.C,U2*%
X106307500Y-110447500D03*
D16*
X106307500Y-107907500D03*
X106307500Y-105367500D03*
%TD*%
D17*
%TO.C,C8*%
X102362500Y-118100000D03*
X104437500Y-118100000D03*
%TD*%
D12*
%TO.C,D2*%
X85875000Y-108160000D03*
X87925000Y-108160000D03*
%TD*%
D18*
%TO.C,C10*%
X96400000Y-105644888D03*
D19*
X96400000Y-107644888D03*
%TD*%
D14*
%TO.C,R9*%
X92000000Y-108200000D03*
X90000000Y-108200000D03*
%TD*%
D20*
%TO.C,J4*%
X95100000Y-125076077D03*
D21*
X97640000Y-126346077D03*
X95100000Y-127616077D03*
X97640000Y-128886077D03*
D22*
X88750000Y-121896077D03*
X88750000Y-132056077D03*
D23*
X85700000Y-120116077D03*
X85700000Y-133836077D03*
%TD*%
D24*
%TO.C,R1*%
X117552000Y-110700000D03*
X117552000Y-105900000D03*
%TD*%
D14*
%TO.C,R3*%
X106700000Y-133000000D03*
X104700000Y-133000000D03*
%TD*%
D25*
%TO.C,IC3*%
X108630000Y-135072077D03*
X109900000Y-135072077D03*
X111170000Y-135072077D03*
X112440000Y-135072077D03*
X112440000Y-129650077D03*
X111170000Y-129650077D03*
X109900000Y-129650077D03*
X108630000Y-129650077D03*
%TD*%
D13*
%TO.C,C4*%
X94800000Y-116837500D03*
X94800000Y-114762500D03*
%TD*%
D26*
%TO.C,C6*%
X106435000Y-128362500D03*
X106435000Y-130437500D03*
%TD*%
D25*
%TO.C,IC2*%
X92705000Y-111244000D03*
X91435000Y-111244000D03*
X90165000Y-111244000D03*
X88895000Y-111244000D03*
X88895000Y-116666000D03*
X90165000Y-116666000D03*
X91435000Y-116666000D03*
X92705000Y-116666000D03*
%TD*%
D10*
%TO.C,J1*%
X123800000Y-114100000D03*
D11*
X123800000Y-111600000D03*
%TD*%
D27*
%TO.C,D4*%
X109585000Y-120361077D03*
X111485000Y-120361077D03*
X110535000Y-118361077D03*
%TD*%
D28*
%TO.C,R12*%
X111735000Y-127511077D03*
X111735000Y-124411077D03*
%TD*%
D29*
%TO.C,R6*%
X94600000Y-112800000D03*
X96600000Y-112800000D03*
%TD*%
D17*
%TO.C,C3*%
X112914500Y-111500000D03*
X114989500Y-111500000D03*
%TD*%
D14*
%TO.C,R10*%
X92000000Y-104700000D03*
X90000000Y-104700000D03*
%TD*%
D26*
%TO.C,C5*%
X104335000Y-128362500D03*
X104335000Y-130437500D03*
%TD*%
D28*
%TO.C,R11*%
X109335000Y-127511077D03*
X109335000Y-124411077D03*
%TD*%
D17*
%TO.C,C9*%
X102362500Y-120200000D03*
X104437500Y-120200000D03*
%TD*%
D20*
%TO.C,J2*%
X118590000Y-128876077D03*
D21*
X116050000Y-127606077D03*
X118590000Y-126336077D03*
X116050000Y-125066077D03*
D22*
X124940000Y-132056077D03*
X124940000Y-121896077D03*
D23*
X127990000Y-133836077D03*
X127990000Y-120116077D03*
%TD*%
D30*
%TO.C,IC1*%
X110552000Y-107600000D03*
X110552000Y-108100000D03*
X110552000Y-108600000D03*
X110552000Y-109100000D03*
X110552000Y-109600000D03*
X114952000Y-109600000D03*
X114952000Y-109100000D03*
X114952000Y-108600000D03*
X114952000Y-108100000D03*
X114952000Y-107600000D03*
%TD*%
D14*
%TO.C,R8*%
X91975000Y-101240000D03*
X89975000Y-101240000D03*
%TD*%
D29*
%TO.C,R2*%
X111600000Y-104500000D03*
X113600000Y-104500000D03*
%TD*%
%TO.C,R4*%
X104700000Y-135100000D03*
X106700000Y-135100000D03*
%TD*%
D12*
%TO.C,D3*%
X85875000Y-104700000D03*
X87925000Y-104700000D03*
%TD*%
D29*
%TO.C,R5*%
X111600000Y-102400000D03*
X113600000Y-102400000D03*
%TD*%
D31*
%TO.C,U1*%
X102401000Y-100342500D03*
D32*
X104941000Y-100342500D03*
X107481000Y-100342500D03*
X110021000Y-100342500D03*
X112561000Y-100342500D03*
X115101000Y-100342500D03*
X117641000Y-100342500D03*
X117641000Y-115582500D03*
X115101000Y-115582500D03*
X112561000Y-115582500D03*
X110021000Y-115582500D03*
X107481000Y-115582500D03*
X104941000Y-115582500D03*
X102401000Y-115582500D03*
%TD*%
M02*
