M48
; DRILL file KiCad 10.0.1 date 2026-06-17T19:12:52
; FORMAT={-:-/ absolute / metric / decimal}
; #@! TF.CreationDate,2026-06-17T19:12:52-07:00
; #@! TF.GenerationSoftware,Kicad,Pcbnew,10.0.1
; #@! TF.FileFunction,Plated,1,2,PTH
FMAT,2
METRIC
; #@! TA.AperFunction,Plated,PTH,ViaDrill
T1C0.300
; #@! TA.AperFunction,Plated,PTH,ComponentDrill
T2C0.800
; #@! TA.AperFunction,Plated,PTH,ComponentDrill
T3C0.850
; #@! TA.AperFunction,Plated,PTH,ComponentDrill
T4C0.890
; #@! TA.AperFunction,Plated,PTH,ComponentDrill
T5C1.000
; #@! TA.AperFunction,Plated,PTH,ComponentDrill
T6C1.570
%
G90
G05
T1
X85.0Y-101.3
X88.2Y-116.7
X94.814Y-114.0
X96.9Y-113.9
X97.4Y-112.8
X99.4Y-109.9
X101.0Y-103.9
X101.0Y-106.6
X101.4Y-122.9
X102.1Y-109.1
X103.2Y-122.7
X103.8Y-132.8
X104.5Y-131.3
X106.5Y-131.3
X109.176Y-133.624
X109.9Y-134.0
X111.1Y-118.3
X111.144Y-132.3
X112.0Y-111.5
X112.1Y-133.1
X113.0Y-129.7
X113.691Y-109.114
X119.4Y-98.9
X120.1Y-109.4
X120.1Y-112.3
T2
X96.4Y-105.645
X96.4Y-107.645
T3
X102.401Y-100.343
X102.401Y-115.582
X104.941Y-100.343
X104.941Y-115.582
X107.481Y-100.343
X107.481Y-115.582
X110.021Y-100.343
X110.021Y-115.582
X112.561Y-100.343
X112.561Y-115.582
X115.101Y-100.343
X115.101Y-115.582
X117.641Y-100.343
X117.641Y-115.582
T4
X95.1Y-125.076
X95.1Y-127.616
X97.64Y-126.346
X97.64Y-128.886
X116.05Y-125.066
X116.05Y-127.606
X118.59Y-126.336
X118.59Y-128.876
T5
X106.307Y-105.367
X106.307Y-107.907
X106.307Y-110.447
X123.8Y-102.7
X123.8Y-105.2
X123.8Y-111.6
X123.8Y-114.1
T6
X85.7Y-120.116
X85.7Y-133.836
X127.99Y-120.116
X127.99Y-133.836
M30
