%TF.GenerationSoftware,KiCad,Pcbnew,10.0.1*%
%TF.CreationDate,2026-06-17T19:12:49-07:00*%
%TF.ProjectId,row-controller,726f772d-636f-46e7-9472-6f6c6c65722e,rev?*%
%TF.SameCoordinates,Original*%
%TF.FileFunction,Legend,Top*%
%TF.FilePolarity,Positive*%
%FSLAX46Y46*%
G04 Gerber Fmt 4.6, Leading zero omitted, Abs format (unit mm)*
G04 Created by KiCad (PCBNEW 10.0.1) date 2026-06-17 19:12:49*
%MOMM*%
%LPD*%
G01*
G04 APERTURE LIST*
%ADD10C,0.100000*%
%ADD11C,0.150000*%
%ADD12C,0.254000*%
%ADD13C,0.120000*%
%ADD14C,0.200000*%
%ADD15C,0.000000*%
G04 APERTURE END LIST*
D10*
X121503884Y-118072419D02*
X121503884Y-117072419D01*
X121503884Y-117072419D02*
X121884836Y-117072419D01*
X121884836Y-117072419D02*
X121980074Y-117120038D01*
X121980074Y-117120038D02*
X122027693Y-117167657D01*
X122027693Y-117167657D02*
X122075312Y-117262895D01*
X122075312Y-117262895D02*
X122075312Y-117405752D01*
X122075312Y-117405752D02*
X122027693Y-117500990D01*
X122027693Y-117500990D02*
X121980074Y-117548609D01*
X121980074Y-117548609D02*
X121884836Y-117596228D01*
X121884836Y-117596228D02*
X121503884Y-117596228D01*
X122646741Y-118072419D02*
X122551503Y-118024800D01*
X122551503Y-118024800D02*
X122503884Y-117977180D01*
X122503884Y-117977180D02*
X122456265Y-117881942D01*
X122456265Y-117881942D02*
X122456265Y-117596228D01*
X122456265Y-117596228D02*
X122503884Y-117500990D01*
X122503884Y-117500990D02*
X122551503Y-117453371D01*
X122551503Y-117453371D02*
X122646741Y-117405752D01*
X122646741Y-117405752D02*
X122789598Y-117405752D01*
X122789598Y-117405752D02*
X122884836Y-117453371D01*
X122884836Y-117453371D02*
X122932455Y-117500990D01*
X122932455Y-117500990D02*
X122980074Y-117596228D01*
X122980074Y-117596228D02*
X122980074Y-117881942D01*
X122980074Y-117881942D02*
X122932455Y-117977180D01*
X122932455Y-117977180D02*
X122884836Y-118024800D01*
X122884836Y-118024800D02*
X122789598Y-118072419D01*
X122789598Y-118072419D02*
X122646741Y-118072419D01*
X123313408Y-117405752D02*
X123503884Y-118072419D01*
X123503884Y-118072419D02*
X123694360Y-117596228D01*
X123694360Y-117596228D02*
X123884836Y-118072419D01*
X123884836Y-118072419D02*
X124075312Y-117405752D01*
X124837217Y-118024800D02*
X124741979Y-118072419D01*
X124741979Y-118072419D02*
X124551503Y-118072419D01*
X124551503Y-118072419D02*
X124456265Y-118024800D01*
X124456265Y-118024800D02*
X124408646Y-117929561D01*
X124408646Y-117929561D02*
X124408646Y-117548609D01*
X124408646Y-117548609D02*
X124456265Y-117453371D01*
X124456265Y-117453371D02*
X124551503Y-117405752D01*
X124551503Y-117405752D02*
X124741979Y-117405752D01*
X124741979Y-117405752D02*
X124837217Y-117453371D01*
X124837217Y-117453371D02*
X124884836Y-117548609D01*
X124884836Y-117548609D02*
X124884836Y-117643847D01*
X124884836Y-117643847D02*
X124408646Y-117739085D01*
X125313408Y-118072419D02*
X125313408Y-117405752D01*
X125313408Y-117596228D02*
X125361027Y-117500990D01*
X125361027Y-117500990D02*
X125408646Y-117453371D01*
X125408646Y-117453371D02*
X125503884Y-117405752D01*
X125503884Y-117405752D02*
X125599122Y-117405752D01*
X126694361Y-118072419D02*
X126694361Y-117072419D01*
X127170551Y-118072419D02*
X127170551Y-117072419D01*
X127170551Y-117072419D02*
X127741979Y-118072419D01*
X127741979Y-118072419D02*
X127741979Y-117072419D01*
X89275312Y-135572419D02*
X88941979Y-135096228D01*
X88703884Y-135572419D02*
X88703884Y-134572419D01*
X88703884Y-134572419D02*
X89084836Y-134572419D01*
X89084836Y-134572419D02*
X89180074Y-134620038D01*
X89180074Y-134620038D02*
X89227693Y-134667657D01*
X89227693Y-134667657D02*
X89275312Y-134762895D01*
X89275312Y-134762895D02*
X89275312Y-134905752D01*
X89275312Y-134905752D02*
X89227693Y-135000990D01*
X89227693Y-135000990D02*
X89180074Y-135048609D01*
X89180074Y-135048609D02*
X89084836Y-135096228D01*
X89084836Y-135096228D02*
X88703884Y-135096228D01*
X89894360Y-134572419D02*
X90084836Y-134572419D01*
X90084836Y-134572419D02*
X90180074Y-134620038D01*
X90180074Y-134620038D02*
X90275312Y-134715276D01*
X90275312Y-134715276D02*
X90322931Y-134905752D01*
X90322931Y-134905752D02*
X90322931Y-135239085D01*
X90322931Y-135239085D02*
X90275312Y-135429561D01*
X90275312Y-135429561D02*
X90180074Y-135524800D01*
X90180074Y-135524800D02*
X90084836Y-135572419D01*
X90084836Y-135572419D02*
X89894360Y-135572419D01*
X89894360Y-135572419D02*
X89799122Y-135524800D01*
X89799122Y-135524800D02*
X89703884Y-135429561D01*
X89703884Y-135429561D02*
X89656265Y-135239085D01*
X89656265Y-135239085D02*
X89656265Y-134905752D01*
X89656265Y-134905752D02*
X89703884Y-134715276D01*
X89703884Y-134715276D02*
X89799122Y-134620038D01*
X89799122Y-134620038D02*
X89894360Y-134572419D01*
X90656265Y-134572419D02*
X90894360Y-135572419D01*
X90894360Y-135572419D02*
X91084836Y-134858133D01*
X91084836Y-134858133D02*
X91275312Y-135572419D01*
X91275312Y-135572419D02*
X91513408Y-134572419D01*
X92846741Y-134572419D02*
X93037217Y-134572419D01*
X93037217Y-134572419D02*
X93132455Y-134620038D01*
X93132455Y-134620038D02*
X93227693Y-134715276D01*
X93227693Y-134715276D02*
X93275312Y-134905752D01*
X93275312Y-134905752D02*
X93275312Y-135239085D01*
X93275312Y-135239085D02*
X93227693Y-135429561D01*
X93227693Y-135429561D02*
X93132455Y-135524800D01*
X93132455Y-135524800D02*
X93037217Y-135572419D01*
X93037217Y-135572419D02*
X92846741Y-135572419D01*
X92846741Y-135572419D02*
X92751503Y-135524800D01*
X92751503Y-135524800D02*
X92656265Y-135429561D01*
X92656265Y-135429561D02*
X92608646Y-135239085D01*
X92608646Y-135239085D02*
X92608646Y-134905752D01*
X92608646Y-134905752D02*
X92656265Y-134715276D01*
X92656265Y-134715276D02*
X92751503Y-134620038D01*
X92751503Y-134620038D02*
X92846741Y-134572419D01*
X93703884Y-134572419D02*
X93703884Y-135381942D01*
X93703884Y-135381942D02*
X93751503Y-135477180D01*
X93751503Y-135477180D02*
X93799122Y-135524800D01*
X93799122Y-135524800D02*
X93894360Y-135572419D01*
X93894360Y-135572419D02*
X94084836Y-135572419D01*
X94084836Y-135572419D02*
X94180074Y-135524800D01*
X94180074Y-135524800D02*
X94227693Y-135477180D01*
X94227693Y-135477180D02*
X94275312Y-135381942D01*
X94275312Y-135381942D02*
X94275312Y-134572419D01*
X94608646Y-134572419D02*
X95180074Y-134572419D01*
X94894360Y-135572419D02*
X94894360Y-134572419D01*
X105361027Y-122905752D02*
X105741979Y-122905752D01*
X105503884Y-122572419D02*
X105503884Y-123429561D01*
X105503884Y-123429561D02*
X105551503Y-123524800D01*
X105551503Y-123524800D02*
X105646741Y-123572419D01*
X105646741Y-123572419D02*
X105741979Y-123572419D01*
X106456265Y-123524800D02*
X106361027Y-123572419D01*
X106361027Y-123572419D02*
X106170551Y-123572419D01*
X106170551Y-123572419D02*
X106075313Y-123524800D01*
X106075313Y-123524800D02*
X106027694Y-123429561D01*
X106027694Y-123429561D02*
X106027694Y-123048609D01*
X106027694Y-123048609D02*
X106075313Y-122953371D01*
X106075313Y-122953371D02*
X106170551Y-122905752D01*
X106170551Y-122905752D02*
X106361027Y-122905752D01*
X106361027Y-122905752D02*
X106456265Y-122953371D01*
X106456265Y-122953371D02*
X106503884Y-123048609D01*
X106503884Y-123048609D02*
X106503884Y-123143847D01*
X106503884Y-123143847D02*
X106027694Y-123239085D01*
X106932456Y-123572419D02*
X106932456Y-122905752D01*
X106932456Y-123096228D02*
X106980075Y-123000990D01*
X106980075Y-123000990D02*
X107027694Y-122953371D01*
X107027694Y-122953371D02*
X107122932Y-122905752D01*
X107122932Y-122905752D02*
X107218170Y-122905752D01*
X107551504Y-123572419D02*
X107551504Y-122905752D01*
X107551504Y-123000990D02*
X107599123Y-122953371D01*
X107599123Y-122953371D02*
X107694361Y-122905752D01*
X107694361Y-122905752D02*
X107837218Y-122905752D01*
X107837218Y-122905752D02*
X107932456Y-122953371D01*
X107932456Y-122953371D02*
X107980075Y-123048609D01*
X107980075Y-123048609D02*
X107980075Y-123572419D01*
X107980075Y-123048609D02*
X108027694Y-122953371D01*
X108027694Y-122953371D02*
X108122932Y-122905752D01*
X108122932Y-122905752D02*
X108265789Y-122905752D01*
X108265789Y-122905752D02*
X108361028Y-122953371D01*
X108361028Y-122953371D02*
X108408647Y-123048609D01*
X108408647Y-123048609D02*
X108408647Y-123572419D01*
X120175312Y-135572419D02*
X119841979Y-135096228D01*
X119603884Y-135572419D02*
X119603884Y-134572419D01*
X119603884Y-134572419D02*
X119984836Y-134572419D01*
X119984836Y-134572419D02*
X120080074Y-134620038D01*
X120080074Y-134620038D02*
X120127693Y-134667657D01*
X120127693Y-134667657D02*
X120175312Y-134762895D01*
X120175312Y-134762895D02*
X120175312Y-134905752D01*
X120175312Y-134905752D02*
X120127693Y-135000990D01*
X120127693Y-135000990D02*
X120080074Y-135048609D01*
X120080074Y-135048609D02*
X119984836Y-135096228D01*
X119984836Y-135096228D02*
X119603884Y-135096228D01*
X120603884Y-135572419D02*
X120603884Y-134572419D01*
X120603884Y-134572419D02*
X120984836Y-134572419D01*
X120984836Y-134572419D02*
X121080074Y-134620038D01*
X121080074Y-134620038D02*
X121127693Y-134667657D01*
X121127693Y-134667657D02*
X121175312Y-134762895D01*
X121175312Y-134762895D02*
X121175312Y-134905752D01*
X121175312Y-134905752D02*
X121127693Y-135000990D01*
X121127693Y-135000990D02*
X121080074Y-135048609D01*
X121080074Y-135048609D02*
X120984836Y-135096228D01*
X120984836Y-135096228D02*
X120603884Y-135096228D01*
X121603884Y-135572419D02*
X121603884Y-134905752D01*
X121603884Y-134572419D02*
X121556265Y-134620038D01*
X121556265Y-134620038D02*
X121603884Y-134667657D01*
X121603884Y-134667657D02*
X121651503Y-134620038D01*
X121651503Y-134620038D02*
X121603884Y-134572419D01*
X121603884Y-134572419D02*
X121603884Y-134667657D01*
X122841979Y-135572419D02*
X122841979Y-134572419D01*
X123318169Y-135572419D02*
X123318169Y-134572419D01*
X123318169Y-134572419D02*
X123889597Y-135572419D01*
X123889597Y-135572419D02*
X123889597Y-134572419D01*
X121293884Y-99622419D02*
X121293884Y-98622419D01*
X121293884Y-98622419D02*
X121674836Y-98622419D01*
X121674836Y-98622419D02*
X121770074Y-98670038D01*
X121770074Y-98670038D02*
X121817693Y-98717657D01*
X121817693Y-98717657D02*
X121865312Y-98812895D01*
X121865312Y-98812895D02*
X121865312Y-98955752D01*
X121865312Y-98955752D02*
X121817693Y-99050990D01*
X121817693Y-99050990D02*
X121770074Y-99098609D01*
X121770074Y-99098609D02*
X121674836Y-99146228D01*
X121674836Y-99146228D02*
X121293884Y-99146228D01*
X122436741Y-99622419D02*
X122341503Y-99574800D01*
X122341503Y-99574800D02*
X122293884Y-99527180D01*
X122293884Y-99527180D02*
X122246265Y-99431942D01*
X122246265Y-99431942D02*
X122246265Y-99146228D01*
X122246265Y-99146228D02*
X122293884Y-99050990D01*
X122293884Y-99050990D02*
X122341503Y-99003371D01*
X122341503Y-99003371D02*
X122436741Y-98955752D01*
X122436741Y-98955752D02*
X122579598Y-98955752D01*
X122579598Y-98955752D02*
X122674836Y-99003371D01*
X122674836Y-99003371D02*
X122722455Y-99050990D01*
X122722455Y-99050990D02*
X122770074Y-99146228D01*
X122770074Y-99146228D02*
X122770074Y-99431942D01*
X122770074Y-99431942D02*
X122722455Y-99527180D01*
X122722455Y-99527180D02*
X122674836Y-99574800D01*
X122674836Y-99574800D02*
X122579598Y-99622419D01*
X122579598Y-99622419D02*
X122436741Y-99622419D01*
X123103408Y-98955752D02*
X123293884Y-99622419D01*
X123293884Y-99622419D02*
X123484360Y-99146228D01*
X123484360Y-99146228D02*
X123674836Y-99622419D01*
X123674836Y-99622419D02*
X123865312Y-98955752D01*
X124627217Y-99574800D02*
X124531979Y-99622419D01*
X124531979Y-99622419D02*
X124341503Y-99622419D01*
X124341503Y-99622419D02*
X124246265Y-99574800D01*
X124246265Y-99574800D02*
X124198646Y-99479561D01*
X124198646Y-99479561D02*
X124198646Y-99098609D01*
X124198646Y-99098609D02*
X124246265Y-99003371D01*
X124246265Y-99003371D02*
X124341503Y-98955752D01*
X124341503Y-98955752D02*
X124531979Y-98955752D01*
X124531979Y-98955752D02*
X124627217Y-99003371D01*
X124627217Y-99003371D02*
X124674836Y-99098609D01*
X124674836Y-99098609D02*
X124674836Y-99193847D01*
X124674836Y-99193847D02*
X124198646Y-99289085D01*
X125103408Y-99622419D02*
X125103408Y-98955752D01*
X125103408Y-99146228D02*
X125151027Y-99050990D01*
X125151027Y-99050990D02*
X125198646Y-99003371D01*
X125198646Y-99003371D02*
X125293884Y-98955752D01*
X125293884Y-98955752D02*
X125389122Y-98955752D01*
X127055789Y-99622419D02*
X126722456Y-99146228D01*
X126484361Y-99622419D02*
X126484361Y-98622419D01*
X126484361Y-98622419D02*
X126865313Y-98622419D01*
X126865313Y-98622419D02*
X126960551Y-98670038D01*
X126960551Y-98670038D02*
X127008170Y-98717657D01*
X127008170Y-98717657D02*
X127055789Y-98812895D01*
X127055789Y-98812895D02*
X127055789Y-98955752D01*
X127055789Y-98955752D02*
X127008170Y-99050990D01*
X127008170Y-99050990D02*
X126960551Y-99098609D01*
X126960551Y-99098609D02*
X126865313Y-99146228D01*
X126865313Y-99146228D02*
X126484361Y-99146228D01*
X127674837Y-98622419D02*
X127865313Y-98622419D01*
X127865313Y-98622419D02*
X127960551Y-98670038D01*
X127960551Y-98670038D02*
X128055789Y-98765276D01*
X128055789Y-98765276D02*
X128103408Y-98955752D01*
X128103408Y-98955752D02*
X128103408Y-99289085D01*
X128103408Y-99289085D02*
X128055789Y-99479561D01*
X128055789Y-99479561D02*
X127960551Y-99574800D01*
X127960551Y-99574800D02*
X127865313Y-99622419D01*
X127865313Y-99622419D02*
X127674837Y-99622419D01*
X127674837Y-99622419D02*
X127579599Y-99574800D01*
X127579599Y-99574800D02*
X127484361Y-99479561D01*
X127484361Y-99479561D02*
X127436742Y-99289085D01*
X127436742Y-99289085D02*
X127436742Y-98955752D01*
X127436742Y-98955752D02*
X127484361Y-98765276D01*
X127484361Y-98765276D02*
X127579599Y-98670038D01*
X127579599Y-98670038D02*
X127674837Y-98622419D01*
X128436742Y-98622419D02*
X128674837Y-99622419D01*
X128674837Y-99622419D02*
X128865313Y-98908133D01*
X128865313Y-98908133D02*
X129055789Y-99622419D01*
X129055789Y-99622419D02*
X129293885Y-98622419D01*
D11*
X81412970Y-101711569D02*
X81412970Y-100711569D01*
X81412970Y-100711569D02*
X81793922Y-100711569D01*
X81793922Y-100711569D02*
X81889160Y-100759188D01*
X81889160Y-100759188D02*
X81936779Y-100806807D01*
X81936779Y-100806807D02*
X81984398Y-100902045D01*
X81984398Y-100902045D02*
X81984398Y-101044902D01*
X81984398Y-101044902D02*
X81936779Y-101140140D01*
X81936779Y-101140140D02*
X81889160Y-101187759D01*
X81889160Y-101187759D02*
X81793922Y-101235378D01*
X81793922Y-101235378D02*
X81412970Y-101235378D01*
X82317732Y-100711569D02*
X82555827Y-101711569D01*
X82555827Y-101711569D02*
X82746303Y-100997283D01*
X82746303Y-100997283D02*
X82936779Y-101711569D01*
X82936779Y-101711569D02*
X83174875Y-100711569D01*
X84127255Y-101711569D02*
X83793922Y-101235378D01*
X83555827Y-101711569D02*
X83555827Y-100711569D01*
X83555827Y-100711569D02*
X83936779Y-100711569D01*
X83936779Y-100711569D02*
X84032017Y-100759188D01*
X84032017Y-100759188D02*
X84079636Y-100806807D01*
X84079636Y-100806807D02*
X84127255Y-100902045D01*
X84127255Y-100902045D02*
X84127255Y-101044902D01*
X84127255Y-101044902D02*
X84079636Y-101140140D01*
X84079636Y-101140140D02*
X84032017Y-101187759D01*
X84032017Y-101187759D02*
X83936779Y-101235378D01*
X83936779Y-101235378D02*
X83555827Y-101235378D01*
X82270112Y-105171569D02*
X81936779Y-104695378D01*
X81698684Y-105171569D02*
X81698684Y-104171569D01*
X81698684Y-104171569D02*
X82079636Y-104171569D01*
X82079636Y-104171569D02*
X82174874Y-104219188D01*
X82174874Y-104219188D02*
X82222493Y-104266807D01*
X82222493Y-104266807D02*
X82270112Y-104362045D01*
X82270112Y-104362045D02*
X82270112Y-104504902D01*
X82270112Y-104504902D02*
X82222493Y-104600140D01*
X82222493Y-104600140D02*
X82174874Y-104647759D01*
X82174874Y-104647759D02*
X82079636Y-104695378D01*
X82079636Y-104695378D02*
X81698684Y-104695378D01*
X82698684Y-105171569D02*
X82698684Y-104171569D01*
X82698684Y-104171569D02*
X82936779Y-104171569D01*
X82936779Y-104171569D02*
X83079636Y-104219188D01*
X83079636Y-104219188D02*
X83174874Y-104314426D01*
X83174874Y-104314426D02*
X83222493Y-104409664D01*
X83222493Y-104409664D02*
X83270112Y-104600140D01*
X83270112Y-104600140D02*
X83270112Y-104742997D01*
X83270112Y-104742997D02*
X83222493Y-104933473D01*
X83222493Y-104933473D02*
X83174874Y-105028711D01*
X83174874Y-105028711D02*
X83079636Y-105123950D01*
X83079636Y-105123950D02*
X82936779Y-105171569D01*
X82936779Y-105171569D02*
X82698684Y-105171569D01*
X83889160Y-104695378D02*
X83889160Y-105171569D01*
X83555827Y-104171569D02*
X83889160Y-104695378D01*
X83889160Y-104695378D02*
X84222493Y-104171569D01*
X81936779Y-108631569D02*
X81936779Y-107631569D01*
X81936779Y-107631569D02*
X82174874Y-107631569D01*
X82174874Y-107631569D02*
X82317731Y-107679188D01*
X82317731Y-107679188D02*
X82412969Y-107774426D01*
X82412969Y-107774426D02*
X82460588Y-107869664D01*
X82460588Y-107869664D02*
X82508207Y-108060140D01*
X82508207Y-108060140D02*
X82508207Y-108202997D01*
X82508207Y-108202997D02*
X82460588Y-108393473D01*
X82460588Y-108393473D02*
X82412969Y-108488711D01*
X82412969Y-108488711D02*
X82317731Y-108583950D01*
X82317731Y-108583950D02*
X82174874Y-108631569D01*
X82174874Y-108631569D02*
X81936779Y-108631569D01*
X82889160Y-108345854D02*
X83365350Y-108345854D01*
X82793922Y-108631569D02*
X83127255Y-107631569D01*
X83127255Y-107631569D02*
X83460588Y-108631569D01*
X83651065Y-107631569D02*
X84222493Y-107631569D01*
X83936779Y-108631569D02*
X83936779Y-107631569D01*
X126699819Y-104283333D02*
X127414104Y-104283333D01*
X127414104Y-104283333D02*
X127556961Y-104330952D01*
X127556961Y-104330952D02*
X127652200Y-104426190D01*
X127652200Y-104426190D02*
X127699819Y-104569047D01*
X127699819Y-104569047D02*
X127699819Y-104664285D01*
X126699819Y-103902380D02*
X126699819Y-103283333D01*
X126699819Y-103283333D02*
X127080771Y-103616666D01*
X127080771Y-103616666D02*
X127080771Y-103473809D01*
X127080771Y-103473809D02*
X127128390Y-103378571D01*
X127128390Y-103378571D02*
X127176009Y-103330952D01*
X127176009Y-103330952D02*
X127271247Y-103283333D01*
X127271247Y-103283333D02*
X127509342Y-103283333D01*
X127509342Y-103283333D02*
X127604580Y-103330952D01*
X127604580Y-103330952D02*
X127652200Y-103378571D01*
X127652200Y-103378571D02*
X127699819Y-103473809D01*
X127699819Y-103473809D02*
X127699819Y-103759523D01*
X127699819Y-103759523D02*
X127652200Y-103854761D01*
X127652200Y-103854761D02*
X127604580Y-103902380D01*
X86136905Y-100044819D02*
X86136905Y-99044819D01*
X86136905Y-99044819D02*
X86375000Y-99044819D01*
X86375000Y-99044819D02*
X86517857Y-99092438D01*
X86517857Y-99092438D02*
X86613095Y-99187676D01*
X86613095Y-99187676D02*
X86660714Y-99282914D01*
X86660714Y-99282914D02*
X86708333Y-99473390D01*
X86708333Y-99473390D02*
X86708333Y-99616247D01*
X86708333Y-99616247D02*
X86660714Y-99806723D01*
X86660714Y-99806723D02*
X86613095Y-99901961D01*
X86613095Y-99901961D02*
X86517857Y-99997200D01*
X86517857Y-99997200D02*
X86375000Y-100044819D01*
X86375000Y-100044819D02*
X86136905Y-100044819D01*
X87660714Y-100044819D02*
X87089286Y-100044819D01*
X87375000Y-100044819D02*
X87375000Y-99044819D01*
X87375000Y-99044819D02*
X87279762Y-99187676D01*
X87279762Y-99187676D02*
X87184524Y-99282914D01*
X87184524Y-99282914D02*
X87089286Y-99330533D01*
X97359580Y-118866666D02*
X97407200Y-118914285D01*
X97407200Y-118914285D02*
X97454819Y-119057142D01*
X97454819Y-119057142D02*
X97454819Y-119152380D01*
X97454819Y-119152380D02*
X97407200Y-119295237D01*
X97407200Y-119295237D02*
X97311961Y-119390475D01*
X97311961Y-119390475D02*
X97216723Y-119438094D01*
X97216723Y-119438094D02*
X97026247Y-119485713D01*
X97026247Y-119485713D02*
X96883390Y-119485713D01*
X96883390Y-119485713D02*
X96692914Y-119438094D01*
X96692914Y-119438094D02*
X96597676Y-119390475D01*
X96597676Y-119390475D02*
X96502438Y-119295237D01*
X96502438Y-119295237D02*
X96454819Y-119152380D01*
X96454819Y-119152380D02*
X96454819Y-119057142D01*
X96454819Y-119057142D02*
X96502438Y-118914285D01*
X96502438Y-118914285D02*
X96550057Y-118866666D01*
X96454819Y-118533332D02*
X96454819Y-117866666D01*
X96454819Y-117866666D02*
X97454819Y-118295237D01*
X106457142Y-122554819D02*
X106123809Y-122078628D01*
X105885714Y-122554819D02*
X105885714Y-121554819D01*
X105885714Y-121554819D02*
X106266666Y-121554819D01*
X106266666Y-121554819D02*
X106361904Y-121602438D01*
X106361904Y-121602438D02*
X106409523Y-121650057D01*
X106409523Y-121650057D02*
X106457142Y-121745295D01*
X106457142Y-121745295D02*
X106457142Y-121888152D01*
X106457142Y-121888152D02*
X106409523Y-121983390D01*
X106409523Y-121983390D02*
X106361904Y-122031009D01*
X106361904Y-122031009D02*
X106266666Y-122078628D01*
X106266666Y-122078628D02*
X105885714Y-122078628D01*
X107409523Y-122554819D02*
X106838095Y-122554819D01*
X107123809Y-122554819D02*
X107123809Y-121554819D01*
X107123809Y-121554819D02*
X107028571Y-121697676D01*
X107028571Y-121697676D02*
X106933333Y-121792914D01*
X106933333Y-121792914D02*
X106838095Y-121840533D01*
X107742857Y-121554819D02*
X108361904Y-121554819D01*
X108361904Y-121554819D02*
X108028571Y-121935771D01*
X108028571Y-121935771D02*
X108171428Y-121935771D01*
X108171428Y-121935771D02*
X108266666Y-121983390D01*
X108266666Y-121983390D02*
X108314285Y-122031009D01*
X108314285Y-122031009D02*
X108361904Y-122126247D01*
X108361904Y-122126247D02*
X108361904Y-122364342D01*
X108361904Y-122364342D02*
X108314285Y-122459580D01*
X108314285Y-122459580D02*
X108266666Y-122507200D01*
X108266666Y-122507200D02*
X108171428Y-122554819D01*
X108171428Y-122554819D02*
X107885714Y-122554819D01*
X107885714Y-122554819D02*
X107790476Y-122507200D01*
X107790476Y-122507200D02*
X107742857Y-122459580D01*
X98333333Y-111154819D02*
X98000000Y-110678628D01*
X97761905Y-111154819D02*
X97761905Y-110154819D01*
X97761905Y-110154819D02*
X98142857Y-110154819D01*
X98142857Y-110154819D02*
X98238095Y-110202438D01*
X98238095Y-110202438D02*
X98285714Y-110250057D01*
X98285714Y-110250057D02*
X98333333Y-110345295D01*
X98333333Y-110345295D02*
X98333333Y-110488152D01*
X98333333Y-110488152D02*
X98285714Y-110583390D01*
X98285714Y-110583390D02*
X98238095Y-110631009D01*
X98238095Y-110631009D02*
X98142857Y-110678628D01*
X98142857Y-110678628D02*
X97761905Y-110678628D01*
X98666667Y-110154819D02*
X99333333Y-110154819D01*
X99333333Y-110154819D02*
X98904762Y-111154819D01*
X103554819Y-108761904D02*
X104364342Y-108761904D01*
X104364342Y-108761904D02*
X104459580Y-108714285D01*
X104459580Y-108714285D02*
X104507200Y-108666666D01*
X104507200Y-108666666D02*
X104554819Y-108571428D01*
X104554819Y-108571428D02*
X104554819Y-108380952D01*
X104554819Y-108380952D02*
X104507200Y-108285714D01*
X104507200Y-108285714D02*
X104459580Y-108238095D01*
X104459580Y-108238095D02*
X104364342Y-108190476D01*
X104364342Y-108190476D02*
X103554819Y-108190476D01*
X103650057Y-107761904D02*
X103602438Y-107714285D01*
X103602438Y-107714285D02*
X103554819Y-107619047D01*
X103554819Y-107619047D02*
X103554819Y-107380952D01*
X103554819Y-107380952D02*
X103602438Y-107285714D01*
X103602438Y-107285714D02*
X103650057Y-107238095D01*
X103650057Y-107238095D02*
X103745295Y-107190476D01*
X103745295Y-107190476D02*
X103840533Y-107190476D01*
X103840533Y-107190476D02*
X103983390Y-107238095D01*
X103983390Y-107238095D02*
X104554819Y-107809523D01*
X104554819Y-107809523D02*
X104554819Y-107190476D01*
X100233333Y-118459580D02*
X100185714Y-118507200D01*
X100185714Y-118507200D02*
X100042857Y-118554819D01*
X100042857Y-118554819D02*
X99947619Y-118554819D01*
X99947619Y-118554819D02*
X99804762Y-118507200D01*
X99804762Y-118507200D02*
X99709524Y-118411961D01*
X99709524Y-118411961D02*
X99661905Y-118316723D01*
X99661905Y-118316723D02*
X99614286Y-118126247D01*
X99614286Y-118126247D02*
X99614286Y-117983390D01*
X99614286Y-117983390D02*
X99661905Y-117792914D01*
X99661905Y-117792914D02*
X99709524Y-117697676D01*
X99709524Y-117697676D02*
X99804762Y-117602438D01*
X99804762Y-117602438D02*
X99947619Y-117554819D01*
X99947619Y-117554819D02*
X100042857Y-117554819D01*
X100042857Y-117554819D02*
X100185714Y-117602438D01*
X100185714Y-117602438D02*
X100233333Y-117650057D01*
X100804762Y-117983390D02*
X100709524Y-117935771D01*
X100709524Y-117935771D02*
X100661905Y-117888152D01*
X100661905Y-117888152D02*
X100614286Y-117792914D01*
X100614286Y-117792914D02*
X100614286Y-117745295D01*
X100614286Y-117745295D02*
X100661905Y-117650057D01*
X100661905Y-117650057D02*
X100709524Y-117602438D01*
X100709524Y-117602438D02*
X100804762Y-117554819D01*
X100804762Y-117554819D02*
X100995238Y-117554819D01*
X100995238Y-117554819D02*
X101090476Y-117602438D01*
X101090476Y-117602438D02*
X101138095Y-117650057D01*
X101138095Y-117650057D02*
X101185714Y-117745295D01*
X101185714Y-117745295D02*
X101185714Y-117792914D01*
X101185714Y-117792914D02*
X101138095Y-117888152D01*
X101138095Y-117888152D02*
X101090476Y-117935771D01*
X101090476Y-117935771D02*
X100995238Y-117983390D01*
X100995238Y-117983390D02*
X100804762Y-117983390D01*
X100804762Y-117983390D02*
X100709524Y-118031009D01*
X100709524Y-118031009D02*
X100661905Y-118078628D01*
X100661905Y-118078628D02*
X100614286Y-118173866D01*
X100614286Y-118173866D02*
X100614286Y-118364342D01*
X100614286Y-118364342D02*
X100661905Y-118459580D01*
X100661905Y-118459580D02*
X100709524Y-118507200D01*
X100709524Y-118507200D02*
X100804762Y-118554819D01*
X100804762Y-118554819D02*
X100995238Y-118554819D01*
X100995238Y-118554819D02*
X101090476Y-118507200D01*
X101090476Y-118507200D02*
X101138095Y-118459580D01*
X101138095Y-118459580D02*
X101185714Y-118364342D01*
X101185714Y-118364342D02*
X101185714Y-118173866D01*
X101185714Y-118173866D02*
X101138095Y-118078628D01*
X101138095Y-118078628D02*
X101090476Y-118031009D01*
X101090476Y-118031009D02*
X100995238Y-117983390D01*
X86161905Y-106964819D02*
X86161905Y-105964819D01*
X86161905Y-105964819D02*
X86400000Y-105964819D01*
X86400000Y-105964819D02*
X86542857Y-106012438D01*
X86542857Y-106012438D02*
X86638095Y-106107676D01*
X86638095Y-106107676D02*
X86685714Y-106202914D01*
X86685714Y-106202914D02*
X86733333Y-106393390D01*
X86733333Y-106393390D02*
X86733333Y-106536247D01*
X86733333Y-106536247D02*
X86685714Y-106726723D01*
X86685714Y-106726723D02*
X86638095Y-106821961D01*
X86638095Y-106821961D02*
X86542857Y-106917200D01*
X86542857Y-106917200D02*
X86400000Y-106964819D01*
X86400000Y-106964819D02*
X86161905Y-106964819D01*
X87114286Y-106060057D02*
X87161905Y-106012438D01*
X87161905Y-106012438D02*
X87257143Y-105964819D01*
X87257143Y-105964819D02*
X87495238Y-105964819D01*
X87495238Y-105964819D02*
X87590476Y-106012438D01*
X87590476Y-106012438D02*
X87638095Y-106060057D01*
X87638095Y-106060057D02*
X87685714Y-106155295D01*
X87685714Y-106155295D02*
X87685714Y-106250533D01*
X87685714Y-106250533D02*
X87638095Y-106393390D01*
X87638095Y-106393390D02*
X87066667Y-106964819D01*
X87066667Y-106964819D02*
X87685714Y-106964819D01*
X95557142Y-103559580D02*
X95509523Y-103607200D01*
X95509523Y-103607200D02*
X95366666Y-103654819D01*
X95366666Y-103654819D02*
X95271428Y-103654819D01*
X95271428Y-103654819D02*
X95128571Y-103607200D01*
X95128571Y-103607200D02*
X95033333Y-103511961D01*
X95033333Y-103511961D02*
X94985714Y-103416723D01*
X94985714Y-103416723D02*
X94938095Y-103226247D01*
X94938095Y-103226247D02*
X94938095Y-103083390D01*
X94938095Y-103083390D02*
X94985714Y-102892914D01*
X94985714Y-102892914D02*
X95033333Y-102797676D01*
X95033333Y-102797676D02*
X95128571Y-102702438D01*
X95128571Y-102702438D02*
X95271428Y-102654819D01*
X95271428Y-102654819D02*
X95366666Y-102654819D01*
X95366666Y-102654819D02*
X95509523Y-102702438D01*
X95509523Y-102702438D02*
X95557142Y-102750057D01*
X96509523Y-103654819D02*
X95938095Y-103654819D01*
X96223809Y-103654819D02*
X96223809Y-102654819D01*
X96223809Y-102654819D02*
X96128571Y-102797676D01*
X96128571Y-102797676D02*
X96033333Y-102892914D01*
X96033333Y-102892914D02*
X95938095Y-102940533D01*
X97128571Y-102654819D02*
X97223809Y-102654819D01*
X97223809Y-102654819D02*
X97319047Y-102702438D01*
X97319047Y-102702438D02*
X97366666Y-102750057D01*
X97366666Y-102750057D02*
X97414285Y-102845295D01*
X97414285Y-102845295D02*
X97461904Y-103035771D01*
X97461904Y-103035771D02*
X97461904Y-103273866D01*
X97461904Y-103273866D02*
X97414285Y-103464342D01*
X97414285Y-103464342D02*
X97366666Y-103559580D01*
X97366666Y-103559580D02*
X97319047Y-103607200D01*
X97319047Y-103607200D02*
X97223809Y-103654819D01*
X97223809Y-103654819D02*
X97128571Y-103654819D01*
X97128571Y-103654819D02*
X97033333Y-103607200D01*
X97033333Y-103607200D02*
X96985714Y-103559580D01*
X96985714Y-103559580D02*
X96938095Y-103464342D01*
X96938095Y-103464342D02*
X96890476Y-103273866D01*
X96890476Y-103273866D02*
X96890476Y-103035771D01*
X96890476Y-103035771D02*
X96938095Y-102845295D01*
X96938095Y-102845295D02*
X96985714Y-102750057D01*
X96985714Y-102750057D02*
X97033333Y-102702438D01*
X97033333Y-102702438D02*
X97128571Y-102654819D01*
X90833333Y-107054819D02*
X90500000Y-106578628D01*
X90261905Y-107054819D02*
X90261905Y-106054819D01*
X90261905Y-106054819D02*
X90642857Y-106054819D01*
X90642857Y-106054819D02*
X90738095Y-106102438D01*
X90738095Y-106102438D02*
X90785714Y-106150057D01*
X90785714Y-106150057D02*
X90833333Y-106245295D01*
X90833333Y-106245295D02*
X90833333Y-106388152D01*
X90833333Y-106388152D02*
X90785714Y-106483390D01*
X90785714Y-106483390D02*
X90738095Y-106531009D01*
X90738095Y-106531009D02*
X90642857Y-106578628D01*
X90642857Y-106578628D02*
X90261905Y-106578628D01*
X91309524Y-107054819D02*
X91500000Y-107054819D01*
X91500000Y-107054819D02*
X91595238Y-107007200D01*
X91595238Y-107007200D02*
X91642857Y-106959580D01*
X91642857Y-106959580D02*
X91738095Y-106816723D01*
X91738095Y-106816723D02*
X91785714Y-106626247D01*
X91785714Y-106626247D02*
X91785714Y-106245295D01*
X91785714Y-106245295D02*
X91738095Y-106150057D01*
X91738095Y-106150057D02*
X91690476Y-106102438D01*
X91690476Y-106102438D02*
X91595238Y-106054819D01*
X91595238Y-106054819D02*
X91404762Y-106054819D01*
X91404762Y-106054819D02*
X91309524Y-106102438D01*
X91309524Y-106102438D02*
X91261905Y-106150057D01*
X91261905Y-106150057D02*
X91214286Y-106245295D01*
X91214286Y-106245295D02*
X91214286Y-106483390D01*
X91214286Y-106483390D02*
X91261905Y-106578628D01*
X91261905Y-106578628D02*
X91309524Y-106626247D01*
X91309524Y-106626247D02*
X91404762Y-106673866D01*
X91404762Y-106673866D02*
X91595238Y-106673866D01*
X91595238Y-106673866D02*
X91690476Y-106626247D01*
X91690476Y-106626247D02*
X91738095Y-106578628D01*
X91738095Y-106578628D02*
X91785714Y-106483390D01*
D12*
X89194318Y-127399409D02*
X90101461Y-127399409D01*
X90101461Y-127399409D02*
X90282889Y-127459886D01*
X90282889Y-127459886D02*
X90403842Y-127580838D01*
X90403842Y-127580838D02*
X90464318Y-127762267D01*
X90464318Y-127762267D02*
X90464318Y-127883219D01*
X89617651Y-126250362D02*
X90464318Y-126250362D01*
X89133842Y-126552743D02*
X90040984Y-126855124D01*
X90040984Y-126855124D02*
X90040984Y-126068933D01*
D11*
X120306819Y-108466666D02*
X119830628Y-108799999D01*
X120306819Y-109038094D02*
X119306819Y-109038094D01*
X119306819Y-109038094D02*
X119306819Y-108657142D01*
X119306819Y-108657142D02*
X119354438Y-108561904D01*
X119354438Y-108561904D02*
X119402057Y-108514285D01*
X119402057Y-108514285D02*
X119497295Y-108466666D01*
X119497295Y-108466666D02*
X119640152Y-108466666D01*
X119640152Y-108466666D02*
X119735390Y-108514285D01*
X119735390Y-108514285D02*
X119783009Y-108561904D01*
X119783009Y-108561904D02*
X119830628Y-108657142D01*
X119830628Y-108657142D02*
X119830628Y-109038094D01*
X120306819Y-107514285D02*
X120306819Y-108085713D01*
X120306819Y-107799999D02*
X119306819Y-107799999D01*
X119306819Y-107799999D02*
X119449676Y-107895237D01*
X119449676Y-107895237D02*
X119544914Y-107990475D01*
X119544914Y-107990475D02*
X119592533Y-108085713D01*
X102633333Y-133554819D02*
X102300000Y-133078628D01*
X102061905Y-133554819D02*
X102061905Y-132554819D01*
X102061905Y-132554819D02*
X102442857Y-132554819D01*
X102442857Y-132554819D02*
X102538095Y-132602438D01*
X102538095Y-132602438D02*
X102585714Y-132650057D01*
X102585714Y-132650057D02*
X102633333Y-132745295D01*
X102633333Y-132745295D02*
X102633333Y-132888152D01*
X102633333Y-132888152D02*
X102585714Y-132983390D01*
X102585714Y-132983390D02*
X102538095Y-133031009D01*
X102538095Y-133031009D02*
X102442857Y-133078628D01*
X102442857Y-133078628D02*
X102061905Y-133078628D01*
X102966667Y-132554819D02*
X103585714Y-132554819D01*
X103585714Y-132554819D02*
X103252381Y-132935771D01*
X103252381Y-132935771D02*
X103395238Y-132935771D01*
X103395238Y-132935771D02*
X103490476Y-132983390D01*
X103490476Y-132983390D02*
X103538095Y-133031009D01*
X103538095Y-133031009D02*
X103585714Y-133126247D01*
X103585714Y-133126247D02*
X103585714Y-133364342D01*
X103585714Y-133364342D02*
X103538095Y-133459580D01*
X103538095Y-133459580D02*
X103490476Y-133507200D01*
X103490476Y-133507200D02*
X103395238Y-133554819D01*
X103395238Y-133554819D02*
X103109524Y-133554819D01*
X103109524Y-133554819D02*
X103014286Y-133507200D01*
X103014286Y-133507200D02*
X102966667Y-133459580D01*
D12*
X111109318Y-133600839D02*
X109839318Y-133600839D01*
X110988365Y-132270362D02*
X111048842Y-132330838D01*
X111048842Y-132330838D02*
X111109318Y-132512267D01*
X111109318Y-132512267D02*
X111109318Y-132633219D01*
X111109318Y-132633219D02*
X111048842Y-132814648D01*
X111048842Y-132814648D02*
X110927889Y-132935600D01*
X110927889Y-132935600D02*
X110806937Y-132996077D01*
X110806937Y-132996077D02*
X110565032Y-133056553D01*
X110565032Y-133056553D02*
X110383603Y-133056553D01*
X110383603Y-133056553D02*
X110141699Y-132996077D01*
X110141699Y-132996077D02*
X110020746Y-132935600D01*
X110020746Y-132935600D02*
X109899794Y-132814648D01*
X109899794Y-132814648D02*
X109839318Y-132633219D01*
X109839318Y-132633219D02*
X109839318Y-132512267D01*
X109839318Y-132512267D02*
X109899794Y-132330838D01*
X109899794Y-132330838D02*
X109960270Y-132270362D01*
X109839318Y-131847029D02*
X109839318Y-131060838D01*
X109839318Y-131060838D02*
X110323127Y-131484172D01*
X110323127Y-131484172D02*
X110323127Y-131302743D01*
X110323127Y-131302743D02*
X110383603Y-131181791D01*
X110383603Y-131181791D02*
X110444080Y-131121315D01*
X110444080Y-131121315D02*
X110565032Y-131060838D01*
X110565032Y-131060838D02*
X110867413Y-131060838D01*
X110867413Y-131060838D02*
X110988365Y-131121315D01*
X110988365Y-131121315D02*
X111048842Y-131181791D01*
X111048842Y-131181791D02*
X111109318Y-131302743D01*
X111109318Y-131302743D02*
X111109318Y-131665600D01*
X111109318Y-131665600D02*
X111048842Y-131786553D01*
X111048842Y-131786553D02*
X110988365Y-131847029D01*
D11*
X95259580Y-118892743D02*
X95307200Y-118940362D01*
X95307200Y-118940362D02*
X95354819Y-119083219D01*
X95354819Y-119083219D02*
X95354819Y-119178457D01*
X95354819Y-119178457D02*
X95307200Y-119321314D01*
X95307200Y-119321314D02*
X95211961Y-119416552D01*
X95211961Y-119416552D02*
X95116723Y-119464171D01*
X95116723Y-119464171D02*
X94926247Y-119511790D01*
X94926247Y-119511790D02*
X94783390Y-119511790D01*
X94783390Y-119511790D02*
X94592914Y-119464171D01*
X94592914Y-119464171D02*
X94497676Y-119416552D01*
X94497676Y-119416552D02*
X94402438Y-119321314D01*
X94402438Y-119321314D02*
X94354819Y-119178457D01*
X94354819Y-119178457D02*
X94354819Y-119083219D01*
X94354819Y-119083219D02*
X94402438Y-118940362D01*
X94402438Y-118940362D02*
X94450057Y-118892743D01*
X94688152Y-118035600D02*
X95354819Y-118035600D01*
X94307200Y-118273695D02*
X95021485Y-118511790D01*
X95021485Y-118511790D02*
X95021485Y-117892743D01*
X106559580Y-126666666D02*
X106607200Y-126714285D01*
X106607200Y-126714285D02*
X106654819Y-126857142D01*
X106654819Y-126857142D02*
X106654819Y-126952380D01*
X106654819Y-126952380D02*
X106607200Y-127095237D01*
X106607200Y-127095237D02*
X106511961Y-127190475D01*
X106511961Y-127190475D02*
X106416723Y-127238094D01*
X106416723Y-127238094D02*
X106226247Y-127285713D01*
X106226247Y-127285713D02*
X106083390Y-127285713D01*
X106083390Y-127285713D02*
X105892914Y-127238094D01*
X105892914Y-127238094D02*
X105797676Y-127190475D01*
X105797676Y-127190475D02*
X105702438Y-127095237D01*
X105702438Y-127095237D02*
X105654819Y-126952380D01*
X105654819Y-126952380D02*
X105654819Y-126857142D01*
X105654819Y-126857142D02*
X105702438Y-126714285D01*
X105702438Y-126714285D02*
X105750057Y-126666666D01*
X105654819Y-125809523D02*
X105654819Y-125999999D01*
X105654819Y-125999999D02*
X105702438Y-126095237D01*
X105702438Y-126095237D02*
X105750057Y-126142856D01*
X105750057Y-126142856D02*
X105892914Y-126238094D01*
X105892914Y-126238094D02*
X106083390Y-126285713D01*
X106083390Y-126285713D02*
X106464342Y-126285713D01*
X106464342Y-126285713D02*
X106559580Y-126238094D01*
X106559580Y-126238094D02*
X106607200Y-126190475D01*
X106607200Y-126190475D02*
X106654819Y-126095237D01*
X106654819Y-126095237D02*
X106654819Y-125904761D01*
X106654819Y-125904761D02*
X106607200Y-125809523D01*
X106607200Y-125809523D02*
X106559580Y-125761904D01*
X106559580Y-125761904D02*
X106464342Y-125714285D01*
X106464342Y-125714285D02*
X106226247Y-125714285D01*
X106226247Y-125714285D02*
X106131009Y-125761904D01*
X106131009Y-125761904D02*
X106083390Y-125809523D01*
X106083390Y-125809523D02*
X106035771Y-125904761D01*
X106035771Y-125904761D02*
X106035771Y-126095237D01*
X106035771Y-126095237D02*
X106083390Y-126190475D01*
X106083390Y-126190475D02*
X106131009Y-126238094D01*
X106131009Y-126238094D02*
X106226247Y-126285713D01*
D12*
X91374318Y-115194762D02*
X90104318Y-115194762D01*
X91253365Y-113864285D02*
X91313842Y-113924761D01*
X91313842Y-113924761D02*
X91374318Y-114106190D01*
X91374318Y-114106190D02*
X91374318Y-114227142D01*
X91374318Y-114227142D02*
X91313842Y-114408571D01*
X91313842Y-114408571D02*
X91192889Y-114529523D01*
X91192889Y-114529523D02*
X91071937Y-114590000D01*
X91071937Y-114590000D02*
X90830032Y-114650476D01*
X90830032Y-114650476D02*
X90648603Y-114650476D01*
X90648603Y-114650476D02*
X90406699Y-114590000D01*
X90406699Y-114590000D02*
X90285746Y-114529523D01*
X90285746Y-114529523D02*
X90164794Y-114408571D01*
X90164794Y-114408571D02*
X90104318Y-114227142D01*
X90104318Y-114227142D02*
X90104318Y-114106190D01*
X90104318Y-114106190D02*
X90164794Y-113924761D01*
X90164794Y-113924761D02*
X90225270Y-113864285D01*
X90225270Y-113380476D02*
X90164794Y-113320000D01*
X90164794Y-113320000D02*
X90104318Y-113199047D01*
X90104318Y-113199047D02*
X90104318Y-112896666D01*
X90104318Y-112896666D02*
X90164794Y-112775714D01*
X90164794Y-112775714D02*
X90225270Y-112715238D01*
X90225270Y-112715238D02*
X90346222Y-112654761D01*
X90346222Y-112654761D02*
X90467175Y-112654761D01*
X90467175Y-112654761D02*
X90648603Y-112715238D01*
X90648603Y-112715238D02*
X91374318Y-113440952D01*
X91374318Y-113440952D02*
X91374318Y-112654761D01*
D11*
X126699819Y-113183333D02*
X127414104Y-113183333D01*
X127414104Y-113183333D02*
X127556961Y-113230952D01*
X127556961Y-113230952D02*
X127652200Y-113326190D01*
X127652200Y-113326190D02*
X127699819Y-113469047D01*
X127699819Y-113469047D02*
X127699819Y-113564285D01*
X127699819Y-112183333D02*
X127699819Y-112754761D01*
X127699819Y-112469047D02*
X126699819Y-112469047D01*
X126699819Y-112469047D02*
X126842676Y-112564285D01*
X126842676Y-112564285D02*
X126937914Y-112659523D01*
X126937914Y-112659523D02*
X126985533Y-112754761D01*
D12*
X108474318Y-120273458D02*
X107204318Y-120273458D01*
X107204318Y-120273458D02*
X107204318Y-119971077D01*
X107204318Y-119971077D02*
X107264794Y-119789648D01*
X107264794Y-119789648D02*
X107385746Y-119668696D01*
X107385746Y-119668696D02*
X107506699Y-119608219D01*
X107506699Y-119608219D02*
X107748603Y-119547743D01*
X107748603Y-119547743D02*
X107930032Y-119547743D01*
X107930032Y-119547743D02*
X108171937Y-119608219D01*
X108171937Y-119608219D02*
X108292889Y-119668696D01*
X108292889Y-119668696D02*
X108413842Y-119789648D01*
X108413842Y-119789648D02*
X108474318Y-119971077D01*
X108474318Y-119971077D02*
X108474318Y-120273458D01*
X107627651Y-118459172D02*
X108474318Y-118459172D01*
X107143842Y-118761553D02*
X108050984Y-119063934D01*
X108050984Y-119063934D02*
X108050984Y-118277743D01*
D11*
X113989819Y-126603934D02*
X113513628Y-126937267D01*
X113989819Y-127175362D02*
X112989819Y-127175362D01*
X112989819Y-127175362D02*
X112989819Y-126794410D01*
X112989819Y-126794410D02*
X113037438Y-126699172D01*
X113037438Y-126699172D02*
X113085057Y-126651553D01*
X113085057Y-126651553D02*
X113180295Y-126603934D01*
X113180295Y-126603934D02*
X113323152Y-126603934D01*
X113323152Y-126603934D02*
X113418390Y-126651553D01*
X113418390Y-126651553D02*
X113466009Y-126699172D01*
X113466009Y-126699172D02*
X113513628Y-126794410D01*
X113513628Y-126794410D02*
X113513628Y-127175362D01*
X113989819Y-125651553D02*
X113989819Y-126222981D01*
X113989819Y-125937267D02*
X112989819Y-125937267D01*
X112989819Y-125937267D02*
X113132676Y-126032505D01*
X113132676Y-126032505D02*
X113227914Y-126127743D01*
X113227914Y-126127743D02*
X113275533Y-126222981D01*
X113085057Y-125270600D02*
X113037438Y-125222981D01*
X113037438Y-125222981D02*
X112989819Y-125127743D01*
X112989819Y-125127743D02*
X112989819Y-124889648D01*
X112989819Y-124889648D02*
X113037438Y-124794410D01*
X113037438Y-124794410D02*
X113085057Y-124746791D01*
X113085057Y-124746791D02*
X113180295Y-124699172D01*
X113180295Y-124699172D02*
X113275533Y-124699172D01*
X113275533Y-124699172D02*
X113418390Y-124746791D01*
X113418390Y-124746791D02*
X113989819Y-125318219D01*
X113989819Y-125318219D02*
X113989819Y-124699172D01*
X98333333Y-113354819D02*
X98000000Y-112878628D01*
X97761905Y-113354819D02*
X97761905Y-112354819D01*
X97761905Y-112354819D02*
X98142857Y-112354819D01*
X98142857Y-112354819D02*
X98238095Y-112402438D01*
X98238095Y-112402438D02*
X98285714Y-112450057D01*
X98285714Y-112450057D02*
X98333333Y-112545295D01*
X98333333Y-112545295D02*
X98333333Y-112688152D01*
X98333333Y-112688152D02*
X98285714Y-112783390D01*
X98285714Y-112783390D02*
X98238095Y-112831009D01*
X98238095Y-112831009D02*
X98142857Y-112878628D01*
X98142857Y-112878628D02*
X97761905Y-112878628D01*
X99190476Y-112354819D02*
X99000000Y-112354819D01*
X99000000Y-112354819D02*
X98904762Y-112402438D01*
X98904762Y-112402438D02*
X98857143Y-112450057D01*
X98857143Y-112450057D02*
X98761905Y-112592914D01*
X98761905Y-112592914D02*
X98714286Y-112783390D01*
X98714286Y-112783390D02*
X98714286Y-113164342D01*
X98714286Y-113164342D02*
X98761905Y-113259580D01*
X98761905Y-113259580D02*
X98809524Y-113307200D01*
X98809524Y-113307200D02*
X98904762Y-113354819D01*
X98904762Y-113354819D02*
X99095238Y-113354819D01*
X99095238Y-113354819D02*
X99190476Y-113307200D01*
X99190476Y-113307200D02*
X99238095Y-113259580D01*
X99238095Y-113259580D02*
X99285714Y-113164342D01*
X99285714Y-113164342D02*
X99285714Y-112926247D01*
X99285714Y-112926247D02*
X99238095Y-112831009D01*
X99238095Y-112831009D02*
X99190476Y-112783390D01*
X99190476Y-112783390D02*
X99095238Y-112735771D01*
X99095238Y-112735771D02*
X98904762Y-112735771D01*
X98904762Y-112735771D02*
X98809524Y-112783390D01*
X98809524Y-112783390D02*
X98761905Y-112831009D01*
X98761905Y-112831009D02*
X98714286Y-112926247D01*
X113684333Y-113559580D02*
X113636714Y-113607200D01*
X113636714Y-113607200D02*
X113493857Y-113654819D01*
X113493857Y-113654819D02*
X113398619Y-113654819D01*
X113398619Y-113654819D02*
X113255762Y-113607200D01*
X113255762Y-113607200D02*
X113160524Y-113511961D01*
X113160524Y-113511961D02*
X113112905Y-113416723D01*
X113112905Y-113416723D02*
X113065286Y-113226247D01*
X113065286Y-113226247D02*
X113065286Y-113083390D01*
X113065286Y-113083390D02*
X113112905Y-112892914D01*
X113112905Y-112892914D02*
X113160524Y-112797676D01*
X113160524Y-112797676D02*
X113255762Y-112702438D01*
X113255762Y-112702438D02*
X113398619Y-112654819D01*
X113398619Y-112654819D02*
X113493857Y-112654819D01*
X113493857Y-112654819D02*
X113636714Y-112702438D01*
X113636714Y-112702438D02*
X113684333Y-112750057D01*
X114017667Y-112654819D02*
X114636714Y-112654819D01*
X114636714Y-112654819D02*
X114303381Y-113035771D01*
X114303381Y-113035771D02*
X114446238Y-113035771D01*
X114446238Y-113035771D02*
X114541476Y-113083390D01*
X114541476Y-113083390D02*
X114589095Y-113131009D01*
X114589095Y-113131009D02*
X114636714Y-113226247D01*
X114636714Y-113226247D02*
X114636714Y-113464342D01*
X114636714Y-113464342D02*
X114589095Y-113559580D01*
X114589095Y-113559580D02*
X114541476Y-113607200D01*
X114541476Y-113607200D02*
X114446238Y-113654819D01*
X114446238Y-113654819D02*
X114160524Y-113654819D01*
X114160524Y-113654819D02*
X114065286Y-113607200D01*
X114065286Y-113607200D02*
X114017667Y-113559580D01*
X90357142Y-103554819D02*
X90023809Y-103078628D01*
X89785714Y-103554819D02*
X89785714Y-102554819D01*
X89785714Y-102554819D02*
X90166666Y-102554819D01*
X90166666Y-102554819D02*
X90261904Y-102602438D01*
X90261904Y-102602438D02*
X90309523Y-102650057D01*
X90309523Y-102650057D02*
X90357142Y-102745295D01*
X90357142Y-102745295D02*
X90357142Y-102888152D01*
X90357142Y-102888152D02*
X90309523Y-102983390D01*
X90309523Y-102983390D02*
X90261904Y-103031009D01*
X90261904Y-103031009D02*
X90166666Y-103078628D01*
X90166666Y-103078628D02*
X89785714Y-103078628D01*
X91309523Y-103554819D02*
X90738095Y-103554819D01*
X91023809Y-103554819D02*
X91023809Y-102554819D01*
X91023809Y-102554819D02*
X90928571Y-102697676D01*
X90928571Y-102697676D02*
X90833333Y-102792914D01*
X90833333Y-102792914D02*
X90738095Y-102840533D01*
X91928571Y-102554819D02*
X92023809Y-102554819D01*
X92023809Y-102554819D02*
X92119047Y-102602438D01*
X92119047Y-102602438D02*
X92166666Y-102650057D01*
X92166666Y-102650057D02*
X92214285Y-102745295D01*
X92214285Y-102745295D02*
X92261904Y-102935771D01*
X92261904Y-102935771D02*
X92261904Y-103173866D01*
X92261904Y-103173866D02*
X92214285Y-103364342D01*
X92214285Y-103364342D02*
X92166666Y-103459580D01*
X92166666Y-103459580D02*
X92119047Y-103507200D01*
X92119047Y-103507200D02*
X92023809Y-103554819D01*
X92023809Y-103554819D02*
X91928571Y-103554819D01*
X91928571Y-103554819D02*
X91833333Y-103507200D01*
X91833333Y-103507200D02*
X91785714Y-103459580D01*
X91785714Y-103459580D02*
X91738095Y-103364342D01*
X91738095Y-103364342D02*
X91690476Y-103173866D01*
X91690476Y-103173866D02*
X91690476Y-102935771D01*
X91690476Y-102935771D02*
X91738095Y-102745295D01*
X91738095Y-102745295D02*
X91785714Y-102650057D01*
X91785714Y-102650057D02*
X91833333Y-102602438D01*
X91833333Y-102602438D02*
X91928571Y-102554819D01*
X104694580Y-126666666D02*
X104742200Y-126714285D01*
X104742200Y-126714285D02*
X104789819Y-126857142D01*
X104789819Y-126857142D02*
X104789819Y-126952380D01*
X104789819Y-126952380D02*
X104742200Y-127095237D01*
X104742200Y-127095237D02*
X104646961Y-127190475D01*
X104646961Y-127190475D02*
X104551723Y-127238094D01*
X104551723Y-127238094D02*
X104361247Y-127285713D01*
X104361247Y-127285713D02*
X104218390Y-127285713D01*
X104218390Y-127285713D02*
X104027914Y-127238094D01*
X104027914Y-127238094D02*
X103932676Y-127190475D01*
X103932676Y-127190475D02*
X103837438Y-127095237D01*
X103837438Y-127095237D02*
X103789819Y-126952380D01*
X103789819Y-126952380D02*
X103789819Y-126857142D01*
X103789819Y-126857142D02*
X103837438Y-126714285D01*
X103837438Y-126714285D02*
X103885057Y-126666666D01*
X103789819Y-125761904D02*
X103789819Y-126238094D01*
X103789819Y-126238094D02*
X104266009Y-126285713D01*
X104266009Y-126285713D02*
X104218390Y-126238094D01*
X104218390Y-126238094D02*
X104170771Y-126142856D01*
X104170771Y-126142856D02*
X104170771Y-125904761D01*
X104170771Y-125904761D02*
X104218390Y-125809523D01*
X104218390Y-125809523D02*
X104266009Y-125761904D01*
X104266009Y-125761904D02*
X104361247Y-125714285D01*
X104361247Y-125714285D02*
X104599342Y-125714285D01*
X104599342Y-125714285D02*
X104694580Y-125761904D01*
X104694580Y-125761904D02*
X104742200Y-125809523D01*
X104742200Y-125809523D02*
X104789819Y-125904761D01*
X104789819Y-125904761D02*
X104789819Y-126142856D01*
X104789819Y-126142856D02*
X104742200Y-126238094D01*
X104742200Y-126238094D02*
X104694580Y-126285713D01*
X107954819Y-126442857D02*
X107478628Y-126776190D01*
X107954819Y-127014285D02*
X106954819Y-127014285D01*
X106954819Y-127014285D02*
X106954819Y-126633333D01*
X106954819Y-126633333D02*
X107002438Y-126538095D01*
X107002438Y-126538095D02*
X107050057Y-126490476D01*
X107050057Y-126490476D02*
X107145295Y-126442857D01*
X107145295Y-126442857D02*
X107288152Y-126442857D01*
X107288152Y-126442857D02*
X107383390Y-126490476D01*
X107383390Y-126490476D02*
X107431009Y-126538095D01*
X107431009Y-126538095D02*
X107478628Y-126633333D01*
X107478628Y-126633333D02*
X107478628Y-127014285D01*
X107954819Y-125490476D02*
X107954819Y-126061904D01*
X107954819Y-125776190D02*
X106954819Y-125776190D01*
X106954819Y-125776190D02*
X107097676Y-125871428D01*
X107097676Y-125871428D02*
X107192914Y-125966666D01*
X107192914Y-125966666D02*
X107240533Y-126061904D01*
X107954819Y-124538095D02*
X107954819Y-125109523D01*
X107954819Y-124823809D02*
X106954819Y-124823809D01*
X106954819Y-124823809D02*
X107097676Y-124919047D01*
X107097676Y-124919047D02*
X107192914Y-125014285D01*
X107192914Y-125014285D02*
X107240533Y-125109523D01*
X100333333Y-120459580D02*
X100285714Y-120507200D01*
X100285714Y-120507200D02*
X100142857Y-120554819D01*
X100142857Y-120554819D02*
X100047619Y-120554819D01*
X100047619Y-120554819D02*
X99904762Y-120507200D01*
X99904762Y-120507200D02*
X99809524Y-120411961D01*
X99809524Y-120411961D02*
X99761905Y-120316723D01*
X99761905Y-120316723D02*
X99714286Y-120126247D01*
X99714286Y-120126247D02*
X99714286Y-119983390D01*
X99714286Y-119983390D02*
X99761905Y-119792914D01*
X99761905Y-119792914D02*
X99809524Y-119697676D01*
X99809524Y-119697676D02*
X99904762Y-119602438D01*
X99904762Y-119602438D02*
X100047619Y-119554819D01*
X100047619Y-119554819D02*
X100142857Y-119554819D01*
X100142857Y-119554819D02*
X100285714Y-119602438D01*
X100285714Y-119602438D02*
X100333333Y-119650057D01*
X100809524Y-120554819D02*
X101000000Y-120554819D01*
X101000000Y-120554819D02*
X101095238Y-120507200D01*
X101095238Y-120507200D02*
X101142857Y-120459580D01*
X101142857Y-120459580D02*
X101238095Y-120316723D01*
X101238095Y-120316723D02*
X101285714Y-120126247D01*
X101285714Y-120126247D02*
X101285714Y-119745295D01*
X101285714Y-119745295D02*
X101238095Y-119650057D01*
X101238095Y-119650057D02*
X101190476Y-119602438D01*
X101190476Y-119602438D02*
X101095238Y-119554819D01*
X101095238Y-119554819D02*
X100904762Y-119554819D01*
X100904762Y-119554819D02*
X100809524Y-119602438D01*
X100809524Y-119602438D02*
X100761905Y-119650057D01*
X100761905Y-119650057D02*
X100714286Y-119745295D01*
X100714286Y-119745295D02*
X100714286Y-119983390D01*
X100714286Y-119983390D02*
X100761905Y-120078628D01*
X100761905Y-120078628D02*
X100809524Y-120126247D01*
X100809524Y-120126247D02*
X100904762Y-120173866D01*
X100904762Y-120173866D02*
X101095238Y-120173866D01*
X101095238Y-120173866D02*
X101190476Y-120126247D01*
X101190476Y-120126247D02*
X101238095Y-120078628D01*
X101238095Y-120078628D02*
X101285714Y-119983390D01*
D12*
X123104318Y-127399409D02*
X124011461Y-127399409D01*
X124011461Y-127399409D02*
X124192889Y-127459886D01*
X124192889Y-127459886D02*
X124313842Y-127580838D01*
X124313842Y-127580838D02*
X124374318Y-127762267D01*
X124374318Y-127762267D02*
X124374318Y-127883219D01*
X123225270Y-126855124D02*
X123164794Y-126794648D01*
X123164794Y-126794648D02*
X123104318Y-126673695D01*
X123104318Y-126673695D02*
X123104318Y-126371314D01*
X123104318Y-126371314D02*
X123164794Y-126250362D01*
X123164794Y-126250362D02*
X123225270Y-126189886D01*
X123225270Y-126189886D02*
X123346222Y-126129409D01*
X123346222Y-126129409D02*
X123467175Y-126129409D01*
X123467175Y-126129409D02*
X123648603Y-126189886D01*
X123648603Y-126189886D02*
X124374318Y-126915600D01*
X124374318Y-126915600D02*
X124374318Y-126129409D01*
X109060237Y-111874318D02*
X109060237Y-110604318D01*
X110390714Y-111753365D02*
X110330238Y-111813842D01*
X110330238Y-111813842D02*
X110148809Y-111874318D01*
X110148809Y-111874318D02*
X110027857Y-111874318D01*
X110027857Y-111874318D02*
X109846428Y-111813842D01*
X109846428Y-111813842D02*
X109725476Y-111692889D01*
X109725476Y-111692889D02*
X109664999Y-111571937D01*
X109664999Y-111571937D02*
X109604523Y-111330032D01*
X109604523Y-111330032D02*
X109604523Y-111148603D01*
X109604523Y-111148603D02*
X109664999Y-110906699D01*
X109664999Y-110906699D02*
X109725476Y-110785746D01*
X109725476Y-110785746D02*
X109846428Y-110664794D01*
X109846428Y-110664794D02*
X110027857Y-110604318D01*
X110027857Y-110604318D02*
X110148809Y-110604318D01*
X110148809Y-110604318D02*
X110330238Y-110664794D01*
X110330238Y-110664794D02*
X110390714Y-110725270D01*
X111600238Y-111874318D02*
X110874523Y-111874318D01*
X111237380Y-111874318D02*
X111237380Y-110604318D01*
X111237380Y-110604318D02*
X111116428Y-110785746D01*
X111116428Y-110785746D02*
X110995476Y-110906699D01*
X110995476Y-110906699D02*
X110874523Y-110967175D01*
D11*
X90808333Y-100094819D02*
X90475000Y-99618628D01*
X90236905Y-100094819D02*
X90236905Y-99094819D01*
X90236905Y-99094819D02*
X90617857Y-99094819D01*
X90617857Y-99094819D02*
X90713095Y-99142438D01*
X90713095Y-99142438D02*
X90760714Y-99190057D01*
X90760714Y-99190057D02*
X90808333Y-99285295D01*
X90808333Y-99285295D02*
X90808333Y-99428152D01*
X90808333Y-99428152D02*
X90760714Y-99523390D01*
X90760714Y-99523390D02*
X90713095Y-99571009D01*
X90713095Y-99571009D02*
X90617857Y-99618628D01*
X90617857Y-99618628D02*
X90236905Y-99618628D01*
X91379762Y-99523390D02*
X91284524Y-99475771D01*
X91284524Y-99475771D02*
X91236905Y-99428152D01*
X91236905Y-99428152D02*
X91189286Y-99332914D01*
X91189286Y-99332914D02*
X91189286Y-99285295D01*
X91189286Y-99285295D02*
X91236905Y-99190057D01*
X91236905Y-99190057D02*
X91284524Y-99142438D01*
X91284524Y-99142438D02*
X91379762Y-99094819D01*
X91379762Y-99094819D02*
X91570238Y-99094819D01*
X91570238Y-99094819D02*
X91665476Y-99142438D01*
X91665476Y-99142438D02*
X91713095Y-99190057D01*
X91713095Y-99190057D02*
X91760714Y-99285295D01*
X91760714Y-99285295D02*
X91760714Y-99332914D01*
X91760714Y-99332914D02*
X91713095Y-99428152D01*
X91713095Y-99428152D02*
X91665476Y-99475771D01*
X91665476Y-99475771D02*
X91570238Y-99523390D01*
X91570238Y-99523390D02*
X91379762Y-99523390D01*
X91379762Y-99523390D02*
X91284524Y-99571009D01*
X91284524Y-99571009D02*
X91236905Y-99618628D01*
X91236905Y-99618628D02*
X91189286Y-99713866D01*
X91189286Y-99713866D02*
X91189286Y-99904342D01*
X91189286Y-99904342D02*
X91236905Y-99999580D01*
X91236905Y-99999580D02*
X91284524Y-100047200D01*
X91284524Y-100047200D02*
X91379762Y-100094819D01*
X91379762Y-100094819D02*
X91570238Y-100094819D01*
X91570238Y-100094819D02*
X91665476Y-100047200D01*
X91665476Y-100047200D02*
X91713095Y-99999580D01*
X91713095Y-99999580D02*
X91760714Y-99904342D01*
X91760714Y-99904342D02*
X91760714Y-99713866D01*
X91760714Y-99713866D02*
X91713095Y-99618628D01*
X91713095Y-99618628D02*
X91665476Y-99571009D01*
X91665476Y-99571009D02*
X91570238Y-99523390D01*
X109633333Y-104954819D02*
X109300000Y-104478628D01*
X109061905Y-104954819D02*
X109061905Y-103954819D01*
X109061905Y-103954819D02*
X109442857Y-103954819D01*
X109442857Y-103954819D02*
X109538095Y-104002438D01*
X109538095Y-104002438D02*
X109585714Y-104050057D01*
X109585714Y-104050057D02*
X109633333Y-104145295D01*
X109633333Y-104145295D02*
X109633333Y-104288152D01*
X109633333Y-104288152D02*
X109585714Y-104383390D01*
X109585714Y-104383390D02*
X109538095Y-104431009D01*
X109538095Y-104431009D02*
X109442857Y-104478628D01*
X109442857Y-104478628D02*
X109061905Y-104478628D01*
X110014286Y-104050057D02*
X110061905Y-104002438D01*
X110061905Y-104002438D02*
X110157143Y-103954819D01*
X110157143Y-103954819D02*
X110395238Y-103954819D01*
X110395238Y-103954819D02*
X110490476Y-104002438D01*
X110490476Y-104002438D02*
X110538095Y-104050057D01*
X110538095Y-104050057D02*
X110585714Y-104145295D01*
X110585714Y-104145295D02*
X110585714Y-104240533D01*
X110585714Y-104240533D02*
X110538095Y-104383390D01*
X110538095Y-104383390D02*
X109966667Y-104954819D01*
X109966667Y-104954819D02*
X110585714Y-104954819D01*
X102633333Y-135554819D02*
X102300000Y-135078628D01*
X102061905Y-135554819D02*
X102061905Y-134554819D01*
X102061905Y-134554819D02*
X102442857Y-134554819D01*
X102442857Y-134554819D02*
X102538095Y-134602438D01*
X102538095Y-134602438D02*
X102585714Y-134650057D01*
X102585714Y-134650057D02*
X102633333Y-134745295D01*
X102633333Y-134745295D02*
X102633333Y-134888152D01*
X102633333Y-134888152D02*
X102585714Y-134983390D01*
X102585714Y-134983390D02*
X102538095Y-135031009D01*
X102538095Y-135031009D02*
X102442857Y-135078628D01*
X102442857Y-135078628D02*
X102061905Y-135078628D01*
X103490476Y-134888152D02*
X103490476Y-135554819D01*
X103252381Y-134507200D02*
X103014286Y-135221485D01*
X103014286Y-135221485D02*
X103633333Y-135221485D01*
X86161905Y-103504819D02*
X86161905Y-102504819D01*
X86161905Y-102504819D02*
X86400000Y-102504819D01*
X86400000Y-102504819D02*
X86542857Y-102552438D01*
X86542857Y-102552438D02*
X86638095Y-102647676D01*
X86638095Y-102647676D02*
X86685714Y-102742914D01*
X86685714Y-102742914D02*
X86733333Y-102933390D01*
X86733333Y-102933390D02*
X86733333Y-103076247D01*
X86733333Y-103076247D02*
X86685714Y-103266723D01*
X86685714Y-103266723D02*
X86638095Y-103361961D01*
X86638095Y-103361961D02*
X86542857Y-103457200D01*
X86542857Y-103457200D02*
X86400000Y-103504819D01*
X86400000Y-103504819D02*
X86161905Y-103504819D01*
X87066667Y-102504819D02*
X87685714Y-102504819D01*
X87685714Y-102504819D02*
X87352381Y-102885771D01*
X87352381Y-102885771D02*
X87495238Y-102885771D01*
X87495238Y-102885771D02*
X87590476Y-102933390D01*
X87590476Y-102933390D02*
X87638095Y-102981009D01*
X87638095Y-102981009D02*
X87685714Y-103076247D01*
X87685714Y-103076247D02*
X87685714Y-103314342D01*
X87685714Y-103314342D02*
X87638095Y-103409580D01*
X87638095Y-103409580D02*
X87590476Y-103457200D01*
X87590476Y-103457200D02*
X87495238Y-103504819D01*
X87495238Y-103504819D02*
X87209524Y-103504819D01*
X87209524Y-103504819D02*
X87114286Y-103457200D01*
X87114286Y-103457200D02*
X87066667Y-103409580D01*
X109633333Y-102854819D02*
X109300000Y-102378628D01*
X109061905Y-102854819D02*
X109061905Y-101854819D01*
X109061905Y-101854819D02*
X109442857Y-101854819D01*
X109442857Y-101854819D02*
X109538095Y-101902438D01*
X109538095Y-101902438D02*
X109585714Y-101950057D01*
X109585714Y-101950057D02*
X109633333Y-102045295D01*
X109633333Y-102045295D02*
X109633333Y-102188152D01*
X109633333Y-102188152D02*
X109585714Y-102283390D01*
X109585714Y-102283390D02*
X109538095Y-102331009D01*
X109538095Y-102331009D02*
X109442857Y-102378628D01*
X109442857Y-102378628D02*
X109061905Y-102378628D01*
X110538095Y-101854819D02*
X110061905Y-101854819D01*
X110061905Y-101854819D02*
X110014286Y-102331009D01*
X110014286Y-102331009D02*
X110061905Y-102283390D01*
X110061905Y-102283390D02*
X110157143Y-102235771D01*
X110157143Y-102235771D02*
X110395238Y-102235771D01*
X110395238Y-102235771D02*
X110490476Y-102283390D01*
X110490476Y-102283390D02*
X110538095Y-102331009D01*
X110538095Y-102331009D02*
X110585714Y-102426247D01*
X110585714Y-102426247D02*
X110585714Y-102664342D01*
X110585714Y-102664342D02*
X110538095Y-102759580D01*
X110538095Y-102759580D02*
X110490476Y-102807200D01*
X110490476Y-102807200D02*
X110395238Y-102854819D01*
X110395238Y-102854819D02*
X110157143Y-102854819D01*
X110157143Y-102854819D02*
X110061905Y-102807200D01*
X110061905Y-102807200D02*
X110014286Y-102759580D01*
%TO.C,J3*%
D13*
X121390000Y-107760000D02*
X121390000Y-106340000D01*
X133110000Y-107760000D02*
X121390000Y-107760000D01*
X121390000Y-106340000D02*
X125890000Y-106340000D01*
X125890000Y-106340000D02*
X125890000Y-103950000D01*
X121700000Y-105500000D02*
X121700000Y-104900000D01*
X122300000Y-105200000D02*
X121700000Y-105500000D01*
X121700000Y-104900000D02*
X122300000Y-105200000D01*
X133110000Y-103950000D02*
X133110000Y-107760000D01*
X133110000Y-103950000D02*
X133110000Y-100140000D01*
X121390000Y-101560000D02*
X125890000Y-101560000D01*
X125890000Y-101560000D02*
X125890000Y-103950000D01*
X121390000Y-100140000D02*
X121390000Y-101560000D01*
X133110000Y-100140000D02*
X121390000Y-100140000D01*
X127000000Y-104950000D02*
X132500000Y-104950000D01*
X132500000Y-105450000D01*
X127000000Y-105450000D01*
X127000000Y-104950000D01*
X127000000Y-102450000D02*
X132500000Y-102450000D01*
X132500000Y-102950000D01*
X127000000Y-102950000D01*
X127000000Y-102450000D01*
%TO.C,D1*%
X85015000Y-100280000D02*
X85015000Y-102200000D01*
X85015000Y-102200000D02*
X87875000Y-102200000D01*
X87875000Y-100280000D02*
X85015000Y-100280000D01*
%TO.C,C7*%
X96165000Y-116061252D02*
X96165000Y-115538748D01*
X97635000Y-116061252D02*
X97635000Y-115538748D01*
%TO.C,R13*%
X110762064Y-123096077D02*
X110307936Y-123096077D01*
X110762064Y-121626077D02*
X110307936Y-121626077D01*
%TO.C,R7*%
X95827064Y-111435000D02*
X95372936Y-111435000D01*
X95827064Y-109965000D02*
X95372936Y-109965000D01*
%TO.C,U2*%
X107367500Y-114057500D02*
X108607500Y-114057500D01*
X108607500Y-114057500D02*
X108607500Y-112817500D01*
X99747500Y-113817500D02*
X99747500Y-102097500D01*
X108367500Y-113817500D02*
X99747500Y-113817500D01*
X99747500Y-102097500D02*
X108367500Y-102097500D01*
X108367500Y-102097500D02*
X108367500Y-113817500D01*
%TO.C,C8*%
X103138748Y-117365000D02*
X103661252Y-117365000D01*
X103138748Y-118835000D02*
X103661252Y-118835000D01*
%TO.C,D2*%
X85040000Y-107200000D02*
X85040000Y-109120000D01*
X85040000Y-109120000D02*
X87900000Y-109120000D01*
X87900000Y-107200000D02*
X85040000Y-107200000D01*
%TO.C,C10*%
X97875000Y-103840113D02*
X97875000Y-104340113D01*
X98125000Y-104090113D02*
X97625000Y-104090113D01*
X98980000Y-106644888D02*
X97440000Y-106644888D01*
X95360000Y-106644888D02*
X93820000Y-106644888D01*
X98980000Y-106684888D02*
X97440000Y-106684888D01*
X95360000Y-106684888D02*
X93820000Y-106684888D01*
X98979000Y-106724888D02*
X97440000Y-106724888D01*
X95360000Y-106724888D02*
X93821000Y-106724888D01*
X98977000Y-106764888D02*
X97440000Y-106764888D01*
X95360000Y-106764888D02*
X93823000Y-106764888D01*
X98975000Y-106804888D02*
X97440000Y-106804888D01*
X95360000Y-106804888D02*
X93825000Y-106804888D01*
X98972000Y-106844888D02*
X97440000Y-106844888D01*
X95360000Y-106844888D02*
X93828000Y-106844888D01*
X98969000Y-106884888D02*
X97440000Y-106884888D01*
X95360000Y-106884888D02*
X93831000Y-106884888D01*
X98965000Y-106924888D02*
X97440000Y-106924888D01*
X95360000Y-106924888D02*
X93835000Y-106924888D01*
X98960000Y-106964888D02*
X97440000Y-106964888D01*
X95360000Y-106964888D02*
X93840000Y-106964888D01*
X98955000Y-107004888D02*
X97440000Y-107004888D01*
X95360000Y-107004888D02*
X93845000Y-107004888D01*
X98949000Y-107044888D02*
X97440000Y-107044888D01*
X95360000Y-107044888D02*
X93851000Y-107044888D01*
X98943000Y-107084888D02*
X97440000Y-107084888D01*
X95360000Y-107084888D02*
X93857000Y-107084888D01*
X98936000Y-107124888D02*
X97440000Y-107124888D01*
X95360000Y-107124888D02*
X93864000Y-107124888D01*
X98928000Y-107164888D02*
X97440000Y-107164888D01*
X95360000Y-107164888D02*
X93872000Y-107164888D01*
X98919000Y-107204888D02*
X97440000Y-107204888D01*
X95360000Y-107204888D02*
X93881000Y-107204888D01*
X98910000Y-107244888D02*
X97440000Y-107244888D01*
X95360000Y-107244888D02*
X93890000Y-107244888D01*
X98901000Y-107284888D02*
X97440000Y-107284888D01*
X95360000Y-107284888D02*
X93899000Y-107284888D01*
X98890000Y-107324888D02*
X97440000Y-107324888D01*
X95360000Y-107324888D02*
X93910000Y-107324888D01*
X98879000Y-107364888D02*
X97440000Y-107364888D01*
X95360000Y-107364888D02*
X93921000Y-107364888D01*
X98867000Y-107404888D02*
X97440000Y-107404888D01*
X95360000Y-107404888D02*
X93933000Y-107404888D01*
X98855000Y-107444888D02*
X97440000Y-107444888D01*
X95360000Y-107444888D02*
X93945000Y-107444888D01*
X98842000Y-107484888D02*
X97440000Y-107484888D01*
X95360000Y-107484888D02*
X93958000Y-107484888D01*
X98828000Y-107524888D02*
X97440000Y-107524888D01*
X95360000Y-107524888D02*
X93972000Y-107524888D01*
X98813000Y-107564888D02*
X97440000Y-107564888D01*
X95360000Y-107564888D02*
X93987000Y-107564888D01*
X98798000Y-107604888D02*
X97440000Y-107604888D01*
X95360000Y-107604888D02*
X94002000Y-107604888D01*
X98782000Y-107644888D02*
X97440000Y-107644888D01*
X95360000Y-107644888D02*
X94018000Y-107644888D01*
X98765000Y-107684888D02*
X97440000Y-107684888D01*
X95360000Y-107684888D02*
X94035000Y-107684888D01*
X98747000Y-107724888D02*
X97440000Y-107724888D01*
X95360000Y-107724888D02*
X94053000Y-107724888D01*
X98729000Y-107764888D02*
X97440000Y-107764888D01*
X95360000Y-107764888D02*
X94071000Y-107764888D01*
X98709000Y-107804888D02*
X97440000Y-107804888D01*
X95360000Y-107804888D02*
X94091000Y-107804888D01*
X98689000Y-107844888D02*
X97440000Y-107844888D01*
X95360000Y-107844888D02*
X94111000Y-107844888D01*
X98668000Y-107884888D02*
X97440000Y-107884888D01*
X95360000Y-107884888D02*
X94132000Y-107884888D01*
X98646000Y-107924888D02*
X97440000Y-107924888D01*
X95360000Y-107924888D02*
X94154000Y-107924888D01*
X98623000Y-107964888D02*
X97440000Y-107964888D01*
X95360000Y-107964888D02*
X94177000Y-107964888D01*
X98599000Y-108004888D02*
X97440000Y-108004888D01*
X95360000Y-108004888D02*
X94201000Y-108004888D01*
X98575000Y-108044888D02*
X97440000Y-108044888D01*
X95360000Y-108044888D02*
X94225000Y-108044888D01*
X98549000Y-108084888D02*
X97440000Y-108084888D01*
X95360000Y-108084888D02*
X94251000Y-108084888D01*
X98522000Y-108124888D02*
X97440000Y-108124888D01*
X95360000Y-108124888D02*
X94278000Y-108124888D01*
X98494000Y-108164888D02*
X97440000Y-108164888D01*
X95360000Y-108164888D02*
X94306000Y-108164888D01*
X98465000Y-108204888D02*
X97440000Y-108204888D01*
X95360000Y-108204888D02*
X94335000Y-108204888D01*
X98435000Y-108244888D02*
X97440000Y-108244888D01*
X95360000Y-108244888D02*
X94365000Y-108244888D01*
X98403000Y-108284888D02*
X97440000Y-108284888D01*
X95360000Y-108284888D02*
X94397000Y-108284888D01*
X98370000Y-108324888D02*
X97440000Y-108324888D01*
X95360000Y-108324888D02*
X94430000Y-108324888D01*
X98336000Y-108364888D02*
X97440000Y-108364888D01*
X95360000Y-108364888D02*
X94464000Y-108364888D01*
X98301000Y-108404888D02*
X97440000Y-108404888D01*
X95360000Y-108404888D02*
X94499000Y-108404888D01*
X98264000Y-108444888D02*
X97440000Y-108444888D01*
X95360000Y-108444888D02*
X94536000Y-108444888D01*
X98225000Y-108484888D02*
X97440000Y-108484888D01*
X95360000Y-108484888D02*
X94575000Y-108484888D01*
X98185000Y-108524888D02*
X97440000Y-108524888D01*
X95360000Y-108524888D02*
X94615000Y-108524888D01*
X98143000Y-108564888D02*
X97440000Y-108564888D01*
X95360000Y-108564888D02*
X94657000Y-108564888D01*
X98099000Y-108604888D02*
X97440000Y-108604888D01*
X95360000Y-108604888D02*
X94701000Y-108604888D01*
X98052000Y-108644888D02*
X97440000Y-108644888D01*
X95360000Y-108644888D02*
X94748000Y-108644888D01*
X98004000Y-108684888D02*
X94796000Y-108684888D01*
X97953000Y-108724888D02*
X94847000Y-108724888D01*
X97899000Y-108764888D02*
X94901000Y-108764888D01*
X97843000Y-108804888D02*
X94957000Y-108804888D01*
X97783000Y-108844888D02*
X95017000Y-108844888D01*
X97719000Y-108884888D02*
X95081000Y-108884888D01*
X97651000Y-108924888D02*
X95149000Y-108924888D01*
X97577000Y-108964888D02*
X95223000Y-108964888D01*
X97498000Y-109004888D02*
X95302000Y-109004888D01*
X97411000Y-109044888D02*
X95389000Y-109044888D01*
X97314000Y-109084888D02*
X95486000Y-109084888D01*
X97205000Y-109124888D02*
X95595000Y-109124888D01*
X97077000Y-109164888D02*
X95723000Y-109164888D01*
X96917000Y-109204888D02*
X95883000Y-109204888D01*
X96683000Y-109244888D02*
X96117000Y-109244888D01*
X99020000Y-106644888D02*
G75*
G02*
X93780000Y-106644888I-2620000J0D01*
G01*
X93780000Y-106644888D02*
G75*
G02*
X99020000Y-106644888I2620000J0D01*
G01*
%TO.C,R9*%
X91227064Y-108935000D02*
X90772936Y-108935000D01*
X91227064Y-107465000D02*
X90772936Y-107465000D01*
%TO.C,J4*%
D14*
X87790000Y-119876077D02*
X99160000Y-119876077D01*
X99160000Y-119876077D02*
X99160000Y-134076077D01*
X99160000Y-134076077D02*
X87790000Y-134076077D01*
X83790000Y-119876077D02*
X80620000Y-119876077D01*
X80620000Y-119876077D02*
X80620000Y-134076077D01*
X80620000Y-134076077D02*
X83790000Y-134076077D01*
X84560000Y-119036077D02*
X83290000Y-119036077D01*
X83290000Y-119036077D02*
X83290000Y-119876077D01*
X84490000Y-134916077D02*
X83290000Y-134916077D01*
X83290000Y-134916077D02*
X83290000Y-134076077D01*
D10*
D15*
X95100000Y-118776077D02*
X95099999Y-118776077D01*
X95099999Y-118776077D01*
X95099999Y-118776077D01*
X95099999Y-118776077D01*
X95099999Y-118776077D01*
X95099999Y-118776077D01*
X95099999Y-118776077D01*
X95099999Y-118776076D01*
X95099999Y-118776076D01*
X95099999Y-118776076D01*
X95099999Y-118776076D01*
X95099999Y-118776076D01*
X95100000Y-118776076D01*
X95100000Y-118776076D01*
X95100000Y-118776076D01*
X95100000Y-118776076D01*
X95100000Y-118776076D01*
X95100000Y-118776076D01*
X95100000Y-118776076D01*
X95100000Y-118776076D01*
X95100000Y-118776076D01*
X95100000Y-118776076D01*
X95100000Y-118776076D01*
X95100000Y-118776076D01*
X95100001Y-118776076D01*
X95100001Y-118776076D01*
X95100001Y-118776076D01*
X95100001Y-118776076D01*
X95100001Y-118776076D01*
X95100001Y-118776076D01*
X95100001Y-118776077D01*
X95100001Y-118776077D01*
X95100001Y-118776077D01*
X95100001Y-118776077D01*
X95100001Y-118776077D01*
X95100001Y-118776077D01*
X95100001Y-118776077D01*
X95100000Y-118776077D01*
X95100000Y-118776077D02*
X95100001Y-118776077D01*
X95100001Y-118776077D01*
X95100001Y-118776077D01*
X95100001Y-118776077D01*
X95100001Y-118776077D01*
X95100001Y-118776077D01*
X95100001Y-118776078D01*
X95100001Y-118776078D01*
X95100001Y-118776078D01*
X95100001Y-118776078D01*
X95100001Y-118776078D01*
X95100001Y-118776078D01*
X95100001Y-118776078D01*
X95100000Y-118776078D01*
X95100000Y-118776078D01*
X95100000Y-118776078D01*
X95100000Y-118776078D01*
X95100000Y-118776078D01*
X95100000Y-118776078D01*
X95100000Y-118776078D01*
X95100000Y-118776078D01*
X95100000Y-118776078D01*
X95100000Y-118776078D01*
X95100000Y-118776078D01*
X95100000Y-118776078D01*
X95099999Y-118776078D01*
X95099999Y-118776078D01*
X95099999Y-118776078D01*
X95099999Y-118776078D01*
X95099999Y-118776078D01*
X95099999Y-118776078D01*
X95099999Y-118776077D01*
X95099999Y-118776077D01*
X95099999Y-118776077D01*
X95099999Y-118776077D01*
X95099999Y-118776077D01*
X95099999Y-118776077D01*
X95100000Y-118776077D01*
D10*
D15*
X95100000Y-118676077D02*
X95099999Y-118676077D01*
X95099999Y-118676077D01*
X95099999Y-118676077D01*
X95099999Y-118676077D01*
X95099999Y-118676077D01*
X95099999Y-118676077D01*
X95099999Y-118676077D01*
X95099999Y-118676076D01*
X95099999Y-118676076D01*
X95099999Y-118676076D01*
X95099999Y-118676076D01*
X95099999Y-118676076D01*
X95100000Y-118676076D01*
X95100000Y-118676076D01*
X95100000Y-118676076D01*
X95100000Y-118676076D01*
X95100000Y-118676076D01*
X95100000Y-118676076D01*
X95100000Y-118676076D01*
X95100000Y-118676076D01*
X95100000Y-118676076D01*
X95100000Y-118676076D01*
X95100000Y-118676076D01*
X95100000Y-118676076D01*
X95100001Y-118676076D01*
X95100001Y-118676076D01*
X95100001Y-118676076D01*
X95100001Y-118676076D01*
X95100001Y-118676076D01*
X95100001Y-118676076D01*
X95100001Y-118676077D01*
X95100001Y-118676077D01*
X95100001Y-118676077D01*
X95100001Y-118676077D01*
X95100001Y-118676077D01*
X95100001Y-118676077D01*
X95100001Y-118676077D01*
X95100000Y-118676077D01*
X95100000Y-118676077D02*
X95100001Y-118676077D01*
X95100001Y-118676077D01*
X95100001Y-118676077D01*
X95100001Y-118676077D01*
X95100001Y-118676077D01*
X95100001Y-118676077D01*
X95100001Y-118676078D01*
X95100001Y-118676078D01*
X95100001Y-118676078D01*
X95100001Y-118676078D01*
X95100001Y-118676078D01*
X95100001Y-118676078D01*
X95100001Y-118676078D01*
X95100000Y-118676078D01*
X95100000Y-118676078D01*
X95100000Y-118676078D01*
X95100000Y-118676078D01*
X95100000Y-118676078D01*
X95100000Y-118676078D01*
X95100000Y-118676078D01*
X95100000Y-118676078D01*
X95100000Y-118676078D01*
X95100000Y-118676078D01*
X95100000Y-118676078D01*
X95100000Y-118676078D01*
X95099999Y-118676078D01*
X95099999Y-118676078D01*
X95099999Y-118676078D01*
X95099999Y-118676078D01*
X95099999Y-118676078D01*
X95099999Y-118676078D01*
X95099999Y-118676077D01*
X95099999Y-118676077D01*
X95099999Y-118676077D01*
X95099999Y-118676077D01*
X95099999Y-118676077D01*
X95099999Y-118676077D01*
X95100000Y-118676077D01*
D10*
X95100000Y-118676077D02*
G75*
G02*
X95100000Y-118776077I0J-50000D01*
G01*
X95100000Y-118776077D02*
G75*
G02*
X95100000Y-118676077I0J50000D01*
G01*
%TO.C,R1*%
D13*
X116192000Y-109827064D02*
X116192000Y-106772936D01*
X118912000Y-109827064D02*
X118912000Y-106772936D01*
%TO.C,R3*%
X105927064Y-133735000D02*
X105472936Y-133735000D01*
X105927064Y-132265000D02*
X105472936Y-132265000D01*
%TO.C,IC3*%
D14*
X108083000Y-133959077D02*
X108083000Y-130763077D01*
X108083000Y-130763077D02*
X112987000Y-130763077D01*
X112987000Y-130763077D02*
X112987000Y-133959077D01*
X112987000Y-133959077D02*
X108083000Y-133959077D01*
X107955000Y-135836077D02*
X107955000Y-134309077D01*
%TO.C,C4*%
D13*
X94065000Y-116061252D02*
X94065000Y-115538748D01*
X95535000Y-116061252D02*
X95535000Y-115538748D01*
%TO.C,C6*%
X107170000Y-129138748D02*
X107170000Y-129661252D01*
X105700000Y-129138748D02*
X105700000Y-129661252D01*
%TO.C,IC2*%
D14*
X93252000Y-112357000D02*
X93252000Y-115553000D01*
X93252000Y-115553000D02*
X88348000Y-115553000D01*
X88348000Y-115553000D02*
X88348000Y-112357000D01*
X88348000Y-112357000D02*
X93252000Y-112357000D01*
X93380000Y-110480000D02*
X93380000Y-112007000D01*
%TO.C,J1*%
D13*
X121390000Y-116660000D02*
X121390000Y-115240000D01*
X133110000Y-116660000D02*
X121390000Y-116660000D01*
X121390000Y-115240000D02*
X125890000Y-115240000D01*
X125890000Y-115240000D02*
X125890000Y-112850000D01*
X121700000Y-114400000D02*
X121700000Y-113800000D01*
X122300000Y-114100000D02*
X121700000Y-114400000D01*
X121700000Y-113800000D02*
X122300000Y-114100000D01*
X133110000Y-112850000D02*
X133110000Y-116660000D01*
X133110000Y-112850000D02*
X133110000Y-109040000D01*
X121390000Y-110460000D02*
X125890000Y-110460000D01*
X125890000Y-110460000D02*
X125890000Y-112850000D01*
X121390000Y-109040000D02*
X121390000Y-110460000D01*
X133110000Y-109040000D02*
X121390000Y-109040000D01*
X127000000Y-113850000D02*
X132500000Y-113850000D01*
X132500000Y-114350000D01*
X127000000Y-114350000D01*
X127000000Y-113850000D01*
X127000000Y-111350000D02*
X132500000Y-111350000D01*
X132500000Y-111850000D01*
X127000000Y-111850000D01*
X127000000Y-111350000D01*
%TO.C,D4*%
D14*
X109035000Y-120986077D02*
X109035000Y-119736077D01*
X109085000Y-119386077D02*
X109085000Y-119336077D01*
X111985000Y-119386077D02*
X109085000Y-119386077D01*
X109085000Y-119336077D02*
X111985000Y-119336077D01*
X111985000Y-119336077D02*
X111985000Y-119386077D01*
%TO.C,R12*%
D13*
X110825000Y-126688141D02*
X110825000Y-125234013D01*
X112645000Y-126688141D02*
X112645000Y-125234013D01*
%TO.C,R6*%
X95372936Y-112065000D02*
X95827064Y-112065000D01*
X95372936Y-113535000D02*
X95827064Y-113535000D01*
%TO.C,C3*%
X113690748Y-110765000D02*
X114213252Y-110765000D01*
X113690748Y-112235000D02*
X114213252Y-112235000D01*
%TO.C,R10*%
X91227064Y-105435000D02*
X90772936Y-105435000D01*
X91227064Y-103965000D02*
X90772936Y-103965000D01*
%TO.C,C5*%
X105070000Y-129138748D02*
X105070000Y-129661252D01*
X103600000Y-129138748D02*
X103600000Y-129661252D01*
%TO.C,R11*%
X108425000Y-126688141D02*
X108425000Y-125234013D01*
X110245000Y-126688141D02*
X110245000Y-125234013D01*
%TO.C,C9*%
X103138748Y-119465000D02*
X103661252Y-119465000D01*
X103138748Y-120935000D02*
X103661252Y-120935000D01*
%TO.C,J2*%
D14*
X125900000Y-134076077D02*
X114530000Y-134076077D01*
X114530000Y-134076077D02*
X114530000Y-119876077D01*
X114530000Y-119876077D02*
X125900000Y-119876077D01*
X129900000Y-134076077D02*
X133070000Y-134076077D01*
X133070000Y-134076077D02*
X133070000Y-119876077D01*
X133070000Y-119876077D02*
X129900000Y-119876077D01*
X129130000Y-134916077D02*
X130400000Y-134916077D01*
X130400000Y-134916077D02*
X130400000Y-134076077D01*
X129200000Y-119036077D02*
X130400000Y-119036077D01*
X130400000Y-119036077D02*
X130400000Y-119876077D01*
D10*
D15*
X118590000Y-135176077D02*
X118589999Y-135176077D01*
X118589999Y-135176077D01*
X118589999Y-135176077D01*
X118589999Y-135176077D01*
X118589999Y-135176077D01*
X118589999Y-135176077D01*
X118589999Y-135176077D01*
X118589999Y-135176076D01*
X118589999Y-135176076D01*
X118589999Y-135176076D01*
X118589999Y-135176076D01*
X118589999Y-135176076D01*
X118590000Y-135176076D01*
X118590000Y-135176076D01*
X118590000Y-135176076D01*
X118590000Y-135176076D01*
X118590000Y-135176076D01*
X118590000Y-135176076D01*
X118590000Y-135176076D01*
X118590000Y-135176076D01*
X118590000Y-135176076D01*
X118590000Y-135176076D01*
X118590000Y-135176076D01*
X118590000Y-135176076D01*
X118590001Y-135176076D01*
X118590001Y-135176076D01*
X118590001Y-135176076D01*
X118590001Y-135176076D01*
X118590001Y-135176076D01*
X118590001Y-135176076D01*
X118590001Y-135176077D01*
X118590001Y-135176077D01*
X118590001Y-135176077D01*
X118590001Y-135176077D01*
X118590001Y-135176077D01*
X118590001Y-135176077D01*
X118590001Y-135176077D01*
X118590000Y-135176077D01*
X118590000Y-135176077D02*
X118590001Y-135176077D01*
X118590001Y-135176077D01*
X118590001Y-135176077D01*
X118590001Y-135176077D01*
X118590001Y-135176077D01*
X118590001Y-135176077D01*
X118590001Y-135176078D01*
X118590001Y-135176078D01*
X118590001Y-135176078D01*
X118590001Y-135176078D01*
X118590001Y-135176078D01*
X118590001Y-135176078D01*
X118590001Y-135176078D01*
X118590000Y-135176078D01*
X118590000Y-135176078D01*
X118590000Y-135176078D01*
X118590000Y-135176078D01*
X118590000Y-135176078D01*
X118590000Y-135176078D01*
X118590000Y-135176078D01*
X118590000Y-135176078D01*
X118590000Y-135176078D01*
X118590000Y-135176078D01*
X118590000Y-135176078D01*
X118590000Y-135176078D01*
X118589999Y-135176078D01*
X118589999Y-135176078D01*
X118589999Y-135176078D01*
X118589999Y-135176078D01*
X118589999Y-135176078D01*
X118589999Y-135176078D01*
X118589999Y-135176077D01*
X118589999Y-135176077D01*
X118589999Y-135176077D01*
X118589999Y-135176077D01*
X118589999Y-135176077D01*
X118589999Y-135176077D01*
X118590000Y-135176077D01*
D10*
D15*
X118590000Y-135276077D02*
X118589999Y-135276077D01*
X118589999Y-135276077D01*
X118589999Y-135276077D01*
X118589999Y-135276077D01*
X118589999Y-135276077D01*
X118589999Y-135276077D01*
X118589999Y-135276077D01*
X118589999Y-135276076D01*
X118589999Y-135276076D01*
X118589999Y-135276076D01*
X118589999Y-135276076D01*
X118589999Y-135276076D01*
X118590000Y-135276076D01*
X118590000Y-135276076D01*
X118590000Y-135276076D01*
X118590000Y-135276076D01*
X118590000Y-135276076D01*
X118590000Y-135276076D01*
X118590000Y-135276076D01*
X118590000Y-135276076D01*
X118590000Y-135276076D01*
X118590000Y-135276076D01*
X118590000Y-135276076D01*
X118590000Y-135276076D01*
X118590001Y-135276076D01*
X118590001Y-135276076D01*
X118590001Y-135276076D01*
X118590001Y-135276076D01*
X118590001Y-135276076D01*
X118590001Y-135276076D01*
X118590001Y-135276077D01*
X118590001Y-135276077D01*
X118590001Y-135276077D01*
X118590001Y-135276077D01*
X118590001Y-135276077D01*
X118590001Y-135276077D01*
X118590001Y-135276077D01*
X118590000Y-135276077D01*
X118590000Y-135276077D02*
X118590001Y-135276077D01*
X118590001Y-135276077D01*
X118590001Y-135276077D01*
X118590001Y-135276077D01*
X118590001Y-135276077D01*
X118590001Y-135276077D01*
X118590001Y-135276078D01*
X118590001Y-135276078D01*
X118590001Y-135276078D01*
X118590001Y-135276078D01*
X118590001Y-135276078D01*
X118590001Y-135276078D01*
X118590001Y-135276078D01*
X118590000Y-135276078D01*
X118590000Y-135276078D01*
X118590000Y-135276078D01*
X118590000Y-135276078D01*
X118590000Y-135276078D01*
X118590000Y-135276078D01*
X118590000Y-135276078D01*
X118590000Y-135276078D01*
X118590000Y-135276078D01*
X118590000Y-135276078D01*
X118590000Y-135276078D01*
X118590000Y-135276078D01*
X118589999Y-135276078D01*
X118589999Y-135276078D01*
X118589999Y-135276078D01*
X118589999Y-135276078D01*
X118589999Y-135276078D01*
X118589999Y-135276078D01*
X118589999Y-135276077D01*
X118589999Y-135276077D01*
X118589999Y-135276077D01*
X118589999Y-135276077D01*
X118589999Y-135276077D01*
X118589999Y-135276077D01*
X118590000Y-135276077D01*
D10*
X118590000Y-135276077D02*
G75*
G02*
X118590000Y-135176077I0J50000D01*
G01*
X118590000Y-135176077D02*
G75*
G02*
X118590000Y-135276077I0J-50000D01*
G01*
%TO.C,IC1*%
D14*
X111602000Y-107100000D02*
X113902000Y-107100000D01*
X113902000Y-107100000D02*
X113902000Y-110100000D01*
X113902000Y-110100000D02*
X111602000Y-110100000D01*
X111602000Y-110100000D02*
X111602000Y-107100000D01*
X109852000Y-107100000D02*
X111252000Y-107100000D01*
%TO.C,R8*%
D13*
X91202064Y-101975000D02*
X90747936Y-101975000D01*
X91202064Y-100505000D02*
X90747936Y-100505000D01*
%TO.C,R2*%
X112372936Y-103765000D02*
X112827064Y-103765000D01*
X112372936Y-105235000D02*
X112827064Y-105235000D01*
%TO.C,R4*%
X105472936Y-134365000D02*
X105927064Y-134365000D01*
X105472936Y-135835000D02*
X105927064Y-135835000D01*
%TO.C,D3*%
X85040000Y-103740000D02*
X85040000Y-105660000D01*
X85040000Y-105660000D02*
X87900000Y-105660000D01*
X87900000Y-103740000D02*
X85040000Y-103740000D01*
%TO.C,R5*%
X112372936Y-101665000D02*
X112827064Y-101665000D01*
X112372936Y-103135000D02*
X112827064Y-103135000D01*
%TD*%
M02*
