%TF.GenerationSoftware,KiCad,Pcbnew,10.0.1*%
%TF.CreationDate,2026-07-11T21:18:00-07:00*%
%TF.ProjectId,tile,74696c65-2e6b-4696-9361-645f70636258,rev?*%
%TF.SameCoordinates,Original*%
%TF.FileFunction,Copper,L1,Top*%
%TF.FilePolarity,Positive*%
%FSLAX46Y46*%
G04 Gerber Fmt 4.6, Leading zero omitted, Abs format (unit mm)*
G04 Created by KiCad (PCBNEW 10.0.1) date 2026-07-11 21:18:00*
%MOMM*%
%LPD*%
G01*
G04 APERTURE LIST*
G04 Aperture macros list*
%AMRoundRect*
0 Rectangle with rounded corners*
0 $1 Rounding radius*
0 $2 $3 $4 $5 $6 $7 $8 $9 X,Y pos of 4 corners*
0 Add a 4 corners polygon primitive as box body*
4,1,4,$2,$3,$4,$5,$6,$7,$8,$9,$2,$3,0*
0 Add four circle primitives for the rounded corners*
1,1,$1+$1,$2,$3*
1,1,$1+$1,$4,$5*
1,1,$1+$1,$6,$7*
1,1,$1+$1,$8,$9*
0 Add four rect primitives between the rounded corners*
20,1,$1+$1,$2,$3,$4,$5,0*
20,1,$1+$1,$4,$5,$6,$7,0*
20,1,$1+$1,$6,$7,$8,$9,0*
20,1,$1+$1,$8,$9,$2,$3,0*%
G04 Aperture macros list end*
%TA.AperFunction,SMDPad,CuDef*%
%ADD10RoundRect,0.250000X0.475000X-0.337500X0.475000X0.337500X-0.475000X0.337500X-0.475000X-0.337500X0*%
%TD*%
%TA.AperFunction,SMDPad,CuDef*%
%ADD11R,3.300000X1.800000*%
%TD*%
%TA.AperFunction,SMDPad,CuDef*%
%ADD12R,1.250000X0.600000*%
%TD*%
%TA.AperFunction,SMDPad,CuDef*%
%ADD13RoundRect,0.250000X-0.337500X-0.475000X0.337500X-0.475000X0.337500X0.475000X-0.337500X0.475000X0*%
%TD*%
%TA.AperFunction,SMDPad,CuDef*%
%ADD14RoundRect,0.250000X-0.450000X0.350000X-0.450000X-0.350000X0.450000X-0.350000X0.450000X0.350000X0*%
%TD*%
%TA.AperFunction,SMDPad,CuDef*%
%ADD15R,1.528000X0.650000*%
%TD*%
%TA.AperFunction,ComponentPad*%
%ADD16R,1.700000X1.700000*%
%TD*%
%TA.AperFunction,ComponentPad*%
%ADD17C,1.700000*%
%TD*%
%TA.AperFunction,SMDPad,CuDef*%
%ADD18RoundRect,0.250000X0.350000X0.450000X-0.350000X0.450000X-0.350000X-0.450000X0.350000X-0.450000X0*%
%TD*%
%TA.AperFunction,ComponentPad*%
%ADD19C,1.600000*%
%TD*%
%TA.AperFunction,ComponentPad*%
%ADD20RoundRect,0.250000X-0.600000X-0.750000X0.600000X-0.750000X0.600000X0.750000X-0.600000X0.750000X0*%
%TD*%
%TA.AperFunction,ComponentPad*%
%ADD21O,1.700000X2.000000*%
%TD*%
%TA.AperFunction,ViaPad*%
%ADD22C,0.600000*%
%TD*%
%TA.AperFunction,Conductor*%
%ADD23C,0.500000*%
%TD*%
%TA.AperFunction,Conductor*%
%ADD24C,0.200000*%
%TD*%
%TA.AperFunction,Conductor*%
%ADD25C,1.400000*%
%TD*%
%TA.AperFunction,Conductor*%
%ADD26C,1.000000*%
%TD*%
G04 APERTURE END LIST*
D10*
%TO.P,C6,1*%
%TO.N,+5V*%
X152700000Y-80637500D03*
%TO.P,C6,2*%
%TO.N,GND*%
X152700000Y-78562500D03*
%TD*%
D11*
%TO.P,C7,1,+_1*%
%TO.N,+12V*%
X151000000Y-91375000D03*
%TO.P,C7,2,-_2*%
%TO.N,GND*%
X146600000Y-91375000D03*
%TD*%
D12*
%TO.P,PS1,1,OUT_1*%
%TO.N,+5V*%
X158132500Y-83150000D03*
%TO.P,PS1,2,IN_2*%
%TO.N,+12V*%
X158132500Y-85050000D03*
%TO.P,PS1,3,GND_3*%
%TO.N,GND*%
X160232500Y-84100000D03*
%TD*%
D13*
%TO.P,C1,1*%
%TO.N,+12V*%
X158100000Y-87100000D03*
%TO.P,C1,2*%
%TO.N,GND*%
X160175000Y-87100000D03*
%TD*%
D14*
%TO.P,R1,1*%
%TO.N,/XDIR*%
X147300000Y-84800000D03*
%TO.P,R1,2*%
%TO.N,GND*%
X147300000Y-86800000D03*
%TD*%
D10*
%TO.P,C5,1*%
%TO.N,+5V*%
X154700000Y-80637500D03*
%TO.P,C5,2*%
%TO.N,GND*%
X154700000Y-78562500D03*
%TD*%
D14*
%TO.P,R3,1*%
%TO.N,/LED_Data*%
X145300000Y-84800000D03*
%TO.P,R3,2*%
%TO.N,Net-(J1-Pin_2)*%
X145300000Y-86800000D03*
%TD*%
D15*
%TO.P,IC1,1,R_1*%
%TO.N,/RxD*%
X149389000Y-82695000D03*
%TO.P,IC1,2,~{RE}_2*%
%TO.N,/XDIR*%
X149389000Y-83965000D03*
%TO.P,IC1,3,DE_3*%
X149389000Y-85235000D03*
%TO.P,IC1,4,D_4*%
%TO.N,/TxD*%
X149389000Y-86505000D03*
%TO.P,IC1,5,GND_5*%
%TO.N,GND*%
X154811000Y-86505000D03*
%TO.P,IC1,6,A_6*%
%TO.N,/TRCV-A*%
X154811000Y-85235000D03*
%TO.P,IC1,7,B_7*%
%TO.N,/TRCV-B*%
X154811000Y-83965000D03*
%TO.P,IC1,8,VCC_8*%
%TO.N,+5V*%
X154811000Y-82695000D03*
%TD*%
D16*
%TO.P,J1,1,Pin_1_1*%
%TO.N,+12V*%
X142500000Y-93500000D03*
D17*
%TO.P,J1,2,Pin_2_2*%
%TO.N,Net-(J1-Pin_2)*%
X142500000Y-90960000D03*
%TO.P,J1,3,Pin_3_3*%
%TO.N,GND*%
X142500000Y-88420000D03*
%TD*%
D18*
%TO.P,R2,1*%
%TO.N,+5V*%
X150700000Y-80200000D03*
%TO.P,R2,2*%
%TO.N,/RxD*%
X148700000Y-80200000D03*
%TD*%
D13*
%TO.P,C2,1*%
%TO.N,+5V*%
X158100000Y-81100000D03*
%TO.P,C2,2*%
%TO.N,GND*%
X160175000Y-81100000D03*
%TD*%
D19*
%TO.P,J6,1,Pin_1_1*%
%TO.N,/TRCV-A*%
X148740000Y-73060000D03*
%TO.P,J6,2,Pin_2_2*%
%TO.N,/TRCV-B*%
X149760000Y-75600000D03*
%TO.P,J6,3,Pin_3_3*%
%TO.N,/TRCV-A*%
X150780000Y-73060000D03*
%TO.P,J6,4,Pin_4_4*%
%TO.N,/TRCV-B*%
X151800000Y-75600000D03*
%TO.P,J6,5,Pin_5_5*%
%TO.N,/SENSE_IN*%
X152820000Y-73060000D03*
%TO.P,J6,6,Pin_6_6*%
%TO.N,GND*%
X153840000Y-75600000D03*
%TO.P,J6,7,Pin_7_7*%
%TO.N,/SENSE_OUT*%
X154860000Y-73060000D03*
%TO.P,J6,8,Pin_8_8*%
%TO.N,GND*%
X155880000Y-75600000D03*
%TD*%
D16*
%TO.P,J2,1,Pin_1_1*%
%TO.N,+5V*%
X142500000Y-79560000D03*
D17*
%TO.P,J2,2,Pin_2_2*%
%TO.N,/UDPI_Data*%
X142500000Y-82100000D03*
%TO.P,J2,3,Pin_3_3*%
%TO.N,GND*%
X142500000Y-84640000D03*
%TD*%
D20*
%TO.P,J5,1,Pin_1_1*%
%TO.N,+12V*%
X156350000Y-91375000D03*
D21*
%TO.P,J5,2,Pin_2_2*%
%TO.N,GND*%
X158850000Y-91375000D03*
%TD*%
D22*
%TO.N,+5V*%
X157000000Y-65900000D03*
%TO.N,/RxD*%
X156600000Y-69000000D03*
%TO.N,/TxD*%
X156500000Y-69800000D03*
%TO.N,/XDIR*%
X150800000Y-70500000D03*
%TO.N,/UDPI_Data*%
X147900000Y-68500000D03*
%TO.N,/LED_Data*%
X150892892Y-68107108D03*
%TO.N,GND*%
X159700000Y-85500000D03*
X159700000Y-82900000D03*
X160700000Y-82900000D03*
X147600000Y-66800000D03*
X160700000Y-85500000D03*
X145400000Y-90100000D03*
X153700000Y-86500000D03*
X147800000Y-90100000D03*
X146600000Y-90100000D03*
%TD*%
%TO.N,+5V*%
D23*
X143900000Y-65900000D02*
X142500000Y-67300000D01*
X158100000Y-81100000D02*
X157637500Y-80637500D01*
X142500000Y-67300000D02*
X142500000Y-79560000D01*
X154700000Y-82584000D02*
X154811000Y-82695000D01*
X157637500Y-80637500D02*
X154700000Y-80637500D01*
X157000000Y-65900000D02*
X143900000Y-65900000D01*
D24*
X152262500Y-80200000D02*
X152700000Y-80637500D01*
X150700000Y-80200000D02*
X152262500Y-80200000D01*
D23*
X154700000Y-80637500D02*
X152700000Y-80637500D01*
D24*
X143160000Y-78900000D02*
X142500000Y-79560000D01*
D23*
X158100000Y-65900000D02*
X157000000Y-65900000D01*
X154700000Y-80637500D02*
X154700000Y-82584000D01*
X158100000Y-81100000D02*
X158100000Y-65900000D01*
%TO.N,/RxD*%
D24*
X157100000Y-72375635D02*
X157100000Y-69500000D01*
X149389000Y-80889000D02*
X148700000Y-80200000D01*
X148660000Y-80160000D02*
X148660000Y-75144365D01*
X149644365Y-74160000D02*
X155315635Y-74160000D01*
X157100000Y-69500000D02*
X156600000Y-69000000D01*
X148660000Y-75144365D02*
X149644365Y-74160000D01*
X148700000Y-80200000D02*
X148660000Y-80160000D01*
X155315635Y-74160000D02*
X157100000Y-72375635D01*
X149389000Y-82695000D02*
X149389000Y-80889000D01*
%TO.N,/TxD*%
X149165686Y-69800000D02*
X156500000Y-69800000D01*
X146615256Y-85700000D02*
X146300000Y-85384744D01*
X148145000Y-85700000D02*
X146615256Y-85700000D01*
X149389000Y-86505000D02*
X148950000Y-86505000D01*
X146300000Y-72665686D02*
X149165686Y-69800000D01*
X146300000Y-84215256D02*
X146300000Y-72665686D01*
X146300000Y-85384744D02*
X146300000Y-84215256D01*
X148950000Y-86505000D02*
X148145000Y-85700000D01*
%TO.N,/XDIR*%
X149389000Y-85235000D02*
X149389000Y-83965000D01*
X147735000Y-85235000D02*
X147300000Y-84800000D01*
X149744365Y-70500000D02*
X150800000Y-70500000D01*
X147400000Y-72844365D02*
X149744365Y-70500000D01*
X147400000Y-82865685D02*
X147400000Y-72844365D01*
X148499314Y-83965000D02*
X147400000Y-82865685D01*
X149389000Y-83965000D02*
X148499314Y-83965000D01*
X149389000Y-85235000D02*
X147735000Y-85235000D01*
%TO.N,/UDPI_Data*%
X144900000Y-72833747D02*
X147900000Y-69833747D01*
X147900000Y-69833747D02*
X147900000Y-68500000D01*
X142500000Y-82100000D02*
X144900000Y-79700000D01*
X144900000Y-79700000D02*
X144900000Y-72833747D01*
%TO.N,/LED_Data*%
X145300000Y-84800000D02*
X145300000Y-73100000D01*
X150292892Y-68107108D02*
X150892892Y-68107108D01*
X145300000Y-73100000D02*
X150292892Y-68107108D01*
%TO.N,GND*%
X154811000Y-86505000D02*
X153705000Y-86505000D01*
X147300000Y-89600000D02*
X147800000Y-90100000D01*
X147300000Y-86800000D02*
X147300000Y-89600000D01*
X154700000Y-78562500D02*
X152700000Y-78562500D01*
X154700000Y-78562500D02*
X154700000Y-76460000D01*
X154700000Y-76460000D02*
X153840000Y-75600000D01*
X153705000Y-86505000D02*
X153700000Y-86500000D01*
%TO.N,+12V*%
D25*
X156350000Y-91375000D02*
X154225000Y-93500000D01*
X156350000Y-91375000D02*
X151000000Y-91375000D01*
D26*
X158100000Y-89625000D02*
X156350000Y-91375000D01*
X158100000Y-87100000D02*
X158100000Y-89625000D01*
D25*
X154225000Y-93500000D02*
X142500000Y-93500000D01*
%TO.N,/TRCV-A*%
D24*
X148420000Y-83320000D02*
X147800000Y-82700000D01*
X148740000Y-73060000D02*
X150780000Y-73060000D01*
X154811000Y-85235000D02*
X152348000Y-85235000D01*
X150433000Y-83320000D02*
X148420000Y-83320000D01*
X147800000Y-82700000D02*
X147800000Y-74000000D01*
X152348000Y-85235000D02*
X150433000Y-83320000D01*
X147800000Y-74000000D02*
X148740000Y-73060000D01*
%TO.N,/TRCV-B*%
X154811000Y-83965000D02*
X152880256Y-83965000D01*
X151800000Y-75600000D02*
X149760000Y-75600000D01*
X151675000Y-75725000D02*
X151800000Y-75600000D01*
X149800000Y-80884744D02*
X149800000Y-75640000D01*
X149800000Y-75640000D02*
X149760000Y-75600000D01*
X152880256Y-83965000D02*
X149800000Y-80884744D01*
%TO.N,Net-(J1-Pin_2)*%
X145300000Y-88160000D02*
X145300000Y-86800000D01*
X142500000Y-90960000D02*
X145300000Y-88160000D01*
%TD*%
%TA.AperFunction,Conductor*%
%TO.N,+12V*%
G36*
X158836291Y-84719685D02*
G01*
X158882046Y-84772489D01*
X158893252Y-84824000D01*
X158893252Y-87956000D01*
X158873567Y-88023039D01*
X158820763Y-88068794D01*
X158769252Y-88080000D01*
X157399330Y-88080000D01*
X157399325Y-88079999D01*
X157399323Y-88080000D01*
X157364389Y-88074975D01*
X157349390Y-88070570D01*
X157290644Y-88032827D01*
X157290615Y-88032793D01*
X157290614Y-88032793D01*
X157290613Y-88032791D01*
X157289457Y-88031458D01*
X157261977Y-87976583D01*
X157260332Y-87969021D01*
X157257500Y-87942668D01*
X157257500Y-84841829D01*
X157262523Y-84806893D01*
X157266927Y-84791895D01*
X157304672Y-84733144D01*
X157304700Y-84733119D01*
X157304699Y-84733119D01*
X157306041Y-84731956D01*
X157360920Y-84704477D01*
X157368479Y-84702833D01*
X157394832Y-84700000D01*
X158769252Y-84700000D01*
X158836291Y-84719685D01*
G37*
%TD.AperFunction*%
%TD*%
%TA.AperFunction,Conductor*%
%TO.N,+5V*%
G36*
X158836291Y-80139685D02*
G01*
X158882046Y-80192489D01*
X158893252Y-80244000D01*
X158893252Y-83576000D01*
X158873567Y-83643039D01*
X158820763Y-83688794D01*
X158769252Y-83700000D01*
X157399330Y-83700000D01*
X157399325Y-83699999D01*
X157399323Y-83700000D01*
X157364389Y-83694975D01*
X157349390Y-83690570D01*
X157290644Y-83652827D01*
X157290615Y-83652793D01*
X157290614Y-83652793D01*
X157290613Y-83652791D01*
X157289457Y-83651458D01*
X157261977Y-83596583D01*
X157260332Y-83589021D01*
X157257500Y-83562668D01*
X157257500Y-80261829D01*
X157262523Y-80226893D01*
X157266927Y-80211895D01*
X157304672Y-80153144D01*
X157304700Y-80153119D01*
X157304699Y-80153119D01*
X157306041Y-80151956D01*
X157360920Y-80124477D01*
X157368479Y-80122833D01*
X157394832Y-80120000D01*
X158769252Y-80120000D01*
X158836291Y-80139685D01*
G37*
%TD.AperFunction*%
%TD*%
%TA.AperFunction,Conductor*%
%TO.N,GND*%
G36*
X160960539Y-80139685D02*
G01*
X161006294Y-80192489D01*
X161017500Y-80244000D01*
X161017500Y-87956000D01*
X160997815Y-88023039D01*
X160945011Y-88068794D01*
X160893500Y-88080000D01*
X159522752Y-88080000D01*
X159455713Y-88060315D01*
X159409958Y-88007511D01*
X159398752Y-87956000D01*
X159398752Y-80244000D01*
X159418437Y-80176961D01*
X159471241Y-80131206D01*
X159522752Y-80120000D01*
X160893500Y-80120000D01*
X160960539Y-80139685D01*
G37*
%TD.AperFunction*%
%TD*%
%TA.AperFunction,Conductor*%
%TO.N,GND*%
G36*
X148243039Y-89819685D02*
G01*
X148288794Y-89872489D01*
X148300000Y-89924000D01*
X148300000Y-92175500D01*
X148280315Y-92242539D01*
X148227511Y-92288294D01*
X148176000Y-92299500D01*
X145024000Y-92299500D01*
X144956961Y-92279815D01*
X144911206Y-92227011D01*
X144900000Y-92175500D01*
X144900000Y-89924000D01*
X144919685Y-89856961D01*
X144972489Y-89811206D01*
X145024000Y-89800000D01*
X148176000Y-89800000D01*
X148243039Y-89819685D01*
G37*
%TD.AperFunction*%
%TD*%
M02*
