%TF.GenerationSoftware,KiCad,Pcbnew,10.0.1*%
%TF.CreationDate,2026-07-11T21:18:00-07:00*%
%TF.ProjectId,tile,74696c65-2e6b-4696-9361-645f70636258,rev?*%
%TF.SameCoordinates,Original*%
%TF.FileFunction,Copper,L2,Bot*%
%TF.FilePolarity,Positive*%
%FSLAX46Y46*%
G04 Gerber Fmt 4.6, Leading zero omitted, Abs format (unit mm)*
G04 Created by KiCad (PCBNEW 10.0.1) date 2026-07-11 21:18:00*
%MOMM*%
%LPD*%
G01*
G04 APERTURE LIST*
G04 Aperture macros list*
%AMRoundRect*
0 Rectangle with rounded corners*
0 $1 Rounding radius*
0 $2 $3 $4 $5 $6 $7 $8 $9 X,Y pos of 4 corners*
0 Add a 4 corners polygon primitive as box body*
4,1,4,$2,$3,$4,$5,$6,$7,$8,$9,$2,$3,0*
0 Add four circle primitives for the rounded corners*
1,1,$1+$1,$2,$3*
1,1,$1+$1,$4,$5*
1,1,$1+$1,$6,$7*
1,1,$1+$1,$8,$9*
0 Add four rect primitives between the rounded corners*
20,1,$1+$1,$2,$3,$4,$5,0*
20,1,$1+$1,$4,$5,$6,$7,0*
20,1,$1+$1,$6,$7,$8,$9,0*
20,1,$1+$1,$8,$9,$2,$3,0*%
G04 Aperture macros list end*
%TA.AperFunction,ComponentPad*%
%ADD10R,1.700000X1.700000*%
%TD*%
%TA.AperFunction,ComponentPad*%
%ADD11C,1.700000*%
%TD*%
%TA.AperFunction,ComponentPad*%
%ADD12C,1.600000*%
%TD*%
%TA.AperFunction,ComponentPad*%
%ADD13RoundRect,0.250000X-0.600000X-0.750000X0.600000X-0.750000X0.600000X0.750000X-0.600000X0.750000X0*%
%TD*%
%TA.AperFunction,ComponentPad*%
%ADD14O,1.700000X2.000000*%
%TD*%
%TA.AperFunction,SMDPad,CuDef*%
%ADD15RoundRect,0.100000X0.637500X0.100000X-0.637500X0.100000X-0.637500X-0.100000X0.637500X-0.100000X0*%
%TD*%
%TA.AperFunction,SMDPad,CuDef*%
%ADD16RoundRect,0.250000X-0.475000X0.337500X-0.475000X-0.337500X0.475000X-0.337500X0.475000X0.337500X0*%
%TD*%
%TA.AperFunction,ViaPad*%
%ADD17C,0.600000*%
%TD*%
%TA.AperFunction,Conductor*%
%ADD18C,0.400000*%
%TD*%
%TA.AperFunction,Conductor*%
%ADD19C,0.500000*%
%TD*%
%TA.AperFunction,Conductor*%
%ADD20C,0.200000*%
%TD*%
G04 APERTURE END LIST*
D10*
%TO.P,J1,1,Pin_1_1*%
%TO.N,+12V*%
X142500000Y-93500000D03*
D11*
%TO.P,J1,2,Pin_2_2*%
%TO.N,Net-(J1-Pin_2)*%
X142500000Y-90960000D03*
%TO.P,J1,3,Pin_3_3*%
%TO.N,GND*%
X142500000Y-88420000D03*
%TD*%
D12*
%TO.P,J6,1,Pin_1_1*%
%TO.N,/TRCV-A*%
X148740000Y-73060000D03*
%TO.P,J6,2,Pin_2_2*%
%TO.N,/TRCV-B*%
X149760000Y-75600000D03*
%TO.P,J6,3,Pin_3_3*%
%TO.N,/TRCV-A*%
X150780000Y-73060000D03*
%TO.P,J6,4,Pin_4_4*%
%TO.N,/TRCV-B*%
X151800000Y-75600000D03*
%TO.P,J6,5,Pin_5_5*%
%TO.N,/SENSE_IN*%
X152820000Y-73060000D03*
%TO.P,J6,6,Pin_6_6*%
%TO.N,GND*%
X153840000Y-75600000D03*
%TO.P,J6,7,Pin_7_7*%
%TO.N,/SENSE_OUT*%
X154860000Y-73060000D03*
%TO.P,J6,8,Pin_8_8*%
%TO.N,GND*%
X155880000Y-75600000D03*
%TD*%
D10*
%TO.P,J2,1,Pin_1_1*%
%TO.N,+5V*%
X142500000Y-79560000D03*
D11*
%TO.P,J2,2,Pin_2_2*%
%TO.N,/UDPI_Data*%
X142500000Y-82100000D03*
%TO.P,J2,3,Pin_3_3*%
%TO.N,GND*%
X142500000Y-84640000D03*
%TD*%
D13*
%TO.P,J5,1,Pin_1_1*%
%TO.N,+12V*%
X156350000Y-91375000D03*
D14*
%TO.P,J5,2,Pin_2_2*%
%TO.N,GND*%
X158850000Y-91375000D03*
%TD*%
D15*
%TO.P,U1,1,VCC_1*%
%TO.N,+5V*%
X155262500Y-65850000D03*
%TO.P,U1,2,PA4_2*%
%TO.N,unconnected-(U1-PA4-Pad2)*%
X155262500Y-66500000D03*
%TO.P,U1,3,PA5_3*%
%TO.N,unconnected-(U1-PA5-Pad3)*%
X155262500Y-67150000D03*
%TO.P,U1,4,PA6_4*%
%TO.N,unconnected-(U1-PA6-Pad4)*%
X155262500Y-67800000D03*
%TO.P,U1,5,PA7_5*%
%TO.N,unconnected-(U1-PA7-Pad5)*%
X155262500Y-68450000D03*
%TO.P,U1,6,PB3_6*%
%TO.N,/RxD*%
X155262500Y-69100000D03*
%TO.P,U1,7,PB2_7*%
%TO.N,/TxD*%
X155262500Y-69750000D03*
%TO.P,U1,8,PB1_8*%
%TO.N,unconnected-(U1-PB1-Pad8)*%
X149537500Y-69750000D03*
%TO.P,U1,9,PB0_9*%
%TO.N,/XDIR*%
X149537500Y-69100000D03*
%TO.P,U1,10,~{RESET}/PA0_10*%
%TO.N,/UDPI_Data*%
X149537500Y-68450000D03*
%TO.P,U1,11,PA1_11*%
%TO.N,/LED_Data*%
X149537500Y-67800000D03*
%TO.P,U1,12,PA2_12*%
%TO.N,/SENSE_IN*%
X149537500Y-67150000D03*
%TO.P,U1,13,PA3_13*%
%TO.N,/SENSE_OUT*%
X149537500Y-66500000D03*
%TO.P,U1,14,GND_14*%
%TO.N,GND*%
X149537500Y-65850000D03*
%TD*%
D16*
%TO.P,C4,1*%
%TO.N,+5V*%
X160200000Y-65862500D03*
%TO.P,C4,2*%
%TO.N,GND*%
X160200000Y-67937500D03*
%TD*%
%TO.P,C3,1*%
%TO.N,+5V*%
X158100000Y-65862500D03*
%TO.P,C3,2*%
%TO.N,GND*%
X158100000Y-67937500D03*
%TD*%
D17*
%TO.N,+5V*%
X157000000Y-65900000D03*
%TO.N,/RxD*%
X156600000Y-69000000D03*
%TO.N,/TxD*%
X156500000Y-69800000D03*
%TO.N,/XDIR*%
X150800000Y-70500000D03*
%TO.N,/UDPI_Data*%
X147900000Y-68500000D03*
%TO.N,/LED_Data*%
X150892892Y-68107108D03*
%TO.N,GND*%
X159700000Y-85500000D03*
X159700000Y-82900000D03*
X160700000Y-82900000D03*
X147600000Y-66800000D03*
X160700000Y-85500000D03*
X145400000Y-90100000D03*
X153700000Y-86500000D03*
X147800000Y-90100000D03*
X146600000Y-90100000D03*
%TD*%
%TO.N,+5V*%
D18*
X158100000Y-65862500D02*
X157037500Y-65862500D01*
D19*
X157000000Y-65900000D02*
X156950000Y-65850000D01*
D18*
X160200000Y-65862500D02*
X158100000Y-65862500D01*
X156950000Y-65850000D02*
X155262500Y-65850000D01*
X157037500Y-65862500D02*
X157000000Y-65900000D01*
%TO.N,/RxD*%
D20*
X156600000Y-69000000D02*
X155362500Y-69000000D01*
X155362500Y-69000000D02*
X155262500Y-69100000D01*
%TO.N,/TxD*%
X155312500Y-69800000D02*
X155262500Y-69750000D01*
X156500000Y-69800000D02*
X155312500Y-69800000D01*
%TO.N,/XDIR*%
X150800000Y-70500000D02*
X150800000Y-69625001D01*
X150800000Y-69625001D02*
X150274999Y-69100000D01*
X150274999Y-69100000D02*
X149537500Y-69100000D01*
%TO.N,/UDPI_Data*%
X147900000Y-68500000D02*
X149487500Y-68500000D01*
X149487500Y-68500000D02*
X149537500Y-68450000D01*
%TO.N,/LED_Data*%
X150892892Y-68107108D02*
X150585784Y-67800000D01*
X150585784Y-67800000D02*
X149537500Y-67800000D01*
%TO.N,/SENSE_IN*%
X150784314Y-67150000D02*
X152820000Y-69185686D01*
X152820000Y-69185686D02*
X152820000Y-73060000D01*
X149537500Y-67150000D02*
X150784314Y-67150000D01*
%TO.N,/SENSE_OUT*%
X150700000Y-66500000D02*
X154860000Y-70660000D01*
X154860000Y-70660000D02*
X154860000Y-73060000D01*
X149537500Y-66500000D02*
X150700000Y-66500000D01*
%TO.N,GND*%
X147600000Y-66300000D02*
X148050000Y-65850000D01*
X148050000Y-65850000D02*
X149537500Y-65850000D01*
X147600000Y-66800000D02*
X147600000Y-66300000D01*
%TD*%
%TA.AperFunction,Conductor*%
%TO.N,GND*%
G36*
X148380955Y-65220185D02*
G01*
X148426710Y-65272989D01*
X148436654Y-65342147D01*
X148412291Y-65399987D01*
X148375901Y-65447409D01*
X148375900Y-65447412D01*
X148315444Y-65593368D01*
X148307987Y-65650000D01*
X148525697Y-65650000D01*
X148551016Y-65657434D01*
X148577138Y-65661174D01*
X148584012Y-65667123D01*
X148592736Y-65669685D01*
X148610014Y-65689625D01*
X148629971Y-65706896D01*
X148632538Y-65715619D01*
X148638491Y-65722489D01*
X148642246Y-65748606D01*
X148649697Y-65773923D01*
X148647141Y-65782647D01*
X148648435Y-65791647D01*
X148637472Y-65815651D01*
X148630054Y-65840975D01*
X148621815Y-65849935D01*
X148619410Y-65855203D01*
X148606958Y-65867662D01*
X148598701Y-65874824D01*
X148597159Y-65875464D01*
X148471718Y-65971718D01*
X148441239Y-66011438D01*
X148431761Y-66019662D01*
X148410940Y-66029186D01*
X148392447Y-66042690D01*
X148374634Y-66045794D01*
X148368223Y-66048727D01*
X148362503Y-66047908D01*
X148350500Y-66050000D01*
X148307990Y-66050000D01*
X148307988Y-66050001D01*
X148315441Y-66106622D01*
X148315445Y-66106634D01*
X148323837Y-66126895D01*
X148331304Y-66196364D01*
X148323838Y-66221794D01*
X148314956Y-66243238D01*
X148314955Y-66243239D01*
X148299500Y-66360638D01*
X148299500Y-66639363D01*
X148314953Y-66756753D01*
X148314957Y-66756765D01*
X148323566Y-66777550D01*
X148331033Y-66847019D01*
X148323566Y-66872450D01*
X148314957Y-66893234D01*
X148314955Y-66893239D01*
X148299500Y-67010638D01*
X148299500Y-67289363D01*
X148314953Y-67406753D01*
X148314957Y-67406765D01*
X148323566Y-67427550D01*
X148331033Y-67497019D01*
X148330506Y-67499763D01*
X148328125Y-67511444D01*
X148314956Y-67543238D01*
X148302749Y-67635954D01*
X148301879Y-67640227D01*
X148287491Y-67667420D01*
X148275049Y-67695546D01*
X148271303Y-67698016D01*
X148269204Y-67701985D01*
X148242394Y-67717084D01*
X148216724Y-67734017D01*
X148212236Y-67734070D01*
X148208326Y-67736273D01*
X148177613Y-67734482D01*
X148146860Y-67734848D01*
X148139355Y-67732251D01*
X148138575Y-67732206D01*
X148137987Y-67731778D01*
X148134409Y-67730539D01*
X148133500Y-67730264D01*
X148133497Y-67730263D01*
X148133492Y-67730262D01*
X148133489Y-67730261D01*
X147978845Y-67699500D01*
X147978842Y-67699500D01*
X147821158Y-67699500D01*
X147821155Y-67699500D01*
X147666510Y-67730261D01*
X147666498Y-67730264D01*
X147520827Y-67790602D01*
X147520814Y-67790609D01*
X147389711Y-67878210D01*
X147389707Y-67878213D01*
X147278213Y-67989707D01*
X147278210Y-67989711D01*
X147190609Y-68120814D01*
X147190602Y-68120827D01*
X147130264Y-68266498D01*
X147130261Y-68266510D01*
X147099500Y-68421153D01*
X147099500Y-68578846D01*
X147130261Y-68733489D01*
X147130264Y-68733501D01*
X147190602Y-68879172D01*
X147190609Y-68879185D01*
X147278210Y-69010288D01*
X147278213Y-69010292D01*
X147389707Y-69121786D01*
X147389711Y-69121789D01*
X147520814Y-69209390D01*
X147520827Y-69209397D01*
X147634041Y-69256291D01*
X147666503Y-69269737D01*
X147821153Y-69300499D01*
X147821156Y-69300500D01*
X147821158Y-69300500D01*
X147978844Y-69300500D01*
X147978845Y-69300499D01*
X148133497Y-69269737D01*
X148145409Y-69264802D01*
X148214877Y-69257334D01*
X148277356Y-69288609D01*
X148309763Y-69338012D01*
X148314102Y-69350280D01*
X148314956Y-69356762D01*
X148324815Y-69380564D01*
X148325906Y-69383648D01*
X148327635Y-69415411D01*
X148331033Y-69447019D01*
X148329619Y-69451834D01*
X148329705Y-69453414D01*
X148328567Y-69455414D01*
X148323566Y-69472450D01*
X148314957Y-69493234D01*
X148314955Y-69493239D01*
X148299500Y-69610638D01*
X148299500Y-69889363D01*
X148314953Y-70006753D01*
X148314956Y-70006762D01*
X148375464Y-70152841D01*
X148471718Y-70278282D01*
X148597159Y-70374536D01*
X148743238Y-70435044D01*
X148860639Y-70450500D01*
X149875500Y-70450499D01*
X149942539Y-70470183D01*
X149988294Y-70522987D01*
X149999500Y-70574499D01*
X149999500Y-70578846D01*
X150030261Y-70733489D01*
X150030264Y-70733501D01*
X150090602Y-70879172D01*
X150090609Y-70879185D01*
X150178210Y-71010288D01*
X150178213Y-71010292D01*
X150289707Y-71121786D01*
X150289711Y-71121789D01*
X150420814Y-71209390D01*
X150420827Y-71209397D01*
X150514529Y-71248209D01*
X150566503Y-71269737D01*
X150721153Y-71300499D01*
X150721156Y-71300500D01*
X150721158Y-71300500D01*
X150878844Y-71300500D01*
X150878845Y-71300499D01*
X151033497Y-71269737D01*
X151179179Y-71209394D01*
X151310289Y-71121789D01*
X151421789Y-71010289D01*
X151509394Y-70879179D01*
X151569737Y-70733497D01*
X151600500Y-70578842D01*
X151600500Y-70421158D01*
X151600500Y-70421155D01*
X151600499Y-70421153D01*
X151578447Y-70310292D01*
X151569737Y-70266503D01*
X151533569Y-70179185D01*
X151509397Y-70120827D01*
X151509390Y-70120814D01*
X151421398Y-69989125D01*
X151415747Y-69971078D01*
X151405523Y-69955169D01*
X151401071Y-69924207D01*
X151400520Y-69922447D01*
X151400500Y-69920234D01*
X151400500Y-69714061D01*
X151400501Y-69714048D01*
X151400501Y-69545945D01*
X151400501Y-69545944D01*
X151359577Y-69393217D01*
X151327705Y-69338012D01*
X151280524Y-69256291D01*
X151280518Y-69256283D01*
X151098295Y-69074060D01*
X151064810Y-69012737D01*
X151069794Y-68943045D01*
X151111666Y-68887112D01*
X151138513Y-68871822D01*
X151272071Y-68816502D01*
X151384984Y-68741056D01*
X151451661Y-68720178D01*
X151519041Y-68738662D01*
X151541556Y-68756477D01*
X152183181Y-69398102D01*
X152216666Y-69459425D01*
X152219500Y-69485783D01*
X152219500Y-71830397D01*
X152199815Y-71897436D01*
X152151800Y-71940879D01*
X152138389Y-71947712D01*
X151972786Y-72068028D01*
X151972782Y-72068032D01*
X151887681Y-72153134D01*
X151826358Y-72186619D01*
X151756666Y-72181635D01*
X151712319Y-72153134D01*
X151627213Y-72068028D01*
X151461613Y-71947715D01*
X151461612Y-71947714D01*
X151461610Y-71947713D01*
X151404653Y-71918691D01*
X151279223Y-71854781D01*
X151084534Y-71791522D01*
X150909995Y-71763878D01*
X150882352Y-71759500D01*
X150677648Y-71759500D01*
X150653329Y-71763351D01*
X150475465Y-71791522D01*
X150280776Y-71854781D01*
X150098386Y-71947715D01*
X149932786Y-72068028D01*
X149932782Y-72068032D01*
X149847681Y-72153134D01*
X149786358Y-72186619D01*
X149716666Y-72181635D01*
X149672319Y-72153134D01*
X149587213Y-72068028D01*
X149421613Y-71947715D01*
X149421612Y-71947714D01*
X149421610Y-71947713D01*
X149364653Y-71918691D01*
X149239223Y-71854781D01*
X149044534Y-71791522D01*
X148869995Y-71763878D01*
X148842352Y-71759500D01*
X148637648Y-71759500D01*
X148613329Y-71763351D01*
X148435465Y-71791522D01*
X148240776Y-71854781D01*
X148058386Y-71947715D01*
X147892786Y-72068028D01*
X147748028Y-72212786D01*
X147627715Y-72378386D01*
X147534781Y-72560776D01*
X147471522Y-72755465D01*
X147439500Y-72957648D01*
X147439500Y-73162351D01*
X147471522Y-73364534D01*
X147534781Y-73559223D01*
X147627715Y-73741613D01*
X147748028Y-73907213D01*
X147892786Y-74051971D01*
X148047749Y-74164556D01*
X148058390Y-74172287D01*
X148134204Y-74210916D01*
X148240776Y-74265218D01*
X148240778Y-74265218D01*
X148240781Y-74265220D01*
X148345137Y-74299127D01*
X148435465Y-74328477D01*
X148536557Y-74344488D01*
X148637648Y-74360500D01*
X148637649Y-74360500D01*
X148842346Y-74360500D01*
X148842352Y-74360500D01*
X148857955Y-74358028D01*
X148927244Y-74366981D01*
X148980697Y-74411975D01*
X149001339Y-74478726D01*
X148982616Y-74546040D01*
X148950238Y-74580818D01*
X148912789Y-74608026D01*
X148912782Y-74608032D01*
X148768028Y-74752786D01*
X148647715Y-74918386D01*
X148554781Y-75100776D01*
X148491522Y-75295465D01*
X148459500Y-75497648D01*
X148459500Y-75702351D01*
X148491522Y-75904534D01*
X148554781Y-76099223D01*
X148647715Y-76281613D01*
X148768028Y-76447213D01*
X148912786Y-76591971D01*
X149033226Y-76679474D01*
X149078390Y-76712287D01*
X149194607Y-76771503D01*
X149260776Y-76805218D01*
X149260778Y-76805218D01*
X149260781Y-76805220D01*
X149365137Y-76839127D01*
X149455465Y-76868477D01*
X149556557Y-76884488D01*
X149657648Y-76900500D01*
X149657649Y-76900500D01*
X149862351Y-76900500D01*
X149862352Y-76900500D01*
X150064534Y-76868477D01*
X150259219Y-76805220D01*
X150441610Y-76712287D01*
X150534590Y-76644732D01*
X150607213Y-76591971D01*
X150607215Y-76591968D01*
X150607219Y-76591966D01*
X150692319Y-76506866D01*
X150753642Y-76473381D01*
X150823334Y-76478365D01*
X150867681Y-76506866D01*
X150952786Y-76591971D01*
X151073226Y-76679474D01*
X151118390Y-76712287D01*
X151234607Y-76771503D01*
X151300776Y-76805218D01*
X151300778Y-76805218D01*
X151300781Y-76805220D01*
X151405137Y-76839127D01*
X151495465Y-76868477D01*
X151596557Y-76884488D01*
X151697648Y-76900500D01*
X151697649Y-76900500D01*
X151902351Y-76900500D01*
X151902352Y-76900500D01*
X152104534Y-76868477D01*
X152299219Y-76805220D01*
X152481610Y-76712287D01*
X152574590Y-76644732D01*
X152647213Y-76591971D01*
X152647215Y-76591968D01*
X152647219Y-76591966D01*
X152791966Y-76447219D01*
X152791968Y-76447215D01*
X152791971Y-76447213D01*
X152912284Y-76281614D01*
X152912285Y-76281613D01*
X152912287Y-76281610D01*
X153005220Y-76099219D01*
X153005222Y-76099211D01*
X153007086Y-76094714D01*
X153008186Y-76095169D01*
X153034931Y-76051512D01*
X153397861Y-75688582D01*
X153420667Y-75773694D01*
X153479910Y-75876306D01*
X153563694Y-75960090D01*
X153666306Y-76019333D01*
X153751414Y-76042137D01*
X153114076Y-76679474D01*
X153158650Y-76711859D01*
X153340968Y-76804755D01*
X153535582Y-76867990D01*
X153737683Y-76900000D01*
X153942317Y-76900000D01*
X154144417Y-76867990D01*
X154339031Y-76804755D01*
X154521349Y-76711859D01*
X154565921Y-76679474D01*
X153928585Y-76042138D01*
X154013694Y-76019333D01*
X154116306Y-75960090D01*
X154200090Y-75876306D01*
X154259333Y-75773694D01*
X154282138Y-75688584D01*
X154860000Y-76266446D01*
X154860001Y-76266446D01*
X155437861Y-75688584D01*
X155460667Y-75773694D01*
X155519910Y-75876306D01*
X155603694Y-75960090D01*
X155706306Y-76019333D01*
X155791414Y-76042137D01*
X155154076Y-76679474D01*
X155198650Y-76711859D01*
X155380968Y-76804755D01*
X155575582Y-76867990D01*
X155777683Y-76900000D01*
X155982317Y-76900000D01*
X156184417Y-76867990D01*
X156379031Y-76804755D01*
X156561349Y-76711859D01*
X156605921Y-76679474D01*
X155968585Y-76042138D01*
X156053694Y-76019333D01*
X156156306Y-75960090D01*
X156240090Y-75876306D01*
X156299333Y-75773694D01*
X156322138Y-75688585D01*
X156959474Y-76325921D01*
X156991859Y-76281349D01*
X157084755Y-76099031D01*
X157147990Y-75904417D01*
X157180000Y-75702317D01*
X157180000Y-75497682D01*
X157147990Y-75295582D01*
X157084755Y-75100968D01*
X156991859Y-74918650D01*
X156959474Y-74874077D01*
X156959474Y-74874076D01*
X156322137Y-75511413D01*
X156299333Y-75426306D01*
X156240090Y-75323694D01*
X156156306Y-75239910D01*
X156053694Y-75180667D01*
X155968584Y-75157861D01*
X156605922Y-74520524D01*
X156605921Y-74520523D01*
X156561359Y-74488147D01*
X156561350Y-74488141D01*
X156379031Y-74395244D01*
X156184417Y-74332009D01*
X155982317Y-74300000D01*
X155777685Y-74300000D01*
X155761153Y-74302618D01*
X155691860Y-74293661D01*
X155638409Y-74248664D01*
X155617771Y-74181911D01*
X155636498Y-74114598D01*
X155668874Y-74079825D01*
X155707215Y-74051969D01*
X155707215Y-74051968D01*
X155707219Y-74051966D01*
X155851966Y-73907219D01*
X155851968Y-73907215D01*
X155851971Y-73907213D01*
X155904732Y-73834590D01*
X155972287Y-73741610D01*
X156065220Y-73559219D01*
X156128477Y-73364534D01*
X156160500Y-73162352D01*
X156160500Y-72957648D01*
X156128477Y-72755466D01*
X156065220Y-72560781D01*
X156065218Y-72560778D01*
X156065218Y-72560776D01*
X156031503Y-72494607D01*
X155972287Y-72378390D01*
X155964556Y-72367749D01*
X155851971Y-72212786D01*
X155707213Y-72068028D01*
X155541610Y-71947712D01*
X155528200Y-71940879D01*
X155477406Y-71892903D01*
X155460500Y-71830397D01*
X155460500Y-70574499D01*
X155480185Y-70507460D01*
X155532989Y-70461705D01*
X155584500Y-70450499D01*
X155939358Y-70450499D01*
X155939360Y-70450499D01*
X155971047Y-70446327D01*
X156040081Y-70457092D01*
X156056116Y-70466159D01*
X156120821Y-70509394D01*
X156120823Y-70509395D01*
X156120827Y-70509397D01*
X156266498Y-70569735D01*
X156266503Y-70569737D01*
X156421153Y-70600499D01*
X156421156Y-70600500D01*
X156421158Y-70600500D01*
X156578844Y-70600500D01*
X156578845Y-70600499D01*
X156733497Y-70569737D01*
X156879179Y-70509394D01*
X157010289Y-70421789D01*
X157121789Y-70310289D01*
X157209394Y-70179179D01*
X157269737Y-70033497D01*
X157300500Y-69878842D01*
X157300500Y-69721158D01*
X157300500Y-69721155D01*
X157300499Y-69721153D01*
X157269739Y-69566511D01*
X157269737Y-69566505D01*
X157269737Y-69566503D01*
X157262377Y-69548735D01*
X157254908Y-69479270D01*
X157273835Y-69432394D01*
X157309394Y-69379179D01*
X157369737Y-69233497D01*
X157381744Y-69173130D01*
X157392467Y-69119229D01*
X157424852Y-69057318D01*
X157485568Y-69022744D01*
X157526687Y-69020062D01*
X157575019Y-69024999D01*
X157849999Y-69024999D01*
X158350000Y-69024999D01*
X158624972Y-69024999D01*
X158624986Y-69024998D01*
X158727697Y-69014505D01*
X158894119Y-68959358D01*
X158894124Y-68959356D01*
X159043345Y-68867315D01*
X159062319Y-68848342D01*
X159123642Y-68814857D01*
X159193334Y-68819841D01*
X159237681Y-68848342D01*
X159256654Y-68867315D01*
X159405875Y-68959356D01*
X159405880Y-68959358D01*
X159572302Y-69014505D01*
X159572309Y-69014506D01*
X159675019Y-69024999D01*
X159949999Y-69024999D01*
X159950000Y-69024998D01*
X159950000Y-68187500D01*
X158350000Y-68187500D01*
X158350000Y-69024999D01*
X157849999Y-69024999D01*
X157850000Y-69024998D01*
X157850000Y-68187500D01*
X156873740Y-68187500D01*
X156846734Y-68200976D01*
X156817988Y-68216673D01*
X156814961Y-68216833D01*
X156813501Y-68217562D01*
X156803079Y-68217462D01*
X156778228Y-68218779D01*
X156772791Y-68218187D01*
X156678842Y-68199500D01*
X156600929Y-68199500D01*
X156594243Y-68198773D01*
X156567939Y-68187840D01*
X156540608Y-68179815D01*
X156536092Y-68174603D01*
X156529724Y-68171957D01*
X156513502Y-68148534D01*
X156494853Y-68127011D01*
X156493818Y-68120110D01*
X156489945Y-68114517D01*
X156489037Y-68088203D01*
X156484708Y-68059315D01*
X156486220Y-68047828D01*
X156500500Y-67939361D01*
X156500499Y-67660640D01*
X156485044Y-67543238D01*
X156485042Y-67543234D01*
X156476435Y-67522455D01*
X156468965Y-67452986D01*
X156476435Y-67427545D01*
X156485044Y-67406762D01*
X156500500Y-67289361D01*
X156500499Y-67010640D01*
X156485044Y-66893238D01*
X156485042Y-66893234D01*
X156476435Y-66872455D01*
X156468965Y-66802986D01*
X156470726Y-66794812D01*
X156472945Y-66785969D01*
X156485044Y-66756762D01*
X156490302Y-66716817D01*
X156492040Y-66709896D01*
X156506274Y-66685685D01*
X156517636Y-66660003D01*
X156523744Y-66655973D01*
X156527453Y-66649666D01*
X156552514Y-66636995D01*
X156575960Y-66621531D01*
X156583277Y-66621443D01*
X156589807Y-66618143D01*
X156617738Y-66621033D01*
X156645825Y-66620699D01*
X156659181Y-66625322D01*
X156659306Y-66625335D01*
X156659372Y-66625388D01*
X156659750Y-66625519D01*
X156766503Y-66669737D01*
X156921153Y-66700499D01*
X156921156Y-66700500D01*
X156921158Y-66700500D01*
X157012770Y-66700500D01*
X157040036Y-66708506D01*
X157068016Y-66713487D01*
X157075615Y-66718953D01*
X157079809Y-66720185D01*
X157097054Y-66733548D01*
X157098772Y-66735140D01*
X157156344Y-66792712D01*
X157169963Y-66801112D01*
X157178843Y-66809341D01*
X157190786Y-66829364D01*
X157206379Y-66846699D01*
X157208350Y-66858810D01*
X157214635Y-66869347D01*
X157213857Y-66892646D01*
X157217603Y-66915661D01*
X157212713Y-66926915D01*
X157212304Y-66939178D01*
X157199051Y-66958361D01*
X157189761Y-66979744D01*
X157176098Y-66991583D01*
X157172590Y-66996663D01*
X157168057Y-66998552D01*
X157159665Y-67005826D01*
X157156660Y-67007679D01*
X157156655Y-67007683D01*
X157032684Y-67131654D01*
X156940643Y-67280875D01*
X156940641Y-67280880D01*
X156885494Y-67447302D01*
X156885493Y-67447309D01*
X156875000Y-67550013D01*
X156875000Y-67687500D01*
X160076000Y-67687500D01*
X160143039Y-67707185D01*
X160188794Y-67759989D01*
X160200000Y-67811500D01*
X160200000Y-67937500D01*
X160326000Y-67937500D01*
X160393039Y-67957185D01*
X160438794Y-68009989D01*
X160450000Y-68061500D01*
X160450000Y-69024999D01*
X160724972Y-69024999D01*
X160724986Y-69024998D01*
X160827697Y-69014505D01*
X160994119Y-68959358D01*
X160994124Y-68959356D01*
X161143345Y-68867315D01*
X161177382Y-68833279D01*
X161238705Y-68799794D01*
X161308397Y-68804778D01*
X161364330Y-68846650D01*
X161388747Y-68912114D01*
X161389063Y-68920960D01*
X161389063Y-70207757D01*
X161369378Y-70274796D01*
X161316574Y-70320551D01*
X161247416Y-70330495D01*
X161183860Y-70301470D01*
X161147132Y-70246076D01*
X161135694Y-70210874D01*
X161081769Y-70105041D01*
X161033473Y-70010255D01*
X160901124Y-69828092D01*
X160741908Y-69668876D01*
X160559745Y-69536527D01*
X160359125Y-69434305D01*
X160144976Y-69364723D01*
X159952989Y-69334316D01*
X159922583Y-69329500D01*
X159697417Y-69329500D01*
X159670667Y-69333736D01*
X159475023Y-69364723D01*
X159260874Y-69434305D01*
X159060254Y-69536527D01*
X158878089Y-69668878D01*
X158718878Y-69828089D01*
X158586527Y-70010254D01*
X158484305Y-70210874D01*
X158414723Y-70425023D01*
X158379500Y-70647417D01*
X158379500Y-70872582D01*
X158414723Y-71094976D01*
X158484305Y-71309125D01*
X158586527Y-71509745D01*
X158718876Y-71691908D01*
X158878092Y-71851124D01*
X159060255Y-71983473D01*
X159155041Y-72031769D01*
X159260874Y-72085694D01*
X159260876Y-72085694D01*
X159260879Y-72085696D01*
X159375666Y-72122992D01*
X159475023Y-72155276D01*
X159586220Y-72172888D01*
X159697417Y-72190500D01*
X159697418Y-72190500D01*
X159922582Y-72190500D01*
X159922583Y-72190500D01*
X160144976Y-72155276D01*
X160359121Y-72085696D01*
X160559745Y-71983473D01*
X160741908Y-71851124D01*
X160901124Y-71691908D01*
X161033473Y-71509745D01*
X161135696Y-71309121D01*
X161147132Y-71273923D01*
X161186570Y-71216248D01*
X161250928Y-71189050D01*
X161319775Y-71200965D01*
X161371250Y-71248209D01*
X161389063Y-71312242D01*
X161389063Y-94775500D01*
X161369378Y-94842539D01*
X161316574Y-94888294D01*
X161265063Y-94899500D01*
X143811571Y-94899500D01*
X143744532Y-94879815D01*
X143698777Y-94827011D01*
X143688833Y-94757853D01*
X143712305Y-94701189D01*
X143793793Y-94592335D01*
X143793792Y-94592335D01*
X143793796Y-94592331D01*
X143844091Y-94457483D01*
X143850500Y-94397873D01*
X143850499Y-92602128D01*
X143844091Y-92542517D01*
X143793796Y-92407669D01*
X143793795Y-92407668D01*
X143793793Y-92407664D01*
X143707547Y-92292455D01*
X143707544Y-92292452D01*
X143592335Y-92206206D01*
X143592328Y-92206202D01*
X143460917Y-92157189D01*
X143404983Y-92115318D01*
X143380566Y-92049853D01*
X143395418Y-91981580D01*
X143416563Y-91953332D01*
X143530104Y-91839792D01*
X143655051Y-91667816D01*
X143751557Y-91478412D01*
X143817246Y-91276243D01*
X143850500Y-91066287D01*
X143850500Y-90853713D01*
X143817246Y-90643757D01*
X143794900Y-90574983D01*
X154999500Y-90574983D01*
X154999500Y-92175001D01*
X154999501Y-92175018D01*
X155010000Y-92277796D01*
X155010001Y-92277799D01*
X155047750Y-92391716D01*
X155065186Y-92444334D01*
X155157288Y-92593656D01*
X155281344Y-92717712D01*
X155430666Y-92809814D01*
X155597203Y-92864999D01*
X155699991Y-92875500D01*
X157000008Y-92875499D01*
X157102797Y-92864999D01*
X157269334Y-92809814D01*
X157418656Y-92717712D01*
X157542712Y-92593656D01*
X157634814Y-92444334D01*
X157634814Y-92444331D01*
X157638448Y-92438441D01*
X157690395Y-92391716D01*
X157759358Y-92380493D01*
X157823440Y-92408336D01*
X157831668Y-92415856D01*
X157970535Y-92554723D01*
X157970540Y-92554727D01*
X158142442Y-92679620D01*
X158331782Y-92776095D01*
X158533871Y-92841757D01*
X158600000Y-92852231D01*
X158600000Y-91808012D01*
X158657007Y-91840925D01*
X158784174Y-91875000D01*
X158915826Y-91875000D01*
X159042993Y-91840925D01*
X159100000Y-91808012D01*
X159100000Y-92852230D01*
X159166126Y-92841757D01*
X159166129Y-92841757D01*
X159368217Y-92776095D01*
X159557557Y-92679620D01*
X159729459Y-92554727D01*
X159729464Y-92554723D01*
X159879723Y-92404464D01*
X159879727Y-92404459D01*
X160004620Y-92232557D01*
X160101095Y-92043217D01*
X160166757Y-91841130D01*
X160166757Y-91841127D01*
X160200000Y-91631246D01*
X160200000Y-91625000D01*
X159283012Y-91625000D01*
X159315925Y-91567993D01*
X159350000Y-91440826D01*
X159350000Y-91309174D01*
X159315925Y-91182007D01*
X159283012Y-91125000D01*
X160200000Y-91125000D01*
X160200000Y-91118753D01*
X160166757Y-90908872D01*
X160166757Y-90908869D01*
X160101095Y-90706782D01*
X160004620Y-90517442D01*
X159879727Y-90345540D01*
X159879723Y-90345535D01*
X159729464Y-90195276D01*
X159729459Y-90195272D01*
X159557557Y-90070379D01*
X159368215Y-89973903D01*
X159166124Y-89908241D01*
X159100000Y-89897768D01*
X159100000Y-90941988D01*
X159042993Y-90909075D01*
X158915826Y-90875000D01*
X158784174Y-90875000D01*
X158657007Y-90909075D01*
X158600000Y-90941988D01*
X158600000Y-89897768D01*
X158599999Y-89897768D01*
X158533875Y-89908241D01*
X158331784Y-89973903D01*
X158142442Y-90070379D01*
X157970541Y-90195271D01*
X157831668Y-90334144D01*
X157770345Y-90367628D01*
X157700653Y-90362644D01*
X157644720Y-90320772D01*
X157638448Y-90311558D01*
X157542712Y-90156344D01*
X157418657Y-90032289D01*
X157418656Y-90032288D01*
X157269334Y-89940186D01*
X157102797Y-89885001D01*
X157102795Y-89885000D01*
X157000010Y-89874500D01*
X155699998Y-89874500D01*
X155699981Y-89874501D01*
X155597203Y-89885000D01*
X155597200Y-89885001D01*
X155430668Y-89940185D01*
X155430663Y-89940187D01*
X155281342Y-90032289D01*
X155157289Y-90156342D01*
X155065187Y-90305663D01*
X155065185Y-90305668D01*
X155060180Y-90320772D01*
X155010001Y-90472203D01*
X155010001Y-90472204D01*
X155010000Y-90472204D01*
X154999500Y-90574983D01*
X143794900Y-90574983D01*
X143751557Y-90441588D01*
X143655051Y-90252184D01*
X143655049Y-90252181D01*
X143655048Y-90252179D01*
X143530109Y-90080213D01*
X143379786Y-89929890D01*
X143207817Y-89804949D01*
X143198504Y-89800204D01*
X143147707Y-89752230D01*
X143130912Y-89684409D01*
X143153449Y-89618274D01*
X143198507Y-89579232D01*
X143207555Y-89574622D01*
X143261716Y-89535270D01*
X143261717Y-89535270D01*
X142629408Y-88902962D01*
X142692993Y-88885925D01*
X142807007Y-88820099D01*
X142900099Y-88727007D01*
X142965925Y-88612993D01*
X142982962Y-88549408D01*
X143615270Y-89181717D01*
X143615270Y-89181716D01*
X143654622Y-89127554D01*
X143751095Y-88938217D01*
X143816757Y-88736130D01*
X143816757Y-88736127D01*
X143850000Y-88526246D01*
X143850000Y-88313753D01*
X143816757Y-88103872D01*
X143816757Y-88103869D01*
X143751095Y-87901782D01*
X143654624Y-87712449D01*
X143615270Y-87658282D01*
X143615269Y-87658282D01*
X142982962Y-88290590D01*
X142965925Y-88227007D01*
X142900099Y-88112993D01*
X142807007Y-88019901D01*
X142692993Y-87954075D01*
X142629409Y-87937037D01*
X143261716Y-87304728D01*
X143207550Y-87265375D01*
X143018217Y-87168904D01*
X142816129Y-87103242D01*
X142606246Y-87070000D01*
X142393754Y-87070000D01*
X142183872Y-87103242D01*
X142183869Y-87103242D01*
X141981782Y-87168904D01*
X141792439Y-87265380D01*
X141738282Y-87304727D01*
X141738282Y-87304728D01*
X142370591Y-87937037D01*
X142307007Y-87954075D01*
X142192993Y-88019901D01*
X142099901Y-88112993D01*
X142034075Y-88227007D01*
X142017037Y-88290591D01*
X141384728Y-87658282D01*
X141384727Y-87658282D01*
X141345380Y-87712440D01*
X141345375Y-87712448D01*
X141267436Y-87865411D01*
X141219462Y-87916207D01*
X141151641Y-87933002D01*
X141085506Y-87910464D01*
X141042055Y-87855749D01*
X141032952Y-87809116D01*
X141032952Y-85250884D01*
X141052637Y-85183845D01*
X141105441Y-85138090D01*
X141174599Y-85128146D01*
X141238155Y-85157171D01*
X141267437Y-85194589D01*
X141345375Y-85347550D01*
X141384728Y-85401716D01*
X142017037Y-84769408D01*
X142034075Y-84832993D01*
X142099901Y-84947007D01*
X142192993Y-85040099D01*
X142307007Y-85105925D01*
X142370590Y-85122962D01*
X141738282Y-85755269D01*
X141738282Y-85755270D01*
X141792449Y-85794624D01*
X141981782Y-85891095D01*
X142183870Y-85956757D01*
X142393754Y-85990000D01*
X142606246Y-85990000D01*
X142816127Y-85956757D01*
X142816130Y-85956757D01*
X143018217Y-85891095D01*
X143207554Y-85794622D01*
X143261716Y-85755270D01*
X143261717Y-85755270D01*
X142629408Y-85122962D01*
X142692993Y-85105925D01*
X142807007Y-85040099D01*
X142900099Y-84947007D01*
X142965925Y-84832993D01*
X142982962Y-84769408D01*
X143615270Y-85401717D01*
X143615270Y-85401716D01*
X143654622Y-85347554D01*
X143751095Y-85158217D01*
X143816757Y-84956130D01*
X143816757Y-84956127D01*
X143850000Y-84746246D01*
X143850000Y-84533753D01*
X143816757Y-84323872D01*
X143816757Y-84323869D01*
X143751095Y-84121782D01*
X143654624Y-83932449D01*
X143615270Y-83878282D01*
X143615269Y-83878282D01*
X142982962Y-84510590D01*
X142965925Y-84447007D01*
X142900099Y-84332993D01*
X142807007Y-84239901D01*
X142692993Y-84174075D01*
X142629409Y-84157037D01*
X143261716Y-83524728D01*
X143207547Y-83485373D01*
X143207547Y-83485372D01*
X143198500Y-83480763D01*
X143147706Y-83432788D01*
X143130912Y-83364966D01*
X143153451Y-83298832D01*
X143198508Y-83259793D01*
X143207816Y-83255051D01*
X143287007Y-83197515D01*
X143379786Y-83130109D01*
X143379788Y-83130106D01*
X143379792Y-83130104D01*
X143530104Y-82979792D01*
X143530106Y-82979788D01*
X143530109Y-82979786D01*
X143655048Y-82807820D01*
X143655047Y-82807820D01*
X143655051Y-82807816D01*
X143751557Y-82618412D01*
X143817246Y-82416243D01*
X143850500Y-82206287D01*
X143850500Y-81993713D01*
X143817246Y-81783757D01*
X143751557Y-81581588D01*
X143655051Y-81392184D01*
X143655049Y-81392181D01*
X143655048Y-81392179D01*
X143530109Y-81220213D01*
X143416569Y-81106673D01*
X143383084Y-81045350D01*
X143388068Y-80975658D01*
X143429940Y-80919725D01*
X143460915Y-80902810D01*
X143592331Y-80853796D01*
X143707546Y-80767546D01*
X143793796Y-80652331D01*
X143844091Y-80517483D01*
X143850500Y-80457873D01*
X143850499Y-78662128D01*
X143844091Y-78602517D01*
X143793796Y-78467669D01*
X143793795Y-78467668D01*
X143793793Y-78467664D01*
X143707547Y-78352455D01*
X143707544Y-78352452D01*
X143592335Y-78266206D01*
X143592328Y-78266202D01*
X143457482Y-78215908D01*
X143457483Y-78215908D01*
X143397883Y-78209501D01*
X143397881Y-78209500D01*
X143397873Y-78209500D01*
X143397864Y-78209500D01*
X141602129Y-78209500D01*
X141602123Y-78209501D01*
X141542516Y-78215908D01*
X141407671Y-78266202D01*
X141407664Y-78266206D01*
X141292455Y-78352452D01*
X141256218Y-78400859D01*
X141200284Y-78442729D01*
X141130593Y-78447713D01*
X141069270Y-78414227D01*
X141035785Y-78352904D01*
X141032952Y-78326547D01*
X141032952Y-70647417D01*
X143379500Y-70647417D01*
X143379500Y-70872582D01*
X143414723Y-71094976D01*
X143484305Y-71309125D01*
X143586527Y-71509745D01*
X143718876Y-71691908D01*
X143878092Y-71851124D01*
X144060255Y-71983473D01*
X144155041Y-72031769D01*
X144260874Y-72085694D01*
X144260876Y-72085694D01*
X144260879Y-72085696D01*
X144375666Y-72122992D01*
X144475023Y-72155276D01*
X144586220Y-72172888D01*
X144697417Y-72190500D01*
X144697418Y-72190500D01*
X144922582Y-72190500D01*
X144922583Y-72190500D01*
X145144976Y-72155276D01*
X145359121Y-72085696D01*
X145559745Y-71983473D01*
X145741908Y-71851124D01*
X145901124Y-71691908D01*
X146033473Y-71509745D01*
X146135696Y-71309121D01*
X146205276Y-71094976D01*
X146240500Y-70872583D01*
X146240500Y-70647417D01*
X146218639Y-70509393D01*
X146205276Y-70425023D01*
X146158615Y-70281416D01*
X146135696Y-70210879D01*
X146135694Y-70210876D01*
X146135694Y-70210874D01*
X146081769Y-70105041D01*
X146033473Y-70010255D01*
X145901124Y-69828092D01*
X145741908Y-69668876D01*
X145559745Y-69536527D01*
X145359125Y-69434305D01*
X145144976Y-69364723D01*
X144952989Y-69334316D01*
X144922583Y-69329500D01*
X144697417Y-69329500D01*
X144670667Y-69333736D01*
X144475023Y-69364723D01*
X144260874Y-69434305D01*
X144060254Y-69536527D01*
X143878089Y-69668878D01*
X143718878Y-69828089D01*
X143586527Y-70010254D01*
X143484305Y-70210874D01*
X143414723Y-70425023D01*
X143379500Y-70647417D01*
X141032952Y-70647417D01*
X141032952Y-65324500D01*
X141052637Y-65257461D01*
X141105441Y-65211706D01*
X141156952Y-65200500D01*
X148313916Y-65200500D01*
X148380955Y-65220185D01*
G37*
%TD.AperFunction*%
%TA.AperFunction,Conductor*%
G36*
X142034075Y-88612993D02*
G01*
X142099901Y-88727007D01*
X142192993Y-88820099D01*
X142307007Y-88885925D01*
X142370590Y-88902962D01*
X141738282Y-89535269D01*
X141738282Y-89535270D01*
X141792452Y-89574626D01*
X141792451Y-89574626D01*
X141801495Y-89579234D01*
X141852292Y-89627208D01*
X141869087Y-89695029D01*
X141846550Y-89761164D01*
X141801499Y-89800202D01*
X141792182Y-89804949D01*
X141620213Y-89929890D01*
X141469890Y-90080213D01*
X141344951Y-90252180D01*
X141267437Y-90404309D01*
X141219462Y-90455105D01*
X141151641Y-90471900D01*
X141085506Y-90449362D01*
X141042055Y-90394647D01*
X141032952Y-90348014D01*
X141032952Y-89030884D01*
X141052637Y-88963845D01*
X141105441Y-88918090D01*
X141174599Y-88908146D01*
X141238155Y-88937171D01*
X141267437Y-88974589D01*
X141345375Y-89127550D01*
X141384728Y-89181716D01*
X142017037Y-88549408D01*
X142034075Y-88612993D01*
G37*
%TD.AperFunction*%
%TA.AperFunction,Conductor*%
G36*
X141238155Y-82618272D02*
G01*
X141267437Y-82655690D01*
X141344951Y-82807820D01*
X141469890Y-82979786D01*
X141620213Y-83130109D01*
X141792179Y-83255048D01*
X141792181Y-83255049D01*
X141792184Y-83255051D01*
X141801493Y-83259794D01*
X141852290Y-83307766D01*
X141869087Y-83375587D01*
X141846552Y-83441722D01*
X141801505Y-83480760D01*
X141792446Y-83485376D01*
X141792440Y-83485380D01*
X141738282Y-83524727D01*
X141738282Y-83524728D01*
X142370591Y-84157037D01*
X142307007Y-84174075D01*
X142192993Y-84239901D01*
X142099901Y-84332993D01*
X142034075Y-84447007D01*
X142017037Y-84510591D01*
X141384728Y-83878282D01*
X141384727Y-83878282D01*
X141345380Y-83932440D01*
X141345375Y-83932448D01*
X141267436Y-84085411D01*
X141219462Y-84136207D01*
X141151641Y-84153002D01*
X141085506Y-84130464D01*
X141042055Y-84075749D01*
X141032952Y-84029116D01*
X141032952Y-82711985D01*
X141052637Y-82644946D01*
X141105441Y-82599191D01*
X141174599Y-82589247D01*
X141238155Y-82618272D01*
G37*
%TD.AperFunction*%
%TA.AperFunction,Conductor*%
G36*
X153043185Y-74361290D02*
G01*
X153096638Y-74406286D01*
X153117278Y-74473037D01*
X153116909Y-74484538D01*
X153114076Y-74520523D01*
X153751415Y-75157861D01*
X153666306Y-75180667D01*
X153563694Y-75239910D01*
X153479910Y-75323694D01*
X153420667Y-75426306D01*
X153397861Y-75511415D01*
X153034930Y-75148484D01*
X153008177Y-75104824D01*
X153007082Y-75105278D01*
X153005222Y-75100787D01*
X153005220Y-75100781D01*
X152912287Y-74918390D01*
X152912285Y-74918387D01*
X152912284Y-74918385D01*
X152791971Y-74752786D01*
X152647217Y-74608032D01*
X152647212Y-74608028D01*
X152609762Y-74580819D01*
X152567096Y-74525489D01*
X152561117Y-74455876D01*
X152593722Y-74394081D01*
X152654561Y-74359724D01*
X152702042Y-74358028D01*
X152717648Y-74360500D01*
X152717653Y-74360500D01*
X152922350Y-74360500D01*
X152922352Y-74360500D01*
X152973894Y-74352336D01*
X153043185Y-74361290D01*
G37*
%TD.AperFunction*%
%TA.AperFunction,Conductor*%
G36*
X154706099Y-74352335D02*
G01*
X154757648Y-74360500D01*
X154757649Y-74360500D01*
X154962350Y-74360500D01*
X154962352Y-74360500D01*
X155013894Y-74352336D01*
X155083185Y-74361290D01*
X155136638Y-74406286D01*
X155157278Y-74473037D01*
X155156909Y-74484538D01*
X155154076Y-74520523D01*
X155791415Y-75157861D01*
X155706306Y-75180667D01*
X155603694Y-75239910D01*
X155519910Y-75323694D01*
X155460667Y-75426306D01*
X155437861Y-75511414D01*
X154860001Y-74933553D01*
X154860000Y-74933553D01*
X154282138Y-75511414D01*
X154259333Y-75426306D01*
X154200090Y-75323694D01*
X154116306Y-75239910D01*
X154013694Y-75180667D01*
X153928584Y-75157861D01*
X154565921Y-74520525D01*
X154563089Y-74484539D01*
X154577453Y-74416162D01*
X154626504Y-74366404D01*
X154694669Y-74351065D01*
X154706099Y-74352335D01*
G37*
%TD.AperFunction*%
%TD*%
M02*
