%TF.GenerationSoftware,KiCad,Pcbnew,10.0.1*%
%TF.CreationDate,2026-07-11T21:18:00-07:00*%
%TF.ProjectId,tile,74696c65-2e6b-4696-9361-645f70636258,rev?*%
%TF.SameCoordinates,Original*%
%TF.FileFunction,Legend,Top*%
%TF.FilePolarity,Positive*%
%FSLAX46Y46*%
G04 Gerber Fmt 4.6, Leading zero omitted, Abs format (unit mm)*
G04 Created by KiCad (PCBNEW 10.0.1) date 2026-07-11 21:18:00*
%MOMM*%
%LPD*%
G01*
G04 APERTURE LIST*
%ADD10C,0.100000*%
%ADD11C,0.150000*%
%ADD12C,0.254000*%
%ADD13C,0.120000*%
%ADD14C,0.200000*%
G04 APERTURE END LIST*
D10*
X144003104Y-90637217D02*
X144003104Y-90256265D01*
X144003104Y-90256265D02*
X144803104Y-90256265D01*
X144422152Y-90903884D02*
X144422152Y-91170550D01*
X144003104Y-91284836D02*
X144003104Y-90903884D01*
X144003104Y-90903884D02*
X144803104Y-90903884D01*
X144803104Y-90903884D02*
X144803104Y-91284836D01*
X144003104Y-91627694D02*
X144803104Y-91627694D01*
X144803104Y-91627694D02*
X144803104Y-91818170D01*
X144803104Y-91818170D02*
X144765009Y-91932456D01*
X144765009Y-91932456D02*
X144688819Y-92008646D01*
X144688819Y-92008646D02*
X144612628Y-92046741D01*
X144612628Y-92046741D02*
X144460247Y-92084837D01*
X144460247Y-92084837D02*
X144345961Y-92084837D01*
X144345961Y-92084837D02*
X144193580Y-92046741D01*
X144193580Y-92046741D02*
X144117390Y-92008646D01*
X144117390Y-92008646D02*
X144041200Y-91932456D01*
X144041200Y-91932456D02*
X144003104Y-91818170D01*
X144003104Y-91818170D02*
X144003104Y-91627694D01*
X145127580Y-78503884D02*
X144318057Y-78503884D01*
X144318057Y-78503884D02*
X144222819Y-78551503D01*
X144222819Y-78551503D02*
X144175200Y-78599122D01*
X144175200Y-78599122D02*
X144127580Y-78694360D01*
X144127580Y-78694360D02*
X144127580Y-78884836D01*
X144127580Y-78884836D02*
X144175200Y-78980074D01*
X144175200Y-78980074D02*
X144222819Y-79027693D01*
X144222819Y-79027693D02*
X144318057Y-79075312D01*
X144318057Y-79075312D02*
X145127580Y-79075312D01*
X144127580Y-79551503D02*
X145127580Y-79551503D01*
X145127580Y-79551503D02*
X145127580Y-79932455D01*
X145127580Y-79932455D02*
X145079961Y-80027693D01*
X145079961Y-80027693D02*
X145032342Y-80075312D01*
X145032342Y-80075312D02*
X144937104Y-80122931D01*
X144937104Y-80122931D02*
X144794247Y-80122931D01*
X144794247Y-80122931D02*
X144699009Y-80075312D01*
X144699009Y-80075312D02*
X144651390Y-80027693D01*
X144651390Y-80027693D02*
X144603771Y-79932455D01*
X144603771Y-79932455D02*
X144603771Y-79551503D01*
X144127580Y-80551503D02*
X145127580Y-80551503D01*
X145127580Y-80551503D02*
X145127580Y-80789598D01*
X145127580Y-80789598D02*
X145079961Y-80932455D01*
X145079961Y-80932455D02*
X144984723Y-81027693D01*
X144984723Y-81027693D02*
X144889485Y-81075312D01*
X144889485Y-81075312D02*
X144699009Y-81122931D01*
X144699009Y-81122931D02*
X144556152Y-81122931D01*
X144556152Y-81122931D02*
X144365676Y-81075312D01*
X144365676Y-81075312D02*
X144270438Y-81027693D01*
X144270438Y-81027693D02*
X144175200Y-80932455D01*
X144175200Y-80932455D02*
X144127580Y-80789598D01*
X144127580Y-80789598D02*
X144127580Y-80551503D01*
X144127580Y-81551503D02*
X145127580Y-81551503D01*
D11*
X150833333Y-78859580D02*
X150785714Y-78907200D01*
X150785714Y-78907200D02*
X150642857Y-78954819D01*
X150642857Y-78954819D02*
X150547619Y-78954819D01*
X150547619Y-78954819D02*
X150404762Y-78907200D01*
X150404762Y-78907200D02*
X150309524Y-78811961D01*
X150309524Y-78811961D02*
X150261905Y-78716723D01*
X150261905Y-78716723D02*
X150214286Y-78526247D01*
X150214286Y-78526247D02*
X150214286Y-78383390D01*
X150214286Y-78383390D02*
X150261905Y-78192914D01*
X150261905Y-78192914D02*
X150309524Y-78097676D01*
X150309524Y-78097676D02*
X150404762Y-78002438D01*
X150404762Y-78002438D02*
X150547619Y-77954819D01*
X150547619Y-77954819D02*
X150642857Y-77954819D01*
X150642857Y-77954819D02*
X150785714Y-78002438D01*
X150785714Y-78002438D02*
X150833333Y-78050057D01*
X151690476Y-77954819D02*
X151500000Y-77954819D01*
X151500000Y-77954819D02*
X151404762Y-78002438D01*
X151404762Y-78002438D02*
X151357143Y-78050057D01*
X151357143Y-78050057D02*
X151261905Y-78192914D01*
X151261905Y-78192914D02*
X151214286Y-78383390D01*
X151214286Y-78383390D02*
X151214286Y-78764342D01*
X151214286Y-78764342D02*
X151261905Y-78859580D01*
X151261905Y-78859580D02*
X151309524Y-78907200D01*
X151309524Y-78907200D02*
X151404762Y-78954819D01*
X151404762Y-78954819D02*
X151595238Y-78954819D01*
X151595238Y-78954819D02*
X151690476Y-78907200D01*
X151690476Y-78907200D02*
X151738095Y-78859580D01*
X151738095Y-78859580D02*
X151785714Y-78764342D01*
X151785714Y-78764342D02*
X151785714Y-78526247D01*
X151785714Y-78526247D02*
X151738095Y-78431009D01*
X151738095Y-78431009D02*
X151690476Y-78383390D01*
X151690476Y-78383390D02*
X151595238Y-78335771D01*
X151595238Y-78335771D02*
X151404762Y-78335771D01*
X151404762Y-78335771D02*
X151309524Y-78383390D01*
X151309524Y-78383390D02*
X151261905Y-78431009D01*
X151261905Y-78431009D02*
X151214286Y-78526247D01*
D12*
X151388333Y-90053365D02*
X151327857Y-90113842D01*
X151327857Y-90113842D02*
X151146428Y-90174318D01*
X151146428Y-90174318D02*
X151025476Y-90174318D01*
X151025476Y-90174318D02*
X150844047Y-90113842D01*
X150844047Y-90113842D02*
X150723095Y-89992889D01*
X150723095Y-89992889D02*
X150662618Y-89871937D01*
X150662618Y-89871937D02*
X150602142Y-89630032D01*
X150602142Y-89630032D02*
X150602142Y-89448603D01*
X150602142Y-89448603D02*
X150662618Y-89206699D01*
X150662618Y-89206699D02*
X150723095Y-89085746D01*
X150723095Y-89085746D02*
X150844047Y-88964794D01*
X150844047Y-88964794D02*
X151025476Y-88904318D01*
X151025476Y-88904318D02*
X151146428Y-88904318D01*
X151146428Y-88904318D02*
X151327857Y-88964794D01*
X151327857Y-88964794D02*
X151388333Y-89025270D01*
X151811666Y-88904318D02*
X152658333Y-88904318D01*
X152658333Y-88904318D02*
X152114047Y-90174318D01*
D11*
X157054819Y-85214285D02*
X156054819Y-85214285D01*
X156054819Y-85214285D02*
X156054819Y-84833333D01*
X156054819Y-84833333D02*
X156102438Y-84738095D01*
X156102438Y-84738095D02*
X156150057Y-84690476D01*
X156150057Y-84690476D02*
X156245295Y-84642857D01*
X156245295Y-84642857D02*
X156388152Y-84642857D01*
X156388152Y-84642857D02*
X156483390Y-84690476D01*
X156483390Y-84690476D02*
X156531009Y-84738095D01*
X156531009Y-84738095D02*
X156578628Y-84833333D01*
X156578628Y-84833333D02*
X156578628Y-85214285D01*
X157007200Y-84261904D02*
X157054819Y-84119047D01*
X157054819Y-84119047D02*
X157054819Y-83880952D01*
X157054819Y-83880952D02*
X157007200Y-83785714D01*
X157007200Y-83785714D02*
X156959580Y-83738095D01*
X156959580Y-83738095D02*
X156864342Y-83690476D01*
X156864342Y-83690476D02*
X156769104Y-83690476D01*
X156769104Y-83690476D02*
X156673866Y-83738095D01*
X156673866Y-83738095D02*
X156626247Y-83785714D01*
X156626247Y-83785714D02*
X156578628Y-83880952D01*
X156578628Y-83880952D02*
X156531009Y-84071428D01*
X156531009Y-84071428D02*
X156483390Y-84166666D01*
X156483390Y-84166666D02*
X156435771Y-84214285D01*
X156435771Y-84214285D02*
X156340533Y-84261904D01*
X156340533Y-84261904D02*
X156245295Y-84261904D01*
X156245295Y-84261904D02*
X156150057Y-84214285D01*
X156150057Y-84214285D02*
X156102438Y-84166666D01*
X156102438Y-84166666D02*
X156054819Y-84071428D01*
X156054819Y-84071428D02*
X156054819Y-83833333D01*
X156054819Y-83833333D02*
X156102438Y-83690476D01*
X157054819Y-82738095D02*
X157054819Y-83309523D01*
X157054819Y-83023809D02*
X156054819Y-83023809D01*
X156054819Y-83023809D02*
X156197676Y-83119047D01*
X156197676Y-83119047D02*
X156292914Y-83214285D01*
X156292914Y-83214285D02*
X156340533Y-83309523D01*
X156959580Y-87266666D02*
X157007200Y-87314285D01*
X157007200Y-87314285D02*
X157054819Y-87457142D01*
X157054819Y-87457142D02*
X157054819Y-87552380D01*
X157054819Y-87552380D02*
X157007200Y-87695237D01*
X157007200Y-87695237D02*
X156911961Y-87790475D01*
X156911961Y-87790475D02*
X156816723Y-87838094D01*
X156816723Y-87838094D02*
X156626247Y-87885713D01*
X156626247Y-87885713D02*
X156483390Y-87885713D01*
X156483390Y-87885713D02*
X156292914Y-87838094D01*
X156292914Y-87838094D02*
X156197676Y-87790475D01*
X156197676Y-87790475D02*
X156102438Y-87695237D01*
X156102438Y-87695237D02*
X156054819Y-87552380D01*
X156054819Y-87552380D02*
X156054819Y-87457142D01*
X156054819Y-87457142D02*
X156102438Y-87314285D01*
X156102438Y-87314285D02*
X156150057Y-87266666D01*
X157054819Y-86314285D02*
X157054819Y-86885713D01*
X157054819Y-86599999D02*
X156054819Y-86599999D01*
X156054819Y-86599999D02*
X156197676Y-86695237D01*
X156197676Y-86695237D02*
X156292914Y-86790475D01*
X156292914Y-86790475D02*
X156340533Y-86885713D01*
X147754819Y-83066666D02*
X147278628Y-83399999D01*
X147754819Y-83638094D02*
X146754819Y-83638094D01*
X146754819Y-83638094D02*
X146754819Y-83257142D01*
X146754819Y-83257142D02*
X146802438Y-83161904D01*
X146802438Y-83161904D02*
X146850057Y-83114285D01*
X146850057Y-83114285D02*
X146945295Y-83066666D01*
X146945295Y-83066666D02*
X147088152Y-83066666D01*
X147088152Y-83066666D02*
X147183390Y-83114285D01*
X147183390Y-83114285D02*
X147231009Y-83161904D01*
X147231009Y-83161904D02*
X147278628Y-83257142D01*
X147278628Y-83257142D02*
X147278628Y-83638094D01*
X147754819Y-82114285D02*
X147754819Y-82685713D01*
X147754819Y-82399999D02*
X146754819Y-82399999D01*
X146754819Y-82399999D02*
X146897676Y-82495237D01*
X146897676Y-82495237D02*
X146992914Y-82590475D01*
X146992914Y-82590475D02*
X147040533Y-82685713D01*
X156333333Y-78959580D02*
X156285714Y-79007200D01*
X156285714Y-79007200D02*
X156142857Y-79054819D01*
X156142857Y-79054819D02*
X156047619Y-79054819D01*
X156047619Y-79054819D02*
X155904762Y-79007200D01*
X155904762Y-79007200D02*
X155809524Y-78911961D01*
X155809524Y-78911961D02*
X155761905Y-78816723D01*
X155761905Y-78816723D02*
X155714286Y-78626247D01*
X155714286Y-78626247D02*
X155714286Y-78483390D01*
X155714286Y-78483390D02*
X155761905Y-78292914D01*
X155761905Y-78292914D02*
X155809524Y-78197676D01*
X155809524Y-78197676D02*
X155904762Y-78102438D01*
X155904762Y-78102438D02*
X156047619Y-78054819D01*
X156047619Y-78054819D02*
X156142857Y-78054819D01*
X156142857Y-78054819D02*
X156285714Y-78102438D01*
X156285714Y-78102438D02*
X156333333Y-78150057D01*
X157238095Y-78054819D02*
X156761905Y-78054819D01*
X156761905Y-78054819D02*
X156714286Y-78531009D01*
X156714286Y-78531009D02*
X156761905Y-78483390D01*
X156761905Y-78483390D02*
X156857143Y-78435771D01*
X156857143Y-78435771D02*
X157095238Y-78435771D01*
X157095238Y-78435771D02*
X157190476Y-78483390D01*
X157190476Y-78483390D02*
X157238095Y-78531009D01*
X157238095Y-78531009D02*
X157285714Y-78626247D01*
X157285714Y-78626247D02*
X157285714Y-78864342D01*
X157285714Y-78864342D02*
X157238095Y-78959580D01*
X157238095Y-78959580D02*
X157190476Y-79007200D01*
X157190476Y-79007200D02*
X157095238Y-79054819D01*
X157095238Y-79054819D02*
X156857143Y-79054819D01*
X156857143Y-79054819D02*
X156761905Y-79007200D01*
X156761905Y-79007200D02*
X156714286Y-78959580D01*
X145854819Y-83166666D02*
X145378628Y-83499999D01*
X145854819Y-83738094D02*
X144854819Y-83738094D01*
X144854819Y-83738094D02*
X144854819Y-83357142D01*
X144854819Y-83357142D02*
X144902438Y-83261904D01*
X144902438Y-83261904D02*
X144950057Y-83214285D01*
X144950057Y-83214285D02*
X145045295Y-83166666D01*
X145045295Y-83166666D02*
X145188152Y-83166666D01*
X145188152Y-83166666D02*
X145283390Y-83214285D01*
X145283390Y-83214285D02*
X145331009Y-83261904D01*
X145331009Y-83261904D02*
X145378628Y-83357142D01*
X145378628Y-83357142D02*
X145378628Y-83738094D01*
X144854819Y-82833332D02*
X144854819Y-82214285D01*
X144854819Y-82214285D02*
X145235771Y-82547618D01*
X145235771Y-82547618D02*
X145235771Y-82404761D01*
X145235771Y-82404761D02*
X145283390Y-82309523D01*
X145283390Y-82309523D02*
X145331009Y-82261904D01*
X145331009Y-82261904D02*
X145426247Y-82214285D01*
X145426247Y-82214285D02*
X145664342Y-82214285D01*
X145664342Y-82214285D02*
X145759580Y-82261904D01*
X145759580Y-82261904D02*
X145807200Y-82309523D01*
X145807200Y-82309523D02*
X145854819Y-82404761D01*
X145854819Y-82404761D02*
X145854819Y-82690475D01*
X145854819Y-82690475D02*
X145807200Y-82785713D01*
X145807200Y-82785713D02*
X145759580Y-82833332D01*
X144866666Y-93954819D02*
X144866666Y-94669104D01*
X144866666Y-94669104D02*
X144819047Y-94811961D01*
X144819047Y-94811961D02*
X144723809Y-94907200D01*
X144723809Y-94907200D02*
X144580952Y-94954819D01*
X144580952Y-94954819D02*
X144485714Y-94954819D01*
X145866666Y-94954819D02*
X145295238Y-94954819D01*
X145580952Y-94954819D02*
X145580952Y-93954819D01*
X145580952Y-93954819D02*
X145485714Y-94097676D01*
X145485714Y-94097676D02*
X145390476Y-94192914D01*
X145390476Y-94192914D02*
X145295238Y-94240533D01*
X147654819Y-80266666D02*
X147178628Y-80599999D01*
X147654819Y-80838094D02*
X146654819Y-80838094D01*
X146654819Y-80838094D02*
X146654819Y-80457142D01*
X146654819Y-80457142D02*
X146702438Y-80361904D01*
X146702438Y-80361904D02*
X146750057Y-80314285D01*
X146750057Y-80314285D02*
X146845295Y-80266666D01*
X146845295Y-80266666D02*
X146988152Y-80266666D01*
X146988152Y-80266666D02*
X147083390Y-80314285D01*
X147083390Y-80314285D02*
X147131009Y-80361904D01*
X147131009Y-80361904D02*
X147178628Y-80457142D01*
X147178628Y-80457142D02*
X147178628Y-80838094D01*
X146750057Y-79885713D02*
X146702438Y-79838094D01*
X146702438Y-79838094D02*
X146654819Y-79742856D01*
X146654819Y-79742856D02*
X146654819Y-79504761D01*
X146654819Y-79504761D02*
X146702438Y-79409523D01*
X146702438Y-79409523D02*
X146750057Y-79361904D01*
X146750057Y-79361904D02*
X146845295Y-79314285D01*
X146845295Y-79314285D02*
X146940533Y-79314285D01*
X146940533Y-79314285D02*
X147083390Y-79361904D01*
X147083390Y-79361904D02*
X147654819Y-79933332D01*
X147654819Y-79933332D02*
X147654819Y-79314285D01*
X159133333Y-79659580D02*
X159085714Y-79707200D01*
X159085714Y-79707200D02*
X158942857Y-79754819D01*
X158942857Y-79754819D02*
X158847619Y-79754819D01*
X158847619Y-79754819D02*
X158704762Y-79707200D01*
X158704762Y-79707200D02*
X158609524Y-79611961D01*
X158609524Y-79611961D02*
X158561905Y-79516723D01*
X158561905Y-79516723D02*
X158514286Y-79326247D01*
X158514286Y-79326247D02*
X158514286Y-79183390D01*
X158514286Y-79183390D02*
X158561905Y-78992914D01*
X158561905Y-78992914D02*
X158609524Y-78897676D01*
X158609524Y-78897676D02*
X158704762Y-78802438D01*
X158704762Y-78802438D02*
X158847619Y-78754819D01*
X158847619Y-78754819D02*
X158942857Y-78754819D01*
X158942857Y-78754819D02*
X159085714Y-78802438D01*
X159085714Y-78802438D02*
X159133333Y-78850057D01*
X159514286Y-78850057D02*
X159561905Y-78802438D01*
X159561905Y-78802438D02*
X159657143Y-78754819D01*
X159657143Y-78754819D02*
X159895238Y-78754819D01*
X159895238Y-78754819D02*
X159990476Y-78802438D01*
X159990476Y-78802438D02*
X160038095Y-78850057D01*
X160038095Y-78850057D02*
X160085714Y-78945295D01*
X160085714Y-78945295D02*
X160085714Y-79040533D01*
X160085714Y-79040533D02*
X160038095Y-79183390D01*
X160038095Y-79183390D02*
X159466667Y-79754819D01*
X159466667Y-79754819D02*
X160085714Y-79754819D01*
D10*
X147166666Y-74257419D02*
X147166666Y-74971704D01*
X147166666Y-74971704D02*
X147119047Y-75114561D01*
X147119047Y-75114561D02*
X147023809Y-75209800D01*
X147023809Y-75209800D02*
X146880952Y-75257419D01*
X146880952Y-75257419D02*
X146785714Y-75257419D01*
X148071428Y-74257419D02*
X147880952Y-74257419D01*
X147880952Y-74257419D02*
X147785714Y-74305038D01*
X147785714Y-74305038D02*
X147738095Y-74352657D01*
X147738095Y-74352657D02*
X147642857Y-74495514D01*
X147642857Y-74495514D02*
X147595238Y-74685990D01*
X147595238Y-74685990D02*
X147595238Y-75066942D01*
X147595238Y-75066942D02*
X147642857Y-75162180D01*
X147642857Y-75162180D02*
X147690476Y-75209800D01*
X147690476Y-75209800D02*
X147785714Y-75257419D01*
X147785714Y-75257419D02*
X147976190Y-75257419D01*
X147976190Y-75257419D02*
X148071428Y-75209800D01*
X148071428Y-75209800D02*
X148119047Y-75162180D01*
X148119047Y-75162180D02*
X148166666Y-75066942D01*
X148166666Y-75066942D02*
X148166666Y-74828847D01*
X148166666Y-74828847D02*
X148119047Y-74733609D01*
X148119047Y-74733609D02*
X148071428Y-74685990D01*
X148071428Y-74685990D02*
X147976190Y-74638371D01*
X147976190Y-74638371D02*
X147785714Y-74638371D01*
X147785714Y-74638371D02*
X147690476Y-74685990D01*
X147690476Y-74685990D02*
X147642857Y-74733609D01*
X147642857Y-74733609D02*
X147595238Y-74828847D01*
D11*
X142066666Y-76454819D02*
X142066666Y-77169104D01*
X142066666Y-77169104D02*
X142019047Y-77311961D01*
X142019047Y-77311961D02*
X141923809Y-77407200D01*
X141923809Y-77407200D02*
X141780952Y-77454819D01*
X141780952Y-77454819D02*
X141685714Y-77454819D01*
X142495238Y-76550057D02*
X142542857Y-76502438D01*
X142542857Y-76502438D02*
X142638095Y-76454819D01*
X142638095Y-76454819D02*
X142876190Y-76454819D01*
X142876190Y-76454819D02*
X142971428Y-76502438D01*
X142971428Y-76502438D02*
X143019047Y-76550057D01*
X143019047Y-76550057D02*
X143066666Y-76645295D01*
X143066666Y-76645295D02*
X143066666Y-76740533D01*
X143066666Y-76740533D02*
X143019047Y-76883390D01*
X143019047Y-76883390D02*
X142447619Y-77454819D01*
X142447619Y-77454819D02*
X143066666Y-77454819D01*
X157266666Y-92854819D02*
X157266666Y-93569104D01*
X157266666Y-93569104D02*
X157219047Y-93711961D01*
X157219047Y-93711961D02*
X157123809Y-93807200D01*
X157123809Y-93807200D02*
X156980952Y-93854819D01*
X156980952Y-93854819D02*
X156885714Y-93854819D01*
X158219047Y-92854819D02*
X157742857Y-92854819D01*
X157742857Y-92854819D02*
X157695238Y-93331009D01*
X157695238Y-93331009D02*
X157742857Y-93283390D01*
X157742857Y-93283390D02*
X157838095Y-93235771D01*
X157838095Y-93235771D02*
X158076190Y-93235771D01*
X158076190Y-93235771D02*
X158171428Y-93283390D01*
X158171428Y-93283390D02*
X158219047Y-93331009D01*
X158219047Y-93331009D02*
X158266666Y-93426247D01*
X158266666Y-93426247D02*
X158266666Y-93664342D01*
X158266666Y-93664342D02*
X158219047Y-93759580D01*
X158219047Y-93759580D02*
X158171428Y-93807200D01*
X158171428Y-93807200D02*
X158076190Y-93854819D01*
X158076190Y-93854819D02*
X157838095Y-93854819D01*
X157838095Y-93854819D02*
X157742857Y-93807200D01*
X157742857Y-93807200D02*
X157695238Y-93759580D01*
%TO.C,C6*%
D13*
X151965000Y-79861252D02*
X151965000Y-79338748D01*
X153435000Y-79861252D02*
X153435000Y-79338748D01*
%TO.C,C7*%
D14*
X150125000Y-88725000D02*
X146150000Y-88725000D01*
X152650000Y-94025000D02*
X146150000Y-94025000D01*
%TO.C,PS1*%
X157507500Y-82600000D02*
X158757500Y-82600000D01*
X159107500Y-82640000D02*
X159257500Y-82640000D01*
X159107500Y-85560000D02*
X159107500Y-82640000D01*
X159257500Y-82640000D02*
X159257500Y-85560000D01*
X159257500Y-85560000D02*
X159107500Y-85560000D01*
%TO.C,C1*%
D13*
X158876248Y-86365000D02*
X159398752Y-86365000D01*
X158876248Y-87835000D02*
X159398752Y-87835000D01*
%TO.C,R1*%
X146565000Y-85572936D02*
X146565000Y-86027064D01*
X148035000Y-85572936D02*
X148035000Y-86027064D01*
%TO.C,C5*%
X153965000Y-79861252D02*
X153965000Y-79338748D01*
X155435000Y-79861252D02*
X155435000Y-79338748D01*
%TO.C,R3*%
X144565000Y-85572936D02*
X144565000Y-86027064D01*
X146035000Y-85572936D02*
X146035000Y-86027064D01*
%TO.C,IC1*%
D14*
X148625000Y-82020000D02*
X150152000Y-82020000D01*
X150502000Y-82148000D02*
X153698000Y-82148000D01*
X150502000Y-87052000D02*
X150502000Y-82148000D01*
X153698000Y-82148000D02*
X153698000Y-87052000D01*
X153698000Y-87052000D02*
X150502000Y-87052000D01*
%TO.C,J1*%
D13*
X141120000Y-92230000D02*
X141120000Y-87040000D01*
X143880000Y-87040000D02*
X141120000Y-87040000D01*
X143880000Y-92230000D02*
X141120000Y-92230000D01*
X143880000Y-92230000D02*
X143880000Y-87040000D01*
X143880000Y-93500000D02*
X143880000Y-94880000D01*
X143880000Y-94880000D02*
X142500000Y-94880000D01*
%TO.C,R2*%
X149927064Y-79465000D02*
X149472936Y-79465000D01*
X149927064Y-80935000D02*
X149472936Y-80935000D01*
%TO.C,C2*%
X158876248Y-80365000D02*
X159398752Y-80365000D01*
X158876248Y-81835000D02*
X159398752Y-81835000D01*
%TO.C,J6*%
D10*
X143810000Y-67260000D02*
X143810000Y-68260000D01*
X143810000Y-68260000D02*
X144810000Y-68260000D01*
X144810000Y-64760000D02*
X144810000Y-67260000D01*
X144810000Y-67260000D02*
X143810000Y-67260000D01*
X144810000Y-68260000D02*
X144810000Y-69060000D01*
X144810000Y-77610000D02*
X144810000Y-72560000D01*
X144810000Y-77610000D02*
X159810000Y-77610000D01*
X159810000Y-64760000D02*
X144810000Y-64760000D01*
X159810000Y-64760000D02*
X159810000Y-67260000D01*
X159810000Y-67260000D02*
X160810000Y-67260000D01*
X159810000Y-68260000D02*
X159810000Y-69060000D01*
X159810000Y-77610000D02*
X159810000Y-72560000D01*
X160810000Y-67260000D02*
X160810000Y-68260000D01*
X160810000Y-68260000D02*
X159810000Y-68260000D01*
%TO.C,J2*%
D13*
X141120000Y-78180000D02*
X142500000Y-78180000D01*
X141120000Y-79560000D02*
X141120000Y-78180000D01*
X141120000Y-80830000D02*
X141120000Y-86020000D01*
X141120000Y-80830000D02*
X143880000Y-80830000D01*
X141120000Y-86020000D02*
X143880000Y-86020000D01*
X143880000Y-80830000D02*
X143880000Y-86020000D01*
%TO.C,J5*%
X153500000Y-88625000D02*
X153500000Y-89875000D01*
X153800000Y-91175000D02*
X154550000Y-91175000D01*
X154550000Y-91175000D02*
X154550000Y-94125000D01*
X154550000Y-94125000D02*
X157600000Y-94125000D01*
X154750000Y-88625000D02*
X153500000Y-88625000D01*
X160650000Y-91175000D02*
X160650000Y-94125000D01*
X160650000Y-94125000D02*
X157600000Y-94125000D01*
X161400000Y-91175000D02*
X160650000Y-91175000D01*
X153790000Y-88915000D02*
X161410000Y-88915000D01*
X161410000Y-94885000D01*
X153790000Y-94885000D01*
X153790000Y-88915000D01*
X153800000Y-88925000D02*
X155600000Y-88925000D01*
X155600000Y-89675000D01*
X153800000Y-89675000D01*
X153800000Y-88925000D01*
X157100000Y-88925000D02*
X158100000Y-88925000D01*
X158100000Y-89675000D01*
X157100000Y-89675000D01*
X157100000Y-88925000D01*
X159600000Y-88925000D02*
X161400000Y-88925000D01*
X161400000Y-89675000D01*
X159600000Y-89675000D01*
X159600000Y-88925000D01*
%TD*%
M02*
