%TF.GenerationSoftware,KiCad,Pcbnew,10.0.1*%
%TF.CreationDate,2026-07-11T21:18:00-07:00*%
%TF.ProjectId,tile,74696c65-2e6b-4696-9361-645f70636258,rev?*%
%TF.SameCoordinates,Original*%
%TF.FileFunction,Legend,Bot*%
%TF.FilePolarity,Positive*%
%FSLAX46Y46*%
G04 Gerber Fmt 4.6, Leading zero omitted, Abs format (unit mm)*
G04 Created by KiCad (PCBNEW 10.0.1) date 2026-07-11 21:18:00*
%MOMM*%
%LPD*%
G01*
G04 APERTURE LIST*
%ADD10C,0.100000*%
%ADD11C,0.150000*%
%ADD12C,0.120000*%
G04 APERTURE END LIST*
D10*
X146105639Y-84220038D02*
X146200877Y-84172419D01*
X146200877Y-84172419D02*
X146343734Y-84172419D01*
X146343734Y-84172419D02*
X146486591Y-84220038D01*
X146486591Y-84220038D02*
X146581829Y-84315276D01*
X146581829Y-84315276D02*
X146629448Y-84410514D01*
X146629448Y-84410514D02*
X146677067Y-84600990D01*
X146677067Y-84600990D02*
X146677067Y-84743847D01*
X146677067Y-84743847D02*
X146629448Y-84934323D01*
X146629448Y-84934323D02*
X146581829Y-85029561D01*
X146581829Y-85029561D02*
X146486591Y-85124800D01*
X146486591Y-85124800D02*
X146343734Y-85172419D01*
X146343734Y-85172419D02*
X146248496Y-85172419D01*
X146248496Y-85172419D02*
X146105639Y-85124800D01*
X146105639Y-85124800D02*
X146058020Y-85077180D01*
X146058020Y-85077180D02*
X146058020Y-84743847D01*
X146058020Y-84743847D02*
X146248496Y-84743847D01*
X145629448Y-85172419D02*
X145629448Y-84172419D01*
X145629448Y-84172419D02*
X145058020Y-85172419D01*
X145058020Y-85172419D02*
X145058020Y-84172419D01*
X144581829Y-85172419D02*
X144581829Y-84172419D01*
X144581829Y-84172419D02*
X144343734Y-84172419D01*
X144343734Y-84172419D02*
X144200877Y-84220038D01*
X144200877Y-84220038D02*
X144105639Y-84315276D01*
X144105639Y-84315276D02*
X144058020Y-84410514D01*
X144058020Y-84410514D02*
X144010401Y-84600990D01*
X144010401Y-84600990D02*
X144010401Y-84743847D01*
X144010401Y-84743847D02*
X144058020Y-84934323D01*
X144058020Y-84934323D02*
X144105639Y-85029561D01*
X144105639Y-85029561D02*
X144200877Y-85124800D01*
X144200877Y-85124800D02*
X144343734Y-85172419D01*
X144343734Y-85172419D02*
X144581829Y-85172419D01*
X144581829Y-82772419D02*
X144581829Y-81772419D01*
X144581829Y-81772419D02*
X144343734Y-81772419D01*
X144343734Y-81772419D02*
X144200877Y-81820038D01*
X144200877Y-81820038D02*
X144105639Y-81915276D01*
X144105639Y-81915276D02*
X144058020Y-82010514D01*
X144058020Y-82010514D02*
X144010401Y-82200990D01*
X144010401Y-82200990D02*
X144010401Y-82343847D01*
X144010401Y-82343847D02*
X144058020Y-82534323D01*
X144058020Y-82534323D02*
X144105639Y-82629561D01*
X144105639Y-82629561D02*
X144200877Y-82724800D01*
X144200877Y-82724800D02*
X144343734Y-82772419D01*
X144343734Y-82772419D02*
X144581829Y-82772419D01*
X144819925Y-79172419D02*
X145296115Y-79172419D01*
X145296115Y-79172419D02*
X145343734Y-79648609D01*
X145343734Y-79648609D02*
X145296115Y-79600990D01*
X145296115Y-79600990D02*
X145200877Y-79553371D01*
X145200877Y-79553371D02*
X144962782Y-79553371D01*
X144962782Y-79553371D02*
X144867544Y-79600990D01*
X144867544Y-79600990D02*
X144819925Y-79648609D01*
X144819925Y-79648609D02*
X144772306Y-79743847D01*
X144772306Y-79743847D02*
X144772306Y-79981942D01*
X144772306Y-79981942D02*
X144819925Y-80077180D01*
X144819925Y-80077180D02*
X144867544Y-80124800D01*
X144867544Y-80124800D02*
X144962782Y-80172419D01*
X144962782Y-80172419D02*
X145200877Y-80172419D01*
X145200877Y-80172419D02*
X145296115Y-80124800D01*
X145296115Y-80124800D02*
X145343734Y-80077180D01*
X144438972Y-79505752D02*
X144200877Y-80172419D01*
X144200877Y-80172419D02*
X143962782Y-79505752D01*
X146000877Y-87920038D02*
X146096115Y-87872419D01*
X146096115Y-87872419D02*
X146238972Y-87872419D01*
X146238972Y-87872419D02*
X146381829Y-87920038D01*
X146381829Y-87920038D02*
X146477067Y-88015276D01*
X146477067Y-88015276D02*
X146524686Y-88110514D01*
X146524686Y-88110514D02*
X146572305Y-88300990D01*
X146572305Y-88300990D02*
X146572305Y-88443847D01*
X146572305Y-88443847D02*
X146524686Y-88634323D01*
X146524686Y-88634323D02*
X146477067Y-88729561D01*
X146477067Y-88729561D02*
X146381829Y-88824800D01*
X146381829Y-88824800D02*
X146238972Y-88872419D01*
X146238972Y-88872419D02*
X146143734Y-88872419D01*
X146143734Y-88872419D02*
X146000877Y-88824800D01*
X146000877Y-88824800D02*
X145953258Y-88777180D01*
X145953258Y-88777180D02*
X145953258Y-88443847D01*
X145953258Y-88443847D02*
X146143734Y-88443847D01*
X145524686Y-88872419D02*
X145524686Y-87872419D01*
X145524686Y-87872419D02*
X144953258Y-88872419D01*
X144953258Y-88872419D02*
X144953258Y-87872419D01*
X144477067Y-88872419D02*
X144477067Y-87872419D01*
X144477067Y-87872419D02*
X144238972Y-87872419D01*
X144238972Y-87872419D02*
X144096115Y-87920038D01*
X144096115Y-87920038D02*
X144000877Y-88015276D01*
X144000877Y-88015276D02*
X143953258Y-88110514D01*
X143953258Y-88110514D02*
X143905639Y-88300990D01*
X143905639Y-88300990D02*
X143905639Y-88443847D01*
X143905639Y-88443847D02*
X143953258Y-88634323D01*
X143953258Y-88634323D02*
X144000877Y-88729561D01*
X144000877Y-88729561D02*
X144096115Y-88824800D01*
X144096115Y-88824800D02*
X144238972Y-88872419D01*
X144238972Y-88872419D02*
X144477067Y-88872419D01*
X145715163Y-94272419D02*
X146286591Y-94272419D01*
X146000877Y-94272419D02*
X146000877Y-93272419D01*
X146000877Y-93272419D02*
X146096115Y-93415276D01*
X146096115Y-93415276D02*
X146191353Y-93510514D01*
X146191353Y-93510514D02*
X146286591Y-93558133D01*
X145334210Y-93367657D02*
X145286591Y-93320038D01*
X145286591Y-93320038D02*
X145191353Y-93272419D01*
X145191353Y-93272419D02*
X144953258Y-93272419D01*
X144953258Y-93272419D02*
X144858020Y-93320038D01*
X144858020Y-93320038D02*
X144810401Y-93367657D01*
X144810401Y-93367657D02*
X144762782Y-93462895D01*
X144762782Y-93462895D02*
X144762782Y-93558133D01*
X144762782Y-93558133D02*
X144810401Y-93700990D01*
X144810401Y-93700990D02*
X145381829Y-94272419D01*
X145381829Y-94272419D02*
X144762782Y-94272419D01*
X144477067Y-93272419D02*
X144143734Y-94272419D01*
X144143734Y-94272419D02*
X143810401Y-93272419D01*
X146096115Y-91572419D02*
X146096115Y-90572419D01*
X146096115Y-90572419D02*
X145858020Y-90572419D01*
X145858020Y-90572419D02*
X145715163Y-90620038D01*
X145715163Y-90620038D02*
X145619925Y-90715276D01*
X145619925Y-90715276D02*
X145572306Y-90810514D01*
X145572306Y-90810514D02*
X145524687Y-91000990D01*
X145524687Y-91000990D02*
X145524687Y-91143847D01*
X145524687Y-91143847D02*
X145572306Y-91334323D01*
X145572306Y-91334323D02*
X145619925Y-91429561D01*
X145619925Y-91429561D02*
X145715163Y-91524800D01*
X145715163Y-91524800D02*
X145858020Y-91572419D01*
X145858020Y-91572419D02*
X146096115Y-91572419D01*
X145143734Y-91286704D02*
X144667544Y-91286704D01*
X145238972Y-91572419D02*
X144905639Y-90572419D01*
X144905639Y-90572419D02*
X144572306Y-91572419D01*
X144381829Y-90572419D02*
X143810401Y-90572419D01*
X144096115Y-91572419D02*
X144096115Y-90572419D01*
X149843734Y-71686704D02*
X149367544Y-71686704D01*
X149938972Y-71972419D02*
X149605639Y-70972419D01*
X149605639Y-70972419D02*
X149272306Y-71972419D01*
X150662782Y-76948609D02*
X150519925Y-76996228D01*
X150519925Y-76996228D02*
X150472306Y-77043847D01*
X150472306Y-77043847D02*
X150424687Y-77139085D01*
X150424687Y-77139085D02*
X150424687Y-77281942D01*
X150424687Y-77281942D02*
X150472306Y-77377180D01*
X150472306Y-77377180D02*
X150519925Y-77424800D01*
X150519925Y-77424800D02*
X150615163Y-77472419D01*
X150615163Y-77472419D02*
X150996115Y-77472419D01*
X150996115Y-77472419D02*
X150996115Y-76472419D01*
X150996115Y-76472419D02*
X150662782Y-76472419D01*
X150662782Y-76472419D02*
X150567544Y-76520038D01*
X150567544Y-76520038D02*
X150519925Y-76567657D01*
X150519925Y-76567657D02*
X150472306Y-76662895D01*
X150472306Y-76662895D02*
X150472306Y-76758133D01*
X150472306Y-76758133D02*
X150519925Y-76853371D01*
X150519925Y-76853371D02*
X150567544Y-76900990D01*
X150567544Y-76900990D02*
X150662782Y-76948609D01*
X150662782Y-76948609D02*
X150996115Y-76948609D01*
X153743734Y-72024800D02*
X153600877Y-72072419D01*
X153600877Y-72072419D02*
X153362782Y-72072419D01*
X153362782Y-72072419D02*
X153267544Y-72024800D01*
X153267544Y-72024800D02*
X153219925Y-71977180D01*
X153219925Y-71977180D02*
X153172306Y-71881942D01*
X153172306Y-71881942D02*
X153172306Y-71786704D01*
X153172306Y-71786704D02*
X153219925Y-71691466D01*
X153219925Y-71691466D02*
X153267544Y-71643847D01*
X153267544Y-71643847D02*
X153362782Y-71596228D01*
X153362782Y-71596228D02*
X153553258Y-71548609D01*
X153553258Y-71548609D02*
X153648496Y-71500990D01*
X153648496Y-71500990D02*
X153696115Y-71453371D01*
X153696115Y-71453371D02*
X153743734Y-71358133D01*
X153743734Y-71358133D02*
X153743734Y-71262895D01*
X153743734Y-71262895D02*
X153696115Y-71167657D01*
X153696115Y-71167657D02*
X153648496Y-71120038D01*
X153648496Y-71120038D02*
X153553258Y-71072419D01*
X153553258Y-71072419D02*
X153315163Y-71072419D01*
X153315163Y-71072419D02*
X153172306Y-71120038D01*
X152743734Y-72072419D02*
X152743734Y-71405752D01*
X152743734Y-71072419D02*
X152791353Y-71120038D01*
X152791353Y-71120038D02*
X152743734Y-71167657D01*
X152743734Y-71167657D02*
X152696115Y-71120038D01*
X152696115Y-71120038D02*
X152743734Y-71072419D01*
X152743734Y-71072419D02*
X152743734Y-71167657D01*
X152267544Y-71405752D02*
X152267544Y-72072419D01*
X152267544Y-71500990D02*
X152219925Y-71453371D01*
X152219925Y-71453371D02*
X152124687Y-71405752D01*
X152124687Y-71405752D02*
X151981830Y-71405752D01*
X151981830Y-71405752D02*
X151886592Y-71453371D01*
X151886592Y-71453371D02*
X151838973Y-71548609D01*
X151838973Y-71548609D02*
X151838973Y-72072419D01*
X159143734Y-73424800D02*
X159000877Y-73472419D01*
X159000877Y-73472419D02*
X158762782Y-73472419D01*
X158762782Y-73472419D02*
X158667544Y-73424800D01*
X158667544Y-73424800D02*
X158619925Y-73377180D01*
X158619925Y-73377180D02*
X158572306Y-73281942D01*
X158572306Y-73281942D02*
X158572306Y-73186704D01*
X158572306Y-73186704D02*
X158619925Y-73091466D01*
X158619925Y-73091466D02*
X158667544Y-73043847D01*
X158667544Y-73043847D02*
X158762782Y-72996228D01*
X158762782Y-72996228D02*
X158953258Y-72948609D01*
X158953258Y-72948609D02*
X159048496Y-72900990D01*
X159048496Y-72900990D02*
X159096115Y-72853371D01*
X159096115Y-72853371D02*
X159143734Y-72758133D01*
X159143734Y-72758133D02*
X159143734Y-72662895D01*
X159143734Y-72662895D02*
X159096115Y-72567657D01*
X159096115Y-72567657D02*
X159048496Y-72520038D01*
X159048496Y-72520038D02*
X158953258Y-72472419D01*
X158953258Y-72472419D02*
X158715163Y-72472419D01*
X158715163Y-72472419D02*
X158572306Y-72520038D01*
X158000877Y-73472419D02*
X158096115Y-73424800D01*
X158096115Y-73424800D02*
X158143734Y-73377180D01*
X158143734Y-73377180D02*
X158191353Y-73281942D01*
X158191353Y-73281942D02*
X158191353Y-72996228D01*
X158191353Y-72996228D02*
X158143734Y-72900990D01*
X158143734Y-72900990D02*
X158096115Y-72853371D01*
X158096115Y-72853371D02*
X158000877Y-72805752D01*
X158000877Y-72805752D02*
X157858020Y-72805752D01*
X157858020Y-72805752D02*
X157762782Y-72853371D01*
X157762782Y-72853371D02*
X157715163Y-72900990D01*
X157715163Y-72900990D02*
X157667544Y-72996228D01*
X157667544Y-72996228D02*
X157667544Y-73281942D01*
X157667544Y-73281942D02*
X157715163Y-73377180D01*
X157715163Y-73377180D02*
X157762782Y-73424800D01*
X157762782Y-73424800D02*
X157858020Y-73472419D01*
X157858020Y-73472419D02*
X158000877Y-73472419D01*
X156810401Y-72805752D02*
X156810401Y-73472419D01*
X157238972Y-72805752D02*
X157238972Y-73329561D01*
X157238972Y-73329561D02*
X157191353Y-73424800D01*
X157191353Y-73424800D02*
X157096115Y-73472419D01*
X157096115Y-73472419D02*
X156953258Y-73472419D01*
X156953258Y-73472419D02*
X156858020Y-73424800D01*
X156858020Y-73424800D02*
X156810401Y-73377180D01*
X156477067Y-72805752D02*
X156096115Y-72805752D01*
X156334210Y-72472419D02*
X156334210Y-73329561D01*
X156334210Y-73329561D02*
X156286591Y-73424800D01*
X156286591Y-73424800D02*
X156191353Y-73472419D01*
X156191353Y-73472419D02*
X156096115Y-73472419D01*
X159272306Y-75120038D02*
X159367544Y-75072419D01*
X159367544Y-75072419D02*
X159510401Y-75072419D01*
X159510401Y-75072419D02*
X159653258Y-75120038D01*
X159653258Y-75120038D02*
X159748496Y-75215276D01*
X159748496Y-75215276D02*
X159796115Y-75310514D01*
X159796115Y-75310514D02*
X159843734Y-75500990D01*
X159843734Y-75500990D02*
X159843734Y-75643847D01*
X159843734Y-75643847D02*
X159796115Y-75834323D01*
X159796115Y-75834323D02*
X159748496Y-75929561D01*
X159748496Y-75929561D02*
X159653258Y-76024800D01*
X159653258Y-76024800D02*
X159510401Y-76072419D01*
X159510401Y-76072419D02*
X159415163Y-76072419D01*
X159415163Y-76072419D02*
X159272306Y-76024800D01*
X159272306Y-76024800D02*
X159224687Y-75977180D01*
X159224687Y-75977180D02*
X159224687Y-75643847D01*
X159224687Y-75643847D02*
X159415163Y-75643847D01*
X158796115Y-76072419D02*
X158796115Y-75072419D01*
X158796115Y-75072419D02*
X158224687Y-76072419D01*
X158224687Y-76072419D02*
X158224687Y-75072419D01*
X157748496Y-76072419D02*
X157748496Y-75072419D01*
X157748496Y-75072419D02*
X157510401Y-75072419D01*
X157510401Y-75072419D02*
X157367544Y-75120038D01*
X157367544Y-75120038D02*
X157272306Y-75215276D01*
X157272306Y-75215276D02*
X157224687Y-75310514D01*
X157224687Y-75310514D02*
X157177068Y-75500990D01*
X157177068Y-75500990D02*
X157177068Y-75643847D01*
X157177068Y-75643847D02*
X157224687Y-75834323D01*
X157224687Y-75834323D02*
X157272306Y-75929561D01*
X157272306Y-75929561D02*
X157367544Y-76024800D01*
X157367544Y-76024800D02*
X157510401Y-76072419D01*
X157510401Y-76072419D02*
X157748496Y-76072419D01*
X160808853Y-80305752D02*
X160570758Y-80972419D01*
X160570758Y-80972419D02*
X160332663Y-80305752D01*
X159427901Y-80972419D02*
X159999329Y-80972419D01*
X159713615Y-80972419D02*
X159713615Y-79972419D01*
X159713615Y-79972419D02*
X159808853Y-80115276D01*
X159808853Y-80115276D02*
X159904091Y-80210514D01*
X159904091Y-80210514D02*
X159999329Y-80258133D01*
X158999329Y-80877180D02*
X158951710Y-80924800D01*
X158951710Y-80924800D02*
X158999329Y-80972419D01*
X158999329Y-80972419D02*
X159046948Y-80924800D01*
X159046948Y-80924800D02*
X158999329Y-80877180D01*
X158999329Y-80877180D02*
X158999329Y-80972419D01*
X158570758Y-80067657D02*
X158523139Y-80020038D01*
X158523139Y-80020038D02*
X158427901Y-79972419D01*
X158427901Y-79972419D02*
X158189806Y-79972419D01*
X158189806Y-79972419D02*
X158094568Y-80020038D01*
X158094568Y-80020038D02*
X158046949Y-80067657D01*
X158046949Y-80067657D02*
X157999330Y-80162895D01*
X157999330Y-80162895D02*
X157999330Y-80258133D01*
X157999330Y-80258133D02*
X158046949Y-80400990D01*
X158046949Y-80400990D02*
X158618377Y-80972419D01*
X158618377Y-80972419D02*
X157999330Y-80972419D01*
X156856472Y-80067657D02*
X156808853Y-80020038D01*
X156808853Y-80020038D02*
X156713615Y-79972419D01*
X156713615Y-79972419D02*
X156475520Y-79972419D01*
X156475520Y-79972419D02*
X156380282Y-80020038D01*
X156380282Y-80020038D02*
X156332663Y-80067657D01*
X156332663Y-80067657D02*
X156285044Y-80162895D01*
X156285044Y-80162895D02*
X156285044Y-80258133D01*
X156285044Y-80258133D02*
X156332663Y-80400990D01*
X156332663Y-80400990D02*
X156904091Y-80972419D01*
X156904091Y-80972419D02*
X156285044Y-80972419D01*
X155665996Y-79972419D02*
X155570758Y-79972419D01*
X155570758Y-79972419D02*
X155475520Y-80020038D01*
X155475520Y-80020038D02*
X155427901Y-80067657D01*
X155427901Y-80067657D02*
X155380282Y-80162895D01*
X155380282Y-80162895D02*
X155332663Y-80353371D01*
X155332663Y-80353371D02*
X155332663Y-80591466D01*
X155332663Y-80591466D02*
X155380282Y-80781942D01*
X155380282Y-80781942D02*
X155427901Y-80877180D01*
X155427901Y-80877180D02*
X155475520Y-80924800D01*
X155475520Y-80924800D02*
X155570758Y-80972419D01*
X155570758Y-80972419D02*
X155665996Y-80972419D01*
X155665996Y-80972419D02*
X155761234Y-80924800D01*
X155761234Y-80924800D02*
X155808853Y-80877180D01*
X155808853Y-80877180D02*
X155856472Y-80781942D01*
X155856472Y-80781942D02*
X155904091Y-80591466D01*
X155904091Y-80591466D02*
X155904091Y-80353371D01*
X155904091Y-80353371D02*
X155856472Y-80162895D01*
X155856472Y-80162895D02*
X155808853Y-80067657D01*
X155808853Y-80067657D02*
X155761234Y-80020038D01*
X155761234Y-80020038D02*
X155665996Y-79972419D01*
X154951710Y-80067657D02*
X154904091Y-80020038D01*
X154904091Y-80020038D02*
X154808853Y-79972419D01*
X154808853Y-79972419D02*
X154570758Y-79972419D01*
X154570758Y-79972419D02*
X154475520Y-80020038D01*
X154475520Y-80020038D02*
X154427901Y-80067657D01*
X154427901Y-80067657D02*
X154380282Y-80162895D01*
X154380282Y-80162895D02*
X154380282Y-80258133D01*
X154380282Y-80258133D02*
X154427901Y-80400990D01*
X154427901Y-80400990D02*
X154999329Y-80972419D01*
X154999329Y-80972419D02*
X154380282Y-80972419D01*
X153523139Y-79972419D02*
X153713615Y-79972419D01*
X153713615Y-79972419D02*
X153808853Y-80020038D01*
X153808853Y-80020038D02*
X153856472Y-80067657D01*
X153856472Y-80067657D02*
X153951710Y-80210514D01*
X153951710Y-80210514D02*
X153999329Y-80400990D01*
X153999329Y-80400990D02*
X153999329Y-80781942D01*
X153999329Y-80781942D02*
X153951710Y-80877180D01*
X153951710Y-80877180D02*
X153904091Y-80924800D01*
X153904091Y-80924800D02*
X153808853Y-80972419D01*
X153808853Y-80972419D02*
X153618377Y-80972419D01*
X153618377Y-80972419D02*
X153523139Y-80924800D01*
X153523139Y-80924800D02*
X153475520Y-80877180D01*
X153475520Y-80877180D02*
X153427901Y-80781942D01*
X153427901Y-80781942D02*
X153427901Y-80543847D01*
X153427901Y-80543847D02*
X153475520Y-80448609D01*
X153475520Y-80448609D02*
X153523139Y-80400990D01*
X153523139Y-80400990D02*
X153618377Y-80353371D01*
X153618377Y-80353371D02*
X153808853Y-80353371D01*
X153808853Y-80353371D02*
X153904091Y-80400990D01*
X153904091Y-80400990D02*
X153951710Y-80448609D01*
X153951710Y-80448609D02*
X153999329Y-80543847D01*
X152999329Y-80591466D02*
X152237425Y-80591466D01*
X151570758Y-79972419D02*
X151475520Y-79972419D01*
X151475520Y-79972419D02*
X151380282Y-80020038D01*
X151380282Y-80020038D02*
X151332663Y-80067657D01*
X151332663Y-80067657D02*
X151285044Y-80162895D01*
X151285044Y-80162895D02*
X151237425Y-80353371D01*
X151237425Y-80353371D02*
X151237425Y-80591466D01*
X151237425Y-80591466D02*
X151285044Y-80781942D01*
X151285044Y-80781942D02*
X151332663Y-80877180D01*
X151332663Y-80877180D02*
X151380282Y-80924800D01*
X151380282Y-80924800D02*
X151475520Y-80972419D01*
X151475520Y-80972419D02*
X151570758Y-80972419D01*
X151570758Y-80972419D02*
X151665996Y-80924800D01*
X151665996Y-80924800D02*
X151713615Y-80877180D01*
X151713615Y-80877180D02*
X151761234Y-80781942D01*
X151761234Y-80781942D02*
X151808853Y-80591466D01*
X151808853Y-80591466D02*
X151808853Y-80353371D01*
X151808853Y-80353371D02*
X151761234Y-80162895D01*
X151761234Y-80162895D02*
X151713615Y-80067657D01*
X151713615Y-80067657D02*
X151665996Y-80020038D01*
X151665996Y-80020038D02*
X151570758Y-79972419D01*
X150380282Y-79972419D02*
X150570758Y-79972419D01*
X150570758Y-79972419D02*
X150665996Y-80020038D01*
X150665996Y-80020038D02*
X150713615Y-80067657D01*
X150713615Y-80067657D02*
X150808853Y-80210514D01*
X150808853Y-80210514D02*
X150856472Y-80400990D01*
X150856472Y-80400990D02*
X150856472Y-80781942D01*
X150856472Y-80781942D02*
X150808853Y-80877180D01*
X150808853Y-80877180D02*
X150761234Y-80924800D01*
X150761234Y-80924800D02*
X150665996Y-80972419D01*
X150665996Y-80972419D02*
X150475520Y-80972419D01*
X150475520Y-80972419D02*
X150380282Y-80924800D01*
X150380282Y-80924800D02*
X150332663Y-80877180D01*
X150332663Y-80877180D02*
X150285044Y-80781942D01*
X150285044Y-80781942D02*
X150285044Y-80543847D01*
X150285044Y-80543847D02*
X150332663Y-80448609D01*
X150332663Y-80448609D02*
X150380282Y-80400990D01*
X150380282Y-80400990D02*
X150475520Y-80353371D01*
X150475520Y-80353371D02*
X150665996Y-80353371D01*
X150665996Y-80353371D02*
X150761234Y-80400990D01*
X150761234Y-80400990D02*
X150808853Y-80448609D01*
X150808853Y-80448609D02*
X150856472Y-80543847D01*
X149856472Y-80591466D02*
X149094568Y-80591466D01*
X148094568Y-80972419D02*
X148665996Y-80972419D01*
X148380282Y-80972419D02*
X148380282Y-79972419D01*
X148380282Y-79972419D02*
X148475520Y-80115276D01*
X148475520Y-80115276D02*
X148570758Y-80210514D01*
X148570758Y-80210514D02*
X148665996Y-80258133D01*
X147523139Y-80400990D02*
X147618377Y-80353371D01*
X147618377Y-80353371D02*
X147665996Y-80305752D01*
X147665996Y-80305752D02*
X147713615Y-80210514D01*
X147713615Y-80210514D02*
X147713615Y-80162895D01*
X147713615Y-80162895D02*
X147665996Y-80067657D01*
X147665996Y-80067657D02*
X147618377Y-80020038D01*
X147618377Y-80020038D02*
X147523139Y-79972419D01*
X147523139Y-79972419D02*
X147332663Y-79972419D01*
X147332663Y-79972419D02*
X147237425Y-80020038D01*
X147237425Y-80020038D02*
X147189806Y-80067657D01*
X147189806Y-80067657D02*
X147142187Y-80162895D01*
X147142187Y-80162895D02*
X147142187Y-80210514D01*
X147142187Y-80210514D02*
X147189806Y-80305752D01*
X147189806Y-80305752D02*
X147237425Y-80353371D01*
X147237425Y-80353371D02*
X147332663Y-80400990D01*
X147332663Y-80400990D02*
X147523139Y-80400990D01*
X147523139Y-80400990D02*
X147618377Y-80448609D01*
X147618377Y-80448609D02*
X147665996Y-80496228D01*
X147665996Y-80496228D02*
X147713615Y-80591466D01*
X147713615Y-80591466D02*
X147713615Y-80781942D01*
X147713615Y-80781942D02*
X147665996Y-80877180D01*
X147665996Y-80877180D02*
X147618377Y-80924800D01*
X147618377Y-80924800D02*
X147523139Y-80972419D01*
X147523139Y-80972419D02*
X147332663Y-80972419D01*
X147332663Y-80972419D02*
X147237425Y-80924800D01*
X147237425Y-80924800D02*
X147189806Y-80877180D01*
X147189806Y-80877180D02*
X147142187Y-80781942D01*
X147142187Y-80781942D02*
X147142187Y-80591466D01*
X147142187Y-80591466D02*
X147189806Y-80496228D01*
X147189806Y-80496228D02*
X147237425Y-80448609D01*
X147237425Y-80448609D02*
X147332663Y-80400990D01*
X160796115Y-79372419D02*
X160796115Y-78372419D01*
X160796115Y-78372419D02*
X160558020Y-78372419D01*
X160558020Y-78372419D02*
X160415163Y-78420038D01*
X160415163Y-78420038D02*
X160319925Y-78515276D01*
X160319925Y-78515276D02*
X160272306Y-78610514D01*
X160272306Y-78610514D02*
X160224687Y-78800990D01*
X160224687Y-78800990D02*
X160224687Y-78943847D01*
X160224687Y-78943847D02*
X160272306Y-79134323D01*
X160272306Y-79134323D02*
X160319925Y-79229561D01*
X160319925Y-79229561D02*
X160415163Y-79324800D01*
X160415163Y-79324800D02*
X160558020Y-79372419D01*
X160558020Y-79372419D02*
X160796115Y-79372419D01*
X159367544Y-79372419D02*
X159367544Y-78848609D01*
X159367544Y-78848609D02*
X159415163Y-78753371D01*
X159415163Y-78753371D02*
X159510401Y-78705752D01*
X159510401Y-78705752D02*
X159700877Y-78705752D01*
X159700877Y-78705752D02*
X159796115Y-78753371D01*
X159367544Y-79324800D02*
X159462782Y-79372419D01*
X159462782Y-79372419D02*
X159700877Y-79372419D01*
X159700877Y-79372419D02*
X159796115Y-79324800D01*
X159796115Y-79324800D02*
X159843734Y-79229561D01*
X159843734Y-79229561D02*
X159843734Y-79134323D01*
X159843734Y-79134323D02*
X159796115Y-79039085D01*
X159796115Y-79039085D02*
X159700877Y-78991466D01*
X159700877Y-78991466D02*
X159462782Y-78991466D01*
X159462782Y-78991466D02*
X159367544Y-78943847D01*
X158891353Y-78705752D02*
X158891353Y-79372419D01*
X158891353Y-78800990D02*
X158843734Y-78753371D01*
X158843734Y-78753371D02*
X158748496Y-78705752D01*
X158748496Y-78705752D02*
X158605639Y-78705752D01*
X158605639Y-78705752D02*
X158510401Y-78753371D01*
X158510401Y-78753371D02*
X158462782Y-78848609D01*
X158462782Y-78848609D02*
X158462782Y-79372419D01*
X157558020Y-79324800D02*
X157653258Y-79372419D01*
X157653258Y-79372419D02*
X157843734Y-79372419D01*
X157843734Y-79372419D02*
X157938972Y-79324800D01*
X157938972Y-79324800D02*
X157986591Y-79277180D01*
X157986591Y-79277180D02*
X158034210Y-79181942D01*
X158034210Y-79181942D02*
X158034210Y-78896228D01*
X158034210Y-78896228D02*
X157986591Y-78800990D01*
X157986591Y-78800990D02*
X157938972Y-78753371D01*
X157938972Y-78753371D02*
X157843734Y-78705752D01*
X157843734Y-78705752D02*
X157653258Y-78705752D01*
X157653258Y-78705752D02*
X157558020Y-78753371D01*
X156748496Y-79324800D02*
X156843734Y-79372419D01*
X156843734Y-79372419D02*
X157034210Y-79372419D01*
X157034210Y-79372419D02*
X157129448Y-79324800D01*
X157129448Y-79324800D02*
X157177067Y-79229561D01*
X157177067Y-79229561D02*
X157177067Y-78848609D01*
X157177067Y-78848609D02*
X157129448Y-78753371D01*
X157129448Y-78753371D02*
X157034210Y-78705752D01*
X157034210Y-78705752D02*
X156843734Y-78705752D01*
X156843734Y-78705752D02*
X156748496Y-78753371D01*
X156748496Y-78753371D02*
X156700877Y-78848609D01*
X156700877Y-78848609D02*
X156700877Y-78943847D01*
X156700877Y-78943847D02*
X157177067Y-79039085D01*
X156415162Y-78705752D02*
X156034210Y-78705752D01*
X156272305Y-79372419D02*
X156272305Y-78515276D01*
X156272305Y-78515276D02*
X156224686Y-78420038D01*
X156224686Y-78420038D02*
X156129448Y-78372419D01*
X156129448Y-78372419D02*
X156034210Y-78372419D01*
X155558019Y-79372419D02*
X155653257Y-79324800D01*
X155653257Y-79324800D02*
X155700876Y-79229561D01*
X155700876Y-79229561D02*
X155700876Y-78372419D01*
X155034209Y-79372419D02*
X155129447Y-79324800D01*
X155129447Y-79324800D02*
X155177066Y-79277180D01*
X155177066Y-79277180D02*
X155224685Y-79181942D01*
X155224685Y-79181942D02*
X155224685Y-78896228D01*
X155224685Y-78896228D02*
X155177066Y-78800990D01*
X155177066Y-78800990D02*
X155129447Y-78753371D01*
X155129447Y-78753371D02*
X155034209Y-78705752D01*
X155034209Y-78705752D02*
X154891352Y-78705752D01*
X154891352Y-78705752D02*
X154796114Y-78753371D01*
X154796114Y-78753371D02*
X154748495Y-78800990D01*
X154748495Y-78800990D02*
X154700876Y-78896228D01*
X154700876Y-78896228D02*
X154700876Y-79181942D01*
X154700876Y-79181942D02*
X154748495Y-79277180D01*
X154748495Y-79277180D02*
X154796114Y-79324800D01*
X154796114Y-79324800D02*
X154891352Y-79372419D01*
X154891352Y-79372419D02*
X155034209Y-79372419D01*
X154129447Y-79372419D02*
X154224685Y-79324800D01*
X154224685Y-79324800D02*
X154272304Y-79277180D01*
X154272304Y-79277180D02*
X154319923Y-79181942D01*
X154319923Y-79181942D02*
X154319923Y-78896228D01*
X154319923Y-78896228D02*
X154272304Y-78800990D01*
X154272304Y-78800990D02*
X154224685Y-78753371D01*
X154224685Y-78753371D02*
X154129447Y-78705752D01*
X154129447Y-78705752D02*
X153986590Y-78705752D01*
X153986590Y-78705752D02*
X153891352Y-78753371D01*
X153891352Y-78753371D02*
X153843733Y-78800990D01*
X153843733Y-78800990D02*
X153796114Y-78896228D01*
X153796114Y-78896228D02*
X153796114Y-79181942D01*
X153796114Y-79181942D02*
X153843733Y-79277180D01*
X153843733Y-79277180D02*
X153891352Y-79324800D01*
X153891352Y-79324800D02*
X153986590Y-79372419D01*
X153986590Y-79372419D02*
X154129447Y-79372419D01*
X153367542Y-79372419D02*
X153367542Y-78705752D01*
X153367542Y-78896228D02*
X153319923Y-78800990D01*
X153319923Y-78800990D02*
X153272304Y-78753371D01*
X153272304Y-78753371D02*
X153177066Y-78705752D01*
X153177066Y-78705752D02*
X153081828Y-78705752D01*
X152796113Y-78467657D02*
X152748494Y-78420038D01*
X152748494Y-78420038D02*
X152653256Y-78372419D01*
X152653256Y-78372419D02*
X152415161Y-78372419D01*
X152415161Y-78372419D02*
X152319923Y-78420038D01*
X152319923Y-78420038D02*
X152272304Y-78467657D01*
X152272304Y-78467657D02*
X152224685Y-78562895D01*
X152224685Y-78562895D02*
X152224685Y-78658133D01*
X152224685Y-78658133D02*
X152272304Y-78800990D01*
X152272304Y-78800990D02*
X152843732Y-79372419D01*
X152843732Y-79372419D02*
X152224685Y-79372419D01*
X151177065Y-78372419D02*
X150605637Y-78372419D01*
X150891351Y-79372419D02*
X150891351Y-78372419D01*
X150272303Y-79372419D02*
X150272303Y-78705752D01*
X150272303Y-78372419D02*
X150319922Y-78420038D01*
X150319922Y-78420038D02*
X150272303Y-78467657D01*
X150272303Y-78467657D02*
X150224684Y-78420038D01*
X150224684Y-78420038D02*
X150272303Y-78372419D01*
X150272303Y-78372419D02*
X150272303Y-78467657D01*
X149653256Y-79372419D02*
X149748494Y-79324800D01*
X149748494Y-79324800D02*
X149796113Y-79229561D01*
X149796113Y-79229561D02*
X149796113Y-78372419D01*
X148891351Y-79324800D02*
X148986589Y-79372419D01*
X148986589Y-79372419D02*
X149177065Y-79372419D01*
X149177065Y-79372419D02*
X149272303Y-79324800D01*
X149272303Y-79324800D02*
X149319922Y-79229561D01*
X149319922Y-79229561D02*
X149319922Y-78848609D01*
X149319922Y-78848609D02*
X149272303Y-78753371D01*
X149272303Y-78753371D02*
X149177065Y-78705752D01*
X149177065Y-78705752D02*
X148986589Y-78705752D01*
X148986589Y-78705752D02*
X148891351Y-78753371D01*
X148891351Y-78753371D02*
X148843732Y-78848609D01*
X148843732Y-78848609D02*
X148843732Y-78943847D01*
X148843732Y-78943847D02*
X149319922Y-79039085D01*
X156872419Y-88213407D02*
X156872419Y-87641979D01*
X156872419Y-87927693D02*
X155872419Y-87927693D01*
X155872419Y-87927693D02*
X156015276Y-87832455D01*
X156015276Y-87832455D02*
X156110514Y-87737217D01*
X156110514Y-87737217D02*
X156158133Y-87641979D01*
X155967657Y-88594360D02*
X155920038Y-88641979D01*
X155920038Y-88641979D02*
X155872419Y-88737217D01*
X155872419Y-88737217D02*
X155872419Y-88975312D01*
X155872419Y-88975312D02*
X155920038Y-89070550D01*
X155920038Y-89070550D02*
X155967657Y-89118169D01*
X155967657Y-89118169D02*
X156062895Y-89165788D01*
X156062895Y-89165788D02*
X156158133Y-89165788D01*
X156158133Y-89165788D02*
X156300990Y-89118169D01*
X156300990Y-89118169D02*
X156872419Y-88546741D01*
X156872419Y-88546741D02*
X156872419Y-89165788D01*
X155872419Y-89451503D02*
X156872419Y-89784836D01*
X156872419Y-89784836D02*
X155872419Y-90118169D01*
X158420038Y-87927693D02*
X158372419Y-87832455D01*
X158372419Y-87832455D02*
X158372419Y-87689598D01*
X158372419Y-87689598D02*
X158420038Y-87546741D01*
X158420038Y-87546741D02*
X158515276Y-87451503D01*
X158515276Y-87451503D02*
X158610514Y-87403884D01*
X158610514Y-87403884D02*
X158800990Y-87356265D01*
X158800990Y-87356265D02*
X158943847Y-87356265D01*
X158943847Y-87356265D02*
X159134323Y-87403884D01*
X159134323Y-87403884D02*
X159229561Y-87451503D01*
X159229561Y-87451503D02*
X159324800Y-87546741D01*
X159324800Y-87546741D02*
X159372419Y-87689598D01*
X159372419Y-87689598D02*
X159372419Y-87784836D01*
X159372419Y-87784836D02*
X159324800Y-87927693D01*
X159324800Y-87927693D02*
X159277180Y-87975312D01*
X159277180Y-87975312D02*
X158943847Y-87975312D01*
X158943847Y-87975312D02*
X158943847Y-87784836D01*
X159372419Y-88403884D02*
X158372419Y-88403884D01*
X158372419Y-88403884D02*
X159372419Y-88975312D01*
X159372419Y-88975312D02*
X158372419Y-88975312D01*
X159372419Y-89451503D02*
X158372419Y-89451503D01*
X158372419Y-89451503D02*
X158372419Y-89689598D01*
X158372419Y-89689598D02*
X158420038Y-89832455D01*
X158420038Y-89832455D02*
X158515276Y-89927693D01*
X158515276Y-89927693D02*
X158610514Y-89975312D01*
X158610514Y-89975312D02*
X158800990Y-90022931D01*
X158800990Y-90022931D02*
X158943847Y-90022931D01*
X158943847Y-90022931D02*
X159134323Y-89975312D01*
X159134323Y-89975312D02*
X159229561Y-89927693D01*
X159229561Y-89927693D02*
X159324800Y-89832455D01*
X159324800Y-89832455D02*
X159372419Y-89689598D01*
X159372419Y-89689598D02*
X159372419Y-89451503D01*
D11*
X153161904Y-67254819D02*
X153161904Y-68064342D01*
X153161904Y-68064342D02*
X153114285Y-68159580D01*
X153114285Y-68159580D02*
X153066666Y-68207200D01*
X153066666Y-68207200D02*
X152971428Y-68254819D01*
X152971428Y-68254819D02*
X152780952Y-68254819D01*
X152780952Y-68254819D02*
X152685714Y-68207200D01*
X152685714Y-68207200D02*
X152638095Y-68159580D01*
X152638095Y-68159580D02*
X152590476Y-68064342D01*
X152590476Y-68064342D02*
X152590476Y-67254819D01*
X151590476Y-68254819D02*
X152161904Y-68254819D01*
X151876190Y-68254819D02*
X151876190Y-67254819D01*
X151876190Y-67254819D02*
X151971428Y-67397676D01*
X151971428Y-67397676D02*
X152066666Y-67492914D01*
X152066666Y-67492914D02*
X152161904Y-67540533D01*
X161659580Y-69133333D02*
X161707200Y-69085714D01*
X161707200Y-69085714D02*
X161754819Y-68942857D01*
X161754819Y-68942857D02*
X161754819Y-68847619D01*
X161754819Y-68847619D02*
X161707200Y-68704762D01*
X161707200Y-68704762D02*
X161611961Y-68609524D01*
X161611961Y-68609524D02*
X161516723Y-68561905D01*
X161516723Y-68561905D02*
X161326247Y-68514286D01*
X161326247Y-68514286D02*
X161183390Y-68514286D01*
X161183390Y-68514286D02*
X160992914Y-68561905D01*
X160992914Y-68561905D02*
X160897676Y-68609524D01*
X160897676Y-68609524D02*
X160802438Y-68704762D01*
X160802438Y-68704762D02*
X160754819Y-68847619D01*
X160754819Y-68847619D02*
X160754819Y-68942857D01*
X160754819Y-68942857D02*
X160802438Y-69085714D01*
X160802438Y-69085714D02*
X160850057Y-69133333D01*
X161088152Y-69990476D02*
X161754819Y-69990476D01*
X160707200Y-69752381D02*
X161421485Y-69514286D01*
X161421485Y-69514286D02*
X161421485Y-70133333D01*
X158359580Y-69533333D02*
X158407200Y-69485714D01*
X158407200Y-69485714D02*
X158454819Y-69342857D01*
X158454819Y-69342857D02*
X158454819Y-69247619D01*
X158454819Y-69247619D02*
X158407200Y-69104762D01*
X158407200Y-69104762D02*
X158311961Y-69009524D01*
X158311961Y-69009524D02*
X158216723Y-68961905D01*
X158216723Y-68961905D02*
X158026247Y-68914286D01*
X158026247Y-68914286D02*
X157883390Y-68914286D01*
X157883390Y-68914286D02*
X157692914Y-68961905D01*
X157692914Y-68961905D02*
X157597676Y-69009524D01*
X157597676Y-69009524D02*
X157502438Y-69104762D01*
X157502438Y-69104762D02*
X157454819Y-69247619D01*
X157454819Y-69247619D02*
X157454819Y-69342857D01*
X157454819Y-69342857D02*
X157502438Y-69485714D01*
X157502438Y-69485714D02*
X157550057Y-69533333D01*
X157454819Y-69866667D02*
X157454819Y-70485714D01*
X157454819Y-70485714D02*
X157835771Y-70152381D01*
X157835771Y-70152381D02*
X157835771Y-70295238D01*
X157835771Y-70295238D02*
X157883390Y-70390476D01*
X157883390Y-70390476D02*
X157931009Y-70438095D01*
X157931009Y-70438095D02*
X158026247Y-70485714D01*
X158026247Y-70485714D02*
X158264342Y-70485714D01*
X158264342Y-70485714D02*
X158359580Y-70438095D01*
X158359580Y-70438095D02*
X158407200Y-70390476D01*
X158407200Y-70390476D02*
X158454819Y-70295238D01*
X158454819Y-70295238D02*
X158454819Y-70009524D01*
X158454819Y-70009524D02*
X158407200Y-69914286D01*
X158407200Y-69914286D02*
X158359580Y-69866667D01*
%TO.C,U1*%
D12*
X150090000Y-65190000D02*
X150090000Y-65390000D01*
X150090000Y-70210000D02*
X150090000Y-70410000D01*
X150090000Y-70410000D02*
X154710000Y-70410000D01*
X154710000Y-65190000D02*
X150090000Y-65190000D01*
X154710000Y-65390000D02*
X154710000Y-65190000D01*
X154710000Y-70410000D02*
X154710000Y-70210000D01*
X155350000Y-65390000D02*
X155010000Y-64920000D01*
X155690000Y-64920000D01*
X155350000Y-65390000D01*
G36*
X155350000Y-65390000D02*
G01*
X155010000Y-64920000D01*
X155690000Y-64920000D01*
X155350000Y-65390000D01*
G37*
%TO.C,C4*%
X159465000Y-66638748D02*
X159465000Y-67161252D01*
X160935000Y-66638748D02*
X160935000Y-67161252D01*
%TO.C,C3*%
X157365000Y-66638748D02*
X157365000Y-67161252D01*
X158835000Y-66638748D02*
X158835000Y-67161252D01*
%TD*%
M02*
