%TF.GenerationSoftware,KiCad,Pcbnew,10.0.1*%
%TF.CreationDate,2026-06-17T17:40:54-07:00*%
%TF.ProjectId,tile,74696c65-2e6b-4696-9361-645f70636258,rev?*%
%TF.SameCoordinates,Original*%
%TF.FileFunction,Legend,Top*%
%TF.FilePolarity,Positive*%
%FSLAX46Y46*%
G04 Gerber Fmt 4.6, Leading zero omitted, Abs format (unit mm)*
G04 Created by KiCad (PCBNEW 10.0.1) date 2026-06-17 17:40:54*
%MOMM*%
%LPD*%
G01*
G04 APERTURE LIST*
%ADD10C,0.100000*%
%ADD11C,0.150000*%
%ADD12C,0.120000*%
%ADD13C,0.200000*%
G04 APERTURE END LIST*
D10*
X142870074Y-88902419D02*
X142393884Y-88902419D01*
X142393884Y-88902419D02*
X142393884Y-87902419D01*
X143203408Y-88378609D02*
X143536741Y-88378609D01*
X143679598Y-88902419D02*
X143203408Y-88902419D01*
X143203408Y-88902419D02*
X143203408Y-87902419D01*
X143203408Y-87902419D02*
X143679598Y-87902419D01*
X144108170Y-88902419D02*
X144108170Y-87902419D01*
X144108170Y-87902419D02*
X144346265Y-87902419D01*
X144346265Y-87902419D02*
X144489122Y-87950038D01*
X144489122Y-87950038D02*
X144584360Y-88045276D01*
X144584360Y-88045276D02*
X144631979Y-88140514D01*
X144631979Y-88140514D02*
X144679598Y-88330990D01*
X144679598Y-88330990D02*
X144679598Y-88473847D01*
X144679598Y-88473847D02*
X144631979Y-88664323D01*
X144631979Y-88664323D02*
X144584360Y-88759561D01*
X144584360Y-88759561D02*
X144489122Y-88854800D01*
X144489122Y-88854800D02*
X144346265Y-88902419D01*
X144346265Y-88902419D02*
X144108170Y-88902419D01*
X143103884Y-85272419D02*
X143103884Y-86081942D01*
X143103884Y-86081942D02*
X143151503Y-86177180D01*
X143151503Y-86177180D02*
X143199122Y-86224800D01*
X143199122Y-86224800D02*
X143294360Y-86272419D01*
X143294360Y-86272419D02*
X143484836Y-86272419D01*
X143484836Y-86272419D02*
X143580074Y-86224800D01*
X143580074Y-86224800D02*
X143627693Y-86177180D01*
X143627693Y-86177180D02*
X143675312Y-86081942D01*
X143675312Y-86081942D02*
X143675312Y-85272419D01*
X144151503Y-86272419D02*
X144151503Y-85272419D01*
X144151503Y-85272419D02*
X144532455Y-85272419D01*
X144532455Y-85272419D02*
X144627693Y-85320038D01*
X144627693Y-85320038D02*
X144675312Y-85367657D01*
X144675312Y-85367657D02*
X144722931Y-85462895D01*
X144722931Y-85462895D02*
X144722931Y-85605752D01*
X144722931Y-85605752D02*
X144675312Y-85700990D01*
X144675312Y-85700990D02*
X144627693Y-85748609D01*
X144627693Y-85748609D02*
X144532455Y-85796228D01*
X144532455Y-85796228D02*
X144151503Y-85796228D01*
X145151503Y-86272419D02*
X145151503Y-85272419D01*
X145151503Y-85272419D02*
X145389598Y-85272419D01*
X145389598Y-85272419D02*
X145532455Y-85320038D01*
X145532455Y-85320038D02*
X145627693Y-85415276D01*
X145627693Y-85415276D02*
X145675312Y-85510514D01*
X145675312Y-85510514D02*
X145722931Y-85700990D01*
X145722931Y-85700990D02*
X145722931Y-85843847D01*
X145722931Y-85843847D02*
X145675312Y-86034323D01*
X145675312Y-86034323D02*
X145627693Y-86129561D01*
X145627693Y-86129561D02*
X145532455Y-86224800D01*
X145532455Y-86224800D02*
X145389598Y-86272419D01*
X145389598Y-86272419D02*
X145151503Y-86272419D01*
X146151503Y-86272419D02*
X146151503Y-85272419D01*
X147680074Y-87372419D02*
X147203884Y-87372419D01*
X147203884Y-87372419D02*
X147156265Y-87848609D01*
X147156265Y-87848609D02*
X147203884Y-87800990D01*
X147203884Y-87800990D02*
X147299122Y-87753371D01*
X147299122Y-87753371D02*
X147537217Y-87753371D01*
X147537217Y-87753371D02*
X147632455Y-87800990D01*
X147632455Y-87800990D02*
X147680074Y-87848609D01*
X147680074Y-87848609D02*
X147727693Y-87943847D01*
X147727693Y-87943847D02*
X147727693Y-88181942D01*
X147727693Y-88181942D02*
X147680074Y-88277180D01*
X147680074Y-88277180D02*
X147632455Y-88324800D01*
X147632455Y-88324800D02*
X147537217Y-88372419D01*
X147537217Y-88372419D02*
X147299122Y-88372419D01*
X147299122Y-88372419D02*
X147203884Y-88324800D01*
X147203884Y-88324800D02*
X147156265Y-88277180D01*
X148061027Y-87705752D02*
X148299122Y-88372419D01*
X148299122Y-88372419D02*
X148537217Y-87705752D01*
X150003884Y-88372419D02*
X150003884Y-87372419D01*
X150003884Y-87372419D02*
X150241979Y-87372419D01*
X150241979Y-87372419D02*
X150384836Y-87420038D01*
X150384836Y-87420038D02*
X150480074Y-87515276D01*
X150480074Y-87515276D02*
X150527693Y-87610514D01*
X150527693Y-87610514D02*
X150575312Y-87800990D01*
X150575312Y-87800990D02*
X150575312Y-87943847D01*
X150575312Y-87943847D02*
X150527693Y-88134323D01*
X150527693Y-88134323D02*
X150480074Y-88229561D01*
X150480074Y-88229561D02*
X150384836Y-88324800D01*
X150384836Y-88324800D02*
X150241979Y-88372419D01*
X150241979Y-88372419D02*
X150003884Y-88372419D01*
X143520038Y-94572306D02*
X143472419Y-94667544D01*
X143472419Y-94667544D02*
X143472419Y-94810401D01*
X143472419Y-94810401D02*
X143520038Y-94953258D01*
X143520038Y-94953258D02*
X143615276Y-95048496D01*
X143615276Y-95048496D02*
X143710514Y-95096115D01*
X143710514Y-95096115D02*
X143900990Y-95143734D01*
X143900990Y-95143734D02*
X144043847Y-95143734D01*
X144043847Y-95143734D02*
X144234323Y-95096115D01*
X144234323Y-95096115D02*
X144329561Y-95048496D01*
X144329561Y-95048496D02*
X144424800Y-94953258D01*
X144424800Y-94953258D02*
X144472419Y-94810401D01*
X144472419Y-94810401D02*
X144472419Y-94715163D01*
X144472419Y-94715163D02*
X144424800Y-94572306D01*
X144424800Y-94572306D02*
X144377180Y-94524687D01*
X144377180Y-94524687D02*
X144043847Y-94524687D01*
X144043847Y-94524687D02*
X144043847Y-94715163D01*
X144472419Y-94096115D02*
X143472419Y-94096115D01*
X143472419Y-94096115D02*
X144472419Y-93524687D01*
X144472419Y-93524687D02*
X143472419Y-93524687D01*
X144472419Y-93048496D02*
X143472419Y-93048496D01*
X143472419Y-93048496D02*
X143472419Y-92810401D01*
X143472419Y-92810401D02*
X143520038Y-92667544D01*
X143520038Y-92667544D02*
X143615276Y-92572306D01*
X143615276Y-92572306D02*
X143710514Y-92524687D01*
X143710514Y-92524687D02*
X143900990Y-92477068D01*
X143900990Y-92477068D02*
X144043847Y-92477068D01*
X144043847Y-92477068D02*
X144234323Y-92524687D01*
X144234323Y-92524687D02*
X144329561Y-92572306D01*
X144329561Y-92572306D02*
X144424800Y-92667544D01*
X144424800Y-92667544D02*
X144472419Y-92810401D01*
X144472419Y-92810401D02*
X144472419Y-93048496D01*
X146972419Y-95080664D02*
X145972419Y-95080664D01*
X145972419Y-95080664D02*
X145972419Y-94842569D01*
X145972419Y-94842569D02*
X146020038Y-94699712D01*
X146020038Y-94699712D02*
X146115276Y-94604474D01*
X146115276Y-94604474D02*
X146210514Y-94556855D01*
X146210514Y-94556855D02*
X146400990Y-94509236D01*
X146400990Y-94509236D02*
X146543847Y-94509236D01*
X146543847Y-94509236D02*
X146734323Y-94556855D01*
X146734323Y-94556855D02*
X146829561Y-94604474D01*
X146829561Y-94604474D02*
X146924800Y-94699712D01*
X146924800Y-94699712D02*
X146972419Y-94842569D01*
X146972419Y-94842569D02*
X146972419Y-95080664D01*
X146686704Y-94128283D02*
X146686704Y-93652093D01*
X146972419Y-94223521D02*
X145972419Y-93890188D01*
X145972419Y-93890188D02*
X146972419Y-93556855D01*
X145972419Y-93366378D02*
X145972419Y-92794950D01*
X146972419Y-93080664D02*
X145972419Y-93080664D01*
X149372419Y-94572306D02*
X149372419Y-95143734D01*
X149372419Y-94858020D02*
X148372419Y-94858020D01*
X148372419Y-94858020D02*
X148515276Y-94953258D01*
X148515276Y-94953258D02*
X148610514Y-95048496D01*
X148610514Y-95048496D02*
X148658133Y-95143734D01*
X148467657Y-94191353D02*
X148420038Y-94143734D01*
X148420038Y-94143734D02*
X148372419Y-94048496D01*
X148372419Y-94048496D02*
X148372419Y-93810401D01*
X148372419Y-93810401D02*
X148420038Y-93715163D01*
X148420038Y-93715163D02*
X148467657Y-93667544D01*
X148467657Y-93667544D02*
X148562895Y-93619925D01*
X148562895Y-93619925D02*
X148658133Y-93619925D01*
X148658133Y-93619925D02*
X148800990Y-93667544D01*
X148800990Y-93667544D02*
X149372419Y-94238972D01*
X149372419Y-94238972D02*
X149372419Y-93619925D01*
X148372419Y-93334210D02*
X149372419Y-93000877D01*
X149372419Y-93000877D02*
X148372419Y-92667544D01*
D11*
X149938095Y-80554819D02*
X149938095Y-81364342D01*
X149938095Y-81364342D02*
X149985714Y-81459580D01*
X149985714Y-81459580D02*
X150033333Y-81507200D01*
X150033333Y-81507200D02*
X150128571Y-81554819D01*
X150128571Y-81554819D02*
X150319047Y-81554819D01*
X150319047Y-81554819D02*
X150414285Y-81507200D01*
X150414285Y-81507200D02*
X150461904Y-81459580D01*
X150461904Y-81459580D02*
X150509523Y-81364342D01*
X150509523Y-81364342D02*
X150509523Y-80554819D01*
X151509523Y-81554819D02*
X150938095Y-81554819D01*
X151223809Y-81554819D02*
X151223809Y-80554819D01*
X151223809Y-80554819D02*
X151128571Y-80697676D01*
X151128571Y-80697676D02*
X151033333Y-80792914D01*
X151033333Y-80792914D02*
X150938095Y-80840533D01*
X143759580Y-83729166D02*
X143807200Y-83776785D01*
X143807200Y-83776785D02*
X143854819Y-83919642D01*
X143854819Y-83919642D02*
X143854819Y-84014880D01*
X143854819Y-84014880D02*
X143807200Y-84157737D01*
X143807200Y-84157737D02*
X143711961Y-84252975D01*
X143711961Y-84252975D02*
X143616723Y-84300594D01*
X143616723Y-84300594D02*
X143426247Y-84348213D01*
X143426247Y-84348213D02*
X143283390Y-84348213D01*
X143283390Y-84348213D02*
X143092914Y-84300594D01*
X143092914Y-84300594D02*
X142997676Y-84252975D01*
X142997676Y-84252975D02*
X142902438Y-84157737D01*
X142902438Y-84157737D02*
X142854819Y-84014880D01*
X142854819Y-84014880D02*
X142854819Y-83919642D01*
X142854819Y-83919642D02*
X142902438Y-83776785D01*
X142902438Y-83776785D02*
X142950057Y-83729166D01*
X143188152Y-82872023D02*
X143854819Y-82872023D01*
X142807200Y-83110118D02*
X143521485Y-83348213D01*
X143521485Y-83348213D02*
X143521485Y-82729166D01*
X160909819Y-84714285D02*
X159909819Y-84714285D01*
X159909819Y-84714285D02*
X159909819Y-84333333D01*
X159909819Y-84333333D02*
X159957438Y-84238095D01*
X159957438Y-84238095D02*
X160005057Y-84190476D01*
X160005057Y-84190476D02*
X160100295Y-84142857D01*
X160100295Y-84142857D02*
X160243152Y-84142857D01*
X160243152Y-84142857D02*
X160338390Y-84190476D01*
X160338390Y-84190476D02*
X160386009Y-84238095D01*
X160386009Y-84238095D02*
X160433628Y-84333333D01*
X160433628Y-84333333D02*
X160433628Y-84714285D01*
X160862200Y-83761904D02*
X160909819Y-83619047D01*
X160909819Y-83619047D02*
X160909819Y-83380952D01*
X160909819Y-83380952D02*
X160862200Y-83285714D01*
X160862200Y-83285714D02*
X160814580Y-83238095D01*
X160814580Y-83238095D02*
X160719342Y-83190476D01*
X160719342Y-83190476D02*
X160624104Y-83190476D01*
X160624104Y-83190476D02*
X160528866Y-83238095D01*
X160528866Y-83238095D02*
X160481247Y-83285714D01*
X160481247Y-83285714D02*
X160433628Y-83380952D01*
X160433628Y-83380952D02*
X160386009Y-83571428D01*
X160386009Y-83571428D02*
X160338390Y-83666666D01*
X160338390Y-83666666D02*
X160290771Y-83714285D01*
X160290771Y-83714285D02*
X160195533Y-83761904D01*
X160195533Y-83761904D02*
X160100295Y-83761904D01*
X160100295Y-83761904D02*
X160005057Y-83714285D01*
X160005057Y-83714285D02*
X159957438Y-83666666D01*
X159957438Y-83666666D02*
X159909819Y-83571428D01*
X159909819Y-83571428D02*
X159909819Y-83333333D01*
X159909819Y-83333333D02*
X159957438Y-83190476D01*
X160909819Y-82238095D02*
X160909819Y-82809523D01*
X160909819Y-82523809D02*
X159909819Y-82523809D01*
X159909819Y-82523809D02*
X160052676Y-82619047D01*
X160052676Y-82619047D02*
X160147914Y-82714285D01*
X160147914Y-82714285D02*
X160195533Y-82809523D01*
X145959580Y-83729166D02*
X146007200Y-83776785D01*
X146007200Y-83776785D02*
X146054819Y-83919642D01*
X146054819Y-83919642D02*
X146054819Y-84014880D01*
X146054819Y-84014880D02*
X146007200Y-84157737D01*
X146007200Y-84157737D02*
X145911961Y-84252975D01*
X145911961Y-84252975D02*
X145816723Y-84300594D01*
X145816723Y-84300594D02*
X145626247Y-84348213D01*
X145626247Y-84348213D02*
X145483390Y-84348213D01*
X145483390Y-84348213D02*
X145292914Y-84300594D01*
X145292914Y-84300594D02*
X145197676Y-84252975D01*
X145197676Y-84252975D02*
X145102438Y-84157737D01*
X145102438Y-84157737D02*
X145054819Y-84014880D01*
X145054819Y-84014880D02*
X145054819Y-83919642D01*
X145054819Y-83919642D02*
X145102438Y-83776785D01*
X145102438Y-83776785D02*
X145150057Y-83729166D01*
X145054819Y-83395832D02*
X145054819Y-82776785D01*
X145054819Y-82776785D02*
X145435771Y-83110118D01*
X145435771Y-83110118D02*
X145435771Y-82967261D01*
X145435771Y-82967261D02*
X145483390Y-82872023D01*
X145483390Y-82872023D02*
X145531009Y-82824404D01*
X145531009Y-82824404D02*
X145626247Y-82776785D01*
X145626247Y-82776785D02*
X145864342Y-82776785D01*
X145864342Y-82776785D02*
X145959580Y-82824404D01*
X145959580Y-82824404D02*
X146007200Y-82872023D01*
X146007200Y-82872023D02*
X146054819Y-82967261D01*
X146054819Y-82967261D02*
X146054819Y-83252975D01*
X146054819Y-83252975D02*
X146007200Y-83348213D01*
X146007200Y-83348213D02*
X145959580Y-83395832D01*
X160814580Y-86766666D02*
X160862200Y-86814285D01*
X160862200Y-86814285D02*
X160909819Y-86957142D01*
X160909819Y-86957142D02*
X160909819Y-87052380D01*
X160909819Y-87052380D02*
X160862200Y-87195237D01*
X160862200Y-87195237D02*
X160766961Y-87290475D01*
X160766961Y-87290475D02*
X160671723Y-87338094D01*
X160671723Y-87338094D02*
X160481247Y-87385713D01*
X160481247Y-87385713D02*
X160338390Y-87385713D01*
X160338390Y-87385713D02*
X160147914Y-87338094D01*
X160147914Y-87338094D02*
X160052676Y-87290475D01*
X160052676Y-87290475D02*
X159957438Y-87195237D01*
X159957438Y-87195237D02*
X159909819Y-87052380D01*
X159909819Y-87052380D02*
X159909819Y-86957142D01*
X159909819Y-86957142D02*
X159957438Y-86814285D01*
X159957438Y-86814285D02*
X160005057Y-86766666D01*
X160909819Y-85814285D02*
X160909819Y-86385713D01*
X160909819Y-86099999D02*
X159909819Y-86099999D01*
X159909819Y-86099999D02*
X160052676Y-86195237D01*
X160052676Y-86195237D02*
X160147914Y-86290475D01*
X160147914Y-86290475D02*
X160195533Y-86385713D01*
X141154819Y-91133333D02*
X141869104Y-91133333D01*
X141869104Y-91133333D02*
X142011961Y-91180952D01*
X142011961Y-91180952D02*
X142107200Y-91276190D01*
X142107200Y-91276190D02*
X142154819Y-91419047D01*
X142154819Y-91419047D02*
X142154819Y-91514285D01*
X142154819Y-90133333D02*
X142154819Y-90704761D01*
X142154819Y-90419047D02*
X141154819Y-90419047D01*
X141154819Y-90419047D02*
X141297676Y-90514285D01*
X141297676Y-90514285D02*
X141392914Y-90609523D01*
X141392914Y-90609523D02*
X141440533Y-90704761D01*
X160814580Y-80766666D02*
X160862200Y-80814285D01*
X160862200Y-80814285D02*
X160909819Y-80957142D01*
X160909819Y-80957142D02*
X160909819Y-81052380D01*
X160909819Y-81052380D02*
X160862200Y-81195237D01*
X160862200Y-81195237D02*
X160766961Y-81290475D01*
X160766961Y-81290475D02*
X160671723Y-81338094D01*
X160671723Y-81338094D02*
X160481247Y-81385713D01*
X160481247Y-81385713D02*
X160338390Y-81385713D01*
X160338390Y-81385713D02*
X160147914Y-81338094D01*
X160147914Y-81338094D02*
X160052676Y-81290475D01*
X160052676Y-81290475D02*
X159957438Y-81195237D01*
X159957438Y-81195237D02*
X159909819Y-81052380D01*
X159909819Y-81052380D02*
X159909819Y-80957142D01*
X159909819Y-80957142D02*
X159957438Y-80814285D01*
X159957438Y-80814285D02*
X160005057Y-80766666D01*
X160005057Y-80385713D02*
X159957438Y-80338094D01*
X159957438Y-80338094D02*
X159909819Y-80242856D01*
X159909819Y-80242856D02*
X159909819Y-80004761D01*
X159909819Y-80004761D02*
X159957438Y-79909523D01*
X159957438Y-79909523D02*
X160005057Y-79861904D01*
X160005057Y-79861904D02*
X160100295Y-79814285D01*
X160100295Y-79814285D02*
X160195533Y-79814285D01*
X160195533Y-79814285D02*
X160338390Y-79861904D01*
X160338390Y-79861904D02*
X160909819Y-80433332D01*
X160909819Y-80433332D02*
X160909819Y-79814285D01*
D10*
X150866666Y-70632419D02*
X150866666Y-71346704D01*
X150866666Y-71346704D02*
X150819047Y-71489561D01*
X150819047Y-71489561D02*
X150723809Y-71584800D01*
X150723809Y-71584800D02*
X150580952Y-71632419D01*
X150580952Y-71632419D02*
X150485714Y-71632419D01*
X151771428Y-70632419D02*
X151580952Y-70632419D01*
X151580952Y-70632419D02*
X151485714Y-70680038D01*
X151485714Y-70680038D02*
X151438095Y-70727657D01*
X151438095Y-70727657D02*
X151342857Y-70870514D01*
X151342857Y-70870514D02*
X151295238Y-71060990D01*
X151295238Y-71060990D02*
X151295238Y-71441942D01*
X151295238Y-71441942D02*
X151342857Y-71537180D01*
X151342857Y-71537180D02*
X151390476Y-71584800D01*
X151390476Y-71584800D02*
X151485714Y-71632419D01*
X151485714Y-71632419D02*
X151676190Y-71632419D01*
X151676190Y-71632419D02*
X151771428Y-71584800D01*
X151771428Y-71584800D02*
X151819047Y-71537180D01*
X151819047Y-71537180D02*
X151866666Y-71441942D01*
X151866666Y-71441942D02*
X151866666Y-71203847D01*
X151866666Y-71203847D02*
X151819047Y-71108609D01*
X151819047Y-71108609D02*
X151771428Y-71060990D01*
X151771428Y-71060990D02*
X151676190Y-71013371D01*
X151676190Y-71013371D02*
X151485714Y-71013371D01*
X151485714Y-71013371D02*
X151390476Y-71060990D01*
X151390476Y-71060990D02*
X151342857Y-71108609D01*
X151342857Y-71108609D02*
X151295238Y-71203847D01*
D11*
X154454819Y-86133333D02*
X155169104Y-86133333D01*
X155169104Y-86133333D02*
X155311961Y-86180952D01*
X155311961Y-86180952D02*
X155407200Y-86276190D01*
X155407200Y-86276190D02*
X155454819Y-86419047D01*
X155454819Y-86419047D02*
X155454819Y-86514285D01*
X154550057Y-85704761D02*
X154502438Y-85657142D01*
X154502438Y-85657142D02*
X154454819Y-85561904D01*
X154454819Y-85561904D02*
X154454819Y-85323809D01*
X154454819Y-85323809D02*
X154502438Y-85228571D01*
X154502438Y-85228571D02*
X154550057Y-85180952D01*
X154550057Y-85180952D02*
X154645295Y-85133333D01*
X154645295Y-85133333D02*
X154740533Y-85133333D01*
X154740533Y-85133333D02*
X154883390Y-85180952D01*
X154883390Y-85180952D02*
X155454819Y-85752380D01*
X155454819Y-85752380D02*
X155454819Y-85133333D01*
X155766666Y-92254819D02*
X155766666Y-92969104D01*
X155766666Y-92969104D02*
X155719047Y-93111961D01*
X155719047Y-93111961D02*
X155623809Y-93207200D01*
X155623809Y-93207200D02*
X155480952Y-93254819D01*
X155480952Y-93254819D02*
X155385714Y-93254819D01*
X156719047Y-92254819D02*
X156242857Y-92254819D01*
X156242857Y-92254819D02*
X156195238Y-92731009D01*
X156195238Y-92731009D02*
X156242857Y-92683390D01*
X156242857Y-92683390D02*
X156338095Y-92635771D01*
X156338095Y-92635771D02*
X156576190Y-92635771D01*
X156576190Y-92635771D02*
X156671428Y-92683390D01*
X156671428Y-92683390D02*
X156719047Y-92731009D01*
X156719047Y-92731009D02*
X156766666Y-92826247D01*
X156766666Y-92826247D02*
X156766666Y-93064342D01*
X156766666Y-93064342D02*
X156719047Y-93159580D01*
X156719047Y-93159580D02*
X156671428Y-93207200D01*
X156671428Y-93207200D02*
X156576190Y-93254819D01*
X156576190Y-93254819D02*
X156338095Y-93254819D01*
X156338095Y-93254819D02*
X156242857Y-93207200D01*
X156242857Y-93207200D02*
X156195238Y-93159580D01*
%TO.C,U1*%
D12*
X148390000Y-78490000D02*
X153010000Y-78490000D01*
X148390000Y-78690000D02*
X148390000Y-78490000D01*
X148390000Y-83710000D02*
X148390000Y-83510000D01*
X153010000Y-78490000D02*
X153010000Y-78690000D01*
X153010000Y-83510000D02*
X153010000Y-83710000D01*
X153010000Y-83710000D02*
X148390000Y-83710000D01*
X147750000Y-78690000D02*
X147410000Y-78220000D01*
X148090000Y-78220000D01*
X147750000Y-78690000D01*
G36*
X147750000Y-78690000D02*
G01*
X147410000Y-78220000D01*
X148090000Y-78220000D01*
X147750000Y-78690000D01*
G37*
%TO.C,C4*%
X144135000Y-80338748D02*
X144135000Y-80861252D01*
X142665000Y-80338748D02*
X142665000Y-80861252D01*
%TO.C,PS1*%
D13*
X157725000Y-82140000D02*
X157875000Y-82140000D01*
X157875000Y-82140000D02*
X157875000Y-85060000D01*
X157875000Y-85060000D02*
X157725000Y-85060000D01*
X157725000Y-85060000D02*
X157725000Y-82140000D01*
X156125000Y-82100000D02*
X157375000Y-82100000D01*
%TO.C,C3*%
D12*
X146335000Y-80338748D02*
X146335000Y-80861252D01*
X144865000Y-80338748D02*
X144865000Y-80861252D01*
%TO.C,C1*%
X157493748Y-85865000D02*
X158016252Y-85865000D01*
X157493748Y-87335000D02*
X158016252Y-87335000D01*
%TO.C,J1*%
X150320000Y-89420000D02*
X150320000Y-90800000D01*
X148940000Y-89420000D02*
X150320000Y-89420000D01*
X147670000Y-89420000D02*
X142480000Y-89420000D01*
X147670000Y-89420000D02*
X147670000Y-92180000D01*
X142480000Y-89420000D02*
X142480000Y-92180000D01*
X147670000Y-92180000D02*
X142480000Y-92180000D01*
%TO.C,C2*%
X157493748Y-79865000D02*
X158016252Y-79865000D01*
X157493748Y-81335000D02*
X158016252Y-81335000D01*
%TO.C,J6*%
D10*
X159700000Y-68250000D02*
X158700000Y-68250000D01*
X159700000Y-67250000D02*
X159700000Y-68250000D01*
X158700000Y-77600000D02*
X158700000Y-72550000D01*
X158700000Y-68250000D02*
X158700000Y-69050000D01*
X158700000Y-67250000D02*
X159700000Y-67250000D01*
X158700000Y-64750000D02*
X158700000Y-67250000D01*
X158700000Y-64750000D02*
X143700000Y-64750000D01*
X143700000Y-77600000D02*
X158700000Y-77600000D01*
X143700000Y-77600000D02*
X143700000Y-72550000D01*
X143700000Y-68250000D02*
X143700000Y-69050000D01*
X143700000Y-67250000D02*
X142700000Y-67250000D01*
X143700000Y-64750000D02*
X143700000Y-67250000D01*
X142700000Y-68250000D02*
X143700000Y-68250000D01*
X142700000Y-67250000D02*
X142700000Y-68250000D01*
%TO.C,J2*%
D12*
X146380000Y-87180000D02*
X146380000Y-85800000D01*
X147760000Y-87180000D02*
X146380000Y-87180000D01*
X149030000Y-87180000D02*
X154220000Y-87180000D01*
X149030000Y-87180000D02*
X149030000Y-84420000D01*
X154220000Y-87180000D02*
X154220000Y-84420000D01*
X149030000Y-84420000D02*
X154220000Y-84420000D01*
%TO.C,J5*%
X152000000Y-88025000D02*
X152000000Y-89275000D01*
X152300000Y-90575000D02*
X153050000Y-90575000D01*
X153050000Y-90575000D02*
X153050000Y-93525000D01*
X153050000Y-93525000D02*
X156100000Y-93525000D01*
X153250000Y-88025000D02*
X152000000Y-88025000D01*
X159150000Y-90575000D02*
X159150000Y-93525000D01*
X159150000Y-93525000D02*
X156100000Y-93525000D01*
X159900000Y-90575000D02*
X159150000Y-90575000D01*
X152290000Y-88315000D02*
X159910000Y-88315000D01*
X159910000Y-94285000D01*
X152290000Y-94285000D01*
X152290000Y-88315000D01*
X152300000Y-88325000D02*
X154100000Y-88325000D01*
X154100000Y-89075000D01*
X152300000Y-89075000D01*
X152300000Y-88325000D01*
X155600000Y-88325000D02*
X156600000Y-88325000D01*
X156600000Y-89075000D01*
X155600000Y-89075000D01*
X155600000Y-88325000D01*
X158100000Y-88325000D02*
X159900000Y-88325000D01*
X159900000Y-89075000D01*
X158100000Y-89075000D01*
X158100000Y-88325000D01*
%TD*%
M02*
