%TF.GenerationSoftware,KiCad,Pcbnew,10.0.1*%
%TF.CreationDate,2026-06-17T17:40:53-07:00*%
%TF.ProjectId,tile,74696c65-2e6b-4696-9361-645f70636258,rev?*%
%TF.SameCoordinates,Original*%
%TF.FileFunction,Copper,L2,Bot*%
%TF.FilePolarity,Positive*%
%FSLAX46Y46*%
G04 Gerber Fmt 4.6, Leading zero omitted, Abs format (unit mm)*
G04 Created by KiCad (PCBNEW 10.0.1) date 2026-06-17 17:40:53*
%MOMM*%
%LPD*%
G01*
G04 APERTURE LIST*
G04 Aperture macros list*
%AMRoundRect*
0 Rectangle with rounded corners*
0 $1 Rounding radius*
0 $2 $3 $4 $5 $6 $7 $8 $9 X,Y pos of 4 corners*
0 Add a 4 corners polygon primitive as box body*
4,1,4,$2,$3,$4,$5,$6,$7,$8,$9,$2,$3,0*
0 Add four circle primitives for the rounded corners*
1,1,$1+$1,$2,$3*
1,1,$1+$1,$4,$5*
1,1,$1+$1,$6,$7*
1,1,$1+$1,$8,$9*
0 Add four rect primitives between the rounded corners*
20,1,$1+$1,$2,$3,$4,$5,0*
20,1,$1+$1,$4,$5,$6,$7,0*
20,1,$1+$1,$6,$7,$8,$9,0*
20,1,$1+$1,$8,$9,$2,$3,0*%
G04 Aperture macros list end*
%TA.AperFunction,ComponentPad*%
%ADD10R,1.700000X1.700000*%
%TD*%
%TA.AperFunction,ComponentPad*%
%ADD11C,1.700000*%
%TD*%
%TA.AperFunction,ComponentPad*%
%ADD12C,1.600000*%
%TD*%
%TA.AperFunction,ComponentPad*%
%ADD13RoundRect,0.250000X-0.600000X-0.750000X0.600000X-0.750000X0.600000X0.750000X-0.600000X0.750000X0*%
%TD*%
%TA.AperFunction,ComponentPad*%
%ADD14O,1.700000X2.000000*%
%TD*%
%TA.AperFunction,SMDPad,CuDef*%
%ADD15RoundRect,0.250000X-0.475000X0.337500X-0.475000X-0.337500X0.475000X-0.337500X0.475000X0.337500X0*%
%TD*%
%TA.AperFunction,SMDPad,CuDef*%
%ADD16RoundRect,0.250000X-0.350000X-0.450000X0.350000X-0.450000X0.350000X0.450000X-0.350000X0.450000X0*%
%TD*%
%TA.AperFunction,SMDPad,CuDef*%
%ADD17R,0.650000X1.528000*%
%TD*%
%TA.AperFunction,SMDPad,CuDef*%
%ADD18RoundRect,0.250000X-0.450000X0.350000X-0.450000X-0.350000X0.450000X-0.350000X0.450000X0.350000X0*%
%TD*%
%TA.AperFunction,ViaPad*%
%ADD19C,0.600000*%
%TD*%
%TA.AperFunction,Conductor*%
%ADD20C,0.200000*%
%TD*%
G04 APERTURE END LIST*
D10*
%TO.P,J1,1,Pin_1*%
%TO.N,+12V*%
X148940000Y-90800000D03*
D11*
%TO.P,J1,2,Pin_2*%
%TO.N,/LED_Data*%
X146400000Y-90800000D03*
%TO.P,J1,3,Pin_3*%
%TO.N,GND*%
X143860000Y-90800000D03*
%TD*%
D12*
%TO.P,J6,1,Pin_1*%
%TO.N,/TRCV-A*%
X147630000Y-73050000D03*
%TO.P,J6,2,Pin_2*%
%TO.N,/TRCV-B*%
X148650000Y-75590000D03*
%TO.P,J6,3,Pin_3*%
%TO.N,/TRCV-A*%
X149670000Y-73050000D03*
%TO.P,J6,4,Pin_4*%
%TO.N,/TRCV-B*%
X150690000Y-75590000D03*
%TO.P,J6,5,Pin_5*%
%TO.N,/SENSE_IN*%
X151710000Y-73050000D03*
%TO.P,J6,6,Pin_6*%
%TO.N,GND*%
X152730000Y-75590000D03*
%TO.P,J6,7,Pin_7*%
%TO.N,/SENSE_OUT*%
X153750000Y-73050000D03*
%TO.P,J6,8,Pin_8*%
%TO.N,GND*%
X154770000Y-75590000D03*
%TD*%
D10*
%TO.P,J2,1,Pin_1*%
%TO.N,+5V*%
X147760000Y-85800000D03*
D11*
%TO.P,J2,2,Pin_2*%
%TO.N,/UDPI_Data*%
X150300000Y-85800000D03*
%TO.P,J2,3,Pin_3*%
%TO.N,GND*%
X152840000Y-85800000D03*
%TD*%
D13*
%TO.P,J5,1,Pin_1*%
%TO.N,+12V*%
X154850000Y-90775000D03*
D14*
%TO.P,J5,2,Pin_2*%
%TO.N,GND*%
X157350000Y-90775000D03*
%TD*%
D15*
%TO.P,C6,1*%
%TO.N,+5V*%
X150700000Y-79062500D03*
%TO.P,C6,2*%
%TO.N,GND*%
X150700000Y-81137500D03*
%TD*%
D16*
%TO.P,R1,1*%
%TO.N,/XDIR*%
X142600000Y-85100000D03*
%TO.P,R1,2*%
%TO.N,GND*%
X144600000Y-85100000D03*
%TD*%
D15*
%TO.P,C5,1*%
%TO.N,+5V*%
X148500000Y-79062500D03*
%TO.P,C5,2*%
%TO.N,GND*%
X148500000Y-81137500D03*
%TD*%
D17*
%TO.P,IC1,1,R*%
%TO.N,/RxD*%
X146405000Y-82911000D03*
%TO.P,IC1,2,~{RE}*%
%TO.N,/XDIR*%
X145135000Y-82911000D03*
%TO.P,IC1,3,DE*%
X143865000Y-82911000D03*
%TO.P,IC1,4,D*%
%TO.N,/TxD*%
X142595000Y-82911000D03*
%TO.P,IC1,5,GND*%
%TO.N,GND*%
X142595000Y-77489000D03*
%TO.P,IC1,6,A*%
%TO.N,/TRCV-A*%
X143865000Y-77489000D03*
%TO.P,IC1,7,B*%
%TO.N,/TRCV-B*%
X145135000Y-77489000D03*
%TO.P,IC1,8,VCC*%
%TO.N,+5V*%
X146405000Y-77489000D03*
%TD*%
D18*
%TO.P,R2,1*%
%TO.N,+5V*%
X152900000Y-79100000D03*
%TO.P,R2,2*%
%TO.N,/RxD*%
X152900000Y-81100000D03*
%TD*%
D19*
%TO.N,GND*%
X149600000Y-81000000D03*
X158900000Y-82700000D03*
X158900000Y-84500000D03*
X158900000Y-85300000D03*
X158900000Y-81900000D03*
X145600000Y-80650000D03*
%TO.N,+5V*%
X147258000Y-78342000D03*
%TO.N,/XDIR*%
X142900000Y-86100000D03*
%TO.N,/TxD*%
X142000000Y-83100000D03*
%TO.N,/RxD*%
X152013235Y-81713236D03*
X146500000Y-83900000D03*
%TO.N,/SENSE_IN*%
X156700000Y-78900000D03*
X155407860Y-80194369D03*
%TO.N,/SENSE_OUT*%
X154984314Y-79515686D03*
X156300000Y-78200000D03*
%TD*%
%TO.N,+5V*%
D20*
X148500000Y-79062500D02*
X147978500Y-79062500D01*
X152900000Y-79100000D02*
X150737500Y-79100000D01*
X147978500Y-79062500D02*
X147258000Y-78342000D01*
X150700000Y-79062500D02*
X148500000Y-79062500D01*
X150737500Y-79100000D02*
X150700000Y-79062500D01*
X147258000Y-78342000D02*
X146405000Y-77489000D01*
%TO.N,/XDIR*%
X142900000Y-86100000D02*
X142900000Y-85400000D01*
X142900000Y-85400000D02*
X142600000Y-85100000D01*
X143865000Y-82911000D02*
X143865000Y-83835000D01*
X143865000Y-83835000D02*
X142600000Y-85100000D01*
X143865000Y-82911000D02*
X145135000Y-82911000D01*
%TO.N,/TxD*%
X142189000Y-82911000D02*
X142000000Y-83100000D01*
X142595000Y-82911000D02*
X142189000Y-82911000D01*
%TO.N,/TRCV-B*%
X147260000Y-74200000D02*
X146300000Y-74200000D01*
X145135000Y-75365000D02*
X145135000Y-77489000D01*
X148650000Y-75590000D02*
X147260000Y-74200000D01*
X146300000Y-74200000D02*
X145135000Y-75365000D01*
%TO.N,/RxD*%
X152626471Y-81100000D02*
X152013235Y-81713236D01*
X146500000Y-83006000D02*
X146405000Y-82911000D01*
X146500000Y-83900000D02*
X146500000Y-83006000D01*
X153000000Y-81200000D02*
X152900000Y-81100000D01*
X152900000Y-81100000D02*
X152626471Y-81100000D01*
%TO.N,/TRCV-A*%
X143865000Y-75635000D02*
X143865000Y-77489000D01*
X147630000Y-73050000D02*
X146450000Y-73050000D01*
X146450000Y-73050000D02*
X143865000Y-75635000D01*
%TO.N,/SENSE_IN*%
X155407860Y-80194369D02*
X155407860Y-80192140D01*
X155407860Y-80192140D02*
X156700000Y-78900000D01*
%TO.N,/SENSE_OUT*%
X156300000Y-78200000D02*
X154984314Y-79515686D01*
%TD*%
%TA.AperFunction,Conductor*%
%TO.N,GND*%
G36*
X151933185Y-74351290D02*
G01*
X151986638Y-74396286D01*
X152007278Y-74463037D01*
X152006909Y-74474538D01*
X152004076Y-74510523D01*
X152641415Y-75147861D01*
X152556306Y-75170667D01*
X152453694Y-75229910D01*
X152369910Y-75313694D01*
X152310667Y-75416306D01*
X152287861Y-75501415D01*
X151924930Y-75138484D01*
X151898177Y-75094824D01*
X151897082Y-75095278D01*
X151895222Y-75090787D01*
X151895220Y-75090781D01*
X151802287Y-74908390D01*
X151802285Y-74908387D01*
X151802284Y-74908385D01*
X151681971Y-74742786D01*
X151537217Y-74598032D01*
X151537212Y-74598028D01*
X151499762Y-74570819D01*
X151457096Y-74515489D01*
X151451117Y-74445876D01*
X151483722Y-74384081D01*
X151544561Y-74349724D01*
X151592042Y-74348028D01*
X151607648Y-74350500D01*
X151607653Y-74350500D01*
X151812350Y-74350500D01*
X151812352Y-74350500D01*
X151863894Y-74342336D01*
X151933185Y-74351290D01*
G37*
%TD.AperFunction*%
%TA.AperFunction,Conductor*%
G36*
X153596099Y-74342335D02*
G01*
X153647648Y-74350500D01*
X153647649Y-74350500D01*
X153852350Y-74350500D01*
X153852352Y-74350500D01*
X153903894Y-74342336D01*
X153973185Y-74351290D01*
X154026638Y-74396286D01*
X154047278Y-74463037D01*
X154046909Y-74474538D01*
X154044076Y-74510523D01*
X154681415Y-75147861D01*
X154596306Y-75170667D01*
X154493694Y-75229910D01*
X154409910Y-75313694D01*
X154350667Y-75416306D01*
X154327861Y-75501414D01*
X153750001Y-74923553D01*
X153750000Y-74923553D01*
X153172138Y-75501414D01*
X153149333Y-75416306D01*
X153090090Y-75313694D01*
X153006306Y-75229910D01*
X152903694Y-75170667D01*
X152818584Y-75147861D01*
X153455921Y-74510525D01*
X153453089Y-74474539D01*
X153467453Y-74406162D01*
X153516504Y-74356404D01*
X153584669Y-74341065D01*
X153596099Y-74342335D01*
G37*
%TD.AperFunction*%
%TA.AperFunction,Conductor*%
G36*
X161332102Y-65220185D02*
G01*
X161377857Y-65272989D01*
X161389063Y-65324500D01*
X161389063Y-94775500D01*
X161369378Y-94842539D01*
X161316574Y-94888294D01*
X161265063Y-94899500D01*
X141156952Y-94899500D01*
X141089913Y-94879815D01*
X141044158Y-94827011D01*
X141032952Y-94775500D01*
X141032952Y-90693753D01*
X142510000Y-90693753D01*
X142510000Y-90906246D01*
X142543242Y-91116127D01*
X142543242Y-91116130D01*
X142608904Y-91318217D01*
X142705375Y-91507550D01*
X142744728Y-91561716D01*
X143377036Y-90929407D01*
X143394075Y-90992993D01*
X143459901Y-91107007D01*
X143552993Y-91200099D01*
X143667007Y-91265925D01*
X143730590Y-91282962D01*
X143098282Y-91915269D01*
X143098282Y-91915270D01*
X143152449Y-91954624D01*
X143341782Y-92051095D01*
X143543870Y-92116757D01*
X143753754Y-92150000D01*
X143966246Y-92150000D01*
X144176127Y-92116757D01*
X144176130Y-92116757D01*
X144378217Y-92051095D01*
X144567554Y-91954622D01*
X144621716Y-91915270D01*
X144621717Y-91915270D01*
X143989408Y-91282962D01*
X144052993Y-91265925D01*
X144167007Y-91200099D01*
X144260099Y-91107007D01*
X144325925Y-90992993D01*
X144342962Y-90929408D01*
X144975270Y-91561717D01*
X144975270Y-91561716D01*
X145014622Y-91507555D01*
X145019232Y-91498507D01*
X145067205Y-91447709D01*
X145135025Y-91430912D01*
X145201161Y-91453447D01*
X145240204Y-91498504D01*
X145244949Y-91507817D01*
X145369890Y-91679786D01*
X145520213Y-91830109D01*
X145692179Y-91955048D01*
X145692181Y-91955049D01*
X145692184Y-91955051D01*
X145881588Y-92051557D01*
X146083757Y-92117246D01*
X146293713Y-92150500D01*
X146293714Y-92150500D01*
X146506286Y-92150500D01*
X146506287Y-92150500D01*
X146716243Y-92117246D01*
X146918412Y-92051557D01*
X147107816Y-91955051D01*
X147279792Y-91830104D01*
X147393329Y-91716566D01*
X147454648Y-91683084D01*
X147524340Y-91688068D01*
X147580274Y-91729939D01*
X147597189Y-91760917D01*
X147646202Y-91892328D01*
X147646206Y-91892335D01*
X147732452Y-92007544D01*
X147732455Y-92007547D01*
X147847664Y-92093793D01*
X147847671Y-92093797D01*
X147982517Y-92144091D01*
X147982516Y-92144091D01*
X147989444Y-92144835D01*
X148042127Y-92150500D01*
X149837872Y-92150499D01*
X149897483Y-92144091D01*
X150032331Y-92093796D01*
X150147546Y-92007546D01*
X150233796Y-91892331D01*
X150284091Y-91757483D01*
X150290500Y-91697873D01*
X150290499Y-89974983D01*
X153499500Y-89974983D01*
X153499500Y-91575001D01*
X153499501Y-91575018D01*
X153510000Y-91677796D01*
X153510001Y-91677799D01*
X153527279Y-91729939D01*
X153565186Y-91844334D01*
X153657288Y-91993656D01*
X153781344Y-92117712D01*
X153930666Y-92209814D01*
X154097203Y-92264999D01*
X154199991Y-92275500D01*
X155500008Y-92275499D01*
X155602797Y-92264999D01*
X155769334Y-92209814D01*
X155918656Y-92117712D01*
X156042712Y-91993656D01*
X156134814Y-91844334D01*
X156134814Y-91844331D01*
X156138448Y-91838441D01*
X156190395Y-91791716D01*
X156259358Y-91780493D01*
X156323440Y-91808336D01*
X156331668Y-91815856D01*
X156470535Y-91954723D01*
X156470540Y-91954727D01*
X156642442Y-92079620D01*
X156831782Y-92176095D01*
X157033871Y-92241757D01*
X157100000Y-92252231D01*
X157100000Y-91208012D01*
X157157007Y-91240925D01*
X157284174Y-91275000D01*
X157415826Y-91275000D01*
X157542993Y-91240925D01*
X157600000Y-91208012D01*
X157600000Y-92252230D01*
X157666126Y-92241757D01*
X157666129Y-92241757D01*
X157868217Y-92176095D01*
X158057557Y-92079620D01*
X158229459Y-91954727D01*
X158229464Y-91954723D01*
X158379723Y-91804464D01*
X158379727Y-91804459D01*
X158504620Y-91632557D01*
X158601095Y-91443217D01*
X158666757Y-91241130D01*
X158666757Y-91241127D01*
X158700000Y-91031246D01*
X158700000Y-91025000D01*
X157783012Y-91025000D01*
X157815925Y-90967993D01*
X157850000Y-90840826D01*
X157850000Y-90709174D01*
X157815925Y-90582007D01*
X157783012Y-90525000D01*
X158700000Y-90525000D01*
X158700000Y-90518753D01*
X158666757Y-90308872D01*
X158666757Y-90308869D01*
X158601095Y-90106782D01*
X158504620Y-89917442D01*
X158379727Y-89745540D01*
X158379723Y-89745535D01*
X158229464Y-89595276D01*
X158229459Y-89595272D01*
X158057557Y-89470379D01*
X157868215Y-89373903D01*
X157666124Y-89308241D01*
X157600000Y-89297768D01*
X157600000Y-90341988D01*
X157542993Y-90309075D01*
X157415826Y-90275000D01*
X157284174Y-90275000D01*
X157157007Y-90309075D01*
X157100000Y-90341988D01*
X157100000Y-89297768D01*
X157099999Y-89297768D01*
X157033875Y-89308241D01*
X156831784Y-89373903D01*
X156642442Y-89470379D01*
X156470541Y-89595271D01*
X156331668Y-89734144D01*
X156270345Y-89767628D01*
X156200653Y-89762644D01*
X156144720Y-89720772D01*
X156138448Y-89711558D01*
X156097629Y-89645380D01*
X156042712Y-89556344D01*
X155918656Y-89432288D01*
X155769334Y-89340186D01*
X155602797Y-89285001D01*
X155602795Y-89285000D01*
X155500010Y-89274500D01*
X154199998Y-89274500D01*
X154199981Y-89274501D01*
X154097203Y-89285000D01*
X154097200Y-89285001D01*
X153930668Y-89340185D01*
X153930663Y-89340187D01*
X153781342Y-89432289D01*
X153657289Y-89556342D01*
X153565187Y-89705663D01*
X153565185Y-89705668D01*
X153560180Y-89720772D01*
X153510001Y-89872203D01*
X153510001Y-89872204D01*
X153510000Y-89872204D01*
X153499500Y-89974983D01*
X150290499Y-89974983D01*
X150290499Y-89902128D01*
X150284091Y-89842517D01*
X150282810Y-89839083D01*
X150233797Y-89707671D01*
X150233793Y-89707664D01*
X150147547Y-89592455D01*
X150147544Y-89592452D01*
X150032335Y-89506206D01*
X150032328Y-89506202D01*
X149897482Y-89455908D01*
X149897483Y-89455908D01*
X149837883Y-89449501D01*
X149837881Y-89449500D01*
X149837873Y-89449500D01*
X149837864Y-89449500D01*
X148042129Y-89449500D01*
X148042123Y-89449501D01*
X147982516Y-89455908D01*
X147847671Y-89506202D01*
X147847664Y-89506206D01*
X147732455Y-89592452D01*
X147732452Y-89592455D01*
X147646206Y-89707664D01*
X147646203Y-89707669D01*
X147597189Y-89839083D01*
X147555317Y-89895016D01*
X147489853Y-89919433D01*
X147421580Y-89904581D01*
X147393326Y-89883430D01*
X147279786Y-89769890D01*
X147107820Y-89644951D01*
X146918414Y-89548444D01*
X146918413Y-89548443D01*
X146918412Y-89548443D01*
X146716243Y-89482754D01*
X146716241Y-89482753D01*
X146716240Y-89482753D01*
X146554957Y-89457208D01*
X146506287Y-89449500D01*
X146293713Y-89449500D01*
X146245042Y-89457208D01*
X146083760Y-89482753D01*
X145881585Y-89548444D01*
X145692179Y-89644951D01*
X145520213Y-89769890D01*
X145369890Y-89920213D01*
X145244949Y-90092182D01*
X145240202Y-90101499D01*
X145192227Y-90152293D01*
X145124405Y-90169087D01*
X145058271Y-90146548D01*
X145019234Y-90101495D01*
X145014626Y-90092452D01*
X144975270Y-90038282D01*
X144975269Y-90038282D01*
X144342962Y-90670590D01*
X144325925Y-90607007D01*
X144260099Y-90492993D01*
X144167007Y-90399901D01*
X144052993Y-90334075D01*
X143989409Y-90317037D01*
X144621716Y-89684728D01*
X144567550Y-89645375D01*
X144378217Y-89548904D01*
X144176129Y-89483242D01*
X143966246Y-89450000D01*
X143753754Y-89450000D01*
X143543872Y-89483242D01*
X143543869Y-89483242D01*
X143341782Y-89548904D01*
X143152439Y-89645380D01*
X143098282Y-89684727D01*
X143098282Y-89684728D01*
X143730591Y-90317037D01*
X143667007Y-90334075D01*
X143552993Y-90399901D01*
X143459901Y-90492993D01*
X143394075Y-90607007D01*
X143377037Y-90670591D01*
X142744728Y-90038282D01*
X142744727Y-90038282D01*
X142705380Y-90092439D01*
X142608904Y-90281782D01*
X142543242Y-90483869D01*
X142543242Y-90483872D01*
X142510000Y-90693753D01*
X141032952Y-90693753D01*
X141032952Y-83480537D01*
X141052637Y-83413498D01*
X141105441Y-83367743D01*
X141174599Y-83357799D01*
X141238155Y-83386824D01*
X141271513Y-83433085D01*
X141290602Y-83479172D01*
X141290609Y-83479185D01*
X141378210Y-83610288D01*
X141378213Y-83610292D01*
X141489707Y-83721786D01*
X141489711Y-83721789D01*
X141620814Y-83809390D01*
X141620827Y-83809397D01*
X141738162Y-83857998D01*
X141792566Y-83901838D01*
X141814631Y-83968132D01*
X141797352Y-84035832D01*
X141778392Y-84060240D01*
X141657287Y-84181345D01*
X141565187Y-84330663D01*
X141565185Y-84330668D01*
X141537349Y-84414670D01*
X141510001Y-84497203D01*
X141510001Y-84497204D01*
X141510000Y-84497204D01*
X141499500Y-84599983D01*
X141499500Y-85600001D01*
X141499501Y-85600019D01*
X141510000Y-85702796D01*
X141510001Y-85702799D01*
X141542211Y-85800000D01*
X141565186Y-85869334D01*
X141657288Y-86018656D01*
X141781344Y-86142712D01*
X141930666Y-86234814D01*
X142024553Y-86265925D01*
X142060790Y-86277933D01*
X142118235Y-86317706D01*
X142136347Y-86348186D01*
X142190604Y-86479176D01*
X142190609Y-86479185D01*
X142278210Y-86610288D01*
X142278213Y-86610292D01*
X142389707Y-86721786D01*
X142389711Y-86721789D01*
X142520814Y-86809390D01*
X142520827Y-86809397D01*
X142666498Y-86869735D01*
X142666503Y-86869737D01*
X142821153Y-86900499D01*
X142821156Y-86900500D01*
X142821158Y-86900500D01*
X142978844Y-86900500D01*
X142978845Y-86900499D01*
X143133497Y-86869737D01*
X143279179Y-86809394D01*
X143410289Y-86721789D01*
X143521789Y-86610289D01*
X143609394Y-86479179D01*
X143669737Y-86333497D01*
X143681023Y-86276757D01*
X143713407Y-86214848D01*
X143774123Y-86180274D01*
X143843892Y-86184013D01*
X143867738Y-86195412D01*
X143930873Y-86234355D01*
X143930880Y-86234358D01*
X144097302Y-86289505D01*
X144097309Y-86289506D01*
X144200019Y-86299999D01*
X144349999Y-86299999D01*
X144850000Y-86299999D01*
X144999972Y-86299999D01*
X144999986Y-86299998D01*
X145102697Y-86289505D01*
X145269119Y-86234358D01*
X145269124Y-86234356D01*
X145418345Y-86142315D01*
X145542315Y-86018345D01*
X145634356Y-85869124D01*
X145634358Y-85869119D01*
X145689505Y-85702697D01*
X145689506Y-85702690D01*
X145699999Y-85599986D01*
X145700000Y-85599973D01*
X145700000Y-85350000D01*
X144850000Y-85350000D01*
X144850000Y-86299999D01*
X144349999Y-86299999D01*
X144350000Y-86299998D01*
X144350000Y-85224000D01*
X144369685Y-85156961D01*
X144422489Y-85111206D01*
X144474000Y-85100000D01*
X144600000Y-85100000D01*
X144600000Y-84974000D01*
X144619685Y-84906961D01*
X144672489Y-84861206D01*
X144724000Y-84850000D01*
X145699999Y-84850000D01*
X145699999Y-84600028D01*
X145699998Y-84600015D01*
X145693556Y-84536958D01*
X145706325Y-84468265D01*
X145754205Y-84417380D01*
X145821995Y-84400459D01*
X145888172Y-84422874D01*
X145904595Y-84436674D01*
X145989707Y-84521786D01*
X145989711Y-84521789D01*
X146120814Y-84609390D01*
X146120827Y-84609397D01*
X146266498Y-84669735D01*
X146266503Y-84669737D01*
X146266507Y-84669737D01*
X146266508Y-84669738D01*
X146322671Y-84680910D01*
X146384582Y-84713295D01*
X146419156Y-84774011D01*
X146415911Y-84834543D01*
X146417693Y-84834965D01*
X146415908Y-84842516D01*
X146409501Y-84902116D01*
X146409500Y-84902135D01*
X146409500Y-86697870D01*
X146409501Y-86697876D01*
X146415908Y-86757483D01*
X146466202Y-86892328D01*
X146466206Y-86892335D01*
X146552452Y-87007544D01*
X146552455Y-87007547D01*
X146667664Y-87093793D01*
X146667671Y-87093797D01*
X146802517Y-87144091D01*
X146802516Y-87144091D01*
X146809444Y-87144835D01*
X146862127Y-87150500D01*
X148657872Y-87150499D01*
X148717483Y-87144091D01*
X148852331Y-87093796D01*
X148967546Y-87007546D01*
X149053796Y-86892331D01*
X149102810Y-86760916D01*
X149144681Y-86704984D01*
X149210145Y-86680566D01*
X149278418Y-86695417D01*
X149306673Y-86716569D01*
X149420213Y-86830109D01*
X149592179Y-86955048D01*
X149592181Y-86955049D01*
X149592184Y-86955051D01*
X149781588Y-87051557D01*
X149983757Y-87117246D01*
X150193713Y-87150500D01*
X150193714Y-87150500D01*
X150406286Y-87150500D01*
X150406287Y-87150500D01*
X150616243Y-87117246D01*
X150818412Y-87051557D01*
X151007816Y-86955051D01*
X151094138Y-86892335D01*
X151179786Y-86830109D01*
X151179788Y-86830106D01*
X151179792Y-86830104D01*
X151330104Y-86679792D01*
X151330106Y-86679788D01*
X151330109Y-86679786D01*
X151415890Y-86561717D01*
X151455051Y-86507816D01*
X151459793Y-86498508D01*
X151507763Y-86447711D01*
X151575583Y-86430911D01*
X151641719Y-86453445D01*
X151680763Y-86498500D01*
X151685373Y-86507547D01*
X151724728Y-86561716D01*
X152357037Y-85929408D01*
X152374075Y-85992993D01*
X152439901Y-86107007D01*
X152532993Y-86200099D01*
X152647007Y-86265925D01*
X152710590Y-86282962D01*
X152078282Y-86915269D01*
X152078282Y-86915270D01*
X152132449Y-86954624D01*
X152321782Y-87051095D01*
X152523870Y-87116757D01*
X152733754Y-87150000D01*
X152946246Y-87150000D01*
X153156127Y-87116757D01*
X153156130Y-87116757D01*
X153358217Y-87051095D01*
X153547554Y-86954622D01*
X153601716Y-86915270D01*
X153601717Y-86915270D01*
X152969408Y-86282962D01*
X153032993Y-86265925D01*
X153147007Y-86200099D01*
X153240099Y-86107007D01*
X153305925Y-85992993D01*
X153322962Y-85929408D01*
X153955270Y-86561717D01*
X153955270Y-86561716D01*
X153994622Y-86507554D01*
X154091095Y-86318217D01*
X154156757Y-86116130D01*
X154156757Y-86116127D01*
X154190000Y-85906246D01*
X154190000Y-85693753D01*
X154156757Y-85483872D01*
X154156757Y-85483869D01*
X154091095Y-85281782D01*
X153994624Y-85092449D01*
X153955270Y-85038282D01*
X153955269Y-85038282D01*
X153322962Y-85670590D01*
X153305925Y-85607007D01*
X153240099Y-85492993D01*
X153147007Y-85399901D01*
X153032993Y-85334075D01*
X152969409Y-85317037D01*
X153601716Y-84684728D01*
X153547550Y-84645375D01*
X153358217Y-84548904D01*
X153156129Y-84483242D01*
X152946246Y-84450000D01*
X152733754Y-84450000D01*
X152523872Y-84483242D01*
X152523869Y-84483242D01*
X152321782Y-84548904D01*
X152132439Y-84645380D01*
X152078282Y-84684727D01*
X152078282Y-84684728D01*
X152710591Y-85317037D01*
X152647007Y-85334075D01*
X152532993Y-85399901D01*
X152439901Y-85492993D01*
X152374075Y-85607007D01*
X152357037Y-85670591D01*
X151724728Y-85038282D01*
X151724727Y-85038282D01*
X151685380Y-85092440D01*
X151685376Y-85092446D01*
X151680760Y-85101505D01*
X151632781Y-85152297D01*
X151564959Y-85169087D01*
X151498826Y-85146543D01*
X151459794Y-85101493D01*
X151455051Y-85092184D01*
X151455049Y-85092181D01*
X151455048Y-85092179D01*
X151330109Y-84920213D01*
X151179786Y-84769890D01*
X151007820Y-84644951D01*
X150818414Y-84548444D01*
X150818413Y-84548443D01*
X150818412Y-84548443D01*
X150616243Y-84482754D01*
X150616241Y-84482753D01*
X150616240Y-84482753D01*
X150454957Y-84457208D01*
X150406287Y-84449500D01*
X150193713Y-84449500D01*
X150145042Y-84457208D01*
X149983760Y-84482753D01*
X149781585Y-84548444D01*
X149592179Y-84644951D01*
X149420215Y-84769889D01*
X149306673Y-84883431D01*
X149245350Y-84916915D01*
X149175658Y-84911931D01*
X149119725Y-84870059D01*
X149102810Y-84839082D01*
X149053797Y-84707671D01*
X149053793Y-84707664D01*
X148967547Y-84592455D01*
X148967544Y-84592452D01*
X148852335Y-84506206D01*
X148852328Y-84506202D01*
X148717482Y-84455908D01*
X148717483Y-84455908D01*
X148657883Y-84449501D01*
X148657881Y-84449500D01*
X148657873Y-84449500D01*
X148657865Y-84449500D01*
X147324424Y-84449500D01*
X147257385Y-84429815D01*
X147211630Y-84377011D01*
X147201686Y-84307853D01*
X147209863Y-84278048D01*
X147252339Y-84175499D01*
X147269737Y-84133497D01*
X147300500Y-83978842D01*
X147300500Y-83821158D01*
X147300500Y-83821155D01*
X147300499Y-83821153D01*
X147280734Y-83721789D01*
X147269737Y-83666503D01*
X147239938Y-83594562D01*
X147230499Y-83547109D01*
X147230499Y-82099129D01*
X147230499Y-82099127D01*
X147224951Y-82047517D01*
X147237358Y-81978758D01*
X147284969Y-81927621D01*
X147352668Y-81910343D01*
X147418962Y-81932409D01*
X147435922Y-81946583D01*
X147556654Y-82067315D01*
X147705875Y-82159356D01*
X147705880Y-82159358D01*
X147872302Y-82214505D01*
X147872309Y-82214506D01*
X147975019Y-82224999D01*
X148249999Y-82224999D01*
X148750000Y-82224999D01*
X149024972Y-82224999D01*
X149024986Y-82224998D01*
X149127697Y-82214505D01*
X149294119Y-82159358D01*
X149294124Y-82159356D01*
X149443345Y-82067315D01*
X149512319Y-81998342D01*
X149573642Y-81964857D01*
X149643334Y-81969841D01*
X149687681Y-81998342D01*
X149756654Y-82067315D01*
X149905875Y-82159356D01*
X149905880Y-82159358D01*
X150072302Y-82214505D01*
X150072309Y-82214506D01*
X150175019Y-82224999D01*
X150449999Y-82224999D01*
X150450000Y-82224998D01*
X150450000Y-81387500D01*
X148750000Y-81387500D01*
X148750000Y-82224999D01*
X148249999Y-82224999D01*
X148250000Y-82224998D01*
X148250000Y-81387500D01*
X147275001Y-81387500D01*
X147275001Y-81524986D01*
X147285494Y-81627698D01*
X147299188Y-81669025D01*
X147301589Y-81738853D01*
X147265857Y-81798895D01*
X147203337Y-81830087D01*
X147133877Y-81822526D01*
X147093801Y-81795709D01*
X147087544Y-81789452D01*
X146972335Y-81703206D01*
X146972328Y-81703202D01*
X146837486Y-81652910D01*
X146837485Y-81652909D01*
X146837483Y-81652909D01*
X146777873Y-81646500D01*
X146777863Y-81646500D01*
X146032129Y-81646500D01*
X146032123Y-81646501D01*
X145972516Y-81652908D01*
X145837671Y-81703202D01*
X145829886Y-81707454D01*
X145828153Y-81704280D01*
X145778698Y-81722659D01*
X145710443Y-81707725D01*
X145709497Y-81707117D01*
X145702328Y-81703202D01*
X145567486Y-81652910D01*
X145567485Y-81652909D01*
X145567483Y-81652909D01*
X145507873Y-81646500D01*
X145507863Y-81646500D01*
X144762129Y-81646500D01*
X144762123Y-81646501D01*
X144702516Y-81652908D01*
X144567671Y-81703202D01*
X144559886Y-81707454D01*
X144558153Y-81704280D01*
X144508698Y-81722659D01*
X144440443Y-81707725D01*
X144439497Y-81707117D01*
X144432328Y-81703202D01*
X144297486Y-81652910D01*
X144297485Y-81652909D01*
X144297483Y-81652909D01*
X144237873Y-81646500D01*
X144237863Y-81646500D01*
X143492129Y-81646500D01*
X143492123Y-81646501D01*
X143432516Y-81652908D01*
X143297671Y-81703202D01*
X143289886Y-81707454D01*
X143288153Y-81704280D01*
X143238698Y-81722659D01*
X143170443Y-81707725D01*
X143169497Y-81707117D01*
X143162328Y-81703202D01*
X143027486Y-81652910D01*
X143027485Y-81652909D01*
X143027483Y-81652909D01*
X142967873Y-81646500D01*
X142967863Y-81646500D01*
X142222129Y-81646500D01*
X142222123Y-81646501D01*
X142162516Y-81652908D01*
X142027671Y-81703202D01*
X142027664Y-81703206D01*
X141912455Y-81789452D01*
X141912452Y-81789455D01*
X141826206Y-81904664D01*
X141826202Y-81904671D01*
X141775908Y-82039517D01*
X141769501Y-82099116D01*
X141769501Y-82099125D01*
X141769500Y-82099135D01*
X141769500Y-82246167D01*
X141749815Y-82313206D01*
X141697011Y-82358961D01*
X141692952Y-82360728D01*
X141620827Y-82390602D01*
X141620814Y-82390609D01*
X141489711Y-82478210D01*
X141489707Y-82478213D01*
X141378213Y-82589707D01*
X141378210Y-82589711D01*
X141290609Y-82720814D01*
X141290604Y-82720824D01*
X141271513Y-82766915D01*
X141227672Y-82821318D01*
X141161378Y-82843383D01*
X141093678Y-82826104D01*
X141046068Y-82774966D01*
X141032952Y-82719462D01*
X141032952Y-78300844D01*
X141770000Y-78300844D01*
X141776401Y-78360372D01*
X141776403Y-78360379D01*
X141826645Y-78495086D01*
X141826649Y-78495093D01*
X141912809Y-78610187D01*
X141912812Y-78610190D01*
X142027906Y-78696350D01*
X142027913Y-78696354D01*
X142162620Y-78746596D01*
X142162627Y-78746598D01*
X142222155Y-78752999D01*
X142222172Y-78753000D01*
X142345000Y-78753000D01*
X142345000Y-77739000D01*
X141770000Y-77739000D01*
X141770000Y-78300844D01*
X141032952Y-78300844D01*
X141032952Y-76677155D01*
X141770000Y-76677155D01*
X141770000Y-77239000D01*
X142345000Y-77239000D01*
X142345000Y-76225000D01*
X142845000Y-76225000D01*
X142845000Y-78753000D01*
X142967828Y-78753000D01*
X142967844Y-78752999D01*
X143027372Y-78746598D01*
X143027376Y-78746597D01*
X143162093Y-78696350D01*
X143169876Y-78692101D01*
X143171665Y-78695378D01*
X143220485Y-78677056D01*
X143288788Y-78691769D01*
X143290644Y-78692960D01*
X143297670Y-78696797D01*
X143346975Y-78715186D01*
X143432517Y-78747091D01*
X143492127Y-78753500D01*
X144237872Y-78753499D01*
X144297483Y-78747091D01*
X144383025Y-78715186D01*
X144432329Y-78696797D01*
X144440112Y-78692547D01*
X144441865Y-78695757D01*
X144490999Y-78677361D01*
X144559291Y-78692127D01*
X144560263Y-78692752D01*
X144567670Y-78696797D01*
X144616975Y-78715186D01*
X144702517Y-78747091D01*
X144762127Y-78753500D01*
X145507872Y-78753499D01*
X145567483Y-78747091D01*
X145653025Y-78715186D01*
X145702329Y-78696797D01*
X145710112Y-78692547D01*
X145711865Y-78695757D01*
X145760999Y-78677361D01*
X145829291Y-78692127D01*
X145830263Y-78692752D01*
X145837670Y-78696797D01*
X145886975Y-78715186D01*
X145972517Y-78747091D01*
X146032127Y-78753500D01*
X146503921Y-78753499D01*
X146570960Y-78773183D01*
X146607022Y-78808607D01*
X146636208Y-78852286D01*
X146636213Y-78852292D01*
X146747707Y-78963786D01*
X146747711Y-78963789D01*
X146878814Y-79051390D01*
X146878827Y-79051397D01*
X147002125Y-79102468D01*
X147024503Y-79111737D01*
X147087205Y-79124209D01*
X147174691Y-79141612D01*
X147236602Y-79173997D01*
X147271176Y-79234713D01*
X147274500Y-79263228D01*
X147274500Y-79450000D01*
X147274501Y-79450019D01*
X147285000Y-79552796D01*
X147285001Y-79552799D01*
X147298829Y-79594528D01*
X147340186Y-79719334D01*
X147432288Y-79868656D01*
X147556344Y-79992712D01*
X147559628Y-79994737D01*
X147559653Y-79994753D01*
X147561445Y-79996746D01*
X147562011Y-79997193D01*
X147561934Y-79997289D01*
X147606379Y-80046699D01*
X147617603Y-80115661D01*
X147589761Y-80179744D01*
X147559665Y-80205826D01*
X147556660Y-80207679D01*
X147556655Y-80207683D01*
X147432684Y-80331654D01*
X147340643Y-80480875D01*
X147340641Y-80480880D01*
X147285494Y-80647302D01*
X147285493Y-80647309D01*
X147275000Y-80750013D01*
X147275000Y-80887500D01*
X150576000Y-80887500D01*
X150643039Y-80907185D01*
X150688794Y-80959989D01*
X150700000Y-81011500D01*
X150700000Y-81137500D01*
X150826000Y-81137500D01*
X150893039Y-81157185D01*
X150938794Y-81209989D01*
X150950000Y-81261500D01*
X150950000Y-82224999D01*
X151224972Y-82224999D01*
X151224986Y-82224998D01*
X151318735Y-82215421D01*
X151387428Y-82228190D01*
X151419018Y-82251098D01*
X151502942Y-82335022D01*
X151502946Y-82335025D01*
X151634049Y-82422626D01*
X151634062Y-82422633D01*
X151768239Y-82478210D01*
X151779738Y-82482973D01*
X151934388Y-82513735D01*
X151934391Y-82513736D01*
X151934393Y-82513736D01*
X152092079Y-82513736D01*
X152092080Y-82513735D01*
X152246732Y-82482973D01*
X152392414Y-82422630D01*
X152523524Y-82335025D01*
X152545343Y-82313206D01*
X152621732Y-82236818D01*
X152683055Y-82203333D01*
X152709413Y-82200499D01*
X153400002Y-82200499D01*
X153400008Y-82200499D01*
X153502797Y-82189999D01*
X153669334Y-82134814D01*
X153818656Y-82042712D01*
X153942712Y-81918656D01*
X154034814Y-81769334D01*
X154089999Y-81602797D01*
X154100500Y-81500009D01*
X154100499Y-80699992D01*
X154089999Y-80597203D01*
X154034814Y-80430666D01*
X153942712Y-80281344D01*
X153849049Y-80187681D01*
X153815564Y-80126358D01*
X153820548Y-80056666D01*
X153849049Y-80012319D01*
X153868657Y-79992711D01*
X153942712Y-79918656D01*
X154020048Y-79793272D01*
X154071994Y-79746549D01*
X154140957Y-79735326D01*
X154205039Y-79763169D01*
X154240147Y-79810917D01*
X154274918Y-79894861D01*
X154274923Y-79894871D01*
X154362524Y-80025974D01*
X154362527Y-80025978D01*
X154474022Y-80137473D01*
X154474025Y-80137475D01*
X154553953Y-80190881D01*
X154598758Y-80244493D01*
X154606679Y-80269791D01*
X154638121Y-80427860D01*
X154638124Y-80427870D01*
X154698462Y-80573541D01*
X154698469Y-80573554D01*
X154786070Y-80704657D01*
X154786073Y-80704661D01*
X154897567Y-80816155D01*
X154897571Y-80816158D01*
X155028674Y-80903759D01*
X155028687Y-80903766D01*
X155174358Y-80964104D01*
X155174363Y-80964106D01*
X155329013Y-80994868D01*
X155329016Y-80994869D01*
X155329018Y-80994869D01*
X155486704Y-80994869D01*
X155486705Y-80994868D01*
X155641357Y-80964106D01*
X155754026Y-80917436D01*
X155787032Y-80903766D01*
X155787032Y-80903765D01*
X155787039Y-80903763D01*
X155918149Y-80816158D01*
X156029649Y-80704658D01*
X156117254Y-80573548D01*
X156177597Y-80427866D01*
X156208360Y-80273211D01*
X156208360Y-80273210D01*
X156209051Y-80269737D01*
X156241436Y-80207826D01*
X156242931Y-80206303D01*
X156714662Y-79734572D01*
X156775983Y-79701089D01*
X156778150Y-79700638D01*
X156836085Y-79689113D01*
X156933497Y-79669737D01*
X157079179Y-79609394D01*
X157210289Y-79521789D01*
X157321789Y-79410289D01*
X157409394Y-79279179D01*
X157469737Y-79133497D01*
X157500500Y-78978842D01*
X157500500Y-78821158D01*
X157500500Y-78821155D01*
X157500499Y-78821153D01*
X157485767Y-78747091D01*
X157469737Y-78666503D01*
X157446412Y-78610190D01*
X157409397Y-78520827D01*
X157409390Y-78520814D01*
X157321789Y-78389711D01*
X157321786Y-78389707D01*
X157210292Y-78278213D01*
X157155608Y-78241674D01*
X157110804Y-78188061D01*
X157100500Y-78138572D01*
X157100500Y-78121155D01*
X157100499Y-78121153D01*
X157069737Y-77966503D01*
X157013905Y-77831711D01*
X157009397Y-77820827D01*
X157009390Y-77820814D01*
X156921789Y-77689711D01*
X156921786Y-77689707D01*
X156810292Y-77578213D01*
X156810288Y-77578210D01*
X156679185Y-77490609D01*
X156679172Y-77490602D01*
X156533501Y-77430264D01*
X156533489Y-77430261D01*
X156378845Y-77399500D01*
X156378842Y-77399500D01*
X156221158Y-77399500D01*
X156221155Y-77399500D01*
X156066510Y-77430261D01*
X156066498Y-77430264D01*
X155920827Y-77490602D01*
X155920814Y-77490609D01*
X155789711Y-77578210D01*
X155789707Y-77578213D01*
X155678213Y-77689707D01*
X155678210Y-77689711D01*
X155590609Y-77820814D01*
X155590602Y-77820827D01*
X155530264Y-77966498D01*
X155530261Y-77966508D01*
X155499361Y-78121850D01*
X155466976Y-78183761D01*
X155465425Y-78185339D01*
X154969653Y-78681111D01*
X154908330Y-78714596D01*
X154906164Y-78715047D01*
X154750822Y-78745947D01*
X154750812Y-78745950D01*
X154605141Y-78806288D01*
X154605128Y-78806295D01*
X154474025Y-78893896D01*
X154474021Y-78893899D01*
X154362527Y-79005393D01*
X154327601Y-79057664D01*
X154273988Y-79102468D01*
X154204663Y-79111175D01*
X154141636Y-79081020D01*
X154104917Y-79021577D01*
X154100499Y-78988772D01*
X154100499Y-78699998D01*
X154100498Y-78699980D01*
X154089999Y-78597203D01*
X154089998Y-78597200D01*
X154064686Y-78520814D01*
X154034814Y-78430666D01*
X153942712Y-78281344D01*
X153818656Y-78157288D01*
X153669334Y-78065186D01*
X153502797Y-78010001D01*
X153502795Y-78010000D01*
X153400010Y-77999500D01*
X152399998Y-77999500D01*
X152399980Y-77999501D01*
X152297203Y-78010000D01*
X152297200Y-78010001D01*
X152130668Y-78065185D01*
X152130663Y-78065187D01*
X151981342Y-78157289D01*
X151912681Y-78225951D01*
X151851358Y-78259436D01*
X151781666Y-78254452D01*
X151737319Y-78225951D01*
X151643657Y-78132289D01*
X151643656Y-78132288D01*
X151494334Y-78040186D01*
X151327797Y-77985001D01*
X151327795Y-77985000D01*
X151225010Y-77974500D01*
X150174998Y-77974500D01*
X150174980Y-77974501D01*
X150072203Y-77985000D01*
X150072200Y-77985001D01*
X149905668Y-78040185D01*
X149905663Y-78040187D01*
X149756342Y-78132289D01*
X149687681Y-78200951D01*
X149626358Y-78234436D01*
X149556666Y-78229452D01*
X149512319Y-78200951D01*
X149443657Y-78132289D01*
X149443656Y-78132288D01*
X149294334Y-78040186D01*
X149127797Y-77985001D01*
X149127795Y-77985000D01*
X149025016Y-77974500D01*
X148041477Y-77974500D01*
X147974438Y-77954815D01*
X147938375Y-77919391D01*
X147879789Y-77831710D01*
X147768292Y-77720213D01*
X147768288Y-77720210D01*
X147637185Y-77632609D01*
X147637172Y-77632602D01*
X147491501Y-77572264D01*
X147491491Y-77572261D01*
X147336149Y-77541361D01*
X147319392Y-77532595D01*
X147300914Y-77528576D01*
X147275877Y-77509833D01*
X147274238Y-77508976D01*
X147272660Y-77507425D01*
X147266818Y-77501583D01*
X147233333Y-77440260D01*
X147230499Y-77413902D01*
X147230499Y-76677129D01*
X147230498Y-76677123D01*
X147224091Y-76617516D01*
X147173797Y-76482671D01*
X147173793Y-76482664D01*
X147087547Y-76367455D01*
X147087544Y-76367452D01*
X146972335Y-76281206D01*
X146972328Y-76281202D01*
X146837486Y-76230910D01*
X146837485Y-76230909D01*
X146837483Y-76230909D01*
X146777873Y-76224500D01*
X146777863Y-76224500D01*
X146032129Y-76224500D01*
X146032123Y-76224501D01*
X145972516Y-76230908D01*
X145902833Y-76256899D01*
X145833141Y-76261883D01*
X145771818Y-76228398D01*
X145738334Y-76167074D01*
X145735500Y-76140717D01*
X145735500Y-75665097D01*
X145755185Y-75598058D01*
X145771819Y-75577416D01*
X146512417Y-74836819D01*
X146573740Y-74803334D01*
X146600098Y-74800500D01*
X146959903Y-74800500D01*
X147026942Y-74820185D01*
X147047584Y-74836819D01*
X147355922Y-75145157D01*
X147389407Y-75206480D01*
X147386173Y-75271155D01*
X147381522Y-75285468D01*
X147349500Y-75487648D01*
X147349500Y-75692351D01*
X147381522Y-75894534D01*
X147444781Y-76089223D01*
X147471291Y-76141250D01*
X147533829Y-76263988D01*
X147537715Y-76271613D01*
X147658028Y-76437213D01*
X147802786Y-76581971D01*
X147933798Y-76677155D01*
X147968390Y-76702287D01*
X148084607Y-76761503D01*
X148150776Y-76795218D01*
X148150778Y-76795218D01*
X148150781Y-76795220D01*
X148255137Y-76829127D01*
X148345465Y-76858477D01*
X148446557Y-76874488D01*
X148547648Y-76890500D01*
X148547649Y-76890500D01*
X148752351Y-76890500D01*
X148752352Y-76890500D01*
X148954534Y-76858477D01*
X149149219Y-76795220D01*
X149331610Y-76702287D01*
X149424590Y-76634732D01*
X149497213Y-76581971D01*
X149497215Y-76581968D01*
X149497219Y-76581966D01*
X149582319Y-76496866D01*
X149643642Y-76463381D01*
X149713334Y-76468365D01*
X149757681Y-76496866D01*
X149842786Y-76581971D01*
X149973798Y-76677155D01*
X150008390Y-76702287D01*
X150124607Y-76761503D01*
X150190776Y-76795218D01*
X150190778Y-76795218D01*
X150190781Y-76795220D01*
X150295137Y-76829127D01*
X150385465Y-76858477D01*
X150486557Y-76874488D01*
X150587648Y-76890500D01*
X150587649Y-76890500D01*
X150792351Y-76890500D01*
X150792352Y-76890500D01*
X150994534Y-76858477D01*
X151189219Y-76795220D01*
X151371610Y-76702287D01*
X151464590Y-76634732D01*
X151537213Y-76581971D01*
X151537215Y-76581968D01*
X151537219Y-76581966D01*
X151681966Y-76437219D01*
X151681968Y-76437215D01*
X151681971Y-76437213D01*
X151802284Y-76271614D01*
X151802285Y-76271613D01*
X151802287Y-76271610D01*
X151895220Y-76089219D01*
X151895222Y-76089211D01*
X151897086Y-76084714D01*
X151898186Y-76085169D01*
X151924931Y-76041512D01*
X152287861Y-75678583D01*
X152310667Y-75763694D01*
X152369910Y-75866306D01*
X152453694Y-75950090D01*
X152556306Y-76009333D01*
X152641414Y-76032137D01*
X152004076Y-76669474D01*
X152048650Y-76701859D01*
X152230968Y-76794755D01*
X152425582Y-76857990D01*
X152627683Y-76890000D01*
X152832317Y-76890000D01*
X153034417Y-76857990D01*
X153229031Y-76794755D01*
X153411349Y-76701859D01*
X153455921Y-76669474D01*
X152818585Y-76032138D01*
X152903694Y-76009333D01*
X153006306Y-75950090D01*
X153090090Y-75866306D01*
X153149333Y-75763694D01*
X153172138Y-75678584D01*
X153750000Y-76256446D01*
X153750001Y-76256446D01*
X154327861Y-75678584D01*
X154350667Y-75763694D01*
X154409910Y-75866306D01*
X154493694Y-75950090D01*
X154596306Y-76009333D01*
X154681414Y-76032137D01*
X154044076Y-76669474D01*
X154088650Y-76701859D01*
X154270968Y-76794755D01*
X154465582Y-76857990D01*
X154667683Y-76890000D01*
X154872317Y-76890000D01*
X155074417Y-76857990D01*
X155269031Y-76794755D01*
X155451349Y-76701859D01*
X155495921Y-76669474D01*
X154858585Y-76032138D01*
X154943694Y-76009333D01*
X155046306Y-75950090D01*
X155130090Y-75866306D01*
X155189333Y-75763694D01*
X155212137Y-75678585D01*
X155849474Y-76315922D01*
X155849474Y-76315921D01*
X155881859Y-76271349D01*
X155974755Y-76089031D01*
X156037990Y-75894417D01*
X156070000Y-75692317D01*
X156070000Y-75487682D01*
X156037990Y-75285582D01*
X155974755Y-75090968D01*
X155881859Y-74908650D01*
X155849474Y-74864077D01*
X155849474Y-74864076D01*
X155212137Y-75501413D01*
X155189333Y-75416306D01*
X155130090Y-75313694D01*
X155046306Y-75229910D01*
X154943694Y-75170667D01*
X154858584Y-75147861D01*
X155495922Y-74510524D01*
X155495921Y-74510523D01*
X155451359Y-74478147D01*
X155451350Y-74478141D01*
X155269031Y-74385244D01*
X155074417Y-74322009D01*
X154872317Y-74290000D01*
X154667685Y-74290000D01*
X154651153Y-74292618D01*
X154581860Y-74283661D01*
X154528409Y-74238664D01*
X154507771Y-74171911D01*
X154526498Y-74104598D01*
X154558874Y-74069825D01*
X154597215Y-74041969D01*
X154597215Y-74041968D01*
X154597219Y-74041966D01*
X154741966Y-73897219D01*
X154741968Y-73897215D01*
X154741971Y-73897213D01*
X154794732Y-73824590D01*
X154862287Y-73731610D01*
X154955220Y-73549219D01*
X155018477Y-73354534D01*
X155050500Y-73152352D01*
X155050500Y-72947648D01*
X155018477Y-72745466D01*
X154955220Y-72550781D01*
X154955218Y-72550778D01*
X154955218Y-72550776D01*
X154921503Y-72484607D01*
X154862287Y-72368390D01*
X154854556Y-72357749D01*
X154741971Y-72202786D01*
X154597213Y-72058028D01*
X154431613Y-71937715D01*
X154431612Y-71937714D01*
X154431610Y-71937713D01*
X154374653Y-71908691D01*
X154249223Y-71844781D01*
X154054534Y-71781522D01*
X153879995Y-71753878D01*
X153852352Y-71749500D01*
X153647648Y-71749500D01*
X153623329Y-71753351D01*
X153445465Y-71781522D01*
X153250776Y-71844781D01*
X153068386Y-71937715D01*
X152902786Y-72058028D01*
X152902782Y-72058032D01*
X152817681Y-72143134D01*
X152756358Y-72176619D01*
X152686666Y-72171635D01*
X152642319Y-72143134D01*
X152557213Y-72058028D01*
X152391613Y-71937715D01*
X152391612Y-71937714D01*
X152391610Y-71937713D01*
X152334653Y-71908691D01*
X152209223Y-71844781D01*
X152014534Y-71781522D01*
X151839995Y-71753878D01*
X151812352Y-71749500D01*
X151607648Y-71749500D01*
X151583329Y-71753351D01*
X151405465Y-71781522D01*
X151210776Y-71844781D01*
X151028386Y-71937715D01*
X150862786Y-72058028D01*
X150862782Y-72058032D01*
X150777681Y-72143134D01*
X150716358Y-72176619D01*
X150646666Y-72171635D01*
X150602319Y-72143134D01*
X150517213Y-72058028D01*
X150351613Y-71937715D01*
X150351612Y-71937714D01*
X150351610Y-71937713D01*
X150294653Y-71908691D01*
X150169223Y-71844781D01*
X149974534Y-71781522D01*
X149799995Y-71753878D01*
X149772352Y-71749500D01*
X149567648Y-71749500D01*
X149543329Y-71753351D01*
X149365465Y-71781522D01*
X149170776Y-71844781D01*
X148988386Y-71937715D01*
X148822786Y-72058028D01*
X148822782Y-72058032D01*
X148737681Y-72143134D01*
X148676358Y-72176619D01*
X148606666Y-72171635D01*
X148562319Y-72143134D01*
X148477213Y-72058028D01*
X148311613Y-71937715D01*
X148311612Y-71937714D01*
X148311610Y-71937713D01*
X148254653Y-71908691D01*
X148129223Y-71844781D01*
X147934534Y-71781522D01*
X147759995Y-71753878D01*
X147732352Y-71749500D01*
X147527648Y-71749500D01*
X147503329Y-71753351D01*
X147325465Y-71781522D01*
X147130776Y-71844781D01*
X146948386Y-71937715D01*
X146782786Y-72058028D01*
X146638028Y-72202786D01*
X146517715Y-72368385D01*
X146510883Y-72381795D01*
X146462909Y-72432591D01*
X146400398Y-72449500D01*
X146370943Y-72449500D01*
X146218215Y-72490423D01*
X146218214Y-72490423D01*
X146218212Y-72490424D01*
X146218209Y-72490425D01*
X146168096Y-72519359D01*
X146168095Y-72519360D01*
X146124689Y-72544420D01*
X146081285Y-72569479D01*
X146081282Y-72569481D01*
X143384479Y-75266284D01*
X143365624Y-75298943D01*
X143357654Y-75312749D01*
X143305423Y-75403215D01*
X143264499Y-75555943D01*
X143264499Y-75555945D01*
X143264499Y-75724046D01*
X143264500Y-75724059D01*
X143264500Y-76141250D01*
X143244815Y-76208289D01*
X143192011Y-76254044D01*
X143122853Y-76263988D01*
X143097167Y-76257432D01*
X143027379Y-76231403D01*
X143027372Y-76231401D01*
X142967844Y-76225000D01*
X142845000Y-76225000D01*
X142345000Y-76225000D01*
X142222155Y-76225000D01*
X142162627Y-76231401D01*
X142162620Y-76231403D01*
X142027913Y-76281645D01*
X142027906Y-76281649D01*
X141912812Y-76367809D01*
X141912809Y-76367812D01*
X141826649Y-76482906D01*
X141826645Y-76482913D01*
X141776403Y-76617620D01*
X141776401Y-76617627D01*
X141770000Y-76677155D01*
X141032952Y-76677155D01*
X141032952Y-70637417D01*
X142269500Y-70637417D01*
X142269500Y-70862582D01*
X142304723Y-71084976D01*
X142374305Y-71299125D01*
X142476527Y-71499745D01*
X142608876Y-71681908D01*
X142768092Y-71841124D01*
X142950255Y-71973473D01*
X143045041Y-72021769D01*
X143150874Y-72075694D01*
X143150876Y-72075694D01*
X143150879Y-72075696D01*
X143265666Y-72112992D01*
X143365023Y-72145276D01*
X143476220Y-72162888D01*
X143587417Y-72180500D01*
X143587418Y-72180500D01*
X143812582Y-72180500D01*
X143812583Y-72180500D01*
X144034976Y-72145276D01*
X144249121Y-72075696D01*
X144449745Y-71973473D01*
X144631908Y-71841124D01*
X144791124Y-71681908D01*
X144923473Y-71499745D01*
X145025696Y-71299121D01*
X145095276Y-71084976D01*
X145130500Y-70862583D01*
X145130500Y-70637417D01*
X157269500Y-70637417D01*
X157269500Y-70862582D01*
X157304723Y-71084976D01*
X157374305Y-71299125D01*
X157476527Y-71499745D01*
X157608876Y-71681908D01*
X157768092Y-71841124D01*
X157950255Y-71973473D01*
X158045041Y-72021769D01*
X158150874Y-72075694D01*
X158150876Y-72075694D01*
X158150879Y-72075696D01*
X158265666Y-72112992D01*
X158365023Y-72145276D01*
X158476220Y-72162888D01*
X158587417Y-72180500D01*
X158587418Y-72180500D01*
X158812582Y-72180500D01*
X158812583Y-72180500D01*
X159034976Y-72145276D01*
X159249121Y-72075696D01*
X159449745Y-71973473D01*
X159631908Y-71841124D01*
X159791124Y-71681908D01*
X159923473Y-71499745D01*
X160025696Y-71299121D01*
X160095276Y-71084976D01*
X160130500Y-70862583D01*
X160130500Y-70637417D01*
X160095276Y-70415024D01*
X160025696Y-70200879D01*
X160025694Y-70200876D01*
X160025694Y-70200874D01*
X159923472Y-70000254D01*
X159791124Y-69818092D01*
X159631908Y-69658876D01*
X159449745Y-69526527D01*
X159249125Y-69424305D01*
X159034976Y-69354723D01*
X158842989Y-69324316D01*
X158812583Y-69319500D01*
X158587417Y-69319500D01*
X158560667Y-69323736D01*
X158365023Y-69354723D01*
X158150874Y-69424305D01*
X157950254Y-69526527D01*
X157768089Y-69658878D01*
X157608878Y-69818089D01*
X157476527Y-70000254D01*
X157374305Y-70200874D01*
X157304723Y-70415023D01*
X157269500Y-70637417D01*
X145130500Y-70637417D01*
X145095276Y-70415024D01*
X145025696Y-70200879D01*
X145025694Y-70200876D01*
X145025694Y-70200874D01*
X144923472Y-70000254D01*
X144791124Y-69818092D01*
X144631908Y-69658876D01*
X144449745Y-69526527D01*
X144249125Y-69424305D01*
X144034976Y-69354723D01*
X143842989Y-69324316D01*
X143812583Y-69319500D01*
X143587417Y-69319500D01*
X143560667Y-69323736D01*
X143365023Y-69354723D01*
X143150874Y-69424305D01*
X142950254Y-69526527D01*
X142768089Y-69658878D01*
X142608878Y-69818089D01*
X142476527Y-70000254D01*
X142374305Y-70200874D01*
X142304723Y-70415023D01*
X142269500Y-70637417D01*
X141032952Y-70637417D01*
X141032952Y-65324500D01*
X141052637Y-65257461D01*
X141105441Y-65211706D01*
X141156952Y-65200500D01*
X161265063Y-65200500D01*
X161332102Y-65220185D01*
G37*
%TD.AperFunction*%
%TD*%
M02*
