M48
; DRILL file KiCad 10.0.1 date 2026-06-17T17:41:21
; FORMAT={-:-/ absolute / metric / decimal}
; #@! TF.CreationDate,2026-06-17T17:41:21-07:00
; #@! TF.GenerationSoftware,Kicad,Pcbnew,10.0.1
; #@! TF.FileFunction,Plated,1,2,PTH
FMAT,2
METRIC
; #@! TA.AperFunction,Plated,PTH,ViaDrill
T1C0.300
; #@! TA.AperFunction,Plated,PTH,ComponentDrill
T2C0.900
; #@! TA.AperFunction,Plated,PTH,ComponentDrill
T3C1.000
%
G90
G05
T1
X142.0Y-83.1
X142.9Y-86.1
X145.6Y-80.65
X146.5Y-83.9
X147.258Y-78.342
X149.6Y-81.0
X152.013Y-81.713
X154.984Y-79.516
X155.408Y-80.194
X156.3Y-78.2
X156.7Y-78.9
X158.9Y-81.9
X158.9Y-82.7
X158.9Y-84.5
X158.9Y-85.3
T2
X147.63Y-73.05
X148.65Y-75.59
X149.67Y-73.05
X150.69Y-75.59
X151.71Y-73.05
X152.73Y-75.59
X153.75Y-73.05
X154.77Y-75.59
T3
X143.86Y-90.8
X146.4Y-90.8
X147.76Y-85.8
X148.94Y-90.8
X150.3Y-85.8
X152.84Y-85.8
X154.85Y-90.775
X157.35Y-90.775
M30
