%TF.GenerationSoftware,KiCad,Pcbnew,10.0.1*%
%TF.CreationDate,2026-06-17T17:40:54-07:00*%
%TF.ProjectId,tile,74696c65-2e6b-4696-9361-645f70636258,rev?*%
%TF.SameCoordinates,Original*%
%TF.FileFunction,Legend,Bot*%
%TF.FilePolarity,Positive*%
%FSLAX46Y46*%
G04 Gerber Fmt 4.6, Leading zero omitted, Abs format (unit mm)*
G04 Created by KiCad (PCBNEW 10.0.1) date 2026-06-17 17:40:54*
%MOMM*%
%LPD*%
G01*
G04 APERTURE LIST*
%ADD10C,0.100000*%
%ADD11C,0.187500*%
%ADD12C,0.150000*%
%ADD13C,0.120000*%
%ADD14C,0.200000*%
G04 APERTURE END LIST*
D10*
X148743734Y-71586704D02*
X148267544Y-71586704D01*
X148838972Y-71872419D02*
X148505639Y-70872419D01*
X148505639Y-70872419D02*
X148172306Y-71872419D01*
X149562782Y-74548609D02*
X149419925Y-74596228D01*
X149419925Y-74596228D02*
X149372306Y-74643847D01*
X149372306Y-74643847D02*
X149324687Y-74739085D01*
X149324687Y-74739085D02*
X149324687Y-74881942D01*
X149324687Y-74881942D02*
X149372306Y-74977180D01*
X149372306Y-74977180D02*
X149419925Y-75024800D01*
X149419925Y-75024800D02*
X149515163Y-75072419D01*
X149515163Y-75072419D02*
X149896115Y-75072419D01*
X149896115Y-75072419D02*
X149896115Y-74072419D01*
X149896115Y-74072419D02*
X149562782Y-74072419D01*
X149562782Y-74072419D02*
X149467544Y-74120038D01*
X149467544Y-74120038D02*
X149419925Y-74167657D01*
X149419925Y-74167657D02*
X149372306Y-74262895D01*
X149372306Y-74262895D02*
X149372306Y-74358133D01*
X149372306Y-74358133D02*
X149419925Y-74453371D01*
X149419925Y-74453371D02*
X149467544Y-74500990D01*
X149467544Y-74500990D02*
X149562782Y-74548609D01*
X149562782Y-74548609D02*
X149896115Y-74548609D01*
X158491353Y-67855752D02*
X158253258Y-68522419D01*
X158253258Y-68522419D02*
X158015163Y-67855752D01*
X157110401Y-68522419D02*
X157681829Y-68522419D01*
X157396115Y-68522419D02*
X157396115Y-67522419D01*
X157396115Y-67522419D02*
X157491353Y-67665276D01*
X157491353Y-67665276D02*
X157586591Y-67760514D01*
X157586591Y-67760514D02*
X157681829Y-67808133D01*
X156681829Y-68427180D02*
X156634210Y-68474800D01*
X156634210Y-68474800D02*
X156681829Y-68522419D01*
X156681829Y-68522419D02*
X156729448Y-68474800D01*
X156729448Y-68474800D02*
X156681829Y-68427180D01*
X156681829Y-68427180D02*
X156681829Y-68522419D01*
X155681830Y-68522419D02*
X156253258Y-68522419D01*
X155967544Y-68522419D02*
X155967544Y-67522419D01*
X155967544Y-67522419D02*
X156062782Y-67665276D01*
X156062782Y-67665276D02*
X156158020Y-67760514D01*
X156158020Y-67760514D02*
X156253258Y-67808133D01*
X154824687Y-68522419D02*
X154824687Y-67998609D01*
X154824687Y-67998609D02*
X154872306Y-67903371D01*
X154872306Y-67903371D02*
X154967544Y-67855752D01*
X154967544Y-67855752D02*
X155158020Y-67855752D01*
X155158020Y-67855752D02*
X155253258Y-67903371D01*
X154824687Y-68474800D02*
X154919925Y-68522419D01*
X154919925Y-68522419D02*
X155158020Y-68522419D01*
X155158020Y-68522419D02*
X155253258Y-68474800D01*
X155253258Y-68474800D02*
X155300877Y-68379561D01*
X155300877Y-68379561D02*
X155300877Y-68284323D01*
X155300877Y-68284323D02*
X155253258Y-68189085D01*
X155253258Y-68189085D02*
X155158020Y-68141466D01*
X155158020Y-68141466D02*
X154919925Y-68141466D01*
X154919925Y-68141466D02*
X154824687Y-68093847D01*
X153634210Y-67617657D02*
X153586591Y-67570038D01*
X153586591Y-67570038D02*
X153491353Y-67522419D01*
X153491353Y-67522419D02*
X153253258Y-67522419D01*
X153253258Y-67522419D02*
X153158020Y-67570038D01*
X153158020Y-67570038D02*
X153110401Y-67617657D01*
X153110401Y-67617657D02*
X153062782Y-67712895D01*
X153062782Y-67712895D02*
X153062782Y-67808133D01*
X153062782Y-67808133D02*
X153110401Y-67950990D01*
X153110401Y-67950990D02*
X153681829Y-68522419D01*
X153681829Y-68522419D02*
X153062782Y-68522419D01*
X152443734Y-67522419D02*
X152348496Y-67522419D01*
X152348496Y-67522419D02*
X152253258Y-67570038D01*
X152253258Y-67570038D02*
X152205639Y-67617657D01*
X152205639Y-67617657D02*
X152158020Y-67712895D01*
X152158020Y-67712895D02*
X152110401Y-67903371D01*
X152110401Y-67903371D02*
X152110401Y-68141466D01*
X152110401Y-68141466D02*
X152158020Y-68331942D01*
X152158020Y-68331942D02*
X152205639Y-68427180D01*
X152205639Y-68427180D02*
X152253258Y-68474800D01*
X152253258Y-68474800D02*
X152348496Y-68522419D01*
X152348496Y-68522419D02*
X152443734Y-68522419D01*
X152443734Y-68522419D02*
X152538972Y-68474800D01*
X152538972Y-68474800D02*
X152586591Y-68427180D01*
X152586591Y-68427180D02*
X152634210Y-68331942D01*
X152634210Y-68331942D02*
X152681829Y-68141466D01*
X152681829Y-68141466D02*
X152681829Y-67903371D01*
X152681829Y-67903371D02*
X152634210Y-67712895D01*
X152634210Y-67712895D02*
X152586591Y-67617657D01*
X152586591Y-67617657D02*
X152538972Y-67570038D01*
X152538972Y-67570038D02*
X152443734Y-67522419D01*
X151729448Y-67617657D02*
X151681829Y-67570038D01*
X151681829Y-67570038D02*
X151586591Y-67522419D01*
X151586591Y-67522419D02*
X151348496Y-67522419D01*
X151348496Y-67522419D02*
X151253258Y-67570038D01*
X151253258Y-67570038D02*
X151205639Y-67617657D01*
X151205639Y-67617657D02*
X151158020Y-67712895D01*
X151158020Y-67712895D02*
X151158020Y-67808133D01*
X151158020Y-67808133D02*
X151205639Y-67950990D01*
X151205639Y-67950990D02*
X151777067Y-68522419D01*
X151777067Y-68522419D02*
X151158020Y-68522419D01*
X150253258Y-67522419D02*
X150729448Y-67522419D01*
X150729448Y-67522419D02*
X150777067Y-67998609D01*
X150777067Y-67998609D02*
X150729448Y-67950990D01*
X150729448Y-67950990D02*
X150634210Y-67903371D01*
X150634210Y-67903371D02*
X150396115Y-67903371D01*
X150396115Y-67903371D02*
X150300877Y-67950990D01*
X150300877Y-67950990D02*
X150253258Y-67998609D01*
X150253258Y-67998609D02*
X150205639Y-68093847D01*
X150205639Y-68093847D02*
X150205639Y-68331942D01*
X150205639Y-68331942D02*
X150253258Y-68427180D01*
X150253258Y-68427180D02*
X150300877Y-68474800D01*
X150300877Y-68474800D02*
X150396115Y-68522419D01*
X150396115Y-68522419D02*
X150634210Y-68522419D01*
X150634210Y-68522419D02*
X150729448Y-68474800D01*
X150729448Y-68474800D02*
X150777067Y-68427180D01*
X149777067Y-68141466D02*
X149015163Y-68141466D01*
X148015163Y-68522419D02*
X148586591Y-68522419D01*
X148300877Y-68522419D02*
X148300877Y-67522419D01*
X148300877Y-67522419D02*
X148396115Y-67665276D01*
X148396115Y-67665276D02*
X148491353Y-67760514D01*
X148491353Y-67760514D02*
X148586591Y-67808133D01*
X147396115Y-67522419D02*
X147300877Y-67522419D01*
X147300877Y-67522419D02*
X147205639Y-67570038D01*
X147205639Y-67570038D02*
X147158020Y-67617657D01*
X147158020Y-67617657D02*
X147110401Y-67712895D01*
X147110401Y-67712895D02*
X147062782Y-67903371D01*
X147062782Y-67903371D02*
X147062782Y-68141466D01*
X147062782Y-68141466D02*
X147110401Y-68331942D01*
X147110401Y-68331942D02*
X147158020Y-68427180D01*
X147158020Y-68427180D02*
X147205639Y-68474800D01*
X147205639Y-68474800D02*
X147300877Y-68522419D01*
X147300877Y-68522419D02*
X147396115Y-68522419D01*
X147396115Y-68522419D02*
X147491353Y-68474800D01*
X147491353Y-68474800D02*
X147538972Y-68427180D01*
X147538972Y-68427180D02*
X147586591Y-68331942D01*
X147586591Y-68331942D02*
X147634210Y-68141466D01*
X147634210Y-68141466D02*
X147634210Y-67903371D01*
X147634210Y-67903371D02*
X147586591Y-67712895D01*
X147586591Y-67712895D02*
X147538972Y-67617657D01*
X147538972Y-67617657D02*
X147491353Y-67570038D01*
X147491353Y-67570038D02*
X147396115Y-67522419D01*
X146634210Y-68141466D02*
X145872306Y-68141466D01*
X144872306Y-68522419D02*
X145443734Y-68522419D01*
X145158020Y-68522419D02*
X145158020Y-67522419D01*
X145158020Y-67522419D02*
X145253258Y-67665276D01*
X145253258Y-67665276D02*
X145348496Y-67760514D01*
X145348496Y-67760514D02*
X145443734Y-67808133D01*
X144300877Y-67950990D02*
X144396115Y-67903371D01*
X144396115Y-67903371D02*
X144443734Y-67855752D01*
X144443734Y-67855752D02*
X144491353Y-67760514D01*
X144491353Y-67760514D02*
X144491353Y-67712895D01*
X144491353Y-67712895D02*
X144443734Y-67617657D01*
X144443734Y-67617657D02*
X144396115Y-67570038D01*
X144396115Y-67570038D02*
X144300877Y-67522419D01*
X144300877Y-67522419D02*
X144110401Y-67522419D01*
X144110401Y-67522419D02*
X144015163Y-67570038D01*
X144015163Y-67570038D02*
X143967544Y-67617657D01*
X143967544Y-67617657D02*
X143919925Y-67712895D01*
X143919925Y-67712895D02*
X143919925Y-67760514D01*
X143919925Y-67760514D02*
X143967544Y-67855752D01*
X143967544Y-67855752D02*
X144015163Y-67903371D01*
X144015163Y-67903371D02*
X144110401Y-67950990D01*
X144110401Y-67950990D02*
X144300877Y-67950990D01*
X144300877Y-67950990D02*
X144396115Y-67998609D01*
X144396115Y-67998609D02*
X144443734Y-68046228D01*
X144443734Y-68046228D02*
X144491353Y-68141466D01*
X144491353Y-68141466D02*
X144491353Y-68331942D01*
X144491353Y-68331942D02*
X144443734Y-68427180D01*
X144443734Y-68427180D02*
X144396115Y-68474800D01*
X144396115Y-68474800D02*
X144300877Y-68522419D01*
X144300877Y-68522419D02*
X144110401Y-68522419D01*
X144110401Y-68522419D02*
X144015163Y-68474800D01*
X144015163Y-68474800D02*
X143967544Y-68427180D01*
X143967544Y-68427180D02*
X143919925Y-68331942D01*
X143919925Y-68331942D02*
X143919925Y-68141466D01*
X143919925Y-68141466D02*
X143967544Y-68046228D01*
X143967544Y-68046228D02*
X144015163Y-67998609D01*
X144015163Y-67998609D02*
X144110401Y-67950990D01*
X157972306Y-75120038D02*
X158067544Y-75072419D01*
X158067544Y-75072419D02*
X158210401Y-75072419D01*
X158210401Y-75072419D02*
X158353258Y-75120038D01*
X158353258Y-75120038D02*
X158448496Y-75215276D01*
X158448496Y-75215276D02*
X158496115Y-75310514D01*
X158496115Y-75310514D02*
X158543734Y-75500990D01*
X158543734Y-75500990D02*
X158543734Y-75643847D01*
X158543734Y-75643847D02*
X158496115Y-75834323D01*
X158496115Y-75834323D02*
X158448496Y-75929561D01*
X158448496Y-75929561D02*
X158353258Y-76024800D01*
X158353258Y-76024800D02*
X158210401Y-76072419D01*
X158210401Y-76072419D02*
X158115163Y-76072419D01*
X158115163Y-76072419D02*
X157972306Y-76024800D01*
X157972306Y-76024800D02*
X157924687Y-75977180D01*
X157924687Y-75977180D02*
X157924687Y-75643847D01*
X157924687Y-75643847D02*
X158115163Y-75643847D01*
X157496115Y-76072419D02*
X157496115Y-75072419D01*
X157496115Y-75072419D02*
X156924687Y-76072419D01*
X156924687Y-76072419D02*
X156924687Y-75072419D01*
X156448496Y-76072419D02*
X156448496Y-75072419D01*
X156448496Y-75072419D02*
X156210401Y-75072419D01*
X156210401Y-75072419D02*
X156067544Y-75120038D01*
X156067544Y-75120038D02*
X155972306Y-75215276D01*
X155972306Y-75215276D02*
X155924687Y-75310514D01*
X155924687Y-75310514D02*
X155877068Y-75500990D01*
X155877068Y-75500990D02*
X155877068Y-75643847D01*
X155877068Y-75643847D02*
X155924687Y-75834323D01*
X155924687Y-75834323D02*
X155972306Y-75929561D01*
X155972306Y-75929561D02*
X156067544Y-76024800D01*
X156067544Y-76024800D02*
X156210401Y-76072419D01*
X156210401Y-76072419D02*
X156448496Y-76072419D01*
X155172419Y-92927693D02*
X155172419Y-92356265D01*
X155172419Y-92641979D02*
X154172419Y-92641979D01*
X154172419Y-92641979D02*
X154315276Y-92546741D01*
X154315276Y-92546741D02*
X154410514Y-92451503D01*
X154410514Y-92451503D02*
X154458133Y-92356265D01*
X154267657Y-93308646D02*
X154220038Y-93356265D01*
X154220038Y-93356265D02*
X154172419Y-93451503D01*
X154172419Y-93451503D02*
X154172419Y-93689598D01*
X154172419Y-93689598D02*
X154220038Y-93784836D01*
X154220038Y-93784836D02*
X154267657Y-93832455D01*
X154267657Y-93832455D02*
X154362895Y-93880074D01*
X154362895Y-93880074D02*
X154458133Y-93880074D01*
X154458133Y-93880074D02*
X154600990Y-93832455D01*
X154600990Y-93832455D02*
X155172419Y-93261027D01*
X155172419Y-93261027D02*
X155172419Y-93880074D01*
X154172419Y-94165789D02*
X155172419Y-94499122D01*
X155172419Y-94499122D02*
X154172419Y-94832455D01*
X156920038Y-92827693D02*
X156872419Y-92732455D01*
X156872419Y-92732455D02*
X156872419Y-92589598D01*
X156872419Y-92589598D02*
X156920038Y-92446741D01*
X156920038Y-92446741D02*
X157015276Y-92351503D01*
X157015276Y-92351503D02*
X157110514Y-92303884D01*
X157110514Y-92303884D02*
X157300990Y-92256265D01*
X157300990Y-92256265D02*
X157443847Y-92256265D01*
X157443847Y-92256265D02*
X157634323Y-92303884D01*
X157634323Y-92303884D02*
X157729561Y-92351503D01*
X157729561Y-92351503D02*
X157824800Y-92446741D01*
X157824800Y-92446741D02*
X157872419Y-92589598D01*
X157872419Y-92589598D02*
X157872419Y-92684836D01*
X157872419Y-92684836D02*
X157824800Y-92827693D01*
X157824800Y-92827693D02*
X157777180Y-92875312D01*
X157777180Y-92875312D02*
X157443847Y-92875312D01*
X157443847Y-92875312D02*
X157443847Y-92684836D01*
X157872419Y-93303884D02*
X156872419Y-93303884D01*
X156872419Y-93303884D02*
X157872419Y-93875312D01*
X157872419Y-93875312D02*
X156872419Y-93875312D01*
X157872419Y-94351503D02*
X156872419Y-94351503D01*
X156872419Y-94351503D02*
X156872419Y-94589598D01*
X156872419Y-94589598D02*
X156920038Y-94732455D01*
X156920038Y-94732455D02*
X157015276Y-94827693D01*
X157015276Y-94827693D02*
X157110514Y-94875312D01*
X157110514Y-94875312D02*
X157300990Y-94922931D01*
X157300990Y-94922931D02*
X157443847Y-94922931D01*
X157443847Y-94922931D02*
X157634323Y-94875312D01*
X157634323Y-94875312D02*
X157729561Y-94827693D01*
X157729561Y-94827693D02*
X157824800Y-94732455D01*
X157824800Y-94732455D02*
X157872419Y-94589598D01*
X157872419Y-94589598D02*
X157872419Y-94351503D01*
X151175200Y-71743734D02*
X151127580Y-71600877D01*
X151127580Y-71600877D02*
X151127580Y-71362782D01*
X151127580Y-71362782D02*
X151175200Y-71267544D01*
X151175200Y-71267544D02*
X151222819Y-71219925D01*
X151222819Y-71219925D02*
X151318057Y-71172306D01*
X151318057Y-71172306D02*
X151413295Y-71172306D01*
X151413295Y-71172306D02*
X151508533Y-71219925D01*
X151508533Y-71219925D02*
X151556152Y-71267544D01*
X151556152Y-71267544D02*
X151603771Y-71362782D01*
X151603771Y-71362782D02*
X151651390Y-71553258D01*
X151651390Y-71553258D02*
X151699009Y-71648496D01*
X151699009Y-71648496D02*
X151746628Y-71696115D01*
X151746628Y-71696115D02*
X151841866Y-71743734D01*
X151841866Y-71743734D02*
X151937104Y-71743734D01*
X151937104Y-71743734D02*
X152032342Y-71696115D01*
X152032342Y-71696115D02*
X152079961Y-71648496D01*
X152079961Y-71648496D02*
X152127580Y-71553258D01*
X152127580Y-71553258D02*
X152127580Y-71315163D01*
X152127580Y-71315163D02*
X152079961Y-71172306D01*
X151127580Y-70743734D02*
X151794247Y-70743734D01*
X152127580Y-70743734D02*
X152079961Y-70791353D01*
X152079961Y-70791353D02*
X152032342Y-70743734D01*
X152032342Y-70743734D02*
X152079961Y-70696115D01*
X152079961Y-70696115D02*
X152127580Y-70743734D01*
X152127580Y-70743734D02*
X152032342Y-70743734D01*
X151794247Y-70267544D02*
X151127580Y-70267544D01*
X151699009Y-70267544D02*
X151746628Y-70219925D01*
X151746628Y-70219925D02*
X151794247Y-70124687D01*
X151794247Y-70124687D02*
X151794247Y-69981830D01*
X151794247Y-69981830D02*
X151746628Y-69886592D01*
X151746628Y-69886592D02*
X151651390Y-69838973D01*
X151651390Y-69838973D02*
X151127580Y-69838973D01*
X153275200Y-71743734D02*
X153227580Y-71600877D01*
X153227580Y-71600877D02*
X153227580Y-71362782D01*
X153227580Y-71362782D02*
X153275200Y-71267544D01*
X153275200Y-71267544D02*
X153322819Y-71219925D01*
X153322819Y-71219925D02*
X153418057Y-71172306D01*
X153418057Y-71172306D02*
X153513295Y-71172306D01*
X153513295Y-71172306D02*
X153608533Y-71219925D01*
X153608533Y-71219925D02*
X153656152Y-71267544D01*
X153656152Y-71267544D02*
X153703771Y-71362782D01*
X153703771Y-71362782D02*
X153751390Y-71553258D01*
X153751390Y-71553258D02*
X153799009Y-71648496D01*
X153799009Y-71648496D02*
X153846628Y-71696115D01*
X153846628Y-71696115D02*
X153941866Y-71743734D01*
X153941866Y-71743734D02*
X154037104Y-71743734D01*
X154037104Y-71743734D02*
X154132342Y-71696115D01*
X154132342Y-71696115D02*
X154179961Y-71648496D01*
X154179961Y-71648496D02*
X154227580Y-71553258D01*
X154227580Y-71553258D02*
X154227580Y-71315163D01*
X154227580Y-71315163D02*
X154179961Y-71172306D01*
X153227580Y-70600877D02*
X153275200Y-70696115D01*
X153275200Y-70696115D02*
X153322819Y-70743734D01*
X153322819Y-70743734D02*
X153418057Y-70791353D01*
X153418057Y-70791353D02*
X153703771Y-70791353D01*
X153703771Y-70791353D02*
X153799009Y-70743734D01*
X153799009Y-70743734D02*
X153846628Y-70696115D01*
X153846628Y-70696115D02*
X153894247Y-70600877D01*
X153894247Y-70600877D02*
X153894247Y-70458020D01*
X153894247Y-70458020D02*
X153846628Y-70362782D01*
X153846628Y-70362782D02*
X153799009Y-70315163D01*
X153799009Y-70315163D02*
X153703771Y-70267544D01*
X153703771Y-70267544D02*
X153418057Y-70267544D01*
X153418057Y-70267544D02*
X153322819Y-70315163D01*
X153322819Y-70315163D02*
X153275200Y-70362782D01*
X153275200Y-70362782D02*
X153227580Y-70458020D01*
X153227580Y-70458020D02*
X153227580Y-70600877D01*
X153894247Y-69410401D02*
X153227580Y-69410401D01*
X153894247Y-69838972D02*
X153370438Y-69838972D01*
X153370438Y-69838972D02*
X153275200Y-69791353D01*
X153275200Y-69791353D02*
X153227580Y-69696115D01*
X153227580Y-69696115D02*
X153227580Y-69553258D01*
X153227580Y-69553258D02*
X153275200Y-69458020D01*
X153275200Y-69458020D02*
X153322819Y-69410401D01*
X153894247Y-69077067D02*
X153894247Y-68696115D01*
X154227580Y-68934210D02*
X153370438Y-68934210D01*
X153370438Y-68934210D02*
X153275200Y-68886591D01*
X153275200Y-68886591D02*
X153227580Y-68791353D01*
X153227580Y-68791353D02*
X153227580Y-68696115D01*
D11*
X159219502Y-67056678D02*
X159219502Y-65556678D01*
X159219502Y-65556678D02*
X158862359Y-65556678D01*
X158862359Y-65556678D02*
X158648073Y-65628107D01*
X158648073Y-65628107D02*
X158505216Y-65770964D01*
X158505216Y-65770964D02*
X158433787Y-65913821D01*
X158433787Y-65913821D02*
X158362359Y-66199535D01*
X158362359Y-66199535D02*
X158362359Y-66413821D01*
X158362359Y-66413821D02*
X158433787Y-66699535D01*
X158433787Y-66699535D02*
X158505216Y-66842392D01*
X158505216Y-66842392D02*
X158648073Y-66985250D01*
X158648073Y-66985250D02*
X158862359Y-67056678D01*
X158862359Y-67056678D02*
X159219502Y-67056678D01*
X157076645Y-67056678D02*
X157076645Y-66270964D01*
X157076645Y-66270964D02*
X157148073Y-66128107D01*
X157148073Y-66128107D02*
X157290930Y-66056678D01*
X157290930Y-66056678D02*
X157576645Y-66056678D01*
X157576645Y-66056678D02*
X157719502Y-66128107D01*
X157076645Y-66985250D02*
X157219502Y-67056678D01*
X157219502Y-67056678D02*
X157576645Y-67056678D01*
X157576645Y-67056678D02*
X157719502Y-66985250D01*
X157719502Y-66985250D02*
X157790930Y-66842392D01*
X157790930Y-66842392D02*
X157790930Y-66699535D01*
X157790930Y-66699535D02*
X157719502Y-66556678D01*
X157719502Y-66556678D02*
X157576645Y-66485250D01*
X157576645Y-66485250D02*
X157219502Y-66485250D01*
X157219502Y-66485250D02*
X157076645Y-66413821D01*
X156362359Y-66056678D02*
X156362359Y-67056678D01*
X156362359Y-66199535D02*
X156290930Y-66128107D01*
X156290930Y-66128107D02*
X156148073Y-66056678D01*
X156148073Y-66056678D02*
X155933787Y-66056678D01*
X155933787Y-66056678D02*
X155790930Y-66128107D01*
X155790930Y-66128107D02*
X155719502Y-66270964D01*
X155719502Y-66270964D02*
X155719502Y-67056678D01*
X154362359Y-66985250D02*
X154505216Y-67056678D01*
X154505216Y-67056678D02*
X154790930Y-67056678D01*
X154790930Y-67056678D02*
X154933787Y-66985250D01*
X154933787Y-66985250D02*
X155005216Y-66913821D01*
X155005216Y-66913821D02*
X155076644Y-66770964D01*
X155076644Y-66770964D02*
X155076644Y-66342392D01*
X155076644Y-66342392D02*
X155005216Y-66199535D01*
X155005216Y-66199535D02*
X154933787Y-66128107D01*
X154933787Y-66128107D02*
X154790930Y-66056678D01*
X154790930Y-66056678D02*
X154505216Y-66056678D01*
X154505216Y-66056678D02*
X154362359Y-66128107D01*
X153148073Y-66985250D02*
X153290930Y-67056678D01*
X153290930Y-67056678D02*
X153576645Y-67056678D01*
X153576645Y-67056678D02*
X153719502Y-66985250D01*
X153719502Y-66985250D02*
X153790930Y-66842392D01*
X153790930Y-66842392D02*
X153790930Y-66270964D01*
X153790930Y-66270964D02*
X153719502Y-66128107D01*
X153719502Y-66128107D02*
X153576645Y-66056678D01*
X153576645Y-66056678D02*
X153290930Y-66056678D01*
X153290930Y-66056678D02*
X153148073Y-66128107D01*
X153148073Y-66128107D02*
X153076645Y-66270964D01*
X153076645Y-66270964D02*
X153076645Y-66413821D01*
X153076645Y-66413821D02*
X153790930Y-66556678D01*
X152648073Y-66056678D02*
X152076645Y-66056678D01*
X152433788Y-67056678D02*
X152433788Y-65770964D01*
X152433788Y-65770964D02*
X152362359Y-65628107D01*
X152362359Y-65628107D02*
X152219502Y-65556678D01*
X152219502Y-65556678D02*
X152076645Y-65556678D01*
X151362359Y-67056678D02*
X151505216Y-66985250D01*
X151505216Y-66985250D02*
X151576645Y-66842392D01*
X151576645Y-66842392D02*
X151576645Y-65556678D01*
X150576645Y-67056678D02*
X150719502Y-66985250D01*
X150719502Y-66985250D02*
X150790931Y-66913821D01*
X150790931Y-66913821D02*
X150862359Y-66770964D01*
X150862359Y-66770964D02*
X150862359Y-66342392D01*
X150862359Y-66342392D02*
X150790931Y-66199535D01*
X150790931Y-66199535D02*
X150719502Y-66128107D01*
X150719502Y-66128107D02*
X150576645Y-66056678D01*
X150576645Y-66056678D02*
X150362359Y-66056678D01*
X150362359Y-66056678D02*
X150219502Y-66128107D01*
X150219502Y-66128107D02*
X150148074Y-66199535D01*
X150148074Y-66199535D02*
X150076645Y-66342392D01*
X150076645Y-66342392D02*
X150076645Y-66770964D01*
X150076645Y-66770964D02*
X150148074Y-66913821D01*
X150148074Y-66913821D02*
X150219502Y-66985250D01*
X150219502Y-66985250D02*
X150362359Y-67056678D01*
X150362359Y-67056678D02*
X150576645Y-67056678D01*
X149219502Y-67056678D02*
X149362359Y-66985250D01*
X149362359Y-66985250D02*
X149433788Y-66913821D01*
X149433788Y-66913821D02*
X149505216Y-66770964D01*
X149505216Y-66770964D02*
X149505216Y-66342392D01*
X149505216Y-66342392D02*
X149433788Y-66199535D01*
X149433788Y-66199535D02*
X149362359Y-66128107D01*
X149362359Y-66128107D02*
X149219502Y-66056678D01*
X149219502Y-66056678D02*
X149005216Y-66056678D01*
X149005216Y-66056678D02*
X148862359Y-66128107D01*
X148862359Y-66128107D02*
X148790931Y-66199535D01*
X148790931Y-66199535D02*
X148719502Y-66342392D01*
X148719502Y-66342392D02*
X148719502Y-66770964D01*
X148719502Y-66770964D02*
X148790931Y-66913821D01*
X148790931Y-66913821D02*
X148862359Y-66985250D01*
X148862359Y-66985250D02*
X149005216Y-67056678D01*
X149005216Y-67056678D02*
X149219502Y-67056678D01*
X148076645Y-67056678D02*
X148076645Y-66056678D01*
X148076645Y-66342392D02*
X148005216Y-66199535D01*
X148005216Y-66199535D02*
X147933788Y-66128107D01*
X147933788Y-66128107D02*
X147790930Y-66056678D01*
X147790930Y-66056678D02*
X147648073Y-66056678D01*
X147219502Y-65699535D02*
X147148074Y-65628107D01*
X147148074Y-65628107D02*
X147005217Y-65556678D01*
X147005217Y-65556678D02*
X146648074Y-65556678D01*
X146648074Y-65556678D02*
X146505217Y-65628107D01*
X146505217Y-65628107D02*
X146433788Y-65699535D01*
X146433788Y-65699535D02*
X146362359Y-65842392D01*
X146362359Y-65842392D02*
X146362359Y-65985250D01*
X146362359Y-65985250D02*
X146433788Y-66199535D01*
X146433788Y-66199535D02*
X147290931Y-67056678D01*
X147290931Y-67056678D02*
X146362359Y-67056678D01*
X144790931Y-65556678D02*
X143933789Y-65556678D01*
X144362360Y-67056678D02*
X144362360Y-65556678D01*
X143433789Y-67056678D02*
X143433789Y-66056678D01*
X143433789Y-65556678D02*
X143505217Y-65628107D01*
X143505217Y-65628107D02*
X143433789Y-65699535D01*
X143433789Y-65699535D02*
X143362360Y-65628107D01*
X143362360Y-65628107D02*
X143433789Y-65556678D01*
X143433789Y-65556678D02*
X143433789Y-65699535D01*
X142505217Y-67056678D02*
X142648074Y-66985250D01*
X142648074Y-66985250D02*
X142719503Y-66842392D01*
X142719503Y-66842392D02*
X142719503Y-65556678D01*
X141362360Y-66985250D02*
X141505217Y-67056678D01*
X141505217Y-67056678D02*
X141790932Y-67056678D01*
X141790932Y-67056678D02*
X141933789Y-66985250D01*
X141933789Y-66985250D02*
X142005217Y-66842392D01*
X142005217Y-66842392D02*
X142005217Y-66270964D01*
X142005217Y-66270964D02*
X141933789Y-66128107D01*
X141933789Y-66128107D02*
X141790932Y-66056678D01*
X141790932Y-66056678D02*
X141505217Y-66056678D01*
X141505217Y-66056678D02*
X141362360Y-66128107D01*
X141362360Y-66128107D02*
X141290932Y-66270964D01*
X141290932Y-66270964D02*
X141290932Y-66413821D01*
X141290932Y-66413821D02*
X142005217Y-66556678D01*
D12*
X150866666Y-78059580D02*
X150914285Y-78107200D01*
X150914285Y-78107200D02*
X151057142Y-78154819D01*
X151057142Y-78154819D02*
X151152380Y-78154819D01*
X151152380Y-78154819D02*
X151295237Y-78107200D01*
X151295237Y-78107200D02*
X151390475Y-78011961D01*
X151390475Y-78011961D02*
X151438094Y-77916723D01*
X151438094Y-77916723D02*
X151485713Y-77726247D01*
X151485713Y-77726247D02*
X151485713Y-77583390D01*
X151485713Y-77583390D02*
X151438094Y-77392914D01*
X151438094Y-77392914D02*
X151390475Y-77297676D01*
X151390475Y-77297676D02*
X151295237Y-77202438D01*
X151295237Y-77202438D02*
X151152380Y-77154819D01*
X151152380Y-77154819D02*
X151057142Y-77154819D01*
X151057142Y-77154819D02*
X150914285Y-77202438D01*
X150914285Y-77202438D02*
X150866666Y-77250057D01*
X150009523Y-77154819D02*
X150199999Y-77154819D01*
X150199999Y-77154819D02*
X150295237Y-77202438D01*
X150295237Y-77202438D02*
X150342856Y-77250057D01*
X150342856Y-77250057D02*
X150438094Y-77392914D01*
X150438094Y-77392914D02*
X150485713Y-77583390D01*
X150485713Y-77583390D02*
X150485713Y-77964342D01*
X150485713Y-77964342D02*
X150438094Y-78059580D01*
X150438094Y-78059580D02*
X150390475Y-78107200D01*
X150390475Y-78107200D02*
X150295237Y-78154819D01*
X150295237Y-78154819D02*
X150104761Y-78154819D01*
X150104761Y-78154819D02*
X150009523Y-78107200D01*
X150009523Y-78107200D02*
X149961904Y-78059580D01*
X149961904Y-78059580D02*
X149914285Y-77964342D01*
X149914285Y-77964342D02*
X149914285Y-77726247D01*
X149914285Y-77726247D02*
X149961904Y-77631009D01*
X149961904Y-77631009D02*
X150009523Y-77583390D01*
X150009523Y-77583390D02*
X150104761Y-77535771D01*
X150104761Y-77535771D02*
X150295237Y-77535771D01*
X150295237Y-77535771D02*
X150390475Y-77583390D01*
X150390475Y-77583390D02*
X150438094Y-77631009D01*
X150438094Y-77631009D02*
X150485713Y-77726247D01*
X144266666Y-87154819D02*
X144599999Y-86678628D01*
X144838094Y-87154819D02*
X144838094Y-86154819D01*
X144838094Y-86154819D02*
X144457142Y-86154819D01*
X144457142Y-86154819D02*
X144361904Y-86202438D01*
X144361904Y-86202438D02*
X144314285Y-86250057D01*
X144314285Y-86250057D02*
X144266666Y-86345295D01*
X144266666Y-86345295D02*
X144266666Y-86488152D01*
X144266666Y-86488152D02*
X144314285Y-86583390D01*
X144314285Y-86583390D02*
X144361904Y-86631009D01*
X144361904Y-86631009D02*
X144457142Y-86678628D01*
X144457142Y-86678628D02*
X144838094Y-86678628D01*
X143314285Y-87154819D02*
X143885713Y-87154819D01*
X143599999Y-87154819D02*
X143599999Y-86154819D01*
X143599999Y-86154819D02*
X143695237Y-86297676D01*
X143695237Y-86297676D02*
X143790475Y-86392914D01*
X143790475Y-86392914D02*
X143885713Y-86440533D01*
X148666666Y-78059580D02*
X148714285Y-78107200D01*
X148714285Y-78107200D02*
X148857142Y-78154819D01*
X148857142Y-78154819D02*
X148952380Y-78154819D01*
X148952380Y-78154819D02*
X149095237Y-78107200D01*
X149095237Y-78107200D02*
X149190475Y-78011961D01*
X149190475Y-78011961D02*
X149238094Y-77916723D01*
X149238094Y-77916723D02*
X149285713Y-77726247D01*
X149285713Y-77726247D02*
X149285713Y-77583390D01*
X149285713Y-77583390D02*
X149238094Y-77392914D01*
X149238094Y-77392914D02*
X149190475Y-77297676D01*
X149190475Y-77297676D02*
X149095237Y-77202438D01*
X149095237Y-77202438D02*
X148952380Y-77154819D01*
X148952380Y-77154819D02*
X148857142Y-77154819D01*
X148857142Y-77154819D02*
X148714285Y-77202438D01*
X148714285Y-77202438D02*
X148666666Y-77250057D01*
X147761904Y-77154819D02*
X148238094Y-77154819D01*
X148238094Y-77154819D02*
X148285713Y-77631009D01*
X148285713Y-77631009D02*
X148238094Y-77583390D01*
X148238094Y-77583390D02*
X148142856Y-77535771D01*
X148142856Y-77535771D02*
X147904761Y-77535771D01*
X147904761Y-77535771D02*
X147809523Y-77583390D01*
X147809523Y-77583390D02*
X147761904Y-77631009D01*
X147761904Y-77631009D02*
X147714285Y-77726247D01*
X147714285Y-77726247D02*
X147714285Y-77964342D01*
X147714285Y-77964342D02*
X147761904Y-78059580D01*
X147761904Y-78059580D02*
X147809523Y-78107200D01*
X147809523Y-78107200D02*
X147904761Y-78154819D01*
X147904761Y-78154819D02*
X148142856Y-78154819D01*
X148142856Y-78154819D02*
X148238094Y-78107200D01*
X148238094Y-78107200D02*
X148285713Y-78059580D01*
X153066666Y-78054819D02*
X153399999Y-77578628D01*
X153638094Y-78054819D02*
X153638094Y-77054819D01*
X153638094Y-77054819D02*
X153257142Y-77054819D01*
X153257142Y-77054819D02*
X153161904Y-77102438D01*
X153161904Y-77102438D02*
X153114285Y-77150057D01*
X153114285Y-77150057D02*
X153066666Y-77245295D01*
X153066666Y-77245295D02*
X153066666Y-77388152D01*
X153066666Y-77388152D02*
X153114285Y-77483390D01*
X153114285Y-77483390D02*
X153161904Y-77531009D01*
X153161904Y-77531009D02*
X153257142Y-77578628D01*
X153257142Y-77578628D02*
X153638094Y-77578628D01*
X152685713Y-77150057D02*
X152638094Y-77102438D01*
X152638094Y-77102438D02*
X152542856Y-77054819D01*
X152542856Y-77054819D02*
X152304761Y-77054819D01*
X152304761Y-77054819D02*
X152209523Y-77102438D01*
X152209523Y-77102438D02*
X152161904Y-77150057D01*
X152161904Y-77150057D02*
X152114285Y-77245295D01*
X152114285Y-77245295D02*
X152114285Y-77340533D01*
X152114285Y-77340533D02*
X152161904Y-77483390D01*
X152161904Y-77483390D02*
X152733332Y-78054819D01*
X152733332Y-78054819D02*
X152114285Y-78054819D01*
%TO.C,C6*%
D13*
X149965000Y-79838748D02*
X149965000Y-80361252D01*
X151435000Y-79838748D02*
X151435000Y-80361252D01*
%TO.C,R1*%
X143372936Y-85835000D02*
X143827064Y-85835000D01*
X143372936Y-84365000D02*
X143827064Y-84365000D01*
%TO.C,C5*%
X147765000Y-79838748D02*
X147765000Y-80361252D01*
X149235000Y-79838748D02*
X149235000Y-80361252D01*
%TO.C,IC1*%
D14*
X146952000Y-81798000D02*
X146952000Y-78602000D01*
X146952000Y-78602000D02*
X142048000Y-78602000D01*
X142048000Y-78602000D02*
X142048000Y-81798000D01*
X142048000Y-81798000D02*
X146952000Y-81798000D01*
X147080000Y-83675000D02*
X147080000Y-82148000D01*
%TO.C,R2*%
D13*
X152165000Y-79872936D02*
X152165000Y-80327064D01*
X153635000Y-79872936D02*
X153635000Y-80327064D01*
%TD*%
M02*
